<svg id="Layer_1" height="32" viewBox="0 0 32 32" width="32" xmlns="http://www.w3.org/2000/svg" data-name="Layer 1"><path d="m16 29a1.5 1.5 0 0 1 -1.5-1.5v-2a1.5 1.5 0 0 1 3 0v2a1.5 1.5 0 0 1 -1.5 1.5z" fill="#ffba00"/><path d="m4.5 18.5a1.5 1.5 0 0 1 -1.5-1.5v-2a1.5 1.5 0 0 1 3 0v2a1.5 1.5 0 0 1 -1.5 1.5z" fill="#0066da"/><path d="m27.5 18.5a1.5 1.5 0 0 1 -1.5-1.5v-2a1.5 1.5 0 0 1 3 0v2a1.5 1.5 0 0 1 -1.5 1.5z" fill="#4285f4"/><path d="m16 8a1.5 1.5 0 0 1 -1.5-1.5v-2a1.5 1.5 0 0 1 3 0v2a1.5 1.5 0 0 1 -1.5 1.5z" fill="#ffba00"/><path d="m10.25 24.5a1.5 1.5 0 0 1 -1.5-1.5v-2a1.5 1.5 0 0 1 3 0v2a1.5 1.5 0 0 1 -1.5 1.5z" fill="#ea4435"/><path d="m10.25 17a1.5 1.5 0 0 1 -1.5-1.5v-6a1.5 1.5 0 0 1 3 0v6a1.5 1.5 0 0 1 -1.5 1.5z" fill="#ea4435"/><path d="m16 22a1.5 1.5 0 0 1 -1.5-1.5v-9a1.5 1.5 0 0 1 3 0v9a1.5 1.5 0 0 1 -1.5 1.5z" fill="#ffba00"/><g fill="#00ac47"><path d="m21.75 12.75a1.5 1.5 0 0 1 -1.5-1.5v-2a1.5 1.5 0 0 1 3 0v2a1.5 1.5 0 0 1 -1.5 1.5z"/><path d="m21.75 24.25a1.5 1.5 0 0 1 -1.5-1.5v-6a1.5 1.5 0 0 1 3 0v6a1.5 1.5 0 0 1 -1.5 1.5z"/></g></svg>