<?xml version="1.0" encoding="UTF-8"?>
<!DOCTYPE svg PUBLIC "-//W3C//DTD SVG 1.1//EN" "http://www.w3.org/Graphics/SVG/1.1/DTD/svg11.dtd">
<svg xmlns="http://www.w3.org/2000/svg" version="1.1" width="200px" height="200px" style="shape-rendering:geometricPrecision; text-rendering:geometricPrecision; image-rendering:optimizeQuality; fill-rule:evenodd; clip-rule:evenodd" xmlns:xlink="http://www.w3.org/1999/xlink">
<g><path style="opacity:1" fill="#d73728" d="M -0.5,-0.5 C 66.1667,-0.5 132.833,-0.5 199.5,-0.5C 199.5,66.1667 199.5,132.833 199.5,199.5C 132.833,199.5 66.1667,199.5 -0.5,199.5C -0.5,132.833 -0.5,66.1667 -0.5,-0.5 Z"/></g>
<g><path style="opacity:1" fill="#fefcfc" d="M 88.5,38.5 C 89.5,38.5 90.5,38.5 91.5,38.5C 91.6666,54.1702 91.4999,69.8369 91,85.5C 75.5782,89.7306 60.0782,93.7306 44.5,97.5C 44.5,81.8333 44.5,66.1667 44.5,50.5C 59.3525,46.7891 74.0192,42.7891 88.5,38.5 Z"/></g>
<g><path style="opacity:1" fill="#fefdfd" d="M 150.5,38.5 C 151.833,38.5 153.167,38.5 154.5,38.5C 154.5,75.1667 154.5,111.833 154.5,148.5C 139.094,152.185 123.761,156.185 108.5,160.5C 107.167,123.833 107.167,87.1667 108.5,50.5C 122.612,46.4759 136.612,42.4759 150.5,38.5 Z"/></g>
<g><path style="opacity:1" fill="#fefcfc" d="M 90.5,101.5 C 91.4963,116.991 91.8296,132.658 91.5,148.5C 75.811,152.339 60.1443,156.339 44.5,160.5C 44.1673,144.819 44.5006,129.152 45.5,113.5C 60.3831,109.029 75.3831,105.029 90.5,101.5 Z"/></g>
<g><path style="opacity:1" fill="#e6837a" d="M 90.5,101.5 C 90.56,100.957 90.8933,100.624 91.5,100.5C 92.8266,116.662 92.8266,132.662 91.5,148.5C 91.8296,132.658 91.4963,116.991 90.5,101.5 Z"/></g>
</svg>
