<svg id="Capa_1" enable-background="new 0 0 512 512" height="512" viewBox="0 0 512 512" width="512" xmlns="http://www.w3.org/2000/svg"><g><circle cx="256" cy="208.43" fill="#ff4f6b" r="208.43"/><path d="m422.328 298.783h-332.656c-6.935 0-13.263 2.583-18.087 6.834 34.934 66.151 104.403 111.243 184.415 111.243s149.481-45.092 184.415-111.243c-4.824-4.25-11.152-6.834-18.087-6.834z" fill="#fb2b3a"/><circle cx="256" cy="208.43" fill="#fff" r="177.525"/><g><path d="m103.247 298.783c30.96 52.142 87.838 87.172 152.753 87.172s121.793-35.029 152.753-87.172z" fill="#f9f7f8"/><path d="m422.329 512h-332.658c-15.12 0-27.377-12.257-27.377-27.377v-127.557c0-15.12 12.257-27.377 27.377-27.377h332.657c15.12 0 27.377 12.257 27.377 27.377v127.557c.001 15.12-12.256 27.377-27.376 27.377z" fill="#ff4f6b"/><path d="m422.328 329.689h-30.905c15.12 0 27.377 12.257 27.377 27.377v127.557c0 15.12-12.257 27.377-27.377 27.377h30.905c15.12 0 27.377-12.257 27.377-27.377v-127.557c.001-15.12-12.256-27.377-27.377-27.377z" fill="#fb2b3a"/><g fill="#fff"><path d="m153.474 465.61c-.015 0-.029 0-.044 0-8.696.048-21.202.096-29.054.088v-97.434c0-4.268-3.459-7.726-7.726-7.726-4.268 0-7.726 3.459-7.726 7.726v105.072c0 3.764 2.711 6.98 6.421 7.616.549.094 1.185.203 12.588.203 5.558 0 13.676-.026 25.586-.093 4.267-.024 7.707-3.502 7.683-7.77-.027-4.252-3.482-7.682-7.728-7.682z"/><path d="m194.539 360.537c-4.268 0-7.726 3.459-7.726 7.726v105.161c0 4.268 3.459 7.726 7.726 7.726 4.268 0 7.726-3.459 7.726-7.726v-105.16c.001-4.268-3.458-7.727-7.726-7.727z"/><path d="m395.351 465.218h-36.18v-36.648h32.943c4.268 0 7.726-3.459 7.726-7.726s-3.459-7.726-7.726-7.726h-32.943v-36.648h36.18c4.268 0 7.726-3.459 7.726-7.726s-3.459-7.726-7.726-7.726h-43.906c-4.268 0-7.726 3.459-7.726 7.726v104.201c0 4.268 3.459 7.726 7.726 7.726h43.906c4.268 0 7.726-3.459 7.726-7.726s-3.458-7.727-7.726-7.727z"/><path d="m312.815 361.125c-4.045-1.346-8.423.846-9.768 4.896l-29.362 88.386-30.782-88.677c-1.398-4.032-5.803-6.171-9.832-4.766-4.031 1.399-6.165 5.801-4.766 9.832l35.973 103.636c1.431 4.026 5.249 6.718 9.517 6.718h.068c4.296-.029 8.111-2.781 9.511-6.899l34.336-103.359c1.347-4.049-.846-8.422-4.895-9.767z"/></g></g><path d="m216.716 266.571v-116.282c0-11.777 13.401-18.543 22.877-11.551l78.799 58.141c7.776 5.737 7.776 17.364 0 23.102l-78.799 58.141c-9.476 6.992-22.877.226-22.877-11.551z" fill="#ff4f6b"/><path d="m318.393 196.879-78.799-58.141c-8.038-5.931-18.894-1.962-22.007 6.565 42.497 31.356 42.497 94.897 0 126.252 3.113 8.527 13.97 12.496 22.007 6.565l78.799-58.141c7.776-5.736 7.776-17.362 0-23.1z" fill="#fb2b3a"/></g></svg>