<svg height="477.60001pt" viewBox="0 0 477.60001 477.60001" width="477.60001pt" xmlns="http://www.w3.org/2000/svg"><path d="m477.601562 238.800781c0 131.886719-106.914062 238.800781-238.800781 238.800781s-238.800781-106.914062-238.800781-238.800781 106.914062-238.800781 238.800781-238.800781 238.800781 106.914062 238.800781 238.800781zm0 0" fill="#382b73"/><path d="m445.398438 238.800781c0 114.101563-92.496094 206.597657-206.597657 206.597657-114.101562 0-206.597656-92.496094-206.597656-206.597657 0-114.101562 92.496094-206.597656 206.597656-206.597656 114.101563 0 206.597657 92.496094 206.597657 206.597656zm0 0" fill="#473080"/><g fill="#382b73"><path d="m311.875 184.21875c-4.15625 0-7.523438 3.367188-7.523438 7.519531v12.855469h-13.253906v-45.632812h-.003906c-.011719-4.089844-.503906-8.0625-1.402344-11.882813h.003906c-.007812-.03125-.015624-.058594-.023437-.09375-.535156-2.238281-1.207031-4.421875-2.015625-6.542969-.078125-.203125-.160156-.40625-.242188-.605468-.382812-.976563-.796874-1.941407-1.238281-2.882813-.015625-.027344-.027343-.058594-.039062-.085937-8.351563-17.765626-26.40625-30.066407-47.335938-30.066407-20.921875 0-38.964843 12.289063-47.332031 30.039063-.027344.058594-.054688.121094-.082031.183594-.425781.910156-.820313 1.832031-1.191407 2.765624-.089843.230469-.179687.457032-.269531.6875-.796875 2.09375-1.464843 4.253907-1.988281 6.46875-.011719.042969-.027344.089844-.039062.132813h.007812c-.898438 3.816406-1.390625 7.789063-1.398438 11.878906h-.007812v13.382813h.003906v11.878906h-.003906v13.359375h.003906v7.011719h-13.257812v-12.851563c0-4.152343-3.367188-7.523437-7.519532-7.523437-4.15625 0-7.523437 3.371094-7.523437 7.523437v53.640625c0 41.90625 32.148437 76.429688 73.074219 80.234375v46.257813h-42.984375c-5.796875 0-10.488281 4.597656-10.707031 10.335937-.015626.136719-.042969.269531-.042969.410157v7.878906c0 2.375 1.925781 4.300781 4.300781 4.300781h113.910156c.886719 0 1.714844-.269531 2.402344-.734375.914062-.617188 1.578125-1.578125 1.808594-2.699219.058594-.277343.085937-.570312.085937-.867187v-7.878906c0-.339844-.058593-.664063-.097656-.992188-.507813-5.460938-5.054687-9.753906-10.648437-9.753906h-42.984376v-46.257813c40.925782-3.808593 73.074219-38.328125 73.074219-80.234375v-53.640625c0-4.152343-3.363281-7.519531-7.519531-7.519531zm-73.074219 126.71875c-36.148437 0-65.554687-29.410156-65.554687-65.554688v-25.75h13.257812v24.003907c0 7.21875 1.460938 14.097656 4.109375 20.355469 7.9375 18.769531 26.523438 31.941406 48.1875 31.941406.902344 0 1.800781-.023438 2.691407-.066406 3.566406-.179688 7.039062-.71875 10.378906-1.578126.835937-.214843 1.660156-.449218 2.480468-.703124 1.636719-.511719 3.242188-1.101563 4.804688-1.761719 7.039062-2.976563 13.289062-7.449219 18.355469-13.023438 1.125-1.238281 2.191406-2.527343 3.195312-3.871093.503907-.671876.988281-1.355469 1.457031-2.050782 5.640626-8.34375 8.933594-18.410156 8.933594-29.238281v-24.003906h13.253906v25.75c0 36.140625-29.40625 65.550781-65.550781 65.550781zm0 0"/><path d="m136.464844 202.464844c-5.519532 0-10 4.480468-10 10v76.667968c0 2.070313.632812 3.996094 1.710937 5.589844 1.792969 2.660156 4.839844 4.410156 8.289063 4.410156 5.523437 0 10-4.476562 10-10v-76.667968c0-5.519532-4.476563-10-10-10zm0 0"/><path d="m100.464844 237.800781c-5.523438 0-10 4.476563-10 10v76.664063c0 1.382812.28125 2.695312.789062 3.894531.367188.867187.886719 1.644531 1.472656 2.367187.402344.496094.847657.949219 1.335938 1.363282.585938.496094 1.222656.917968 1.914062 1.265625 1.355469.6875 2.867188 1.109375 4.488282 1.109375 1.382812 0 2.695312-.277344 3.894531-.785156 2.390625-1.011719 4.308594-2.925782 5.320313-5.320313.507812-1.199219.785156-2.511719.785156-3.894531v-76.664063c0-5.523437-4.476563-10-10-10zm0 0"/><path d="m64.464844 202.464844c-5.523438 0-10 4.480468-10 10v76.667968c0 2.070313.632812 3.996094 1.710937 5.589844 1.792969 2.660156 4.839844 4.410156 8.289063 4.410156 5.523437 0 10-4.476562 10-10v-76.667968c0-5.519532-4.476563-10-10-10zm0 0"/><path d="m341.132812 202.464844c-5.519531 0-10 4.480468-10 10v76.667968c0 5.523438 4.480469 10 10 10 2.070313 0 3.996094-.628906 5.59375-1.707031 1.0625-.71875 1.980469-1.636719 2.699219-2.703125 1.078125-1.59375 1.707031-3.519531 1.707031-5.589844v-76.667968c0-5.519532-4.476562-10-10-10zm0 0"/><path d="m377.132812 237.800781c-5.519531 0-10 4.476563-10 10v56.667969-.003906 20c0 4.144531 2.519532 7.695312 6.109376 9.214844 1.195312.507812 2.511718.785156 3.890624.785156 1.625 0 3.136719-.421875 4.492188-1.109375 2.101562-1.066407 3.800781-2.816407 4.722656-4.996094.507813-1.199219.785156-2.511719.785156-3.894531v-76.664063c0-5.523437-4.476562-10-10-10zm0 0"/><path d="m413.132812 202.464844c-5.519531 0-10 4.480468-10 10v76.667968c0 5.523438 4.480469 10 10 10 2.070313 0 3.996094-.628906 5.59375-1.707031 2.660157-1.796875 4.40625-4.839843 4.40625-8.292969v-76.667968c0-5.519532-4.476562-10-10-10zm0 0"/></g><path d="m165.726562 192.59375h146.148438v15.042969h-146.148438zm0 0" fill="#1caee4"/><path d="m165.726562 201.632812h146.148438v6h-146.148438zm0 0" fill="#136da0"/><path d="m238.800781 283.933594c-28.886719 0-52.296875-23.414063-52.296875-52.296875v-84.539063c0-28.882812 23.410156-52.296875 52.296875-52.296875 28.882813 0 52.296875 23.414063 52.296875 52.296875v84.539063c0 28.882812-23.414062 52.296875-52.296875 52.296875zm0 0" fill="#e6e7e8"/><path d="m238.800781 283.933594c-20.433593 0-37-16.566406-37-37v-115.132813c0-20.433593 16.566407-37 37-37 20.433594 0 37 16.566407 37 37v115.132813c0 20.433594-16.566406 37-37 37zm0 0" fill="#fff"/><path d="m231.277344 306.457031h15.042968v59.863281h-15.042968zm0 0" fill="#1caee4"/><path d="m295.757812 382.800781h-113.914062c-2.375 0-4.296875-1.925781-4.296875-4.296875v-7.882812c0-5.933594 4.8125-10.746094 10.746094-10.746094h101.011719c5.9375 0 10.746093 4.8125 10.746093 10.746094v7.882812c.003907 2.371094-1.921875 4.296875-4.292969 4.296875zm0 0" fill="#1caee4"/><path d="m295.753906 372.800781h-113.910156c-2.042969 0-3.742188-1.429687-4.183594-3.339843-.039062.386718-.113281.761718-.113281 1.160156v7.878906c0 2.375 1.921875 4.296875 4.296875 4.296875h113.910156c2.375 0 4.300782-1.921875 4.300782-4.296875v-7.878906c0-.398438-.078126-.773438-.117188-1.160156-.4375 1.910156-2.140625 3.339843-4.183594 3.339843zm0 0" fill="#136da0"/><path d="m238.800781 313.980469c-44.441406 0-80.597656-36.15625-80.597656-80.597657v-53.644531c0-4.152343 3.367187-7.519531 7.523437-7.519531 4.152344 0 7.519532 3.367188 7.519532 7.519531v53.644531c0 36.144532 29.40625 65.554688 65.554687 65.554688 36.144531 0 65.550781-29.410156 65.550781-65.554688v-53.644531c0-4.152343 3.367188-7.519531 7.523438-7.519531 4.152344 0 7.519531 3.367188 7.519531 7.519531v53.644531c0 44.441407-36.152343 80.597657-80.59375 80.597657zm0 0" fill="#fff"/><path d="m311.875 172.21875c-4.15625 0-7.523438 3.367188-7.523438 7.519531v53.644531c0 36.144532-29.40625 65.554688-65.554687 65.554688-36.144531 0-65.550781-29.410156-65.550781-65.554688v-53.644531c0-4.152343-3.367188-7.519531-7.523438-7.519531v61.164062c0 40.355469 32.71875 73.074219 73.074219 73.074219 40.359375 0 73.074219-32.71875 73.074219-73.074219v-61.164062zm0 0" fill="#d1d3d4"/><path d="m231.277344 349.632812h15.042968v10.242188h-15.042968zm0 0" fill="#009add"/><path d="m231.761719 178.898438c0 1.863281-.761719 3.523437-1.960938 4.722656-1.199219 1.21875-2.878906 1.957031-4.722656 1.957031h-38.578125v-13.359375h38.578125c3.683594 0 6.683594 2.980469 6.683594 6.679688zm0 0" fill="#d1d3d4"/><path d="m231.019531 181.898438c.457031-.902344.742188-1.90625.742188-2.996094 0-3.699219-3-6.679688-6.683594-6.679688h-38.578125v6h38.578125c2.601563-.003906 4.835937 1.496094 5.941406 3.675782zm0 0" fill="#bcbec0"/><path d="m231.761719 153.660156c0 1.839844-.761719 3.5-1.960938 4.71875-1.199219 1.222656-2.878906 1.960938-4.722656 1.960938h-38.578125v-13.378906h38.578125c3.683594 0 6.683594 3 6.683594 6.699218zm0 0" fill="#d1d3d4"/><path d="m231.015625 156.648438c.457031-.90625.746094-1.910157.746094-2.988282 0-3.699218-3-6.699218-6.683594-6.699218h-38.578125v6h38.578125c2.597656 0 4.832031 1.507812 5.9375 3.6875zm0 0" fill="#bcbec0"/><path d="m231.761719 128.398438c0 1.839843-.761719 3.523437-1.960938 4.722656-1.199219 1.21875-2.878906 1.957031-4.722656 1.957031h-37.179687c1.101562-4.738281 2.863281-9.21875 5.179687-13.359375h32c3.683594 0 6.683594 2.980469 6.683594 6.679688zm0 0" fill="#d1d3d4"/><path d="m225.078125 127.71875c2.601563 0 4.832031 1.5 5.9375 3.675781.457031-.90625.746094-1.914062.746094-2.996093 0-3.699219-3-6.679688-6.683594-6.679688h-32c-1.078125 1.925781-2.023437 3.933594-2.851563 6zm0 0" fill="#bcbec0"/><path d="m245.839844 178.898438c0 1.863281.757812 3.523437 1.957031 4.722656 1.199219 1.21875 2.882813 1.957031 4.722656 1.957031h38.578125v-13.359375h-38.578125c-3.679687 0-6.679687 2.980469-6.679687 6.679688zm0 0" fill="#d1d3d4"/><path d="m252.519531 172.21875c-3.679687 0-6.679687 2.980469-6.679687 6.679688 0 1.089843.285156 2.097656.738281 2.996093 1.105469-2.175781 3.339844-3.675781 5.941406-3.675781h38.578125v-6zm0 0" fill="#bcbec0"/><path d="m245.839844 153.660156c0 1.839844.757812 3.5 1.957031 4.71875 1.199219 1.222656 2.882813 1.960938 4.722656 1.960938h38.578125v-13.378906h-38.578125c-3.679687 0-6.679687 3-6.679687 6.699218zm0 0" fill="#d1d3d4"/><path d="m252.519531 146.960938c-3.679687 0-6.679687 3-6.679687 6.699218 0 1.078125.285156 2.082032.746094 2.988282 1.101562-2.179688 3.335937-3.6875 5.933593-3.6875h38.578125v-6zm0 0" fill="#bcbec0"/><path d="m245.839844 128.398438c0 1.839843.757812 3.523437 1.957031 4.722656 1.199219 1.21875 2.882813 1.957031 4.722656 1.957031h37.179688c-1.101563-4.738281-2.859375-9.21875-5.179688-13.359375h-32c-3.679687 0-6.679687 2.980469-6.679687 6.679688zm0 0" fill="#d1d3d4"/><path d="m252.519531 127.71875h34.851563c-.828125-2.066406-1.773438-4.074219-2.851563-6h-32c-3.679687 0-6.679687 2.980469-6.679687 6.679688 0 1.082031.285156 2.089843.742187 2.996093 1.105469-2.175781 3.339844-3.675781 5.9375-3.675781zm0 0" fill="#bcbec0"/><path d="m186.503906 201.632812v30.003907c0 28.882812 23.410156 52.296875 52.296875 52.296875 28.882813 0 52.296875-23.414063 52.296875-52.296875v-30.003907zm0 0" fill="#d1d3d4"/><path d="m238.800781 271.933594c-28.886719 0-52.296875-23.414063-52.296875-52.296875v12c0 28.882812 23.410156 52.296875 52.296875 52.296875 28.882813 0 52.296875-23.414063 52.296875-52.296875v-12c0 28.882812-23.414062 52.296875-52.296875 52.296875zm0 0" fill="#bcbec0"/><path d="m186.503906 201.632812h104.59375v7.417969h-104.59375zm0 0" fill="#bcbec0"/><path d="m136.464844 287.132812c-5.519532 0-10-4.476562-10-10v-76.664062c0-5.523438 4.480468-10 10-10 5.523437 0 10 4.476562 10 10v76.664062c0 5.523438-4.476563 10-10 10zm0 0" fill="#fede3a"/><path d="m136.464844 267.132812c-5.519532 0-10-4.476562-10-10v20c0 5.523438 4.480468 10 10 10 5.523437 0 10-4.476562 10-10v-20c0 5.523438-4.476563 10-10 10zm0 0" fill="#e7ad27"/><path d="m100.464844 322.464844c-5.519532 0-10-4.476563-10-10v-76.664063c0-5.523437 4.480468-10 10-10 5.523437 0 10 4.476563 10 10v76.664063c0 5.523437-4.476563 10-10 10zm0 0" fill="#ef5a9d"/><path d="m64.464844 287.132812c-5.519532 0-10-4.476562-10-10v-76.664062c0-5.523438 4.480468-10 10-10 5.523437 0 10 4.476562 10 10v76.664062c0 5.523438-4.476563 10-10 10zm0 0" fill="#1caee4"/><path d="m100.464844 302.464844c-5.519532 0-10-4.476563-10-10v20c0 5.523437 4.480468 10 10 10 5.523437 0 10-4.476563 10-10v-20c0 5.523437-4.476563 10-10 10zm0 0" fill="#a72973"/><path d="m64.464844 267.132812c-5.519532 0-10-4.476562-10-10v20c0 5.523438 4.480468 10 10 10 5.523437 0 10-4.476562 10-10v-20c0 5.523438-4.476563 10-10 10zm0 0" fill="#136da0"/><path d="m341.132812 287.132812c5.523438 0 10-4.476562 10-10v-76.664062c0-5.523438-4.476562-10-10-10-5.523437 0-10 4.476562-10 10v76.664062c0 5.523438 4.476563 10 10 10zm0 0" fill="#fede3a"/><path d="m341.132812 267.132812c5.523438 0 10-4.476562 10-10v20c0 5.523438-4.476562 10-10 10-5.519531 0-10-4.476562-10-10v-20c0 5.523438 4.476563 10 10 10zm0 0" fill="#e7ad27"/><path d="m377.132812 322.464844c5.523438 0 10-4.476563 10-10v-76.664063c0-5.523437-4.476562-10-10-10-5.523437 0-10 4.476563-10 10v76.664063c0 5.523437 4.476563 10 10 10zm0 0" fill="#ef5a9d"/><path d="m413.132812 287.132812c5.523438 0 10-4.476562 10-10v-76.664062c0-5.523438-4.476562-10-10-10-5.523437 0-10 4.476562-10 10v76.664062c0 5.523438 4.476563 10 10 10zm0 0" fill="#1caee4"/><path d="m377.132812 302.464844c5.523438 0 10-4.476563 10-10v20c0 5.523437-4.476562 10-10 10-5.523437 0-10-4.476563-10-10v-20c0 5.523437 4.476563 10 10 10zm0 0" fill="#a72973"/><path d="m413.132812 267.132812c5.523438 0 10-4.476562 10-10v20c0 5.523438-4.476562 10-10 10-5.523437 0-10-4.476562-10-10v-20c0 5.523438 4.476563 10 10 10zm0 0" fill="#136da0"/></svg>