<svg id="Capa_1" enable-background="new 0 0 512 512" height="512" viewBox="0 0 512 512" width="512" xmlns="http://www.w3.org/2000/svg"><g><g fill="#bfbfbf"><path d="m464.908 134.409h-31.097c-3.344 0-6.055 2.711-6.055 6.056v77.217h43.208v-77.217c-.001-3.345-2.712-6.056-6.056-6.056z"/><path d="m390.375 134.409h-31.097c-3.344 0-6.056 2.711-6.056 6.056v77.217h43.208v-77.217c.001-3.345-2.711-6.056-6.055-6.056z"/><path d="m315.842 134.409h-31.097c-3.344 0-6.055 2.711-6.055 6.056v77.217h43.208v-77.217c0-3.345-2.711-6.056-6.056-6.056z"/></g><path d="m467.828 134.409h-23.361c3.344 0 6.055 2.711 6.055 6.056v77.217h23.362v-77.217c-.001-3.345-2.712-6.056-6.056-6.056z" fill="#acacac"/><path d="m393.295 134.409h-23.362c3.344 0 6.056 2.711 6.056 6.056v77.217h23.362v-77.217c0-3.345-2.711-6.056-6.056-6.056z" fill="#acacac"/><path d="m318.763 134.409h-23.361c3.344 0 6.055 2.711 6.055 6.056v77.217h23.362v-77.217c-.001-3.345-2.712-6.056-6.056-6.056z" fill="#acacac"/><g><path d="m25.286 188.6c-3.23 0-6.242-2.042-7.325-5.274-1.356-4.046.825-8.425 4.871-9.781l422.097-141.435c4.043-1.356 8.426.825 9.781 4.871 1.356 4.046-.825 8.425-4.871 9.781l-422.098 141.435c-.813.273-1.641.403-2.455.403z" fill="#9c9c9c"/></g><path d="m425.571 47.055c-2.525-7.334 1.373-15.326 8.706-17.851l29.046-10.001c1.095-.377 2.289.205 2.666 1.3l7.779 22.59c.377 1.095-.205 2.289-1.3 2.666l-29.046 10.001c-7.334 2.527-15.326-1.371-17.851-8.705z" fill="#98bce5"/><path d="m509.08 462.006v-262.696c0-17.069-13.837-30.905-30.905-30.905h-447.27c-17.068 0-30.905 13.836-30.905 30.905v262.696c0 17.069 13.837 30.905 30.905 30.905h447.269c17.069.001 30.906-13.836 30.906-30.905z" fill="#5f99d7"/><path d="m283.46 313.038v142.06h-233.642c-6.463 0-11.701-5.239-11.701-11.701v-118.657c0-6.463 5.239-11.701 11.701-11.701h233.642z" fill="#e2e2e2"/><path d="m38.117 268.592v-52.651c0-4.876 3.953-8.829 8.829-8.829h236.514v70.31h-236.514c-4.876-.001-8.829-3.954-8.829-8.83z" fill="#98bce5"/><g><path d="m257.094 249.993h-192.773c-4.268 0-7.726-3.459-7.726-7.726s3.459-7.726 7.726-7.726h192.773c4.268 0 7.726 3.459 7.726 7.726s-3.459 7.726-7.726 7.726z" fill="#838383"/></g><g><path d="m102.127 258.347c-4.268 0-7.726-3.459-7.726-7.726v-18.543c0-4.267 3.459-7.726 7.726-7.726s7.726 3.459 7.726 7.726v18.543c.001 4.267-3.458 7.726-7.726 7.726z" fill="#e53950"/></g><circle cx="105.578" cy="383.765" fill="#acacac" r="37.73"/><circle cx="215.999" cy="383.765" fill="#acacac" r="37.73"/><path d="m473.883 324.436v118.658c0 6.462-5.239 11.701-11.701 11.701h-178.722v-142.06h178.722c6.462 0 11.701 5.239 11.701 11.701z" fill="#838383"/><path d="m473.883 215.344v53.846c0 4.546-3.686 8.232-8.232 8.232h-182.191v-70.31h182.191c4.547 0 8.232 3.685 8.232 8.232z" fill="#838383"/><g><g><path d="m322.569 285.203c-4.268 0-7.726-3.459-7.726-7.726v-70.31c0-4.267 3.459-7.726 7.726-7.726s7.726 3.459 7.726 7.726v70.31c.001 4.266-3.458 7.726-7.726 7.726z" fill="#e2e2e2"/></g><g><path d="m360.008 285.203c-4.268 0-7.726-3.459-7.726-7.726v-70.31c0-4.267 3.459-7.726 7.726-7.726s7.726 3.459 7.726 7.726v70.31c0 4.266-3.458 7.726-7.726 7.726z" fill="#e2e2e2"/></g><g><path d="m397.446 285.203c-4.268 0-7.726-3.459-7.726-7.726v-70.31c0-4.267 3.459-7.726 7.726-7.726s7.726 3.459 7.726 7.726v70.31c0 4.266-3.459 7.726-7.726 7.726z" fill="#e2e2e2"/></g><g><path d="m434.884 285.203c-4.268 0-7.726-3.459-7.726-7.726v-70.31c0-4.267 3.459-7.726 7.726-7.726s7.726 3.459 7.726 7.726v70.31c.001 4.266-3.458 7.726-7.726 7.726z" fill="#e2e2e2"/></g></g><path d="m465.651 199.385c-15.648 0-403.766 0-418.705 0-9.129 0-16.555 7.427-16.555 16.555v52.651c0 9.129 7.427 16.556 16.555 16.556h418.705c8.8 0 15.959-7.159 15.959-15.959v-53.846c0-8.798-7.159-15.957-15.959-15.957zm-189.918 70.31h-228.787c-.608 0-1.103-.495-1.103-1.103v-52.651c0-.608.495-1.103 1.103-1.103h228.788v54.857zm190.424-.506c0 .279-.227.506-.506.506h-174.465v-54.857h174.465c.279 0 .506.227.506.506z" fill="#e2e2e2"/><path d="m481.095 168.405h-30.39c17.069 0 30.905 13.837 30.905 30.905v262.696c0 17.069-13.837 30.905-30.905 30.905h30.39c17.069 0 30.905-13.837 30.905-30.905v-262.696c0-17.069-13.837-30.905-30.905-30.905z" fill="#3c87d0"/><g fill="#e2e2e2"><path d="m349.959 362.826c4.268 0 7.726-3.459 7.726-7.726s-3.459-7.726-7.726-7.726h-23.482c-4.268 0-7.726 3.459-7.726 7.726v57.937c0 4.267 3.459 7.726 7.726 7.726s7.726-3.459 7.726-7.726v-21.791h13.89c4.268 0 7.726-3.459 7.726-7.726s-3.459-7.726-7.726-7.726h-13.89v-12.967h15.756z"/><path d="m449.487 411.587-11.142-58.298c-.822-4.038-4.27-7.02-8.383-7.251-4.118-.221-7.874 2.345-9.144 6.265-.028.087-.055.175-.08.263l-10.461 36.695-10.849-36.773c-.027-.092-.055-.183-.086-.273-1.311-3.906-5.115-6.444-9.21-6.167-4.112.275-7.527 3.293-8.324 7.429l-10.502 58.189c-.758 4.199 2.032 8.218 6.231 8.976 4.196.758 8.218-2.032 8.976-6.231l5.72-31.698 9.459 32.059c.026.091.055.181.085.27 1.243 3.707 4.697 6.191 8.605 6.191h.041c3.925-.018 7.377-2.538 8.592-6.27.029-.09.056-.18.082-.271l9.13-32.028 6.083 31.826c.801 4.193 4.855 6.938 9.039 6.139 4.191-.805 6.94-4.851 6.138-9.042z"/></g><path d="m105.578 346.035v8.112c8.75 6.907 14.369 17.605 14.369 29.619 0 16.759-10.931 30.958-26.049 35.878 3.679 1.197 7.602 1.852 11.681 1.852 20.838 0 37.73-16.892 37.73-37.73-.001-20.839-16.893-37.731-37.731-37.731z" fill="#9c9c9c"/><g><path d="m105.577 391.491c-4.268 0-7.726-3.459-7.726-7.726v-37.73c0-4.267 3.459-7.726 7.726-7.726 4.268 0 7.726 3.459 7.726 7.726v37.73c.001 4.267-3.458 7.726-7.726 7.726z" fill="#cecece"/></g><path d="m105.577 338.309c-1.627 0-3.135.506-4.38 1.365 2.02 1.394 3.346 3.722 3.346 6.362v37.73c0 2.64-1.326 4.968-3.346 6.362 1.245.859 2.753 1.365 4.38 1.365 4.268 0 7.726-3.459 7.726-7.726v-37.73c.001-4.269-3.458-7.728-7.726-7.728z" fill="#bfbfbf"/><path d="m217.672 346.077v9.477c7.784 6.909 12.695 16.983 12.695 28.211 0 16.759-10.931 30.958-26.049 35.878 3.679 1.197 7.602 1.852 11.681 1.852 20.838 0 37.73-16.892 37.73-37.73 0-20.277-15.996-36.812-36.057-37.688z" fill="#9c9c9c"/><g><path d="m215.999 391.491c-4.268 0-7.726-3.459-7.726-7.726v-37.73c0-4.267 3.459-7.726 7.726-7.726s7.726 3.459 7.726 7.726v37.73c0 4.267-3.458 7.726-7.726 7.726z" fill="#cecece"/></g><path d="m215.999 338.309c-1.627 0-3.135.506-4.38 1.365 2.02 1.394 3.346 3.722 3.346 6.362v37.73c0 2.64-1.326 4.968-3.346 6.362 1.245.859 2.753 1.365 4.38 1.365 4.268 0 7.726-3.459 7.726-7.726v-37.73c0-4.269-3.458-7.728-7.726-7.728z" fill="#bfbfbf"/></g></svg>