<?xml version="1.0" encoding="UTF-8"?>
<!-- Generator: Adobe Illustrator 25.4.1, SVG Export Plug-In . SVG Version: 6.00 Build 0)  -->
<svg xmlns="http://www.w3.org/2000/svg" xmlns:xlink="http://www.w3.org/1999/xlink" version="1.1" id="Capa_1" x="0px" y="0px" viewBox="0 0 512 512" style="enable-background:new 0 0 512 512;" xml:space="preserve" width="512" height="512">
<g>
	<linearGradient id="SVGID_1_" gradientUnits="userSpaceOnUse" x1="222.819" y1="120.0204" x2="224.224" y2="444.567">
		<stop offset="0" style="stop-color:#FF7800"/>
		<stop offset="1" style="stop-color:#FF3000"/>
	</linearGradient>
	<path style="fill-rule:evenodd;clip-rule:evenodd;fill:url(#SVGID_1_);" d="M214.805,362.56l-2.943-54.72l2.943-135.36   c0-4.769,3.955-8.64,8.828-8.64c4.873,0,8.828,3.871,8.828,8.64l2.942,135.36l-2.942,54.72c0,4.769-3.955,8.64-8.828,8.64   C218.759,371.2,214.805,367.329,214.805,362.56z"/>
	
		<linearGradient id="SVGID_00000028284020730611033220000012933478112165631119_" gradientUnits="userSpaceOnUse" x1="187.69" y1="161.8834" x2="188.8608" y2="432.339">
		<stop offset="0" style="stop-color:#FF7800"/>
		<stop offset="1" style="stop-color:#FF3000"/>
	</linearGradient>
	<path style="fill-rule:evenodd;clip-rule:evenodd;fill:url(#SVGID_00000028284020730611033220000012933478112165631119_);" d="   M179.494,362.56l-2.942-54.72l2.942-100.8c0-4.769,3.955-8.64,8.828-8.64c4.873,0,8.828,3.871,8.828,8.64l2.943,100.8l-2.943,54.72   c0,4.769-3.955,8.64-8.828,8.64C183.449,371.2,179.494,367.329,179.494,362.56z"/>
	
		<linearGradient id="SVGID_00000085237960331729724770000010456225279089544378_" gradientUnits="userSpaceOnUse" x1="152.3192" y1="147.9291" x2="153.568" y2="436.415">
		<stop offset="0" style="stop-color:#FF7800"/>
		<stop offset="1" style="stop-color:#FF3000"/>
	</linearGradient>
	<path style="fill-rule:evenodd;clip-rule:evenodd;fill:url(#SVGID_00000085237960331729724770000010456225279089544378_);" d="   M144.184,362.56l-2.943-54.72l2.943-112.32c0-4.769,3.955-8.64,8.828-8.64c4.873,0,8.828,3.871,8.828,8.64l2.942,112.32   l-2.942,54.72c0,4.769-3.955,8.64-8.828,8.64C148.139,371.2,144.184,367.329,144.184,362.56z"/>
	
		<linearGradient id="SVGID_00000152222692452871002730000011479912575295885750_" gradientUnits="userSpaceOnUse" x1="117.1297" y1="175.8378" x2="118.2225" y2="428.263">
		<stop offset="0" style="stop-color:#FF7800"/>
		<stop offset="1" style="stop-color:#FF3000"/>
	</linearGradient>
	<path style="fill-rule:evenodd;clip-rule:evenodd;fill:url(#SVGID_00000152222692452871002730000011479912575295885750_);" d="   M108.874,362.56l-2.942-54.72l2.942-89.28c0-4.769,3.955-8.64,8.828-8.64c4.873,0,8.828,3.871,8.828,8.64l2.943,89.28l-2.943,54.72   c0,4.769-3.955,8.64-8.828,8.64C112.828,371.2,108.874,367.329,108.874,362.56z"/>
	
		<linearGradient id="SVGID_00000141420277865979885910000014534278357114808704_" gradientUnits="userSpaceOnUse" x1="82.0609" y1="231.6552" x2="82.8415" y2="411.959">
		<stop offset="0" style="stop-color:#FF7800"/>
		<stop offset="1" style="stop-color:#FF3000"/>
	</linearGradient>
	<path style="fill-rule:evenodd;clip-rule:evenodd;fill:url(#SVGID_00000141420277865979885910000014534278357114808704_);" d="   M73.563,362.56l-2.943-54.72l2.943-43.2c0-4.769,3.955-8.64,8.828-8.64s8.828,3.871,8.828,8.64l2.942,43.2l-2.942,54.72   c0,4.769-3.955,8.64-8.828,8.64S73.563,367.329,73.563,362.56z"/>
	
		<linearGradient id="SVGID_00000135679818761321695180000016050852848823513525_" gradientUnits="userSpaceOnUse" x1="46.6903" y1="217.7008" x2="47.5489" y2="416.035">
		<stop offset="0" style="stop-color:#FF7800"/>
		<stop offset="1" style="stop-color:#FF3000"/>
	</linearGradient>
	<path style="fill-rule:evenodd;clip-rule:evenodd;fill:url(#SVGID_00000135679818761321695180000016050852848823513525_);" d="   M38.253,362.56l-2.942-54.72l2.942-54.72c0-4.769,3.955-8.64,8.828-8.64c4.873,0,8.828,3.871,8.828,8.64l2.943,54.72l-2.943,54.72   c0,4.769-3.955,8.64-8.828,8.64C42.208,371.2,38.253,367.329,38.253,362.56z"/>
	
		<linearGradient id="SVGID_00000170970375577879703670000017438926091079590040_" gradientUnits="userSpaceOnUse" x1="11.5218" y1="250.4787" x2="12.0682" y2="376.6914">
		<stop offset="0" style="stop-color:#FF7800"/>
		<stop offset="1" style="stop-color:#FF3000"/>
	</linearGradient>
	<path style="fill-rule:evenodd;clip-rule:evenodd;fill:url(#SVGID_00000170970375577879703670000017438926091079590040_);" d="   M2.943,339.52L0,307.84l2.943-31.68c0-4.769,3.955-8.64,8.828-8.64s8.828,3.871,8.828,8.64l2.942,31.68l-2.942,31.68   c0,4.769-3.955,8.64-8.828,8.64S2.943,344.289,2.943,339.52z"/>
	
		<linearGradient id="SVGID_00000139294327289766562680000014406178754697866113_" gradientUnits="userSpaceOnUse" x1="378.5633" y1="91.6388" x2="380.1285" y2="453.204">
		<stop offset="0" style="stop-color:#FF7800"/>
		<stop offset="1" style="stop-color:#FF3000"/>
	</linearGradient>
	<path style="fill-rule:evenodd;clip-rule:evenodd;fill:url(#SVGID_00000139294327289766562680000014406178754697866113_);" d="   M416.314,237.457c7.791-2.897,16.235-4.497,25.065-4.497c39.002,0,70.621,30.947,70.621,69.12s-31.618,69.12-70.621,69.12H264.836   c-9.755,0-17.663-7.762-17.663-17.297V169.6c0-28.8,52.965-28.8,52.965-28.8C358.692,140.8,407.251,182.651,416.314,237.457z"/>
</g>















</svg>
