<?xml version="1.0" encoding="iso-8859-1"?>
<!-- Generator: Adobe Illustrator 19.0.0, SVG Export Plug-In . SVG Version: 6.00 Build 0)  -->
<svg version="1.1" id="Capa_1" xmlns="http://www.w3.org/2000/svg" xmlns:xlink="http://www.w3.org/1999/xlink" x="0px" y="0px"
	 viewBox="0 0 512 512" style="enable-background:new 0 0 512 512;" xml:space="preserve">
<path style="fill:#618BAA;" d="M505.819,437.712H6.181c-3.414,0-6.181-2.767-6.181-6.181V80.471c0-3.414,2.767-6.181,6.181-6.181
	h499.638c3.414,0,6.181,2.767,6.181,6.181v351.06C512,434.944,509.233,437.712,505.819,437.712z"/>
<g>
	<path style="fill:#E3E3E3;" d="M68.763,437.712h-44.81v-29.697c0-3.414,2.767-6.181,6.181-6.181h32.448
		c3.414,0,6.181,2.767,6.181,6.181V437.712z"/>
	<path style="fill:#E3E3E3;" d="M488.047,437.712h-44.811v-29.697c0-3.414,2.767-6.181,6.181-6.181h32.448
		c3.414,0,6.181,2.767,6.181,6.181v29.697H488.047z"/>
</g>
<path style="fill:#FFB229;" d="M407.412,437.712H104.588v-29.697c0-3.414,2.767-6.181,6.181-6.181h290.463
	c3.414,0,6.181,2.767,6.181,6.181v29.697H407.412z"/>
<g>
	<polygon style="fill:#FFC871;" points="335.592,401.832 299.71,437.713 249.891,437.713 285.772,401.832 	"/>
	<polygon style="fill:#FFC871;" points="384.113,401.832 348.232,437.713 323.322,437.713 359.203,401.832 	"/>
</g>
<g>
	<path style="fill:#E3E3E3;" d="M62.582,110.168H30.134c-3.414,0-6.181-2.767-6.181-6.181V74.29h44.811v29.697
		C68.763,107.401,65.996,110.168,62.582,110.168z"/>
	<path style="fill:#E3E3E3;" d="M481.866,110.168h-32.448c-3.414,0-6.181-2.767-6.181-6.181V74.29h44.811v29.697
		C488.047,107.401,485.28,110.168,481.866,110.168z"/>
</g>
<path style="fill:#FFB229;" d="M407.416,74.287v29.7c0,3.414-2.767,6.181-6.181,6.181h-290.47c-3.414,0-6.181-2.767-6.181-6.181
	v-29.7H407.416z"/>
<g>
	<polygon style="fill:#FFC871;" points="239.764,74.287 203.883,110.168 154.064,110.168 189.945,74.287 	"/>
	<polygon style="fill:#FFC871;" points="288.286,74.287 252.405,110.168 227.495,110.168 263.376,74.287 	"/>
</g>
<path style="fill:#FFB229;" d="M407.416,145.977v220.047c0,3.414-2.767,6.181-6.181,6.181h-290.47c-3.414,0-6.181-2.767-6.181-6.181
	V145.977c0-3.414,2.767-6.181,6.181-6.181h290.47C404.649,139.796,407.416,142.564,407.416,145.977z"/>
<g>
	<polygon style="fill:#FFC871;" points="395.445,139.796 163.036,372.205 113.217,372.205 345.626,139.796 	"/>
	<polygon style="fill:#FFC871;" points="407.416,151.437 407.416,176.347 211.558,372.205 186.648,372.205 	"/>
</g>
<g>
	<path style="fill:#E3E3E3;" d="M481.866,175.677h-32.448c-3.414,0-6.181-2.767-6.181-6.181V145.98c0-3.414,2.767-6.181,6.181-6.181
		h32.448c3.414,0,6.181,2.767,6.181,6.181v23.516C488.047,172.909,485.28,175.677,481.866,175.677z"/>
	<path style="fill:#E3E3E3;" d="M481.866,241.185h-32.448c-3.414,0-6.181-2.767-6.181-6.181v-23.516
		c0-3.414,2.767-6.181,6.181-6.181h32.448c3.414,0,6.181,2.767,6.181,6.181v23.516C488.047,238.418,485.28,241.185,481.866,241.185z
		"/>
	<path style="fill:#E3E3E3;" d="M481.866,306.694h-32.448c-3.414,0-6.181-2.767-6.181-6.181v-23.516
		c0-3.414,2.767-6.181,6.181-6.181h32.448c3.414,0,6.181,2.767,6.181,6.181v23.516C488.047,303.927,485.28,306.694,481.866,306.694z
		"/>
	<path style="fill:#E3E3E3;" d="M481.866,372.203h-32.448c-3.414,0-6.181-2.767-6.181-6.181v-23.516
		c0-3.414,2.767-6.181,6.181-6.181h32.448c3.414,0,6.181,2.767,6.181,6.181v23.516C488.047,369.435,485.28,372.203,481.866,372.203z
		"/>
	<path style="fill:#E3E3E3;" d="M62.582,175.677H30.134c-3.414,0-6.181-2.767-6.181-6.181V145.98c0-3.414,2.767-6.181,6.181-6.181
		h32.448c3.414,0,6.181,2.767,6.181,6.181v23.516C68.763,172.909,65.996,175.677,62.582,175.677z"/>
	<path style="fill:#E3E3E3;" d="M62.582,241.185H30.134c-3.414,0-6.181-2.767-6.181-6.181v-23.516c0-3.414,2.767-6.181,6.181-6.181
		h32.448c3.414,0,6.181,2.767,6.181,6.181v23.516C68.763,238.418,65.996,241.185,62.582,241.185z"/>
	<path style="fill:#E3E3E3;" d="M62.582,306.694H30.134c-3.414,0-6.181-2.767-6.181-6.181v-23.516c0-3.414,2.767-6.181,6.181-6.181
		h32.448c3.414,0,6.181,2.767,6.181,6.181v23.516C68.763,303.927,65.996,306.694,62.582,306.694z"/>
	<path style="fill:#E3E3E3;" d="M62.582,372.203H30.134c-3.414,0-6.181-2.767-6.181-6.181v-23.516c0-3.414,2.767-6.181,6.181-6.181
		h32.448c3.414,0,6.181,2.767,6.181,6.181v23.516C68.763,369.435,65.996,372.203,62.582,372.203z"/>
	<path style="fill:#E3E3E3;" d="M211.087,220.853v70.296c0,4.601,4.848,7.589,8.958,5.522l69.889-35.148
		c4.539-2.283,4.539-8.762,0-11.044l-69.889-35.148C215.934,213.263,211.087,216.252,211.087,220.853z"/>
</g>
<g>
</g>
<g>
</g>
<g>
</g>
<g>
</g>
<g>
</g>
<g>
</g>
<g>
</g>
<g>
</g>
<g>
</g>
<g>
</g>
<g>
</g>
<g>
</g>
<g>
</g>
<g>
</g>
<g>
</g>
</svg>
