<?xml version="1.0" standalone="no"?>
<!DOCTYPE svg PUBLIC "-//W3C//DTD SVG 20010904//EN"
 "http://www.w3.org/TR/2001/REC-SVG-20010904/DTD/svg10.dtd">
<svg version="1.0" xmlns="http://www.w3.org/2000/svg"
 width="260.000000pt" height="260.000000pt" viewBox="0 0 260.000000 260.000000"
 preserveAspectRatio="xMidYMid meet">
<metadata>
Created by potrace 1.11, written by Peter Selinger 2001-2013
</metadata>
<g transform="translate(0.000000,260.000000) scale(0.100000,-0.100000)"
fill="#000000" stroke="none">
<path d="M974 2369 c-201 -49 -368 -163 -471 -322 -87 -133 -119 -237 -122
-390 -1 -104 5 -131 84 -377 97 -301 103 -379 37 -510 -20 -41 -38 -78 -40
-82 -4 -9 221 -158 237 -158 16 0 107 196 125 265 23 94 15 258 -18 375 -44
155 -45 140 6 140 24 0 50 -6 57 -12 11 -10 13 -10 7 0 -4 6 -3 12 2 12 5 0
14 -10 21 -22 9 -20 10 -20 6 -3 -4 18 0 21 29 21 21 0 32 -4 29 -11 -3 -5 0
-4 8 3 20 18 31 14 19 -7 -5 -11 -10 -23 -10 -28 1 -4 8 4 16 20 8 15 19 27
25 27 6 0 7 -6 3 -12 -6 -10 -5 -10 8 -1 8 7 19 9 23 5 5 -4 5 -1 0 7 -4 8 -8
29 -9 48 -1 24 3 32 13 28 11 -4 11 -3 1 10 -7 8 -10 32 -8 55 2 22 1 40 -3
40 -3 0 -4 20 -2 44 3 28 0 47 -8 52 -7 4 -9 3 -5 -4 4 -7 -10 -11 -46 -10
-64 0 -73 5 -56 26 12 15 11 16 -4 3 -10 -7 -15 -17 -13 -22 3 -4 -51 -8 -120
-8 l-125 0 -1 42 c-4 145 38 255 133 350 89 89 256 146 392 134 33 -2 67 -6
75 -8 9 -3 24 36 52 135 21 77 37 141 36 143 -2 1 -28 8 -58 13 -76 15 -242 9
-325 -11z"/>
<path d="M1456 2273 c-6 -14 -5 -15 5 -6 7 7 10 15 7 18 -3 3 -9 -2 -12 -12z"/>
<path d="M1477 2267 c-3 -8 1 -14 8 -14 7 0 11 6 8 14 -3 7 -6 13 -8 13 -2 0
-5 -6 -8 -13z"/>
<path d="M1430 2265 c0 -5 5 -17 10 -25 5 -8 10 -10 10 -5 0 6 -5 17 -10 25
-5 8 -10 11 -10 5z"/>
<path d="M1554 2243 c2 -10 -2 -22 -8 -26 -7 -6 -6 -7 3 -5 16 5 24 35 11 43
-5 3 -7 -3 -6 -12z"/>
<path d="M1519 2238 c-5 -18 -6 -38 -1 -34 7 8 12 36 6 36 -2 0 -4 -1 -5 -2z"/>
<path d="M1399 2228 c-5 -15 -4 -50 1 -53 3 -2 6 9 6 26 0 24 -3 37 -7 27z"/>
<path d="M1422 2200 c0 -14 2 -19 5 -12 2 6 2 18 0 25 -3 6 -5 1 -5 -13z"/>
<path d="M1635 2200 c-3 -5 -1 -10 4 -10 6 0 11 5 11 10 0 6 -2 10 -4 10 -3 0
-8 -4 -11 -10z"/>
<path d="M1588 2171 c4 -10 1 -12 -8 -6 -9 6 -11 4 -6 -4 5 -7 10 -10 13 -7 3
3 13 1 23 -4 12 -6 17 -5 17 5 0 8 -7 11 -16 7 -13 -5 -14 -3 -4 9 10 12 8 15
-6 15 -12 0 -17 -5 -13 -15z"/>
<path d="M1454 2160 c0 -12 4 -16 11 -11 5 5 18 7 28 6 9 -2 17 1 17 7 0 5 -6
8 -12 5 -7 -2 -20 -1 -28 4 -11 5 -16 2 -16 -11z"/>
<path d="M1651 2154 c0 -11 3 -14 6 -6 3 7 2 16 -1 19 -3 4 -6 -2 -5 -13z"/>
<path d="M1690 2160 c0 -5 5 -10 11 -10 5 0 7 5 4 10 -3 6 -8 10 -11 10 -2 0
-4 -4 -4 -10z"/>
<path d="M1365 2139 c-4 -6 -5 -12 -2 -15 2 -3 7 2 10 11 7 17 1 20 -8 4z"/>
<path d="M1432 2140 c3 -8 2 -22 -3 -30 -5 -11 -2 -16 11 -16 10 0 16 5 12 11
-4 5 -7 16 -8 23 -2 8 -6 17 -10 20 -4 4 -4 0 -2 -8z"/>
<path d="M1513 2125 c0 -8 4 -12 9 -9 4 3 8 -1 8 -8 0 -9 3 -9 10 2 9 14 15 6
10 -15 -1 -5 2 -6 6 -2 11 11 14 38 4 32 -5 -3 -11 1 -13 7 -4 10 -6 9 -6 -1
-1 -10 -4 -11 -14 -2 -10 8 -14 7 -14 -4z"/>
<path d="M1646 2121 c-3 -4 6 -7 19 -7 14 0 22 2 19 5 -8 8 -34 10 -38 2z"/>
<path d="M1355 2100 c-3 -5 -1 -10 4 -10 6 0 11 5 11 10 0 6 -2 10 -4 10 -3 0
-8 -4 -11 -10z"/>
<path d="M1660 2092 c0 -6 -11 -9 -27 -6 -15 3 -25 3 -22 -1 12 -11 49 -14 55
-4 3 6 3 13 0 16 -3 4 -6 1 -6 -5z"/>
<path d="M1694 2079 c0 -12 4 -15 12 -9 6 6 14 7 17 3 4 -3 7 -2 7 4 0 6 -8
13 -18 15 -12 4 -18 -1 -18 -13z"/>
<path d="M1459 2079 c-10 -7 -6 -8 13 -5 15 2 29 0 32 -5 2 -5 3 -4 2 2 -3 15
-29 20 -47 8z"/>
<path d="M1588 2051 c4 -10 1 -12 -8 -6 -9 6 -11 4 -6 -4 5 -7 10 -10 13 -7 3
3 13 1 23 -4 12 -6 17 -5 17 5 0 8 -7 11 -16 7 -13 -5 -14 -3 -4 9 10 12 8 15
-6 15 -12 0 -17 -5 -13 -15z"/>
<path d="M1760 2060 c-12 -7 -10 -9 7 -7 12 0 19 5 17 9 -6 10 -6 10 -24 -2z"/>
<path d="M1371 2052 c-1 -7 -5 -11 -10 -8 -5 3 -15 -2 -22 -12 -12 -15 -12
-15 1 -5 21 16 32 17 41 1 7 -10 9 -10 9 0 0 7 4 11 8 8 5 -3 9 1 9 9 0 11 -4
12 -13 4 -8 -7 -14 -6 -17 3 -4 11 -6 10 -6 0z"/>
<path d="M1486 2038 c3 -5 10 -6 15 -3 13 9 11 12 -6 12 -8 0 -12 -4 -9 -9z"/>
<path d="M1750 2036 c0 -2 9 -6 20 -9 11 -3 18 -1 14 4 -5 9 -34 13 -34 5z"/>
<path d="M1185 2019 c-3 -4 2 -6 10 -5 21 3 28 13 10 13 -9 0 -18 -4 -20 -8z"/>
<path d="M1255 2021 c-3 -5 -2 -12 3 -15 5 -3 9 1 9 9 0 17 -3 19 -12 6z"/>
<path d="M1553 2018 c2 -7 0 -21 -5 -30 -6 -13 -5 -16 5 -12 14 5 18 54 4 54
-5 0 -7 -6 -4 -12z"/>
<path d="M1100 2011 c0 -6 -9 -8 -20 -6 -11 2 -18 0 -15 -5 7 -12 38 -6 43 8
2 7 1 12 -2 12 -3 0 -6 -4 -6 -9z"/>
<path d="M1413 2006 c0 -8 5 -12 10 -9 6 4 8 0 4 -10 -4 -11 -2 -14 8 -10 8 3
12 10 8 16 -4 6 0 8 9 5 8 -4 15 0 15 7 0 10 -5 11 -17 5 -10 -6 -21 -5 -27 1
-6 6 -10 5 -10 -5z"/>
<path d="M1491 2004 c0 -11 3 -14 6 -6 3 7 2 16 -1 19 -3 4 -6 -2 -5 -13z"/>
<path d="M1695 2009 c-4 -6 -14 -8 -22 -4 -13 4 -13 3 -4 -9 9 -11 9 -15 -1
-19 -7 -3 -3 -4 8 -4 15 1 20 6 16 16 -3 8 -1 12 5 8 5 -3 10 0 10 8 0 18 -3
19 -12 4z"/>
<path d="M1134 1998 c-3 -5 -3 -12 0 -15 3 -4 6 -1 6 5 0 6 10 9 21 7 12 -3
19 -1 15 2 -11 11 -35 12 -42 1z"/>
<path d="M1190 1996 c0 -2 9 -6 20 -9 11 -3 18 -1 14 4 -5 9 -34 13 -34 5z"/>
<path d="M1037 1977 c4 -7 -1 -8 -12 -3 -15 5 -16 4 -5 -9 7 -9 13 -14 14 -13
1 2 7 10 14 19 9 13 9 16 -3 16 -8 0 -11 -5 -8 -10z"/>
<path d="M1395 1970 c-4 -6 -11 -8 -16 -5 -5 4 -9 1 -9 -4 0 -16 16 -13 30 4
7 8 10 15 7 15 -3 0 -9 -5 -12 -10z"/>
<path d="M1713 1965 c0 -8 4 -15 9 -15 4 0 8 4 8 9 0 6 -4 12 -8 15 -5 3 -9
-1 -9 -9z"/>
<path d="M1116 1958 c3 -5 10 -6 15 -3 13 9 11 12 -6 12 -8 0 -12 -4 -9 -9z"/>
<path d="M1330 1966 c0 -2 7 -7 16 -10 8 -3 12 -2 9 4 -6 10 -25 14 -25 6z"/>
<path d="M1470 1960 c0 -5 5 -10 10 -10 6 0 10 5 10 10 0 6 -4 10 -10 10 -5 0
-10 -4 -10 -10z"/>
<path d="M1590 1958 c0 -3 9 -6 20 -5 11 1 20 5 20 9 0 3 -9 6 -20 5 -11 -1
-20 -5 -20 -9z"/>
<path d="M1274 1952 c3 -5 0 -13 -6 -15 -9 -4 -10 -6 -1 -6 17 -1 25 16 12 25
-7 4 -9 3 -5 -4z"/>
<path d="M953 1928 c-2 -18 0 -20 7 -8 12 18 13 30 2 30 -4 0 -9 -10 -9 -22z"/>
<path d="M1075 1933 c1 -10 -1 -23 -6 -28 -5 -7 -1 -11 11 -11 13 0 16 5 11
16 -5 8 -6 21 -4 28 3 6 0 12 -5 12 -6 0 -9 -8 -7 -17z"/>
<path d="M1309 1930 c5 -8 6 -21 4 -27 -3 -7 0 -13 5 -13 6 0 9 8 7 18 -1 9 1
22 6 27 5 7 1 11 -11 11 -13 0 -16 -5 -11 -16z"/>
<path d="M1427 1933 c5 -12 3 -14 -8 -8 -8 5 -11 4 -6 0 4 -5 13 -10 21 -11
16 -2 17 24 0 30 -9 3 -11 -1 -7 -11z"/>
<path d="M1519 1943 c-1 -5 -1 -12 0 -17 1 -5 -4 -6 -12 -3 -7 3 -14 -1 -14
-9 0 -19 30 -1 33 20 1 9 0 16 -2 16 -2 0 -5 -3 -5 -7z"/>
<path d="M1549 1944 c5 -3 7 -17 5 -32 -3 -19 -2 -23 5 -13 12 18 7 44 -8 47
-6 1 -7 0 -2 -2z"/>
<path d="M1639 1948 c-6 -20 -5 -38 2 -49 7 -10 8 -6 5 13 -3 15 1 29 7 32 9
3 9 5 0 5 -7 1 -13 0 -14 -1z"/>
<path d="M1765 1942 c-5 -4 -11 -14 -13 -22 -2 -8 0 -12 4 -8 4 4 12 3 19 -2
8 -7 12 -5 12 5 0 8 -5 11 -10 8 -6 -4 -8 0 -4 10 7 19 6 20 -8 9z"/>
<path d="M1028 1933 c7 -3 16 -2 19 1 4 3 -2 6 -13 5 -11 0 -14 -3 -6 -6z"/>
<path d="M1148 1933 c7 -3 16 -2 19 1 4 3 -2 6 -13 5 -11 0 -14 -3 -6 -6z"/>
<path d="M1190 1920 c0 -5 5 -10 10 -10 6 0 10 5 10 10 0 6 -4 10 -10 10 -5 0
-10 -4 -10 -10z"/>
<path d="M1461 1914 c0 -11 3 -14 6 -6 3 7 2 16 -1 19 -3 4 -6 -2 -5 -13z"/>
<path d="M1692 1921 c-11 -7 -11 -9 0 -14 9 -3 15 1 15 9 0 8 -1 14 -1 14 -1
0 -7 -4 -14 -9z"/>
<path d="M1731 1914 c0 -11 3 -14 6 -6 3 7 2 16 -1 19 -3 4 -6 -2 -5 -13z"/>
<path d="M836 1902 c-3 -5 1 -9 9 -9 8 0 12 4 9 9 -3 4 -7 8 -9 8 -2 0 -6 -4
-9 -8z"/>
<path d="M909 1892 c11 -20 38 -24 38 -6 0 11 -3 11 -16 1 -12 -10 -14 -9 -9
4 4 9 1 16 -8 16 -9 0 -10 -5 -5 -15z"/>
<path d="M995 1901 c6 -10 4 -13 -6 -9 -10 4 -15 -1 -17 -15 -1 -17 1 -19 8
-7 9 14 14 7 11 -13 -1 -5 2 -6 7 -3 11 6 9 43 -3 53 -4 5 -4 2 0 -6z"/>
<path d="M1148 1888 c2 -10 6 -18 7 -18 1 0 5 8 7 18 3 11 0 19 -7 19 -7 0
-10 -8 -7 -19z"/>
<path d="M1237 1897 c4 -6 -1 -8 -11 -4 -9 4 -15 3 -11 -2 3 -5 0 -11 -7 -13
-7 -3 -5 -7 6 -11 11 -5 15 -3 10 5 -5 8 -1 9 12 4 10 -4 15 -4 11 0 -4 4 -2
12 3 19 7 8 5 12 -5 12 -8 0 -11 -5 -8 -10z"/>
<path d="M1179 1898 c-5 -18 -6 -38 -1 -34 7 8 12 36 6 36 -2 0 -4 -1 -5 -2z"/>
<path d="M1381 1892 c-1 -7 -5 -10 -11 -7 -6 3 -7 -1 -3 -10 5 -13 7 -14 14
-3 8 13 13 3 9 -17 -1 -5 2 -6 6 -2 11 11 14 38 4 32 -5 -3 -11 1 -13 7 -4 10
-6 10 -6 0z"/>
<path d="M1573 1885 c0 -8 5 -11 10 -8 6 4 8 0 5 -8 -4 -10 1 -15 12 -15 11 0
16 5 12 15 -3 8 -1 12 5 8 5 -3 10 0 10 8 0 11 -4 12 -14 4 -9 -8 -17 -8 -26
0 -10 8 -14 7 -14 -4z"/>
<path d="M1810 1892 c0 -7 -4 -11 -9 -8 -11 7 -8 -20 3 -31 4 -4 7 -3 6 2 -5
21 1 29 10 15 7 -11 10 -11 10 -2 0 7 4 11 9 7 5 -3 12 -1 15 4 4 5 -2 8 -11
7 -10 -2 -21 2 -25 8 -5 8 -8 7 -8 -2z"/>
<path d="M803 1858 c-11 -19 -12 -37 -3 -43 5 -3 7 3 5 12 -1 10 2 24 8 31 5
6 7 12 4 12 -3 0 -9 -6 -14 -12z"/>
<path d="M1085 1862 c-13 -9 -15 -52 -3 -52 5 0 8 6 5 13 -2 6 0 20 5 30 10
19 8 21 -7 9z"/>
<path d="M1154 1843 c2 -10 -2 -22 -8 -26 -7 -6 -6 -7 3 -5 16 5 24 35 11 43
-5 3 -7 -3 -6 -12z"/>
<path d="M1491 1851 c-8 -5 -20 -7 -28 -4 -7 3 -13 1 -13 -4 0 -14 49 -11 54
4 6 15 5 16 -13 4z"/>
<path d="M1694 1848 c3 -14 56 -20 56 -6 0 4 -11 6 -24 4 -14 -2 -27 0 -30 5
-2 5 -3 4 -2 -3z"/>
<path d="M825 1839 c-4 -6 -4 -13 -1 -16 3 -4 6 -1 6 6 0 7 5 9 12 5 7 -4 8
-3 4 4 -9 15 -13 15 -21 1z"/>
<path d="M906 1838 c3 -5 10 -6 15 -3 13 9 11 12 -6 12 -8 0 -12 -4 -9 -9z"/>
<path d="M1350 1845 c0 -5 5 -17 10 -25 5 -8 10 -10 10 -5 0 6 -5 17 -10 25
-5 8 -10 11 -10 5z"/>
<path d="M1274 1832 c3 -5 0 -13 -6 -15 -9 -4 -10 -6 -1 -6 17 -1 25 16 12 25
-7 4 -9 3 -5 -4z"/>
<path d="M877 1817 c4 -6 0 -8 -10 -4 -11 4 -14 2 -10 -8 3 -8 10 -12 16 -8 6
4 8 0 5 -9 -4 -8 0 -15 7 -15 10 0 11 5 5 17 -6 10 -5 21 1 27 6 6 5 10 -5 10
-8 0 -12 -5 -9 -10z"/>
<path d="M953 1815 c0 -8 4 -12 9 -9 4 3 8 9 8 15 0 5 -4 9 -8 9 -5 0 -9 -7
-9 -15z"/>
<path d="M1027 1813 c3 -7 6 -13 8 -13 2 0 5 6 8 13 3 8 -1 14 -8 14 -7 0 -11
-6 -8 -14z"/>
<path d="M1308 1808 c2 -10 6 -18 7 -18 1 0 5 8 7 18 3 11 0 19 -7 19 -7 0
-10 -8 -7 -19z"/>
<path d="M1427 1809 c6 -22 20 -26 20 -4 0 8 -6 16 -13 19 -7 3 -10 -2 -7 -15z"/>
<path d="M1765 1822 c-10 -7 -18 -32 -10 -32 2 0 9 9 15 20 12 22 11 24 -5 12z"/>
<path d="M1339 1818 c-5 -18 -6 -38 -1 -34 7 8 12 36 6 36 -2 0 -4 -1 -5 -2z"/>
<path d="M1531 1812 c-1 -7 -5 -11 -9 -8 -5 3 -9 -1 -9 -9 0 -11 4 -12 13 -4
8 7 14 6 17 -3 4 -11 6 -10 6 0 1 7 5 11 9 8 5 -3 9 1 9 9 0 11 -4 12 -13 4
-8 -7 -14 -6 -17 3 -4 11 -6 10 -6 0z"/>
<path d="M1633 1805 c0 -8 4 -12 8 -9 4 2 10 -2 12 -8 4 -10 6 -9 6 1 1 10 4
11 14 2 10 -8 14 -7 14 4 0 8 -4 12 -8 9 -4 -2 -10 2 -12 8 -4 10 -6 9 -6 -1
-1 -10 -4 -11 -14 -2 -10 8 -14 7 -14 -4z"/>
<path d="M1160 1800 c-9 -6 -10 -10 -3 -10 6 0 15 5 18 10 8 12 4 12 -15 0z"/>
<path d="M1776 1793 c-6 -14 -5 -15 5 -6 7 7 10 15 7 18 -3 3 -9 -2 -12 -12z"/>
<path d="M1357 1787 c-3 -8 1 -14 8 -14 7 0 11 6 8 14 -3 7 -6 13 -8 13 -2 0
-5 -6 -8 -13z"/>
<path d="M1797 1787 c-3 -8 1 -14 8 -14 7 0 11 6 8 14 -3 7 -6 13 -8 13 -2 0
-5 -6 -8 -13z"/>
<path d="M833 1778 c2 -7 0 -21 -5 -30 -6 -13 -5 -16 5 -12 14 5 18 54 4 54
-5 0 -7 -6 -4 -12z"/>
<path d="M1193 1771 c10 -12 9 -14 -4 -9 -9 4 -16 1 -16 -8 0 -9 5 -10 15 -5
20 11 24 38 6 38 -11 0 -11 -3 -1 -16z"/>
<path d="M974 1769 c3 -15 29 -20 47 -8 10 7 6 8 -13 5 -15 -2 -29 0 -32 5 -2
5 -3 4 -2 -2z"/>
<path d="M1052 1771 c-11 -7 -11 -9 0 -14 9 -3 15 1 15 9 0 8 -1 14 -1 14 -1
0 -7 -4 -14 -9z"/>
<path d="M1091 1764 c0 -11 3 -14 6 -6 3 7 2 16 -1 19 -3 4 -6 -2 -5 -13z"/>
<path d="M1314 1763 c2 -10 -2 -22 -8 -26 -7 -6 -6 -7 3 -5 16 5 24 35 11 43
-5 3 -7 -3 -6 -12z"/>
<path d="M1454 1761 c0 -12 6 -17 18 -13 10 2 18 9 18 15 0 6 -3 7 -7 4 -3 -4
-11 -3 -17 3 -8 6 -12 3 -12 -9z"/>
<path d="M1573 1765 c0 -8 5 -11 10 -8 6 4 8 0 5 -8 -4 -10 1 -15 12 -15 11 0
16 5 12 15 -3 8 -1 12 5 8 5 -3 10 0 10 8 0 11 -4 12 -14 4 -9 -8 -17 -8 -26
0 -10 8 -14 7 -14 -4z"/>
<path d="M1735 1770 c-4 -6 -11 -8 -16 -5 -5 4 -9 2 -9 -3 0 -5 8 -12 18 -14
12 -4 18 1 18 13 0 22 -2 23 -11 9z"/>
<path d="M773 1755 c0 -7 6 -11 14 -8 7 3 13 6 13 8 0 2 -6 5 -13 8 -8 3 -14
-1 -14 -8z"/>
<path d="M1113 1755 c0 -8 4 -12 9 -9 5 3 6 10 3 15 -9 13 -12 11 -12 -6z"/>
<path d="M1233 1755 c0 -8 4 -12 9 -9 5 3 6 10 3 15 -9 13 -12 11 -12 -6z"/>
<path d="M1834 1745 c0 -13 3 -22 7 -19 8 4 6 30 -2 38 -3 3 -5 -5 -5 -19z"/>
<path d="M1279 1753 c-1 -5 -1 -12 0 -17 1 -5 -4 -6 -12 -3 -7 3 -14 -1 -14
-8 0 -8 7 -11 16 -7 14 5 14 4 1 -14 -11 -15 -11 -17 0 -6 8 7 15 23 16 37 1
23 -4 36 -7 18z"/>
<path d="M919 1748 c-6 -19 -4 -50 4 -55 6 -4 7 -1 2 7 -6 9 -4 12 6 8 10 -4
15 1 17 15 1 17 -1 19 -8 7 -9 -14 -14 -7 -11 13 1 6 -8 11 -10 5z"/>
<path d="M1026 1738 c3 -5 10 -6 15 -3 13 9 11 12 -6 12 -8 0 -12 -4 -9 -9z"/>
<path d="M753 1725 c0 -8 4 -12 9 -9 5 3 6 10 3 15 -9 13 -12 11 -12 -6z"/>
<path d="M1420 1729 c0 -5 -4 -8 -8 -5 -4 2 -13 -3 -19 -13 -9 -14 -8 -18 3
-18 7 0 10 5 7 10 -4 6 0 8 8 5 10 -4 15 1 16 13 1 10 0 19 -3 19 -2 0 -4 -5
-4 -11z"/>
<path d="M1073 1715 c0 -8 4 -12 9 -9 4 3 8 9 8 15 0 5 -4 9 -8 9 -5 0 -9 -7
-9 -15z"/>
<path d="M1027 1706 c-5 -11 -3 -15 5 -10 8 5 9 1 4 -12 -4 -10 -4 -15 0 -11
4 4 12 2 19 -3 8 -7 12 -5 12 5 0 8 -5 11 -10 8 -6 -4 -8 1 -4 11 4 9 3 15 -2
11 -5 -3 -11 0 -13 7 -3 7 -7 5 -11 -6z"/>
<path d="M1514 1695 c0 -13 3 -22 7 -19 8 4 6 30 -2 38 -3 3 -5 -5 -5 -19z"/>
<path d="M1679 1718 c-6 -20 -6 -39 0 -42 4 -3 7 6 7 20 0 20 -4 32 -7 22z"/>
<path d="M829 1690 c5 -8 6 -21 4 -27 -3 -7 0 -13 5 -13 6 0 9 8 7 18 -1 9 1
22 6 27 5 7 1 11 -11 11 -13 0 -16 -5 -11 -16z"/>
<path d="M1310 1694 c6 -6 7 -14 3 -17 -3 -4 -2 -7 4 -7 6 0 13 8 15 18 4 12
-1 18 -13 18 -12 0 -15 -4 -9 -12z"/>
<path d="M1168 1693 c-10 -2 -18 -9 -18 -15 0 -6 3 -8 7 -5 3 4 11 3 17 -3 8
-6 12 -3 12 11 0 10 0 18 -1 18 0 -1 -8 -3 -17 -6z"/>
<path d="M1774 1679 c0 -12 4 -15 12 -9 6 6 14 7 17 3 4 -3 7 -2 7 4 0 6 -8
13 -18 15 -12 4 -18 -1 -18 -13z"/>
<path d="M740 1679 c0 -5 5 -7 10 -4 6 3 10 8 10 11 0 2 -4 4 -10 4 -5 0 -10
-5 -10 -11z"/>
<path d="M1236 1682 c-3 -5 1 -9 9 -9 8 0 12 4 9 9 -3 4 -7 8 -9 8 -2 0 -6 -4
-9 -8z"/>
<path d="M1430 1680 c0 -5 5 -10 10 -10 6 0 10 5 10 10 0 6 -4 10 -10 10 -5 0
-10 -4 -10 -10z"/>
<path d="M1553 1675 c0 -8 4 -12 9 -9 5 3 6 10 3 15 -9 13 -12 11 -12 -6z"/>
<path d="M1635 1681 c-3 -5 -2 -12 3 -15 5 -3 9 1 9 9 0 17 -3 19 -12 6z"/>
<path d="M1895 1680 c3 -5 8 -10 11 -10 2 0 4 5 4 10 0 6 -5 10 -11 10 -5 0
-7 -4 -4 -10z"/>
<path d="M878 1663 c7 -3 16 -2 19 1 4 3 -2 6 -13 5 -11 0 -14 -3 -6 -6z"/>
<path d="M1477 1653 c3 -7 6 -13 8 -13 2 0 5 6 8 13 3 8 -1 14 -8 14 -7 0 -11
-6 -8 -14z"/>
<path d="M1708 1648 c2 -10 6 -18 7 -18 1 0 5 8 7 18 3 11 0 19 -7 19 -7 0
-10 -8 -7 -19z"/>
<path d="M1091 1653 c-2 -20 16 -24 30 -5 13 15 12 16 -3 4 -13 -10 -17 -10
-21 0 -4 9 -6 9 -6 1z"/>
<path d="M1577 1649 c7 -7 15 -10 18 -7 3 3 -2 9 -12 12 -14 6 -15 5 -6 -5z"/>
<path d="M1619 1658 c-8 -26 -5 -36 9 -31 9 4 13 2 9 -4 -3 -5 0 -10 8 -10 10
0 12 4 5 12 -5 7 -7 15 -3 19 4 4 -1 4 -11 0 -14 -5 -17 -4 -12 4 4 7 5 12 2
12 -3 0 -6 -1 -7 -2z"/>
<path d="M1739 1658 c-8 -26 -5 -36 9 -31 9 4 13 2 9 -4 -3 -5 0 -10 8 -10 10
0 12 4 5 12 -5 7 -7 15 -3 19 4 4 -1 4 -11 0 -14 -5 -17 -4 -12 4 4 7 5 12 2
12 -3 0 -6 -1 -7 -2z"/>
<path d="M1833 1645 c0 -8 4 -12 9 -9 4 3 8 -1 8 -8 0 -9 3 -9 10 2 9 14 15 6
10 -15 -1 -5 2 -6 6 -2 11 11 14 38 4 32 -5 -3 -11 1 -13 7 -4 10 -6 9 -6 -1
-1 -10 -4 -11 -14 -2 -10 8 -14 7 -14 -4z"/>
<path d="M744 1630 c0 -9 6 -17 12 -17 7 0 9 7 6 16 -5 14 -4 14 14 1 15 -11
16 -11 7 0 -18 20 -39 20 -39 0z"/>
<path d="M873 1632 c-9 -15 -8 -19 3 -19 7 0 10 5 7 10 -4 7 1 8 12 3 15 -5
16 -4 5 9 -15 18 -13 19 -27 -3z"/>
<path d="M1195 1641 c3 -3 17 -6 31 -7 13 0 22 2 19 5 -3 3 -17 6 -31 7 -13 0
-22 -2 -19 -5z"/>
<path d="M1386 1642 c-3 -5 1 -9 9 -9 8 0 12 4 9 9 -3 4 -7 8 -9 8 -2 0 -6 -4
-9 -8z"/>
<path d="M1279 1633 c-1 -5 -1 -12 0 -17 1 -5 -4 -6 -12 -3 -7 3 -14 -1 -14
-8 0 -8 7 -11 16 -7 14 5 14 4 1 -14 -14 -18 -14 -18 2 -5 10 7 16 17 13 21
-3 5 1 11 7 13 10 4 10 6 0 6 -7 1 -10 6 -7 11 3 6 4 10 1 10 -3 0 -7 -3 -7
-7z"/>
<path d="M1473 1618 c2 -7 1 -20 -4 -28 -5 -11 -2 -16 11 -16 12 0 16 4 11 11
-5 5 -7 18 -6 28 2 9 -1 17 -7 17 -5 0 -8 -6 -5 -12z"/>
<path d="M795 1609 c-4 -6 -5 -12 -2 -15 2 -3 7 2 10 11 7 17 1 20 -8 4z"/>
<path d="M1088 1613 c-10 -2 -18 -9 -18 -15 0 -6 3 -8 7 -5 3 4 11 3 17 -3 8
-6 12 -3 12 11 0 10 0 18 -1 18 0 -1 -8 -3 -17 -6z"/>
<path d="M1134 1599 c0 -12 4 -15 12 -9 6 6 14 7 17 3 4 -3 7 -2 7 4 0 6 -8
13 -18 15 -12 4 -18 -1 -18 -13z"/>
<path d="M1398 1613 c7 -3 16 -2 19 1 4 3 -2 6 -13 5 -11 0 -14 -3 -6 -6z"/>
<path d="M1518 1613 c7 -3 16 -2 19 1 4 3 -2 6 -13 5 -11 0 -14 -3 -6 -6z"/>
<path d="M814 1598 c-4 -5 -3 -12 0 -15 3 -4 6 -1 6 7 0 10 3 10 15 0 9 -7 18
-10 22 -6 3 3 1 6 -6 6 -7 0 -10 4 -7 8 3 5 -2 9 -10 9 -8 0 -17 -4 -20 -9z"/>
<path d="M980 1600 c-9 -6 -10 -10 -3 -10 6 0 15 5 18 10 8 12 4 12 -15 0z"/>
<path d="M1350 1600 c0 -5 5 -10 10 -10 6 0 10 5 10 10 0 6 -4 10 -10 10 -5 0
-10 -4 -10 -10z"/>
<path d="M1676 1599 c2 -4 -2 -10 -8 -12 -10 -4 -10 -6 0 -6 7 -1 10 -5 7 -11
-4 -6 1 -7 11 -3 12 4 14 8 6 11 -9 3 -10 8 -3 16 8 9 7 13 -4 13 -8 0 -12 -4
-9 -8z"/>
<path d="M1779 1599 c-10 -7 -6 -8 13 -5 15 2 29 0 32 -5 2 -5 3 -4 2 2 -3 15
-29 20 -47 8z"/>
<path d="M1310 1575 c5 -7 7 -15 3 -19 -4 -4 1 -4 11 0 13 5 17 4 12 -4 -5 -8
-1 -10 10 -5 11 4 13 8 6 11 -7 2 -10 8 -7 13 4 5 -2 6 -11 2 -10 -4 -15 -2
-11 4 3 5 0 10 -8 10 -10 0 -12 -4 -5 -12z"/>
<path d="M1397 1573 c3 -7 6 -13 8 -13 2 0 5 6 8 13 3 8 -1 14 -8 14 -7 0 -11
-6 -8 -14z"/>
<path d="M1559 1588 c-5 -17 -4 -50 3 -54 5 -3 8 -2 7 3 -3 20 2 27 11 13 7
-12 9 -10 8 7 -2 14 -7 19 -17 15 -9 -3 -12 -1 -7 6 4 7 5 12 2 12 -3 0 -6 -1
-7 -2z"/>
<path d="M1910 1580 c14 -9 7 -14 -13 -11 -5 1 -6 -3 -2 -9 5 -8 11 -8 21 1
15 12 10 29 -9 29 -7 0 -6 -4 3 -10z"/>
<path d="M1374 1566 c1 -8 5 -18 8 -22 4 -3 5 1 4 10 -1 8 -5 18 -8 22 -4 3
-5 -1 -4 -10z"/>
<path d="M1240 1560 c8 -5 20 -10 25 -10 6 0 3 5 -5 10 -8 5 -19 10 -25 10 -5
0 -3 -5 5 -10z"/>
<path d="M1720 1560 c-9 -6 -10 -10 -3 -10 6 0 15 5 18 10 8 12 4 12 -15 0z"/>
<path d="M1806 1558 c3 -5 10 -6 15 -3 13 9 11 12 -6 12 -8 0 -12 -4 -9 -9z"/>
<path d="M1195 1551 c3 -5 -1 -12 -7 -14 -10 -4 -10 -6 0 -6 7 -1 11 -5 8 -9
-3 -5 1 -9 9 -9 11 0 12 4 4 13 -7 8 -6 13 3 16 8 3 6 7 -6 11 -9 4 -15 3 -11
-2z"/>
<path d="M1113 1528 c-2 -18 0 -20 7 -8 12 18 13 30 2 30 -4 0 -9 -10 -9 -22z"/>
<path d="M1399 1540 c-4 -34 -3 -44 9 -46 7 -1 8 0 3 2 -5 3 -7 16 -5 30 2 13
2 24 -1 24 -3 0 -6 -4 -6 -10z"/>
<path d="M1468 1532 c5 -9 7 -23 5 -29 -3 -7 -1 -13 4 -13 14 0 10 49 -4 54
-10 4 -11 1 -5 -12z"/>
<path d="M1753 1531 c10 -12 9 -14 -4 -9 -9 4 -16 1 -16 -7 0 -8 7 -11 15 -7
9 3 13 1 9 -5 -3 -5 0 -10 8 -10 12 0 12 3 2 16 -10 12 -9 14 4 9 9 -4 16 -1
16 7 0 8 -7 11 -15 7 -9 -3 -13 -1 -9 5 3 5 0 10 -8 10 -12 0 -12 -3 -2 -16z"/>
<path d="M1873 1538 c2 -7 0 -21 -5 -30 -6 -13 -5 -16 5 -12 14 5 18 54 4 54
-5 0 -7 -6 -4 -12z"/>
<path d="M1068 1533 c7 -3 16 -2 19 1 4 3 -2 6 -13 5 -11 0 -14 -3 -6 -6z"/>
<path d="M1614 1521 c0 -12 6 -17 18 -13 10 2 18 9 18 15 0 6 -3 7 -7 4 -3 -4
-11 -3 -17 3 -8 6 -12 3 -12 -9z"/>
<path d="M1811 1524 c0 -11 3 -14 6 -6 3 7 2 16 -1 19 -3 4 -6 -2 -5 -13z"/>
<path d="M1281 1517 c-6 -8 -7 -18 -3 -22 4 -5 0 -6 -9 -3 -9 4 -16 1 -16 -7
0 -8 7 -11 15 -7 11 4 13 1 7 -8 -5 -9 -4 -11 4 -6 6 4 9 11 6 16 -3 4 1 11 7
13 10 4 9 6 -1 6 -11 1 -11 4 -1 16 7 8 10 15 7 15 -2 0 -10 -6 -16 -13z"/>
<path d="M1067 1489 c3 -10 13 -24 22 -31 14 -12 15 -11 2 4 -7 10 -11 24 -8
31 3 8 -1 14 -8 14 -7 0 -10 -8 -8 -18z"/>
<path d="M1157 1497 c4 -6 0 -8 -9 -5 -8 4 -15 1 -15 -7 0 -8 7 -11 15 -7 10
3 13 1 8 -6 -3 -6 -2 -13 3 -16 5 -4 8 2 6 11 -1 10 1 23 6 29 5 7 3 11 -6 11
-8 0 -11 -5 -8 -10z"/>
<path d="M1518 1503 c7 -3 16 -2 19 1 4 3 -2 6 -13 5 -11 0 -14 -3 -6 -6z"/>
<path d="M1590 1505 c0 -5 5 -17 10 -25 5 -8 10 -10 10 -5 0 6 -5 17 -10 25
-5 8 -10 11 -10 5z"/>
<path d="M1181 1474 c0 -11 3 -14 6 -6 3 7 2 16 -1 19 -3 4 -6 -2 -5 -13z"/>
<path d="M1387 1479 c7 -7 15 -10 18 -7 3 3 -2 9 -12 12 -14 6 -15 5 -6 -5z"/>
<path d="M1672 1470 c-7 -12 -7 -17 4 -17 7 0 10 5 7 10 -4 6 0 8 9 5 8 -4 15
-1 15 6 0 18 -23 15 -35 -4z"/>
<path d="M1800 1480 c18 -12 30 -13 30 -2 0 4 -10 9 -22 9 -18 2 -20 0 -8 -7z"/>
<path d="M1348 1463 c6 -3 10 -9 7 -13 -3 -5 3 -13 13 -19 14 -7 19 -6 19 4 0
8 -7 11 -16 7 -13 -5 -14 -3 -4 9 10 12 8 15 -10 16 -12 0 -16 -1 -9 -4z"/>
<path d="M1879 1468 c-6 -15 -4 -58 3 -58 4 0 6 11 4 24 -2 14 1 27 7 30 9 3
9 5 0 5 -7 1 -13 0 -14 -1z"/>
<path d="M1461 1444 c0 -11 3 -14 6 -6 3 7 2 16 -1 19 -3 4 -6 -2 -5 -13z"/>
<path d="M1493 1445 c0 -7 6 -11 14 -8 7 3 13 6 13 8 0 2 -6 5 -13 8 -8 3 -14
-1 -14 -8z"/>
<path d="M1580 1452 c0 -6 -11 -9 -27 -6 -15 3 -25 3 -22 -1 12 -11 49 -14 55
-4 3 6 3 13 0 16 -3 4 -6 1 -6 -5z"/>
<path d="M1715 1451 c-3 -5 -2 -12 3 -15 5 -3 9 1 9 9 0 17 -3 19 -12 6z"/>
<path d="M1213 1437 c-3 -4 -2 -11 1 -14 3 -4 6 -1 6 5 0 6 11 9 25 6 14 -2
25 -1 25 4 0 11 -50 10 -57 -1z"/>
<path d="M1315 1441 c-3 -5 -2 -12 3 -15 5 -3 9 1 9 9 0 17 -3 19 -12 6z"/>
<path d="M1435 1441 c-3 -5 -2 -12 3 -15 5 -3 9 1 9 9 0 17 -3 19 -12 6z"/>
<path d="M1636 1442 c-3 -5 1 -9 9 -9 8 0 12 4 9 9 -3 4 -7 8 -9 8 -2 0 -6 -4
-9 -8z"/>
<path d="M1755 1439 c-3 -4 2 -6 10 -5 21 3 28 13 10 13 -9 0 -18 -4 -20 -8z"/>
<path d="M1947 1427 c-3 -7 3 -13 14 -13 13 0 15 3 7 13 -6 7 -12 13 -13 13
-2 0 -5 -6 -8 -13z"/>
<path d="M1110 1420 c14 -9 7 -14 -13 -11 -5 1 -6 -2 -3 -7 6 -11 43 -9 53 3
5 4 2 4 -6 0 -10 -6 -13 -4 -9 6 4 10 -1 15 -15 17 -17 1 -19 -1 -7 -8z"/>
<path d="M1505 1419 c-3 -4 2 -6 10 -5 21 3 28 13 10 13 -9 0 -18 -4 -20 -8z"/>
<path d="M1292 1411 c-11 -7 -11 -9 0 -14 9 -3 15 1 15 9 0 8 -1 14 -1 14 -1
0 -7 -4 -14 -9z"/>
<path d="M1748 1413 c7 -3 16 -2 19 1 4 3 -2 6 -13 5 -11 0 -14 -3 -6 -6z"/>
<path d="M1816 1408 c5 -8 1 -9 -12 -4 -10 4 -15 4 -11 0 4 -4 2 -12 -3 -19
-7 -8 -5 -12 5 -12 8 0 11 5 8 10 -4 6 1 8 11 4 9 -4 15 -3 11 2 -3 5 0 11 7
13 7 3 5 7 -6 11 -11 5 -15 3 -10 -5z"/>
<path d="M1470 1401 c0 -6 4 -12 8 -15 5 -3 9 1 9 9 0 8 -4 15 -9 15 -4 0 -8
-4 -8 -9z"/>
<path d="M1613 1394 c0 -11 3 -11 16 -1 12 10 14 9 9 -4 -4 -9 -1 -16 8 -16 9
0 10 5 5 15 -11 20 -38 24 -38 6z"/>
<path d="M1520 1389 c0 -5 -4 -7 -10 -4 -6 4 -7 -1 -3 -11 4 -10 2 -15 -4 -11
-5 3 -10 0 -10 -8 0 -10 4 -12 12 -5 7 5 15 7 19 3 4 -4 4 1 0 11 -5 13 -4 17
4 12 8 -5 10 -2 6 8 -7 18 -14 21 -14 5z"/>
<path d="M1877 1387 c-3 -8 1 -14 8 -14 7 0 11 6 8 14 -3 7 -6 13 -8 13 -2 0
-5 -6 -8 -13z"/>
<path d="M1155 1363 c0 -15 6 -28 13 -29 7 -1 8 0 3 2 -5 3 -7 16 -5 30 2 13
0 24 -4 24 -5 0 -8 -12 -7 -27z"/>
<path d="M1270 1386 c0 -2 7 -7 16 -10 8 -3 12 -2 9 4 -6 10 -25 14 -25 6z"/>
<path d="M1708 1368 c2 -10 9 -18 15 -18 6 0 7 3 4 7 -4 3 -3 11 3 17 6 8 3
12 -9 12 -12 0 -17 -6 -13 -18z"/>
<path d="M1948 1383 c6 -2 9 -10 6 -15 -4 -7 -2 -8 5 -4 13 9 5 26 -12 25 -9
0 -8 -2 1 -6z"/>
<path d="M1221 1364 c0 -11 3 -14 6 -6 3 7 2 16 -1 19 -3 4 -6 -2 -5 -13z"/>
<path d="M1253 1365 c0 -7 7 -11 15 -7 11 4 13 1 7 -8 -5 -9 -4 -11 3 -6 16
10 15 14 -6 25 -14 7 -19 6 -19 -4z"/>
<path d="M1374 1359 c0 -12 4 -15 12 -9 6 6 14 7 17 3 4 -3 7 -2 7 4 0 6 -8
13 -18 15 -12 4 -18 -1 -18 -13z"/>
<path d="M1596 1367 c3 -10 9 -15 12 -12 3 3 0 11 -7 18 -10 9 -11 8 -5 -6z"/>
<path d="M1981 1357 c-13 -21 -12 -21 5 -5 10 10 16 20 13 22 -3 3 -11 -5 -18
-17z"/>
<path d="M1067 1351 c-3 -13 0 -18 7 -15 7 3 13 11 13 19 0 22 -14 18 -20 -4z"/>
<path d="M1306 1362 c-3 -5 1 -9 9 -9 8 0 12 4 9 9 -3 4 -7 8 -9 8 -2 0 -6 -4
-9 -8z"/>
<path d="M1836 1354 c-8 -20 -8 -24 2 -24 4 0 8 9 9 20 2 24 -3 26 -11 4z"/>
<path d="M1758 1343 c7 -3 16 -2 19 1 4 3 -2 6 -13 5 -11 0 -14 -3 -6 -6z"/>
<path d="M1881 1328 c9 -16 29 -17 29 -2 0 3 -5 2 -12 -2 -7 -5 -9 -2 -6 8 4
8 0 15 -7 15 -10 0 -11 -5 -4 -19z"/>
<path d="M1950 1345 c0 -5 5 -17 10 -25 5 -8 10 -10 10 -5 0 6 -5 17 -10 25
-5 8 -10 11 -10 5z"/>
<path d="M1432 1336 c4 -5 3 -16 -2 -26 -6 -12 -5 -17 5 -17 7 0 11 7 8 14 -3
8 0 13 7 11 7 -2 14 3 16 10 1 7 0 8 -3 2 -3 -7 -10 -7 -21 2 -10 7 -14 9 -10
4z"/>
<path d="M1552 1336 c4 -5 3 -16 -2 -26 -6 -12 -5 -17 5 -17 7 0 11 7 8 14 -3
8 0 13 7 11 7 -2 14 3 16 10 1 7 0 8 -3 2 -3 -7 -10 -7 -21 2 -10 7 -14 9 -10
4z"/>
<path d="M1077 1318 c-7 -5 0 -6 17 -4 16 3 31 7 33 10 8 8 -37 2 -50 -6z"/>
<path d="M1197 1318 c-7 -5 0 -6 17 -4 16 3 31 7 33 10 8 8 -37 2 -50 -6z"/>
<path d="M1310 1310 c-6 -12 -5 -17 5 -17 8 0 11 7 7 16 -5 13 -3 14 9 4 13
-10 16 -10 16 0 0 19 -26 17 -37 -3z"/>
<path d="M1674 1315 c1 -8 6 -18 11 -22 4 -5 5 -2 0 6 -6 11 -4 13 8 8 23 -9
21 0 -2 13 -15 7 -19 7 -17 -5z"/>
<path d="M1794 1315 c1 -8 6 -18 11 -22 4 -5 5 -2 0 6 -6 11 -4 13 8 8 23 -9
21 0 -2 13 -15 7 -19 7 -17 -5z"/>
<path d="M2010 1325 c0 -5 5 -17 10 -25 5 -8 10 -10 10 -5 0 6 -5 17 -10 25
-5 8 -10 11 -10 5z"/>
<path d="M1599 1318 c-5 -19 -8 -50 -4 -46 7 7 15 48 9 48 -2 0 -4 -1 -5 -2z"/>
<path d="M1911 1307 c-8 -10 -7 -14 4 -14 8 0 11 5 8 10 -4 6 1 8 11 4 10 -4
15 -3 11 3 -8 14 -20 12 -34 -3z"/>
<path d="M1239 1308 c-6 -20 -5 -38 2 -49 7 -10 8 -6 5 13 -3 15 1 29 7 32 9
3 9 5 0 5 -7 1 -13 0 -14 -1z"/>
<path d="M1273 1295 c0 -8 4 -12 9 -9 5 3 6 10 3 15 -9 13 -12 11 -12 -6z"/>
<path d="M1356 1295 c-9 -26 -7 -32 5 -12 6 10 9 21 6 23 -2 3 -7 -2 -11 -11z"/>
<path d="M1475 1283 c0 -15 6 -28 13 -29 7 -1 8 0 3 2 -5 3 -7 16 -5 30 2 13
0 24 -4 24 -5 0 -8 -12 -7 -27z"/>
<path d="M929 1283 c-13 -16 -12 -17 4 -4 9 7 17 15 17 17 0 8 -8 3 -21 -13z"/>
<path d="M1955 1291 c-3 -5 -2 -12 3 -15 5 -3 9 1 9 9 0 17 -3 19 -12 6z"/>
<path d="M1050 1286 c0 -2 7 -7 16 -10 8 -3 12 -2 9 4 -6 10 -25 14 -25 6z"/>
<path d="M1116 1282 c-3 -5 1 -9 9 -9 8 0 12 4 9 9 -3 4 -7 8 -9 8 -2 0 -6 -4
-9 -8z"/>
<path d="M1616 1273 c-4 -10 -1 -11 12 -5 9 5 23 7 30 5 6 -3 12 -1 12 4 0 14
-49 10 -54 -4z"/>
<path d="M1734 1278 c-3 -5 -2 -8 3 -7 20 3 27 -2 13 -11 -11 -7 -11 -10 -2
-10 7 0 11 -4 8 -8 -3 -5 1 -9 9 -9 11 0 12 4 4 13 -7 8 -6 14 3 17 11 4 10 6
0 6 -7 1 -11 5 -8 9 3 5 -2 9 -10 9 -8 0 -17 -4 -20 -9z"/>
<path d="M1854 1278 c-3 -5 -3 -12 0 -15 3 -4 6 -1 6 5 0 6 10 9 21 7 12 -3
19 -1 15 2 -11 11 -35 12 -42 1z"/>
<path d="M1995 1280 c-3 -5 -1 -10 4 -10 6 0 11 5 11 10 0 6 -2 10 -4 10 -3 0
-8 -4 -11 -10z"/>
<path d="M856 1272 c-2 -4 4 -8 14 -8 10 0 16 4 14 8 -3 4 -9 8 -14 8 -5 0
-11 -4 -14 -8z"/>
<path d="M1547 1253 c3 -7 6 -13 8 -13 2 0 5 6 8 13 3 8 -1 14 -8 14 -7 0 -11
-6 -8 -14z"/>
<path d="M890 1251 c-8 -6 -19 -7 -25 -4 -5 3 -4 0 3 -8 10 -11 15 -10 29 4
19 19 16 22 -7 8z"/>
<path d="M933 1245 c0 -8 5 -11 10 -8 6 4 8 0 4 -10 -9 -25 0 -21 14 6 6 12 8
19 4 15 -5 -4 -13 -3 -20 2 -8 7 -12 5 -12 -5z"/>
<path d="M1012 1251 c5 -16 35 -24 43 -11 3 5 -3 7 -12 6 -10 -2 -22 2 -26 8
-6 7 -7 6 -5 -3z"/>
<path d="M1176 1248 c5 -8 1 -9 -12 -4 -10 4 -15 4 -11 0 4 -4 2 -12 -3 -19
-7 -8 -5 -12 5 -12 8 0 11 5 8 10 -4 6 1 8 11 4 9 -4 15 -3 11 2 -3 5 0 11 7
13 7 3 5 7 -6 11 -11 5 -15 3 -10 -5z"/>
<path d="M1219 1258 c-5 -18 -6 -38 -1 -34 7 8 12 36 6 36 -2 0 -4 -1 -5 -2z"/>
<path d="M1367 1246 c-4 -9 -3 -15 2 -11 5 3 12 -1 14 -7 4 -10 6 -10 6 0 1 7
5 11 9 8 5 -3 9 1 9 9 0 11 -4 12 -13 4 -8 -7 -13 -6 -16 3 -3 8 -7 6 -11 -6z"/>
<path d="M2035 1240 c1 -11 5 -23 9 -27 4 -5 7 -3 6 2 -5 21 1 29 10 15 6 -9
10 -10 10 -3 0 7 -8 17 -18 22 -15 8 -18 6 -17 -9z"/>
<path d="M1845 1239 c-3 -4 2 -6 10 -5 21 3 28 13 10 13 -9 0 -18 -4 -20 -8z"/>
<path d="M1237 1227 c-3 -8 1 -14 8 -14 7 0 11 6 8 14 -3 7 -6 13 -8 13 -2 0
-5 -6 -8 -13z"/>
<path d="M1438 1223 c7 -3 16 -2 19 1 4 3 -2 6 -13 5 -11 0 -14 -3 -6 -6z"/>
<path d="M1709 1224 c5 -3 7 -17 5 -32 -3 -19 -2 -23 5 -13 12 18 7 44 -8 47
-6 1 -7 0 -2 -2z"/>
<path d="M1795 1213 c1 -10 -1 -23 -6 -28 -5 -7 -1 -11 11 -11 13 0 16 5 11
16 -5 8 -6 21 -4 28 3 6 0 12 -5 12 -6 0 -9 -8 -7 -17z"/>
<path d="M1948 1212 c5 -9 7 -23 5 -29 -3 -7 -1 -13 4 -13 14 0 10 49 -4 54
-10 4 -11 1 -5 -12z"/>
<path d="M1011 1211 c-8 -5 -20 -7 -28 -4 -7 3 -13 1 -13 -4 0 -14 49 -11 54
4 6 15 5 16 -13 4z"/>
<path d="M1054 1199 c0 -12 4 -15 12 -9 6 6 14 7 17 3 4 -3 7 -2 7 4 0 6 -8
13 -18 15 -12 4 -18 -1 -18 -13z"/>
<path d="M1413 1205 c0 -8 5 -11 10 -8 6 4 8 0 5 -9 -4 -8 -1 -15 7 -15 8 0
11 7 7 15 -4 11 -1 13 9 7 8 -5 11 -5 6 1 -5 5 -12 8 -15 7 -4 -1 -12 3 -18 8
-7 5 -11 3 -11 -6z"/>
<path d="M1580 1211 c0 -5 -11 -8 -25 -5 -14 2 -25 0 -25 -4 0 -13 53 -8 58 6
2 7 1 12 -2 12 -3 0 -6 -4 -6 -9z"/>
<path d="M1638 1213 c7 -3 16 -2 19 1 4 3 -2 6 -13 5 -11 0 -14 -3 -6 -6z"/>
<path d="M1893 1205 c0 -7 6 -11 14 -8 7 3 13 6 13 8 0 2 -6 5 -13 8 -8 3 -14
-1 -14 -8z"/>
<path d="M1186 1198 c3 -4 9 -8 15 -8 5 0 9 4 9 8 0 5 -7 9 -15 9 -8 0 -12 -4
-9 -9z"/>
<path d="M1308 1192 c-4 -12 1 -18 13 -18 12 0 15 4 9 12 -6 6 -7 14 -3 17 3
4 2 7 -4 7 -6 0 -13 -8 -15 -18z"/>
<path d="M1599 1203 c0 -5 -3 -19 -5 -32 -2 -14 -2 -22 1 -19 8 8 17 58 10 58
-3 0 -5 -3 -6 -7z"/>
<path d="M2095 1199 c-4 -6 -4 -13 -1 -16 3 -4 6 -1 6 6 0 7 5 9 12 5 7 -4 8
-3 4 4 -9 15 -13 15 -21 1z"/>
<path d="M1238 1183 c7 -3 16 -2 19 1 4 3 -2 6 -13 5 -11 0 -14 -3 -6 -6z"/>
<path d="M1515 1181 c6 -10 4 -13 -6 -9 -10 4 -15 -1 -16 -16 0 -11 1 -15 4
-8 3 9 9 10 17 3 9 -8 12 -6 11 9 -1 11 -5 23 -10 27 -4 5 -4 2 0 -6z"/>
<path d="M1638 1172 c3 -9 1 -13 -5 -9 -6 4 -13 0 -16 -8 -4 -10 -1 -12 10 -8
10 4 14 2 10 -4 -3 -5 1 -10 9 -10 10 0 11 4 5 10 -6 6 -7 17 -1 27 6 12 5 17
-5 17 -7 0 -11 -7 -7 -15z"/>
<path d="M1997 1173 c3 -7 6 -13 8 -13 2 0 5 6 8 13 3 8 -1 14 -8 14 -7 0 -11
-6 -8 -14z"/>
<path d="M919 1178 c-5 -19 -8 -50 -4 -46 7 7 15 48 9 48 -2 0 -4 -1 -5 -2z"/>
<path d="M1734 1161 c0 -12 6 -17 18 -13 10 2 18 9 18 15 0 6 -3 7 -7 4 -3 -4
-11 -3 -17 3 -8 6 -12 3 -12 -9z"/>
<path d="M2142 1164 c10 -10 20 -16 22 -13 3 3 -5 11 -17 18 -21 13 -21 12 -5
-5z"/>
<path d="M981 1154 c0 -11 3 -14 6 -6 3 7 2 16 -1 19 -3 4 -6 -2 -5 -13z"/>
<path d="M1030 1166 c0 -2 7 -7 16 -10 8 -3 12 -2 9 4 -6 10 -25 14 -25 6z"/>
<path d="M1370 1162 c0 -4 10 -9 22 -9 18 -2 20 0 8 7 -18 12 -30 13 -30 2z"/>
<path d="M1870 1160 c0 -5 5 -10 10 -10 6 0 10 5 10 10 0 6 -4 10 -10 10 -5 0
-10 -4 -10 -10z"/>
<path d="M955 1151 c-3 -5 -2 -12 3 -15 5 -3 9 1 9 9 0 17 -3 19 -12 6z"/>
<path d="M1075 1151 c-3 -5 0 -13 6 -17 8 -5 9 -3 4 6 -6 10 -4 12 9 7 10 -4
15 -3 11 3 -8 13 -22 13 -30 1z"/>
<path d="M2074 1152 c3 -5 0 -13 -6 -15 -9 -4 -10 -6 -1 -6 17 -1 25 16 12 25
-7 4 -9 3 -5 -4z"/>
<path d="M1234 1125 c0 -13 6 -27 13 -29 10 -4 11 -1 5 12 -5 9 -7 23 -5 30 3
6 1 12 -4 12 -5 0 -9 -11 -9 -25z"/>
<path d="M1310 1134 c6 -6 7 -14 3 -17 -3 -4 -2 -7 4 -7 6 0 13 8 15 18 4 12
-1 18 -13 18 -12 0 -15 -4 -9 -12z"/>
<path d="M1426 1138 c3 -5 10 -6 15 -3 13 9 11 12 -6 12 -8 0 -12 -4 -9 -9z"/>
<path d="M1834 1132 c3 -20 33 -36 33 -18 0 9 -7 12 -16 8 -13 -5 -14 -3 -4 9
10 13 10 16 -1 16 -8 0 -13 -7 -12 -15z"/>
<path d="M933 1126 c0 -8 5 -12 10 -9 7 4 8 -1 3 -13 -6 -15 -5 -17 5 -6 11
10 10 15 -2 28 -14 13 -16 13 -16 0z"/>
<path d="M1188 1133 c7 -3 16 -2 19 1 4 3 -2 6 -13 5 -11 0 -14 -3 -6 -6z"/>
<path d="M1454 1129 c-3 -6 -14 -9 -23 -6 -10 2 -18 -1 -18 -8 0 -8 7 -11 15
-7 9 3 13 1 9 -5 -3 -5 0 -10 7 -10 8 0 12 7 8 15 -3 9 -1 13 5 9 5 -3 10 0
10 8 0 18 -3 19 -13 4z"/>
<path d="M1575 1130 c-4 -6 -11 -8 -16 -5 -5 4 -9 2 -9 -3 0 -5 8 -12 18 -14
12 -4 18 1 18 13 0 22 -2 23 -11 9z"/>
<path d="M1948 1133 c7 -3 16 -2 19 1 4 3 -2 6 -13 5 -11 0 -14 -3 -6 -6z"/>
<path d="M2135 1130 c-4 -6 -11 -8 -16 -5 -5 4 -9 2 -9 -3 0 -5 8 -12 18 -14
12 -4 18 1 18 13 0 22 -2 23 -11 9z"/>
<path d="M2174 1120 c0 -15 4 -16 18 -9 10 5 18 13 18 16 0 3 -3 3 -7 0 -3 -4
-11 -3 -17 3 -8 6 -12 3 -12 -10z"/>
<path d="M1013 1117 c-4 -6 -1 -7 7 -2 10 6 12 4 7 -7 -4 -12 -1 -14 16 -10
12 3 16 7 9 10 -7 2 -10 7 -8 11 3 4 -2 8 -10 8 -8 0 -18 -5 -21 -10z"/>
<path d="M1676 1119 c2 -4 -2 -10 -8 -12 -10 -4 -10 -6 0 -6 7 -1 10 -5 7 -11
-4 -6 1 -7 11 -3 12 4 14 8 6 11 -9 3 -10 8 -3 16 8 9 7 13 -4 13 -8 0 -12 -4
-9 -8z"/>
<path d="M1795 1121 c-3 -5 -2 -12 3 -15 5 -3 9 1 9 9 0 17 -3 19 -12 6z"/>
<path d="M1990 1122 c0 -5 7 -9 15 -9 8 0 12 4 9 9 -3 4 -9 8 -15 8 -5 0 -9
-4 -9 -8z"/>
<path d="M1151 1103 c3 -20 -2 -27 -11 -13 -7 12 -9 10 -8 -7 2 -14 7 -19 17
-15 10 4 12 1 6 -9 -4 -8 -4 -11 0 -6 12 10 14 47 3 53 -5 3 -8 2 -7 -3z"/>
<path d="M1947 1093 c3 -7 6 -13 8 -13 2 0 5 6 8 13 3 8 -1 14 -8 14 -7 0 -11
-6 -8 -14z"/>
<path d="M2037 1097 c4 -6 -1 -8 -11 -4 -9 4 -15 3 -11 -2 3 -5 0 -11 -7 -13
-7 -3 -5 -7 6 -11 11 -5 15 -3 10 5 -5 8 -1 9 12 4 10 -4 15 -4 11 0 -4 4 -2
12 3 19 7 8 5 12 -5 12 -8 0 -11 -5 -8 -10z"/>
<path d="M1767 1080 c-8 -11 -17 -18 -20 -15 -4 3 -5 2 -2 -2 11 -15 34 -11
28 5 -4 9 -2 13 4 9 5 -3 10 0 10 8 0 20 -3 19 -20 -5z"/>
<path d="M896 1078 c3 -4 11 -5 19 -1 21 7 19 12 -4 10 -11 0 -18 -5 -15 -9z"/>
<path d="M980 1080 c8 -5 20 -10 25 -10 6 0 3 5 -5 10 -8 5 -19 10 -25 10 -5
0 -3 -5 5 -10z"/>
<path d="M1281 1076 c-9 -10 -9 -16 -1 -21 6 -4 14 -4 17 -1 4 3 1 6 -7 6 -10
0 -10 3 0 15 7 8 10 15 7 15 -2 0 -10 -6 -16 -14z"/>
<path d="M1368 1071 c4 -10 7 -11 10 -3 2 7 8 10 12 7 5 -3 11 -2 14 3 2 4 -6
8 -19 8 -16 0 -21 -4 -17 -15z"/>
<path d="M1720 1080 c-8 -5 -10 -10 -5 -10 6 0 17 5 25 10 8 5 11 10 5 10 -5
0 -17 -5 -25 -10z"/>
<path d="M1973 1075 c0 -8 4 -12 9 -9 5 3 6 10 3 15 -9 13 -12 11 -12 -6z"/>
<path d="M1519 1078 c-6 -20 -6 -39 0 -42 4 -3 7 6 7 20 0 20 -4 32 -7 22z"/>
<path d="M915 1061 c-3 -5 0 -13 6 -17 7 -4 9 -3 5 4 -3 5 0 13 6 15 9 4 10 6
1 6 -6 1 -14 -3 -18 -8z"/>
<path d="M954 1052 c3 -20 33 -36 33 -18 0 9 -7 12 -16 8 -13 -5 -14 -3 -4 9
10 13 10 16 -1 16 -8 0 -13 -7 -12 -15z"/>
<path d="M1245 1062 c-13 -9 -15 -52 -3 -52 5 0 8 6 5 13 -2 6 0 20 5 30 10
19 8 21 -7 9z"/>
<path d="M1954 1048 c2 -15 0 -29 -5 -32 -5 -2 -4 -3 2 -2 15 3 20 29 8 47 -7
10 -8 6 -5 -13z"/>
<path d="M1614 1041 c0 -12 6 -17 18 -13 10 2 18 9 18 15 0 6 -3 7 -7 4 -3 -4
-11 -3 -17 3 -8 6 -12 3 -12 -9z"/>
<path d="M1854 1039 c0 -12 4 -15 12 -9 6 6 14 7 17 3 4 -3 7 -2 7 4 0 6 -8
13 -18 15 -12 4 -18 -1 -18 -13z"/>
<path d="M1011 1034 c0 -11 3 -14 6 -6 3 7 2 16 -1 19 -3 4 -6 -2 -5 -13z"/>
<path d="M1050 1037 c0 -5 6 -7 13 -4 6 2 20 0 29 -5 13 -6 16 -5 12 5 -5 14
-54 18 -54 4z"/>
<path d="M1396 1038 c3 -5 10 -6 15 -3 13 9 11 12 -6 12 -8 0 -12 -4 -9 -9z"/>
<path d="M1475 1041 c-3 -5 -2 -12 3 -15 5 -3 9 1 9 9 0 17 -3 19 -12 6z"/>
<path d="M1733 1035 c0 -7 8 -10 19 -7 10 2 18 6 18 7 0 1 -8 5 -18 7 -11 3
-19 0 -19 -7z"/>
<path d="M1786 1042 c-3 -5 1 -9 9 -9 8 0 12 4 9 9 -3 4 -7 8 -9 8 -2 0 -6 -4
-9 -8z"/>
<path d="M2066 1038 c3 -5 10 -6 15 -3 13 9 11 12 -6 12 -8 0 -12 -4 -9 -9z"/>
<path d="M2127 1039 c7 -7 15 -10 18 -7 3 3 -2 9 -12 12 -14 6 -15 5 -6 -5z"/>
<path d="M1188 1023 c7 -3 16 -2 19 1 4 3 -2 6 -13 5 -11 0 -14 -3 -6 -6z"/>
<path d="M1310 1015 c5 -7 7 -15 3 -19 -4 -4 1 -4 11 0 13 5 17 4 12 -4 -5 -8
-1 -10 10 -5 10 4 15 2 11 -4 -3 -5 0 -10 8 -10 10 0 12 4 5 12 -5 7 -7 15 -3
19 4 4 -1 4 -11 0 -13 -5 -17 -4 -12 4 5 8 1 10 -10 5 -10 -4 -15 -2 -11 4 3
5 0 10 -8 10 -10 0 -12 -4 -5 -12z"/>
<path d="M1428 1008 c2 -10 6 -18 7 -18 1 0 5 8 7 18 3 11 0 19 -7 19 -7 0
-10 -8 -7 -19z"/>
<path d="M1548 1012 c4 -11 1 -13 -8 -7 -9 5 -11 4 -6 -3 10 -16 14 -15 25 6
7 14 6 19 -4 19 -7 0 -11 -7 -7 -15z"/>
<path d="M900 1011 c0 -6 4 -13 10 -16 6 -3 7 1 4 9 -7 18 -14 21 -14 7z"/>
<path d="M1455 1009 c-4 -6 -5 -12 -2 -15 2 -3 7 2 10 11 7 17 1 20 -8 4z"/>
<path d="M1575 1009 c-4 -6 -5 -12 -2 -15 2 -3 7 2 10 11 7 17 1 20 -8 4z"/>
<path d="M1678 992 c-3 -11 0 -19 7 -19 7 0 10 8 7 19 -2 10 -6 18 -7 18 -1 0
-5 -8 -7 -18z"/>
<path d="M1795 1001 c-3 -5 -2 -12 3 -15 5 -3 9 1 9 9 0 17 -3 19 -12 6z"/>
<path d="M1996 1001 c9 -9 34 -9 34 -1 0 5 -9 8 -20 7 -10 -1 -17 -3 -14 -6z"/>
<path d="M1634 968 c2 -15 0 -29 -5 -32 -5 -2 -4 -3 2 -2 15 3 20 29 8 47 -7
10 -8 6 -5 -13z"/>
<path d="M1986 977 c3 -10 9 -15 12 -12 3 3 0 11 -7 18 -10 9 -11 8 -5 -6z"/>
<path d="M2078 983 c7 -3 16 -2 19 1 4 3 -2 6 -13 5 -11 0 -14 -3 -6 -6z"/>
<path d="M1238 973 c7 -3 16 -2 19 1 4 3 -2 6 -13 5 -11 0 -14 -3 -6 -6z"/>
<path d="M1456 967 c5 -14 54 -18 54 -4 0 5 -6 7 -12 4 -7 -2 -21 0 -30 5 -13
6 -16 5 -12 -5z"/>
<path d="M1541 964 c0 -11 3 -14 6 -6 3 7 2 16 -1 19 -3 4 -6 -2 -5 -13z"/>
<path d="M1573 966 c0 -9 7 -12 16 -8 13 5 14 3 4 -9 -10 -13 -10 -16 1 -16
18 0 14 27 -6 38 -10 5 -15 4 -15 -5z"/>
<path d="M1855 970 c-4 -6 -11 -8 -16 -5 -5 3 -6 -2 -2 -11 4 -12 3 -15 -5
-10 -8 5 -10 1 -5 -10 4 -11 8 -13 11 -6 2 7 9 9 14 6 7 -4 8 -2 4 5 -4 6 -2
18 4 26 7 8 10 15 7 15 -3 0 -9 -5 -12 -10z"/>
<path d="M950 960 c0 -5 5 -10 10 -10 6 0 10 5 10 10 0 6 -4 10 -10 10 -5 0
-10 -4 -10 -10z"/>
<path d="M1068 952 c-4 -12 1 -18 13 -18 12 0 15 4 9 12 -6 6 -7 14 -3 17 3 4
2 7 -4 7 -6 0 -13 -8 -15 -18z"/>
<path d="M1190 960 c0 -5 5 -10 10 -10 6 0 10 5 10 10 0 6 -4 10 -10 10 -5 0
-10 -4 -10 -10z"/>
<path d="M1281 956 c-9 -10 -9 -16 -1 -21 6 -4 14 -4 17 -1 4 3 1 6 -7 6 -10
0 -10 3 0 15 7 8 10 15 7 15 -2 0 -10 -6 -16 -14z"/>
<path d="M1379 959 c-10 -7 -6 -8 13 -5 15 2 29 0 32 -5 2 -5 3 -4 2 2 -3 15
-29 20 -47 8z"/>
<path d="M1879 953 c-13 -16 -12 -17 4 -4 16 13 21 21 13 21 -2 0 -10 -8 -17
-17z"/>
<path d="M2035 961 c-3 -5 -2 -12 3 -15 5 -3 9 1 9 9 0 17 -3 19 -12 6z"/>
<path d="M2070 965 c0 -7 30 -13 34 -7 3 4 -4 9 -15 9 -10 1 -19 0 -19 -2z"/>
<path d="M997 937 c4 -6 0 -8 -8 -5 -10 4 -15 -1 -16 -16 0 -11 1 -15 4 -8 3
6 8 10 12 8 4 -3 12 3 18 13 9 14 8 18 -3 18 -7 0 -10 -5 -7 -10z"/>
<path d="M1150 935 c5 -7 7 -15 3 -19 -4 -4 1 -4 11 0 13 5 17 4 12 -4 -5 -8
-1 -10 10 -5 11 4 13 8 6 11 -7 2 -10 8 -7 13 4 5 -2 6 -11 2 -10 -4 -15 -2
-11 4 3 5 0 10 -8 10 -10 0 -12 -4 -5 -12z"/>
<path d="M1237 933 c3 -7 6 -13 8 -13 2 0 5 6 8 13 3 8 -1 14 -8 14 -7 0 -11
-6 -8 -14z"/>
<path d="M2007 939 c7 -7 15 -10 18 -7 3 3 -2 9 -12 12 -14 6 -15 5 -6 -5z"/>
<path d="M934 929 c-3 -6 -2 -15 3 -20 5 -5 9 -1 9 11 0 23 -2 24 -12 9z"/>
<path d="M1214 926 c1 -8 5 -18 8 -22 4 -3 5 1 4 10 -1 8 -5 18 -8 22 -4 3 -5
-1 -4 -10z"/>
<path d="M1714 932 c4 -7 3 -19 -3 -26 -8 -9 -7 -13 4 -13 8 0 11 5 8 10 -4 6
0 8 8 5 10 -4 15 1 16 16 0 11 -1 15 -4 8 -4 -10 -8 -10 -21 0 -13 11 -14 11
-8 0z"/>
<path d="M1390 910 c-6 -12 -5 -17 5 -17 7 0 11 7 7 15 -3 10 -1 13 6 8 6 -3
13 -3 16 2 3 5 -2 9 -10 9 -8 0 -19 -8 -24 -17z"/>
<path d="M1560 920 c8 -5 20 -10 25 -10 6 0 3 5 -5 10 -8 5 -19 10 -25 10 -5
0 -3 -5 5 -10z"/>
<path d="M1079 908 c-6 -21 -6 -39 1 -43 5 -3 7 3 6 12 -2 10 2 21 8 25 8 5 7
8 -1 8 -7 0 -13 -1 -14 -2z"/>
<path d="M1239 900 c-4 -34 -3 -44 9 -46 7 -1 8 0 3 2 -5 3 -7 16 -5 30 2 13
2 24 -1 24 -3 0 -6 -4 -6 -10z"/>
<path d="M1325 902 c-13 -9 -15 -52 -3 -52 5 0 8 6 5 13 -2 6 0 20 5 30 10 19
8 21 -7 9z"/>
<path d="M1433 888 c-2 -18 0 -20 7 -8 12 18 13 30 2 30 -4 0 -9 -10 -9 -22z"/>
<path d="M1515 900 c-11 -5 -14 -9 -7 -9 7 -1 11 -5 8 -10 -7 -11 21 -8 31 4
5 4 2 5 -6 0 -11 -6 -13 -4 -8 8 3 10 5 17 4 16 -1 0 -11 -4 -22 -9z"/>
<path d="M1628 888 c2 -10 9 -18 15 -18 6 0 7 3 4 7 -4 3 -3 11 3 17 6 8 3 12
-9 12 -12 0 -17 -6 -13 -18z"/>
<path d="M1774 879 c0 -13 3 -15 13 -7 7 6 13 12 13 13 0 2 -6 5 -13 8 -7 3
-13 -3 -13 -14z"/>
<path d="M953 872 c2 -12 9 -28 17 -35 10 -10 11 -9 4 3 -5 8 -9 21 -10 28 -2
8 -5 17 -8 20 -4 3 -5 -4 -3 -16z"/>
<path d="M996 878 c3 -5 10 -6 15 -3 13 9 11 12 -6 12 -8 0 -12 -4 -9 -9z"/>
<path d="M1116 878 c3 -5 10 -6 15 -3 13 9 11 12 -6 12 -8 0 -12 -4 -9 -9z"/>
<path d="M1273 865 c0 -8 4 -12 9 -9 5 3 6 10 3 15 -9 13 -12 11 -12 -6z"/>
<path d="M908 863 c7 -3 16 -2 19 1 4 3 -2 6 -13 5 -11 0 -14 -3 -6 -6z"/>
<path d="M1029 852 c11 -20 38 -24 38 -6 0 11 -3 11 -16 1 -12 -10 -14 -9 -9
4 4 9 1 16 -8 16 -9 0 -10 -5 -5 -15z"/>
<path d="M1388 863 c7 -3 16 -2 19 1 4 3 -2 6 -13 5 -11 0 -14 -3 -6 -6z"/>
<path d="M1476 858 c5 -7 2 -9 -9 -5 -11 4 -14 2 -10 -9 4 -11 9 -12 19 -3 12
10 11 29 -2 29 -3 0 -2 -5 2 -12z"/>
<path d="M1907 859 c7 -7 15 -10 18 -7 3 3 -2 9 -12 12 -14 6 -15 5 -6 -5z"/>
<path d="M1571 844 c0 -11 3 -14 6 -6 3 7 2 16 -1 19 -3 4 -6 -2 -5 -13z"/>
<path d="M914 842 c4 -3 14 -7 22 -8 9 -1 13 0 10 4 -4 3 -14 7 -22 8 -9 1
-13 0 -10 -4z"/>
<path d="M1157 838 c-7 -5 0 -6 17 -4 16 3 31 7 33 10 8 8 -37 2 -50 -6z"/>
<path d="M1280 840 c-12 -7 -10 -9 7 -7 12 0 19 5 17 9 -6 10 -6 10 -24 -2z"/>
<path d="M1507 839 c7 -7 15 -10 18 -7 3 3 -2 9 -12 12 -14 6 -15 5 -6 -5z"/>
<path d="M1594 836 c1 -8 5 -18 8 -22 4 -3 5 1 4 10 -1 8 -5 18 -8 22 -4 3 -5
-1 -4 -10z"/>
<path d="M1686 837 c3 -10 9 -15 12 -12 3 3 0 11 -7 18 -10 9 -11 8 -5 -6z"/>
<path d="M1710 841 c0 -6 4 -13 10 -16 6 -3 7 1 4 9 -7 18 -14 21 -14 7z"/>
<path d="M1887 839 c7 -7 15 -10 18 -7 3 3 -2 9 -12 12 -14 6 -15 5 -6 -5z"/>
<path d="M1427 826 c-4 -10 -1 -13 8 -9 8 3 12 9 9 14 -7 12 -11 11 -17 -5z"/>
<path d="M1115 821 c6 -10 4 -13 -7 -9 -8 4 -15 1 -15 -7 0 -8 7 -11 16 -7 13
5 14 3 4 -9 -10 -13 -10 -16 1 -16 14 0 16 41 2 54 -5 5 -6 2 -1 -6z"/>
<path d="M1199 823 c-1 -5 -1 -12 0 -17 1 -5 -4 -6 -12 -3 -7 3 -14 -1 -14 -9
0 -19 30 -1 33 20 1 9 0 16 -2 16 -2 0 -5 -3 -5 -7z"/>
<path d="M1229 824 c5 -3 7 -17 5 -32 -3 -19 -2 -23 5 -13 12 18 7 44 -8 47
-6 1 -7 0 -2 -2z"/>
<path d="M1350 820 c0 -5 5 -10 10 -10 6 0 10 5 10 10 0 6 -4 10 -10 10 -5 0
-10 -4 -10 -10z"/>
<path d="M1835 820 c-3 -5 -1 -10 4 -10 6 0 11 5 11 10 0 6 -2 10 -4 10 -3 0
-8 -4 -11 -10z"/>
<path d="M974 800 c0 -12 4 -16 11 -11 5 5 18 7 28 6 9 -2 17 1 17 7 0 5 -6 8
-12 5 -7 -2 -20 -1 -28 4 -11 5 -16 2 -16 -11z"/>
<path d="M906 798 c3 -5 10 -6 15 -3 13 9 11 12 -6 12 -8 0 -12 -4 -9 -9z"/>
<path d="M1141 794 c0 -11 3 -14 6 -6 3 7 2 16 -1 19 -3 4 -6 -2 -5 -13z"/>
<path d="M1450 798 c0 -4 11 -6 24 -4 14 2 27 0 30 -5 2 -5 3 -4 2 3 -3 14
-56 20 -56 6z"/>
<path d="M1536 793 c-4 -10 -1 -11 12 -5 9 5 23 7 30 5 6 -3 12 -1 12 4 0 14
-49 10 -54 -4z"/>
<path d="M1319 788 c-6 -20 -5 -37 1 -33 5 3 11 -1 13 -7 4 -10 6 -10 6 0 1 7
5 10 11 7 6 -3 7 1 3 10 -5 13 -7 14 -14 3 -8 -12 -13 -4 -10 15 1 6 -8 11
-10 5z"/>
<path d="M1394 765 c0 -13 3 -22 7 -19 8 4 6 30 -2 38 -3 3 -5 -5 -5 -19z"/>
<path d="M1253 765 c0 -8 5 -11 10 -8 6 4 8 0 4 -10 -4 -11 -2 -14 9 -10 13 5
13 8 -2 24 -21 23 -21 23 -21 4z"/>
<path d="M1371 764 c0 -11 3 -14 6 -6 3 7 2 16 -1 19 -3 4 -6 -2 -5 -13z"/>
<path d="M945 760 c-3 -6 1 -7 9 -4 18 7 21 14 7 14 -6 0 -13 -4 -16 -10z"/>
<path d="M1080 760 c8 -5 20 -10 25 -10 6 0 3 5 -5 10 -8 5 -19 10 -25 10 -5
0 -3 -5 5 -10z"/>
<path d="M1496 753 c-6 -14 -5 -15 5 -6 7 7 10 15 7 18 -3 3 -9 -2 -12 -12z"/>
<path d="M1526 761 c-3 -5 1 -11 9 -14 9 -4 12 -1 8 9 -6 16 -10 17 -17 5z"/>
<path d="M1745 760 c-3 -6 1 -7 9 -4 18 7 21 14 7 14 -6 0 -13 -4 -16 -10z"/>
<path d="M1795 743 c1 -16 -3 -34 -8 -41 -7 -9 -6 -11 6 -6 15 5 19 56 5 69
-2 3 -4 -7 -3 -22z"/>
<path d="M1035 751 c3 -5 -1 -12 -7 -14 -10 -4 -10 -6 0 -6 7 -1 11 -5 8 -10
-7 -11 20 -8 31 3 4 4 4 7 -2 6 -20 -4 -30 1 -17 9 11 7 10 9 -3 14 -9 4 -14
3 -10 -2z"/>
<path d="M1715 740 c-3 -5 -4 -10 0 -10 3 0 1 -9 -5 -20 -8 -15 -8 -18 3 -14
7 2 13 16 13 29 0 27 -2 30 -11 15z"/>
<path d="M940 731 c0 -6 -9 -8 -20 -6 -11 2 -18 0 -15 -5 7 -12 38 -6 43 8 2
7 1 12 -2 12 -3 0 -6 -4 -6 -9z"/>
<path d="M1171 731 c-8 -5 -20 -7 -28 -4 -7 3 -13 1 -13 -4 0 -14 49 -11 54 4
6 15 5 16 -13 4z"/>
<path d="M1421 723 c16 -27 26 -29 26 -8 0 8 -3 13 -5 10 -3 -3 -12 1 -20 8
-13 11 -14 9 -1 -10z"/>
<path d="M1461 724 c0 -11 3 -14 6 -6 3 7 2 16 -1 19 -3 4 -6 -2 -5 -13z"/>
<path d="M1282 721 c-10 -6 -10 -10 3 -21 13 -11 14 -10 9 5 -6 14 -4 16 6 10
9 -5 11 -4 6 3 -8 14 -7 14 -24 3z"/>
<path d="M1393 723 c4 -3 3 -11 -3 -17 -6 -8 -3 -12 10 -12 15 0 16 4 9 18 -5
10 -13 18 -16 18 -3 0 -3 -3 0 -7z"/>
<path d="M876 695 c-11 -8 -15 -15 -9 -15 6 0 16 7 23 15 16 19 11 19 -14 0z"/>
<path d="M995 700 c6 -10 3 -12 -11 -7 -18 7 -18 6 -2 -6 10 -8 16 -17 13 -20
-3 -4 -2 -5 2 -2 12 9 12 34 1 42 -7 4 -8 1 -3 -7z"/>
<path d="M1115 701 c6 -11 4 -13 -8 -8 -10 4 -14 2 -11 -7 6 -17 32 -16 30 0
-1 8 -6 17 -11 21 -4 5 -5 2 0 -6z"/>
<path d="M1211 692 c-1 -7 -5 -11 -9 -8 -5 3 -9 -1 -9 -9 0 -11 4 -12 13 -4 8
7 14 6 17 -3 4 -11 6 -10 6 0 1 7 5 11 9 8 5 -3 9 1 9 9 0 11 -4 12 -13 4 -8
-7 -14 -6 -17 3 -4 11 -6 10 -6 0z"/>
<path d="M1666 656 c6 -15 4 -17 -6 -11 -9 6 -11 4 -5 -4 5 -9 10 -10 18 -2 8
8 7 14 -2 24 -10 10 -11 8 -5 -7z"/>
<path d="M1719 668 c-6 -21 -5 -37 2 -32 5 3 7 9 4 14 -3 4 1 11 7 13 10 4 10
6 1 6 -7 1 -13 0 -14 -1z"/>
<path d="M1513 653 c4 -3 -1 -12 -11 -20 -15 -13 -15 -13 6 -3 19 9 23 30 5
30 -4 0 -3 -3 0 -7z"/>
<path d="M1430 620 c0 -5 5 -10 11 -10 5 0 7 5 4 10 -3 6 -8 10 -11 10 -2 0
-4 -4 -4 -10z"/>
<path d="M1553 618 c2 -7 -3 -19 -12 -26 -14 -11 -14 -11 3 -5 12 4 17 3 13
-4 -3 -5 0 -10 8 -10 9 0 11 4 6 11 -5 6 -7 19 -6 29 2 9 -1 17 -7 17 -5 0 -8
-6 -5 -12z"/>
<path d="M1675 620 c-3 -5 -1 -10 4 -10 6 0 11 5 11 10 0 6 -2 10 -4 10 -3 0
-8 -4 -11 -10z"/>
<path d="M846 597 c3 -10 9 -15 12 -12 3 3 0 11 -7 18 -10 9 -11 8 -5 -6z"/>
<path d="M1353 596 c-3 -5 -1 -6 5 -2 5 3 13 0 15 -6 4 -10 6 -9 6 1 1 10 4
11 14 2 10 -8 14 -7 14 2 0 15 -45 18 -54 3z"/>
<path d="M1486 602 c-3 -5 1 -9 9 -9 8 0 12 4 9 9 -3 4 -7 8 -9 8 -2 0 -6 -4
-9 -8z"/>
<path d="M1636 593 c-6 -14 -5 -15 5 -6 7 7 10 15 7 18 -3 3 -9 -2 -12 -12z"/>
<path d="M919 595 c-1 -3 -2 -10 -3 -15 0 -6 -8 -15 -16 -20 -9 -6 -10 -10 -3
-10 13 0 26 17 29 38 2 11 -5 18 -7 7z"/>
<path d="M945 580 c-6 -9 -4 -11 5 -5 10 6 12 4 6 -11 -4 -10 -4 -15 0 -11 4
4 12 2 19 -3 8 -7 12 -5 12 5 0 8 -3 13 -5 10 -3 -3 -10 3 -17 12 -9 13 -14
13 -20 3z"/>
<path d="M1213 575 c0 -8 4 -12 9 -9 5 3 6 10 3 15 -9 13 -12 11 -12 -6z"/>
<path d="M1500 572 c0 -6 -11 -9 -27 -6 -15 3 -25 3 -22 -1 12 -11 49 -14 55
-4 3 6 3 13 0 16 -3 4 -6 1 -6 -5z"/>
<path d="M1025 560 c-2 -3 7 -6 21 -6 13 0 24 3 24 7 0 9 -40 8 -45 -1z"/>
<path d="M1236 562 c-3 -5 1 -9 9 -9 8 0 12 4 9 9 -3 4 -7 8 -9 8 -2 0 -6 -4
-9 -8z"/>
<path d="M1290 558 c0 -4 11 -6 24 -4 14 2 27 0 30 -5 2 -5 3 -4 2 3 -3 14
-56 20 -56 6z"/>
<path d="M1519 563 c0 -5 -2 -16 -4 -26 -2 -11 -1 -16 3 -13 8 8 14 46 7 46
-3 0 -5 -3 -6 -7z"/>
<path d="M1076 541 c-3 -5 0 -14 8 -20 10 -9 15 -8 19 3 4 11 1 13 -10 9 -11
-4 -14 -2 -9 5 4 7 5 12 2 12 -3 0 -7 -4 -10 -9z"/>
<path d="M1188 543 c7 -3 16 -2 19 1 4 3 -2 6 -13 5 -11 0 -14 -3 -6 -6z"/>
<path d="M1427 533 c3 -7 6 -13 8 -13 1 0 7 6 13 13 8 10 6 13 -7 13 -11 0
-17 -6 -14 -13z"/>
<path d="M1251 524 c0 -11 3 -14 6 -6 3 7 2 16 -1 19 -3 4 -6 -2 -5 -13z"/>
<path d="M995 520 c3 -5 8 -10 11 -10 2 0 4 5 4 10 0 6 -5 10 -11 10 -5 0 -7
-4 -4 -10z"/>
<path d="M1193 508 c-1 -10 3 -18 9 -18 6 0 8 3 5 7 -4 3 -2 11 3 18 7 8 6 12
-3 12 -7 0 -14 -9 -14 -19z"/>
<path d="M1456 522 c-3 -5 1 -9 9 -9 8 0 12 4 9 9 -3 4 -7 8 -9 8 -2 0 -6 -4
-9 -8z"/>
<path d="M1115 511 c-6 -11 13 -26 22 -17 4 3 1 6 -6 6 -7 0 -9 5 -6 10 3 6 4
10 1 10 -3 0 -7 -4 -11 -9z"/>
<path d="M1400 500 c-9 -6 -10 -10 -3 -10 6 0 15 5 18 10 8 12 4 12 -15 0z"/>
<path d="M1054 480 c0 -13 5 -16 16 -11 8 5 21 6 28 4 6 -3 12 0 12 5 0 6 -8
9 -17 7 -10 -1 -23 1 -28 6 -7 5 -11 1 -11 -11z"/>
<path d="M1216 473 c-5 -11 -1 -11 17 -2 12 7 23 10 24 8 1 -2 4 -2 7 2 3 3
-6 5 -19 5 -13 0 -27 -6 -29 -13z"/>
<path d="M962 443 c25 -27 25 -27 25 -8 0 8 -5 11 -10 8 -6 -4 -8 0 -5 8 4 10
-1 15 -13 15 -17 0 -17 -2 3 -23z"/>
<path d="M1159 468 c-8 -26 -5 -36 9 -31 10 4 13 2 8 -5 -5 -8 -1 -10 10 -5
11 4 13 8 6 11 -7 2 -10 8 -7 13 4 5 -2 6 -11 2 -12 -4 -15 -3 -10 5 4 7 5 12
2 12 -3 0 -6 -1 -7 -2z"/>
<path d="M955 409 c-4 -6 -5 -12 -2 -15 2 -3 7 2 10 11 7 17 1 20 -8 4z"/>
<path d="M997 413 c-8 -17 -1 -37 13 -40 10 -3 11 -2 4 4 -6 4 -10 16 -8 26 2
18 -2 23 -9 10z"/>
<path d="M1051 411 c-19 -12 -22 -38 -5 -38 11 0 11 3 1 16 -10 12 -9 14 4 9
10 -4 16 -1 16 8 0 8 -1 14 -1 14 -1 0 -7 -4 -15 -9z"/>
<path d="M1114 392 c2 -9 9 -18 17 -20 11 -3 11 -1 -1 7 -14 10 -7 16 15 11 6
-1 6 2 2 6 -14 15 -35 12 -33 -4z"/>
<path d="M1233 395 c0 -8 4 -12 9 -9 5 3 6 10 3 15 -9 13 -12 11 -12 -6z"/>
<path d="M987 359 c7 -7 15 -10 18 -7 3 3 -2 9 -12 12 -14 6 -15 5 -6 -5z"/>
<path d="M1160 360 c-12 -7 -10 -9 8 -7 12 0 22 5 22 9 0 11 -12 10 -30 -2z"/>
<path d="M1069 330 c5 -8 6 -21 4 -27 -3 -7 0 -13 5 -13 6 0 9 8 7 18 -1 9 1
22 6 27 5 7 1 11 -11 11 -13 0 -16 -5 -11 -16z"/>
<path d="M972 321 c-11 -7 -11 -9 0 -14 9 -3 15 1 15 9 0 8 -1 14 -1 14 -1 0
-7 -4 -14 -9z"/>
<path d="M1141 314 c0 -11 3 -14 6 -6 3 7 2 16 -1 19 -3 4 -6 -2 -5 -13z"/>
<path d="M1173 315 c0 -7 7 -11 15 -7 9 3 13 1 9 -5 -3 -5 0 -10 8 -10 17 0
10 14 -14 26 -13 7 -18 6 -18 -4z"/>
<path d="M1115 311 c-3 -5 -2 -12 3 -15 5 -3 9 1 9 9 0 17 -3 19 -12 6z"/>
<path d="M1006 281 c-3 -5 1 -11 9 -14 9 -4 12 -1 8 9 -6 16 -10 17 -17 5z"/>
<path d="M1117 229 c7 -7 15 -10 18 -7 3 3 -2 9 -12 12 -14 6 -15 5 -6 -5z"/>
</g>
</svg>
