<svg xmlns="http://www.w3.org/2000/svg" xmlns:xlink="http://www.w3.org/1999/xlink" width="200" zoomAndPan="magnify" viewBox="0 0 150 60" height="80" preserveAspectRatio="xMidYMid meet" version="1.0"><defs><g/></defs><path fill="#d71e1f" d="M 5.007812 8.59375 L 144.730469 8.59375 L 144.730469 50.597656 L 5.007812 50.597656 L 5.007812 8.59375 " fill-opacity="1" fill-rule="nonzero"/><g fill="#ffffff" fill-opacity="1"><g transform="translate(12.738915, 39.308071)"><g><path d="M 24.28125 -20.703125 L 20.140625 0 L 15.328125 0 L 8.484375 -11.359375 L 6.21875 0 L 0.46875 0 L 4.609375 -20.703125 L 9.4375 -20.703125 L 16.296875 -9.375 L 18.546875 -20.703125 Z M 24.28125 -20.703125 "/></g></g></g><g fill="#ffffff" fill-opacity="1"><g transform="translate(39.244139, 39.308071)"><g><path d="M 11.65625 0.421875 C 9.5625 0.421875 7.738281 0.0351562 6.1875 -0.734375 C 4.644531 -1.503906 3.453125 -2.578125 2.609375 -3.953125 C 1.773438 -5.335938 1.359375 -6.921875 1.359375 -8.703125 C 1.359375 -11.066406 1.90625 -13.191406 3 -15.078125 C 4.09375 -16.972656 5.617188 -18.453125 7.578125 -19.515625 C 9.546875 -20.585938 11.78125 -21.125 14.28125 -21.125 C 16.375 -21.125 18.191406 -20.738281 19.734375 -19.96875 C 21.285156 -19.195312 22.476562 -18.117188 23.3125 -16.734375 C 24.15625 -15.359375 24.578125 -13.785156 24.578125 -12.015625 C 24.578125 -9.640625 24.03125 -7.503906 22.9375 -5.609375 C 21.84375 -3.722656 20.3125 -2.242188 18.34375 -1.171875 C 16.382812 -0.109375 14.15625 0.421875 11.65625 0.421875 Z M 12.15625 -4.4375 C 13.457031 -4.4375 14.597656 -4.757812 15.578125 -5.40625 C 16.566406 -6.0625 17.328125 -6.9375 17.859375 -8.03125 C 18.390625 -9.125 18.65625 -10.332031 18.65625 -11.65625 C 18.65625 -13.050781 18.226562 -14.164062 17.375 -15 C 16.519531 -15.84375 15.320312 -16.265625 13.78125 -16.265625 C 12.476562 -16.265625 11.332031 -15.9375 10.34375 -15.28125 C 9.363281 -14.632812 8.609375 -13.765625 8.078125 -12.671875 C 7.546875 -11.578125 7.28125 -10.367188 7.28125 -9.046875 C 7.28125 -7.648438 7.707031 -6.53125 8.5625 -5.6875 C 9.414062 -4.851562 10.613281 -4.4375 12.15625 -4.4375 Z M 12.15625 -4.4375 "/></g></g></g><g fill="#ffffff" fill-opacity="1"><g transform="translate(66.932608, 39.308071)"><g><path d="M 11.65625 0.421875 C 9.5625 0.421875 7.738281 0.0351562 6.1875 -0.734375 C 4.644531 -1.503906 3.453125 -2.578125 2.609375 -3.953125 C 1.773438 -5.335938 1.359375 -6.921875 1.359375 -8.703125 C 1.359375 -11.066406 1.90625 -13.191406 3 -15.078125 C 4.09375 -16.972656 5.617188 -18.453125 7.578125 -19.515625 C 9.546875 -20.585938 11.78125 -21.125 14.28125 -21.125 C 16.375 -21.125 18.191406 -20.738281 19.734375 -19.96875 C 21.285156 -19.195312 22.476562 -18.117188 23.3125 -16.734375 C 24.15625 -15.359375 24.578125 -13.785156 24.578125 -12.015625 C 24.578125 -9.640625 24.03125 -7.503906 22.9375 -5.609375 C 21.84375 -3.722656 20.3125 -2.242188 18.34375 -1.171875 C 16.382812 -0.109375 14.15625 0.421875 11.65625 0.421875 Z M 12.15625 -4.4375 C 13.457031 -4.4375 14.597656 -4.757812 15.578125 -5.40625 C 16.566406 -6.0625 17.328125 -6.9375 17.859375 -8.03125 C 18.390625 -9.125 18.65625 -10.332031 18.65625 -11.65625 C 18.65625 -13.050781 18.226562 -14.164062 17.375 -15 C 16.519531 -15.84375 15.320312 -16.265625 13.78125 -16.265625 C 12.476562 -16.265625 11.332031 -15.9375 10.34375 -15.28125 C 9.363281 -14.632812 8.609375 -13.765625 8.078125 -12.671875 C 7.546875 -11.578125 7.28125 -10.367188 7.28125 -9.046875 C 7.28125 -7.648438 7.707031 -6.53125 8.5625 -5.6875 C 9.414062 -4.851562 10.613281 -4.4375 12.15625 -4.4375 Z M 12.15625 -4.4375 "/></g></g></g><g fill="#ffffff" fill-opacity="1"><g transform="translate(94.621077, 39.308071)"><g><path d="M 20.9375 -17.03125 L 8.1875 -4.640625 L 18.90625 -4.640625 L 17.953125 0 L -0.59375 0 L 0.140625 -3.671875 L 12.890625 -16.0625 L 2.921875 -16.0625 L 3.84375 -20.703125 L 21.6875 -20.703125 Z M 20.9375 -17.03125 "/></g></g></g><g fill="#ffffff" fill-opacity="1"><g transform="translate(117.369513, 39.308071)"><g><path d="M 9.46875 -16.171875 L 8.78125 -12.6875 L 17.984375 -12.6875 L 17.125 -8.3125 L 7.890625 -8.3125 L 7.15625 -4.53125 L 18.015625 -4.53125 L 17.0625 0 L 0.46875 0 L 4.609375 -20.703125 L 20.828125 -20.703125 L 19.90625 -16.171875 Z M 9.46875 -16.171875 "/></g></g></g></svg>