<svg xmlns="http://www.w3.org/2000/svg"
    xmlns:xlink="http://www.w3.org/1999/xlink" width="400" zoomAndPan="magnify" viewBox="0 0 300 74.999997" height="100" preserveAspectRatio="xMidYMid meet" version="1.0">
    <defs>
        <g/>
    </defs>
    <path stroke-linecap="round" transform="matrix(0.748915, 0, 0, 0.75, 33.695376, 16.002848)" fill="none" stroke-linejoin="miter" d="M 1.502089 1.501411 L 300.940496 1.501411 " stroke="#00aff0" stroke-width="3" stroke-opacity="1" stroke-miterlimit="4"/>
    <path stroke-linecap="round" transform="matrix(0.748915, 0, 0, 0.75, 33.695376, 56.043806)" fill="none" stroke-linejoin="miter" d="M 1.502089 1.498884 L 300.940496 1.498884 " stroke="#00aff0" stroke-width="3" stroke-opacity="1" stroke-miterlimit="4"/>
    <g fill="#00aff0" fill-opacity="1">
        <g transform="translate(23.859071, 44.249995)">
            <g>
                <path d="M 1.242188 -10.476562 C 1.242188 -3.808594 5.570312 0.546875 12.699219 0.546875 C 19.855469 0.546875 24.183594 -3.808594 24.183594 -10.476562 C 24.183594 -17.144531 19.855469 -21.5 12.726562 -21.5 C 5.570312 -21.5 1.242188 -17.144531 1.242188 -10.476562 Z M 4.328125 -10.476562 C 4.328125 -15.613281 7.386719 -18.703125 12.699219 -18.703125 C 18.039062 -18.703125 21.097656 -15.613281 21.097656 -10.476562 C 21.097656 -5.367188 18.066406 -2.25 12.726562 -2.25 C 7.386719 -2.25 4.328125 -5.339844 4.328125 -10.476562 Z M 4.328125 -10.476562 "/>
            </g>
        </g>
    </g>
    <g fill="#00aff0" fill-opacity="1">
        <g transform="translate(51.817612, 44.249995)">
            <g>
                <path d="M 4.878906 -15.527344 L 2.078125 -15.527344 L 2.078125 0 L 4.878906 0 L 4.878906 -7.878906 C 4.878906 -11.34375 7.332031 -13.652344 10.621094 -13.652344 C 13.417969 -13.652344 14.34375 -12.148438 14.34375 -9.003906 L 14.34375 0 L 17.144531 0 L 17.144531 -9.234375 C 17.144531 -13.304688 15.960938 -16.015625 11.253906 -16.015625 C 8.484375 -16.015625 6.320312 -14.746094 4.878906 -12.84375 Z M 4.878906 -15.527344 "/>
            </g>
        </g>
    </g>
    <g fill="#00aff0" fill-opacity="1">
        <g transform="translate(73.573043, 44.249995)">
            <g>
                <path d="M 5.109375 -20.953125 L 2.308594 -20.953125 L 2.308594 0 L 5.109375 0 Z M 5.109375 -20.953125 "/>
            </g>
        </g>
    </g>
    <g fill="#00aff0" fill-opacity="1">
        <g transform="translate(83.528166, 44.249995)">
            <g>
                <path d="M -0.0585938 -15.527344 L 6.984375 0 C 6.347656 2.195312 5.511719 2.914062 3.492188 2.914062 C 3.089844 2.914062 2.570312 2.855469 1.847656 2.742188 L 1.847656 5.398438 C 2.710938 5.484375 3.347656 5.511719 3.78125 5.511719 C 7.617188 5.511719 8.253906 4.097656 10.128906 -0.117188 L 17 -15.527344 L 13.738281 -15.527344 L 8.570312 -2.453125 L 3.289062 -15.527344 Z M -0.0585938 -15.527344 "/>
            </g>
        </g>
    </g>
    <g fill="#00aff0" fill-opacity="1">
        <g transform="translate(103.004321, 44.249995)">
            <g>
                <path d="M 5.367188 -20.953125 L 2.394531 -20.953125 L 2.394531 0 L 5.367188 0 L 5.367188 -9.898438 L 18.125 -9.898438 L 18.125 0 L 21.097656 0 L 21.097656 -20.953125 L 18.125 -20.953125 L 18.125 -12.640625 L 5.367188 -12.640625 Z M 5.367188 -20.953125 "/>
            </g>
        </g>
    </g>
    <g fill="#00aff0" fill-opacity="1">
        <g transform="translate(129.029797, 44.249995)">
            <g>
                <path d="M 18.039062 -7.1875 L 18.039062 -7.734375 C 18.039062 -12.902344 14.890625 -16.015625 9.582031 -16.015625 C 4.386719 -16.015625 1.066406 -12.757812 1.066406 -7.734375 C 1.066406 -2.742188 4.359375 0.433594 9.582031 0.433594 C 13.707031 0.433594 16.679688 -1.472656 17.777344 -4.820312 L 14.515625 -4.820312 C 13.882812 -3.117188 12.035156 -2.164062 9.582031 -2.164062 C 6.261719 -2.164062 4.039062 -4.15625 4.039062 -7.1875 Z M 4.097656 -9.175781 C 4.558594 -11.832031 6.609375 -13.417969 9.582031 -13.417969 C 12.582031 -13.417969 14.601562 -11.804688 15.035156 -9.175781 Z M 4.097656 -9.175781 "/>
            </g>
        </g>
    </g>
    <g fill="#00aff0" fill-opacity="1">
        <g transform="translate(150.669829, 44.249995)">
            <g>
                <path d="M 13.910156 -7.964844 L 13.910156 -5.65625 C 13.910156 -3.695312 11.515625 -1.933594 7.9375 -1.933594 C 5.742188 -1.933594 4.503906 -2.914062 4.503906 -4.386719 C 4.503906 -6.292969 6.175781 -6.550781 9.207031 -6.898438 C 11.542969 -7.15625 13.101562 -7.476562 13.910156 -7.964844 Z M 13.996094 -2.394531 C 14.285156 -0.722656 15.09375 0.171875 16.710938 0.171875 C 17.230469 0.171875 18.039062 0.117188 18.933594 -0.0273438 L 18.933594 -2.28125 C 18.585938 -2.222656 18.324219 -2.195312 18.09375 -2.195312 C 17 -2.195312 16.710938 -2.972656 16.710938 -4.589844 L 16.710938 -10.878906 C 16.710938 -14.660156 14.777344 -16.015625 9.609375 -16.015625 C 4.847656 -16.015625 2.335938 -14.199219 2.136719 -10.535156 L 5.050781 -10.535156 C 5.195312 -12.757812 6.667969 -13.652344 9.8125 -13.652344 C 12.613281 -13.652344 13.910156 -12.929688 13.910156 -11.253906 C 13.910156 -9.378906 12.121094 -9.464844 8.6875 -9.089844 C 4.269531 -8.601562 1.53125 -7.851562 1.53125 -4.242188 C 1.53125 -1.355469 3.578125 0.433594 7.476562 0.433594 C 10.332031 0.433594 12.582031 -0.605469 13.996094 -2.394531 Z M 13.996094 -2.394531 "/>
            </g>
        </g>
    </g>
    <g fill="#00aff0" fill-opacity="1">
        <g transform="translate(172.684929, 44.249995)">
            <g>
                <path d="M 18.152344 -20.953125 L 15.355469 -20.953125 L 15.355469 -13.160156 C 14.140625 -14.949219 11.863281 -16.015625 9.378906 -16.015625 C 4.445312 -16.015625 1.066406 -12.523438 1.066406 -7.707031 C 1.066406 -2.855469 4.445312 0.433594 9.351562 0.433594 C 11.863281 0.433594 13.824219 -0.433594 15.355469 -2.28125 L 15.355469 0 L 18.152344 0 Z M 9.667969 -13.417969 C 13.1875 -13.417969 15.355469 -11.140625 15.355469 -7.707031 C 15.355469 -4.242188 13.1875 -2.164062 9.667969 -2.164062 C 6.148438 -2.164062 4.039062 -4.214844 4.039062 -7.707031 C 4.039062 -11.167969 6.148438 -13.417969 9.667969 -13.417969 Z M 9.667969 -13.417969 "/>
            </g>
        </g>
    </g>
    <g fill="#00aff0" fill-opacity="1">
        <g transform="translate(195.450179, 44.249995)">
            <g>
                <path d="M 5.109375 -20.953125 L 2.308594 -20.953125 L 2.308594 0 L 5.109375 0 Z M 5.109375 -20.953125 "/>
            </g>
        </g>
    </g>
    <g fill="#00aff0" fill-opacity="1">
        <g transform="translate(205.405302, 44.249995)">
            <g>
                <path d="M 5.109375 -15.527344 L 2.308594 -15.527344 L 2.308594 0 L 5.109375 0 Z M 5.109375 -17.546875 L 5.109375 -20.953125 L 2.308594 -20.953125 L 2.308594 -17.546875 Z M 5.109375 -17.546875 "/>
            </g>
        </g>
    </g>
    <g fill="#00aff0" fill-opacity="1">
        <g transform="translate(215.360425, 44.249995)">
            <g>
                <path d="M 4.878906 -15.527344 L 2.078125 -15.527344 L 2.078125 0 L 4.878906 0 L 4.878906 -7.878906 C 4.878906 -11.34375 7.332031 -13.652344 10.621094 -13.652344 C 13.417969 -13.652344 14.34375 -12.148438 14.34375 -9.003906 L 14.34375 0 L 17.144531 0 L 17.144531 -9.234375 C 17.144531 -13.304688 15.960938 -16.015625 11.253906 -16.015625 C 8.484375 -16.015625 6.320312 -14.746094 4.878906 -12.84375 Z M 4.878906 -15.527344 "/>
            </g>
        </g>
    </g>
    <g fill="#00aff0" fill-opacity="1">
        <g transform="translate(237.115859, 44.249995)">
            <g>
                <path d="M 18.039062 -7.1875 L 18.039062 -7.734375 C 18.039062 -12.902344 14.890625 -16.015625 9.582031 -16.015625 C 4.386719 -16.015625 1.066406 -12.757812 1.066406 -7.734375 C 1.066406 -2.742188 4.359375 0.433594 9.582031 0.433594 C 13.707031 0.433594 16.679688 -1.472656 17.777344 -4.820312 L 14.515625 -4.820312 C 13.882812 -3.117188 12.035156 -2.164062 9.582031 -2.164062 C 6.261719 -2.164062 4.039062 -4.15625 4.039062 -7.1875 Z M 4.097656 -9.175781 C 4.558594 -11.832031 6.609375 -13.417969 9.582031 -13.417969 C 12.582031 -13.417969 14.601562 -11.804688 15.035156 -9.175781 Z M 4.097656 -9.175781 "/>
            </g>
        </g>
    </g>
    <g fill="#00aff0" fill-opacity="1">
        <g transform="translate(258.755879, 44.249995)">
            <g>
                <path d="M 15.84375 -10.851562 C 15.84375 -14.199219 13.417969 -16.015625 8.773438 -16.015625 C 4.15625 -16.015625 1.789062 -14.285156 1.789062 -11.082031 C 1.789062 -8.226562 3.609375 -7.417969 7.242188 -6.8125 L 10.707031 -6.203125 C 12.667969 -5.886719 13.535156 -5.484375 13.535156 -4.269531 C 13.535156 -2.855469 11.863281 -1.933594 8.6875 -1.933594 C 6.003906 -1.933594 4.386719 -3.058594 4.128906 -5.050781 L 1.066406 -5.050781 C 1.414062 -1.242188 3.867188 0.433594 8.6875 0.433594 C 13.765625 0.433594 16.335938 -1.269531 16.335938 -4.414062 C 16.335938 -7.214844 14.921875 -8.253906 11.457031 -8.832031 L 8.109375 -9.378906 C 5.742188 -9.785156 4.589844 -10.070312 4.589844 -11.574219 C 4.589844 -12.902344 6.003906 -13.652344 8.628906 -13.652344 C 11.429688 -13.652344 12.929688 -12.785156 13.132812 -10.851562 Z M 15.84375 -10.851562 "/>
            </g>
        </g>
    </g>
</svg>