<svg id="Layer_2" data-name="Layer 2" xmlns="http://www.w3.org/2000/svg" viewBox="0 0 113.31 80.94"><defs><style>.cls-1{fill:#fd0;}.cls-2{fill:#fff;}.cls-3,.cls-5{fill:#231f20;}.cls-4{fill:none;stroke:#231f20;stroke-miterlimit:10;stroke-width:0.25px;}.cls-5{fill-rule:evenodd;}</style></defs><title>KOLv5logo</title><polygon class="cls-1" points="0 0 113.31 0 113.31 80.94 0 80.94 0 0 0 0"/><path class="cls-2" d="M93.19,50.54a6.41,6.41,0,0,0-3.5-2.09l-1.28.25h0a2.07,2.07,0,0,0-1.15.65,7.8,7.8,0,0,0-.48.82l-1.11-.51,2.13-1.2a17.06,17.06,0,0,0,1.53-1.16h0l4.4,2.4h.85c-.12.15-.59.76-.71.86A.57.57,0,0,1,93.19,50.54Z"/><path class="cls-2" d="M89.16,65.54a5.52,5.52,0,0,1,2-1.18,7.7,7.7,0,0,0,1.75-.88l.09-.06,0,0,0,0,.57-.48a7.22,7.22,0,0,1-1.19-1.5A4.51,4.51,0,0,1,91.94,59a4.27,4.27,0,0,1,1.29.13l.93.37.56-.69a7.79,7.79,0,0,0,1.38,1.52l0,1-1.29,1.06a6.74,6.74,0,0,1,0,1.2c-.11,1.09-1.3,1.07-2.93,1.38a3.69,3.69,0,0,0-2.54,1.78h0v0h-1l.16-.38A5.41,5.41,0,0,1,89.16,65.54Z"/><path class="cls-2" d="M99.46,45.43a1.91,1.91,0,0,1,.63,1,2.21,2.21,0,0,1-.7,1.63c.15-.08,1.34-.76,1.21-1.65a1.74,1.74,0,0,0-.78-1.28Zm-1.64.06.52.32.53-.32-.52-.32ZM91,53.07c.28.08,1.59.37,1.64.37a2.35,2.35,0,0,0-.06.46l.74-.15a2.38,2.38,0,0,1,1.12-2.16.84.84,0,0,0-.19.08l-.55.06a2.17,2.17,0,0,1-.08-.22,3,3,0,0,1,.63-1.17,4,4,0,0,1,.61-.57L97,49.28l.23-.17.91-.49.6-.31h0l-1-1-1.73,1L95.3,48l.34-.5H95l.06-.8a6.14,6.14,0,0,0,1.75-.91c.14-.14.92-1,1.17-1.27a5.4,5.4,0,0,1,1.34-.6l.08,0c.78.15,4.14.9,4.92,3a3.73,3.73,0,0,1,.13,1.55,3.8,3.8,0,0,0-2-3h-1.26a4.35,4.35,0,0,1,2.48,2.15,3.46,3.46,0,0,1-.12,2.82c-.13.23-.23.41-.32.59a.63.63,0,0,0-.1.14l0,0a2.51,2.51,0,0,0-.4,1.35A1.14,1.14,0,0,0,103,53a1.18,1.18,0,0,1-.55-.59c-.27-.66.52-2.63.76-3.19l.07-.15v0c.35-1.28-1.24-2.43-1.24-2.43l-1,.36a2.92,2.92,0,0,1,1.39,1.82c.1.82-.86,1.68-1.63,2.23l-.84.49c-1.17.67-2.64,1.78-1.91,3.68A3,3,0,0,0,99.91,57a8.3,8.3,0,0,0,2.73,4.5,7,7,0,0,0-1.5,4.7,6.72,6.72,0,0,0,1,2.62,5,5,0,0,0-.85,1.48,20.08,20.08,0,0,0-.84,3.59l-1.91.68a22.71,22.71,0,0,0,2.13-4.47c.54-3-1.33-2.75-2.53-4.55-1.54-2.3.29-5.08.29-5.08a3.37,3.37,0,0,0-.88,1v-.09h-.67V60A4.82,4.82,0,0,1,95,58a4.29,4.29,0,0,1,0-3.67,1.91,1.91,0,0,0-.89,1h0a10.09,10.09,0,0,1-2.4-.57,9.58,9.58,0,0,1-2-1.05s-.56.41-.66.46h0l0,0a6.29,6.29,0,0,1-.69,1.86,5.45,5.45,0,0,0-.74,2.55l-1.09.46c.08-.24.35-1,1-2.73,1-2.5.92-3.26.91-3.34l.52-.3.51-.21S90.7,53,91,53.07Z"/><path class="cls-3" d="M100.09,46.45a1.91,1.91,0,0,0-.63-1l.36-.28a1.74,1.74,0,0,1,.78,1.28c.13.89-1.06,1.57-1.21,1.65A2.21,2.21,0,0,0,100.09,46.45Z"/><polygon class="cls-3" points="97.82 45.49 98.35 45.17 98.87 45.49 98.34 45.81 97.82 45.49"/><path class="cls-3" d="M107.52,60.91c.74,2-2.23,3.13-1.68,5.37a3.4,3.4,0,0,0,1.1,2,6.86,6.86,0,0,0,1.2-.74,3.53,3.53,0,0,1-.67-.55c-1.39-1.47,0-3.32.23-4s.88-2.58-1.34-3.46A2.28,2.28,0,0,1,107.52,60.91Zm-2.39,4.78a2.91,2.91,0,0,0-.31,2.11,1,1,0,0,0,1.1.73c-.1-.12-.2-.19-.31-.34A2.58,2.58,0,0,1,105.13,65.69Zm-4.68-10.55a6,6,0,0,0,.15,1.4,1.26,1.26,0,0,0,1.58-.59,2.66,2.66,0,0,1-1.68-.73S100.47,55.17,100.45,55.14Zm.32-3.83c-2.54,1.21-2.79,3.61-1,4.85a4.26,4.26,0,0,1-.06-.5,8.14,8.14,0,0,1,.41-2.77v0a7.56,7.56,0,0,1,.7-1.66l-.1,0Zm-3.93-5.49a6.14,6.14,0,0,1-1.75.91v0a5,5,0,0,0,1.39-.92,9.63,9.63,0,0,0,.82-1.17l.36-.36.51-.38h0c0-.07-.13-.32-.73-.36a2.64,2.64,0,0,0-1.15.31,7.43,7.43,0,0,1,.72-.58,1.89,1.89,0,0,1,.72-.19.78.78,0,0,0-.76-.4l-.68,0a2.54,2.54,0,0,1,1.39-.41,2.61,2.61,0,0,1,1.07.32,1.48,1.48,0,0,1,.38-.44,1.57,1.57,0,0,1,.43-.16s-.31.62-.22.93l.55.34a1,1,0,0,0,.18-.36,1.37,1.37,0,0,0-.51-.91,1.15,1.15,0,0,1,1.06.84,1.18,1.18,0,0,1-.17.82c.31.08,2.86.71,3.81,2a3.34,3.34,0,0,1,.54,3.64s-.49.9-1.17,2a1.67,1.67,0,0,0-.09,2,3.11,3.11,0,0,0,.57,0,1.27,1.27,0,0,1-.37.22,1.8,1.8,0,0,0,.35.29,2.06,2.06,0,0,1-.63-.21,1.52,1.52,0,0,1-1-.11c-1.24-.52-.49-2.41-.2-3.08a3.18,3.18,0,0,1-.35.26,10.23,10.23,0,0,0-.58,1.83c-.21,1.13,1.34,1.92,1.34,1.92h0a2.14,2.14,0,0,1-1.67-1.1.44.44,0,0,1,0-.21,1.84,1.84,0,0,0,.64,1.85,2.07,2.07,0,0,0,.89.29,4,4,0,0,0,.17-.83,3.22,3.22,0,0,1,0,.86,3.51,3.51,0,0,0,1.91-.57,3.37,3.37,0,0,1-2.11,1.27,1.87,1.87,0,0,1-1.77,1.12,7.43,7.43,0,0,0,.51,1.35,6.83,6.83,0,0,0,2,2.37A12.46,12.46,0,0,1,105,59l-.16.15.29-.22a2.39,2.39,0,0,1,2.6.78c.88,1.32.52,2.65,0,4.3a2.44,2.44,0,0,0,1.35,2.73,1.91,1.91,0,0,0,2.48-.41c-.12.28-1.29,2.69-3.38,1.16a7.73,7.73,0,0,1-1,.93,1.93,1.93,0,0,0,1.75-.06,1.86,1.86,0,0,1-2.58.57c-.84.4-1.77.35-2.23-1.36s1.86-3.71,2.39-4.15a2,2,0,0,0,.11-2.49,2.06,2.06,0,0,0-3-.52,6.49,6.49,0,0,0-1,7.73h0l0,.06-.54.65a5.71,5.71,0,0,0-.93,2.29c-.13,1-.22,2-.22,2l-.61.64h0a20.08,20.08,0,0,1,.84-3.59,5,5,0,0,1,.85-1.48,6.72,6.72,0,0,1-1-2.62,7,7,0,0,1,1.5-4.7A8.3,8.3,0,0,1,99.91,57a3,3,0,0,1-1.84-1.73c-.73-1.9.74-3,1.91-3.68l.84-.49c.77-.55,1.73-1.41,1.63-2.23A2.92,2.92,0,0,0,101.06,47l1-.36s1.59,1.15,1.24,2.43v0l-.07.15c-.24.56-1,2.53-.76,3.19A1.18,1.18,0,0,0,103,53a1.14,1.14,0,0,1-.18-.49,2.51,2.51,0,0,1,.4-1.35l0,0a.63.63,0,0,1,.1-.14c.09-.18.19-.36.32-.59a3.46,3.46,0,0,0,.12-2.82,4.35,4.35,0,0,0-2.48-2.15h1.26a3.8,3.8,0,0,1,2,3,3.73,3.73,0,0,0-.13-1.55c-.78-2.15-4.14-2.9-4.92-3l-.08,0a5.4,5.4,0,0,0-1.34.6C97.76,44.8,97,45.68,96.84,45.82Z"/><path class="cls-3" d="M93,63.42a7.43,7.43,0,0,1-1.25-1.72,4.48,4.48,0,0,1,.27-3.46l0-.11a6.38,6.38,0,0,1,1.27.28l1.11.44.16-.2a2.3,2.3,0,0,1-.23-.4,3.91,3.91,0,0,1-.3-2.88v0h0a1.91,1.91,0,0,1,.89-1A4.29,4.29,0,0,0,95,58a4.82,4.82,0,0,0,1.84,2v1.3h.67v.09a3.37,3.37,0,0,1,.88-1s-1.83,2.78-.29,5.08c1.2,1.8,3.07,1.5,2.53,4.55a22.71,22.71,0,0,1-2.13,4.47l1.91-.68h0V75l-2.14.63v-1h0c0-.09,1-1.76,1.33-2.62a4.12,4.12,0,0,0,.31-3.45c-.56-1.44-2.84-2-3.06-4.22a4.41,4.41,0,0,1,.56-2.81h-.6v0h-.76v-.22l0-1a7.79,7.79,0,0,1-1.38-1.52l-.56.69-.93-.37A4.27,4.27,0,0,0,91.94,59a4.51,4.51,0,0,0,.53,2.39,7.22,7.22,0,0,0,1.19,1.5l-.57.48,0,0Z"/><path class="cls-3" d="M91.88,65c-.75.12-1.6,1.56-1.6,1.56l-1,.18A3.69,3.69,0,0,1,91.84,65c1.63-.31,2.82-.29,2.93-1.38a6.74,6.74,0,0,0,0-1.2l1.29-1.06v.19l-.51.36s0,1.55,0,1.51c.09,1.48-1.19,1.56-1.74,1.58C92,65,93,64.8,91.88,65Z"/><path class="cls-3" d="M89.73,53.72a9.58,9.58,0,0,0,2,1.05,10.09,10.09,0,0,0,2.4.57v0l-1,.62s-1.25-.37-1.52-.47a10.43,10.43,0,0,1-2-1,7,7,0,0,1-.73,1.73,5.12,5.12,0,0,0-.32,2.06l-.82.34a5.45,5.45,0,0,1,.74-2.55,6.29,6.29,0,0,0,.69-1.86l0,0h0C89.17,54.13,89.73,53.72,89.73,53.72Z"/><path class="cls-3" d="M91.19,64.36a5.52,5.52,0,0,0-2,1.18,5.41,5.41,0,0,0-.69.79l-.16.38h1v0l-.07,1-1.72,0,.16-.83s.27-1,2.06-1.93a12.07,12.07,0,0,1,2.22-1,6.8,6.8,0,0,0,1-.52A7.7,7.7,0,0,1,91.19,64.36Z"/><path class="cls-3" d="M92.62,53.44c-.05,0-1.36-.29-1.64-.37s-1.48-.56-1.48-.56l-.51.21.66-.38a11.42,11.42,0,0,0,1.42.51,6.09,6.09,0,0,0,1.68.18,2.42,2.42,0,0,1,1.19-1.24l-.91.12a5.41,5.41,0,0,0-1.74-2.18,5.14,5.14,0,0,0-2.82-1,1,1,0,0,0-.59.53c-.1.16-.38.89-.38.89l-.76,0h0a7.8,7.8,0,0,1,.48-.82,2.07,2.07,0,0,1,1.15-.65h0l1.28-.25a6.41,6.41,0,0,1,3.5,2.09.57.57,0,0,0,.65,0c.12-.1.59-.71.71-.86H93.7l-4.4-2.4h.84l4.39,2.33.23,0,.3-.05,1.8-.39,1-.5L97,47.89l-1.42.83,0,.05h0l-.61-.3.41-.74h-1l0-.79.67-.2,0,0v0l-.06.8h.61l-.34.5.67.33,1.73-1,1,1h0l-.6.31-.91.49-.23.17-2.14.49a4,4,0,0,0-.61.57,3,3,0,0,0-.63,1.17,2.17,2.17,0,0,0,.08.22l.55-.06a.84.84,0,0,1,.19-.08,2.38,2.38,0,0,0-1.12,2.16l-.74.15A2.35,2.35,0,0,1,92.62,53.44Z"/><path class="cls-3" d="M86,59.31a15.21,15.21,0,0,0,1.43-2.94,10.57,10.57,0,0,0,.9-3.39h0l.65-.26-.52.3c0,.08.07.84-.91,3.34-.67,1.72-.94,2.49-1,2.73l1.09-.46a7.86,7.86,0,0,0,0,1.1l-1.67.8,0-1.21Z"/><path class="cls-3" d="M85.23,49.48a18.09,18.09,0,0,0,2.56-1.15c.28-.17,1.34-.92,1.49-1a17.06,17.06,0,0,1-1.53,1.16l-2.13,1.2,1.11.51h0L86.2,51l-2.14-.77,1.14-.74h0Z"/><polygon class="cls-4" points="98.35 45.17 97.82 45.49 98.34 45.81 98.87 45.49 98.35 45.17"/><path class="cls-4" d="M99.38,48.09h0"/><path class="cls-4" d="M99.39,48.08c.15-.08,1.34-.76,1.21-1.65a1.74,1.74,0,0,0-.78-1.28l-.36.28a1.91,1.91,0,0,1,.63,1A2.21,2.21,0,0,1,99.39,48.08Z"/><path class="cls-4" d="M87.63,58.63l-1.09.46c.08-.24.35-1,1-2.73,1-2.5.92-3.26.91-3.34l.52-.3-.65.26h0a10.57,10.57,0,0,1-.9,3.39A15.21,15.21,0,0,1,86,59.31h0l0,1.21,1.67-.8A7.86,7.86,0,0,1,87.63,58.63Z"/><path class="cls-4" d="M96.08,61.31l-1.29,1.06a6.74,6.74,0,0,1,0,1.2c-.11,1.09-1.3,1.07-2.93,1.38a3.69,3.69,0,0,0-2.54,1.78l1-.18s.85-1.44,1.6-1.56c1.14-.19.15,0,2,0,.55,0,1.83-.1,1.74-1.58,0,0,0-1.51,0-1.51l.51-.36"/><path class="cls-4" d="M111.55,66.33s0,0,0,0a1.91,1.91,0,0,1-2.48.41A2.44,2.44,0,0,1,107.7,64c.57-1.65.93-3,0-4.3a2.39,2.39,0,0,0-2.6-.78l-.29.22L105,59"/><path class="cls-4" d="M109,68.38h0a1.93,1.93,0,0,1-1.75.06,7.73,7.73,0,0,0,1-.93c2.09,1.53,3.26-.88,3.38-1.16"/><path class="cls-4" d="M102.7,68.15l0,0a6.49,6.49,0,0,1,1-7.73,2.06,2.06,0,0,1,3,.52,2,2,0,0,1-.11,2.49c-.53.44-2.83,2.51-2.39,4.15s1.39,1.76,2.23,1.36a1.86,1.86,0,0,0,2.58-.57"/><path class="cls-4" d="M93.09,63.38l.57-.48a7.22,7.22,0,0,1-1.19-1.5A4.51,4.51,0,0,1,91.94,59a4.27,4.27,0,0,1,1.29.13l.93.37.56-.69a7.79,7.79,0,0,0,1.38,1.52l0,1v.22h.76v0h.6a4.41,4.41,0,0,0-.56,2.81c.22,2.27,2.5,2.78,3.06,4.22A4.12,4.12,0,0,1,99.63,72c-.38.86-1.29,2.53-1.33,2.62h0v1l2.14-.63V73.87l.61-.64s.09-1.07.22-2a5.71,5.71,0,0,1,.93-2.29l.54-.65,0-.06h0"/><path class="cls-4" d="M93.11,63.37h0"/><path class="cls-4" d="M93,63.42l0,0,0,0"/><path class="cls-4" d="M92.94,63.48a6.8,6.8,0,0,1-1,.52,12.07,12.07,0,0,0-2.22,1c-1.79.93-2.06,1.93-2.06,1.93l-.16.83,1.72,0,.07-1v0h-1l.16-.38a5.41,5.41,0,0,1,.69-.79,5.52,5.52,0,0,1,2-1.18,7.7,7.7,0,0,0,1.75-.88"/><path class="cls-4" d="M92.94,63.48l.09-.06"/><path class="cls-4" d="M95,54.29h0a1.91,1.91,0,0,0-.89,1h0a10.09,10.09,0,0,1-2.4-.57,9.58,9.58,0,0,1-2-1.05s-.56.41-.66.46h0l0,0a6.29,6.29,0,0,1-.69,1.86,5.45,5.45,0,0,0-.74,2.55l.82-.34a5.12,5.12,0,0,1,.32-2.06,7,7,0,0,0,.73-1.73,10.43,10.43,0,0,0,2,1c.27.1,1.52.47,1.52.47l1-.62a3.91,3.91,0,0,0,.3,2.88,2.3,2.3,0,0,0,.23.4l-.16.2-1.11-.44a6.38,6.38,0,0,0-1.27-.28l0,.11a4.48,4.48,0,0,0-.27,3.46A7.43,7.43,0,0,0,93,63.42"/><path class="cls-4" d="M103.13,51.25l0,0,0,0a2.51,2.51,0,0,0-.4,1.35A1.14,1.14,0,0,0,103,53a1.18,1.18,0,0,1-.55-.59c-.27-.66.52-2.63.76-3.19l.07-.15v0c.35-1.28-1.24-2.43-1.24-2.43l-1,.36a2.92,2.92,0,0,1,1.39,1.82c.1.82-.86,1.68-1.63,2.23l-.84.49c-1.17.67-2.64,1.78-1.91,3.68A3,3,0,0,0,99.91,57a8.3,8.3,0,0,0,2.73,4.5,7,7,0,0,0-1.5,4.7,6.72,6.72,0,0,0,1,2.62,5,5,0,0,0-.85,1.48,20.08,20.08,0,0,0-.84,3.59l-1.91.68a22.71,22.71,0,0,0,2.13-4.47c.54-3-1.33-2.75-2.53-4.55-1.54-2.3.29-5.08.29-5.08a3.37,3.37,0,0,0-.88,1v-.09h-.67V60A4.82,4.82,0,0,1,95,58a4.29,4.29,0,0,1,0-3.67"/><path class="cls-4" d="M94.43,51.58h0a.84.84,0,0,0-.19.08l-.55.06a2.17,2.17,0,0,1-.08-.22,3,3,0,0,1,.63-1.17,4,4,0,0,1,.61-.57L97,49.28l.23-.17.91-.49.6-.31h0l-1-1-1.73,1L95.3,48l.34-.5H95l.06-.8a6.14,6.14,0,0,0,1.75-.91c.14-.14.92-1,1.17-1.27a5.4,5.4,0,0,1,1.34-.6l.08,0c.78.15,4.14.9,4.92,3a3.73,3.73,0,0,1,.13,1.55,3.8,3.8,0,0,0-2-3h-1.26a4.35,4.35,0,0,1,2.48,2.15,3.46,3.46,0,0,1-.12,2.82c-.13.23-.23.41-.32.59a.63.63,0,0,0-.1.14"/><path class="cls-4" d="M89.28,47.3c-.15.11-1.21.86-1.49,1a18.09,18.09,0,0,1-2.56,1.15h0l-1.14.74L86.2,51l.54-.83.76,0s.28-.73.38-.89a1,1,0,0,1,.59-.53,5.14,5.14,0,0,1,2.82,1A5.41,5.41,0,0,1,93,51.91l.91-.12A2.42,2.42,0,0,0,92.75,53a6.09,6.09,0,0,1-1.68-.18,11.42,11.42,0,0,1-1.42-.51l-.66.38.51-.21s1.2.47,1.48.56,1.59.37,1.64.37a2.35,2.35,0,0,0-.06.46l.74-.15a2.38,2.38,0,0,1,1.12-2.16"/><path class="cls-4" d="M93.19,50.55h0a6.41,6.41,0,0,0-3.5-2.09l-1.28.25h0a2.07,2.07,0,0,0-1.15.65,7.8,7.8,0,0,0-.48.82l-1.11-.51,2.13-1.2a17.06,17.06,0,0,0,1.53-1.16"/><path class="cls-4" d="M89.3,47.29l4.4,2.4h.85c-.12.15-.59.76-.71.86a.57.57,0,0,1-.65,0"/><path class="cls-4" d="M89.3,47.29h0"/><path class="cls-4" d="M98.75,42.6h0a2.61,2.61,0,0,0-1.07-.32,2.54,2.54,0,0,0-1.39.41l.68,0a.78.78,0,0,1,.76.4,1.89,1.89,0,0,0-.72.19,7.43,7.43,0,0,0-.72.58,2.64,2.64,0,0,1,1.15-.31c.6,0,.71.29.73.36h0l-.51.38-.36.36a9.63,9.63,0,0,1-.82,1.17,5,5,0,0,1-1.39.92l0,0-.67.2,0,.79h1l-.41.74.61.3h0l0-.05L97,47.89l.81.77-1,.5-1.8.39-.3.05-.23,0-4.39-2.33H89.3"/><path class="cls-4" d="M101,53a.41.41,0,0,0,0,.11.44.44,0,0,0,0,.21,2.14,2.14,0,0,0,1.67,1.1h0s-1.55-.79-1.34-1.92a10.23,10.23,0,0,1,.58-1.83,3.18,3.18,0,0,0,.35-.26c-.29.67-1,2.56.2,3.08a1.52,1.52,0,0,0,1,.11,2.06,2.06,0,0,0,.63.21,1.8,1.8,0,0,1-.35-.29,1.27,1.27,0,0,0,.37-.22,3.11,3.11,0,0,1-.57,0,1.67,1.67,0,0,1,.09-2c.68-1.07,1.17-2,1.17-2a3.34,3.34,0,0,0-.54-3.64c-1-1.25-3.5-1.88-3.81-2a1.18,1.18,0,0,0,.17-.82A1.15,1.15,0,0,0,99.55,42a1.57,1.57,0,0,0-.43.16,1.48,1.48,0,0,0-.38.44"/><path class="cls-4" d="M104.59,54.65h0a3.51,3.51,0,0,1-1.91.57,3.22,3.22,0,0,0,0-.86,4,4,0,0,1-.17.83,2.07,2.07,0,0,1-.89-.29,1.84,1.84,0,0,1-.64-1.85"/><path class="cls-4" d="M105.11,59,105,59a12.46,12.46,0,0,0-1.85,1.74,6.83,6.83,0,0,1-2-2.37,7.43,7.43,0,0,1-.51-1.35,1.87,1.87,0,0,0,1.77-1.12,3.37,3.37,0,0,0,2.11-1.27"/><path class="cls-4" d="M99.88,43.26l-.55-.34c-.09-.31.22-.92.22-.93a1.37,1.37,0,0,1,.51.91A1,1,0,0,1,99.88,43.26Z"/><path class="cls-4" d="M100.16,52.89a8.14,8.14,0,0,0-.41,2.77,4.26,4.26,0,0,0,.06.5c-1.83-1.24-1.58-3.64,1-4.85h0l.1,0a7.56,7.56,0,0,0-.7,1.66Z"/><path class="cls-4" d="M100.45,55.14s0,.06,0,.08a2.66,2.66,0,0,0,1.68.73,1.26,1.26,0,0,1-1.58.59A6,6,0,0,1,100.45,55.14Z"/><path class="cls-4" d="M104.57,59.47h0"/><path class="cls-4" d="M105.15,65.64l0,0"/><path class="cls-4" d="M104.82,67.8a2.91,2.91,0,0,1,.31-2.11,2.58,2.58,0,0,0,.48,2.5c.11.15.21.22.31.34A1,1,0,0,1,104.82,67.8Z"/><path class="cls-4" d="M106.94,68.26a3.4,3.4,0,0,1-1.1-2c-.55-2.24,2.42-3.42,1.68-5.37a2.28,2.28,0,0,0-1.16-1.36c2.22.88,1.52,2.86,1.34,3.46s-1.62,2.49-.23,4a3.53,3.53,0,0,0,.67.55A6.86,6.86,0,0,1,106.94,68.26Z"/><path class="cls-5" d="M107.1,73.52a1.49,1.49,0,0,1-.45.11v0h0c.32,0,.53.24.61.73,0,.12.08.19.13.19a.09.09,0,0,0,.09-.06,1.36,1.36,0,0,0,0-.2h.19a.85.85,0,0,1-.16.45.46.46,0,0,1-.4.19.43.43,0,0,1-.36-.15.67.67,0,0,1-.12-.25c0-.09,0-.15,0-.2a1.22,1.22,0,0,1,0-.14.54.54,0,0,0-.29-.42,1.27,1.27,0,0,0-.43,0v.46a.81.81,0,0,0,.05.36c0,.05.13.08.3.08v.24H105v-.24c.17,0,.27,0,.3-.12a2.61,2.61,0,0,0,0-.69v-.43c0-.18,0-.32,0-.43a.41.41,0,0,0-.06-.26s-.13-.08-.28-.08v-.25h1.56a1.73,1.73,0,0,1,.48.1.55.55,0,0,1,.38.53.54.54,0,0,1-.36.49Zm-2.22,1.58a2,2,0,0,0,1.42.58,2,2,0,0,0,1.41-.57,2,2,0,0,0-1.41-3.47,2,2,0,0,0-1.42,3.46Zm3-3.15a2.36,2.36,0,1,1-3.28,0,2.32,2.32,0,0,1,1.66-.68,2.28,2.28,0,0,1,1.62.65Zm-1.34,1.49a.38.38,0,0,0,.27-.4.34.34,0,0,0-.23-.34.85.85,0,0,0-.35-.07c-.15,0-.24,0-.27.12a3.4,3.4,0,0,0,0,.74,2.21,2.21,0,0,0,.63-.06Z"/><polygon class="cls-5" points="4.81 76.14 15.47 76.14 15.47 65.91 18.43 62.66 26.96 76.14 40.24 76.14 25.65 55.05 38.21 41.52 25.07 41.52 15.57 53.45 15.47 53.45 15.47 41.52 4.81 41.52 4.81 76.14"/><polygon class="cls-5" points="41.68 76.14 51.77 76.14 51.77 53.93 51.87 53.93 57.88 76.14 65.83 76.14 71.84 53.93 71.94 53.93 71.94 76.14 82.02 76.14 82.02 41.52 66.85 41.52 61.9 61.88 61.8 61.88 56.86 41.52 41.68 41.52 41.68 76.14"/></svg>