<svg version="1.1"
  xmlns="http://www.w3.org/2000/svg" role="img" viewBox="0 0 422 56">
    <title id="csunLogo">Calgary Sun</title>
    <path d="m0 29.04v-1.04c0-17.04 8.89-26.67 21.04-26.67 5.92 0 9.48 1.63 12.74 4.3-0.34 0.93-3.07 8.4-3.41 9.33-2.81-2.22-5.63-3.7-8.89-3.7-6.22 0-10.81 5.33-10.81 16.74v1.19c0 11.85 4.44 16.88 10.81 16.88 3.56 0 6.22-1.33 9.19-3.7 0.32 0.83 2.93 7.47 3.26 8.3-3.56 3.26-7.41 5.03-13.49 5.03-11.7 0-20.44-9.48-20.44-26.66z"></path>
    <path d="m66.52 55.11l-3.11-11.11h-14.67l-3.11 11.11h-10.37l15.85-53.33h10.22l15.71 53.33h-10.52zm-5.78-20.3l-4.74-17.33-4.74 17.33h9.48z"></path>
    <path d="m80.44 2.07h10.37v43.41h17.34v9.63h-27.71v-53.04z"></path>
    <path d="m107.56 29.04v-1.04c0-16.15 9.33-26.67 22.22-26.67 5.78 0 9.63 1.48 13.33 4.15-0.34 0.93-3.07 8.4-3.41 9.33-3.11-2.37-5.77-3.7-9.92-3.7-6.82 0-11.56 6.22-11.56 16.74v1.48c0 12 5.19 17.04 11.56 17.04 2.07 0 3.85-0.44 5.48-1.48v-10.96h-7.85v-9.04h17.48v25.92c-4.3 2.82-9.19 4.89-15.56 4.89-12.44 0-21.77-9.33-21.77-26.66z"></path>
    <path d="m178.67 55.11l-3.11-11.11h-14.67l-3.11 11.11h-10.37l15.85-53.33h10.22l15.71 53.33h-10.52zm-5.93-20.3l-4.59-17.33-4.89 17.33h9.48z"></path>
    <path d="m210.19 2.12l0.77 0.05 0.77 0.07 0.74 0.1 0.74 0.12 0.71 0.13 0.71 0.16 0.68 0.18 0.67 0.2 0.65 0.23 0.64 0.24 0.61 0.27 0.6 0.29 0.58 0.3 0.57 0.34 0.54 0.35 0.53 0.37 0.5 0.4 0.49 0.41 0.46 0.44 0.44 0.46 0.43 0.48 0.4 0.51 0.38 0.52 0.36 0.55 0.33 0.57 0.32 0.59 0.29 0.61 0.26 0.64 0.25 0.66 0.22 0.67 0.19 0.71 0.17 0.72 0.14 0.74 0.12 0.77 0.1 0.79 0.06 0.81 0.04 0.83 0.02 0.86v0.44l-0.01 0.58-0.02 0.56-0.03 0.55-0.05 0.54-0.06 0.53-0.07 0.51-0.09 0.51-0.1 0.5-0.11 0.48-0.12 0.48-0.13 0.47-0.15 0.45-0.15 0.45-0.17 0.43-0.17 0.43-0.19 0.41-0.2 0.41-0.2 0.39-0.22 0.39-0.23 0.38-0.23 0.37-0.25 0.35-0.25 0.35-0.26 0.34-0.27 0.33-0.28 0.32-0.28 0.32-0.29 0.3-0.3 0.3-0.31 0.28-0.31 0.28-0.32 0.27-0.33 0.26-0.33 0.25-0.34 0.25-0.35 0.23-0.35 0.23-0.35 0.22-0.36 0.21-0.37 0.2 9.78 20.45h-11.55v-0.15l-8.45-17.78h-5.04v17.78h-10.37v-53.04h16.15l0.81 0.01 0.79 0.04zm-7.38 25.88h5.63l1.38-0.08 1.26-0.24 1.15-0.4 1.03-0.56 0.89-0.72 0.75-0.88 0.6-1.04 0.43-1.2 0.27-1.36 0.1-1.52v-0.44h-0.15l-0.1-1.67-0.29-1.44-0.47-1.24-0.64-1.03-0.78-0.85-0.92-0.67-1.05-0.5-1.16-0.34-1.25-0.2-1.34-0.06h-5.34v16.44z"></path>
    <path d="m251.26 55.26h-10.37v-21.04l-14.67-32.15h11.41l8.44 20.6 8.6-20.6h11.11l-14.52 32.15v21.04z"></path>
    <path d="m306.52 17.93h-1.04c-0.09-0.54-0.14-0.83-0.15-0.89-0.14-0.89-0.29-1.93-0.89-2.67-0.59-0.74-1.18-1.33-3.11-1.33-1.03 0-2.07 0.29-2.66 0.89-0.74 0.59-1.04 1.18-1.04 1.92 0.15 1.34 0 1.48 1.48 2.52 1.48 0.89 4.45 2.22 9.48 4.3 5.34 2.22 8.89 4.44 10.97 7.11 2.22 2.66 2.96 5.63 2.96 8.74 0 4-1.33 8.29-4.59 11.55s-8.6 5.34-16.3 5.34c-8.3 0-13.78-2.52-17.04-6.08-3.26-3.55-4.44-7.85-4.44-11.4v-2.82h16.59v1.19c0 2.66 0.89 4 1.78 4.89 0.89 0.74 2.22 1.03 2.81 1.03 2.82 0 4.3-2.07 4.3-3.7 0-1.48-0.3-1.78-1.78-2.82-1.48-0.89-4.29-1.92-8.59-3.7-1.93-0.74-5.63-2.07-8.74-4.44s-5.93-6.08-5.93-11.26c0-5.19 2.82-9.49 6.82-12.15 4-2.67 9.18-4.15 14.07-4.15 5.78 0 12.15 1.93 16.15 6.22 3.56 4 3.85 7.85 4 10.82v1.18h-15.11"></path>
    <path d="m340.59 2.07h1.19v31.26c0 1.63 0.15 3.86 0.89 5.48 0.89 1.63 2.07 2.82 5.18 2.82 3.26 0 4.3-1.04 5.04-2.67 0.74-1.48 0.74-3.85 0.74-5.77v-31.12h16.3v31.26c0 8.6-2.23 12.74-5.93 16.15-3.7 3.56-9.04 5.78-16.15 5.78-4.15 0-11.7-0.89-16.59-5.63-4.74-4.59-5.93-8.74-5.78-16.15v-31.41h15.11"></path>
    <path d="m388.74 26.22l0.3 28h-15.71v-51.11-1.04h13.93l19.55 28.89-0.59-28.89h15.71v52.15h-13.93l-19.26-28z"></path>
</svg>