<?xml version="1.0" encoding="UTF-8"?>
<svg  version="1.1" xmlns="http://www.w3.org/2000/svg" role="img" viewBox="4 4 378 50">
  <title id="chLogo">Calgary Herald</title>
  <path d="m34.77 48.81c-2.69 2.05-7.69 3.81-12.12 3.81-10.95 0-17.37-8.13-17.37-23.86 0-16.14 8.36-24 17.62-24 4.28 0 8.53 1.52 11.31 3.44l0.48 12.62h-1.24l-1.44-3.55c-2.59-6.36-5.37-10.69-9.55-10.69-5.37 0-9.45 7.27-9.45 20.94 0 15.24 4.03 23.35 9.95 23.35 4.18 0 6.57-3.67 9.6-10.78l1.44-3.41h1.24l-0.47 12.13z"></path>
  <path d="m116.37 38.5c-1.91 0.58-2.22 2.05-2.22 5.47v0.52c0 3.21 0 3.68 1.72 4.58v1.05c-2.41 1.37-7.16 2.37-11.37 2.37-7.96 0-14.12-6.26-14.12-18.35 0-12.41 7.54-18.46 14.66-18.46 3.29 0 6.69 1.31 8.83 2.78l0.24 9.47h-0.96l-1.11-2.63c-2.03-4.78-4.06-7.73-7.35-7.73-4.21 0-7.27 5.26-7.27 15.62 0 11.73 3.1 17.4 7.65 17.4 3.29 0 4.09-2.05 4.09-4.41v-0.89c0-5.05-0.42-6.1-2.56-6.73l-1.26-0.36v-1.05c0.77 0 4.94 0.1 6.31 0.1 1.38 0 4.94-0.1 5.78-0.1v1.05l-1.06 0.3z"></path>
  <path d="m200.07 17.16c-2.6 0.84-3.48 2.63-5.28 6.94l-5.4 12.94v4.05c0 8.05 0.27 8.73 2.87 9.47l1.26 0.37v1.05c-0.73 0-5.89-0.11-7.27-0.11s-6.55 0.11-7.27 0.11v-1.05l1.27-0.37c2.6-0.74 2.87-1.42 2.87-9.47v-3.36l-7.08-15.78c-1.3-2.79-2.34-4.1-4.17-4.73l-0.76-0.26v-1.06c0.72 0 5.13 0.1 6.5 0.1 1.34 0 7.23-0.1 7.93-0.1v1.05l-0.8 0.21c-1.65 0.42-2.07 1.26-2.07 2.15 0 0.79 0.23 1.47 0.85 3l4.97 12.2 4.25-11.15c0.61-1.63 0.88-2.63 0.88-3.84 0-1.1-0.69-1.95-1.95-2.31l-0.92-0.26v-1.05c0.72 0 4.02 0.1 5.44 0.1 1.38 0 3.83-0.1 4.55-0.1v1.05l-0.67 0.21z"></path>
  <path d="m170.61 52.18h-0.03-0.12 0.15zm4.09-1.31c-1.57-0.27-2.92-0.97-4.86-4.77l-6.05-11.74c3.44-1.68 5.97-4.94 5.97-9.36 0-6.15-4.13-9.04-10.1-9.04-1.69 0-4.36 0.05-5.74 0.05s-6.09-0.1-6.85-0.1v1.05l1.26 0.37c1.91 0.58 2.22 2.05 2.22 9.41v14.41c0 7.28-0.3 8.8-2.16 9.39-0.84 0.26-1.45 0.16-1.74 0.07-1.62-0.67-2.47-2.47-3.3-5.52l-6.28-22.76h0.01l-1.77-6.42h-6.14l0.85 3.06-7.1 24.44c-1.3 4.47-2.68 6.73-4.48 7.36l-0.46 0.16v1.05c0.76 0 3.48-0.1 4.86-0.1s3.83 0.1 4.52 0.1v-1.05l-0.88-0.21c-1.8-0.43-2.18-1.58-2.18-2.9 0-1.31 0.38-3.05 0.84-4.73l1.03-4.03 9.03 0.02 1.47 5.59c0.38 1.47 0.57 2.63 0.57 3.36 0 1.47-0.53 2.26-2.37 2.69l-0.96 0.21v1.05c0.69 0 5.78-0.1 7.16-0.1 1.02 0 3.82 0.06 5.6 0.09h1.29c1.82-0.03 4.69-0.09 5.75-0.09 1.38 0 6.24 0.1 6.97 0.1v-1.05l-1.26-0.37c-2.33-0.68-2.56-1.47-2.56-9.46v-5.42c0.23 0.05 0.5 0.1 0.76 0.1l5.81 11.57c1.56 3.2 4.01 4.82 7.18 4.83 1.6 0 3.04-0.11 4.12-0.31v-1zm-48.01-13.73l4.02-15.35 3.98 15.35h-8zm31.36-2.84c-0.54 0-0.96-0.05-1.22-0.1v-16.36c0.53-0.11 1.34-0.21 2.22-0.21 3.02 0 4.32 3.1 4.32 7.99 0 6.42-2.41 8.68-5.32 8.68z"></path>
  <path d="m88.31 41.88l-1.42 2.95c-1.88 3.89-3.25 5.21-5.9 5.21h-0.34c-3.33 0-3.9-1-3.9-6.47v-16.79c0-8.04 0.27-8.73 2.87-9.47l1.26-0.37v-1.04c-0.73 0-5.89 0.1-7.27 0.1s-5.86-0.1-6.62-0.1v1.05l1.26 0.37c1.92 0.58 2.22 2.05 2.22 9.41v14.41c0 6.73-0.26 8.54-1.77 9.24-1.6 0.6-2.75 0.36-3.17 0.22-1.62-0.67-2.46-2.47-3.3-5.52l-8.05-29.18h-6.15l0.86 3.09-7.1 24.41c-1.3 4.47-2.68 6.73-4.48 7.36l-0.46 0.16v1.05c0.76 0 3.48-0.1 4.86-0.1s3.83 0.1 4.52 0.1v-1.05l-0.88-0.21c-1.8-0.43-2.18-1.58-2.18-2.9 0-1.31 0.38-3.05 0.84-4.73l1.03-4.03 9.03 0.02 1.47 5.59c0.38 1.47 0.57 2.63 0.57 3.36 0 1.47-0.53 2.26-2.37 2.69l-0.96 0.21v1.05c0.69 0 5.78-0.1 7.16-0.1 1.28 0 6.9 0.1 6.9 0.1 1.44-0.01 6.26-0.1 7.58-0.1 1.38 0 6.92 0.05 9.11 0.05h4.17l1.53-10.04h-0.92zm-42.72-4.74l4.02-15.35 3.98 15.35h-8z"></path>
  <path d="m240.14 52.4c-1.79 0-8.11 0.13-9.06 0.13v-1.35l1.64-0.47c3.04-0.88 3.34-1.89 3.34-12.13v-8.47h-13.74v8.47c0 10.24 0.3 11.26 3.33 12.13l1.64 0.47v1.35c-0.94 0-7.26-0.13-9.05-0.13s-6.97 0.13-7.96 0.13v-1.35l1.64-0.47c2.49-0.74 3.43-2.63 3.43-12.06v-18.46c0-9.44-0.94-11.32-3.43-12.06l-1.64-0.47v-1.35c0.99 0 6.17 0.14 7.96 0.14s8.11-0.14 9.05-0.14v1.35l-1.64 0.47c-3.03 0.88-3.33 1.89-3.33 12.13v7.78h13.74v-7.78c0-10.24-0.3-11.25-3.34-12.13l-1.64-0.47v-1.35c0.94 0 7.26 0.14 9.06 0.14 1.79 0 6.93-0.14 7.92-0.14v1.35l-1.64 0.47c-2.49 0.74-3.42 2.63-3.42 12.06v18.46c0 9.43 0.93 11.32 3.42 12.06l1.64 0.47v1.35c-0.99 0.01-6.13-0.13-7.92-0.13"></path>
  <path d="m272.3 52.47h-3.98c-2.14 0-9.46-0.05-10.83-0.05-1.34 0-5.97 0.1-6.73 0.1v-1.05l1.26-0.37c1.91-0.58 2.22-2.05 2.22-9.41v-14.41c0-7.37-0.31-8.84-2.22-9.42l-1.26-0.37v-1.05c0.77 0 5.78 0.1 7.12 0.1 1.38 0 9.84-0.05 10.53-0.05h3.06l1.18 8.89h-0.84l-1.34-2.42c-1.68-3.05-3.33-4.47-6.51-4.47h-0.34c-1.11 0-2.14 0.15-3.1 0.37v13.88l2.03-0.1c4.4-0.21 5.02-1.42 5.28-4.63l0.04-0.47h0.92c0 1.16-0.08 4.36-0.08 6.26 0 1.95 0.08 5.47 0.08 6.57h-0.92l-0.04-0.47c-0.27-3.21-0.73-4.58-5.28-4.84l-2.03-0.1v9.15c0 5.47 0.58 6.47 3.9 6.47h0.5c2.99 0 4.52-1.16 6.7-5.05l1.07-1.89h0.84l-1.23 8.83z"></path>
  <path d="m364.48 18.38c-0.65 0-1.38 0.05-1.8 0.1v25.92c0 4.79 0.92 6.42 4.02 6.42 4.44 0 7.31-5.16 7.31-15.78 0-10.88-2.94-16.66-9.53-16.66m1.88 34.23c-3.63 0-5.05-0.16-6.81-0.16-1.38 0-5.89 0.1-6.62 0.1v-1.05l1.26-0.37c1.92-0.58 2.22-2.05 2.22-9.41v-14.4c0-7.36-0.3-8.84-2.22-9.41l-1.26-0.37v-1.05c0.73 0 3.75 0.1 5.13 0.1 1.5 0 5.36-0.1 7.08-0.1 9.6 0 15.92 6.73 15.92 18.14-0.01 11.57-6.2 17.98-14.7 17.98"></path>
  <path d="m350.94 42.41l-1.42 2.95c-1.88 3.89-3.25 5.21-5.9 5.21h-0.34c-3.33 0-3.9-1-3.9-6.47v-16.78c0-8.04 0.27-8.73 2.87-9.47l1.26-0.37v-1.05c-0.73 0-5.89 0.1-7.27 0.1s-5.86-0.1-6.62-0.1v1.05l1.26 0.37c1.92 0.58 2.22 2.05 2.22 9.41v14.41c0 6.73-0.26 8.54-1.77 9.24-1.6 0.6-2.75 0.36-3.17 0.22-1.62-0.67-2.46-2.47-3.3-5.52l-8.05-29.18h-6.15l0.85 3.08-7.09 24.42c-0.88 3.02-1.8 5.01-2.85 6.19-0.16 0.15-0.35 0.26-0.49 0.28v2.03c3.2-0.01 7.09 0.02 7.79 0.05v-1.03l-0.88-0.21c-1.8-0.43-2.18-1.58-2.18-2.9 0-1.31 0.38-3.05 0.84-4.73l1.03-4.03 9.03 0.02 1.47 5.59c0.38 1.47 0.57 2.63 0.57 3.36 0 1.47-0.53 2.26-2.37 2.69l-0.96 0.21v1.05c0.69 0 5.78-0.1 7.16-0.1 1.28 0 6.9 0.1 6.9 0.1 1.44-0.01 6.26-0.1 7.58-0.1 1.38 0 6.92 0.05 9.11 0.05h4.17l1.53-10.04h-0.93zm-42.72-4.76l4.02-15.35 3.98 15.35h-8z"></path>
  <path d="m302.19 50.37c-0.61-0.56-1.26-1.39-1.98-2.66-0.17-0.32-0.35-0.67-0.55-1.06l-4.93-9.53-1.1-2.14c3.44-1.68 6.04-5.01 6.04-9.43 0-1.93-0.41-3.54-1.15-4.83-1.62-2.86-4.86-4.22-8.97-4.22-1.69 0-4.37 0.05-5.74 0.05-1.38 0-6.09-0.1-6.85-0.1v1.05l1.26 0.37c1.91 0.58 2.22 2.05 2.22 9.42v14.4c0 7.36-0.31 8.84-2.22 9.41l-1.26 0.37v1.05c0.77 0 5.25-0.11 6.62-0.11 0.2 0 0.47 0 0.79 0.01v0.01c1.9 0.02 5.56 0.1 6.18 0.1v-1.05h-0.01v-0.01l-1.26-0.37c-0.73-0.21-1.25-0.44-1.62-0.88-0.82-0.99-0.93-3.09-0.93-8.57v-5.42c0.23 0.05 0.49 0.1 0.76 0.1 0 0 5.83 11.66 5.93 11.77 1.21 2.36 2.92 3.85 5.06 4.4 0.74-0.03 2.14-0.04 3.71-0.05v-2.08zm-14.24-15.56c-0.52 0-0.94-0.05-1.21-0.1v-16.35c0.53-0.11 1.34-0.21 2.22-0.21 1.13 0 2.02 0.44 2.7 1.24 0.07 0.09 0.14 0.18 0.21 0.28 0.03 0.05 0.07 0.09 0.1 0.14 0.9 1.39 1.31 3.57 1.31 6.32-0.01 6.41-2.42 8.68-5.33 8.68z"></path>
</svg>
