<svg version="1.1" xmlns="http://www.w3.org/2000/svg" role="img" viewBox="2 2 454 55">
    <title id="ejLogo">Edmonton Journal</title>
    <path d="m159.6 40.8c-0.5-0.4-0.8-0.9-1.1-1.4l-0.2-0.3v-20.6c0-0.2 0.1-4.3 4-4.3h0.1v-0.9h-10.4v0.9h0.1c0.1 0 4.5 0.6 4.5 4.4v18.4l-0.1-0.1c-3.9-5.4-16.7-23.6-16.7-23.6h-9v0.9h0.1c0.1 0 4.6 0.7 4.5 5.1v19.9s0 3.1-1.7 4.8c-0.8 0.8-1.9 1.2-3 1.2h-0.1v1h10.8v-1h-0.1c-4.5-0.1-4.5-4.6-4.5-4.8v-21.6l19.6 27.4c0.2 0.3 0.4 0.4 0.7 0.5 0.3 0 0.5-0.2 0.6-0.4 0.3-1.2 0.9-2.4 1.6-3.4 0.6-0.7 0.6-0.9 0.6-1 0.2-0.4 0-0.8-0.3-1.1"></path>
    <path d="m242 13.3v0.9h0.1s4.5 0.6 4.5 4.4v18.4l-0.1-0.1c-3.9-5.4-16.7-23.6-16.7-23.6h-9v0.9h0.1s4.6 0.7 4.5 5.1v19.9s0 3.1-1.7 4.8c-0.8 0.8-1.9 1.2-3 1.2h-0.1v1h10.7v-1h-0.1c-4.5-0.1-4.5-4.6-4.5-4.8v-21.6l19.7 27.4c0.1 0.1 0.4 0.5 0.7 0.5s0.5-0.2 0.6-0.4c0.3-1.2 0.8-2.3 1.5-3.4 0.6-0.7 0.6-0.9 0.6-1 0-0.4-0.1-0.9-0.5-1.1-0.5-0.4-0.8-0.9-1.1-1.4l-0.2-0.3v-20.6c0-0.2 0.1-4.3 4.1-4.3h0.1v-0.9h-10.2z"></path>
    <path d="m45.6 41.2l0.1-25.8c0-0.2 0-0.4 0.2-0.6s0.5-0.3 0.8-0.3h3.6c0.1 0 10.2 1 10.2 15.3s-10.1 15.3-10.2 15.3h-1.5c-2.7 0-3.2-3.9-3.2-3.9m20.5-12c0-15.2-13.6-15.8-13.8-15.8h-16v0.9h0.2c0.6 0 3.9 0.2 3.9 4.3v22.4c0 4.1-3.2 4.3-3.9 4.3h-0.2v1h16c0.1 0 13.8-0.6 13.8-15.8v-1.3z"></path>
    <path d="m100 44.4c-1.4-1.5-1.4-4.4-1.4-4.4v-21.4c0-1.2 0.4-2.3 1.1-3.2 0.8-0.7 1.8-1.1 2.8-1.1h0.2v-0.9h-8.9l-9 23.9-9.1-23.8v-0.1h-9.2v0.9h0.1c0.2 0 3.6 0.4 3.6 3.6v20.6s0.2 3.7-1.6 5.6c-0.8 0.8-1.9 1.3-3 1.2h-0.1v1h11v-1h-0.8c-1.1 0.1-2.1-0.4-2.8-1.1-0.9-1.2-1.4-2.7-1.3-4.2v-22l10.7 27.9c0.1 0.2 0.3 0.4 0.6 0.4h0.1c0.3 0 0.6-0.2 0.7-0.4 0.5-1.3 1.3-2.4 2.4-3.3 0.5-0.3 0.6-1 0.3-1.5l-0.3-0.6-0.1-0.2c-0.2-0.4-0.2-0.5-0.5-1.2l8.4-21.8v22.7s-0.1 5.3-4.6 5.3h-0.8v1h14.5v-1h-0.8c-0.8 0-1.6-0.3-2.2-0.9"></path>
    <path d="m117 45.6c-0.3 0-8.5-0.2-8.7-15.9 0.1-15.8 8.3-15.9 8.7-15.9s8.5 0.2 8.7 15.9c-0.1 15.7-8.3 16-8.7 15.9v0.2-0.2zm0.1-33c-7.9 0-14.4 7.7-14.4 17.1s6.4 17.1 14.4 17.1 14.4-7.7 14.4-17.1-6.4-17.1-14.4-17.1"></path>
    <path d="m207 45.6c-0.3 0-8.5-0.2-8.6-15.9 0.1-15.8 8.3-15.9 8.7-15.9s8.5 0.2 8.6 15.9c-0.1 15.7-8.3 16-8.7 15.9v0.2-0.2zm0.1-33c-7.9 0-14.4 7.7-14.4 17.1s6.4 17.1 14.4 17.1 14.4-7.7 14.4-17.1-6.4-17.1-14.4-17.1"></path>
    <path d="m190.3 12.5c-1 0.7-2.3 1.2-3.5 1.3h-18.6c-1.3-0.1-2.5-0.5-3.5-1.3l-0.2-0.1-1.5 10.7 0.7 0.2v-0.1c0.9-2 1.9-3.9 3.1-5.8 1.1-1.6 2.9-2.5 4.9-2.5h3.4v26c0 0.2-0.2 4.3-4.2 4.3h-0.1v0.9h13.8v-0.9h-0.1c-1.1 0.1-2.2-0.3-3.1-1.1-0.8-0.9-1.2-2-1.2-3.2v-25.9h3.5c1.9 0 3.7 0.9 4.8 2.5 1.2 1.8 2.2 3.8 3.1 5.8l0.1 0.1 0.7-0.2-1.6-10.7h-0.5z"></path>
    <path d="m159.6 40.8c-0.5-0.4-0.8-0.9-1.1-1.4l-0.2-0.3v-20.6c0-0.2 0.1-4.3 4-4.3h0.1v-0.9h-10.4v0.9h0.1c0.1 0 4.5 0.6 4.5 4.4v18.4l-0.1-0.1c-3.9-5.4-16.7-23.6-16.7-23.6h-9v0.9h0.1c0.1 0 4.6 0.7 4.5 5.1v19.9s0 3.1-1.7 4.8c-0.8 0.8-1.9 1.2-3 1.2h-0.1v1h10.8v-1h-0.1c-4.5-0.1-4.5-4.6-4.5-4.8v-21.6l19.6 27.4c0.2 0.3 0.4 0.4 0.7 0.5 0.3 0 0.5-0.2 0.6-0.4 0.3-1.2 0.9-2.4 1.6-3.4 0.6-0.7 0.6-0.9 0.6-1 0.2-0.4 0-0.8-0.3-1.1"></path>
    <path d="m242 13.3v0.9h0.1s4.5 0.6 4.5 4.4v18.4l-0.1-0.1c-3.9-5.4-16.7-23.6-16.7-23.6h-9v0.9h0.1s4.6 0.7 4.5 5.1v19.9s0 3.1-1.7 4.8c-0.8 0.8-1.9 1.2-3 1.2h-0.1v1h10.7v-1h-0.1c-4.5-0.1-4.5-4.6-4.5-4.8v-21.6l19.7 27.4c0.1 0.1 0.4 0.5 0.7 0.5s0.5-0.2 0.6-0.4c0.3-1.2 0.8-2.3 1.5-3.4 0.6-0.7 0.6-0.9 0.6-1 0-0.4-0.1-0.9-0.5-1.1-0.4-0.4-0.8-0.9-1.1-1.4l-0.2-0.3v-20.6c0-0.2 0.1-4.3 4.1-4.3h0.1v-0.9h-10.2z"></path>
    <path d="m45.6 41.2l0.1-25.8c0-0.2 0-0.4 0.2-0.6s0.5-0.3 0.8-0.3h3.6c0.1 0 10.2 0.9 10.2 15.3s-10.1 15.3-10.2 15.3h-1.5c-2.7 0-3.2-3.9-3.2-3.9m20.5-12c0-15.2-13.6-15.8-13.8-15.8h-16v0.9h0.2c0.6 0 3.9 0.2 3.9 4.3v22.4c0 4.1-3.2 4.3-3.9 4.3h-0.2v1h16c0.1 0 13.8-0.6 13.8-15.8v-1.3z"></path>
    <path d="m100 44.4c-1.4-1.5-1.4-4.4-1.4-4.4v-21.4c0-1.2 0.4-2.3 1.1-3.2 0.8-0.7 1.8-1.1 2.8-1.1h0.2v-0.9h-8.9l-9 23.9-9.1-23.8v-0.1h-9.2v0.9h0.1c0.2 0 3.6 0.4 3.6 3.6v20.6s0.2 3.7-1.6 5.6c-0.8 0.8-1.9 1.3-3 1.2h-0.1v1h11v-1h-0.8c-1.1 0.1-2.1-0.4-2.8-1.1-0.9-1.2-1.4-2.7-1.3-4.2v-22l10.7 27.9s0.2 0.5 0.6 0.5h0.1c0.3 0 0.6-0.1 0.7-0.4 0.5-1.3 1.3-2.4 2.4-3.3 0.5-0.3 0.6-1 0.3-1.5l-0.3-0.6-0.1-0.3c-0.2-0.4-0.4-0.8-0.5-1.2l8.4-21.8v22.7s-0.1 5.3-4.6 5.3h-0.8v1h14.5v-1h-0.8c-0.8 0-1.6-0.3-2.2-0.9"></path>
    <path d="m117 45.6c-0.3 0-8.5-0.2-8.7-15.9 0.1-15.8 8.3-15.9 8.7-15.9s8.5 0.2 8.7 15.9c-0.1 15.7-8.3 16-8.7 15.9v0.2-0.2zm0.1-33c-7.9 0-14.4 7.7-14.4 17.1s6.4 17.1 14.4 17.1 14.4-7.7 14.4-17.1-6.4-17.1-14.4-17.1"></path>
    <path d="m207 45.6c-0.3 0-8.5-0.2-8.6-15.9 0.1-15.8 8.3-15.9 8.7-15.9s8.5 0.2 8.6 15.9c-0.1 15.7-8.3 16-8.7 15.9v0.2-0.2zm0.1-33c-7.9 0-14.4 7.7-14.4 17.1s6.4 17.1 14.4 17.1 14.4-7.7 14.4-17.1-6.4-17.1-14.4-17.1"></path>
    <path d="m190.3 12.5c-1 0.7-2.3 1.2-3.5 1.3h-18.6c-1.3-0.1-2.5-0.5-3.5-1.3l-0.2-0.1-1.5 10.7 0.7 0.2v-0.1c0.9-2 1.9-3.9 3.1-5.8 1.1-1.6 2.9-2.5 4.9-2.5h3.4v26c0 0.2-0.2 4.3-4.2 4.3h-0.1v0.9h13.8v-0.9h-0.1c-1.1 0.1-2.2-0.3-3.1-1.1-0.8-0.9-1.2-2-1.2-3.2v-25.9h3.5c1.9 0 3.7 0.9 4.8 2.5 1.2 1.8 2.2 3.8 3.1 5.8l0.1 0.1 0.7-0.2-1.6-10.7h-0.5z"></path>
    <path d="m34.3 34.3v0.1c-4.1 10.3-11 10.6-11.8 10.6h-5.8c-0.3 0-0.6-0.1-0.9-0.2-1.1-0.3-2-1.1-2.4-2.1-0.1-0.3-0.2-0.6-0.2-0.9-0.1-0.7-0.1-1.2-0.1-1.2v-15.9c0.4 0 0.8-0.1 1.2-0.1 2.6 0 8.8 0.9 10.3 9v0.1h0.8v-19h-0.9v0.1c0 7.8-7 8.6-10 8.6-0.7 0-1.3 0-1.5-0.1v-18.5c0-0.7 0.3-0.7 0.4-0.7 1-0.1 2-0.2 3.1-0.2 2.5 0 5.1 0.3 7.6 0.7 4.1 1.3 8.4 8.4 8.5 8.5l0.1 0.1 0.8-0.4v-0.1c-1.2-2.8-2.2-5.7-3.1-8.6-0.4-2.2-2.2-2-2.2-2-7.6 0.7-25.1 0.8-25.3 0.8h-0.2v0.9h0.2c1.2-0.1 2.4 0.3 3.3 1.2 0.8 0.9 1.2 2.1 1.1 3.3v28.2c0 1.9-0.1 3.7-0.5 5.5-0.1 0.2-0.1 0.4-0.2 0.7-0.1 0.2-0.2 0.4-0.4 0.6 0 0.1-0.1 0.1-0.1 0.2l-0.1 0.1-0.1 0.1-0.2 0.3c-1 0.7-2 1.2-3.1 1.5h-0.2v0.7h30l2.7-11.7-0.8-0.2z"></path>
    <path d="m295.4 45.1c-0.4 0-8.5-0.2-8.6-15.9 0.1-15.8 8.3-15.9 8.7-15.9s8.5 0.2 8.6 16c-0.1 15.7-8.3 15.9-8.7 15.8v0.2-0.2zm0.1-33c-7.9 0-14.4 7.7-14.4 17.1s6.4 17 14.3 17 14.4-7.7 14.4-17.1-6.3-17-14.3-17"></path>
    <path d="m453.2 34.7l-0.1 0.3c-2.9 8.9-8.3 9.6-9.9 9.6h-0.6c-3 0-4.2-1.2-4.2-1.2-0.5-0.6-0.6-2.7-0.6-3.5v-21.9c0-0.2 0.1-4.3 4-4.3h0.1v-0.9h-13.4v0.9h0.1c0.2 0 3.9 0.1 3.9 3.9v22.2c0 4.2-3.1 4.8-4 4.8-2.9-0.1-4.3-4.5-4.3-4.6l-8.5-27.4c-0.1-0.5-0.3-0.7-0.5-0.7s-0.3 0.1-0.4 0.2c-0.5 0.4-0.9 0.8-1.2 1.4-0.6 0.6-1.2 1.1-2 1.4l-0.5 0.2s-0.5 0.2-0.5 0.5v0.3c0.2 0.4 0.5 0.8 0.9 1l-8 22.9s-1.3 4.8-4.5 4.8h-0.1v1h9.1v-1h-0.2-0.5c-0.9 0.1-1.7-0.3-2.3-0.9-0.5-1-0.6-2.1-0.1-3.1l2.4-7.3h9.6l1.5 4.4s0.9 3.4 1 4.1c0.2 0.6 0.1 1.3-0.2 1.9-0.6 0.7-1.6 1-2.5 0.9h-0.1v1h36l1.4-10-0.8-0.9zm-45.5-2.9l4.3-12.8 4.2 12.9-8.5-0.1z"></path>
    <path d="m390.6 12.8v0.9h0.1c0.2 0 4.5 0.6 4.5 4.4v18.4c-3.9-5.4-16.8-23.7-16.8-23.7h-9v0.9h0.1c0.2 0 4.6 0.7 4.5 5.1v19.9s0 3.1-1.7 4.8c-0.6 0.6-1.3 0.9-2 1.1-0.9-0.2-1.6-0.6-2.2-1.3l-9.5-13.2c3.2-0.7 6.9-2.8 6.9-8.3v-0.2c0.2-3.2-1.6-6.2-4.5-7.6-1.6-0.8-3.4-1.2-5.2-1.2h-13.6v1.1h0.2s3.8 0.2 3.8 2.9v23.9c0 3.9-3.1 4.1-3.8 4.1h-0.3v1h13.2v-1h-0.4c-0.8 0-1.6-0.2-2.2-0.6-1.1-0.8-1.7-2.1-1.6-3.5v-10.2h1.1l10.9 15.2v0.1h16.9v-1h-0.1c-4.5-0.1-4.5-4.6-4.5-4.8v-21.7l19.6 27.3c0.2 0.3 0.4 0.4 0.7 0.5 0.3 0 0.5-0.2 0.6-0.4 0.3-1.2 0.8-2.4 1.5-3.4 0.5-0.7 0.6-0.9 0.6-1 0.1-0.4 0-0.8-0.3-1l-0.2-0.2c-0.4-0.3-0.7-0.8-1-1.2 0-0.1-0.1-0.2-0.2-0.3v-20.6c0-0.2 0.1-4.3 4-4.3h0.1v-0.9h-10.2zm-37 16.6h-2.4v-15-0.1s0.5-0.4 2.3-0.4c0.3 0 6.8 0.3 6.8 7.7v0.2c0.2 7.3-6.3 7.6-6.7 7.6z"></path>
    <path d="m330.7 13.8h0.3c4 0 4.4 4.3 4.4 4.4v16.8c0 8.6-7.6 8.8-7.9 8.8-7.1 0-7.5-9-7.5-9v-18c0.2-1.7 1.7-3 3.5-2.9h0.3v-1h-12.8v0.9h0.1c0.1 0 3.6 0.2 3.6 3.1v18.2c0 0.1 0.7 11 10.8 11h0.4c1.7 0 10.3-0.5 10.7-10.9l0.5-17.8c0.1-2.1 1.9-3.7 4-3.7h0.1 0.1v-1.1h-10.6v1.2z"></path>
    <path d="m295.4 45.1c-0.4 0-8.5-0.2-8.6-15.9 0.1-15.8 8.3-15.9 8.7-15.9s8.5 0.2 8.6 16c-0.1 15.7-8.3 15.9-8.7 15.8v0.2-0.2zm0.1-33c-7.9 0-14.4 7.7-14.4 17.1s6.4 17.1 14.3 17.1 14.4-7.7 14.4-17.1-6.3-17.1-14.3-17.1"></path>
    <path d="m282.6 4.8h0.2v-1h-17.9v1h0.2c0.1 0 6 0.1 6 4.1v38.6s-0.1 5-2.3 5.1c0 0-1.4 0.1-1.6-0.8 0-0.2-0.9-3.8-4-3.8-0.8 0-1.5 0.2-2.1 0.7-0.8 0.7-1.2 1.8-1.1 2.8 0 0 0.2 3.7 4.5 3.7h0.4c2.6 0 5.2-0.9 7.3-2.5 3.2-2.6 4.8-6.9 4.7-12.8v-31c-0.2-4 5.5-4.1 5.7-4.1"></path>
    <path d="m453.2 34.7l-0.1 0.3c-2.9 8.9-8.3 9.6-9.9 9.6h-0.6c-3 0-4.2-1.2-4.2-1.2-0.5-0.6-0.6-2.7-0.6-3.5v-21.9c0-0.2 0.1-4.3 4-4.3h0.1v-0.9h-13.4v0.9h0.1c0.2 0 3.9 0.1 3.9 3.9v22.2c0 4.2-3.1 4.8-4 4.8-2.9-0.1-4.3-4.5-4.3-4.6l-8.5-27.4c-0.1-0.5-0.3-0.7-0.5-0.7s-0.3 0.1-0.4 0.2c-0.5 0.4-0.9 0.9-1.2 1.4-0.6 0.6-1.2 1.1-2 1.4l-0.5 0.2s-0.5 0.2-0.5 0.5v0.3c0.2 0.4 0.5 0.8 0.9 1l-8 22.9s-1.3 4.8-4.5 4.8h-0.1v1h9.1v-1h-0.2-0.5c-0.9 0.1-1.7-0.3-2.3-0.9-0.5-1-0.6-2.1-0.1-3.1l2.4-7.3h9.6l1.5 4.4s0.9 3.4 1 4.1c0.2 0.6 0.1 1.3-0.2 1.9-0.6 0.7-1.6 1-2.5 0.9h-0.1v1h36l1.4-10-0.8-0.9zm-45.5-2.9l4.3-12.8 4.2 12.9-8.5-0.1z"></path>
    <path d="m390.6 12.8v0.9h0.1c0.2 0 4.5 0.6 4.5 4.4v18.4c-3.9-5.4-16.8-23.7-16.8-23.7h-9v0.9h0.1c0.2 0 4.6 0.8 4.5 5.1v19.9s0 3.1-1.7 4.8c-0.6 0.6-1.3 0.9-2 1.1-0.9-0.2-1.6-0.6-2.2-1.3l-9.5-13.2c3.2-0.7 6.9-2.8 6.9-8.3v-0.2c0.2-3.2-1.6-6.2-4.5-7.6-1.6-0.8-3.4-1.2-5.2-1.2h-13.6v1.1h0.2s3.8 0.2 3.8 2.9v23.9c0 3.9-3.1 4.1-3.8 4.1h-0.3v1h13.2v-1h-0.4c-0.8 0-1.6-0.2-2.2-0.6-1.1-0.8-1.7-2.1-1.6-3.5v-10.2h1.1l10.9 15.2v0.1h16.9v-1h-0.1c-4.5-0.1-4.5-4.6-4.5-4.8v-21.7l19.6 27.3c0.2 0.3 0.4 0.4 0.7 0.5 0.3 0 0.6-0.2 0.6-0.4 0.3-1.2 0.8-2.4 1.5-3.4 0.5-0.7 0.6-0.9 0.6-1 0.1-0.4 0-0.8-0.3-1l-0.2-0.2c-0.4-0.3-0.7-0.8-1-1.2-0.1-0.1-0.1-0.2-0.2-0.3v-20.6c0-0.2 0.1-4.3 4-4.3h0.1v-0.9h-10.2zm-37 16.6h-2.4v-15-0.1s0.5-0.4 2.3-0.4c0.3 0 6.8 0.3 6.8 7.7v0.2c0.2 7.3-6.3 7.6-6.7 7.6z"></path>
    <path d="m330.7 13.8h0.3c4 0 4.4 4.3 4.4 4.4v16.8c0 8.6-7.6 8.8-7.9 8.8-7.1 0-7.5-9-7.5-9v-18c0.2-1.7 1.7-3 3.5-2.9h0.3v-1h-12.8v0.9h0.1c0.1 0 3.6 0.2 3.6 3.1v18.2c0 0.1 0.7 11 10.8 11h0.4c1.7 0 10.3-0.5 10.7-10.9l0.5-17.8c0.1-2.1 1.9-3.7 4-3.7h0.1 0.1v-1.1h-10.6v1.2z"></path>
</svg>