<svg version="1.1"
    xmlns="http://www.w3.org/2000/svg" role="img" viewBox="0 0 487 56">
    <title id="esunLogo">Edmonton Sun</title>
    <path d="m371.26 17.93h-1.04c-0.09-0.54-0.14-0.83-0.15-0.89-0.14-0.89-0.29-1.93-0.88-2.67-0.6-0.74-1.19-1.33-3.12-1.33-1.03 0-2.07 0.29-2.66 0.89-0.74 0.59-1.04 1.18-1.04 1.92 0.15 1.34 0 1.48 1.48 2.52 1.48 0.89 4.45 2.22 9.48 4.3 5.34 2.22 8.89 4.44 10.97 7.11 2.22 2.66 2.96 5.63 2.96 8.74 0 4-1.33 8.29-4.59 11.55s-8.6 5.34-16.3 5.34c-8.3 0-13.78-2.52-17.04-6.08-3.26-3.55-4.44-7.85-4.44-11.4v-2.82h16.59v1.19c0 2.66 0.89 4 1.78 4.89 0.89 0.74 2.22 1.03 2.81 1.03 2.82 0 4.3-2.07 4.3-3.7 0-1.48-0.3-1.78-1.78-2.82-1.48-0.89-4.29-1.92-8.59-3.7-1.93-0.74-5.63-2.07-8.74-4.44s-5.93-6.08-5.93-11.26c0-5.19 2.82-9.49 6.82-12.15 4-2.67 9.18-4.15 14.07-4.15 5.78 0 12.15 1.93 16.15 6.22 3.56 4 3.85 7.85 4 10.82v1.18h-15.11"></path>
    <path d="m405.33 2.07h1.19v31.26c0 1.63 0.15 3.86 0.89 5.48 0.89 1.63 2.07 2.82 5.18 2.82 3.26 0 4.3-1.04 5.04-2.67 0.74-1.48 0.74-3.85 0.74-5.77v-31.12h16.3v31.26c0 8.6-2.23 12.74-5.93 16.15-3.7 3.56-9.04 5.78-16.15 5.78-4.15 0-11.7-0.89-16.59-5.63-4.74-4.59-5.93-8.74-5.78-16.15v-31.41h15.11"></path>
    <path d="m453.48 26.22l0.3 28h-15.71v-51.11-1.04h13.93l19.56 28.89-0.6-28.89h15.71v52.15h-13.93l-19.26-28z"></path>
    <path d="m0 2.07h29.19v9.49h-18.97v12.14h16.59v9.49h-16.59v12.44h19.26v9.48h-29.48v-53.04z"></path>
    <path d="m51.29 2.19l1.23 0.14 1.2 0.2 1.16 0.26 1.14 0.31 1.1 0.36 1.06 0.42 1.03 0.46 0.99 0.52 0.96 0.58 0.92 0.62 0.88 0.67 0.84 0.72 0.81 0.77 0.76 0.82 0.72 0.86 0.68 0.91 0.64 0.96 0.6 1 0.55 1.04 0.51 1.09 0.46 1.13 0.42 1.17 0.37 1.21 0.32 1.26 0.28 1.29 0.23 1.33 0.17 1.37 0.13 1.41 0.08 1.45 0.03 1.48v1.04l-0.03 1.49-0.08 1.46-0.13 1.42-0.17 1.38-0.23 1.35-0.28 1.3-0.32 1.26-0.37 1.22-0.42 1.18-0.46 1.14-0.51 1.09-0.55 1.05-0.6 1.01-0.64 0.96-0.68 0.91-0.72 0.87-0.76 0.82-0.81 0.77-0.84 0.72-0.88 0.68-0.92 0.62-0.96 0.58-0.99 0.52-1.03 0.47-1.06 0.41-1.1 0.37-1.14 0.31-1.16 0.25-1.2 0.2-1.23 0.15-1.26 0.08-1.29 0.03h-14.07v-53.04h14.07l1.29 0.03 1.26 0.09zm-6.4 43.59h4.3l1.15-0.05 1.12-0.16 1.08-0.27 1.04-0.38 0.98-0.49 0.93-0.6 0.86-0.72 0.81-0.83 0.74-0.96 0.66-1.07 0.6-1.2 0.51-1.32 0.43-1.45 0.34-1.58 0.25-1.7 0.15-1.84 0.05-1.97v-1.04l-0.6-1.9-0.61-1.78-0.62-1.66-0.63-1.55-0.65-1.44-0.65-1.32-0.67-1.2-0.67-1.09-0.69-0.98-0.7-0.86-0.71-0.75-0.72-0.63-0.74-0.52-0.74-0.4-0.76-0.28-0.77-0.18-0.77-0.05h-4.3v34.22z"></path>
    <path d="m107.85 21.93l-10.37 21.18h-0.15l-10.37-21.18v33.03h-10.07v-52.89h10.67l9.77 20.74 9.93-20.74h10.67v53.04h-10.08v-33.18z"></path>
    <path d="m146.05 1.47l1.14 0.17 1.11 0.23 1.08 0.3 1.06 0.36 1.02 0.42 0.99 0.49 0.96 0.54 0.93 0.61 0.89 0.66 0.85 0.72 0.82 0.78 0.78 0.84 0.75 0.89 0.7 0.95 0.66 1 0.62 1.05 0.57 1.1 0.53 1.15 0.49 1.21 0.44 1.25 0.39 1.3 0.34 1.35 0.3 1.39 0.24 1.44 0.19 1.48 0.14 1.52 0.08 1.57 0.03 1.61v1.63l-0.04 1.61-0.1 1.57-0.15 1.52-0.2 1.49-0.26 1.43-0.3 1.4-0.35 1.34-0.4 1.3-0.45 1.26-0.49 1.2-0.54 1.15-0.58 1.11-0.62 1.05-0.67 1-0.7 0.94-0.75 0.89-0.78 0.84-0.82 0.78-0.86 0.72-0.9 0.67-0.92 0.6-0.96 0.55-1 0.48-1.02 0.43-1.05 0.36-1.09 0.29-1.11 0.24-1.13 0.16-1.17 0.11-1.18 0.03-1.19-0.03-1.16-0.11-1.14-0.16-1.11-0.24-1.07-0.29-1.05-0.36-1.02-0.43-0.99-0.48-0.95-0.55-0.92-0.6-0.88-0.67-0.85-0.72-0.81-0.78-0.78-0.84-0.73-0.89-0.7-0.94-0.65-1-0.61-1.05-0.57-1.11-0.53-1.15-0.47-1.2-0.44-1.26-0.38-1.3-0.34-1.34-0.29-1.4-0.24-1.43-0.19-1.49-0.13-1.52-0.08-1.57-0.03-1.61v-1.63l0.03-1.61 0.08-1.57 0.14-1.52 0.19-1.48 0.24-1.44 0.29-1.39 0.35-1.35 0.39-1.3 0.44-1.25 0.48-1.21 0.53-1.15 0.58-1.1 0.62-1.05 0.66-1 0.7-0.95 0.74-0.89 0.78-0.84 0.82-0.78 0.86-0.72 0.89-0.66 0.93-0.61 0.95-0.54 1-0.49 1.02-0.42 1.05-0.36 1.08-0.3 1.12-0.23 1.13-0.17 1.17-0.1 1.18-0.04 1.19 0.04 1.16 0.1zm-4.45 9.57l-0.91 0.28-0.87 0.39-0.81 0.52-0.77 0.62-0.71 0.75-0.65 0.87-0.6 0.98-0.53 1.11-0.47 1.23-0.4 1.36-0.34 1.48-0.26 1.62-0.2 1.73-0.11 1.87-0.04 2v1.63l0.04 1.98 0.12 1.85 0.2 1.72 0.27 1.61 0.35 1.48 0.41 1.35 0.49 1.24 0.54 1.11 0.61 1 0.67 0.87 0.72 0.75 0.77 0.64 0.83 0.52 0.87 0.4 0.92 0.29 0.96 0.17 1 0.06 1-0.06 0.97-0.16 0.91-0.29 0.88-0.39 0.82-0.51 0.78-0.63 0.72-0.75 0.67-0.86 0.61-0.99 0.54-1.11 0.48-1.23 0.42-1.36 0.35-1.48 0.27-1.61 0.2-1.74 0.12-1.87 0.04-2v-1.63l-0.49-1.94-0.51-1.83-0.51-1.71-0.53-1.59-0.54-1.48-0.55-1.35-0.56-1.24-0.57-1.12-0.59-1-0.59-0.89-0.61-0.76-0.62-0.65-0.63-0.53-0.64-0.41-0.65-0.3-0.66-0.18-0.67-0.06-1 0.06-0.96 0.17z"></path>
    <path d="m179.41 24.44v30.67h-10.08v-53.04h9.48l16.3 29.49v-29.49h10.08v53.04h-8.75l-17.03-30.67z"></path>
    <path d="m230.81 55.11h-10.22v-43.26h-10.81v-9.63h32v9.63h-10.97v43.26z"></path>
    <path d="m265.76 1.47l1.14 0.17 1.11 0.23 1.08 0.3 1.05 0.36 1.02 0.42 1 0.49 0.96 0.54 0.92 0.61 0.89 0.66 0.86 0.72 0.82 0.78 0.78 0.84 0.74 0.89 0.7 0.95 0.66 1 0.62 1.05 0.58 1.1 0.53 1.15 0.48 1.21 0.44 1.25 0.39 1.3 0.35 1.35 0.29 1.39 0.24 1.44 0.19 1.48 0.14 1.52 0.08 1.57 0.03 1.61v1.63l-0.04 1.61-0.1 1.57-0.15 1.52-0.2 1.49-0.25 1.43-0.3 1.4-0.36 1.34-0.4 1.3-0.44 1.26-0.5 1.2-0.53 1.15-0.58 1.11-0.63 1.05-0.66 1-0.71 0.94-0.75 0.89-0.78 0.84-0.82 0.78-0.86 0.72-0.89 0.67-0.93 0.6-0.96 0.55-0.99 0.48-1.03 0.43-1.05 0.36-1.08 0.29-1.11 0.24-1.14 0.16-1.16 0.11-1.19 0.03-1.19-0.03-1.16-0.11-1.14-0.16-1.1-0.24-1.08-0.29-1.05-0.36-1.02-0.43-0.98-0.48-0.96-0.55-0.92-0.6-0.88-0.67-0.85-0.72-0.81-0.78-0.77-0.84-0.74-0.89-0.69-0.94-0.66-1-0.61-1.05-0.57-1.11-0.52-1.15-0.48-1.2-0.43-1.26-0.39-1.3-0.34-1.34-0.29-1.4-0.24-1.43-0.18-1.49-0.14-1.52-0.08-1.57-0.03-1.61v-1.63l0.03-1.61 0.08-1.57 0.14-1.52 0.19-1.48 0.24-1.44 0.3-1.39 0.34-1.35 0.39-1.3 0.44-1.25 0.49-1.21 0.53-1.15 0.57-1.1 0.62-1.05 0.66-1 0.71-0.95 0.74-0.89 0.78-0.84 0.82-0.78 0.85-0.72 0.89-0.66 0.93-0.61 0.96-0.54 0.99-0.49 1.02-0.42 1.06-0.36 1.08-0.3 1.11-0.23 1.14-0.17 1.16-0.1 1.19-0.04 1.19 0.04 1.16 0.1zm-4.6 9.57l-0.92 0.28-0.86 0.39-0.82 0.52-0.76 0.62-0.71 0.75-0.66 0.87-0.59 0.98-0.53 1.11-0.47 1.23-0.41 1.36-0.33 1.48-0.27 1.62-0.19 1.73-0.12 1.87-0.04 2v1.63l0.04 1.98 0.12 1.85 0.2 1.72 0.28 1.61 0.34 1.48 0.42 1.35 0.48 1.24 0.55 1.11 0.61 1 0.66 0.87 0.72 0.75 0.78 0.64 0.83 0.52 0.87 0.4 0.92 0.29 0.96 0.17 1 0.06 1-0.06 0.96-0.16 0.92-0.29 0.87-0.39 0.83-0.51 0.77-0.63 0.73-0.75 0.66-0.86 0.61-0.99 0.55-1.11 0.48-1.23 0.42-1.36 0.34-1.48 0.28-1.61 0.19-1.74 0.13-1.87 0.04-2v-1.63l-0.5-1.94-0.5-1.83-0.52-1.71-0.53-1.59-0.53-1.48-0.55-1.35-0.57-1.24-0.57-1.12-0.58-1-0.6-0.89-0.6-0.76-0.62-0.65-0.63-0.53-0.64-0.41-0.65-0.3-0.66-0.18-0.68-0.06-1 0.06-0.95 0.17z"></path>
    <path d="m299.11 24.59v30.67h-10.07v-53.19h9.48l16.29 29.49v-29.49h10.23v53.04h-9.04l-16.89-30.52z"></path>
</svg>