<?xml version="1.0" encoding="UTF-8"?>
<!-- Generator: Adobe Illustrator 18.0.0, SVG Export Plug-In . SVG Version: 6.00 Build 0)  -->
<!DOCTYPE svg PUBLIC "-//W3C//DTD SVG 1.1//EN" "http://www.w3.org/Graphics/SVG/1.1/DTD/svg11.dtd">
<svg version="1.1" id="MASTER" xmlns="http://www.w3.org/2000/svg" xmlns:xlink="http://www.w3.org/1999/xlink" x="0px" y="0px" viewBox="0 0 200 101.6" enable-background="new 0 0 200 101.6" xml:space="preserve">
<g>
	<g>
		<rect x="43.4" y="55.8" fill="#E51521" width="136.4" height="44.8"/>
		<g>
			<path fill="#FFFFFF" d="M178.8,56.8v42.9H44.3V56.8H178.8 M180.7,54.9h-1.9H44.3h-1.9v1.9v42.9v1.9h1.9h134.5h1.9v-1.9V56.8V54.9     L180.7,54.9z"/>
		</g>
	</g>
	<g>
		<polygon fill="#FFFFFF" points="70.2,93 65.6,93 65.6,72.1 62.6,93 58,93 55,71.8 55,93 50.9,93 50.9,63.5 57.8,63.5 57.8,63.5     60.5,84.1 63.3,63.5 70.2,63.5   "/>
		<path fill="#FFFFFF" d="M81,63.1h-2.4c-3.7,0-5.5,1.9-5.5,5.5v18.9c0,3.7,1.9,5.5,5.5,5.5H81c3.7,0,5.5-1.9,5.5-5.5V68.7    C86.6,65,84.7,63.1,81,63.1z M81.9,87.4c0,1.1-0.5,1.6-1.6,1.6h-0.9c-1.1,0-1.6-0.5-1.6-1.6V68.9c0-1.1,0.5-1.6,1.6-1.6h0.9    c1.1,0,1.6,0.5,1.6,1.6V87.4z"/>
		<polygon fill="#FFFFFF" points="103.1,93 98.1,93 98.1,92.9 93.7,74.1 93.8,78.3 93.8,93 89.5,93 89.5,63.5 95,63.5 95,63.5     98.9,80.7 98.9,76.7 98.9,63.5 103.1,63.5   "/>
		<polygon fill="#FFFFFF" points="117.6,67.7 113.6,67.7 113.6,93 108.9,93 108.9,67.7 104.9,67.7 104.9,63.5 117.6,63.5   "/>
		<path fill="#FFFFFF" d="M130,79c1.6-0.8,2.4-2.2,2.4-4.5V69c0-3.7-1.9-5.5-5.5-5.5h-7.5V93h4.7V81.2h1.9c1.2,0,1.8,0.5,1.8,1.8v10    h4.7V82.9C132.4,80.8,131.7,79.6,130,79z M127.7,75.4c0,1.2-0.6,1.7-1.7,1.7H124v-9.5h2.1c1.1,0,1.6,0.5,1.6,1.6V75.4z"/>
		<polygon fill="#FFFFFF" points="145.4,93 135.2,93 135.2,63.5 137.9,63.5 139.6,60.1 144.1,60.1 141.9,63.5 145.4,63.5     145.4,67.7 139.9,67.7 139.9,75.8 145.2,75.8 145.2,80.1 139.9,80.1 139.9,88.7 145.4,88.7   "/>
		<path fill="#FFFFFF" d="M157.9,63.6L157.9,63.6l-6.1-0.1l-4.2,29.3l0,0.1h4.3l0.7-6.2h4l0.8,6.2h4.6L157.9,63.6z M153.2,82.6    l1.5-12.2l1.5,12.2H153.2z"/>
		<polygon fill="#FFFFFF" points="173.9,93 164.2,93 164.2,63.5 168.9,63.5 168.9,88.7 173.9,88.7   "/>
	</g>
	<g>
		<rect x="5" y="55.8" fill="#E51521" width="38.2" height="28.3"/>
		<g>
			<path fill="#FFFFFF" d="M42.3,56.8v26.4H6V56.8H42.3 M44.2,54.9h-1.9H6H4v1.9v26.4v1.9H6h36.3h1.9v-1.9V56.8V54.9L44.2,54.9z"/>
		</g>
	</g>
	<g>
		<rect x="49.2" y="1" fill="#E51521" width="149.8" height="54.8"/>
		<g>
			<path fill="#FFFFFF" d="M198.1,1.9v52.8H50.2V1.9H198.1 M200,0h-1.9H50.2h-1.9v1.9v52.8v1.9h1.9h147.9h1.9v-1.9V1.9V0L200,0z"/>
		</g>
	</g>
	<g>
		<path fill="#FFFFFF" d="M20.1,60.9h-3.7v18.2h3.7c2.7,0,4-1.3,4-4V64.9C24.1,62.2,22.8,60.9,20.1,60.9z M21.2,75    c0,1.1-0.5,1.5-1.5,1.5h-0.4V63.5h0.4c1,0,1.5,0.5,1.5,1.5V75z"/>
		<polygon fill="#FFFFFF" points="31.9,79.1 25.5,79.1 25.5,60.9 31.8,60.9 31.8,63.5 28.4,63.5 28.4,68.5 31.7,68.5 31.7,71.1     28.4,71.1 28.4,76.5 31.9,76.5   "/>
	</g>
	<g>
		<rect x="1" y="20.8" fill="#E51521" width="48.2" height="34.9"/>
		<g>
			<path fill="#FFFFFF" d="M48.2,21.7v33H1.9v-33H48.2 M50.1,19.8h-1.9H1.9H0v1.9v33v1.9h1.9h46.2h1.9v-1.9v-33V19.8L50.1,19.8z"/>
		</g>
	</g>
	<g>
		<polygon fill="#FFFFFF" points="25.5,26.9 33.3,26.9 33.3,30.1 29.1,30.1 29.1,36.4 33.2,36.4 33.2,39.7 29.1,39.7 29.1,46.3     33.4,46.3 33.4,49.6 25.5,49.6   "/>
		<polygon fill="#FFFFFF" points="16.7,26.9 20.3,26.9 20.3,46.3 24.1,46.3 24.1,49.6 16.7,49.6   "/>
	</g>
	<g>
		<path fill="#FFFFFF" d="M68.3,40.5c0,4.8-2.5,7.3-7.3,7.3h-4.2v-5.6H60c1.5,0,2.2-0.7,2.2-2.2V13.9h-3.2v-5h3.2H65h3.3V40.5z"/>
		<path fill="#FFFFFF" d="M82.6,8.5h-3.2c-4.8,0-7.3,2.5-7.3,7.3v25c0,4.9,2.5,7.3,7.3,7.3h3.2c4.8,0,7.3-2.5,7.3-7.3v-25    C89.9,11,87.5,8.5,82.6,8.5z M83.8,40.6c0,1.5-0.7,2.2-2.1,2.2h-1.2c-1.5,0-2.2-0.7-2.2-2.2V16.1c0-1.5,0.7-2.2,2.2-2.2h1.2    c1.4,0,2.1,0.7,2.1,2.2V40.6z"/>
		<path fill="#FFFFFF" d="M111.3,40.8c0,4.9-2.5,7.3-7.3,7.3h-2.9c-4.8,0-7.3-2.5-7.3-7.3v-32h6.2v31.7c0,1.5,0.7,2.2,2.2,2.2h0.9    c1.4,0,2.1-0.7,2.1-2.2V8.8h6.2V40.8z"/>
		<path fill="#FFFFFF" d="M129.1,29.4c2.2-1,3.2-2.9,3.2-6v-7.3c0-4.9-2.5-7.3-7.3-7.3h-9.9v39h6.2V32.3h2.5c1.6,0,2.4,0.7,2.4,2.4    v13.2h6.2V34.5C132.3,31.7,131.4,30.1,129.1,29.4z M126.1,24.6c0,1.5-0.7,2.3-2.3,2.3h-2.5V14.3h2.8c1.4,0,2.1,0.7,2.1,2.1V24.6z"/>
		<polygon fill="#FFFFFF" points="154,47.8 147.3,47.8 147.3,47.7 141.5,22.7 141.6,28.4 141.6,47.8 136,47.8 136,8.8 143.1,8.8     143.2,8.9 148.5,31.8 148.4,26.4 148.4,8.8 154,8.8   "/>
		<path fill="#FFFFFF" d="M170.4,8.9L170.4,8.9l-8.1-0.1l-5.6,39h5.7l1-8.2h5.4l1.1,8.2h6.1L170.4,8.9z M164.2,34.1l2-16.4l2,16.4    H164.2z"/>
		<polygon fill="#FFFFFF" points="191.5,47.8 178.8,47.8 178.8,8.8 185,8.8 185,42.2 191.5,42.2   "/>
	</g>
</g>
<script xmlns=""/></svg>