<svg version="1.1"
  xmlns="http://www.w3.org/2000/svg" role="img" viewBox="60 23 510 62">
    <title id="lfpLogo">London Free Press</title>
    <path d="m78.7 70.4c1.4 0.9 2.9 1.6 4.5 1.9 2 0.5 6.4 0.1 8.7-0.9v-35.1c-2.6-0.3-6.1-2.3-8.8-3.5-3.4-1.6-12.7-3.3-19.8 2l-0.9-0.9c4-4 8.5-8.5 14.8-8.5 5.2 0 11.1 2 13.5 3.3 5.2 2.8 8.9 2.5 12.5 0.8l0.8 0.8c-2.9 2.9-6.4 5.8-10.1 6.1v34.3c2.1-0.9 3.9-2.6 5.7-4.4l1.3 0.7c-2.6 3.7-6.9 8.8-17.8 8.8s-19.9-8.5-19.9-19.4 10.3-19.6 16.7-21.3l1 1c-5.9 4.2-10.6 9.7-10.6 19.8 0 4.7 2.5 10 6.5 13.4l4.7-3.7v-23.4l-0.8 0.6-0.9-1 8.2-6.3v27.7l-9.3 7.2z"></path>
    <path d="m103.4 35.1v37.3c0 1.1 0.9 3 3.2 3l5.9-4.6c-0.9-0.2-1.9-0.8-1.9-2.3v-22.1c1.9-1.6 4.1-0.6 4.1 1.4v26c0 1.4-0.5 3.1-2.6 5.1-0.6 0.5-1.4 1.3-1.4 1.3l1.2 1.5c1.5-1 7.1-5.4 8.6-6.6 1.4-1.2 1.5-2.3 1.5-6.6v-20.7c0-4.7-3.6-7.7-6.1-7.7l-5.3 3.9v-16.2l-9 7 1 1 0.8-0.7z"></path>
    <path d="m232.1 43.4c-0.2-2.5-3.2-4-5.2-4l-5.3 3.9c1.8 0.7 3.3 0.7 3.3 3.3v25.8c0 1.1 0.9 3 3.2 3l5.9-4.6c-0.9-0.2-1.9-0.8-1.9-2.3v-22.8c1.9-1.6 4.1-0.6 4.1 1.4v25.3c0 1.1 0.9 3 3.2 3l5.9-4.6c-0.9-0.2-1.9-0.8-1.9-2.3v-21.5c0-4.7-3.6-7.7-6.1-7.7l-5.2 4.1z"></path>
    <path d="m304.7 43.4c-0.2-2.5-3.2-4-5.2-4l-5.3 3.9c1.8 0.7 3.3 0.7 3.3 3.3v25.8c0 1.1 0.9 3 3.2 3l5.9-4.6c-0.9-0.2-1.9-0.8-1.9-2.3v-22.8c1.9-1.6 4.1-0.6 4.1 1.4v25.3c0 1.1 0.9 3 3.2 3l5.9-4.6c-0.9-0.2-1.9-0.8-1.9-2.3v-21.5c0-4.7-3.6-7.7-6.1-7.7l-5.2 4.1z"></path>
    <path d="m386 45.4c-2.8-0.9-4.7-3.7-5.4-6.5l-5.7 4.4c-0.2-2.5-3.2-4-5.2-4l-5.3 3.9c1.8 0.7 3.3 0.7 3.3 3.3v25.8c0 1.1 0.9 3 3.2 3l5.9-4.6c-0.9-0.2-1.9-0.8-1.9-2.3v-23l1.6-1.3c0.1 4.4 4.4 5.5 9.5 1.3z"></path>
    <path d="m499.6 45.4c-2.8-0.9-4.7-3.7-5.4-6.5l-5.7 4.4c-0.2-2.5-3.2-4-5.2-4l-5.3 3.9c1.8 0.7 3.3 0.7 3.3 3.3v25.8c0 1.1 0.9 3 3.2 3l5.9-4.6c-0.9-0.2-1.9-0.8-1.9-2.3v-23l1.6-1.3c0.1 4.4 4.5 5.5 9.5 1.3z"></path>
    <path d="m199.4 49.6-0.8 0.6-0.9-1 14.9-11.6 6.8 6.8v19.7l0.7-0.5 1 1-14.9 11.6-6.8-6.8v-19.8zm12.9 20.9v-23l-4.8-4.8v23l4.8 4.8z"></path>
    <path d="m273 49.6-0.8 0.6-0.9-1 15-11.6 6.8 6.8v19.7l0.7-0.5 1 1-15 11.6-6.8-6.8v-19.8zm12.9 20.9v-23l-4.8-4.8v23l4.8 4.8z"></path>
    <path d="m248.6 49.6-0.8 0.6-0.9-1 11.3-8.7 3.3 3.3v-18.3l7.1 6.3v32.3l0.7-0.5 1 1-14.9 11.6-6.8-6.8v-19.8zm12.9 20.9v-23l-4.8-4.8v23l4.8 4.8z"></path>
    <path d="m135.2 71.7"></path>
    <path d="m126.4 50.2-0.9-1 12.8-9.9 8.1 13.4-11.8 9.1v4c0 4.3 2.2 5.8 5.3 3.6 2-1.4 5.7-3.6 5.7-3.6l1.4 1.3-12.4 8.6c-4 0-7.5-3.9-7.5-14.7v-11.5l-0.7 0.7zm13.3 4.1-5.1-8.5v12.4l5.1-3.9z"></path>
    <path d="m385.7 50.2-0.9-1 12.8-9.9 8.1 13.4-11.8 9.1v4c0 4.3 2.2 5.8 5.3 3.6 2-1.4 5.6-3.6 5.6-3.6l1.4 1.3-12.4 8.6c-4 0-7.5-3.9-7.5-14.7v-11.5l-0.6 0.7zm13.4 4.1-5.1-8.5v12.4l5.1-3.9z"></path>
    <path d="m406.8 50.2-0.9-1 12.8-9.9 8.1 13.4-11.8 9.1v4c0 4.3 2.2 5.8 5.3 3.6 2-1.4 5.6-3.6 5.6-3.6l1.5 1.4-12.4 8.6c-4 0-7.5-3.9-7.5-14.7v-11.5l-0.7 0.6zm13.3 4.1-5.1-8.5v12.4l5.1-3.9z"></path>
    <path d="m499.6 50.2-0.9-1 12.8-9.9 8.1 13.4-11.8 9.1v4c0 4.3 2.2 5.8 5.3 3.6 2-1.4 5.6-3.6 5.6-3.6l1.5 1.4-12.4 8.6c-4 0-7.5-3.9-7.5-14.7v-11.5l-0.7 0.6zm13.4 4.1-5.1-8.5v12.4l5.1-3.9z"></path>
    <path d="m155.4 33.2-1.1-1.2c2.8-2.7 6.1-6.7 10.7-6.7s6.7 3.2 9.6 3.2c0.9 0 3-0.8 4.1-1.6l1 1c-3.7 2.8-6.7 5.5-11.5 5.5-2.9 0-5.3-2.7-7.7-2.7-2.1 0.1-3.8 1.4-5.1 2.5z"></path>
    <path d="m174.8 33.5c-4.4 3.4-7.6 4.9-7.6 9.3v20.2c0 2.6-0.5 3.3-2.1 4.7l1 1.1c1.3-1 5.2-4 6.9-5.3 2-1.6 1.8-4.1 1.8-6.3s0-19.2 0-20.4 0.2-1.8 0.9-2.5l-0.9-0.8z"></path>
    <path d="m179.2 29.9c0.3-0.2 8.9-6.7 9.1-6.8 1.6 3.9 6.1 8.9 8.9 9.8-3.1 3-8.3 2.3-12.4-2.9v20.5c0 2.5 0 3.7-2 5.3-1.1 0.9-4.3 3.4-5.7 4.4v-23c0-1.8-0.2-5.4 2.1-7.3z"></path>
    <path d="m162.2 75.1-1-1.1c1.9-1.4 12-8.9 16.2-8.9 5.1 0 7.2 3.7 11.9 3.7 2.1 0 5.4-2.6 7.3-4.1l1.2 1.3c-1.2 1.1-9.6 9.3-15.4 9.3s-7.2-3.6-12.1-3.6c-1.8-0.1-5.6 1.6-8.1 3.4z"></path>
    <path d="m327.5 35.1-0.9-0.9c2.8-2.7 6.2-6.6 10.8-6.6 4.5 0 6.7 3.2 9.5 3.2 0.9 0 2.9-0.8 4.1-1.5l1 1c-3.7 2.8-6.7 5.5-11.5 5.5-2.9 0-5.3-2.7-7.7-2.7-2.1 0-4.1 0.9-5.3 2z"></path>
    <path d="m346.8 35.6c-4.4 3.4-7.4 5-7.4 9.5v20.2c0 2.6-0.5 3.3-2.1 4.7l1 1.1c1.3-1 5.2-4 6.9-5.3 2-1.6 1.8-4.1 1.8-6.3s0-19.2 0-20.4 0.2-1.8 0.9-2.5l-1.1-1z"></path>
    <path d="m357 49.7v18.9c0 2.5 0 3.7-2 5.3-1.1 0.9-10.9 9.2-14.8 9.2-3.8 0-5.5-2.9-9.5-2.9-1.8 0-5.2 1.4-7.7 3.2l-1.2-1.3c1.9-1.4 11.6-8.3 15.8-8.3s4.9 2.7 11.6 2.7v-37c0-1.9-0.2-5.5 2.1-7.3 0.3-0.2 8.9-6.7 9.1-6.8 2.7 3.2 10.5 6.8 13.4 7.7-3.1 3-7 6.6-16.9-2.2v15.2c2.5-1.8 6.2-1.5 8.9 0.6l-2.8 6.4c-2-3.8-4.5-4-6-3.4z"></path>
    <path d="m456.2 33.2"></path>
    <path d="m460.5 78.2c0 4.1-2.5 5.4-4.2 5.4h-10.5v-0.9c2.7 0 3.4-1.4 3.4-2.9v-11.7c-4.6-0.1-8.9 1.2-12.1 6.1l-0.6-0.5c2.8-5.9 7.9-10.3 12.7-11.8v-28.7c0-6.5-1.2-7.2-3.1-7.2v-1.3c9.6 0 10.1 1.5 10.1 8.6l3.2-2.5v-4.4h1v3.7l6.8-5.3c8.8 11 17 33.5 1.3 44.6-1.9 1.3-4.7 1.1-8.1 0.5 0.1 4.2 0.1 7.4 0.1 8.3zm-1-46.1-3.2 2.5v27.2c0.5 0.2 1 0.5 1.4 0.8 0.7 0.5 1.2 0.9 1.8 1.4v-31.9zm7.7 35.6c1.6-2.2 8-14.6-4.8-37.8l-1.9 1.5v33.6c3 2.6 5.2 4.8 6.7 2.7zm-11 1.3v13.6c2.5 0 3.2-2.3 3.2-4.5v-8.5c-1-0.2-2-0.4-3.2-0.6z"></path>
    <path d="m532.7 38"></path>
    <path d="m520.2 47.6 12.5-9.6c2.1 2.6 5 5.7 11 5.9-1.9 3.4-6.3 8.7-8.6 10.7 0 0 5.1-0.1 6.3 0.1v10.1l0.8-0.6 0.9 1c-3.6 2.7-10 7.5-12.5 9.6-2-3.1-5.5-5.9-11-5.9 4-6.2 7.6-10.1 10.7-12.3-3 0.3-7 0.5-8.3 0.7v-9.2l-0.8 0.6-1-1.1zm9.6 7.2c0.6-0.1 1.3-0.1 2.1-0.1 2.8-2.2 6.2-6.3 8.1-8.8-2.8 0.8-8-0.1-10.2-2.2v11.1zm-6.7 12.2c3.9-0.9 7.7-0.2 10.2 2.1v-12.7c-3.2 2-6.7 6.1-10.2 10.6z"></path>
    <path d="m543.1 47.6 12.5-9.6c2.1 2.6 5 5.7 11 5.9-1.9 3.4-6.3 8.7-8.6 10.7 0 0 5.1-0.1 6.3 0.1v10.1l0.8-0.6 0.9 1c-3.6 2.7-10 7.5-12.5 9.6-2-3.1-5.5-5.9-11-5.9 4-6.2 7.6-10.1 10.7-12.3-3 0.3-7 0.5-8.3 0.7v-9.2l-0.8 0.6-1-1.1zm9.7 7.2c0.6-0.1 1.3-0.1 2.1-0.1 2.8-2.2 6.2-6.3 8.1-8.8-2.8 0.8-8-0.1-10.2-2.2v11.1zm-6.8 12.2c3.9-0.9 7.7-0.2 10.2 2.1v-12.7c-3.2 2-6.7 6.1-10.2 10.6z"></path>
</svg>