<svg viewBox="0 0 331 128" fill="none" xmlns="http://www.w3.org/2000/svg"><g clip-path="url(#clip0)"><path d="M6.35 3.724V1.752L26.72 0v73.815l7.886 2.848v1.971H7.007v-1.971s7.886-2.848 7.667-2.848V5.914L6.35 3.724zm54.76 72.501c3.285.219 8.322-1.315 15.77-8.324l2.19 2.848c-4.6 5.476-10.076 9.856-18.837 10.075-16.209.22-26.941-8.542-26.065-27.38.876-15.332 11.39-24.75 25.846-24.093 13.8.657 20.59 12.266 19.713 24.532H47.53c-.22 9.2.438 21.904 13.58 22.342zM67.9 49.72c.218-7.885-2.191-16.208-8.105-16.866-8.105-.657-10.952 9.2-11.828 16.866h19.932z" fill="#D51D2C"/><path d="M129.886 25.408l-2.19-.219-2.191-7.885c-2.847-2.629-7.885-7.01-14.675-6.352-6.79.657-11.828 4.162-11.609 11.609.22 7.666 7.228 8.761 13.58 10.733 10.733 3.066 22.561 7.666 21.247 26.065-.876 12.704-9.419 21.246-26.065 20.808-8.324-.219-13.8-1.971-21.028-6.352l.876-17.742 1.971.22 2.848 11.17c3.066 5.257 10.733 8.324 16.647 8.324 7.228 0 12.485-4.82 12.923-13.362.876-12.485-12.266-14.894-15.771-15.99-6.352-1.97-19.932-5.694-18.18-22.341 1.096-11.17 8.98-16.209 23.437-17.085 7.009-.438 15.99 2.19 19.056 3.943l-.876 14.456zm62.206 28.256c.657 16.647-10.732 26.941-26.503 26.941-15.552 0-26.941-10.513-26.284-26.941.438-17.304 10.951-24.313 26.065-24.313 15.551 0 26.284 7.009 26.722 24.313zm-26.503 23.218c9.199 0 12.266-9.638 12.266-22.342-.219-11.828-2.847-21.246-12.266-21.246-9.2 0-12.266 10.075-12.266 21.246.219 12.266 3.066 22.342 12.266 22.342z" fill="#000"/><path d="M191.216 3.724V1.752L211.586 0v73.815l7.886 2.848v1.971h-27.818v-1.971s7.885-2.848 7.666-2.848V5.914l-8.104-2.19zm54.321 72.501c3.286.219 8.324-1.315 15.771-8.324l2.19 2.848c-4.6 5.476-10.075 9.856-18.837 10.075-16.209.22-26.722-8.542-26.065-27.38.876-15.332 11.39-24.75 25.846-24.093 13.799.657 20.589 12.266 19.713 24.532h-32.198c-.219 9.2.438 21.904 13.58 22.342zm6.79-26.504c.219-7.885-2.19-16.208-8.104-16.866-8.104-.657-10.952 9.2-11.828 16.866h19.932zm14.238-15.989V31.76l20.37-1.752v43.807l7.447 2.629v1.971h-26.941v-1.752l7.447-2.629V35.922l-8.323-2.19zm20.37-22.342c0 3.505-3.285 7.01-7.009 7.01s-7.009-3.505-7.009-7.01 3.285-7.01 7.009-7.01 7.009 3.505 7.009 7.01zm9.419-7.666V1.752L316.724 0v73.815l7.885 2.848v1.971h-27.598v-1.971s7.885-2.848 7.666-2.848V5.914l-8.323-2.19z" fill="#000"/><path d="M74.36 101.961H.547v1.315H74.36v-1.315zm11.61.219h4.38l13.362 19.933V102.18h3.285v24.094h-4.161l-13.361-19.932v19.932h-3.286V102.18h-.219zm35.265 0v14.895c0 .657 0 1.533.219 2.409.219.876.438 1.534 1.095 2.191a5.17 5.17 0 0 0 1.971 1.752c.876.438 1.753.657 2.848.657s2.19-.219 2.847-.657c.876-.438 1.314-1.095 1.972-1.752.438-.657.876-1.534 1.095-2.191.219-.657.219-1.533.219-2.409V102.18h3.285v15.333c0 1.314-.219 2.628-.657 3.943-.438 1.314-1.095 2.19-1.971 3.066-.876.876-1.752 1.533-3.067 1.971-1.314.439-2.409.658-3.723.658s-2.629-.219-3.724-.658c-1.095-.438-2.19-1.095-3.066-1.971-.876-.876-1.534-1.752-1.972-3.066-.438-1.315-.657-2.41-.657-3.943V102.18h3.286zm26.503 0h4.819l7.666 18.4h.219l7.666-18.4h4.819v24.094h-3.286v-19.932l-8.104 19.932h-2.19l-8.324-19.932v19.932h-3.285V102.18zm36.579 0h15.552v3.067h-12.266v7.228h11.39v3.067h-11.39v7.666h12.923v3.066h-16.209V102.18zm8.543-6.352h4.38l-5.038 4.819h-2.847l3.505-4.819zm17.303 6.352h8.543c1.533 0 2.847.22 3.723.658.876.438 1.753.876 2.41 1.533.657.657 1.095 1.314 1.314 2.19.219.876.438 1.533.438 2.41 0 .876-.219 1.533-.438 2.19s-.657 1.314-1.095 1.971c-.438.657-1.095 1.095-1.972 1.534-.876.438-1.533.657-2.409.657l6.79 10.951h-4.162l-6.133-10.732h-3.723v10.732h-3.286V102.18zm3.286 10.514h4.381c.657 0 1.314 0 1.971-.219s1.095-.219 1.752-.657a2.639 2.639 0 0 0 1.095-1.095c.219-.438.438-1.095.438-1.971 0-.877-.219-1.534-.438-1.972a2.639 2.639 0 0 0-1.095-1.095c-.438-.219-1.095-.438-1.752-.657-.657-.219-1.314-.219-1.971-.219h-4.381v7.885zm22.999-10.514h3.286v24.094h-3.286V102.18zm39.646 24.094h-14.019c-1.752 0-3.285-.219-4.818-.876-1.534-.657-2.848-1.533-3.943-2.628-1.095-1.095-1.971-2.41-2.628-3.943-.658-1.533-1.096-3.066-1.096-5.038 0-1.752.219-3.504.876-5.038.658-1.533 1.534-2.847 2.629-3.942 1.095-1.095 2.409-1.971 3.943-2.629 1.533-.657 3.066-.876 5.037-.876 1.753 0 3.286.219 4.819.876 1.533.658 2.848 1.534 3.943 2.629 1.095 1.095 1.971 2.409 2.628 3.723.657 1.315.876 3.067.876 4.819 0 1.095-.219 1.972-.438 3.067-.219 1.095-.657 1.971-1.095 2.847-.438.876-1.095 1.533-1.752 2.41-.657.657-1.533 1.314-2.41 1.533h7.229v3.066h.219zm-14.019-3.066c1.315 0 2.629-.219 3.724-.657 1.095-.438 1.971-1.095 2.847-1.972.877-.876 1.315-1.752 1.753-3.066.438-1.095.657-2.409.657-3.724 0-1.314-.219-2.409-.657-3.504-.438-1.095-1.095-2.191-1.972-2.848-.876-.876-1.752-1.533-2.847-1.971-1.095-.438-2.19-.657-3.505-.657-1.314 0-2.409.219-3.504.657-1.095.438-1.972 1.095-2.848 1.971-.876.876-1.533 1.753-1.971 2.848-.438 1.095-.657 2.19-.657 3.504 0 1.315.219 2.629.657 3.724.438 1.095 1.095 2.19 1.752 3.066.876.877 1.753 1.534 2.848 1.972 1.095.438 2.409.657 3.723.657zm25.627-21.028v14.895c0 .657 0 1.533.219 2.409.219.876.438 1.534 1.096 2.191a5.17 5.17 0 0 0 1.971 1.752c.876.438 1.752.657 2.847.657s2.191-.219 2.848-.657c.876-.438 1.314-1.095 1.971-1.752.438-.657.876-1.534 1.095-2.191.219-.657.219-1.533.219-2.409V102.18h3.286v15.333c0 1.314-.219 2.628-.657 3.943-.438 1.095-1.095 2.19-1.972 3.066-.876.876-1.752 1.533-3.066 1.971-1.314.439-2.409.658-3.724.658-1.314 0-2.628-.219-3.723-.658-1.095-.438-2.191-1.095-3.067-1.971-.876-.876-1.533-1.752-1.971-3.066-.438-1.096-.657-2.41-.657-3.943V102.18h3.285zm26.504 0h15.551v3.067h-12.266v7.228h11.39v3.067h-11.39v7.666h12.923v3.066h-16.208V102.18z" fill="#D51D2C"/></g><defs><clipPath id="clip0"><path fill="#fff" transform="translate(.546)" d="M0 0h329.868v127.151H0z"/></clipPath></defs></svg>