<svg version="1.1"
    xmlns="http://www.w3.org/2000/svg" role="img" viewBox="40 40 372 43">
    <title id="mgLogo">Montreal Gazette</title>
    <path d="m319.2 75.9c-1.6 3.2-3.5 4.1-8.4 4.2h-3.5l13-26.2v-0.1l-0.4-0.6h-6c-7.9 0-8.1-0.2-8.9-0.9h-1l-1.1 8.1h0.9l0.7-1.5c1.6-3.5 2.8-4.1 7.4-4.2h3l-13 26.2v0.1l0.4 0.6h17.1l1.6-7.2v-0.2h-0.9l-0.9 1.7z"></path>
    <path d="m296.5 76.7-6.9-24.2v-0.1h-1l-2.1 2-6.3 21.4c-0.9 3-1.9 4.3-3.2 4.7l-0.6 0.2v0.8h0.1 1.4c0.8 0 1.7-0.1 2.4-0.1 0.6 0 1.6 0 2.4 0.1h1.4 0.1v-0.8l-0.8-0.1c-1.2-0.2-1.8-0.8-1.8-2.1 0-0.9 0.2-2.2 0.6-3.8l1-3.8h6.9l1.4 5.3c0.2 1 0.4 1.9 0.4 2.6 0 1.1-0.5 1.6-1.7 1.8l-1 0.2v0.8h0.1 2c1.3 0 2.9-0.1 3.6-0.1 0.6 0 1.9 0 3.1 0.1h1.8 0.1v-0.8l-0.8-0.2c-1.2-0.4-1.9-1.4-2.6-3.9zm-6.8-7.5h-6l3.1-11.2 2.9 11.2z"></path>
    <path d="m408.6 76.8c-1.7 2.6-3 3.4-5.6 3.4h-0.3c-2.1 0-2.7-0.6-2.7-5v-7.7l1.6 0.1c3.6 0.2 3.9 1.1 4.1 3.3l0.1 1h1v-0.1-1.9-3.1-3.2-1.9-0.1h-1l-0.1 0.8c-0.3 2.7-0.5 3.4-4.1 3.6h-1.6v-11.4c0.8-0.1 1.6-0.2 2.1-0.2h0.3c2.7 0 4.2 1 5.8 3.8l0.7 1h0.8l-0.9-6.1v-0.1h-2.7-2.6-5-3.6-2.2-0.1v0.8l0.8 0.2c1.7 0.4 2.1 1 2.1 5.6v15.3c0 4.6-0.4 5.1-2.1 5.6l-0.8 0.2v0.8h0.1 2.1c1.4 0 2.9-0.1 3.5-0.1h3.1 4.6 3.4l1-6.1h-0.9l-0.9 1.5z"></path>
    <path d="m275.4 66.1 1.1-0.2v-1.1h-0.1c-0.4 0-1.4 0-2.5 0.1-1.3 0-2.8 0.1-3.7 0.1-1 0-3 0-4.7-0.1-1.3 0-2.4-0.1-2.7-0.1h-0.1v1.1l1.7 0.3c2.4 0.5 3 1.2 3 6.7v2.3c0 3.6-1.5 5.2-4.9 5.2-5.8 0-9.1-7.4-9.1-20.2 0-11.5 3.3-18.1 9.1-18.1 3.8 0 6 3.1 8.4 8l1.1 2.3h1.2l-1-9.5v-0.1c-2.9-1.7-5.8-2.5-9.2-2.5-8.1 0-16.7 7.2-16.7 20.7 0 13 6.1 21.1 16 21.1 4.2 0 9.1-1.1 12.5-2.8h0.1v-0.9h-0.1c-1.8-0.9-2-1.4-2-5.1v-0.7c-0.2-4.5 0.2-6 2.6-6.5z"></path>
    <path d="m388.6 52.3c-1.1 0.8-1.8 1-9.5 1-7.2 0-7.8-0.2-8.8-1h-1l-0.7 7.8v0.1h0.9l0.9-1.9c1.2-2.8 2.5-3.6 5.6-3.7h0.8v20.4c0 4.8-0.3 5-2.2 5.5l-1.2 0.3v0.8h0.1 2c1.3 0 2.9-0.1 3.5-0.1 0.7 0 2.3 0 3.7 0.1h1.9 0.1v-0.8l-1.2-0.3c-1.9-0.5-2.2-0.7-2.2-5.5v-20.5h1.1c3.6 0.1 4.5 1.1 5 3.9l0.4 1.7h0.9l1-7.8v-0.1l-1.1 0.1z"></path>
    <path d="m339.2 76.8c-1.7 2.6-3 3.4-5.6 3.4h-0.3c-2.1 0-2.7-0.6-2.7-5v-7.7l1.6 0.1c3.6 0.2 3.9 1.1 4.1 3.3l0.1 1h1v-0.1-1.9-3.1-3.2-1.9-0.1h-1l-0.1 0.8c-0.3 2.7-0.5 3.4-4.1 3.6l-1.6 0.1v-11.5c0.8-0.1 1.6-0.2 2.1-0.2h0.3c2.7 0 4.2 1 5.8 3.8l0.7 1h0.8l-0.9-6.1v-0.1h-2.7-2.6-5-3.6-2.2-0.3v0.8l0.8 0.2c1.7 0.4 2.1 1 2.1 5.6v15.3c0 4.6-0.4 5.1-2.1 5.6l-0.8 0.2v0.8h0.1 2.1c1.4 0 2.9-0.1 3.5-0.1h3.1 4.6 3.4l1-6.1h-0.8l-0.8 1.5z"></path>
    <path d="m364.3 52.3c-1.1 0.8-1.8 1-9.5 1-7.2 0-7.8-0.2-8.8-1h-1l-0.7 7.9h0.9l0.9-1.9c1.2-2.8 2.5-3.6 5.6-3.7h0.8v20.4c0 4.8-0.3 5-2.2 5.5l-1.2 0.3v0.8h0.1 2c1.3 0 2.9-0.1 3.5-0.1 0.7 0 2.3 0 3.7 0.1h1.9 0.1v-0.8l-1.2-0.3c-1.9-0.5-2.2-0.7-2.2-5.5v-20.5h1.1c3.6 0.1 4.5 1.1 4.9 3.9l0.4 1.7h0.9l1-7.8v-0.1l-1 0.1z"></path>
    <path d="m214.5 76.6-6.9-24.2v-0.1h-1l-2.1 2-6.3 21.4c-0.9 3-1.9 4.3-3.2 4.7l-0.6 0.2v0.8h0.1 1.4c0.8 0 1.7-0.1 2.4-0.1 0.6 0 1.6 0 2.4 0.1h1.4 0.1v-0.8l-0.8-0.1c-1.2-0.2-1.8-0.8-1.8-2.1 0-0.9 0.2-2.2 0.6-3.8l1.1-3.8h6.9l1.4 5.3c0.2 1 0.4 1.9 0.4 2.6 0 1.1-0.5 1.6-1.7 1.8l-1.1 0.2v0.8h0.1 1.9c1.3 0 2.9-0.1 3.6-0.1 0.6 0 1.9 0 3.1 0.1h1.8 0.1v-0.8l-0.8-0.2c-1.1-0.4-1.8-1.4-2.5-3.9zm-6.8-7.5h-6l3.1-11.2 2.9 11.2z"></path>
    <path d="m92.4 81.8c3.1 0 5.8-1.4 7.7-4s3-6.3 3-10.7c0-9-4.2-14.7-10.7-14.7s-10.7 5.8-10.7 14.6c0 9.1 4.2 14.8 10.7 14.8zm-0.6-28.1c4.5 0 6.1 7.7 6.1 14.9 0 8.2-1.6 12.1-5 12.1-4.6 0-6.2-7.7-6.2-14.9 0.1-8.3 1.7-12.1 5.1-12.1z"></path>
    <path d="m144.9 81.4h0.1v-0.8l-1.2-0.3c-1.9-0.5-2.2-0.7-2.2-5.5v-20.4h1.1c3.6 0.1 4.5 1.1 4.9 3.9l0.4 1.7h0.9l1-7.8v-0.1h-1c-1.1 0.8-1.8 1-9.5 1-7.2 0-7.8-0.2-8.8-1h-1l-0.7 7.9h0.9l0.9-1.9c1.3-2.8 2.5-3.6 5.6-3.7h0.8v20.4c0 4.8-0.3 5-2.2 5.5l-1.2 0.3v0.8h0.1 2c1.3 0 2.9-0.1 3.5-0.1 0.7 0 2.3 0 3.7 0.1h1.9z"></path>
    <path d="m236.5 74.5-0.9 1.6c-1.7 3-3 4-5.3 4h-0.1c-2.1 0-2.7-0.7-2.7-5v-15.6c0-4.6 0.3-5 2.2-5.5l1.2-0.3v-0.8h-0.1-2.1-3.7-3-1.8-0.1v0.8l0.8 0.2c1.7 0.4 2.1 1 2.1 5.6v15.3c0 4.6-0.4 5.1-2.1 5.6l-0.8 0.2v0.8h0.1 2.3c1.4 0 3-0.1 3.6-0.1h2.7 4.1 3.4l1.2-6.9-1 0.1z"></path>
    <path d="m177.9 81.4c1.4 0 2.9-0.1 3.5-0.1h3.1 4.6 3.4l1-6.1h-0.9l-0.9 1.4c-1.7 2.6-3.1 3.4-5.6 3.4h-0.3c-2.1 0-2.7-0.6-2.7-5v-7.7l1.6 0.1c3.6 0.2 3.9 1.1 4.1 3.3l0.1 1h1.1v-0.1-1.9c0-1.1-0.1-2.2-0.1-3.1s0-2.1 0.1-3.2v-1.9-0.1h-1.1l-0.1 0.8c-0.3 2.7-0.5 3.4-4.1 3.6l-1.6 0.1v-11.4c0.8-0.1 1.6-0.2 2.1-0.2h0.3c2.7 0 4.2 1 5.8 3.8l0.7 1h0.8l-0.9-6.1v-0.1h-2.7-2.6-5-3.6-2.2-0.1v0.8l0.8 0.2c1.7 0.4 2.1 1 2.1 5.6v15.3c0 4.6-0.4 5.1-2.1 5.6l-0.8 0.2v0.8h0.1 2.1z"></path>
    <path d="m107.6 56.5-0.2 17.9c0 4.7-0.6 5.5-2.5 6l-0.4 0.1v0.8h0.1 1.4c0.8 0 1.7-0.1 2.3-0.1s1.6 0 2.5 0.1h1.4 0.1v-0.8l-0.4-0.1c-2.4-0.5-2.8-1.4-2.8-6l-0.1-15.7 13.8 22.9v0.1l1-0.2 0.2-21.7c0-4.6 0.6-5.5 2.5-6l0.4-0.1v-0.8h-0.1-1.4-2.2-2.6-1.5-0.1v0.8l0.4 0.1c2.3 0.4 2.8 1.4 2.8 6l0.1 12.8-11.5-19.7v-0.1h-0.1c-0.8 0.1-2.7 0.1-3.7 0.1-1.2 0-2.4 0-3-0.1h-0.1v0.8l0.5 0.2c1.3 0.5 2 1.1 3.2 2.7z"></path>
    <path d="m46.2 81.3c1 0 2.5 0 3.7 0.1h2 0.1v-1.1l-0.9-0.2c-3.3-0.7-3.7-1.8-3.5-8.6l0.5-20.8 10.1 30.8v0.1h1.3l9.7-30.9 0.8 21.5c0.2 6.8-0.1 7.1-3 7.9l-1.2 0.3v1h0.2c0.4 0 1.5 0 2.7-0.1 1.8 0 3.8-0.1 4.7-0.1s2.8 0 4.5 0.1c1.2 0 2.2 0.1 2.6 0.1h0.1v-1.1l-0.6-0.1c-3-0.6-3.5-1.7-3.7-7.9l-0.6-21c-0.2-7.1 0.4-8.4 2.6-8.9l1.7-0.4v-1.1h-0.1c-1.1 0.1-4.1 0.1-5.8 0.1-0.8 0-3-0.1-3.8-0.1h-0.1l-9.2 30.2-9.4-30.1v-0.1h-0.1c-1.2 0.1-3.6 0.1-5 0.1-0.9 0-2.1 0-3.1-0.1h-1.8-0.1v1.1l1.7 0.5c2.1 0.7 3.2 2.2 2.8 8.7l-0.9 20.3c-0.3 6.8-1.2 8-4.1 8.8l-0.3 0.1v1.1h0.1c0.4 0 1.1 0 2-0.1 1.2-0.1 2.5-0.1 3.4-0.1z"></path>
    <path d="m160.3 74.8v-5.9h0.3 0.5l4.2 9c1.3 2.8 2.7 3.7 5.6 3.7 1 0 1.9-0.1 2.6-0.2h0.1l-0.1-0.8h-0.1c-1.5-0.2-2-0.9-3.6-4l-4.4-9c3.1-1.4 5-4.1 5-7.3 0-4.5-3.1-7.2-8.1-7.2h-2.5-2.2-3.1-1.9-0.1v0.8l0.8 0.2c1.7 0.4 2.1 1 2.1 5.6v15.3c0 4.6-0.4 5.1-2.1 5.6l-0.8 0.2v0.8h0.1 1.9c1.2 0 2.5-0.1 3.2-0.1 0.6 0 2.1 0 3.4 0.1h2 0.1v-0.8l-1-0.2c-1.5-0.8-1.9-0.9-1.9-5.8zm1.8-20.7c2.6 0 3.7 2 3.7 6.5 0 4.6-1.4 6.7-4.4 6.7-0.5 0-0.7 0-1-0.1h-0.1v-13c0.3-0.1 0.8-0.1 1.8-0.1z"></path>
</svg>