<svg version="1.1"
    xmlns="http://www.w3.org/2000/svg" role="img" viewBox="0 0 458 60">
    <title id="npLogo">National Post</title>
    <g>
        <path d="m299.1 42.419l-0.68319 16.443h-23.38-10.338v-0.83c0.67818 0 2.7898-0.678 5.9606-2.264 1.4534-0.723 1.8875-1.129 1.8875-2.639v-46.316c0-1.509-0.43412-1.914-1.8875-2.639-3.1709-1.586-5.5825-2.264-6.2657-2.264v-0.83h22.188v0.831c-0.60416 0-2.7978 0.528-6.2667 2.264-1.4524 0.725-1.8865 1.13-1.8865 2.639v42.772c0 7.092 0.3751 7.592 5.8136 7.695l3.9131 0.018c3.4689 0.068 4.6123-0.43 5.2094-1.828 2.4847-5.885 4.5983-10.865 4.8233-13.051h0.91225v-1e-3z"></path>
        <path d="m223.05 1.912c-1.7345 0.075-4.2252 1.056-6.4127 3.317-1.3054 1.349-2.1126 2.604-2.1126 9.432v44.729h-1.6615l-22.034-47.9v33.72c0 6.826 0.45212 8.07 1.9625 9.58 1.8125 1.811 4.1511 3.018 6.5668 3.242v0.83h-18.791v-0.83c2.0366-0.146 3.9241-1.131 6.4138-3.318 1.4064-1.238 2.1126-2.604 2.1126-9.428v-33.493c0-3.168-0.23306-4.574-1.3554-6.033-1.5094-1.963-4.8313-3.772-8.2272-3.773v-0.906h12.828l20.45 44.504v-30.85c0-6.827-0.55115-7.975-1.9635-9.58-1.6585-1.886-4.4532-3.018-6.5658-3.243v-0.831h18.791v0.831z"></path>
        <path d="m139.53 58.863h-22.184v-0.83c0.67919 0 3.0908-0.904 6.2647-2.488 1.4524-0.727 1.8875-0.904 1.8875-2.414v-46.317c0-1.51-0.43512-1.914-1.8875-2.641-3.1739-1.585-5.5855-2.262-6.2647-2.262v-0.83h22.184v0.831c-0.60416 0-2.7908 0.527-6.2607 2.262-1.4564 0.727-1.8875 1.131-1.8875 2.641v46.315c0 1.51 0.43112 1.914 1.8875 2.639 3.4699 1.734 5.6555 2.264 6.2607 2.264v0.83z"></path>
        <path d="m112.94 16.319h-0.82622c-0.15204-2.565-2.7157-9.125-4.3802-12.22-0.60416-1.133-1.8105-1.51-4.6023-1.51h-3.772v50.541c0 1.51 0.43112 1.914 1.8875 2.639 3.4689 1.734 5.6585 2.264 6.2637 2.264v0.83h-22.187v-0.83c0.68119 0 3.0948-0.676 6.2637-2.264 1.4554-0.725 1.8865-1.129 1.8865-2.639v-50.54h-3.771c-2.7948 0-3.9981 0.377-4.6053 1.51-1.6605 3.095-4.1481 9.654-4.3752 12.22h-0.83123v-15.239h33.049v15.238z"></path>
        <path d="m37.376 5.229c-1.3034 1.348-2.1126 2.604-2.1126 9.432v44.729h-1.6605l-22.032-47.9v33.72c0 6.822 0.45012 8.064 1.9615 9.58 1.8115 1.811 4.1501 3.018 6.5658 3.242v0.83h-18.792v-0.83c2.0376-0.148 3.9241-1.131 6.4138-3.318 1.4084-1.238 2.1126-2.604 2.1126-9.432v-33.49c0-3.169-0.23406-4.574-1.3574-6.034-1.5084-1.962-4.8293-3.772-8.2262-3.773v-0.905h12.83l20.449 44.505v-30.851c0-6.829-0.55115-7.976-1.9625-9.581-1.6615-1.885-4.4532-3.016-6.5638-3.241v-0.831h18.788v0.831c-1.7335 0.074-4.2262 1.055-6.4127 3.317z"></path>
        <path d="m245.75 38.646l-6.8639-28.286-6.6448 28.286h13.509zm16.376 20.217h-20.676v-0.83c0.75321 0 3.0158-0.6 6.4858-2.551 0.76321-0.43 1.1323-1.066 1.1323-1.672 0-0.602-0.14504-1.225-0.30008-1.889l-2.7918-11.768h-14.038l-1.8855 8.6c-0.32809 1.504-0.45212 2.869-0.45212 3.623 0 1.281 0.78822 2.506 2.0346 3.471 2.0386 1.574 3.4759 2.186 4.6053 2.186v0.83h-17.128v-0.83c1.3564 0 3.755-1.293 5.8826-3.318 1.5124-1.434 2.2616-3.34 2.8708-5.807l11.995-48.505h2.1876l12.605 51.746c0.41411 1.713 0.78822 2.502 1.8095 3.094 3.2469 1.887 5.0564 2.791 5.6615 2.791v0.829z"></path>
        <path d="m170.44 29.747c0-13.729-1.5874-28.592-9.6586-28.592-8.0752 0-9.5066 14.41-9.5066 28.891 0 14.032 1.5844 28.743 9.5066 28.743 7.8471 0 9.6586-14.184 9.6586-29.042m6.7138-0.228c0 10.635-2.2646 30.401-16.448 30.401-13.734 0-16.146-19.387-16.146-29.419 0-11.165 2.1866-30.475 16.222-30.475 13.656-1e-3 16.372 19.16 16.372 29.493"></path>
        <path d="m65.207 38.646l-6.8669-28.286-6.6398 28.286h13.507zm16.676 20.217h-20.975v-0.83c0.75421 0 2.8658-0.6 6.4878-2.551 0.77121-0.416 1.1313-1.066 1.1313-1.672 0-0.602-0.14404-1.225-0.30008-1.889l-2.7938-11.768h-14.036l-1.8855 8.6c-0.32809 1.504-0.45312 2.869-0.45312 3.623 0 1.281 0.79122 2.506 2.0396 3.471 2.0376 1.574 3.4699 2.186 4.6023 2.186v0.83h-17.13v-0.83c1.3584 0 3.756-1.293 5.8856-3.318 1.5114-1.434 2.2566-3.34 2.8688-5.807l11.997-48.506h2.1866l12.605 51.746c0.41311 1.713 0.78721 2.502 1.8105 3.094 3.2449 1.887 5.3555 2.791 5.9586 2.791v0.83h-0.0010003z"></path>
        <path d="m420.82 46.171c0 9.656-5.8136 13.805-13.13 13.805-4.5272 0-7.246-2.867-8.9054-5.053l-2.7918 3.994h-0.90325l-0.3781-18.629h0.98127c0.45212 2.562 1.8315 6.82 2.8528 9.42 2.3706 6.039 4.8443 9.137 9.0695 9.137 4.9794 0 7.5431-5.354 7.5431-10.262 0-6.939-4.5242-12.371-9.9467-17.651-5.3745-5.231-10.575-10.667-10.575-18.479 0-8.45 5.8086-12.372 11.922-12.372 4.7533 0 6.8649 2.111 8.3013 3.846l2.4137-2.79h0.7532v16.596h-0.83323c-0.22406-2.038-1.7145-6.341-2.6417-8.825-2.0326-5.432-3.845-7.694-7.8471-7.694-4.2992 0-6.6388 3.62-6.6388 9.202 0 5.96 4.6293 10.788 9.6336 15.766 5.6105 5.579 11.12 12.068 11.12 19.989"></path>
        <path d="m381.78 29.799c0-13.727-1.2844-28.586-9.6576-28.586-8.1482 0-9.5086 13.276-9.5086 28.892 0 15.01 1.5874 28.743 9.5086 28.743 7.8491-1e-3 9.6576-13.358 9.6576-29.049m6.7168-0.226c0 10.639-2.2646 30.403-16.445 30.403-13.738 0-16.15-19.389-16.15-29.418 0-11.165 2.1876-30.478 16.221-30.478 13.657 0 16.374 19.162 16.374 29.493"></path>
        <path d="m345.81 17.582c0-10.411-3.1729-14.938-11.922-14.938h-2.9438v28.738h3.846c7.324 0 11.02-4.899 11.02-13.8m-9.5826 15.312h-5.2834v20.291c0 1.51 0.43212 1.916 1.8865 2.643 3.4699 1.73 5.6615 2.264 6.2617 2.264v0.826h-22.182v-0.826c0.68119 0 3.0878-0.908 6.2627-2.492 1.4544-0.727 1.8875-0.904 1.8875-2.414v-46.316c0-1.517-0.43312-1.913-1.8875-2.642-3.1689-1.584-5.5815-2.263-6.2627-2.263v-0.828h19.018c9.0495 0 16.143 4.979 16.143 15.464 0 10.787-7.9232 16.293-15.844 16.293z"></path>
        <path d="m457.87 16.374h-0.83123c-0.15104-2.564-2.7177-9.125-4.3782-12.22-0.60416-1.131-1.8095-1.509-4.6013-1.509h-3.774v50.54c0 1.51 0.43412 1.916 1.8905 2.643 3.4689 1.73 5.6545 2.264 6.2587 2.264v0.828h-22.184v-0.828c0.67818 0 3.0918-0.684 6.2667-2.264 1.4514-0.727 1.8825-1.133 1.8825-2.643v-50.539h-3.771c-2.7908 0-3.9961 0.378-4.6043 1.509-1.6615 3.095-4.1491 9.655-4.3732 12.22h-0.83223v-15.238h33.051v15.237z"></path>
        <path d="m306.93 10.455c0.32509 0.522 0.3571 1.206 0.3571 1.206 0.13204 1.511 1.2733 2.06 1.2733 2.06s-0.63917 0.052-0.25707 0.642c0.3811 0.59 0.54515 1.191 0.54515 1.191 0.34209 1.22 1.0853 0.853 1.0853 0.853-0.088024 0.471-0.66418 1.039-1.3544 1.876-0.69019 0.836-0.41211 1.71-0.41211 1.71-0.44512 0.146-0.50014 0.589-0.50014 0.589-0.18305 2.087 1.6364-0.32 1.8895-0.73 0.25107-0.411 1.0333-0.868 1.0333-0.868-0.17205 0.202-0.48813 1.349 0.41511 0.902 0.90625-0.446 1.8285 0.145 1.8285 0.145s1.2563 0.65 2.1086 0.277c0.85223-0.375 1.1573-0.146 1.1573-0.146-0.30208 0.082-1.1233 1.169-1.7675 2.505-0.64118 1.335 0.020006 1.206 0.020006 1.206s0.085023 0.271-0.90925 0.849c-0.99327 0.577-0.75521 1.742-0.060016 2.096 0.69519 0.355 1.1103 0.916 1.1103 0.916-0.42212-0.299-1.4264-0.309-2.0466-0.1-0.62217 0.207-1.7685 0.062-2.7668 0.159-0.99927 0.098-1.5604 0.853-0.91825 1.479 0.64118 0.629 0.95226 1.105 1.0203 1.589 0.066018 0.486 0.41111 0.591 0.41111 0.591 0.85923 0.447 1.2133 0.973 1.2133 0.973-1.0213-0.508-2.5757-0.055-3.745-0.127-1.1683-0.07-1.1533 1.537-1.1533 1.537-0.46113-0.75-1.2423-1.344-1.7715-1.84-0.52914-0.494-1.8575-0.146-0.98527 0.826 0.87424 0.975 0.83223 1.635 0.83223 1.635s-0.30108-0.799-2.2956-1.344c-1.9925-0.547-3.4569-3.238-3.4569-3.238-1.4674 0.859-2.5157 4.353-2.5157 4.353-0.57816 2.02-2.4847 4.729-2.7568 5.014-0.27308 0.287-0.98627 1.197-1.2253 1.965-0.23506 0.768-0.77821 0.967-0.77821 0.967-0.7392-0.203-0.26607-0.857-0.26607-0.857 1.1393-0.643 4.0331-4.578 4.6673-7.242 0.63717-2.664 2.5107-4.633 2.5107-4.633s-1.0393 0.389-1.7285-0.229c-0.68819-0.616-0.97627-0.519-0.97627-0.519s-1.2733-0.095-2.3196-0.695c-1.0453-0.603-2.0806-0.246-2.0806-0.246s0.70319-0.787 1.2934-0.829c0.59116-0.041 0.96126-1.091 0.61817-1.229-0.34409-0.138-0.88324-0.51-1.1803-0.828-0.29608-0.319-1.2663-0.729-1.2663-0.729 0.42712-0.271 0.51414-1.625-0.60016-2.68-1.1143-1.056-1.3724-2.176-1.3724-2.176s0.99527 0.643 1.4114 0.664c0.41511 0.021 0.82822 0.241 0.82822 0.241 0.43512-0.192 0.86924-0.016 0.86924-0.016 0.59616 0.238 1.3404-0.131 1.3404-0.131 0.24207-0.117 0.47713-0.685 0.03701-1.311-0.44012-0.625-0.43512-1.566-0.43512-1.566-0.021006-1.008-1.0343-2.147-1.0343-2.147 0.79422 0.642 1.4354 0.388 1.4354 0.388 1.2984-0.35 0.65118-1.798 0.65118-1.798 0.78021-0.086 1.5284-1.396 1.6805-2.233 0.15004-0.836 0.39611-1.356 0.39611-1.356 0.025007 0.234 0.12303 0.352 0.12303 0.352 0.56716 0.775 0.60616 1.026 0.60616 1.026s0.18905 0.666 0.64518 0.938c0.45612 0.272 0.88224 0.881 0.88224 0.881 0.57116 0.886 1.0303-0.297 1.0303-0.297 0.18605 1.949 0.75421 2.863 0.75421 2.863-0.32309 0.327-0.30408 0.654-0.30408 0.654-0.028008 1.559 1.2093-0.219 1.6404-0.722 0.43112-0.504 0.16905-0.882 0.16905-0.882 0.70719-0.479 0.52014-2.397 0.52014-2.397l0.69319 0.726c0.3681 0.373 0.92625 0.019 1.0453-0.449 0.11803-0.469 0.40111-0.877 0.40111-0.877 0.30908 0.707 1.7295 0.196 1.7295 0.196 0.64018-0.252 0.91325-1.249 0.91325-1.249l0.047012-0.324z"></path>
    </g>
    <g fill="#fff">
        <path d="m303.18 33.166c-0.90525-0.363-2.4627-0.727-2.8158-1.775-0.16304-0.1-0.30808-0.232-0.41411-0.416-0.002001-3e-3 0.012003-0.01 0.014004-7e-3 0.46713 0.518 1.1593 0.407 1.7735 0.563 0.56215 0.143 0.91925 0.535 1.3154 0.934 0.087024 0.086-0.10103 0.18-0.17305 0.148-0.3681-0.158-0.56816-0.467-0.90625-0.654-0.30008-0.168-0.61117-0.188-0.93226-0.287-0.23006-0.072-0.45312-0.146-0.64918-0.264 0.53915 1.018 2.0386 1.072 2.9278 1.668 0.082023 0.054-0.093025 0.109-0.14004 0.09"></path>
        <path d="m298.87 29.285c0.77821-0.391 0.78522-1.699 1.1343-2.447 1.0463-2.241 2.4407-4.453 3.755-6.531"></path>
        <path d="m305.08 18.174c0 1e-3 -0.005001 0-0.005001 0 0.22206-0.278-0.062017 0.237-0.10803 0.333-0.12403 0.254-0.25707 0.505-0.40411 0.746-0.30008 0.493-0.55915 1.016-0.87624 1.497-0.40711 0.621-0.86024 1.202-1.1163 1.904-0.20606 0.562-0.3731 1.138-0.62317 1.684-0.49814 1.09-1.4254 1.902-2.0085 2.944-0.42612 0.76-0.55715 1.762-1.2964 2.275-0.099027 0.068-0.51514-0.148-0.44012-0.28 0.26507-0.475 0.58116-0.659 0.83523-1.144 0.26307-0.496 0.51914-0.995 0.80722-1.477 0.28408-0.476 0.65918-0.892 1.0053-1.32 0.3711-0.461 0.65818-0.935 0.90925-1.469 0.49714-1.052 1.0213-2.086 1.6795-3.045 0.61917-0.901 1.2794-1.776 1.7175-2.784 1e-3 -3e-3 0.012003-1e-3 0.012003 2e-3 0.008003 0.038-0.065017 0.107-0.088024 0.134"></path>
        <path d="m311.77 23.601c0.006001-2e-3 0.042011-1e-3 0.026007 6e-3 -2.3006 0.965-4.6983 1.718-6.9449 2.805-1.1003 0.532-2.1416 1.175-3.2409 1.712-0.59716 0.289-1.1963 0.575-1.7755 0.896-0.43112 0.24-0.83323 0.545-1.2964 0.715-0.12503 0.045-0.26207-0.084-0.16004-0.194 0.41911-0.456 1.0173-0.739 1.5594-1.023 0.51014-0.264 1.0263-0.516 1.5434-0.767 1.0983-0.535 2.1376-1.183 3.2459-1.694 2.2686-1.045 4.7293-1.532 7.0429-2.456"></path>
        <path d="m296.31 20.432c-1e-3 -1e-3 0.050014 0.245 0.052014 0.247 0.86424 1.65 1.4534 2.921 1.9165 4.322 0.25407 0.77 0.42412 1.621 0.47113 2.431 0.024006 0.428 0.15704 1.466-0.29508 1.715-0.061017 0.033-0.20406 0.329-0.21306 0.244-0.034009-0.304 0.11903-0.923 0.13704-1.231 0.023007-0.417 0.004001-0.832-0.045012-1.247-0.084023-0.706-0.22606-1.404-0.3791-2.099-0.30108-1.355-0.53215-2.395-1.5924-4.269l-0.052014-0.113z"></path>
        <path d="m296.77 11.965c0.019005 0.157 0.031008 0.314 0.042011 0.47-0.009002-0.156-0.017005-0.312-0.021006-0.467-1e-3 -4e-3 -0.019005-4e-3 -0.021005-3e-3"></path>
        <path d="m296.83 12.649c-0.005001-0.072-0.010002-0.145-0.015004-0.215 0.005002 0.071 0.010003 0.142 0.015004 0.215"></path>
        <path d="m298.69 17.509c0.10903 0.484 0.30708 0.946 0.41811 1.433 0.21206 0.929 0.042011 1.763-0.027008 2.694-0.072019 0.981 0.19105 1.939 0.43612 2.881 0.002001 3e-3 -0.023006 6e-3 -0.025006 0-0.28508-0.905-0.67718-1.92-0.62017-2.885 0.061017-1.039 0.22006-1.959-0.060016-2.989-0.11703-0.43-0.24307-0.847-0.29408-1.29-0.051014-0.437-0.079022-0.912-0.28208-1.312-0.3831-0.756-0.77921-1.4-0.91025-2.254 0 0 0.003001 0 0.004002 1e-3 0.093025 0.486 0.25007 0.95 0.49013 1.387 0.20906 0.379 0.46313 0.734 0.61417 1.143 0.14004 0.379 0.16805 0.797 0.25607 1.191"></path>
        <path d="m293.38 24.479c-0.56315-0.789-0.92725-1.712-1.6294-2.401-0.60316-0.591-1.2814-1.08-1.6595-1.855-1e-3 -1e-3 0.004001-3e-3 0.006002-2e-3 0.45612 0.881 1.3074 1.385 1.9775 2.082 0.63217 0.656 1.0923 1.449 1.6925 2.133 1.1513 1.311 2.7598 2.354 3.574 3.931 0.03601 0.072-0.13704 0.137-0.18205 0.086-0.62617-0.688-1.2663-1.361-1.9385-2.006-0.64518-0.621-1.3174-1.239-1.8405-1.968"></path>
        <path d="m297.01 28.946c0.012004 9e-3 -0.055015 0.024-0.072019 0.013-0.20906-0.16-0.40111-0.33-0.58616-0.509-0.021006 0.012-0.047013 0.02-0.07302 0.018-0.60116-0.045-1.0483-0.365-1.5684-0.633-0.63117-0.323-1.7315-0.731-2.4047-0.351-0.004001 2e-3 -0.013004-1e-3 -0.013004-2e-3 0.47713-0.312 1.1653-0.125 1.6825-0.03 0.78321 0.143 1.4994 0.496 2.2146 0.834-0.7452-0.772-1.3434-1.683-2.0616-2.486-0.84523-0.943-1.9295-1.755-2.2986-3.019 0-1e-3 0.010003-2e-3 0.010003-1e-3 0.47213 1.263 1.5684 2 2.4127 2.996 0.91325 1.077 1.6775 2.244 2.7578 3.17"></path>
        <path d="m295.26 27.661c-0.59016-0.362-1.2003-0.643-1.8875-0.766-1e-3 -1e-3 0.006002-5e-3 0.008003-5e-3 0.7262 0.029 1.3804 0.284 1.9605 0.719 0.026007 0.018-0.057016 0.066-0.081023 0.052"></path>
        <path d="m304.38 23.435c0.50314-0.204 1.0533-0.346 1.5424-0.592 0.66818-0.338 1.2103-0.847 1.8125-1.289 3e-3 -1e-3 0.016004-5e-3 0.013003-3e-3 -0.81222 0.671-1.4794 1.335-2.4597 1.721-1.2293 0.482-2.5797 0.763-3.744 1.489-0.027007 0.018-0.12203 0.041-0.059016-4e-3 0.90625-0.629 1.9225-0.927 2.8948-1.322"></path>
        <path d="m301.84 23.815c-0.07302 0.079 0.10803 0.114 0.16004 0.081 0.82022-0.531 1.8835-0.696 2.8038-0.995 0.78922-0.253 1.5954-0.66 2.1596-1.274 1e-3 -1e-3 -0.013004-3e-3 -0.016005-1e-3 -0.76221 0.553-1.7845 0.85-2.6887 1.078-0.89124 0.226-1.7645 0.419-2.4187 1.111"></path>
        <path d="m308.62 21.558c0.83823-0.417 1.9545-0.65 2.6167-1.359 0 0-2e-3 1e-3 -3e-3 1e-3 -0.89424 0.48-1.8885 0.698-2.7237 1.297-0.077021 0.056 0.067019 0.08 0.11003 0.061"></path>
        <path d="m310.79 24.667c0.57216-0.151 1.1363-0.089 1.7175-0.044 0.046013 2e-3 0.13904-0.053 0.053015-0.067-0.46113-0.085-0.91725-0.156-1.3754-0.115 0.83523-0.49 1.6595-1.024 2.4167-1.621 0 0-0.006002-1e-3 -0.007002-1e-3 -0.97327 0.562-1.8595 1.28-2.8988 1.719-1.2613 0.53 0.003001 0.153 0.094026 0.129"></path>
        <path d="m307.56 17.089c0.20306-0.365 0.50614-1.051 0.99427-1.106 0.004001 0 0.012003 2e-3 0.003001 3e-3 -0.56115 0.088-0.94526 1.203-1.1453 1.633-0.25307 0.548-0.47413 1.136-0.80422 1.645-0.013004 0.019-0.094026 0.016-0.082023-6e-3 0.39211-0.696 0.64518-1.467 1.0343-2.169"></path>
        <path d="m305.56 21.301c-0.054015 0.031 2e-3 0.037 0.035009 0.021 0.39011-0.187 0.7202-0.434 1.0313-0.732 0.29808-0.287 0.69919-1.001 1.1043-1.125 0.005001-1e-3 0.018005-9e-3 0.006002-6e-3 -0.19305 0.042-0.32509 0.147-0.45612 0.301-0.50314 0.588-1.0423 1.153-1.7205 1.541"></path>
        <path d="m297.56 13.389c0.003001-0.023 0.009003 3e-3 0.008003 0.011-0.081023 0.801 0.91225 1.716 1.2083 2.344 0.31008 0.654 0.50614 1.339 0.55315 2.122 0.004001 0.066-0.052014 0.172-0.067018 0.062-0.18905-1.377-0.81022-2.522-1.4984-3.605-0.18005-0.284-0.27408-0.554-0.20406-0.934"></path>
        <path d="m312.87 26.809c0.018005-7e-3 0.021006 1e-3 0.003001 8e-3 -1.3394 0.551-2.8278 0.405-4.2332 0.32-0.84523-0.051-1.6865-0.17-2.5317-0.195-0.83523-0.024-1.6424 0.089-2.4657 0.212-0.10703 0.017-0.17905-0.104-0.065017-0.162 1.2663-0.669 2.7968-0.447 4.1621-0.303 0.71019 0.075 1.4204 0.147 2.1296 0.226 1.0033 0.11 2.0316 0.259 3.0008-0.106"></path>
        <path d="m310.5 27.393c0.003001 1e-3 0.009003-2e-3 0.009003-3e-3 -0.31208-0.108-0.62317-0.095-0.93826-0.046 0.32209-0.043 0.63717-0.043 0.92925 0.049"></path>
        <path d="m309.13 27.428c0.14704-0.031 0.29608-0.062 0.44412-0.084-0.21306 0.026-0.42912 0.071-0.64218 0.123 0.068018-0.015 0.13204-0.027 0.19805-0.039"></path>
        <path d="m308.93 27.466c-0.30908 0.071-0.61317 0.152-0.89724 0.197-0.68519 0.105-1.3544 0.124-2.0456 0.079-0.89124-0.059-1.6555 0.017-2.5097 0.291-0.68219 0.219-1.3514 0.481-2.0636 0.584-0.099027 0.014-0.12904-0.078-0.041011-0.124 0.85823-0.461 1.7855-0.776 2.7397-0.967 0.7292-0.146 1.4044-5e-3 2.1286 0.092 0.91225 0.123 1.7965 0.022 2.6887-0.152"></path>
        <path d="m297.19 21.786c-0.062017-0.961 0.026007-1.927-0.14504-2.881-0.12003-0.681-0.3521-1.334-0.56215-1.991-0.099027-0.559-0.23106-1.111-0.3661-1.65-0.27408-1.103-0.10903-2.257-0.25207-3.377 0-1e-3 -2e-3 0-2e-3 0 0.10603 1.074-0.033009 2.154-0.006002 3.23 0.021006 0.781 0.54615 2.869 0.92225 4.4 0.026007 0.398 0.026007 0.799 0.024006 1.199-0.23306-0.645-0.45912-1.27-0.46113-1.277-0.32409-1.052-0.7322-2.103-0.7322-3.218-0.001001-1.174-0.03401-2.302-0.19705-3.468 0-1e-3 -0.002001-1e-3 -0.002001-1e-3 0.049014 0.585 0.11003 1.169 0.13604 1.756 0.024007 0.617-0.048013 1.23-0.054014 1.848-0.010003 0.842 0.65018 2.795 1.3114 4.497-0.002001 0.227-0.002001 0.452 2e-3 0.678-0.11603-0.255-0.19805-0.433-0.20206-0.439-0.52114-1.049-1.0963-2.398-1.3164-3.563-0.24907-1.32-0.12303-2.736-0.17305-4.076 0 0-0.011003 4e-3 -0.011003 6e-3 -0.009003 0.678-0.041012 1.353-0.079022 2.028-0.039011 0.7-0.11903 1.418 0.017005 2.111 0.15404 0.784 1.0413 2.735 1.7725 4.2 0.003001 0.081 0.006002 0.161 0.010003 0.241 0.008002 0.11 0.021006 0.218 0.03501 0.323-0.053015-0.117-0.10703-0.235-0.16504-0.35-0.45913-0.894-1.1233-1.634-1.5264-2.57-0.3601-0.834-0.63317-1.734-0.66518-2.647-0.030009-0.875 0.16304-1.731 0.090024-2.613 0-3e-3 -0.021006-2e-3 -0.021006 2e-3 0.10803 0.847-0.26707 1.634-0.3761 2.461-0.11203 0.859 0.19105 1.77 0.47813 2.565 0.34309 0.954 0.87724 1.745 1.4314 2.585 0.28808 0.435 0.50814 0.895 0.70419 1.369-0.13604-0.134-0.28308-0.265-0.43812-0.393-1.0183-1.49-1.7045-2.852-2.0886-3.682-0.45812-0.99-0.50714-2.162-1.0993-3.087-0.001001-2e-3 -0.009003 0-0.009003 1e-3 0.48413 1.013 0.46913 2.134 0.82623 3.184 0.29608 0.862 1.1093 2.156 1.7355 3.093-0.14504-0.106-0.28708-0.209-0.41711-0.301-0.59816-0.429-1.2243-0.803-1.6234-1.441-1e-3 -1e-3 -0.007002 3e-3 -0.007002 3e-3 0.56816 1.083 1.7965 1.74 2.6127 2.626 0.89224 0.969 1.2944 2.094 1.4894 3.355-0.50614-1.057-1.0473-2.116-1.7325-3.059-0.3731-0.514-0.78521-0.954-1.3114-1.311-0.66118-0.449-1.4174-0.774-1.8125-1.51 0-1e-3 -0.005002 2e-3 -0.004002 2e-3 0.22806 0.554 0.63117 0.967 1.0913 1.337 0.61517 0.494 1.1713 0.944 1.6885 1.541 0.90725 1.047 1.5124 2.296 2.1886 3.493 0.031009 0.215 0.061017 0.431 0.096026 0.646 0.001001 0.012 0.003001 0.024 0.005002 0.036-0.65118-1.436-1.9795-3.329-2.7718-4.147-0.98627-1.014-2.1496-1.83-3.1088-2.867-1e-3 -2e-3 -0.012003-1e-3 -0.011003-1e-3 0.89024 1.128 1.9505 2.162 2.9418 3.201 0.43712 0.458 0.93225 0.855 1.3684 1.314 0.3491 0.366 0.92025 1.435 1.3424 2.318-0.68018-0.991-1.6975-1.807-2.4687-2.665-1.3814-1.539-2.9788-2.859-4.3482-4.404-2e-3 -1e-3 -0.008002 2e-3 -0.008002 2e-3 1.2643 1.458 2.7848 2.67 4.0011 4.173 1.1023 1.362 2.3396 2.553 3.1399 4.114 0.068018 0.328 0.20506 0.56 0.44912 0.544-2e-3 0.054 0 0.107 0.004001 0.163 0.015004 0.157 0.20906 0.209 0.32209 0.122 0.091025-0.069 0.18505-0.135 0.27708-0.201 0.014004 0.01 0.032009 0.015 0.062017 0.01 0.82522-0.153 1.6635-0.248 2.4907-0.389 0.77021-0.132 1.5154-0.394 2.2946-0.459 0.7122-0.059 1.4224 0.034 2.1346-0.053 0.78021-0.096 1.4974-0.381 2.2956-0.387 0.004001 0 0.016005-0.01 0.015004-0.012-0.76121-0.054-1.5194 0.13-2.2786 0.154-0.77421 0.024-1.5424-0.11-2.3176-0.066-0.75421 0.043-1.4924 0.312-2.2336 0.441-0.68819 0.119-1.3394 0.216-1.9785 0.448 0.59616-0.363 1.2263-0.659 1.8685-0.951 0.94826-0.43 1.7995-0.963 2.6847-1.505 0.03401-0.021 0.070019-0.04 0.10403-0.061 0.014003 0.013 0.062017 0.02 0.079021 0.016 1.1243-0.335 2.2456-0.185 3.3959-0.162 1.0723 0.02 2.1616 1e-3 3.2299-0.123 0.005001 0-0.006002-2e-3 -0.008002-2e-3 -1.3074 0.14-2.6597 0.133-3.9711 0.046-0.89724-0.061-1.8095-0.131-2.6657 0.192 0.45412-0.263 0.93025-0.469 1.4074-0.667 0.033009 0.035 0.077021 0.06 0.13304 0.063 2.0896 0.118 4.2051 0.438 6.2757-0.052 0.032008-7e-3 0.12703-0.097 0.050013-0.087-1.8625 0.192-3.726-0.064-5.5855-0.205 0.55415-0.255 1.1253-0.473 1.6905-0.707 0.80422-0.333 1.5374-0.786 2.2916-1.217 0.68819-0.393 1.3594-0.803 2.0135-1.254 0.81222-0.56 1.6044-1.14 2.5327-1.496 0.002001-1e-3 0.009003-6e-3 0.002001-4e-3 -1.5544 0.547-2.8418 1.682-4.3132 2.408-0.53615 0.263-1.0773 0.522-1.6234 0.77 0.11303-0.068 0.22906-0.135 0.34009-0.203 1e-3 -1e-3 -0.005002-1e-3 -0.007002 0-0.22906 0.128-0.45812 0.248-0.68819 0.363-0.18705 0.08-0.3701 0.161-0.55615 0.237-0.61717 0.255-1.2433 0.479-1.8515 0.754-0.77921 0.272-1.5214 0.533-2.2386 0.922 0.13904-0.101 0.27608-0.202 0.41311-0.305 0.13104-0.056 0.26207-0.109 0.39211-0.169 0.63917-0.281 1.2633-0.6 1.8835-0.921 1.1753-0.609 2.3226-1.254 3.519-1.827 1.1353-0.544 2.2736-1.1 3.3229-1.799 0.005001-4e-3 -0.009003 0-0.010003 1e-3 -1.1773 0.756-2.4537 1.289-3.742 1.815-1.2253 0.5-2.4047 1.073-3.589 1.659-1.1063 0.548-2.2846 0.967-3.3569 1.579-0.32309 0.184-0.63517 0.387-0.94026 0.601-0.009002 0-0.015004 3e-3 -0.018005 4e-3 -0.07502 0.046-0.14904 0.093-0.22506 0.139 0.055015-0.044 0.10603-0.091 0.16104-0.136 0.38711-0.281 0.77021-0.565 1.1613-0.833 1.1033-0.754 2.2256-1.387 3.4599-1.901 1.2253-0.512 2.5097-0.936 3.68-1.566 1.0003-0.539 1.9185-1.212 2.9298-1.732 0 0-3e-3 -1e-3 -0.005001-1e-3 -1.1733 0.51-2.2326 1.24-3.3909 1.781-1.1393 0.53-2.3546 0.91-3.511 1.404-1.0053 0.429-1.9985 0.931-2.9588 1.496-0.065017 0.032-0.13204 0.065-0.19605 0.099 0.067018-0.042 0.13704-0.084 0.20606-0.126 0.77621-0.465 1.5664-0.907 2.3847-1.297 0.021006-0.01 0.015004-0.021-0.005002-0.01-0.47213 0.215-0.95226 0.402-1.4304 0.601 0.61117-0.343 1.2253-0.68 1.8365-1.012 1.0573-0.571 2.1896-0.967 3.2829-1.456 1.0823-0.484 2.1096-1.081 3.1859-1.578 0.003001-2e-3 -0.011003-4e-3 -0.012003-2e-3 -1.0993 0.484-2.1546 1.058-3.2519 1.543-1.1583 0.513-2.3686 0.899-3.525 1.418-2.0326 0.911-3.9341 1.972-5.6475 3.381 0.083023-0.21 0.16905-0.418 0.26507-0.622 0.043012 0.03 0.11903 0.039 0.16504 0.013 1.6975-1.019 3.484-1.854 5.1194-2.98 0.94726-0.652 2.0005-1.036 3.0498-1.486 0.93826-0.402 1.8315-0.899 2.7678-1.31 0.018004-8e-3 -0.025007-0.01-0.033009-6e-3 -1.0013 0.424-1.9685 0.925-2.9748 1.34-0.90225 0.374-1.8125 0.69-2.6537 1.2-1.7395 1.051-3.837 1.647-5.3505 3.04 0.10803-0.232 0.22406-0.463 0.34609-0.697 0.3541-0.678 0.71119-1.355 1.0743-2.029 0.07002-0.059 0.14404-0.117 0.22206-0.172 0.18405-0.13 0.3761-0.246 0.57216-0.357 0.75921-0.381 1.6605-0.508 2.4567-0.778 0.7292-0.248 1.1463-0.773 1.6855-1.29 0.001001-1e-3 -0.008002 1e-3 -0.009002 3e-3 -0.40911 0.333-0.75621 0.732-1.2403 0.967-0.3521 0.172-0.77521 0.244-1.1483 0.378-0.3641 0.131-0.7412 0.238-1.1063 0.372 0.24007-0.127 0.47913-0.257 0.70719-0.4 0.65218-0.405 1.3574-0.881 1.8805-1.483 0.39811-0.385 0.76321-0.806 1.0773-1.27 0.41912-0.615 0.76621-1.252 1.2824-1.796 0.32009-0.336 0.7432-0.51 0.94726-0.948 0-1e-3 -0.018005 2e-3 -0.021006 5e-3 -0.31709 0.397-0.88624 0.564-1.2623 0.917-0.3871 0.362-0.69019 0.809-0.98427 1.245-0.32109 0.477-0.61617 0.972-0.95626 1.434-0.24707 0.337-0.53715 0.635-0.84823 0.913-0.24107 0.162-0.49614 0.309-0.75621 0.446 0.83223-0.82 1.4044-1.851 2.0226-2.847 0.75921-1.22 1.2333-2.587 1.7295-3.93 0-1e-3 -0.015004-4e-3 -0.018005 0-0.29808 0.614-0.68619 1.177-0.97527 1.796-0.31409 0.673-0.64618 1.312-1.0483 1.939-0.71119 1.112-1.2904 2.598-2.7808 3.583-0.31709 0.156-0.055015 0.017-0.3511 0.166-0.22006 0.112-0.45012 0.233-0.67718 0.367 0.022006-0.042 0.048013-0.084 0.070019-0.126 0.45812-0.347 0.94126-0.657 1.3714-1.042 0.68819-0.613 1.2723-1.391 1.7845-2.177 0.30708-0.441 0.59016-0.901 0.83923-1.383 0.3681-0.71 0.59216-1.467 0.69919-2.256 0.11003-0.803 0.14104-1.657 0.54015-2.381 0.004001-8e-3 -0.046013 1e-3 -0.053015 0.013-0.40611 0.626-0.57916 1.317-0.7182 2.042-0.15304 0.804-0.3731 1.543-0.7382 2.281-0.53815 1.076-1.1193 2.104-1.8435 3.043-0.23806 0.225-0.49013 0.438-0.75521 0.64 0.31108-0.44 0.59316-0.902 0.86824-1.358 0.52914-0.874 1.0613-1.772 1.5244-2.684 0.3591-0.709 0.52414-1.505 0.65818-2.284 0.14604-0.864 0.021006-1.845 0.55315-2.6 0.001001-1e-3 -0.008002-3e-3 -0.009002-1e-3 -0.42712 0.54-0.52014 1.245-0.59616 1.91-0.097026 0.855-0.25907 1.708-0.56115 2.515-0.32809 0.876-0.90325 1.678-1.3844 2.475-0.49313 0.817-1.2323 1.884-1.7695 2.671-0.07202 0.049 0.062017-0.186-0.013004-0.137 0.055015-0.098 0.11203-0.195 0.16905-0.293 0.19305-0.236 0.3801-0.479 0.54515-0.743 0.3811-0.609 0.68219-1.267 1.0423-1.888 0.64618-1.119 1.1353-2.411 1.4004-3.674 0.25507-1.209 0.3561-2.558 1.0663-3.607 0.001001-1e-3 -0.016004-3e-3 -0.019005 0-0.66818 1.055-0.93726 2.24-1.2703 3.43-0.3741 1.333-0.93126 2.647-1.6264 3.846-0.050014 0.086-0.095026 0.174-0.14204 0.261-0.87924 1.043-1.6354 2.152-2.3026 3.344 0.24707-0.729 0.51214-1.45 0.96126-2.077 0.60917-0.854 1.1803-1.661 1.5854-2.637 0.78221-1.886 1.0453-3.938 2.2076-5.659 0-1e-3 -0.016004-2e-3 -0.018005 2e-3 -1.1943 1.67-1.7255 3.68-2.5407 5.537-0.43612 0.994-1.1283 1.819-1.5904 2.795-0.3511 0.745-0.58516 1.567-0.82022 2.374-0.096026 0.095-0.18505 0.194-0.26707 0.3 0.047013-0.144 0.084023-0.262 0.10703-0.342 0.066018-0.25 0.083023-0.502 0.07202-0.754 0.017005 0.057 0.028008 0.088 0.033009 0.074 0.14604-0.362 0.27808-0.841 0.40611-1.363 0.65318-1.308 1.4574-2.567 1.9705-3.931 0.28708-0.763 0.47113-1.551 0.83623-2.284 0.3541-0.708 0.81922-1.355 1.1273-2.087 0-1e-3 -0.008002 0-0.010002 2e-3 -0.3561 0.671-0.78221 1.297-1.1713 1.949-0.42412 0.709-0.65218 1.49-0.93025 2.262-0.44812 1.248-1.1523 2.386-1.7035 3.59 0.26907-1.172 0.52614-2.467 0.85423-3.241 0.26507-0.625 0.52914-1.248 0.82122-1.859 0.42812-0.892 0.85823-1.875 1.6715-2.474 0.010002-7e-3 -0.005002-2e-3 -0.009003 0-1.0703 0.73-1.6965 2.164-2.2426 3.293-0.3781 0.783-0.65218 1.606-0.95026 2.422-0.058016 0.158-0.11903 0.325-0.18005 0.496 0.13704-0.898 0.19505-1.812 0.47413-2.684 0.39311-1.222 1.1813-2.267 1.8495-3.344h-0.004001c-0.7392 1.074-1.5794 2.116-2.0336 3.351-0.3791 1.028-0.34109 2.17-0.49013 3.259-0.17805 0.521-0.34009 1.058-0.43812 1.547-0.011003-0.077-0.021006-0.155-0.028008-0.231-0.14704-1.44-0.14804-2.999 0.19205-4.415 0-1e-3 -0.019005-4e-3 -0.020005 0-0.27308 1.478-0.45812 2.901-0.29608 4.407 0.07302 0.684 0.25407 1.321 0.094026 2.007-0.050014 0.216-0.15704 0.502-0.28808 0.815-0.020005 0.044-0.044012 0.087-0.062017 0.133-0.003001 8e-3 -1e-3 0.014-0.003001 0.021-0.17605 0.409-0.3781 0.852-0.54215 1.236 0.27107-1.087 0.54715-2.224 0.45212-3.322-0.066018-0.765-0.19605-1.504-0.19105-2.275 0.004001-0.715 0.12904-1.418 0.32209-2.104 1e-3 -1e-3 -0.010003 3e-3 -0.012004 6e-3 -0.3801 1.297-0.40711 2.589-0.26707 3.924 0.083023 0.785 0.041012 1.488-0.12103 2.263-0.15104 0.717-0.41911 1.607-0.47513 2.35-0.005002 0.023-0.013004 0.051-0.020006 0.077-0.021005 0.053-0.044012 0.104-0.064017 0.155-0.18705 0.479-0.32609 0.97-0.48513 1.454 0.17505-0.84 0.20306-1.959 0.3701-2.79 0.13804-0.685 0.23106-1.344 0.26907-2.045 0.047013-0.842 0.16805-1.673 0.25207-2.512 0.040011-0.406 0.052014-0.81 0.019005-1.216-0.03801-0.491-0.16604-0.94-0.14604-1.44 0-1e-3 -0.010003-1e-3 -0.010003 2e-3 -0.15304 1.555-0.3591 3.135-0.32809 4.697 0.019005 0.93-0.025007 1.782-0.19605 2.701-0.13404 0.723-0.17305 1.415-0.26407 2.136-0.026007-0.905-0.087024-1.808-0.24707-2.702-0.11503-0.649-0.3461-1.269-0.44212-1.92 0-3e-3 0-5e-3 -1e-3 -8e-3 -0.009003-0.188-0.022006-0.375-0.051014-0.562h-0.002001c0.007002 0.082 0.008003 0.163 0.011003 0.245-0.072019-0.55-0.12303-1.107-0.16004-1.657-0.088024-1.317-0.3731-2.69-0.76721-3.951-0.24507-0.784-0.57416-1.544-0.7482-2.351-0.10603-0.497-0.17405-1.015-0.21306-1.531 0.029008 0.451 0.055015 0.904 0.12503 1.355 0.11003 0.693 0.3781 1.356 0.60717 2.017 0.47213 1.365 0.88824 2.978 0.79422 4.435-0.03701 0.575-0.042012 1.164 0.087023 1.729 0.07102 0.312 0.17205 0.614 0.27708 0.916-1e-3 0.117-0.003001 0.233-0.004001 0.35-0.006002 0.54 0.083023 1.065 0.15504 1.599 0.043012 0.312 0.069019 0.625 0.080022 0.938-0.12203-0.386-0.27408-0.759-0.44712-1.125-0.082022-0.589-0.17805-1.176-0.26007-1.764-0.11503-0.839-0.14204-1.682-0.21506-2.524-0.13904-1.6-0.46913-3.165-0.89224-4.71-0.40111-1.47-0.62317-2.963-0.7182-4.483 0 0-0.012003 2e-3 -0.012003 5e-3 0.07302 1.408 0.25007 2.795 0.58716 4.165 0.3861 1.56 0.75821 3.091 0.91925 4.694 0.079021 0.78 0.091025 1.566 0.15604 2.349 0.053015 0.614 0.13504 1.225 0.21706 1.835-0.03601-0.069-0.069019-0.137-0.10703-0.204-0.032008-0.061-0.071019-0.124-0.10903-0.186-0.046013-0.309-0.092026-0.616-0.13504-0.925-0.11603-0.839-0.14204-1.681-0.21606-2.523-0.14004-1.602-0.47613-3.162-0.89224-4.711-0.42512-1.578-0.52214-3.226-0.62117-4.849 0-1e-3 -0.012003 1e-3 -0.012003 4e-3 0.07602 1.518 0.16204 3.035 0.49213 4.522 0.3491 1.573 0.7532 3.095 0.91625 4.704 0.078021 0.782 0.089024 1.567 0.15504 2.35 0.031009 0.375 0.075021 0.749 0.12403 1.123-0.085023-0.132-0.17105-0.267-0.26007-0.403-0.028008-0.065-0.16805-0.373-0.33809-0.741-0.026007-0.147-0.052014-0.295-0.067018-0.447-0.013004-0.102-0.021006-0.203-0.026008-0.304l0.009003-0.054zm6.1037-1.06c-0.24707 0.532-0.58016 0.975-0.90825 1.447-0.04001 0.026-0.080021 0.052-0.11903 0.08 0.46513-0.896 0.96326-1.777 1.5264-2.606-0.17105 0.357-0.33209 0.718-0.49914 1.079zm-3.82 6.872c-0.003001 7e-3 -0.005001 0.013-0.008002 0.02 0-0.021 0-0.042-0.002001-0.063 0.005002 0.017 0.007002 0.033 0.010003 0.043zm-0.30808-2.258c-0.086024-0.58-0.28008-1.135-0.3461-1.716-0.013003-0.104-0.017004-0.21-0.023006-0.314 0.10503 0.299 0.20906 0.597 0.28908 0.904 0.29708 1.137 0.32209 2.324 0.3481 3.499-0.031008 0.091-0.062017 0.185-0.096026 0.274-0.010003-0.046-0.020006-0.09-0.030008-0.135l-0.001001-1e-3c0.025007-0.227 0.008003-0.464-0.033009-0.702 0.051014-0.617-0.030008-1.282-0.10803-1.809zm-1.0863 1.435c0.005001 0.056 0.013003 0.109 0.019005 0.165-0.002001 1e-3 -0.002001 4e-3 -0.002001 6e-3 -0.004001-0.013-0.010003-0.026-0.014004-0.041 0-0.043-2e-3 -0.086-3e-3 -0.13zm0.63817 1.372c-0.009003-0.092-0.019006-0.184-0.031009-0.275-0.021006-0.163-0.043012-0.329-0.07402-0.492-0.005001-0.014-0.009002-0.024-0.014004-0.036 0.03601 0.218 0.064018 0.436 0.089024 0.655 0.005002 0.019 0.009003 0.039 0.014004 0.059 0.007002 0.026 0.011003 0.057 0.016005 0.089zm0.008002 0.548c0.008002-0.01 0.018005-0.019 0.024006-0.028-0.029008-6e-3 -0.021005-0.026-0.018005-0.096 0.002001-0.029 0.002001-0.061 0.002001-0.092-0.004001 2e-3 -0.009002 1e-3 -0.014004 2e-3 0.004001 0.072 0.006002 0.144 0.006002 0.214z"></path>
        <path d="m307.11 31.068c-0.14604-0.02-0.29008-0.038-0.43612-0.058 0.019005 6e-3 0.03601 0.01 0.054014 0.016 0.81722 0.239 1.5874 0.577 2.3316 0.985 0.087023 0.049-0.051014 0.141-0.10803 0.129-0.82122-0.156-1.5594-0.527-2.3576-0.754-0.44312-0.125-0.89724-0.177-1.3464-0.28-0.46513-0.108-0.90225-0.272-1.3524-0.434-0.90225-0.325-1.8115-0.426-2.7608-0.498-0.69019-0.052-1.4014-0.107-2.0486-0.374-1e-3 0 0.006002-6e-3 0.009003-5e-3 0.79022 0.247 1.5974 0.296 2.4187 0.334 0.86124 0.041 1.6825 0.147 2.5227 0.341 0.22906 0.055 0.46213 0.101 0.69619 0.143-0.008002-2e-3 -0.014004-4e-3 -0.021006-6e-3 -0.89224-0.321-1.7515-0.684-2.6877-0.866-1.0093-0.195-2.0236-0.271-3.0438-0.129-0.006001 1e-3 -0.025006-5e-3 -0.020005-8e-3 0.90225-0.182 1.8415-0.259 2.7598-0.177 0.93726 0.084 1.7855 0.351 2.6657 0.662 0.50114 0.178 1.0043 0.355 1.5334 0.429 0.41311 0.059 0.83023 0.093 1.2363 0.183 0.42312 0.095 0.7522 0.312 1.1323 0.502 0.54315 0.271 1.1233 0.472 1.7025 0.648 0.064018 0.02 0.010003 0.043-0.030008 0.033-0.96226-0.24-1.8625-0.684-2.8498-0.816"></path>
        <path d="m301.53 29.152c-0.021006-0.035-1e-3 -0.088 0.064018-0.095 0.68619-0.073 1.3884-0.148 2.0896-0.165 0.019005-4e-3 0.03601-5e-3 0.044012-3e-3 0.016004 0 0.032008 0 0.048013 1e-3 0.19805-3e-3 0.39611 0 0.59316 8e-3 0.75921-0.028 1.5724-0.062 2.1236-0.055 0.41511 6e-3 1.2984-0.212 1.5724 0.235 0 1e-3 -0.015004 7e-3 -0.018005 3e-3 -0.25907-0.337-0.7142-0.159-1.0623-0.134-0.3631 0.026-0.7262 0.044-1.0893 0.037-0.27007-5e-3 -0.54015-0.017-0.81022-0.026 0.16504 0.021 0.32709 0.05 0.49013 0.085 0.44212 0.096 0.85623 0.221 1.2563 0.434 0.62217 0.329 1.2613 0.754 2.0005 0.633 0.004002-2e-3 0.023007 1e-3 0.014004 3e-3 -1.0553 0.231-2.0456-0.501-3.0528-0.682-0.93225-0.168-1.8775-0.162-2.8218-0.179 0.17005 0.016 0.34009 0.036 0.50914 0.064 0.66818 0.114 1.3004 0.278 1.9425 0.491 1.4234 0.475 2.8578 0.921 4.2982 1.34 0.006002 1e-3 -0.017005 7e-3 -0.022006 5e-3 -1.4604-0.372-2.9418-0.606-4.3912-1.032-1.2603-0.369-2.5577-0.496-3.81-0.907-0.052014-0.018-0.008002-0.046 0.032009-0.061"></path>
        <path d="m307.93 31.957c0.006001 0-0.013004 0.012-0.018005 0.012-1.3664 0.084-2.7217-0.523-4.0251-0.856-0.79022-0.204-1.6284-0.341-2.4407-0.427-0.65218-0.067-1.3344-0.04-1.8995-0.42-0.092025-0.062 0.095026-0.152 0.14504-0.147 1.5364 0.176 3.1279 0.286 4.6033 0.795 1.2033 0.414 2.3186 1.093 3.635 1.043"></path>
        <path d="m299.29 30.242s2e-3 -1e-3 2e-3 0c0.50914 0.582 1.2273 0.845 1.9855 0.897 0.60416 0.041 1.1763 6e-3 1.7615 0.202 0.11403 0.037-0.028007 0.123-0.082022 0.127-1.2103 0.073-2.8828-0.201-3.667-1.226"></path>
        <path d="m307.82 25.459c1.7985-1.034 4.8853-2.644 6.5008-3.698 1e-3 0 0.005001-2e-3 0.004001-2e-3 -1.3504 1.257-4.4472 2.734-5.9456 3.677-0.015005 0.01-0.03501 0.018-0.057016 0.024 1.0733 0.143 2.2356-0.471 3.2469-0.423 0.27007 0.013 0.27608 0.096 0.55115 0.245 0.017005 8e-3 -0.006001 6e-3 -0.011003 4e-3 -0.59216-0.265-1.5414 0.267-2.0976 0.335-0.57716 0.074-1.1483 0.054-1.7615-0.108-0.045012-0.012-0.51714-0.011-0.47313-0.014 0.008002-0.011 0.017005-0.027 0.043012-0.04"></path>
    </g>
</svg>