<svg xmlns="http://www.w3.org/2000/svg" width="98" height="29" viewBox="0 0 98 29" fill="none"><path d="M96.6468 25.6633C97.3941 23.8607 96.7375 21.876 95.1802 21.2303C93.6229 20.5846 91.7546 21.5224 91.0072 23.325C90.2598 25.1276 90.9164 27.1123 92.4737 27.758C94.031 28.4037 95.8994 27.4659 96.6468 25.6633Z" fill="white"></path><path d="M30.617 26.7942V27.4509C30.617 27.5094 30.5695 27.5572 30.5106 27.5572H16.1861C16.1146 27.5572 16.0567 27.4993 16.0567 27.4278V26.7913C16.0567 26.7262 16.0993 26.669 16.1617 26.6508C19.252 25.759 18.8068 23.7754 18.8068 23.7754V7.24562C18.8068 6.50474 18.5115 5.79347 17.9843 5.27245C15.0224 2.34603 11.2209 6.31026 11.2209 6.31026V23.7439C11.2209 25.855 13.7287 26.5158 14.3297 26.644C14.4045 26.6599 14.4582 26.7259 14.4582 26.8027V27.4122C14.4582 27.4922 14.3935 27.5569 14.3135 27.5569H0.225706C0.135293 27.5569 0.0617927 27.4834 0.0617927 27.393V26.5909C0.0617927 26.4973 0.13757 26.4215 0.231235 26.4215H0.850137C2.05379 26.4215 2.6044 25.0864 2.83108 24.2522C2.92507 23.9065 2.97028 23.5491 2.97028 23.1907V7.19748C2.97028 4.5758 0.820542 4.00828 0.178874 3.89737C0.0757773 3.87949 0 3.79037 0 3.68565V3.14837C0 3.05373 0.0669963 2.97275 0.160011 2.95486L10.0358 1.0656C10.5776 0.961849 11.0798 1.37717 11.0798 1.92876V5.14431C18.2949 -1.64292 22.6405 0.0879559 25.002 2.68459C26.5263 4.36083 27.3488 6.55841 27.3488 8.82396V23.7751C27.3488 25.9997 29.9366 26.5656 30.5067 26.6631C30.5705 26.6742 30.617 26.7292 30.617 26.7939V26.7942Z" fill="white"></path><path d="M46.86 1.02164C39.8261 -1.24684 32.2204 2.81821 29.8719 10.1008C27.5235 17.3833 31.3214 25.1261 38.3554 27.3942C45.389 29.6624 52.9951 25.5976 55.3435 18.3151C57.6919 11.0325 53.8936 3.28979 46.86 1.02164ZM38.6878 26.3636C36.2567 25.5794 36.0411 19.5019 38.2058 12.7888C40.3708 6.07539 44.0966 1.26881 46.5276 2.05262C48.9587 2.83675 49.1743 8.91432 47.0096 15.6277C44.8449 22.3408 41.1192 27.1477 38.6881 26.3636H38.6878Z" fill="white"></path><path d="M95.6911 1.47449V2.26122C95.6911 2.33538 95.6371 2.39847 95.564 2.40953C92.0574 2.93933 90.3396 7.86494 90.3396 7.86494L82.4317 27.7648C82.3947 27.8584 82.3039 27.9199 82.2031 27.9199H81.5513C81.4518 27.9199 81.3621 27.8598 81.324 27.768L74.2966 10.7637L67.2619 27.7856C67.2284 27.8669 67.1491 27.9199 67.061 27.9199H66.3422C66.2544 27.9199 66.175 27.8672 66.1415 27.7859C65.4439 26.1022 58.3833 9.06374 56.9078 5.74379C55.5584 2.70744 53.7007 2.38839 53.2376 2.35684C53.1768 2.35261 53.1296 2.30188 53.1296 2.24106V1.46018C53.1296 1.39644 53.1814 1.34473 53.2451 1.34473H67.7335C67.8018 1.34473 67.8571 1.40002 67.8571 1.46831V2.21374C67.8571 2.27358 67.8119 2.32334 67.7524 2.33017C66.8619 2.43295 66.4525 3.11398 66.2661 3.78102C66.0843 4.43213 66.1113 5.12422 66.3224 5.76655L70.1171 17.309L73.7333 9.19643C73.7333 9.19643 73.2812 7.95958 71.8538 5.00942C70.6479 2.51718 69.2891 2.30025 68.8965 2.2931C68.8347 2.2918 68.785 2.24204 68.785 2.18024V1.46148C68.785 1.39709 68.837 1.34505 68.9014 1.34505H83.4305C83.5144 1.34505 83.582 1.41302 83.582 1.49661V2.26838C83.582 2.35489 83.5245 2.43002 83.4412 2.45441C81.9351 2.89607 81.5731 4.05064 81.5312 4.92941C81.5084 5.40392 81.58 5.87811 81.7296 6.32888L85.39 17.3799L88.4591 9.05333C90.4309 3.47693 87.1868 2.58711 86.4583 2.45961C86.377 2.4453 86.3178 2.37473 86.3178 2.29212V1.46636C86.3178 1.39904 86.3721 1.34473 86.4395 1.34473H95.5614C95.6329 1.34473 95.6911 1.40294 95.6911 1.47449Z" fill="white"></path></svg>