<svg version="1.1" xmlns="http://www.w3.org/2000/svg" role="img" viewBox="2 3 410 39">
    <title id="ocLogo">Ottawa Citizen</title>
    <path d="m120.04 9.94h-4.5l-8.11 23.72c-1.3 3.8-4.6 4.9-6.01 4.9v1.4h11.41v-1.4c-3.1 0-4-1-4-2.7 0-0.8 1.3-4.5 1.8-6.11h9.91l3 8.81h-4.5v1.4h15.81v-1.4h-4.5l-10.31-28.62zm-8.91 18.42l4.4-13.01 4.4 13.01h-8.8z"></path>
    <path d="m143.11 40.67h2l7.31-22.92 8.01 22.92h2l7.51-24.42c1.2-3.2 2.3-4.9 5.9-4.9v-1.4h-11.21v1.4c3.1 0 4 1.7 4 3.1 0 0.3 0 0.6-0.1 0.8l-5.1 16.21-6.81-20.12h4.3v-1.4h-14.91v1.4h4l1.3 4.3-5 15.81-7.11-20.12h3.8v-1.4h-14.9v1.4h4.3l10.71 29.34z"></path>
    <path d="m83.37 11.34h2.7v27.22h-5.5v1.4h17.02v-1.4h-5.51v-27.22h2.7c2.5 0 3 0.6 7.11 9.81h1.2v-11.21h-28.02v11.21h1.2c4.1-9.21 4.6-9.81 7.1-9.81z"></path>
    <path d="m22.14 41.17c9.21 0 18.02-6.21 18.02-18.62s-8.81-18.62-18.02-18.62-18.02 6.21-18.02 18.62 8.81 18.62 18.02 18.62zm0-35.74c5 0 10.91 2.7 10.91 17.12 0 14.41-5.91 17.12-10.91 17.12s-10.91-2.7-10.91-17.12c0-14.41 5.9-17.12 10.91-17.12z"></path>
    <path d="m51.59 11.34h2.7v27.22h-5.5v1.4h17.01v-1.4h-5.51v-27.22h2.71c2.5 0 3 0.6 7.11 9.81h1.2v-11.21h-28.03v11.21h1.2c4.1-9.21 4.6-9.81 7.11-9.81z"></path>
    <path d="m199.19 38.56l-10.31-28.62h-4.5l-8.11 23.72c-1.3 3.8-4.6 4.9-6.01 4.9v1.4h11.41v-1.4c-3.1 0-4-1-4-2.7 0-0.8 1.3-4.5 1.8-6.11h9.91l3 8.81h-4.5v1.4h15.81v-1.4h-4.5zm-19.21-10.2l4.4-13.01 4.4 13.01h-8.8z"></path>
    <path d="m362.86 38.56h-7.51v-12.91h1.4c2.3 0 3.4-0.3 6.01 7.01h1.2v-15.51h-1.2c-2.6 7.31-3.7 7.01-6.01 7.01h-1.4v-12.82h8.51c2.5 0 3 0.6 7.11 9.81h1.2v-11.21h-27.72v1.4h4.6v27.22h-4.6v1.4h28.53v-11.7h-1c-5.42 9.71-5.42 10.3-9.12 10.3z"></path>
    <path d="m316.52 20.35h1.2c4.1-9.21 4.3-9.01 6.81-9.01h6.8l-15.71 27.12v1.5h25.32v-11.5h-1c-5.4 9.71-5.1 10.11-9.41 10.11h-7.41l14.71-25.12c1-1.7 1.9-2.1 3.1-2.1v-1.4h-24.42v10.4z"></path>
    <path d="m397.09 11.34c2.3 0 5.9 1.5 5.9 6.51v12.31l-16.61-20.22h-10.21v1.4c2.6 0 3.9 1 5.91 3.7v17.02c0 5-3.6 6.5-5.91 6.5v1.4h13.61v-1.4c-2.3 0-5.91-1.5-5.91-6.5v-15.21l19.02 23.42h1.9v-22.42c0-5 3.6-6.51 5.91-6.51v-1.4h-13.61v1.4z"></path>
    <polygon points="296.3 11.34 301.01 11.34 301.01 38.56 296.3 38.56 296.3 39.97 312.22 39.97 312.22 38.56 307.41 38.56 307.41 11.34 312.22 11.34 312.22 9.94 296.3 9.94"></polygon>
    <path d="m229 39.67c-3.9 0-10.61-3-10.61-17.12 0-13.81 6.31-17.12 10.41-17.12 4.2 0 10.51 1.6 11.91 11.11h1.5v-12.61c-2.2-0.9-1.3 2-4.11 2-0.6 0-1.3-0.2-2.2-0.6-2.3-1-4.4-1.4-7.01-1.4-9.31 0-17.62 6.21-17.62 18.62s8.41 18.62 17.62 18.62c5.5 0 12.71-1.4 13.61-13.71h-1.6c-0.89 11.41-8.3 12.21-11.9 12.21z"></path>
    <polygon points="246.19 11.34 250.99 11.34 250.99 38.56 246.19 38.56 246.19 39.97 262.2 39.97 262.2 38.56 257.4 38.56 257.4 11.34 262.2 11.34 262.2 9.94 246.19 9.94"></polygon>
    <path d="M265.48,21.15h1.2c4.1-9.21,4.6-9.81,7.11-9.81h2.7v27.22h-5.51v1.4H288v-1.4h-5.5V11.34h2.7 c2.5,0,3,0.6,7.11,9.81h1.2V9.94l-28.02,0V21.15z"></path>
</svg>