<svg version="1.1"
    xmlns="http://www.w3.org/2000/svg" role="img" viewBox="0 0 410 39">
    <title id="lpLogo">Regina Leader Post</title>
    <path d="m201.71 29.543c0 5.409-2.258 6.323-9.045 6.323h-3.372l-5e-3 -11.488 1.454-0.02c3.841 0 5.169 0.187 5.169 3.851v0.716h1.379v-11.435h-1.379v0.601c0 3.7-1.575 4.086-5.164 4.086l-1.455-0.022v-11.038l3.642-0.018c5.452 0 7.197 0.235 7.64 5.161l0.033 0.36h1.415l-0.567-7.708h-19.81v1.438h2.469v26.286h-2.469v1.437h21.443v-9.089h-1.379v0.559z"></path>
    <path d="m271.74 29.543c0 5.409-2.258 6.323-9.044 6.323h-3.373l-6e-3 -11.488 1.454-0.02c3.842 0 5.17 0.187 5.17 3.851v0.716h1.378v-11.435h-1.378v0.601c0 3.7-1.576 4.086-5.165 4.086l-1.453-0.022v-11.038l3.641-0.018c5.453 0 7.199 0.235 7.641 5.161l0.032 0.36h1.414l-0.566-7.708h-19.809v1.438h2.469v26.286h-2.469v1.437h21.442v-9.089h-1.378v0.559z"></path>
    <path d="M179.139,26.233c-0.259,7.821-2.911,10.205-11.35,10.205h-3.675V1.643h3.658V0h-13.46v1.643h3.244v34.796 h-3.244v1.643h26.389V25.852h-1.548L179.139,26.233z"></path>
    <path d="m238.24 8.919h-11.092v1.438h2.664v26.285h-3.267l-8.738-28.048h-2.027l-8.637 25.743c-0.518 1.757-0.944 2.305-2.599 2.305h-0.944v1.442h7.805v-1.047l-0.056-0.384-0.382-0.012c-1.012-0.033-1.886-0.061-2.024-0.253-0.076-0.106-0.028-0.448 0.138-1.002l2.1-6.137 7.693 0.022 2.3 7.371h-3.034v1.442h10.862v-3e-3h9.165c8.333 0 13.717-5.731 13.717-14.6-4e-3 -8.846-5.358-14.562-13.644-14.562zm-3.249 1.437h2.033c6.912 0 9.482 3.557 9.482 13.125 0 9.471-2.658 13.161-9.482 13.161h-2.033v-26.286zm-16.77 16.728-6.305-0.019 3.215-10.234 3.09 10.253z"></path>
    <path d="m298.36 35.706c-0.405 0.527-1 0.896-1.448 0.896-1.635 0-1.827-1.651-2.142-6.427l-0.014-0.204c-0.246-3.667-2.118-5.997-5.703-7.074 4.271-0.954 6.841-3.475 6.841-6.865 0-4.587-3.647-7.113-10.27-7.113h-11.33v1.438h2.706v26.285h-2.706v1.439h10.941v-1.439h-3.018v-12.665l0.783-0.016c4.562 0 5.441 0.607 5.877 4.058 0.115 0.947 0.188 1.845 0.258 2.685 0.168 2.039 0.314 3.799 0.957 5.094 1.139 2.298 3.387 2.564 4.979 2.564 2.445 0 3.744-1.129 4.3-1.801l0.238-0.288-0.984-0.91-0.265 0.343zm-15.507-13.954-0.634-0.016v-11.38h2.072c4.312 0 5.915 1.626 5.915 6.001 0 4.084-1.789 5.395-7.353 5.395z"></path>
    <path d="m324.68 21.723c9.398 0 15.237-4.257 15.237-11.11 0-6.844-5.152-10.613-14.508-10.613h-14.507v1.643h3.603v34.796h-3.603v1.643h14.851v-1.643h-4.636v-15.105c0.716 0.162 1.998 0.389 3.563 0.389zm0.164-2.09c-1.287 0-2.366-0.201-3.726-0.552v-16.852c0.282-5e-3 0.643-0.013 1.003-0.021 0.563-0.013 1.127-0.025 1.383-0.025 6.658 0 9.133 2.4 9.133 8.857 0 5.942-2.403 8.593-7.793 8.593z"></path>
    <path d="m352.6 8.354c-6.61 0-13.635 5.302-13.635 15.127 0 9.824 7.007 15.125 13.6 15.125 6.613 0 13.641-5.301 13.641-15.125 0-9.826-7.011-15.127-13.606-15.127zm-0.035 1.558c3.757 0 8.07 1.542 8.07 13.569 0 12.023-4.313 13.565-8.07 13.565s-8.069-1.542-8.069-13.565c0-6.317 0.917-13.569 8.069-13.569z"></path>
    <path d="m378.66 20.183c-1.072-0.259-2.064-0.468-2.949-0.655-1.677-0.354-3.002-0.633-3.657-1.006-1.26-0.697-1.873-1.856-1.873-3.544 0-3.125 1.981-5.066 5.169-5.066 4.126 0 6.743 2.837 7.369 7.989l0.042 0.348h1.254v-9.127h-1.299v0.395c0 1.025-0.241 1.026-0.476 1.021-0.109-0.017-0.464-0.222-0.778-0.403-1.129-0.652-3.23-1.865-5.955-1.865-4.831 0-8.077 3.543-8.077 8.816 0 4.793 2.159 7.18 7.454 8.24 3.006 0.595 5.178 1.025 6.549 2.247 1.033 0.958 1.557 2.168 1.557 3.596 0 3.46-2.529 5.876-6.15 5.876-4.644 0-7.751-3.656-8.11-9.542l-0.022-0.371h-1.314v10.948h1.323l0.014-0.38c0.016-0.402 0.112-1.077 0.587-1.077 0.357 0 0.97 0.263 1.678 0.568 1.424 0.613 3.375 1.452 5.885 1.452 5.322 0 8.897-3.88 8.897-9.655 1e-3 -4.863-2.194-7.578-7.118-8.805z"></path>
    <path d="m385.44 8.919v9.451h1.377v-0.395c0-2.271 0.836-4.728 1.637-5.782 0.845-1.049 2.221-1.148 5.642-1.148l0.673 0.015v25.582h-3.175v1.439h11.486v-1.439h-3.095v-25.621h0.742c3.431 0 4.614 0.091 5.486 1.165 0.792 1.041 1.643 3.296 1.643 5.79v0.395h1.378v-9.452h-23.794z"></path>
    <path d="m311.46 23.812-1.079-0.835-0.23 0.375c-0.648 1.055-1.567 1.589-2.73 1.589-0.623 0-1.409-0.319-2.242-0.656-0.99-0.401-2.111-0.855-3.208-0.855-1.055 0-3.001 0.433-4.185 3.33l-0.107 0.263 0.961 0.83 0.248-0.375c0.897-1.356 2.035-1.539 3.029-1.539 0.599 0 1.449 0.333 2.349 0.685 1.039 0.407 2.114 0.828 3.039 0.828 1.306 0 3.062-1.039 4.038-3.359l0.117-0.281z"></path>
    <path d="m68.299 38.623c3.291 0 7.743-1.111 10.271-3.594l0.118-0.116v-6.126h2.25l-0.106-2.256h-10.732v2.286l3.487-0.027v3.006c0 3.496-1.766 5.269-5.25 5.269-6.313 0-7.639-7.708-7.639-14.175 0-8.117 2.724-12.962 7.287-12.962 1.77 0 3.793 0.71 5.039 1.771 1.834 1.523 3.023 3.904 3.347 6.704l0.041 0.35h1.333v-9.453h-1.337v0.395c0 1.224-0.565 1.224-0.778 1.224-0.301 0-0.751-0.274-1.32-0.623-1.256-0.767-3.155-1.927-6.324-1.927-6.37 0-12.818 5.209-12.818 15.166 0 8.742 5.522 15.088 13.131 15.088z"></path>
    <polygon points="92.802 36.661 90.02 36.661 90.02 10.373 92.802 10.373 92.802 8.937 82.137 8.937 82.137 10.373 84.493 10.373 84.493 36.661 82.137 36.661 82.137 38.096 92.802 38.096"></polygon>
    <path d="m102.73 36.72-0.375-0.019c-2.923-0.148-2.923-0.355-2.923-2.887l-0.113-20.131 16.008 24.617h1.588l0.063-25.003c0-2.423 0.097-2.74 2.629-2.924l0.366-0.027v-1.409h-8.353v1.416l0.374 0.021c2.772 0.149 2.772 0.356 2.772 2.887l0.022 13.038-11.416-17.362h-9.034v1.437h2.343l0.467 0.566-0.072 22.797v0.121c1e-3 2.469 1e-3 2.671-2.372 2.844l-0.366 0.027v1.368h8.392v-1.377z"></path>
    <path d="m117.76 36.661v1.435h7.807v-1.04l-0.059-0.384-0.382-0.013c-1.012-0.034-1.885-0.063-2.023-0.256-0.077-0.107-0.029-0.449 0.137-1.003l2.101-6.138 7.693 0.021 2.298 7.377h-3.032v1.435h10.861v-1.435h-2.456l-8.738-28.05h-2.027l-8.635 25.742c-0.52 1.761-0.946 2.309-2.601 2.309h-0.944zm8.319-9.582 3.213-10.236 3.091 10.258-6.304-0.022z"></path>
    <path d="M13.865,36.537H9.977V19.549h1.12c6.045,0,7.123,1.296,7.685,5.753c0.147,1.216,0.241,2.354,0.332,3.455 c0.217,2.615,0.403,4.874,1.221,6.523c1.417,2.873,4.37,2.873,6.323,2.873l4.656,0.01c0.613,0,1.19-0.002,1.743-0.008h20.994v-9.086 h-1.379v0.557c0,5.409-2.258,6.323-9.044,6.323h-3.372l-0.004-11.487l1.453-0.02c3.841,0,5.169,0.187,5.169,3.848v0.718h1.379 V17.574h-1.379v0.598c0,3.698-1.575,4.084-5.165,4.084l-1.454-0.019V11.199l3.642-0.016c5.452,0,7.198,0.235,7.64,5.16l0.032,0.36 h1.416l-0.566-7.708H32.609v1.436h2.469V36.72h-1.357l0-0.01h-4.75c-2.172,0-2.414-2.375-2.796-8.23l-0.042-0.646 c-0.327-4.817-2.856-7.821-7.713-9.134c5.717-1.141,9.175-4.404,9.175-8.828c0-5.834-4.658-9.047-13.116-9.047H0v1.622h3.483v34.09 H0v1.623h13.865V36.537z M12.764,2.447c5.636,0,7.732,2.125,7.732,7.841c0,4.715-1.606,7.637-9.6,7.637H9.977V2.447H12.764z"></path>
</svg>