<?xml version="1.0" encoding="UTF-8"?>
<svg xmlns="http://www.w3.org/2000/svg" data-name="Layer 1" viewBox="0 0 755.62 175.22">
  <path fill="#007bc3" d="M363.35 0h171v174h-171z"/>
  <path fill="#000014" d="M28.07 174.06v-3l1.51-.23c2.32-.35 3.25-1.39 3.25-5.1V132H18.21v33.76c0 3.71.93 4.75 3.25 5.1l1.51.23v3h-23v-3l1.51-.23c2.32-.35 3.25-1.39 3.25-5.1V96.57c0-3.71-.93-4.75-3.25-5.1l-1.51-.23v-3h23v3l-1.51.23c-2.32.35-3.25 1.39-3.25 5.1v30.74h14.62V96.57c0-3.71-.93-4.75-3.25-5.1l-1.51-.23v-3h23v3l-1.51.23c-2.32.35-3.25 1.39-3.25 5.1v69.14c0 3.71.93 4.75 3.25 5.1l1.51.23v3z"/>
  <path fill="#000014" d="M78.62 174.06v-2.86l1.1-.33c2.42-.77 3.3-2.42 2.53-5.83l-3.3-14H63.83l-2.86 13.42c-.66 3.08-.33 6 3.3 6.49l1.65.22v2.86h-15.3v-2.83l1.54-.44q3.8-1.15 5-6.27l15.46-71.83h5.06l17.38 74c.55 2.53 1.65 3.85 3.74 4.29l1 .22v2.86zm-7.48-56.32l-6.38 29.37h13.26z"/>
  <path fill="#000014" d="M134.15 174.06v-2.86l1.47-.2c2.75-.44 4.18-1.87 4.18-5.39v-66.9c0-.66-.77-.55-.88 0l-13.75 75.35h-3.08l-12.76-75.35c-.11-.66-.88-.66-.88 0v65.34c0 3.52 1.76 6 4.95 6.82l1.43.33v2.86H99.5v-2.86l1.43-.33c2.64-.66 4.18-3.3 4.18-6.82v-61.49c0-5-.66-6.49-3.63-6.82l-2-.22v-2.86h21.34l7.7 44.11 8-44.11h21v2.86l-1.43.11c-2.2.22-3.63 1.43-3.63 5v65c0 3.52.88 4.95 3.63 5.39l1.43.22v2.86zM159.82 174.06v-2.86l1.43-.22c2.2-.33 3.08-1.32 3.08-4.84v-65.56c0-3.52-.88-4.51-3.08-4.84l-1.43-.22v-2.86h21.8v2.86l-1.43.22c-2.2.33-3.08 1.32-3.08 4.84v65.56c0 3.52.88 4.51 3.08 4.84l1.43.22v2.86zM221.23 174.06h-37.07v-2.86l1.46-.2c2.2-.33 3.08-1.32 3.08-4.84v-65.58c0-3.52-.88-4.51-3.08-4.84l-1.43-.22v-2.86h22.88v2.86l-1.43.22c-2.53.44-4.18 1.32-4.18 4.84v68.2c0 1.54.33 2.42 1.87 2.42 6.27 0 13.75-10 15.73-22l2.75.11z"/>
  <path fill="#000014" d="M256.68 119.5c-3.08-15.07-6.82-23.43-11.33-23.43-1.21 0-1.43.11-1.43.55v69.52c0 3.52 1.87 4.73 4.51 5l1.43.11v2.86h-24.64v-2.91l1.43-.11c2.53-.22 4.51-1.43 4.51-5V96.62c0-.44-.22-.55-1.43-.55-4.51 0-8.25 8.36-11.33 23.43h-2.53l.66-26.84h42l.66 26.84zM289.93 172.85a12.91 12.91 0 0 1-14.74 0c-7-4.62-15-16.17-15-39.49s7.92-34.87 15-39.49a12.91 12.91 0 0 1 14.74 0c7 4.62 15 16.17 15 39.49s-7.96 34.87-15 39.49zm-1.65-73.92c-1.43-3.41-3.52-5-5.72-5s-4.18 1.54-5.72 5c-2.42 5.83-3.63 16.94-3.63 34.43s1.21 28.6 3.63 34.43c1.54 3.41 3.52 5 5.72 5s4.29-1.54 5.72-5c2.42-5.83 3.63-16.94 3.63-34.43s-1.21-28.6-3.63-34.43z"/>
  <path fill="#000014" d="M349.26 95.63c-2.53.22-4.4 2.53-4.4 7.59v71.39h-3.52l-28.39-66.88v55.77c0 4.73 1.44 6.93 5 7.48l1.42.22v2.86h-16.1v-2.86l1.43-.22c3-.44 5-2.75 5-7.48v-58.19c0-5.28-1.54-8.36-4.41-9.46l-1.21-.44v-2.75h15.29l22.23 52.14v-41.58c0-5.06-2.42-6.93-5.61-7.48l-1.43-.22v-2.86h16.17v2.86z"/>
  <path fill="#fff" d="M396.55 169.77c-3.24 3.48-6.72 5.45-11.36 5.45-3.6 0-6.27-1.51-9.4-3.6-1.27-.81-1.74-1.62-3.25-1.62-1.27 0-2.9 1.62-5.56 4.75h-3.83V147h3.83c4.75 15.08 10.43 24.59 18.44 24.59a9.33 9.33 0 0 0 6.15-2.55c1.85-1.86 2.66-3.94 2.66-7.77 0-7.77-5.1-15.89-16.47-26.1-8.46-7.66-14.38-14.5-14.38-27.26 0-10.9 5.92-20.88 16.24-20.88a14.54 14.54 0 0 1 7.54 2.44 4.91 4.91 0 0 0 3 1.39c.93 0 2-.93 4.3-3.6h3.36v26.57h-3.6c-1.16-8.24-6.26-23.55-15.19-23.55-2.32 0-3.94.93-5.8 3a12.8 12.8 0 0 0-2.55 8.24c0 7.42 8 15.08 15.19 21.23 10.91 9.28 16 17.86 16 29.58.02 7.11-1.95 13.84-5.32 17.44zM438.2 132.59c-3.76 2.09-8.29 3.08-14.59 3.08h-2.32v30.47c0 3.52 1.55 4.4 4.09 4.84l1.44.22v2.86h-22.89v-2.86l1.44-.22c2.21-.33 3.09-1.32 3.09-4.84v-65.56c0-3.52-.88-4.51-3.09-4.84l-1.44-.22v-2.86h22.69c13.49 0 22 8.47 22 21.23 0 8.91-3.79 15.11-10.42 18.7zm-6.3-34.32c-1.55-2.09-4.31-2.75-7.19-2.75-1.43 0-3.42.33-3.42 1.87v35.42h2.33c5 0 7-1.65 8.73-4 2.77-3.63 2.88-9.9 2.88-15-.01-6.41-.68-12.24-3.33-15.54zM491.19 174.06h-42v-2.86l1.43-.2c2.21-.33 3.1-1.32 3.1-4.84v-65.58c0-3.52-.89-4.51-3.1-4.84l-1.44-.22v-2.86h42l.56 22.55-3 .11c-3.09-11.33-6.63-19.8-18.13-19.8-2.32 0-4.09 1.1-4.09 4.62v30.58h1.1c3.64 0 8.07-3.85 9.17-9.35l1-5h3.2v33.33h-3.2l-1.44-6.38c-1.33-6.05-4.86-9.79-8.73-9.79h-1.11v33.27c0 3.08 2 4.4 4.87 4.4 8.18 0 13.48-6.6 16-14.74l2-6.38 3.1.22zM525.5 173.07a13.88 13.88 0 0 1-7.41 2c-5.08 0-10.5-2.86-14.15-7.48-4.64-5.94-9.06-17-9.06-34.21 0-23.32 8-35.31 14.59-39.49a13.65 13.65 0 0 1 7.41-2.31 12.5 12.5 0 0 1 7.18 2 6.31 6.31 0 0 0 2.77.88c.88 0 2.1-.77 3.75-2.86h2.44l.88 24.75-3.2.33-4.54-12.54c-2.21-6.16-4-9.9-8.07-9.9-2.21 0-4.31 1.43-5.64 4.73-2.32 5.83-3.53 16.94-3.53 34.43s1.66 28.6 4.42 34.43a7.22 7.22 0 0 0 6.3 4.07c5.2 0 12.82-5 12.27-21.45h2.71c.06 13.6-3.59 19.32-9.12 22.62z"/>
  <path fill="#000014" d="M577.62 119.5c-3.08-15.07-6.82-23.43-11.33-23.43-1.21 0-1.43.11-1.43.55v69.52c0 3.52 1.87 4.73 4.51 5l1.43.11v2.86h-24.65v-2.91l1.43-.11c2.53-.22 4.51-1.43 4.51-5V96.62c0-.44-.22-.55-1.43-.55-4.51 0-8.25 8.36-11.33 23.43h-2.53l.66-26.84h42l.66 26.84zM601.87 174.06v-2.86l1.09-.33c2.42-.77 3.31-2.42 2.54-5.83l-3.3-14h-15.08l-2.86 13.42c-.65 3.08-.32 6 3.31 6.49l1.64.22v2.86h-15.29v-2.83l1.54-.44q3.81-1.15 4.95-6.27l15.51-71.83h5.07l17.38 74c.54 2.53 1.65 3.85 3.74 4.29l1 .22v2.86zm-7.49-56.32L588 147.11h13.32zM658.15 119.5c-3.08-15.07-6.82-23.43-11.33-23.43-1.21 0-1.43.11-1.43.55v69.52c0 3.52 1.87 4.73 4.51 5l1.43.11v2.86h-24.64v-2.91l1.43-.11c2.53-.22 4.51-1.43 4.51-5V96.62c0-.44-.22-.55-1.43-.55-4.51 0-8.25 8.36-11.33 23.43h-2.53l.66-26.84h42l.66 26.84zM691.42 172.85a12.91 12.91 0 0 1-14.74 0c-7-4.62-15-16.17-15-39.49s7.92-34.87 15-39.49a12.91 12.91 0 0 1 14.74 0c7 4.62 15 16.17 15 39.49s-7.96 34.87-15 39.49zm-1.65-73.92c-1.43-3.41-3.52-5-5.72-5s-4.18 1.54-5.72 5c-2.42 5.83-3.63 16.94-3.63 34.43s1.21 28.6 3.63 34.43c1.54 3.41 3.52 5 5.72 5s4.29-1.54 5.72-5c2.42-5.83 3.63-16.94 3.63-34.43s-1.21-28.6-3.63-34.43zM746.27 174.72c-7.48 0-10.34-5.72-11-12.32-.66-6.27-.66-13.09-.88-19.36-.22-5.39-1.65-11.77-8.47-11.77h-2v34.87c0 3.52 1.32 4.4 4.07 4.84l1.43.22v2.86h-22.75v-2.86l1.43-.22c2.2-.33 3.08-1.32 3.08-4.84v-65.56c0-3.52-.88-4.51-3.08-4.84l-1.43-.22v-2.86h22.11c13.75 0 21.23 8.14 21.23 19.69 0 8.91-4.95 12.54-10.67 15.51a31.94 31.94 0 0 1-7.48 2.31c4.4 1.54 7.26 3.08 10 5.94 4.51 4.73 5.5 11.88 5.72 19.36.33 11.11.66 14.41 2.64 14.41 1.76 0 3.08-4.73 3.19-8.8l2.2.22c-.1 5.06-1.75 13.42-9.34 13.42zm-11.88-76.45c-1.54-2.09-4.18-2.75-7-2.75-1.43 0-3.41.22-3.41 2v30.91h2c3.52 0 6.6-.77 8.36-2.86 3-3.52 3.08-8.14 3.08-13.2-.06-6.51-.39-10.8-3.03-14.1z"/>
  <path fill="#fff" d="M426.26 46.2c-2.14-10.35-4.73-16.09-7.86-16.09-.84 0-1 .08-1 .38v47.72c0 2.41 1.3 3.24 3.13 3.4l1 .07v2h-17.08v-2l1-.07a3 3 0 0 0 3.13-3.4V30.49c0-.3-.16-.38-1-.38-3.13 0-5.72 5.74-7.86 16.09h-1.75l.45-18.43h29.13l.46 18.43zM447.14 83.64v-1.82l.92-.14c1.41-.21 2-.84 2-3.08V58.23h-8.91V78.6c0 2.24.57 2.87 2 3.08l.92.14v1.82h-14v-1.82l.92-.14c1.42-.21 2-.84 2-3.08V36.88c0-2.24-.56-2.87-2-3.08l-.92-.14v-1.82h14v1.82l-.92.14c-1.41.21-2 .84-2 3.08v18.55h8.91V36.88c0-2.24-.57-2.87-2-3.08l-.92-.14v-1.82h14v1.82l-.92.14c-1.41.21-2 .84-2 3.08V78.6c0 2.24.57 2.87 2 3.08l.92.14v1.82zM491.05 83.64h-26.86v-1.82l.91-.14c1.42-.21 2-.84 2-3.08V36.88c0-2.24-.56-2.87-2-3.08l-.91-.14v-1.82h26.86l.35 14.35-1.9.07c-2-7.21-4.25-12.6-11.6-12.6-1.48 0-2.61.7-2.61 2.94v19.46h.7c2.34 0 5.16-2.45 5.87-6l.64-3.15h2.05v21.26h-2.05l-.88-4.06c-.85-3.85-3.11-6.23-5.59-6.23h-.7V79c0 2 1.27 2.8 3.11 2.8 5.23 0 8.62-4.2 10.25-9.38l1.27-4.06 2 .14z"/>
</svg>