<svg aria-labelledby="spLogo" class="header-logo-image logo-sp" role="img" viewBox="0 0 250 20">
    <title id="spLogo">The Star Phoenix</title>
    <path d="m0.53498 12.884c0.26548 4.2127 2.6233 6.4897 5.75 6.4897 2.6497 0 4.4226-1.7213 4.4226-4.1061 0-0.9805-0.36984-1.8532-1.1382-2.5424-0.97936-0.84977-2.4891-1.1422-4.5562-1.5367-3.285-0.63704-4.8217-1.9616-4.8217-5.1399 0-3.3911 2.1175-5.5109 5.1932-5.5109 2.4622 0 4.1055 1.457 4.5292 1.4828 0.37213 0.027523 0.60952-0.13131 0.60952-0.92546h0.34518v5.457h-0.34518c-0.44954-3.6038-2.4106-5.457-5.2431-5.457-2.4392 0-3.7655 1.5097-3.7655 3.5757 0 1.3779 0.61009 2.1187 1.4048 2.5419 0.7156 0.39908 2.3853 0.61009 4.5298 1.1147 3.1795 0.76663 4.6107 2.4364 4.6107 5.5109 0 3.6554-2.2781 6.0659-5.7483 6.0659-2.57 0-4.2936-1.324-5.1135-1.324-0.34576 0-0.63761 0.26548-0.66342 0.95356h-0.37041v-6.6497h0.37041"></path>
    <path d="m19.298 14.554l-1.9954-6.4541-2.1783 6.4541h4.1737zm-7.6227 4.6583h0.28326c0.96674 0 1.25-0.36296 1.531-1.2924l4.3968-12.681h0.74541l4.4971 13.973h1.2093v0.32167h-5.1806v-0.32167h1.633l-1.3515-4.2162h-4.4748l-1.1095 3.328c-0.26319 0.8469 0.20126 0.8469 1.4312 0.88819v0.32167h-3.6107v-0.32167z"></path>
    <path d="m25.07 14.472c0.20241 3.2076 1.9954 4.9398 4.375 4.9398 2.0172 0 3.367-1.3085 3.367-3.1244 0-0.74599-0.28154-1.4123-0.86812-1.9358-0.74599-0.64564-1.8945-0.86697-3.4662-1.168-2.5006-0.48452-3.6703-1.4937-3.6703-3.9123 0-2.5808 1.6141-4.1944 3.9524-4.1944 1.875 0 3.1244 1.1084 3.4484 1.129 0.28154 0.018922 0.4633-0.10092 0.4633-0.70757h0.26204v4.1548h-0.26204c-0.34346-2.7408-1.8354-4.1548-3.9931-4.1548-1.8544 0-2.8635 1.1508-2.8635 2.7231 0 1.0499 0.46445 1.613 1.0694 1.9369 0.5453 0.30218 1.8154 0.4633 3.4472 0.8469 2.8612 0.69094 3.5097 1.7494 3.5097 4.1932 0 2.7833-1.7351 4.6181-4.3756 4.6181-1.9558 0-3.2672-1.0086-3.8911-1.0086-0.26376 0-0.48567 0.20183-0.50459 0.72477h-0.28383v-5.0608h0.28383"></path>
    <path d="m39.891 19.212v0.32167h-5.0808v-0.32167h1.3716v-13.49h-1.3716v-0.32282h5.0808v0.32282h-1.5275v6.543s2.7167-2.9346 4.4111-4.8492c0.32225-0.36239 0.86755-1.0097 0.86755-1.2511 0-0.44266-0.50516-0.44266-1.7752-0.44266v-0.32282h5.0614v0.32282c-1.9553 0-2.137 0.10034-3.6485 1.7735-1.1101 1.2299-2.7557 3.0969-2.7557 3.0969l5.375 8.6198h1.8567v0.32167h-5.7471v-0.32167h1.5115l-4.3962-7.2603-0.83773 0.90424v6.3561h1.6049"></path>
    <path d="m53.366 14.554l-1.9948-6.4541-2.1772 6.4541h4.172zm-7.6216 4.6583h0.28268c0.96846 0 1.2506-0.36296 1.5327-1.2924l4.3951-12.681h0.74656l4.4943 13.973h1.2116v0.32167h-5.1818v-0.32167h1.6319l-1.3498-4.2162h-4.4759l-1.1078 3.328c-0.26491 0.8469 0.20069 0.8469 1.4306 0.88819v0.32167h-3.6101v-0.32167z"></path>
    <path d="m68.261 9.7127h-0.30333c0-1.2695-0.44151-2.4386-0.88589-3.0034-0.52236-0.625-1.2276-0.98739-2.9834-0.98739h-0.58544v13.49h1.5917v0.32167h-5.504v-0.32167h1.633v-13.49h-0.54358c-1.7546 0-2.5602 0.38303-3.0654 0.98739-0.44553 0.56479-0.88761 1.8154-0.88761 3.0034h-0.30161v-4.3136h11.835v4.3136"></path>
    <path d="m76.321 5.4983c-2.5631 0-4.3561 1.574-4.3561 6.9587 0 5.4226 1.7741 6.9547 4.3561 6.9547 2.5998 0 4.3544-1.5516 4.3544-6.9547 0-5.3847-1.7546-6.9587-4.3544-6.9587m0 14.297c-3.207 0-6.7964-2.5006-6.7964-7.3383 0-4.84 3.5883-7.3406 6.8148-7.3406 3.2064 0 6.7964 2.4799 6.7964 7.3406 0 4.8377-3.59 7.3383-6.8148 7.3383"></path>
    <path d="m91.635 5.4983c-2.5602 0-4.3555 1.574-4.3555 6.9587 0 5.4226 1.7752 6.9547 4.3555 6.9547 2.6015 0 4.3561-1.5516 4.3561-6.9547 0-5.3847-1.7546-6.9587-4.3561-6.9587m0 14.297c-3.2064 0-6.7959-2.5006-6.7959-7.3383 0-4.8412 3.5894-7.3406 6.8159-7.3406 3.2058 0 6.8739 2.4799 6.8739 7.3406 0 4.8377-3.668 7.3383-6.8939 7.3383"></path>
    <path d="m102.7 19.232v0.30218h-3.9106v-0.30218c1.4312-0.10092 1.5722-0.38245 1.5722-1.6749v-11.453l-0.32225-0.38188h-1.25v-0.32397h3.9323l6.7144 9.9404v-7.9851c0-1.3498-0.20126-1.5499-1.7546-1.6313v-0.32397h3.8916v0.32397c-1.4323 0.10034-1.6944 0.36239-1.6944 1.6525v12.259h-0.38188l-8.6909-12.943v10.907c0 1.3314 0.24083 1.5533 1.8939 1.6347"></path>
    <path d="m118.52 12.885c0.26548 4.2127 2.6239 6.4897 5.75 6.4897 2.6497 0 4.4232-1.7225 4.4232-4.1072 0-0.97878-0.37041-1.8532-1.1388-2.5424-0.97878-0.84862-2.4891-1.1399-4.5562-1.5367-3.285-0.63589-4.8211-1.9599-4.8211-5.1399 0-3.3911 2.117-5.5109 5.1927-5.5109 2.4627 0 4.1061 1.457 4.5292 1.4845 0.37213 0.024656 0.60952-0.13188 0.60952-0.92718h0.34576v5.457h-0.34576c-0.44954-3.6038-2.4106-5.457-5.2431-5.457-2.4386 0-3.7649 1.5109-3.7649 3.5763 0 1.3773 0.60952 2.1193 1.4048 2.543 0.7156 0.39736 2.3853 0.60894 4.5298 1.113 3.1795 0.76778 4.6101 2.4375 4.6101 5.5109 0 3.6554-2.2787 6.0659-5.7477 6.0659-2.5705 0-4.2942-1.3222-5.1135-1.3222-0.34633 0-0.63819 0.26491-0.66399 0.95298h-0.37041v-6.6497h0.37041"></path>
    <path d="m142.59 9.7139h-0.30333c0-1.2695-0.44438-2.4398-0.88532-3.0046-0.5258-0.62385-1.2328-0.98739-2.9857-0.98739h-0.58544v13.49h1.5929v0.32282h-5.5052v-0.32282h1.6325v-13.49h-0.54358c-1.7552 0-2.5602 0.38303-3.0648 0.98739-0.44381 0.56479-0.88762 1.8165-0.88762 3.0046h-0.30275v-4.3148h11.838v4.3148"></path>
    <path d="m148.86 14.554l-1.9943-6.4524-2.1772 6.4524h4.1714zm-7.6221 4.6594h0.28498c0.96502 0 1.2494-0.36411 1.531-1.2924l4.3951-12.682h0.74599l4.4977 13.974h1.2081v0.32053h-5.18v-0.32053h1.6319l-1.3503-4.2162h-4.4765l-1.1078 3.328c-0.26491 0.84576 0.20012 0.84576 1.4306 0.88819v0.32053h-3.6107v-0.32053z"></path>
    <path d="m156.99 12.014h0.52466c3.0436 0 3.9925-0.98911 3.9925-3.1055 0-2.2374-0.86697-3.1864-3.2466-3.1864h-1.2706v6.2919zm9.2861 7.5149l-2.7013 0.012615c-0.88704 0-1.6445-0.047592-2.1497-1.0356-0.44209-0.86755-0.40252-2.1978-0.60378-3.8102-0.24255-1.8555-0.80734-2.3578-3.2271-2.3578h-0.60436v6.8744h1.5522v0.32282h-5.2213v-0.32282h1.3905v-13.49h-1.3905v-0.32282h5.6239c3.2672 0 5.0826 1.1709 5.0826 3.3481 0 1.9146-1.7947 3.1451-4.4163 3.3882 2.4805 0.36124 3.6904 1.5533 3.8314 3.5677 0.16112 2.3601 0.17431 3.3916 1.2632 3.3916l0.42431 0.013188 0.88704 0.025803-0.72649 0.39507h0.98566z"></path>
    <polyline points="177.45 19.212 178.82 19.212 178.82 5.7219 177.45 5.7219 177.45 5.3991 182.53 5.3991 182.53 5.7219 181.1 5.7219 181.1 11.993 186.5 11.993 186.5 5.7219 185.07 5.7219 185.07 5.3991 190.15 5.3991 190.15 5.7219 188.78 5.7219 188.78 19.212 190.15 19.212 190.15 19.535 185.07 19.535 185.07 19.212 186.5 19.212 186.5 12.497 181.1 12.497 181.1 19.212 182.53 19.212 182.53 19.535 177.45 19.535 177.45 19.212"></polyline>
    <path d="m197.67 5.4994c-2.5619 0-4.3555 1.574-4.3555 6.9587 0 5.4232 1.7741 6.9553 4.3555 6.9553 2.5998 0 4.3544-1.5522 4.3544-6.9553 0-5.3847-1.7546-6.9587-4.3544-6.9587m0 14.298c-3.2064 0-6.7964-2.5011-6.7964-7.3389 0-4.8412 3.59-7.3406 6.8154-7.3406 3.2058 0 6.7953 2.4799 6.7953 7.3406 0 4.8377-3.5894 7.3389-6.8142 7.3389"></path>
    <path d="m206.61 5.7219h-1.2706v-0.32282h9.7993l0.26204 3.4472h-0.32225c-0.2414-2.5998-1.2913-3.1244-4.1141-3.1244h-2.0952v6.4513h0.9461c1.8968 0 2.8624-0.40195 2.8624-2.3985v-0.10092h0.3039v5.3028h-0.3039v-0.1594c0-2.0568-0.9461-2.3188-2.8624-2.3188h-0.9461v6.715h1.9541c3.4696 0 4.8406-0.80734 4.8406-3.7328v-0.079128h0.30275v4.1325h-10.627v-0.32053h1.2706v-13.491"></path>
    <path d="m221.08 19.233v0.30103h-3.9111v-0.30103c1.4323-0.10092 1.5728-0.3836 1.5728-1.6749v-11.453l-0.32282-0.38303h-1.25v-0.32282h3.9312l6.715 9.9404v-7.9845c0-1.3503-0.20126-1.5516-1.7546-1.633v-0.32282h3.8928v0.32282c-1.4329 0.10149-1.6938 0.36239-1.6938 1.6525v12.26h-0.3836l-8.6909-12.944v10.908c0 1.3314 0.24255 1.5533 1.8951 1.6347"></path>
    <path d="m236.34 19.212c1.715 0 2.16-0.1422 2.7626-1.1491l3.2878-5.4851-3.7706-6.8561h-1.4318v-0.32282h5.2425v0.32282h-1.2706l2.6818 4.8807 1.8159-3.0464c1.0889-1.7741 0.74656-1.7741-0.9289-1.8343v-0.32282h3.9524v0.32282c-1.4323 0-1.7339 0.50459-2.3796 1.4925l-2.2569 3.7712 4.5367 8.2265h1.2695v0.32282h-5.3635v-0.32282h1.5522l-3.4283-6.2311-2.8435 4.7592c-0.88589 1.4925-0.36181 1.4111 0.94897 1.4719v0.32282h-4.3767v-0.32282"></path>
    <polyline points="236.08 19.224 236.08 19.548 230.99 19.548 230.99 19.224 232.36 19.224 232.36 5.6852 230.99 5.6852 230.99 5.3601 236.08 5.3601 236.08 5.6852 234.65 5.6852 234.65 19.224 236.08 19.224"></polyline>
    <path d="m169.26 10.605c0.58372 0.18693 1.0998 0.2133 1.7248 0.2133 2.4794 0 3.4295-1.5849 3.4295-4.4604 0-3.168-1.0143-4.8561-3.988-4.8561h-1.1663v9.1032zm-3.9438 8.5505h1.508v-17.654h-1.508v-0.42202h5.9048c3.8165 0 5.9088 1.7936 5.9088 5.0682 0 3.5872-2.7609 5.0912-6.1875 5.0912-0.79702 0-1.445-0.10493-1.6823-0.18521v8.1015h1.9409v0.42202h-5.8847v-0.42202z"></path>
    <g class="stroke">
        <g>
            <path d="m0.53498 12.884c0.26548 4.2127 2.6233 6.4897 5.75 6.4897 2.6497 0 4.4226-1.7213 4.4226-4.1061 0-0.9805-0.36984-1.8532-1.1382-2.5424-0.97936-0.84977-2.4891-1.1422-4.5562-1.5367-3.285-0.63704-4.8217-1.9616-4.8217-5.1399 0-3.3911 2.1175-5.5109 5.1932-5.5109 2.4622 0 4.1055 1.457 4.5292 1.4828 0.37213 0.027523 0.60952-0.13131 0.60952-0.92546h0.34518v5.457h-0.34518c-0.44954-3.6038-2.4106-5.457-5.2431-5.457-2.4392 0-3.7655 1.5097-3.7655 3.5757 0 1.3779 0.61009 2.1187 1.4048 2.5419 0.7156 0.39908 2.3853 0.61009 4.5298 1.1147 3.1795 0.76663 4.6107 2.4364 4.6107 5.5109 0 3.6554-2.2781 6.0659-5.7483 6.0659-2.57 0-4.2936-1.324-5.1135-1.324-0.34576 0-0.63761 0.26548-0.66342 0.95356h-0.37041v-6.6497h0.37041z" stroke-width=".574"></path>
            <path d="m19.298 14.554l-1.9954-6.4541-2.1783 6.4541h4.1737zm-7.6227 4.6583h0.28326c0.96674 0 1.25-0.36296 1.531-1.2924l4.3968-12.681h0.74541l4.4971 13.973h1.2093v0.32167h-5.1806v-0.32167h1.633l-1.3515-4.2162h-4.4748l-1.1095 3.328c-0.26319 0.8469 0.20126 0.8469 1.4312 0.88819v0.32167h-3.6107v-0.32167zm13.394-4.7403c0.20241 3.2076 1.9954 4.9398 4.375 4.9398 2.0172 0 3.367-1.3085 3.367-3.1244 0-0.74599-0.28154-1.4123-0.86812-1.9358-0.74599-0.64564-1.8945-0.86697-3.4662-1.168-2.5006-0.48452-3.6703-1.4937-3.6703-3.9123 0-2.5808 1.6141-4.1944 3.9524-4.1944 1.875 0 3.1244 1.1084 3.4484 1.129 0.28154 0.018922 0.4633-0.10092 0.4633-0.70757h0.26204v4.1548h-0.26204c-0.34346-2.7408-1.8354-4.1548-3.9931-4.1548-1.8544 0-2.8635 1.1508-2.8635 2.7231 0 1.0499 0.46445 1.613 1.0694 1.9369 0.5453 0.30218 1.8154 0.4633 3.4472 0.8469 2.8612 0.69094 3.5097 1.7494 3.5097 4.1932 0 2.7833-1.7351 4.6181-4.3756 4.6181-1.9558 0-3.2672-1.0086-3.8911-1.0086-0.26376 0-0.48567 0.20183-0.50459 0.72477h-0.28383v-5.0608h0.28383zm14.821 4.7403v0.32167h-5.0808v-0.32167h1.3716v-13.49h-1.3716v-0.32282h5.0808v0.32282h-1.5275v6.543s2.7167-2.9346 4.4111-4.8492c0.32225-0.36239 0.86755-1.0097 0.86755-1.2511 0-0.44266-0.50516-0.44266-1.7752-0.44266v-0.32282h5.0614v0.32282c-1.9553 0-2.137 0.10034-3.6485 1.7735-1.1101 1.2299-2.7557 3.0969-2.7557 3.0969l5.375 8.6198h1.8567v0.32167h-5.7471v-0.32167h1.5115l-4.3962-7.2603-0.83773 0.90424v6.3561h1.6049zm13.475-4.6583l-1.9948-6.4541-2.1772 6.4541h4.172zm-7.6216 4.6583h0.28268c0.96846 0 1.2506-0.36296 1.5327-1.2924l4.3951-12.681h0.74656l4.4943 13.973h1.2116v0.32167h-5.1818v-0.32167h1.6319l-1.3498-4.2162h-4.4759l-1.1078 3.328c-0.26491 0.8469 0.20069 0.8469 1.4306 0.88819v0.32167h-3.6101v-0.32167zm22.517-9.4994h-0.30333c0-1.2695-0.44151-2.4386-0.88589-3.0034-0.52236-0.625-1.2276-0.98739-2.9834-0.98739h-0.58544v13.49h1.5917v0.32167h-5.504v-0.32167h1.633v-13.49h-0.54358c-1.7546 0-2.5602 0.38303-3.0654 0.98739-0.44553 0.56479-0.88761 1.8154-0.88761 3.0034h-0.30161v-4.3136h11.835v4.3136zm8.0596-4.2144c-2.5631 0-4.3561 1.574-4.3561 6.9587 0 5.4226 1.7741 6.9547 4.3561 6.9547 2.5998 0 4.3544-1.5516 4.3544-6.9547 0-5.3847-1.7546-6.9587-4.3544-6.9587zm0 14.297c-3.207 0-6.7964-2.5006-6.7964-7.3383 0-4.84 3.5883-7.3406 6.8148-7.3406 3.2064 0 6.7964 2.4799 6.7964 7.3406 0 4.8377-3.59 7.3383-6.8148 7.3383z" stroke-width=".718"></path>
            <path d="m91.635 5.4983c-2.5602 0-4.3555 1.574-4.3555 6.9587 0 5.4226 1.7752 6.9547 4.3555 6.9547 2.6015 0 4.3561-1.5516 4.3561-6.9547 0-5.3847-1.7546-6.9587-4.3561-6.9587zm0 14.297c-3.2064 0-6.7959-2.5006-6.7959-7.3383 0-4.8412 3.5894-7.3406 6.8159-7.3406 3.2058 0 6.8739 2.4799 6.8739 7.3406 0 4.8377-3.668 7.3383-6.8939 7.3383zm11.067-0.56365v0.30218h-3.9106v-0.30218c1.4312-0.10092 1.5722-0.38245 1.5722-1.6749v-11.453l-0.32225-0.38188h-1.25v-0.32397h3.9323l6.7144 9.9404v-7.9851c0-1.3498-0.20126-1.5499-1.7546-1.6313v-0.32397h3.8916v0.32397c-1.4323 0.10034-1.6944 0.36239-1.6944 1.6525v12.259h-0.38188l-8.6909-12.943v10.907c0 1.3314 0.24083 1.5533 1.8939 1.6347z" stroke-width=".718"></path>
        </g>
        <g transform="translate(118.12)">
            <path d="m0.39622 12.885c0.26548 4.2127 2.6239 6.4897 5.75 6.4897 2.6497 0 4.4232-1.7225 4.4232-4.1072 0-0.97878-0.37041-1.8532-1.1388-2.5424-0.97878-0.84862-2.4891-1.1399-4.5562-1.5367-3.285-0.63589-4.8211-1.9599-4.8211-5.1399 0-3.3911 2.117-5.5109 5.1927-5.5109 2.4627 0 4.1061 1.457 4.5292 1.4845 0.37213 0.024656 0.60952-0.13188 0.60952-0.92718h0.34576v5.457h-0.34576c-0.44954-3.6038-2.4106-5.457-5.2431-5.457-2.4386 0-3.7649 1.5109-3.7649 3.5763 0 1.3773 0.60952 2.1193 1.4048 2.543 0.7156 0.39736 2.3853 0.60894 4.5298 1.113 3.1795 0.76778 4.6101 2.4375 4.6101 5.5109 0 3.6554-2.2787 6.0659-5.7477 6.0659-2.5705 0-4.2942-1.3222-5.1135-1.3222-0.34633 0-0.63819 0.26491-0.66399 0.95298h-0.37041v-6.6497h0.37041z" stroke-width=".574"></path>
            <path d="m24.466 9.7139h-0.30333c0-1.2695-0.44438-2.4398-0.88532-3.0046-0.5258-0.62385-1.2328-0.98739-2.9857-0.98739h-0.58544v13.49h1.5929v0.32282h-5.5052v-0.32282h1.6325v-13.49h-0.54358c-1.7552 0-2.5602 0.38303-3.0648 0.98739-0.44381 0.56479-0.88761 1.8165-0.88761 3.0046h-0.30275v-4.3148h11.838v4.3148zm6.2712 4.84l-1.9943-6.4524-2.1772 6.4524h4.1714zm-7.6221 4.6594h0.28498c0.96502 0 1.2494-0.36411 1.531-1.2924l4.3951-12.682h0.74599l4.4977 13.974h1.2081v0.32053h-5.18v-0.32053h1.6319l-1.3503-4.2162h-4.4765l-1.1078 3.328c-0.26491 0.84576 0.20011 0.84576 1.4306 0.88819v0.32053h-3.6107v-0.32053zm15.758-7.1995h0.52466c3.0436 0 3.9925-0.98911 3.9925-3.1055 0-2.2374-0.86697-3.1864-3.2466-3.1864h-1.2706v6.2919zm9.2861 7.5149l-2.7013 0.012615c-0.88704 0-1.6445-0.047592-2.1497-1.0356-0.44209-0.86755-0.40252-2.1978-0.60378-3.8102-0.24255-1.8555-0.80734-2.3578-3.2271-2.3578h-0.60436v6.8744h1.5522v0.32282h-5.2213v-0.32282h1.3905v-13.49h-1.3905v-0.32282h5.6239c3.2672 0 5.0826 1.1709 5.0826 3.3481 0 1.9146-1.7947 3.1451-4.4163 3.3882 2.4805 0.36124 3.6904 1.5533 3.8314 3.5677 0.16112 2.3601 0.17431 3.3916 1.2632 3.3916l0.42431 0.013188 0.88704 0.025803-0.72649 0.39507h0.98567zm11.172-0.31651h1.3716v-13.49h-1.3716v-0.32282h5.0808v0.32282h-1.4306v6.2712h5.4025v-6.2712h-1.4323v-0.32282h5.0826v0.32282h-1.3716v13.49h1.3716v0.32282h-5.0826v-0.32282h1.4323v-6.7156h-5.4025v6.7156h1.4306v0.32282h-5.0808v-0.32282zm20.214-13.713c-2.5619 0-4.3555 1.574-4.3555 6.9587 0 5.4232 1.7741 6.9553 4.3555 6.9553 2.5998 0 4.3544-1.5522 4.3544-6.9553 0-5.3847-1.7546-6.9587-4.3544-6.9587zm0 14.298c-3.2064 0-6.7964-2.5011-6.7964-7.3389 0-4.8412 3.59-7.3406 6.8154-7.3406 3.2058 0 6.7953 2.4799 6.7953 7.3406 0 4.8377-3.5894 7.3389-6.8142 7.3389zm8.9432-14.075h-1.2706v-0.32282h9.7993l0.26204 3.4472h-0.32225c-0.2414-2.5998-1.2913-3.1244-4.1141-3.1244h-2.0952v6.4513h0.9461c1.8968 0 2.8624-0.40195 2.8624-2.3985v-0.10092h0.3039v5.3028h-0.3039v-0.1594c0-2.0568-0.9461-2.3188-2.8624-2.3188h-0.9461v6.715h1.9541c3.4696 0 4.8406-0.80734 4.8406-3.7328v-0.079128h0.30275v4.1325h-10.627v-0.32053h1.2706v-13.491z" stroke-width=".718"></path>
            <path d="m102.97 19.233v0.30103h-3.9111v-0.30103c1.4323-0.10092 1.5728-0.3836 1.5728-1.6749v-11.453l-0.32282-0.38303h-1.25v-0.32282h3.9312l6.715 9.9404v-7.9845c0-1.3503-0.20126-1.5516-1.7546-1.633v-0.32282h3.8928v0.32282c-1.4329 0.10149-1.6938 0.36239-1.6938 1.6525v12.26h-0.3836l-8.6909-12.944v10.908c0 1.3314 0.24255 1.5533 1.8951 1.6347zm15.259-0.020642c1.715 0 2.16-0.1422 2.7626-1.1491l3.2878-5.4851-3.7706-6.8561h-1.4318v-0.32282h5.2425v0.32282h-1.2706l2.6818 4.8807 1.8159-3.0464c1.0889-1.7741 0.74656-1.7741-0.9289-1.8343v-0.32282h3.9524v0.32282c-1.4323 0-1.7339 0.50459-2.3796 1.4925l-2.2569 3.7712 4.5367 8.2265h1.2695v0.32282h-5.3635v-0.32282h1.5522l-3.4283-6.2311-2.8435 4.7592c-0.88589 1.4925-0.36181 1.4111 0.94897 1.4719v0.32282h-4.3767v-0.32282z" stroke-width=".718"></path>
            <path d="m117.96 19.224v0.32454h-5.0981v-0.32454h1.3756v-13.538h-1.3756v-0.32511h5.0981v0.32511h-1.4364v13.538h1.4364zm-66.821-8.6187c0.58372 0.18693 1.0998 0.2133 1.7248 0.2133 2.4794 0 3.4295-1.5849 3.4295-4.4604 0-3.168-1.0143-4.8561-3.988-4.8561h-1.1663v9.1032zm-3.9438 8.5505h1.508v-17.654h-1.508v-0.42202h5.9048c3.8165 0 5.9088 1.7936 5.9088 5.0682 0 3.5872-2.7609 5.0912-6.1875 5.0912-0.79702 0-1.445-0.10493-1.6823-0.18521v8.1015h1.9409v0.42202h-5.8847v-0.42202z" stroke-width=".574"></path>
        </g>
        <g></g>
    </g>
</svg>