<svg role="img" viewBox="0 0 172 24">
    <polygon points="0 0.78617 0 5.5796 4.9293 5.5796 4.9293 23.398 10.813 23.398 10.813 5.5796 15.742 5.5796 15.742 0.78617"></polygon>
    <g transform="translate(0 .26434)">
        <path d="m17.53 0.51124h5.7557v6.5807c0.87205-0.69233 2.199-1.3861 4.2926-1.3861 3.2419 0 4.7782 1.223 4.7782 4.9529v12.481h-5.7557v-11.358c0-1.5184-0.6627-1.7823-1.4655-1.7823-0.94131 0-1.2215 0.1316-1.8496 0.56073v12.58h-5.7557v-22.629z"></path>
        <path d="m62.795 10.365c1.7976 0 2.6437-0.44987 2.6437-2.534 0-2.3109-0.84608-2.7271-2.3045-2.7271h-1.8307v5.2611h1.4915zm-7.4219-9.9144h6.9135c5.8997 0 9.2211 1.3146 9.2211 6.9627 0 4.4923-1.4261 7.4433-8.7803 7.4433h-1.4238v8.293h-5.9304v-22.699z"></path>
        <path d="m94.571 14.556c0-4.1948-0.21093-4.8549-1.8511-4.8549-1.6371 0-1.8126 0.82536-1.8126 5.0187 0 3.9959 0.21093 4.92 1.8511 4.92 1.6363 0 1.8126-1.0893 1.8126-5.0838m-9.8366 0c0-6.4084 2.8239-8.8508 8.024-8.8508 5.1977 0 7.9894 2.6091 7.9894 9.0146 0 6.4055-2.8271 8.8816-8.0279 8.8816-5.1969 0-7.9854-2.6406-7.9854-9.0454"></path>
        <path d="m100.38 6.1356h6.0005l1.4631 4.8535c0.28019 0.99058 0.80279 3.3036 1.2215 5.1167h0.069261c0.17709-1.65 0.62964-3.7957 1.1184-5.48l1.29-4.4901h5.8958l-5.8958 17.037h-4.9553l-6.2075-17.037z"></path>
        <polygon points="118.76 23.173 124.52 23.173 124.52 6.1359 118.76 6.1359"></polygon>
        <path d="m126.93 6.1356h4.7436l0.38487 1.4526c1.2207-1.0907 2.5807-1.8825 4.9206-1.8825 3.2419 0 4.7774 1.223 4.7774 4.9529v12.514h-5.7581v-11.391c0-1.5184-0.65955-1.7823-1.4639-1.7823-0.94052 0-1.2199 0.1316-1.848 0.56145v12.612h-5.7565v-17.037z"></path>
        <path d="m151.05 23.502c-4.8742 0-7.4967-2.8573-7.754-8.3638-0.24162-5.166 2.0589-9.496 7.9382-9.496 2.3179 0 3.962 0.72094 5.3456 2.0942l-2.4501 3.6047c-0.61233-0.72094-1.2837-1.2023-2.543-1.2023v0.040767c-2.2588 0-3.308 1.7194-3.1765 4.5438 0.12199 2.6148 1.2978 4.2348 3.526 4.2348 1.2569 0 1.9141-0.42412 2.6854-1.1823l1.996 3.7764c-1.19 1.1007-2.8719 1.9497-5.5676 1.9497"></path>
        <path d="m164.32 9.4221c-1.2105 0-1.796 0.78603-1.9928 3.3043h4.1407c-0.15426-2.3881-0.74298-3.3043-2.1479-3.3043zm-1.9928 6.605c0.15584 2.745 1.0184 3.5317 2.3848 3.5317 1.2105 0 2.0684-0.42627 3.3174-1.9311l3.5543 2.3552c-1.7166 2.1256-3.6724 3.531-7.1456 3.531-5.1174 0-7.7336-3.3672-7.7336-8.8601 0-5.8848 2.772-9.0246 7.7336-9.0246 4.8411 0 7.4974 3.0411 7.4974 9.1877v1.2101h-9.6083z"></path>
        <path d="m41.557 9.4221c-1.2113 0-1.7976 0.78603-1.9928 3.3029h4.1399c-0.15584-2.3867-0.74219-3.3029-2.1471-3.3029zm-1.9928 6.605c0.15584 2.745 1.0153 3.5317 2.384 3.5317 1.2089 0 2.0684-0.42627 3.3182-1.9311l3.5535 2.3552c-1.7166 2.1256-3.6716 3.531-7.1456 3.531-5.1174 0-7.7328-3.3672-7.7328-8.8601 0-5.8848 2.7712-9.0246 7.7328-9.0246 4.8427 0 7.4982 3.0411 7.4982 9.1877v1.2101h-9.6083z"></path>
        <path d="m73.237 6.02h4.7924l0.45806 1.8016c0.95154-1.4025 2.0786-2.0698 3.6299-2.0698 0.56274 0 1.0916 0.067231 1.445 0.13303v5.3699h-0.14167c-0.45728-0.23245-1.3742-0.49994-2.1494-0.49994-0.91691 0-1.6914 0.16665-2.2195 0.43485v12.039h-5.8147v-17.208z"></path>
        <polygon points="118.85 4.3171 124.46 4.3171 124.46 0.52712 118.85 0.52712"></polygon>
    </g>
</svg>