<svg id="Layer_1" data-name="Layer 1" xmlns="http://www.w3.org/2000/svg" viewBox="0 0 663.22 71.88"><defs><style>.cls-1{fill:#fff;}</style></defs><path d="M19.19,5.53C3.33,10.94,2.53,26.35.69,26.35c-.41,0-.73-.29-.73-1,0-.4.17-2,.4-3.6L3,3.43c.16-1.5.48-1.9.88-1.9s.72.3,1.12.7a3.06,3.06,0,0,0,2.08.9H43a3.12,3.12,0,0,0,2.09-.9c.4-.4.72-.7,1.12-.7s.72.4.88,1.9L49.7,21.75c.24,1.6.4,3.2.4,3.6,0,.71-.32,1-.72,1-1.84,0-2.64-15.41-18.5-20.82V61c0,6.41,2.48,7.81,6.41,7.81,1,0,1.44.3,1.44,1.3,0,.8-.4,1.1-1.28,1.1C32.88,71.2,28.8,71,25,71s-7.85.2-12.41.2c-.88,0-1.28-.3-1.28-1.1,0-1,.48-1.3,1.44-1.3,3.92,0,6.41-1.4,6.41-7.81Z" transform="translate(0.04 -1.53)"/><path d="M57.55,22.3c0-6.51-5.61-3.34-5.61-5.62,0-.65.26-1.06,1.31-1.06,3.32,0,6.45.17,9,.17s5.74-.17,9.06-.17c1,0,1.3.41,1.3,1.06,0,2.28-5.6-.89-5.6,5.62V64.49c0,6.51,5.6,3.33,5.6,5.62,0,.65-.26,1-1.3,1C68,71.16,64.91,71,62.3,71s-5.73.16-9,.16c-1,0-1.31-.4-1.31-1,0-2.29,5.61.89,5.61-5.62Z" transform="translate(0.04 -1.53)"/><path d="M103,54.55l12.64-38.76h4.24c2.6,0,5.73-.17,9-.17,1,0,1.31.41,1.31,1.06,0,2.28-5.61-.89-5.61,5.62V64.49c0,6.51,5.61,3.33,5.61,5.62,0,.65-.27,1-1.31,1-3.32,0-6.45-.16-9-.16s-5.74.16-9.06.16c-1,0-1.3-.4-1.3-1,0-2.29,5.6.89,5.6-5.62V22.14H115L99.37,70.76a.54.54,0,0,1-.45.24.69.69,0,0,1-.53-.24L83,24.26h-.13V57.48c0,6.84,1.7,9.53,3.46,10.67,2.34,1.55,3.58.57,3.58,2,0,.65-.33,1-1.43,1C86.8,71.16,84.65,71,82,71s-4.75.16-6.38.16c-1.11,0-1.44-.4-1.44-1,0-1.39,1.24-.41,3.59-2,1.76-1.14,3.45-3.83,3.45-10.67V21.57c-1.37-2.69-2.54-3.67-5.41-4-.91-.08-1.17-.41-1.24-1a.87.87,0,0,1,.85-1c2.41,0,4.82.17,7.23.17H90Z" transform="translate(0.04 -1.53)"/><path d="M137.62,22.3c0-6.51-5.6-3.34-5.6-5.62,0-.65.26-1.06,1.3-1.06,3.32,0,6.45.17,9.05.17,8.08,0,15.77-.08,23.46-.17l3.26,15.56a17.34,17.34,0,0,1,.39,2.11.58.58,0,0,1-.65.66c-.59,0-.53-1.39-3.07-6.68-3.06-6.35-7.29-9.69-15.11-9.69h-3.52V41h1.63c4.56,0,7.88-4.23,8.14-10.1.07-1.63.26-2,.91-2,.4,0,.66.4.66,1.14V55c0,.73-.26,1.14-.66,1.14-.65,0-.84-.41-.91-2-.26-7.25-3.58-11.07-8.14-11.07h-1.63V63.51c0,3.75,1.17,5.7,5.34,5.7,10.17,0,15.64-9,17.66-17.1.39-1.55.45-2.28,1-2.28s.65.41.65.89a21.64,21.64,0,0,1-.26,2.36L168.7,71.16c-8.6-.08-17.27-.16-26.33-.16-2.6,0-5.73.16-9.05.16-1,0-1.3-.4-1.3-1,0-2.29,5.6.89,5.6-5.62Z" transform="translate(0.04 -1.53)"/><path d="M175.6,48c0-1,.26-1.22.65-1.22.65,0,.65,1.22.92,2.93C178.73,60,182,70.35,191.5,70.35c6.65,0,10.42-4.24,10.42-10.51,0-16.45-26.06-8.38-26.06-28.58,0-9.61,6.52-16.78,14.6-16.78,6.12,0,9.38,3.26,11.2,3.26,2.28,0,1.31-2.28,2.48-2.28.45,0,.72.25.78,1.47l1.17,15.39c.13,1.55.2,2.28.2,2.69,0,.57-.2.81-.52.81-.65,0-.72-1.71-1.76-5-2.87-9-6.39-14.41-13.62-14.41-4.62,0-8.27,2.52-8.27,8.71,0,13.36,26.45,6,26.45,28,0,10.83-7.3,19.13-17.14,19.13-6.45,0-9.51-3.74-12.05-3.74s-2.15,2.77-3.26,2.77c-.32,0-.52-.17-.52-.74Z" transform="translate(0.04 -1.53)"/><path d="M376.2,29.36c0,1.4-.24,2-.88,2-1.28,0-.56-3.1-3.12-10.71-3-8.71-8.25-16.72-15.86-16.72-9.45,0-15.7,9.61-15.7,33.14s6.25,33.13,16.18,33.13c8,0,14.58-10.31,16.9-18.62,1.6-5.9.8-7.81,2.08-7.81.48,0,.72.5.72,1.6V71.7c0,1.4-.4,1.7-1,1.7-1.52,0-.08-5.6-3.92-5.6-3.21,0-7.13,4.8-16.26,4.8-16.58,0-27.87-15.41-27.87-35.53S340.16,1.53,355.38,1.53c9.13,0,13,5.61,16.66,5.61,3.2,0,1.52-4.41,3.2-4.41.56,0,1,.3,1,1.4Z" transform="translate(0.04 -1.53)"/><path d="M405.66,14.48c14.47,0,24.11,13.69,24.11,28.91S420.13,72.3,405.66,72.3s-24.1-13.68-24.1-28.91S391.2,14.48,405.66,14.48Zm0,55.87c8.21,0,13.42-9.77,13.42-27s-5.21-26.95-13.42-26.95-13.42,9.77-13.42,27S397.45,70.35,405.66,70.35Z" transform="translate(0.04 -1.53)"/><path d="M435.44,22.3c0-6.51-5.61-3.34-5.61-5.62,0-.65.26-1.06,1.31-1.06,3.32,0,6.45.17,9.05.17s5.74-.17,9.06-.17c1,0,1.3.41,1.3,1.06,0,2.28-5.6-.89-5.6,5.62V63.51c0,3.75,1.17,5.7,5.34,5.7,7.69,0,13.49-7.65,15.9-17.1.39-1.55.45-2.28,1-2.28s.65.41.65.89a21.64,21.64,0,0,1-.26,2.36l-2.86,18.08c-6.85-.08-15.51-.16-24.57-.16-2.6,0-5.73.16-9.05.16-1.05,0-1.31-.4-1.31-1,0-2.29,5.61.89,5.61-5.62Z" transform="translate(0.04 -1.53)"/><path d="M494.31,14.48c14.46,0,24.1,13.69,24.1,28.91s-9.64,28.91-24.1,28.91S470.2,58.62,470.2,43.39,479.84,14.48,494.31,14.48Zm0,55.87c8.21,0,13.42-9.77,13.42-27s-5.21-26.95-13.42-26.95-13.42,9.77-13.42,27S486.1,70.35,494.31,70.35Z" transform="translate(0.04 -1.53)"/><path d="M525.91,58.46c0,6.51,2.08,9.2,4,10.26s3.52.16,3.52,1.55c0,.49-.14.89-.92.89-2.21,0-4.75-.16-7.42-.16s-5.22.16-7.43.16c-.78,0-.91-.4-.91-.89,0-1.39,1.69-.57,3.52-1.55s4-3.75,4-10.26V22.87c-2.15-3.91-4-5-6.05-5.29-1-.16-1.5-.16-1.5-1.06,0-.65.26-.9.78-.9,2.21,0,4.62.17,7,.17h7.3l23.33,36.64h.13V28.33c0-6.52-2.09-9.21-4-10.26s-3.52-.17-3.52-1.55c0-.49.13-.9.91-.9,2.22,0,4.76.17,7.43.17s5.21-.17,7.43-.17c.78,0,.91.41.91.9,0,1.38-1.7.57-3.52,1.55s-4,3.74-4,10.26V70.27c0,1.55-.06,2.69-.59,2.69s-1-1-1.62-2L526,25.4h-.13Z" transform="translate(0.04 -1.53)"/><path d="M571.87,22.3c0-6.51-5.6-3.34-5.6-5.62,0-.65.26-1.06,1.3-1.06,3.33,0,6.45.17,9.06.17s5.73-.17,9-.17c1.05,0,1.31.41,1.31,1.06,0,2.28-5.61-.89-5.61,5.62V64.49c0,6.51,5.61,3.33,5.61,5.62,0,.65-.26,1-1.31,1-3.32,0-6.45-.16-9-.16s-5.73.16-9.06.16c-1,0-1.3-.4-1.3-1,0-2.29,5.6.89,5.6-5.62Z" transform="translate(0.04 -1.53)"/><path d="M588.94,48c0-1,.26-1.22.65-1.22.65,0,.65,1.22.91,2.93,1.57,10.35,4.83,20.69,14.34,20.69,6.65,0,10.42-4.24,10.42-10.51,0-16.45-26.06-8.38-26.06-28.58,0-9.61,6.52-16.78,14.6-16.78,6.12,0,9.38,3.26,11.2,3.26,2.28,0,1.31-2.28,2.48-2.28.45,0,.71.25.78,1.47l1.17,15.39c.13,1.55.2,2.28.2,2.69,0,.57-.2.81-.52.81-.65,0-.72-1.71-1.76-5-2.87-9-6.39-14.41-13.62-14.41-4.63,0-8.27,2.52-8.27,8.71,0,13.36,26.45,6,26.45,28,0,10.83-7.3,19.13-17.14,19.13-6.45,0-9.51-3.74-12-3.74s-2.15,2.77-3.26,2.77c-.32,0-.52-.17-.52-.74Z" transform="translate(0.04 -1.53)"/><path d="M638,17.74c-12.9,4.4-13.55,16.94-15,16.94-.33,0-.59-.24-.59-.81,0-.33.13-1.63.33-2.94L624.88,16c.13-1.22.39-1.55.71-1.55s.59.25.91.57a2.5,2.5,0,0,0,1.7.74h29.19a2.47,2.47,0,0,0,1.69-.74c.33-.32.59-.57.91-.57s.59.33.72,1.55l2.15,14.9a29.44,29.44,0,0,1,.32,2.94c0,.57-.26.81-.58.81-1.5,0-2.15-12.54-15.05-16.94V62.86c0,5.21,2,6.35,5.21,6.35.78,0,1.17.24,1.17,1.06,0,.65-.32.89-1,.89-3.71,0-7-.16-10.1-.16s-6.38.16-10.1.16c-.71,0-1-.24-1-.89,0-.82.39-1.06,1.17-1.06,3.2,0,5.22-1.14,5.22-6.35Z" transform="translate(0.04 -1.53)"/><path d="M218.89,40.47c-.06.19-.12.39-.2.59-.22.53.11,1.28-.16,1.75-.15.26-.15.62-.36.89s.07.91-.15,1.2-.15.62-.39.89.06.74-.12.94-.25.64-.36.88a13.66,13.66,0,0,0-.52,1.81c-.8,2.9,2.56,3.87,4.64,5.12.78.47,1.41-.93,2-.57,1.41.9,1.67,2.68,2.72,4a13.07,13.07,0,0,0,5.25,4.09,15.94,15.94,0,0,0,1.81.53c1.87.53,4-.21,5.63.37.86.3.71,2.22,1.94,2.81,1.43.68,3.41.78,4.16-1,4,.37,6.51,4.47,10,6.44a9.18,9.18,0,0,0,2,1.09,12.51,12.51,0,0,0,6,.48c.51-.1,1-.79,1.33-.81,2.89-.2,5.71-.08,8.61-.41,1.38,1.88,3.74,1.56,5.71,1.12,4.42-1,7.26-4.3,11.1-6.74,1.11-.71,2.28-1.73,3.54-1.52.72.12.73,1.57,1.62,1.84a3,3,0,0,0,3.32-1c.68-.83.62-2.53,1.37-2.57,5.68-.34,11.26-3.76,12.81-9.4a.45.45,0,0,1,.71-.22,2,2,0,0,0,2.33.33c1.62-.86,3.94-1.83,3.93-3.51a33.4,33.4,0,0,0-1.78-9.45h-13a5.92,5.92,0,0,0,.84,2.08,1.39,1.39,0,0,0,1.2.43c2-.5,4.51-3.06,5.66-1.93a1.57,1.57,0,0,1,.12.51,17.63,17.63,0,0,0,.33,1.89c.09.39.19.95.19.95l-.19.19a38.63,38.63,0,0,0-3.32,2.86c-1.12,1.09-.66,3.06-1.29,4.51a9.09,9.09,0,0,1-2,2.88c-1.77,1.66-4.68,2.95-6.75,1.87,1-1,.69-2.67,1.65-3.57.14-.13,0,.82.7.69.11-1-1.65-1.6-.94-2.52.25-.32.37-1.26,1.2-.87-1.24,1.71-.84,1.83,1.5,2.54-.42.77-1.78,1.44-1.11,2,.82.69,1.62-.56,1.9-1.44.5-1.56-1-1.43-2-1.81,1.49-1.72,4-1.82,5.46-3.68.16-.19-.18-.38-.17-.49.08-.63,1.13-.6,1.21-1.32,0-.4-.95-.27-.54-1.06s1-1.4.47-2c-.26-.32-.8.11-1.25.37s-1,0-1.51.12c-.21.05-.36.42-.54.42a2.73,2.73,0,0,0-1.88.76c-.5.38-.45-.75-.66-.61-1.28.91-2.48,1.49-2.94,3-1.34-1.08-1.22-3-2.4-4.13-.13-.14-.54,0-.7-.09a3.61,3.61,0,0,1-1.4-2.61h-56a2.92,2.92,0,0,1,.3,2.35c-.38,1-2.06,1.16-2.32,2.17-.35,1.41-.19,2.89-.5,4.39-.12.54-.84.84-1.26.92-.76.15-1.53-.91-1.23-1.67.12-.32.59-.5.67-.82.53-2.29,0-4.7-1.91-5.73-.38-.21-.8,1.26-1.14,2.1s.77,1.78,0,2.6c-.26-.26-.71-.54-.69-.77.13-1.35.14-2.51-.88-3.41a4.09,4.09,0,0,0,1.48-2.13Z" transform="translate(0.04 -1.53)"/><path d="M231.59,40.47a3.71,3.71,0,0,0-.05-2.26c-.81-2.18-.28-4.55-1.43-6.58-1,1.11-1.16,2.56-1.57,3.92-2.12-1.87-1.54-4.85-2.09-7.32-2.38,2.81-.16,6.44-.65,9.65,0,.17,0,.82-.38.74-2.27-.43-5.16-2.62-6.19.61-.13.41-.22.82-.34,1.24Z" transform="translate(0.04 -1.53)"/><path d="M295.1,40.47a3.11,3.11,0,0,1,.11-1c.24-.93,1.34-1,1.91-1.48,1.65-1.4-.22-3.45-.59-5.34,0-.14.36-.47.42-.44,1.52.85,2.93,2,4.74,1.76A4.84,4.84,0,0,0,299,30.46,2.78,2.78,0,0,0,295.3,32c-.62,1.44,1.51,3,.67,4.22-.67,1-1.89-.71-3.15-.78-1.75-.09-2.73-2-2.65-3.49.06-1.22,1.13.12,1.86.5a.34.34,0,0,0,.49-.26c.09-.43,0-.88.07-1.28s.75-.12.94-.33c.5-.54,1.11-.65,1.51-1.1s-.9-1.12-.64-2,1.56.32,1.49-.79c0-.36-.49-.52-.69-.82-.31-.5.47-1.14.14-1.45a9.67,9.67,0,0,1-2.15-3c-.12-.28.19-1-.16-1.14-.91-.28-1.22-1.31-2-1.36a13.55,13.55,0,0,1-4.09-.54c-1.6-.66-2.63-2.5-4.27-3.44.16,1.46,1.5,2.31,2.26,3.46a3.19,3.19,0,0,1,.09,2.29c.25-.08.4.07.52.26-1.5.26-2.51,1.28-1.45,2.51.64.73,2.6.53,2.46,1.36-.16,1-1.91,1.38-2.89,2.34a.89.89,0,0,1-.94,0c-.72-.65-.91-1.68-1.47-2.47l0,.21c-.11-.25-.08-.57-.23-.76-.58-.67-1.5-.66-2.25-1.15a2.71,2.71,0,0,1-.89-.79c-.18-.29-.13-.78-.56-.87a2.78,2.78,0,0,0-1,.16.4.4,0,0,1-.32-.09c-.64-.45-1.56-.34-1.83-1.54a17.12,17.12,0,0,1-.31-2.06c-.05-.66.62-1.21,1.37-1.48,1.7-.64,2.13-2.79,1.52-4.47-.28-.76-.48-1.73-1.45-1.8a14.7,14.7,0,0,0-4.74.26c-1.16.26-.28-1.49-1.05-2.09-1.26-1-.57,1.63-1,1.71s.35-1.91-.76-1.79c-.27,0-.46.07-.49.27-.1.61.17,1.44-.14,1.71-1.34,1.15-3.05-.71-4.57-.29a4.6,4.6,0,0,0-1.8.73c-.49.41-.46,1.22-.68,1.82a3.79,3.79,0,0,0,1.5,4c.36.29,1.26,0,1.41.65a4.24,4.24,0,0,1-.07,2.78,3.31,3.31,0,0,1-2,1.52c-.82.28-1.82-.19-2.61.27-.38.22-.51.8-.77,1.1-.92,1-1.54,2.82-3.16,3.06-.44.07-.67-.66-.47-1.16s.89-.23,1-.8c-1-.18-.38-1.18-.64-1.46a5.65,5.65,0,0,1-1.6-2.42c-.09-.37-.75-.73-1.4-.91s-1.31-2.26-1.79-1.83c-1.4,1.27-.65.65-1.63-.43-1.17,1-.26,1.89-2.05.23-.88,1.24.29,2.18-1.86,1.08-.09,1.17-.75,2.16.78,2.34-.48.36-1,.82-1.55.7-.74-.16-.53-1.46-1.24-.86-.31.26.4.93.31,1.16-.43,1.07-2.34,1.14-1.26,2.72.25.38.08,1,.08,1.51a.38.38,0,0,1,.5.27c.19.61-.66,1.1-.39,1.49.84,1.21,1.47,1.95,1.56,3.46,0,.3.55.55.42,1.05.18,0,.38-.05.51,0a.89.89,0,0,1,.54,1c.54.09.92-.27,1.34-.4s.29.62.17.9c-1,2.28-3.47,2.78-5.43,4-.1-.41-.75-.12-.75-.53,0-2.47,3.48-3.61,2.43-5.94-.31-.7-1.37-.44-2.16-.72-.24-.08-.68-.66-.9-.76-1.87-.91-3.42,1-4.86,2.23-.17.16,0,.43.24.46s1.54,0,1,.81a4.43,4.43,0,0,0,5-1.3c.17.17.49.39.45.5-.5,1.58-2.27,2.36-2.72,4-.3,1.08-.58,2.27.07,3a5.67,5.67,0,0,1,1,1.41Z" transform="translate(0.04 -1.53)"/><path d="M317.35,40.47l-.87-2.8c-.31-1-1.36-2-2.48-1.53-1.37.63-2.73,1.56-4.21,1.5-.24-2.8,1-5.91.15-8.57-.38-1.15.12-2.28-1-3.16-.19-.16-.44,0-.46.24a18,18,0,0,1-.39,3c-.53,1.68-.22,3.93-1.29,4.52-.81.45-.4-2.36-2-2.8.64,3.2-1.14,6.47-.5,9.63Z" transform="translate(0.04 -1.53)"/><path class="cls-1" d="M287.58,23.79c1,.28,1.66-.66,2-1.36.4-.89.2-2.42-1-2.7-.2,0-.69.32-.92.51-.77.66-1.27,1.5-2.44,1.56-.33,0-.37.72-.79.95C285.26,23.8,286.5,23.48,287.58,23.79Z" transform="translate(0.04 -1.53)"/><path d="M288.1,22c-.17,0-.4.07-.49,0s0-.32,0-.49a.6.6,0,0,1,.92.26C288.32,21.79,288.29,21.9,288.1,22Z" transform="translate(0.04 -1.53)"/><path class="cls-1" d="M290.44,20.34c.49-.1.29-.64.24-1s-.5-.34-.73-.23C289.24,19.47,289.88,20.45,290.44,20.34Z" transform="translate(0.04 -1.53)"/><path class="cls-1" d="M292,22.45c.35,0,1,.19.93-.21-.07-.59-.89-.68-1.47-.75-.16,0-.35.23-.23.47A1,1,0,0,0,292,22.45Z" transform="translate(0.04 -1.53)"/><path class="cls-1" d="M292.48,23.76c.14-.27.19-1-.16-.89s-1.31.84-.56,1.44C292,24,292.37,24,292.48,23.76Z" transform="translate(0.04 -1.53)"/><path class="cls-1" d="M293.33,25.88c.09.09.17.23.26.23s.17-.14.26-.23C293.62,25.65,293.46,25.62,293.33,25.88Z" transform="translate(0.04 -1.53)"/><path class="cls-1" d="M293.59,26.14c.09.09.17.24.26.24s.18-.15.26-.24A.3.3,0,0,0,293.59,26.14Z" transform="translate(0.04 -1.53)"/><path class="cls-1" d="M293.33,25.36c.09.09.17.23.26.23s.17-.14.26-.23C293.66,25.1,293.53,25,293.33,25.36Z" transform="translate(0.04 -1.53)"/><path class="cls-1" d="M288,28.59a1,1,0,0,0-1,.65,1.39,1.39,0,0,0,1-.23C288.16,29,288.27,28.62,288,28.59Z" transform="translate(0.04 -1.53)"/><path class="cls-1" d="M291.6,29.44c-.13.23-.28.84.06.8a.43.43,0,0,0,.37-.53C292,29.56,291.75,29.53,291.6,29.44Z" transform="translate(0.04 -1.53)"/><path class="cls-1" d="M289.9,29.77c-.16.09-.45.24-.3.36a.87.87,0,0,0,.56.14c.16,0,.19-.25.11-.35s-.19,0-.3,0A.09.09,0,0,1,289.9,29.77Z" transform="translate(0.04 -1.53)"/><path class="cls-1" d="M289.31,28.4c0,.21-.45.14-.29.37s.35.3.47.07S289.57,28.55,289.31,28.4Z" transform="translate(0.04 -1.53)"/><path class="cls-1" d="M289.9,27.87c-.09.12-.23.23-.18.39s.07.07,0,.14c.17,0,.39.05.5,0s-.11-.31-.11-.5" transform="translate(0.04 -1.53)"/><path class="cls-1" d="M287.83,27.93c.74-.32-.49-1.11-.08-1.41s1.09.41,1.38-.13a1.22,1.22,0,0,0,0-.51c.25.07.5-.1.47-.25-.14-.57.6-1.55.09-1.37a23.49,23.49,0,0,0-3.89,2c-.93.55-2,1.81-1.11,3C286.15,27.38,286.7,28.43,287.83,27.93Z" transform="translate(0.04 -1.53)"/><path class="cls-1" d="M268.74,12.24c.6-.28.7-1.47-.22-1.43-.28,0-.79.27-.85.59A.79.79,0,0,0,268.74,12.24Z" transform="translate(0.04 -1.53)"/><path class="cls-1" d="M260.57,12.45c-.17.09-.27.25-.17.38a.47.47,0,0,0,.55.06c.3-.22-.16-.4-.37-.5C260.58,12.42,260.58,12.45,260.57,12.45Z" transform="translate(0.04 -1.53)"/><path class="cls-1" d="M261,11.06a.37.37,0,0,0-.23.23.41.41,0,0,0,.38.55c.3,0,.48-.36.36-.61A.44.44,0,0,0,261,11.06Z" transform="translate(0.04 -1.53)"/><path class="cls-1" d="M262.41,10.44c-.16,0-.34,0-.38.13a.6.6,0,0,0,0,.44.45.45,0,0,0,.72,0C262.94,10.75,262.73,10.49,262.41,10.44Z" transform="translate(0.04 -1.53)"/><path class="cls-1" d="M263.91,10.49c-.22-.05-.29.12-.31.27a.4.4,0,0,0,.25.38c.23.12.34-.08.43-.26s-.06-.32-.25-.43C264,10.43,264,10.5,263.91,10.49Z" transform="translate(0.04 -1.53)"/><path class="cls-1" d="M264.93,11c-.21.17.26.55.44.36S265.16,10.82,264.93,11Z" transform="translate(0.04 -1.53)"/><path class="cls-1" d="M266.38,11.34s-.15,0-.17,0-.15.19-.08.31.22.09.32.06a.23.23,0,0,0,.13-.31C266.55,11.36,266.54,11.21,266.38,11.34Z" transform="translate(0.04 -1.53)"/><path class="cls-1" d="M267.12,11.42c0,.1-.05.25,0,.3s.2,0,.3,0,.19-.24,0-.31S267.19,11.23,267.12,11.42Z" transform="translate(0.04 -1.53)"/><path class="cls-1" d="M262.5,13.87c.15.17.35.4.49.22.59-.74,1.52-.7,2.13-1.27a2.1,2.1,0,0,0-2.31-.43A.93.93,0,0,0,262.5,13.87Z" transform="translate(0.04 -1.53)"/><path class="cls-1" d="M268,13.35c.86-.12,1.89.32,2.09-.92.09-.57-.85.78-2.63.19-.13,0-.34.21-.23.46S267.67,13.39,268,13.35Z" transform="translate(0.04 -1.53)"/><path class="cls-1" d="M272.42,13.28c.92-.1,1.9,1.07,1.94.06.07-1.95-2.52-.73-3.76-.26A3,3,0,0,0,272.42,13.28Z" transform="translate(0.04 -1.53)"/><path class="cls-1" d="M264.82,14.42c-.2,0-.43-.06-.57.08s.1.27.16.34a3.66,3.66,0,0,1,.55.84c.13.38-.2.78-.4,1.16.35.05.72.19,1,0,.05,0,0-.19,0-.3-.11-.42-.56-.69-.48-1.1a.73.73,0,0,1,.17-.38c.15-.11.22-.26.37-.37s0-.21,0-.21a3.37,3.37,0,0,0-.9,0Z" transform="translate(0.04 -1.53)"/><path class="cls-1" d="M268,15.43c.72.62-.34,1-.17,1.25.35.57,1.13.52,1.74.06-.91-.45-1-1.56,0-1.83-.55-.55-1.79-1-2,0C267.51,15.06,267.8,15.26,268,15.43Z" transform="translate(0.04 -1.53)"/><path class="cls-1" d="M271.8,14.51a1.74,1.74,0,0,0-1.29,0s0,.08-.07.12a2.18,2.18,0,0,1,.76.92c.19.51-.43.79-.5,1.3h1.24c-.27-.64-.78-1.38-.09-2C271.91,14.8,271.93,14.55,271.8,14.51Z" transform="translate(0.04 -1.53)"/><path class="cls-1" d="M273.12,17.49a26.24,26.24,0,0,0-4.52.1A24.16,24.16,0,0,0,273.12,17.49Z" transform="translate(0.04 -1.53)"/><path class="cls-1" d="M268.87,19.51a29.81,29.81,0,0,0-5.09.07,37.13,37.13,0,0,0,4.3.11C268.54,19.63,268.39,19.38,268.87,19.51Z" transform="translate(0.04 -1.53)"/><path class="cls-1" d="M273.28,19.43a19,19,0,0,0-3.29.07A16.83,16.83,0,0,0,273.28,19.43Z" transform="translate(0.04 -1.53)"/><path class="cls-1" d="M267.11,18.4a.2.2,0,0,0-.19.14c-.1.23.16.34.31.29S267.39,18.4,267.11,18.4Z" transform="translate(0.04 -1.53)"/><path class="cls-1" d="M272.73,18.27c-.16.12-.31.34-.28.45.07.29.41.05.57-.09S272.84,18.45,272.73,18.27Z" transform="translate(0.04 -1.53)"/><path class="cls-1" d="M263.34,20.73c-.27.2-.81,0-.8.45,0,.19.23.33.49.26v.78a.36.36,0,0,0-.49.27c-.09.86,1,.65,1.27,1.3.63-.48,1.54-.4,2.09-1-.78-.49-.67-1.29-.67-2.09S263.93,20.32,263.34,20.73Z" transform="translate(0.04 -1.53)"/><path class="cls-1" d="M269.59,22c0,.09.14.18.23.26.41-.43.47-1.08,0-1.19S269.58,21.61,269.59,22Z" transform="translate(0.04 -1.53)"/><path class="cls-1" d="M271.17,22.2c1.06,2.22,1.78-1.09,2.83-1.28a2.13,2.13,0,0,0-2.18-.61C270.79,20.5,270.82,21.46,271.17,22.2Z" transform="translate(0.04 -1.53)"/><path class="cls-1" d="M265.9,20.88c-.11.11-.08.36.11.34s.23-.18.15-.27S266,20.82,265.9,20.88Z" transform="translate(0.04 -1.53)"/><path class="cls-1" d="M266.71,21.68c.07.13.11.28.25.36s.09,0,.09,0-.13-.41-.32-.38C266.72,21.63,266.7,21.67,266.71,21.68Z" transform="translate(0.04 -1.53)"/><path class="cls-1" d="M268.47,21.17c-.08,0-.07.13-.1.19s0,.05,0,.06.29,0,.3-.13S268.59,21.13,268.47,21.17Z" transform="translate(0.04 -1.53)"/><path class="cls-1" d="M260.72,22.14a1.47,1.47,0,0,0,0,.88.67.67,0,0,0,.52.39c.22.05.41-.11.61-.05a.29.29,0,0,1,.18.28c0,.09,0,.22-.05.29a.57.57,0,0,1-.32.2,1.5,1.5,0,0,1-1.52-.59c-.17-.28-.29-.56-.46-.84s.82-.75,1.2-.88Z" transform="translate(0.04 -1.53)"/><path class="cls-1" d="M256.68,24.75c-.89.77-3.14,2.38-1,2.86,1,.23,2.49-2.95,3.15-4.63,0-.11-.27-.37-.43-.2C257.75,23.41,257.32,24.2,256.68,24.75Z" transform="translate(0.04 -1.53)"/><path class="cls-1" d="M259.87,26.65c.15-.21,0-.43-.25-.48s-.72-.13-.72.23a.7.7,0,0,0,.48.48A.58.58,0,0,0,259.87,26.65Z" transform="translate(0.04 -1.53)"/><path class="cls-1" d="M260.08,27.89c.05-.34-.18-.11-.41-.13-1.67-.12-.46,1,0,1.52A2.67,2.67,0,0,0,260.08,27.89Z" transform="translate(0.04 -1.53)"/><path class="cls-1" d="M259.13,33.25c.19-.09.49-.18.44-.29a6,6,0,0,1-.2-3.16l-.52.52a1.57,1.57,0,0,0-1.57-.52.41.41,0,0,0-.27-.51.33.33,0,0,0-.48.25,8.77,8.77,0,0,0,.05,3.11,1.37,1.37,0,0,0,.73.73A2.48,2.48,0,0,0,259.13,33.25Z" transform="translate(0.04 -1.53)"/><path class="cls-1" d="M254.44,30.56a7.18,7.18,0,0,0,.78.78c.17.16.41,0,.47-.24a1.25,1.25,0,0,0-.53-1.27.55.55,0,0,0-.49,0A.48.48,0,0,0,254.44,30.56Z" transform="translate(0.04 -1.53)"/><path class="cls-1" d="M252.84,30.06c0-.29,0-.8-.22-.69a.78.78,0,0,0,0,1.38C252.82,30.84,252.88,30.38,252.84,30.06Z" transform="translate(0.04 -1.53)"/><path class="cls-1" d="M252.26,27.67c.3-.39-.12-.87-.48-.93s-.29.43-.22.7A.43.43,0,0,0,252.26,27.67Z" transform="translate(0.04 -1.53)"/><path class="cls-1" d="M252.05,28c.09.09.18.23.27.23s.17-.14.26-.23C252.41,27.77,252.26,27.67,252.05,28Z" transform="translate(0.04 -1.53)"/><path class="cls-1" d="M251.79,24.84a4.51,4.51,0,0,0,1,0c.21,0,.41-.3.24-.46-.88-.88-.51-2.09-.83-3.15-.21-.69-1.35-.84-2-.28,1.72.83.65,2.9,1.13,4.41,0,.06.5.94.73.66S251.63,25.36,251.79,24.84Z" transform="translate(0.04 -1.53)"/><path class="cls-1" d="M246.78,19.7a2.15,2.15,0,0,1,1.56.14,1.86,1.86,0,0,1,1,1.42,2.32,2.32,0,0,0-.58.63.33.33,0,0,0,.08.36,1,1,0,0,0,.79.2s.12-.1.2-.11a2.09,2.09,0,0,0,.5-.16c.48-.21.32.52.3.81s-.27.37-.21.62,0,.22,0,.33.17.22.21.36a.5.5,0,0,1-.07.38.47.47,0,0,1-.55,0c-.42-.26-.21-.8-.28-1.24,0-.06-.15-.06-.17-.16-.43.16-1,.28-1.18.75.29.31.69.52.82.95a1.6,1.6,0,0,1-.66.7c-.21.09-.39-.07-.54-.22s-.34-.58-.64-.68a4.22,4.22,0,0,1-.79-.23,2.76,2.76,0,0,1-1.2-1.35,1.56,1.56,0,0,1-.12-1,5.41,5.41,0,0,1,.31-1,2.16,2.16,0,0,1,.22-.39.35.35,0,0,1,.22-.15c.22,0,.32.23.5.34s.05.29.14.41a1.18,1.18,0,0,0,.54.29c.07,0,.2,0,.24.06s.12.16.1.21c-.15.25-.42.34-.62.55a5.59,5.59,0,0,1-.62.56c-.08.05-.21.16-.13.26s.14,0,.16.05c.08.21.17.43.41.47a1.58,1.58,0,0,0,1.11-.15c.22-.14.26-.4.41-.6a2.73,2.73,0,0,0,.25-.55.66.66,0,0,0,0-.48,3.09,3.09,0,0,0-.52-.84c-.28-.32-.5-.65-.78-.95s-.38-.29-.54-.47C246.67,19.8,246.78,19.71,246.78,19.7Z" transform="translate(0.04 -1.53)"/><path class="cls-1" d="M250.14,25.91a.4.4,0,0,0-.38.06,2.73,2.73,0,0,1-.85.39c-.14,0,.06.24.16.23a4.49,4.49,0,0,0,.87-.06.47.47,0,0,0,.36-.57C250.28,25.89,250.19,25.94,250.14,25.91Z" transform="translate(0.04 -1.53)"/><path class="cls-1" d="M244.4,18.65a1.49,1.49,0,0,0-.1,1c.06.17.31.4.51.26s.31-.25.48-.36.48-.06.74-.13.62-.43,1-.5a3.16,3.16,0,0,1,2,.18c.06,0,.15,0,.22,0a1.21,1.21,0,0,1,.5.39c.17.25.39.68.66.54a2.84,2.84,0,0,1,1.26-.12s0-.09-.08-.13-.23-.15-.33-.25-.48-.13-.66-.29a5.18,5.18,0,0,1-1-1.42s-.07,0-.08,0a1.26,1.26,0,0,0-.64.46.26.26,0,0,1-.37.06,3.18,3.18,0,0,1-.63-.86c-.32.23-.27.7-.53,1-.07.09-.21.06-.28,0-.35-.19-.62-.61-1.05-.6-.27.33,0,.83-.2,1.15-.07.1-.32.05-.48,0C245,18.94,244.72,18.78,244.4,18.65Z" transform="translate(0.04 -1.53)"/><path class="cls-1" d="M243.94,21.39a7.38,7.38,0,0,0-.78.3c-.07,0-.09.14-.17.19a3.4,3.4,0,0,0-1,.76s-.07.08,0,.12.47.14.7.22c0,0,0,.13,0,.16s-.23.19-.33.29a2.62,2.62,0,0,0-.43.55.28.28,0,0,0,0,.33.67.67,0,0,0,.6.19c.23-.06.36-.29.51-.48.45-.57.93-1,1.38-1.59,0,0,0-.11,0-.11-.32-.14-.66,0-1-.08-.19-.42.26-.71.59-.88Z" transform="translate(0.04 -1.53)"/><path class="cls-1" d="M244.37,23.28c-.32.1-.9.47-.6.83s.47.1.72.08a.19.19,0,0,0,.12-.09c.06-.21.21-.42.13-.61S244.52,23.23,244.37,23.28Z" transform="translate(0.04 -1.53)"/><path class="cls-1" d="M244.66,25s-.09.06-.13.06c-.25,0-.53,0-.58.27-.11.7-.18,1.19.37,1.67a.67.67,0,0,0,.66.17.3.3,0,0,0,.15-.21,6.84,6.84,0,0,0,0-1.63A.48.48,0,0,0,244.66,25Z" transform="translate(0.04 -1.53)"/><path class="cls-1" d="M242.46,25.54a.62.62,0,0,0-.28.69c.2-.18.53-.26.59-.53S242.53,25.5,242.46,25.54Z" transform="translate(0.04 -1.53)"/><path class="cls-1" d="M243.35,26.75c-.13.26-.35.61-.19.88.2-.13.45-.23.54-.46a.37.37,0,0,0-.32-.48S243.36,26.73,243.35,26.75Z" transform="translate(0.04 -1.53)"/><path class="cls-1" d="M244.17,28.35a8.75,8.75,0,0,0,.19,1.14c.38-.06.46-.55.4-.84S244.4,28.39,244.17,28.35Z" transform="translate(0.04 -1.53)"/><path class="cls-1" d="M247.07,27.69c-.6,0-.69.73-.83,1.2a2.85,2.85,0,0,1-.3.64s0,.12,0,.11c.36-.18.4-.7.79-.87,0,.06.05.1.05.13s-.2.28-.07.34.44-.46.59-.1,0,.5,0,.74,0,.37.11.36.26-.26.37-.42a1.7,1.7,0,0,1,.18.46c0,.13,0,.29.06.41s0,.38.16.49.2-.07.23-.13a7.69,7.69,0,0,0,.5-1.26c0-.08.15-.19.22-.12a2,2,0,0,1,.67.94,5.44,5.44,0,0,0,.15.7.22.22,0,0,0,.24.06c.13-.06.16-.22.18-.35,0-.3.26-.54.19-.84,0-.13-.2-.16-.28-.25-.23-.27-.5-.66-.33-1,0,0,.11,0,.14.09.14.32.26.68.62.78,0-.15.21-.24.2-.42,0,0,.08,0,.1,0,.22,0,.3.27.27.44-.1.5-.12,1-.25,1.45,0,.05.11,0,.13,0a2.1,2.1,0,0,0,.55-1.59,2.79,2.79,0,0,0-.28-1.34.19.19,0,0,0-.16-.08c-.66.07-1.29,0-1.95.08-.34.06-.14.58-.33.76a.75.75,0,0,1-.95-.08c-.26-.25-.42-.56-.7-.8A1,1,0,0,1,247.07,27.69Z" transform="translate(0.04 -1.53)"/><path class="cls-1" d="M290.75,27.81a4.86,4.86,0,0,0,1-.78s.11,0,.11.06c0,.39-.32.64-.55.87C291.22,28,291,27.78,290.75,27.81Z" transform="translate(0.04 -1.53)"/><path class="cls-1" d="M236.72,29.93a2.29,2.29,0,0,1,1.46-.29c0,.18-.22.2-.34.23a9.31,9.31,0,0,0-1.56.55A1.09,1.09,0,0,1,236.72,29.93Z" transform="translate(0.04 -1.53)"/><path class="cls-1" d="M237,30.56a2.66,2.66,0,0,1,1.75-.58c.19,0,.21.26.34.35.81.58,1.57.38,2.33.66.43.16.55.75.48,1.19,0,.2-.17.62-.45.48s-.1-.56-.24-.93a.94.94,0,0,0-.56-.59l-.08,0c-.31-.09-.55-.11-.74.17a2.17,2.17,0,0,1-2.17,1c-.21,0-.25-.54,0-.69a3.07,3.07,0,0,1,.51-.16.79.79,0,0,0-.47-.31c-.3-.13-.7.13-.94-.11S236.83,30.68,237,30.56Z" transform="translate(0.04 -1.53)"/><path class="cls-1" d="M238.37,37h.07a1.23,1.23,0,0,1,.3-1,10.84,10.84,0,0,1,1.07-1.34.67.67,0,0,1,0,.25c-.43.76-1.15,1.25-1.32,2.16a.67.67,0,0,1-.17,0Z" transform="translate(0.04 -1.53)"/><path class="cls-1" d="M245.58,35.2c.22-.09.25.34.3.64,0,.11.13.22.18.17.26-.22.5-.73.84-.57a2.17,2.17,0,0,0,.55.23c.14,0,0,.24.08.28s.26-.15.39-.22c.32-.14.63.11.87.28a.74.74,0,0,1,.2,1,15.16,15.16,0,0,1-2.59,2.32c.52-.38-.73.33-.84.33-.26,0-.45.66-.61.69-.44.09-.57.41-.8.7s-.75.8-1.13,1.22a7.31,7.31,0,0,1-3.59,1.92c-.25.07-.43.42-.73.38-.11,0-.11-.28-.09-.34.13-.33.63-.35.83-.64a3.07,3.07,0,0,0,.43-.69c.13-.31.07-.68.23-1,0,0,.16-.08.22-.15s0-.43.11-.56.41-.06.45-.23c.11-.38,0-.8.18-1.16s.42-.09.64-.15c.05,0,.12-.08.12-.11a2.16,2.16,0,0,1,.18-2,4.51,4.51,0,0,1,1.84-1.19C244.48,36.1,245,35.44,245.58,35.2Z" transform="translate(0.04 -1.53)"/><path class="cls-1" d="M254,32.28a1,1,0,0,1,.88.08,7.9,7.9,0,0,1,2.87,2.15.71.71,0,0,0,.55.35c0,.12.23.14.12.25s-.15.1-.17.15c-.1.3.36.41.28.7s-.5,0-.4.33c0,.13.15.3.13.39s-.33,0-.38.1-.21.25-.28.2a4.25,4.25,0,0,1-1.08-1.36c-.09-.12-.14-.34-.22-.48a2,2,0,0,0-.49-.66c-.38-.3-.86-.18-1.29-.3-.12,0-.26-.25-.36-.34a1.54,1.54,0,0,1-.42-.81C253.67,32.72,253.71,32.4,254,32.28Z" transform="translate(0.04 -1.53)"/><path class="cls-1" d="M259.92,38.26c-.06,0-.1,0-.13-.07a.78.78,0,0,0-.43.64c-.06.83.94.64,1.13.07C260.6,38.58,260.35,38.1,259.92,38.26Z" transform="translate(0.04 -1.53)"/><path class="cls-1" d="M259,39.82c.33.49,1.3.24,1.81-.09a1.34,1.34,0,0,0,.39-.31,2.28,2.28,0,0,0,.24-.83s.12,0,.17.06a1.75,1.75,0,0,0,.59.59c-.22-.05-.28.16-.37.28a17.68,17.68,0,0,1-1.46,1.74c-.26.26-.88-.59-1.36-1.24C259,40,259.05,39.88,259,39.82Z" transform="translate(0.04 -1.53)"/><path class="cls-1" d="M259.78,34.71a9,9,0,0,0,.78,2.78.91.91,0,0,1-.36-.06,1.44,1.44,0,0,0-.84.15,1.47,1.47,0,0,0-.62.57.9.9,0,0,0-.17.32,4.63,4.63,0,0,1-.1.65,2,2,0,0,1-.57-1c0-.13-.11-.36.08-.33s.24.12.35.08a.21.21,0,0,0,.14-.21c.15,0,.26.05.39,0s.1-.32.24-.36.42.12.56,0-.17-.38.06-.44.46,0,.43-.18-.33-.26-.45-.44-.17-.16-.08-.23.19-.11.25-.19a.17.17,0,0,0,0-.14c-.09-.1-.26-.11-.28-.24s.16-.36.19-.55" transform="translate(0.04 -1.53)"/><path class="cls-1" d="M261.05,41.7a1.75,1.75,0,0,0,.59-.59c.21.18.57.35.72.59a2.19,2.19,0,0,1-.59.66A7.51,7.51,0,0,1,261.05,41.7Z" transform="translate(0.04 -1.53)"/><path class="cls-1" d="M262.78,39.71c-.06.2-.3.38-.42.56,0,0-.12.13-.09.15.2.16.58.61.76.44a5.71,5.71,0,0,0,.54-.63A5.13,5.13,0,0,1,262.78,39.71Z" transform="translate(0.04 -1.53)"/><path class="cls-1" d="M264.28,40.76c-.57.62-1,1.4-1.6,2.05A3.67,3.67,0,0,0,264.26,44a1.57,1.57,0,0,0,.94.28c0-.24.24-.43.27-.66a3.39,3.39,0,0,1,.17-.48c.16-.42.35-.82.54-1.38a5.89,5.89,0,0,1-1.39-.66C264.73,41,264.89,41,264.28,40.76Z" transform="translate(0.04 -1.53)"/><path class="cls-1" d="M260.58,25.26a9.77,9.77,0,0,0-1.24-1.17,4.74,4.74,0,0,0-2,3.59,1.77,1.77,0,0,0,1.11.52c-.13-.22.26-.37.26-.59-.23.07-.29-.19-.34-.28a1.57,1.57,0,0,1,.23-1.92,1.32,1.32,0,0,1,1.78.07c.15.14.43-.19.23-.42" transform="translate(0.04 -1.53)"/><path class="cls-1" d="M261.43,24.87c-.11,1.21.16,2.38.08,3.6-.06,1,0,1.77.05,2.8h6.56v-6c0-.45-.26-.72-.85-.72h-5S261.46,24.51,261.43,24.87Z" transform="translate(0.04 -1.53)"/><path class="cls-1" d="M269.23,24.64a.7.7,0,0,0-.46.72v5.48c0,.27.53.46,1.05.46h4.31c.65,0,.85-.26.78-1.11s.13-3.26.2-4.05.13-1.43-.46-1.5S269.23,24.64,269.23,24.64Z" transform="translate(0.04 -1.53)"/><path class="cls-1" d="M267.53,32h-4.89a1.07,1.07,0,0,0-1.05,1.1c-.07.79,0,3.14,0,3.6A3.16,3.16,0,0,0,264,39.07a17.91,17.91,0,0,0,2.87,0,8.07,8.07,0,0,1,1.18-2.15V32.61C268.06,32.15,267.53,32,267.53,32Z" transform="translate(0.04 -1.53)"/><path class="cls-1" d="M269.3,32s-.56.09-.56.55V36l.95,2.88a4.58,4.58,0,0,0,1.44.19,3.82,3.82,0,0,0,2.54-.65c.72-.59,1.05-.85,1.18-1.7a38,38,0,0,0,0-3.85c0-.78,0-1-.88-1l-4.87,0" transform="translate(0.04 -1.53)"/><path class="cls-1" d="M264.73,54.78a7.5,7.5,0,0,1-.29-3.55A37.37,37.37,0,0,1,265.67,45a51.35,51.35,0,0,0,2.16-6.52c0-.19.59-.82.87-.25a5.28,5.28,0,0,1,.45,2.32c0,.47-.77.84-1.39,1.11-.16.07.05.33.23.46.17-.37.5-.3.78-.24s.4.3.23.47-.6.47-.72.82c-.31.93.5,1.91-.29,2.6.49.17.83-.45,1.3-.24.2.08.41.33.23.47-.67.54-.76,1.67-1.79,1.34,0,.29-.11.6.25.8s1.2-.68,1.15,0c-.06.85-1.32,1.49-.1,2.11-.81.77-2.35-.85-2.64.79-.08.41,1.06-1,1.2,0s-1.26,1-.91,2.07c.61-.25.7,1.24,1.23.47.17-.26-.22-.65-.42-1a.33.33,0,0,1,.25-.49c1.08-.29.62,1.09,1.29,1.28-1.14,1.14.56,2.09.2,3.38-.11.38-.68.43-1,.77-.16.17-.48-.1-.43-.2.63-1.35,0-2.32-.84-3.17-.36,1,0,2-1.07,2.18-.39,0-.8-.48-1.11-1.41" transform="translate(0.04 -1.53)"/><path class="cls-1" d="M269.49,51.73c-.16,1,.71,1.76,0,2.74-.21.27.65.86.89,1.45.76-.72-.34-2,.79-2.61-1.07-.75-1.64-1.58-.59-3.17.06-.08-.27-.36-.43-.19A11.88,11.88,0,0,1,269,51.22C269.21,51.4,269.51,51.59,269.49,51.73Z" transform="translate(0.04 -1.53)"/><path class="cls-1" d="M275.6,52.82a5.46,5.46,0,0,1-.78-1.37c-.18.3.08,1.06-.21,1.09s-.72-.38-1.17-.44c0,.54.55.9.66,1.44A12.87,12.87,0,0,0,275.6,52.82Z" transform="translate(0.04 -1.53)"/><path class="cls-1" d="M272.86,50.47a3.89,3.89,0,0,0,1.24.52,7.17,7.17,0,0,0,.32-1.37c-.31.46-.83.61-1.31.9A.22.22,0,0,1,272.86,50.47Z" transform="translate(0.04 -1.53)"/><path class="cls-1" d="M278.54,48.25a2.11,2.11,0,0,0-1.83.26,2.41,2.41,0,0,0-.61.86,1.49,1.49,0,0,0,.26,1.52,2.3,2.3,0,0,0,1.72.62c-.25.39-.73.38-1,.66-.61-.91-1.36-1.72-1.9-2.68.4-.1.32-.26.68-.42,0,0,0-.06,0-.1a4.57,4.57,0,0,0,1.27-.9c1-.85,2-1.54,3.14-2.32.23-.15.41.29.49.54-.21,0-.1.27-.26.33.17,0,.11.22.26.19,0,.34.38.51.33.85a11,11,0,0,0-1.7-.49.67.67,0,0,0-.75.5c-.07.22.28.37.23.64" transform="translate(0.04 -1.53)"/><path class="cls-1" d="M277.49,49.1c-.39.07-.54.68-.49,1,0,.13.21.15.31.25a.74.74,0,0,0,1.11-.1.71.71,0,0,0,0-.9c-.13-.16-.17-.36-.57-.36Z" transform="translate(0.04 -1.53)"/><path class="cls-1" d="M279.58,49.82a2.29,2.29,0,0,1-.13.85c.23-.15.6-.21.66-.41S279.77,50,279.58,49.82Z" transform="translate(0.04 -1.53)"/><path class="cls-1" d="M280.69,49.69c.16-.63-.09-.76-.19-1.18.53.09.94.61,1.49.43.29-.09.68-.4.64-.53-.18-.55-.63-1.1-.57-1.73a10.25,10.25,0,0,0,3.86.26c0,.07,0,.1.06.13-.74.68-1.69,1.07-2.41,1.77A6.66,6.66,0,0,0,280.69,50c-.17.11-.19.06-.32.07s0-.16.06-.19S280.66,49.81,280.69,49.69Z" transform="translate(0.04 -1.53)"/><path d="M266.21,48a.22.22,0,0,0-.19.13s0,.08.06.08.5,0,.44-.18-.13-.07-.21,0" transform="translate(0.04 -1.53)"/><path d="M265.49,51.92c-.13.09-.29.27-.14.37a.34.34,0,0,0,.44-.15c.11-.23-.25-.23-.43-.22" transform="translate(0.04 -1.53)"/><path d="M265.39,55.42c0-.11.13-.09.18-.16s.06,0,.08,0,.15.12.09.18a.3.3,0,0,1-.31.09S265.37,55.48,265.39,55.42Z" transform="translate(0.04 -1.53)"/><path class="cls-1" d="M266.92,56.49c.33-.1.09-.62.37-.55s.2.44.11.65-.32.11-.48,0S266.9,56.5,266.92,56.49Z" transform="translate(0.04 -1.53)"/><path class="cls-1" d="M269.58,41.65c-.16,0-.2.32,0,.36s.34-.19.27-.33S269.66,41.63,269.58,41.65Z" transform="translate(0.04 -1.53)"/><path class="cls-1" d="M269.15,43.56a.22.22,0,0,0-.16,0,.29.29,0,0,0,0,.41c.15.14.31-.06.49,0s.15-.06.15-.14a.38.38,0,0,0-.55-.3" transform="translate(0.04 -1.53)"/><path class="cls-1" d="M269.8,46.93c-.11,0-.18.07-.19.16s.12.13.2.15.32,0,.27-.15S269.93,47,269.8,46.93Z" transform="translate(0.04 -1.53)"/><path class="cls-1" d="M269.83,49c-.14,0-.23.16-.18.26s.21.09.31.06A.15.15,0,0,0,270,49c-.06-.09-.15-.09-.23-.13Z" transform="translate(0.04 -1.53)"/><path class="cls-1" d="M270.72,48.3c0-.2-.23-.46,0-.57s.22,0,.3-.1.14-.36.29-.2a.25.25,0,0,1,0,.34c-.15.11-.29.2-.26.44,0,.07-.19.07-.29,0Z" transform="translate(0.04 -1.53)"/><path class="cls-1" d="M272.9,53.26a3.91,3.91,0,0,0,.35.48s0,.14.08.09.28,0,.18.1a1.55,1.55,0,0,1-1,.41,2.29,2.29,0,0,1,.09-.87c0-.12.24-.11.37-.18Z" transform="translate(0.04 -1.53)"/><path class="cls-1" d="M271.83,41.34a11,11,0,0,1-1.13.49c-.13.05,0,0,0,.09a5.78,5.78,0,0,0,.8,2.09c.2.24.42,0,.52-.17s-.13-.62.11-.76.4,0,.46-.21a.54.54,0,0,0-.32-.59c-.22-.09-.52,0-.71-.19,0,0,.05,0,.06,0,.05-.21-.15-.49.07-.61.39-.19.79-.31,1.18-.51a.44.44,0,0,1,.63.18,9.08,9.08,0,0,0,.22.9,2.69,2.69,0,0,0,.47.67c.18.19.47,0,.56-.21a.23.23,0,0,0-.06-.22,2.18,2.18,0,0,0-.47-.44c-.15-.1-.25-.23-.4-.34a.93.93,0,0,1-.08-1.13,2.17,2.17,0,0,1,1-.64.44.44,0,0,1,.6.17,4.73,4.73,0,0,0,.88,1.06c.09.09.24,0,.37-.06s.22-.21.14-.3c-.32-.39-.7-.66-1-1.08-.07-.1-.2-.19-.19-.28a1,1,0,0,1,.7-.72c.12,0,.28.16.41.11s.07-.39,0-.56-.2,0-.29.11a3.17,3.17,0,0,0-.46.36A12.76,12.76,0,0,1,272.57,41C272.33,41.08,272,41.24,271.83,41.34Z" transform="translate(0.04 -1.53)"/><path d="M262.53,26.83a3.68,3.68,0,0,1,.25-1.87.75.75,0,0,1,.41-.21c.6-.16.87.35,1.26.68.15.12.4,0,.55-.07a1.5,1.5,0,0,1,2.5,1.6c-.27,0-.52.22-.77.11a2.7,2.7,0,0,0-.6-.28,29.72,29.72,0,0,0-3.66.1S262.53,26.85,262.53,26.83Z" transform="translate(0.04 -1.53)"/><path d="M262.54,27.48a21.44,21.44,0,0,1,4.24-.1c.07,0,.23,0,.25.1.1.63.51,1.25.29,1.81,0,.05-.39,0-.44.16-.2.57.34.6.54,1.11.12.28-.31.38-.56.23s-.27-.13-.67-.2a8.44,8.44,0,0,0-2.79.17,2.54,2.54,0,0,1-1,0A16.12,16.12,0,0,1,262.54,27.48Z" transform="translate(0.04 -1.53)"/><path class="cls-1" d="M266.19,28.79c-.83.06-1.65.14-2.48.19.17.36.61.82,1,.68s.38-.42.62-.52.71-.17,1-.32C266.38,28.78,266.25,28.79,266.19,28.79Z" transform="translate(0.04 -1.53)"/><path d="M269,26.1c-.05-.26.32-.27.54-.38a.57.57,0,0,0,.27.24c.06,0,.2.07.24-.05s0-.27,0-.38a.23.23,0,0,1,.31-.13c.27.14.2.47.34.7a1,1,0,0,0,.33.38c.16.08.43.08.49-.12.13-.44-.22-.78-.48-1.11-.13-.16.1-.28.16-.27.44.14.58.72,1,.94.1,0,.26-.34.44-.42a1.49,1.49,0,0,1,.89,0c.34.06.75.33.57.68s-.77.33-.88.57c-.27.6.14,1.35.35,2,.08.23.39.62.35.95-.06.62-.58,1.52-1.27,1.07-.4-.28.25-.68.13-1.06,0,0-.16-.23-.19-.19-.55.64-1.31,1.9-2.06,1a1.11,1.11,0,0,1,.06-1.07c.07-.15-.06-.3-.14-.43s-.47-.13-.71,0-.47-.06-.56-.32.27-.57.36-.91a.86.86,0,0,0-.43-.94C268.85,26.65,269,26.35,269,26.1Z" transform="translate(0.04 -1.53)"/><path class="cls-1" d="M271.29,27.68c-.11,0-.27,0-.3,0a.47.47,0,0,0,.18.62c.62.39,1.29,1,2,.63.07,0,0-.3,0-.48a2.27,2.27,0,0,1-1.71-.7c-.05,0-.17,0-.25-.08Z" transform="translate(0.04 -1.53)"/><path d="M265,33.16a.38.38,0,0,1-.45-.2c0-.05,0-.14,0-.18-.28-.35-.71-.22-1-.05s0,.38-.1.55a8.3,8.3,0,0,0-.94,1.59,2.33,2.33,0,0,0,0,1.36c.3,1.08,1.35,1.42,2.25,1.93.29.17.36.6.64.78s.56-.15.79-.27.15-.4.3-.74a13,13,0,0,0,1.1-4.64,2.32,2.32,0,0,0-2.35-.39" transform="translate(0.04 -1.53)"/><path d="M271.21,32.81c-.43.18-.63-.18-.95-.44s-.83,0-1.05.41.14.76.33,1.13-.37.19-.45.44a.86.86,0,0,0,0,.63c.24.44.9,1.08.39,1.46-.11.08-.39,0-.46.19s.26.51.27.78a2.5,2.5,0,0,0,.27,1.08c.08.12.21-.15.35-.23a1.16,1.16,0,0,1,1.08-.15,1.39,1.39,0,0,0,.81.31.48.48,0,0,0,.24-.11c.21-.24.42-.44.67-.4s.69.34.59.74a1,1,0,0,0,.85-.52c-.68-.11-1.16-1-.62-1.4.25-.19.54-.37.57-.63.06-.58-.59-1.06-.54-1.62,0-.32.27-.54.2-.92a2.67,2.67,0,0,0-.48-1,.6.6,0,0,0-.63-.33A9,9,0,0,0,271.21,32.81Z" transform="translate(0.04 -1.53)"/><path class="cls-1" d="M271.16,34.07a.58.58,0,0,0-.49.59c0,.19.3.24.49.24s.39,0,.43-.24-.24-.46-.43-.65Z" transform="translate(0.04 -1.53)"/><path class="cls-1" d="M270.57,35.72c.05,0,.08.1.13.11.33.05,1-.1.88.4,0,.15-.1.47-.19.41-.35-.26-.78-.47-.95-.93A.29.29,0,0,1,270.57,35.72Z" transform="translate(0.04 -1.53)"/><path class="cls-1" d="M263.91,33.16c-.09.13-.24.2-.28.39s0,.56-.15.76a6.86,6.86,0,0,0-.45.76,1.39,1.39,0,0,0,.06,1.34,3.16,3.16,0,0,0,1.28,1.26.34.34,0,0,0-.09-.3,1.8,1.8,0,0,1-.71-1.9c.31-.77,1.19-1,1.95-1.31a1,1,0,0,0,.54-.47c-.38-.14-.7.17-1,.35s-.83.23-1-.11A5.44,5.44,0,0,1,263.91,33.16Z" transform="translate(0.04 -1.53)"/><path class="cls-1" d="M273.12,23.31c.19-.16.17-.5.45-.44s.38.47.18.74-.52.08-.69-.19C273.05,23.4,273.09,23.34,273.12,23.31Z" transform="translate(0.04 -1.53)"/><path class="cls-1" d="M274.42,21.28c0,.28-.18.6,0,.82s.52.11.8.19a.76.76,0,0,1,.44.5c.14.42-.45.55-.5,1a6.3,6.3,0,0,1,1.62,0c.2.06.27.36.47.49-.09.06-.06.18-.11.27s0,.3,0,.44-.22.57-.08.76c.28.36.64-.25.94-.24a.5.5,0,0,1,.42.65c-.2.51-.91.59-1.14,1s.48.63.35,1c-.05.12-.3.32-.47.24s-.26-.28-.41-.41-.15.1-.25.12a1.88,1.88,0,0,1,.41,1.11c0,.49,0,1,0,1.5-.08,1.53.15,3,.08,4.57,0-.14,0-.34.2-.37s.37.11.52.24c.11-.29.44-.56.29-.83s-.72-.6-.65-1.06c0-.07.15-.16.24-.17a.62.62,0,0,1,.46,0,.93.93,0,0,0,.87-.15A4.45,4.45,0,0,0,280,31.48a1.88,1.88,0,0,0-.37-2c-.16.29-.52.55-.51.78s.72.61.66,1c0,.28-.26.51-.54.26-.44-.41-.77-1.05-1.44-1h.06c-.26,0-.6.19-.73,0s-.15-.62,0-.69.7,0,1-.11a2.09,2.09,0,0,0,1.21-1.14,1.88,1.88,0,0,0-.11-1.41C278.28,24.86,276.84,22.37,274.42,21.28Z" transform="translate(0.04 -1.53)"/><path class="cls-1" d="M279.67,26.43a13.08,13.08,0,0,1,1.1,5.4c0,.09.78,0,.88-.21.23-.46.72-.71.62-1.12a4.46,4.46,0,0,0-.76-1.28c-.67-1.07-.68-2-1.62-2.89C279.79,26.24,279.64,26.38,279.67,26.43Z" transform="translate(0.04 -1.53)"/><path class="cls-1" d="M279.57,33.22a2.75,2.75,0,0,1,.74-.42,5.63,5.63,0,0,0,3.08-1.89,3.38,3.38,0,0,0,1.1-2.19.52.52,0,0,1,.14-.31c.11-.14.14.08.15.12.12.52-.29,1,0,1.49.18.3.37.65.76.75,0,0,0,.19.07.23s.38-.16.59-.11.08.28.27.35a.83.83,0,0,1,.54.87c-.07.51,0,1.35-.75,1.38a1.52,1.52,0,0,0-.92-.76c-.16-.07-.37.05-.52.06a17.43,17.43,0,0,0-3,.05c-.5.13-1,.32-1.52.46-.09,0-.05.15-.08.17a.77.77,0,0,1-.63.07C279.45,33.5,279.38,33.34,279.57,33.22Z" transform="translate(0.04 -1.53)"/><path class="cls-1" d="M277.69,22.78a6.35,6.35,0,0,0,.54,1.16,41.89,41.89,0,0,1,3.12,3.37c.06.09.27-.31.17-.47a4.53,4.53,0,0,1-.46-1.59,1.3,1.3,0,0,0-.6-.78c-.68-.41-1.06-.69-2.25-1.3C278.11,23.12,277.71,23,277.69,22.78Z" transform="translate(0.04 -1.53)"/><path class="cls-1" d="M296.65,36.43c0-1.36-.82-2.59-.83-3.92a2.14,2.14,0,0,1,2.05-1.93,1.83,1.83,0,0,1,1.73.78,6.26,6.26,0,0,0,.81,1c-.52-.13-1.14.19-1.67-.19-.12-.09.2.21,0,.22-.58,0-1-.56-1.52-.75s-1.22.52-1.09,1.1a27.06,27.06,0,0,1,.87,3.35C297.07,36.34,296.65,36.5,296.65,36.43Z" transform="translate(0.04 -1.53)"/><path class="cls-1" d="M288.59,33.75c.35-.31,1-.06,1.21.29A8.8,8.8,0,0,0,293.12,37a1.14,1.14,0,0,0,.44.14c.37,0,.65.11.71.49a2.88,2.88,0,0,1-.2,1.12,4.62,4.62,0,0,0,.11,2.39c.44,1.58,2.09,2,3.19,3,.1.09.12.71-.2.56a13.48,13.48,0,0,1-1.83-.9,11,11,0,0,1-1.42-1.31,3.33,3.33,0,0,0-.93-.66,2.48,2.48,0,0,1-1-1.15c-.63-1.14-.63-2.42-1-3.63,0-.12-.3-.08-.41,0-.47.39-1.24,1-1.75.41-.19-.2.1-.56-.06-.73s-.4,0-.53-.06c-.46-.38-.64-1-1.11-1.36-.26-.21-.3-.62.05-.73s.48-.33.78-.3c.09,0,.06.11.06.13C288.23,34.27,288.36,34,288.59,33.75Z" transform="translate(0.04 -1.53)"/><path class="cls-1" d="M276.64,42c.4-.51,1-1.19,1.66-2a9,9,0,0,0,1.5-3.12,23.25,23.25,0,0,0,.54-2.46.89.89,0,0,1,.69-.66,9.33,9.33,0,0,1,1.75-.08.77.77,0,0,1,.51.41c.45.88,1.12,1.57,1.58,2.41-.52.32-1.11.44-1.5,1a1.68,1.68,0,0,0-.23.66c-.17.83.54,1.11.42,1.88s-1.21.19-1.76.08c-.05,0-.19.1-.24,0-.24-.24-.4-.75-.78-.53-.82.45-1.72,1-1.95,1.93a3,3,0,0,0,.14,1.68c.14.39.22.79.36,1.18s.62.31.46.56a6,6,0,0,1-2.3,1.86c0-.08-.13-.21-.1-.24a7.34,7.34,0,0,0,.85-1,1.94,1.94,0,0,0,0-1.68,1.6,1.6,0,0,0-.95-1,3.16,3.16,0,0,0-1.23-.35C276.15,42.5,276.57,42.07,276.64,42Z" transform="translate(0.04 -1.53)"/><path class="cls-1" d="M273.12,44.79a5.52,5.52,0,0,1-1.31.65,36.19,36.19,0,0,0,.78,4.38,1.51,1.51,0,0,0,1.24-.26c-.69-.29-.87-1.07-1.06-1.71a4.19,4.19,0,0,1,.41-3.06Z" transform="translate(0.04 -1.53)"/><path class="cls-1" d="M275.47,43.55c.24-.27.68-.08,1,0a1.28,1.28,0,0,1,.62.33,1.47,1.47,0,0,1,.4.75,1.07,1.07,0,0,1,0,.88,1,1,0,0,1-.62.53,1.54,1.54,0,0,1-.77,0c-.48-.14-.88-.46-1.33-.64-.27-.11-.52.17-.68.42a1.79,1.79,0,0,0,.2,2.12.64.64,0,0,0,.81.07c.26-.16.32-.58.6-.59a.43.43,0,0,1,.42.35c0,.38-.37.57-.64.74a3,3,0,0,1-.57.28.88.88,0,0,1-.76,0,1.75,1.75,0,0,1-.83-1.22,3.92,3.92,0,0,1,1.6-3.72C275.15,43.69,275.37,43.66,275.47,43.55Z" transform="translate(0.04 -1.53)"/><path d="M275.53,44.12c-.17.11-.36.15-.45.34.59.23,1,.68,1.64.88a.4.4,0,0,0,.35-.18.85.85,0,0,0-.31-1.14,1,1,0,0,0-1.22,0S275.55,44.11,275.53,44.12Z" transform="translate(0.04 -1.53)"/><path class="cls-1" d="M280.3,41.13c.23.17.51.26.69.1a1.12,1.12,0,0,1,1.07-.36c.31.11.53.42.8.46a4.39,4.39,0,0,0,2.19,0c.29-.1.1-.54-.07-.82s.07-.63-.24-.65-.11.34-.13.54c.13,0,.09.15.2.13-.15.17-.31.37-.41.39a4.36,4.36,0,0,1-2.69-.39c-.41-.19-.94.13-1.34.4Z" transform="translate(0.04 -1.53)"/><path class="cls-1" d="M286.12,39.9c-.17.05-.17.23-.21.38-.16.67.17,1.56-.48,1.8-1.11.4-2.3-.3-3.5-.23a.16.16,0,0,1-.06.2,1.18,1.18,0,0,0,.92.46c2.35.45,4.5.57,6.84,1.09a7.07,7.07,0,0,1,5.89,5.24c.43-.11.93-.07,1.26-.32a.8.8,0,0,0,.35-.79,9.66,9.66,0,0,1-.09-1.17c-.06-.31-.49-.49-.56-.8a1,1,0,0,0-.39-.57c-.67-.56-1.48-.77-2.17-1.29a15,15,0,0,1-3.29-2.59c-.2-.26-.31-.66-.61-.71a12.22,12.22,0,0,1-3.46-.69A.66.66,0,0,0,286.12,39.9Z" transform="translate(0.04 -1.53)"/><path class="cls-1" d="M292.51,45.51a6.43,6.43,0,0,0-3.6-1.66c-3.08-.57-6.17-.37-8.94-2-.06,0-.17,0-.18.06a.49.49,0,0,0,.2.44,12.26,12.26,0,0,0,1.63,1.1,4.24,4.24,0,0,0,.5.18c.55.2,1,.66,1.58.67a3.92,3.92,0,0,0,1.7-.11c0-.09.1-.11.06-.2a9.7,9.7,0,0,1,1.5.43c.09,0,.19.22.23.24,1.21.64,2.61.18,3.94.49a2.5,2.5,0,0,1,1.27.53c.08.08.26-.06.37.08" transform="translate(0.04 -1.53)"/><path class="cls-1" d="M297.8,46.42a1.63,1.63,0,0,1,.11.78c-.11.42-.38.82-.26,1.23.07.22.38.07.53,0,.35-.21.74-.55.59-1a2.58,2.58,0,0,0-.55-.81C298.16,46.52,298,46.49,297.8,46.42Z" transform="translate(0.04 -1.53)"/><path class="cls-1" d="M300.4,47.66c.07-.38-.14-.94.28-1.09.05,0,.1.1.13.18.16-.11.09.24.26.13.38-.26.51-.71.91-.92-.07.51-.56.78-.72,1.24.19-.08.47-.13.55,0s-.24.51-.49.59-.59.28-.91.1C300.3,47.79,300.39,47.73,300.4,47.66Z" transform="translate(0.04 -1.53)"/><path class="cls-1" d="M299.89,47.86a5.81,5.81,0,0,0-1.17,3.2c.16,0,.32.12.44,0s.08-.28.08-.43c.14,0-.08-.28,0-.4s-.13-.13-.06-.18.21,0,.23,0,.09-.36.35-.37a.92.92,0,0,1,.1-.41,1.53,1.53,0,0,1,.19-.43s.19,0,.21,0-.13-.39.14-.54-.15-.25-.12-.42" transform="translate(0.04 -1.53)"/><path class="cls-1" d="M303.42,45.38a.74.74,0,0,1,.52-.13c0-.14-.05-.33.08-.37.42-.11,1.09.16,1.25-.48,0-.11.23-.14.29-.11s.27.35.47.34c.56,0,.89-.69,1.5-.49.05,0,.1.07.06.12-.3.48-.78.82-.91,1.33-.05.24.35.54.62.7s-.16.28-.3.37c-.52.31-1.54.33-1.41,1,.06.26.56.12.9.16.09,0,.3-.09.24.12s-.37.33-.57.35a20.91,20.91,0,0,0-2.08.65c-.11,0-.17.21-.27.22-.39,0-1.05.35-1.07,0s.64-.43,1-.71c-.08,0-.2,0-.18-.06a1.92,1.92,0,0,1,.74-.76c.21-.14,0-.48.17-.67a3.22,3.22,0,0,1,.53-.57c.07-.06.26-.08.35-.13a2.11,2.11,0,0,0,.67-.95c0-.07,0-.19-.06-.18a16.79,16.79,0,0,1-1.83.44c.37.51.92-.25,1.34,0,.13.09-.08.28-.17.42h.07c-.26.2-.66.16-.83.47,0,0,.07.07.11.12a2,2,0,0,0-1,.19,1.71,1.71,0,0,0,.78,0c-.12.5-.67.31-1,.52.27.15.57,0,.84.08,0,0,0,.1,0,.11-.36.17-.79,0-1.17.21.16.18.49,0,.55.21s-.2.25-.41.27c0,0,0,.08.06.1s.15,0,.18,0a.11.11,0,0,1-.05.18.89.89,0,0,1-.64,0c-.11,0-.23-.08-.33-.13-.44-.22,0-.71.3-1,.08-.09-.05-.2-.1-.32s.23-.39.27-.59-.24-.34-.14-.57a2.16,2.16,0,0,1,.64-.86Z" transform="translate(0.04 -1.53)"/><path class="cls-1" d="M307.53,33.56a1.91,1.91,0,0,0-.08,1.22c0,.08.32,0,.38-.07A1,1,0,0,0,307.53,33.56Z" transform="translate(0.04 -1.53)"/><path class="cls-1" d="M308.19,31.27v1c.18,0,.43-.07.47-.15C308.8,31.79,308.37,31.55,308.19,31.27Z" transform="translate(0.04 -1.53)"/><path class="cls-1" d="M308.78,28.59a3,3,0,0,0,.18,1.53c.07.11.3-.09.33-.29C309.35,29.33,308.84,29.05,308.78,28.59Z" transform="translate(0.04 -1.53)"/><path class="cls-1" d="M305.51,32.77a27.9,27.9,0,0,0-.87,5.88,6.35,6.35,0,0,0,.12,2c0,.13.08.29.12.41a2.84,2.84,0,0,0,.34,1,1.16,1.16,0,0,0,1.2.33,1.28,1.28,0,0,0,.65-.45,7.17,7.17,0,0,0,1.47-2.3,9.72,9.72,0,0,0,.56-3.63c0,.06-.38-.08-.49.08-.33.51-.14,1.14-.39,1.66,0,.05-.22.06-.28,0-.24-.22-.11-.68-.27-.84a2.65,2.65,0,0,1-.63-1.15c-.05-.19-.31-.26-.49-.4s-.11-.25-.15-.35a8,8,0,0,0-.83-2.14S305.5,32.85,305.51,32.77Z" transform="translate(0.04 -1.53)"/><path d="M305.4,35.27a10.56,10.56,0,0,0-.45,4.36c0,.26,0,.86.43.59a15,15,0,0,1,.21-5S305.49,35.09,305.4,35.27Z" transform="translate(0.04 -1.53)"/><path d="M305.9,37.41a4.41,4.41,0,0,0,.17,3.18c.06.11.35-.19.26-.27a.68.68,0,0,1-.17-.43c-.08-.78-.43-1.6,0-2.35C306.05,37.55,306,37.46,305.9,37.41Z" transform="translate(0.04 -1.53)"/><path d="M306.55,37.28a4.47,4.47,0,0,0,.18,3.18c0,.11.34-.19.25-.27a.68.68,0,0,1-.17-.44c-.07-.77-.42-1.6,0-2.34C306.7,37.42,306.64,37.33,306.55,37.28Z" transform="translate(0.04 -1.53)"/><path d="M307.15,37.58a3,3,0,0,0,.12,2.09c0,.07.22-.12.16-.18a.44.44,0,0,1-.11-.28c-.05-.51-.28-1.05,0-1.54C307.25,37.68,307.21,37.62,307.15,37.58Z" transform="translate(0.04 -1.53)"/><path class="cls-1" d="M310.9,54.75A11.64,11.64,0,0,1,308,58.47a11.2,11.2,0,0,1-8,3.07,14.38,14.38,0,0,1-7.45-2.48,2.72,2.72,0,0,1-1.37-1.57c-.2-.39,0-.52.39-.46s.52.13,1.05-.39a6.21,6.21,0,0,1,1.24-.91h.32a3.31,3.31,0,0,0,1.11.78,6.07,6.07,0,0,0,3.07.92c3,.32,3.61,0,5.62-.85a9.35,9.35,0,0,0,3.85-3.79c.59-1.11.46-1.18,1-1.57.15-.11.27-.27.32-.09.12.41-.21.78-.35,1.17.43,0,.38-.71.58-.7.65,0-.06.77-.06,1.22.31,0,.32-.37.53-.52.21.29-.29.64-.21.82.14.33.39-.16.55-.35,0,0,.12,0,.18-.08.08.26-.22.35-.25.59,0,.09.11.07.18.06s.23-.41.37-.35c.42.21-.18.67-.07,1,0,.08.32,0,.29-.24.39.3-.26.57-.16.9,0,.07.18-.11.31-.15Z" transform="translate(0.04 -1.53)"/><path d="M300.87,58.11c-.68.63-.93,1.78-.09,2.31a2.31,2.31,0,0,0,3-.36,1.66,1.66,0,0,0,.09-1.53c-.43-.94-1.79-1-2.75-.55" transform="translate(0.04 -1.53)"/><path d="M304.93,56.89a4.38,4.38,0,0,0-.9.65s-.06.23,0,.22a.42.42,0,0,1,.3.12c.36.39.57.87.93,1.29.1.12,0,.29,0,.44.44-.26,1.07-.44,1.24-1-.13,0-.3,0-.36,0-.41-.41-.65-.92-1.06-1.36-.11-.13.18-.26.1-.36S305,56.84,304.93,56.89Z" transform="translate(0.04 -1.53)"/><path d="M307.48,54.46a12.92,12.92,0,0,1-1.77,1.8c-.14.15.28.57.53.79,0,0,.18,0,.17,0a.71.71,0,0,1,.77-.76c.35.11.58.6.86,1,.1.13-.07.29-.05.44.51-.06.67-.62,1.11-.78-.05-.13.07-.18.13-.26-.19,0-.42.06-.57,0s-.14-.26-.23-.33c-.29-.22-.42-.54-.75-.71,0,0,0-.18,0-.22.29-.26.47-.58.9-.63,0,0,0-.13-.07-.16a2.33,2.33,0,0,1-.59-.39S307.51,54.43,307.48,54.46Z" transform="translate(0.04 -1.53)"/><path class="cls-1" d="M301.72,58.56a.87.87,0,0,0-.6,1.16c.21.36.85.35,1.25.33a1.18,1.18,0,0,0,.63-.41.45.45,0,0,0,.14-.54A1.19,1.19,0,0,0,301.72,58.56Z" transform="translate(0.04 -1.53)"/><path d="M297.93,59.81H298c-.07,0-.17,0-.18,0-.14.29,0,.54-.27.72s.08.18,0,.24c-.32.2-.93-.25-1.17-.45.49-.46.42-1.15.81-1.72.18-.25-.32-.53-.08-.81,0,0,.16,0,.25,0a4.17,4.17,0,0,1,1.69.27,1.54,1.54,0,0,1,.77.52.86.86,0,0,1-.77,1.23c.1.13.17.26.27.39s.1.42.22.56a1.58,1.58,0,0,1,.23.42c-.24,0-.57.09-.67-.09a10.45,10.45,0,0,0-1-1.15" transform="translate(0.04 -1.53)"/><path class="cls-1" d="M298.11,58.68c-.1.08-.09.27-.07.36.07.24.44.19.67.12s.07-.31,0-.42A.41.41,0,0,0,298.11,58.68Z" transform="translate(0.04 -1.53)"/><path d="M294.41,56.6c-.11,0-.28,0-.3,0-.11.22.29.45.24.63-.14.56-.69.86-1.12,1.25a3,3,0,0,0,2,1.15,1.48,1.48,0,0,0,1.47-1.34.68.68,0,0,0-.12-.38,3.85,3.85,0,0,0-1.49-1.17A1,1,0,0,0,294.41,56.6Z" transform="translate(0.04 -1.53)"/><path class="cls-1" d="M295.09,58a.94.94,0,0,0-.53.67.25.25,0,0,0,.18.18c.37,0,1,.08,1-.37C295.72,58.21,295.36,57.89,295.09,58Z" transform="translate(0.04 -1.53)"/><path class="cls-1" d="M297.67,56.54a3.36,3.36,0,0,1-1.54-.36c-.64-.36-1.5-.82-1.66-1.53A14,14,0,0,0,295.91,51c.63-.24,1.48,0,1.85-.67.23-.4.23-.87.51-1.28.09-.12.25-.11.38-.14a7.73,7.73,0,0,1-.56,2c-.1.39.06.83-.1,1.22-.08.17-.36.33-.28.43.24.27.63-.13.9-.32s.24.3.2.4c-.44,1-1.55,1.45-2,2.44a.84.84,0,0,0,0,.32c0,.11.19.07.13.2a1.17,1.17,0,0,0,1.57-.39c-.07.62-.19,1-.78,1.3Z" transform="translate(0.04 -1.53)"/><path class="cls-1" d="M292.06,49.62c.38.31.48,1.23.95,1,.29-.14.18-.68.48-.92,0,.13.11.05.12.06.05.27-.05.55.05.77s.17-.15.29-.1,0,.32.07.51c.37-.08.78-.57,1-.22A3.37,3.37,0,0,1,293.36,55c-.07,0-.19,0-.25,0a2.7,2.7,0,0,1-3.06.09,1.64,1.64,0,0,1-.63-.9,1.09,1.09,0,0,1,.18-1.07,1.48,1.48,0,0,1,1.68-.44,1.2,1.2,0,0,1,.68,1.38c-.17.57-.85.67-1.39.85-.12,0,.14.27.2.29a1.5,1.5,0,0,0,1.6-.42,1.75,1.75,0,0,0,.22-1.6,2.25,2.25,0,0,0-1.12-1.2,3.59,3.59,0,0,1-.36-1c-.26-.91-.39-2.42-3.33-2.74s-3.85,3.52-3.85,4.31-.07,1.3.45,1.83a2.53,2.53,0,0,1,.59,2,2,2,0,0,1-1.37-1.17c-.26-.92-.39-1.18-.59-1.18s-.46.39-1.11.91a1.7,1.7,0,0,1-2.61-.45v-.26a1.23,1.23,0,0,0,.91-.14,7.31,7.31,0,0,0,2.48-2.61c1.25-2,2.16-3.13,3.53-3.72a4,4,0,0,1,3.33-.2,5.44,5.44,0,0,1,2,1.31C291.83,49.33,292.06,49.62,292.06,49.62Z" transform="translate(0.04 -1.53)"/><path class="cls-1" d="M290,52a2,2,0,0,0-1.63,1.51,6.8,6.8,0,0,1-1.31-1.37,2.86,2.86,0,0,1,2.87-.89c.39.06.06.42.2.69C290.12,52,290.08,52,290,52Z" transform="translate(0.04 -1.53)"/><path class="cls-1" d="M279.06,55.63c.14.16-.06.46,0,.63.36.64,1.16.65,1.8.61h.33a2.1,2.1,0,0,1-1,1.27c-.06,0-.21.19-.13.28.39.41.49,1.24,1.09,1.14s1.05-.72,1.64-1.05a5.88,5.88,0,0,1,.92-.43,4.22,4.22,0,0,1,3.18.13,3.51,3.51,0,0,1,2.11,2.2,4.58,4.58,0,0,1,0,1.88,1.27,1.27,0,0,0,.39,0,35.34,35.34,0,0,1,4-1.4c.05,0,.14-.26.05-.33-.33-.25-.67-.46-1-.72a23.49,23.49,0,0,1-2.13-2.1,16.19,16.19,0,0,1-2.84-3.32c-.36-.58-1.37-2.07-1.72-2.63-.05-.08-.22.29-.22.39,0,1.08.12,2.17.15,3.26a1.22,1.22,0,0,1,.36,1.43.42.42,0,0,1-.36.19c-.34,0-.64.22-1,.13a2.55,2.55,0,0,1-.83-.4,2.06,2.06,0,0,1-.53-.57c-.18-.32-.18-.82-.49-.9s-.62.54-1,.69a2.56,2.56,0,0,1-2.48-.36C279.29,55.57,279.13,55.7,279.06,55.63Z" transform="translate(0.04 -1.53)"/><path class="cls-1" d="M287.94,66a.47.47,0,0,0,0-.12,1.81,1.81,0,0,0-1,0c0-.08,0-.2,0-.24a14.6,14.6,0,0,1,3.72-2.09c1.23-.64,2.66-.49,3.9-1.06-.16-.25-.1-.46.2-.44a5.76,5.76,0,0,1,1.1.08.66.66,0,0,1,.37.31c.19.33-.2.3-.3.53s.45.53.57.9c.19.54-.37.49-.76.43,0,0,0-.1,0-.1a1.34,1.34,0,0,0-.71-.15,1,1,0,0,0-.84.73c-.14.48.28.8.71.88a2.29,2.29,0,0,0,1.55-.21,3.28,3.28,0,0,0,1.37-2.06,1,1,0,0,0-.19-.89,2.39,2.39,0,0,0-1.63-.89,9.53,9.53,0,0,0-6.24,1.31c-.71.42-1.18,1.13-2,1.38a.56.56,0,0,1-.44,0s0-.16,0-.23a5.13,5.13,0,0,0,1-3.53c0-.22-.18-.48-.37-.48s-.23.35-.45.26a7.92,7.92,0,0,1-1.22-.65c-.13-.08-.35-.15-.39-.32s-.08-.47-.16-.71l-.13.07a4.17,4.17,0,0,0-1.69.15,3.72,3.72,0,0,0-2.08,1.5,2.23,2.23,0,0,0-.33,2.13,1.67,1.67,0,0,0,2.12,1A1.91,1.91,0,0,0,285,62.09c.09-.71-.71-1-1.33-.78-.27.12-.08.43-.28.56s-.76-.1-.88-.28c-.4-.62.55-1.27,1.11-1.69.14-.11.32,0,.43.12a.12.12,0,0,1-.05.18c.4.15.83,0,1.24.13a1.54,1.54,0,0,1,.94.68,4.57,4.57,0,0,1-.81,5.59c-.57.52-.94,1.26-1.52,1.81a4.36,4.36,0,0,1-2.38,1c-.5.08-.88.69-1.36,1-.14.07-.46,0-.67.09s-.31.43-.5.59-.19.45-.43.48-.51.21-.78.25a6.49,6.49,0,0,1-2.74,0c-.19,0-.38-.21-.36-.37s.46,0,.51-.21c.11-.41-.45-.62-.81-.57a.58.58,0,0,0-.43.77,1.76,1.76,0,0,0,1.67,1,8,8,0,0,0,2.61-.28,19.67,19.67,0,0,0,3.5-1.4c2-1.09,3-2.38,5-3.65C287.11,66.76,288,66.51,287.94,66Z" transform="translate(0.04 -1.53)"/><path class="cls-1" d="M268.25,60.63c.23.09.43-.33.48-.54a5.61,5.61,0,0,1,3-3.9c3.88-1.81,6.66-5.1,10.86-6.22.15,0,.38.25.22.44a11.8,11.8,0,0,1-3,2.93,3.84,3.84,0,0,0-1.41,1,9,9,0,0,1-2.17,2.52c-.31.21-.85,0-1.24.12-.63.23-.55,1.17-1.09,1.45-.17.09-.7,0-.91.3-.63,1-1.83,1.16-2.88,1.51-.08,0-.12.15-.2.17C269.41,60.57,268.86,60.89,268.25,60.63Z" transform="translate(0.04 -1.53)"/><path class="cls-1" d="M280.63,60.27a3.53,3.53,0,0,0-1.37-.12c-.61.1-1.18-.1-1.77,0A.56.56,0,0,1,277,61c-.89,0-1.79-.74-2.71-.3-.59.29-1.36-.24-2,.18-.29.2-.73.26-.78.62s.31.68.64.87.55-.21.76-.22a1.47,1.47,0,0,1,1.07.74c.21.34-.48.44-.81.43,0,.07,0,.16,0,.18.91.69,1.92.94,2.85,1.61a.3.3,0,0,1,0,.29c-.15.18-.4.07-.56,0a10.37,10.37,0,0,0-1.58-.75.61.61,0,0,0-.5,0c-.24.21.08.66-.12.84s-.72-.22-1.06,0c-.07.05,0,.25.12.26a.65.65,0,0,1,.54.5,1.86,1.86,0,0,0,.21.56c.2.31.26.71.55.93a31.38,31.38,0,0,0,3.53.13c.56.55.8,1.62,1.47,2s1.47-.43,2.09-1a2.1,2.1,0,0,1,.48-.39.63.63,0,0,0,.28-.3c0-.07.18-.07.24-.15a12.74,12.74,0,0,0,1.39-1.91,3.71,3.71,0,0,0,.64-1.67A2.78,2.78,0,0,1,281,63.3a2.89,2.89,0,0,1-.12-2.9" transform="translate(0.04 -1.53)"/><path class="cls-1" d="M275.53,59.14c-.23.06-1,.2-.62.42s.62.2.82.44c0,0,.12-.08.11-.12a1.22,1.22,0,0,0-.24-.85S275.56,59.14,275.53,59.14Z" transform="translate(0.04 -1.53)"/><path class="cls-1" d="M276.64,57.46c.12.61.35,1.11.49,1.7.05.21.22.2.3.32,0-.17.2-.29.16-.37-.24-.55-.18-1.22-.65-1.62a.41.41,0,0,0-.36-.1S276.63,57.43,276.64,57.46Z" transform="translate(0.04 -1.53)"/><path class="cls-1" d="M278.82,58.59c-.1.08-.35.09-.28.3a.32.32,0,0,0,.26.18c.2.06.45-.07.41-.23S279,58.44,278.82,58.59Z" transform="translate(0.04 -1.53)"/><path class="cls-1" d="M279.26,57.33c-.19.15-.12.35.07.44s.32.24.42.06,0-.33-.17-.44Z" transform="translate(0.04 -1.53)"/><path class="cls-1" d="M276.64,37.28c.18,0,.35.14.52,0,0,0,0-.09,0-.11s.11,0,.11,0c.05-.23,0-.65.25-.48a1,1,0,0,1,.47.75c0,.15-.18.19-.26.22C277.32,37.88,277,37.56,276.64,37.28Z" transform="translate(0.04 -1.53)"/><path class="cls-1" d="M278.53,36.08c-.13.19-.21.64,0,.83s.36-.25.61-.37c0,0,0-.14,0-.16C279,36.2,278.69,35.86,278.53,36.08Z" transform="translate(0.04 -1.53)"/><path class="cls-1" d="M241.83,64c.1-.87,1.72-.58,2,.2a.67.67,0,0,1-.25.87,2.51,2.51,0,0,1-2.51.15A3,3,0,0,1,239.82,64a1.76,1.76,0,0,1,.84-2.34,3.87,3.87,0,0,1,1.57-.48,6.65,6.65,0,0,1,2.66.23,8.68,8.68,0,0,1,4.33,2.33c.19.18.48.32.56,0,.3-1.26-.43-2.76.54-3.78a.53.53,0,0,1,.13.13c.13.27-.18.83,0,.76a3.24,3.24,0,0,0,1.39-1.23.24.24,0,0,0,0-.23c-.25-.22-.86-.26-.66-.65.42-.79,1.52-.52,2.29-.36a3.48,3.48,0,0,1,2.43,1.45,3.12,3.12,0,0,1,.38,2.93.55.55,0,0,1-.69.24c-.22-.11.05-.36,0-.56-.54.46-1.09-.07-1.57-.37a.27.27,0,0,0-.3,0c-.08.08.08.3-.09.35a1.07,1.07,0,0,1-1.08-.26,1.13,1.13,0,0,1,.08-1.51c.48-.55,1.31-.34,1.9-.07.28.13.38.55.68.66a.7.7,0,0,0,.69-.06.3.3,0,0,0,.07-.36c-.24-.32-.16-.73-.45-1s-.48-.48-.76-.37-.05.33,0,.5-.15,0-.18.12a2.91,2.91,0,0,0-3.91,3.72,5,5,0,0,0,1.44,2.34,26.11,26.11,0,0,0,5.16,4.5,4.28,4.28,0,0,0,1.62.43s0,.06-.06,0a.24.24,0,0,1,.18.14c.18.39.49.64.67,1a2.21,2.21,0,0,1-.85.06,9.66,9.66,0,0,1-1.89-.6,15.19,15.19,0,0,0-1.44-.76.36.36,0,0,0,.16-.55c-.45-.41-1-.72-1.43-1.13a69.3,69.3,0,0,0-6.47-5.4,7.76,7.76,0,0,0-4.34-1.61c.05-.18.15-.43-.07-.51a.88.88,0,0,0-.64.08,3.34,3.34,0,0,0-1.64.89.39.39,0,0,1,.49.51c-.13.34-.41.8-.08,1C241.7,64.42,241.81,64.17,241.83,64Z" transform="translate(0.04 -1.53)"/><path class="cls-1" d="M262,71c.24,0,.18.25.22.34s.26.67.46.53,1-.52.7-.88A.94.94,0,0,0,262,71Z" transform="translate(0.04 -1.53)"/><path class="cls-1" d="M263.65,69.28c1,.12,1.9.25,2.87.29,0,0,0,.11-.06.17,1,.32,2.16-.15,3.09.28.16.08-.26.24-.42.27a13.46,13.46,0,0,1-4.43-.06.63.63,0,0,1-.24-.21c-.2-.28-.66,0-.92-.25a.43.43,0,0,1-.08-.42C263.49,69.26,263.57,69.27,263.65,69.28Z" transform="translate(0.04 -1.53)"/><path class="cls-1" d="M272.42,67.62a17.31,17.31,0,0,0-1.86-.79,15.77,15.77,0,0,0-5.42.44,13.3,13.3,0,0,1-3.84.51,6.33,6.33,0,0,1,1.22-1.26c.22-.2.66-.13,1-.22a9.16,9.16,0,0,0,2.41-1,6.36,6.36,0,0,1,1.67-.87,3.66,3.66,0,0,1,4,1.26c.14.2.33.33.47.53s.48.43.58.69S272.65,67.69,272.42,67.62Z" transform="translate(0.04 -1.53)"/><path class="cls-1" d="M263.25,68.49c-.74-.18-1.51.27-2.27.09a.52.52,0,0,1-.32-.73,3.7,3.7,0,0,1,1.46-2c.39-.22,1,0,1.45-.16a12,12,0,0,0,2.55-1.11c.69-.39,1.39-.66,2.07-1.07.21-.13,0-.53-.23-.51a8.42,8.42,0,0,0-3.61,1.57,4.34,4.34,0,0,1-1.28.35,19.82,19.82,0,0,1-4.13,1,.52.52,0,0,1-.42-.25c-.34-.7.31-1.21.83-1.6s1.38-.53,2-1c.12-.1.06-.27,0-.37-.41-.6-.57-1.43-1.3-1.59-.08,0-.22.24-.22.4,0,.35.2.7.08,1a2.73,2.73,0,0,1-.73,1.14.55.55,0,0,1-.81-.23,6.62,6.62,0,0,0-.86-2.33c-.13-.2-.37-.06-.41,0-.33.61.27,1.39-.31,1.93a1.82,1.82,0,0,1-.78.46,3.16,3.16,0,0,1-1.3,0c-.6,0-1.17-.53-1.74-.32-.26.1-.28.49-.21.8s.09.7.2,1a4.31,4.31,0,0,0,.48,1A8.48,8.48,0,0,0,254.84,68a8.59,8.59,0,0,0,5.35,2.61c.08,0,.1-.12.05-.17a.76.76,0,0,1,.79-1.29,3.47,3.47,0,0,0,2.16,0C263.57,69,263.63,68.59,263.25,68.49Z" transform="translate(0.04 -1.53)"/><path class="cls-1" d="M260.2,64.67a10.66,10.66,0,0,1,2.87-1.27c.31-.07,1-.4,1,.13A10.82,10.82,0,0,1,259.86,65C259.78,65,260,64.77,260.2,64.67Z" transform="translate(0.04 -1.53)"/><path class="cls-1" d="M262.6,60.39c-.47.09-.78.52-.55.9a.7.7,0,0,0,1.25,0c.06-.16.08-.4,0-.49S263,60.3,262.6,60.39Z" transform="translate(0.04 -1.53)"/><path class="cls-1" d="M263.39,58.5c-.24.09-.52.4-.44.65.16.47,1,.75,1.24.18A.65.65,0,0,0,263.39,58.5Z" transform="translate(0.04 -1.53)"/><path class="cls-1" d="M261.45,61.49c.07-.17-.05-.43-.17-.63,0,0-.13,0-.17,0-.21.16,0,.38,0,.57S261.36,61.69,261.45,61.49Z" transform="translate(0.04 -1.53)"/><path class="cls-1" d="M259.06,62.74c.19,0,.2-.45.12-.7s-.41-.27-.46-.06S258.53,62.85,259.06,62.74Z" transform="translate(0.04 -1.53)"/><path class="cls-1" d="M261.18,58.16c.22.2.48.35.7.54a1.14,1.14,0,0,1,.48-1,1.58,1.58,0,0,1,1.91.14,2,2,0,0,1,.94,1.86,4,4,0,0,0,1.12-.25c.24,0,.5-.13.7,0s.38.36.5.26a.8.8,0,0,0,.12-1.09c-.37-.44-1-.49-1.52-.83a7.84,7.84,0,0,1-1.65-1.6c-.21-.25-.39-.56-.61-.77s-.47,0-.57.18-.08.38-.19.55c-.41.65-1.09.88-1.67,1.33C261.25,57.62,260.92,57.94,261.18,58.16Z" transform="translate(0.04 -1.53)"/><path class="cls-1" d="M262.08,55c.25.31-.2.5-.4.56-.68.21-1.41,0-2.07.19-1,.35-.41,1.49-.71,2.24,0,.15-.41.06-.44-.12-.06-.34,0-.69-.43-.77A1,1,0,0,0,257,58.62c.32.57.89,0,1.41.09.29,0,.24.39.16.56-.18.33-.68.33-.92.63-.1.13-.3.27-.22.5-.07,0-.13.12-.19.05-.46-.53-.6-1.18-1.2-1.6a5.94,5.94,0,0,0-4.36-1.18c-.26,0-.51.13-.78.18s-.37.24-.58.35c-.52.28-.66.85-.91,1.36-.42.86-.06,1.85-.41,2.73a4.69,4.69,0,0,1-.93-.56,4.74,4.74,0,0,0-1.43-.65c-1-.33-2-.29-3-.55,0-.48.59-.61.89-.87l.43-.35c.27-.17.67-.13.85-.33a2.68,2.68,0,0,0,.35-.72,9.09,9.09,0,0,1,1.67-1.95c1.16-1.35,1.41-3.2,2.9-4.28.27-.2.58.27.47.59-.37,1.12-1.51,2-1.34,3.19.05.43.66.66,1.15.58.7-.12,1.1-.75,1.77-.94a.45.45,0,0,1,.38,0c.27.2.37.57.68.74a3.6,3.6,0,0,0,2.52.73,3.8,3.8,0,0,0,2.13-1.33,1,1,0,0,0,0-1.12c-.34-.46-1-.35-1.52-.49-.29-.08-.45-.31-.71-.47a9.1,9.1,0,0,1-1.87-1.9,1.85,1.85,0,0,1-.47-1c0-.08.11-.1.17-.06.72.44,1.32.93,2,1.35,1.84,1.07,3,1.61,4.84,2.66a5.81,5.81,0,0,0,1.36.56" transform="translate(0.04 -1.53)"/><path class="cls-1" d="M262.15,56a12.31,12.31,0,0,1-2.09.26c.27.24.56.37.81.62.41.4.83-.12,1.26-.33a.44.44,0,0,0,.21-.62Z" transform="translate(0.04 -1.53)"/><path class="cls-1" d="M263.58,51c.33.11,0,1.58.19,2.34,0,.14.19.28.12.47a.86.86,0,0,1-1.09.57,8.87,8.87,0,0,1-1.89-.91c-1.07-.63-5.9-3.39-7-4a11.49,11.49,0,0,0-3.34-1.35c-.37.39.18.53.42.74a8.33,8.33,0,0,0,.73.46,5.48,5.48,0,0,1,1.41,1.51c.33.47.63.89.93,1.38a8.51,8.51,0,0,0,2.15,2.08,3,3,0,0,0,.83.54c.25.08.51.12.77.18.06,0,.18.18.12.28-.42.66-1.2.66-1.83,1a.81.81,0,0,1-.81-.05,3.82,3.82,0,0,1-1.66-2.72c-.44,0-.65.37-.76.71a2.15,2.15,0,0,1-2.1,1.38c-.19,0-.14-.41,0-.55a6.46,6.46,0,0,0,1.09-2.46,2.52,2.52,0,0,0-.25-1.74s-.16-.08-.22-.15c-.23-.29-.45-.55-.69-.82a2.25,2.25,0,0,0-1.16-.7,3.72,3.72,0,0,0-1.87-.24A4.08,4.08,0,0,0,244.74,52a5.08,5.08,0,0,1-.54,1.59,2.08,2.08,0,0,0-.19,1.3.79.79,0,0,0,.13.44,1.9,1.9,0,0,0,1.61.67c0,.07,0,.1.07.13a1.84,1.84,0,0,1-1.95.23,1.91,1.91,0,0,1-1.07-1.09,1.85,1.85,0,0,1-.12-1.29c0,.08-.61,0-.82-.28a2.75,2.75,0,0,1-.55-1.55c.11,0,.28-.18.3,0,.06.67.39,1.62,1.2,1.5-.15-.38.09-.69.32-1,0-.06,0-.2,0-.23-.23-.18-.51,0-.77,0a1.82,1.82,0,0,1,0-.33c0-.15.23-.11.34-.17.26-.13.65.17.78,0a9.31,9.31,0,0,0,1.32-2.21,3,3,0,0,1,1-1.1,10,10,0,0,1,2.39-1.28,5.59,5.59,0,0,1,2.22-.16,10.31,10.31,0,0,0,2.48.07,9.65,9.65,0,0,0,2.6-.26,2.9,2.9,0,0,0,.93-.42c1.94,1.12,3.52,2.74,5.57,3.68a15.93,15.93,0,0,0,1.55.58S263.64,51,263.58,51Z" transform="translate(0.04 -1.53)"/><path d="M257.83,48.18c-.11-.1-.27-.22-.37-.16s-.1.33-.19.47a9.23,9.23,0,0,1-.94,1.51c-.1.12.29.33.47.52a4,4,0,0,0,1.52.92c.16.06.46-.28.51-.52s-.22,0-.34-.07-.31-.29-.52-.39a.42.42,0,0,1-.2-.38c.11,0,.25-.07.32.07s0,.1,0,.11c.22.12.32-.12.44-.26a.17.17,0,0,0-.06-.24s-.08,0-.12,0,0-.19.06-.18c.33.06.86.1.72.57.35,0,.65-.48.52-.67a4.35,4.35,0,0,0-1.5-1.16" transform="translate(0.04 -1.53)"/><path d="M260.71,50c-.43-.14-.54.29-.77.54a.1.1,0,0,0,.05.17.55.55,0,0,0,.52-.12c.21.23.6.29.61.59a1,1,0,0,1-1,1.06c-.08,0-.1.13-.05.17a1.56,1.56,0,0,0,1.09.53c0-.14-.12-.31-.09-.37.19-.42.3-1,.82-1.08a.48.48,0,0,1,.31,0,1.22,1.22,0,0,1,.48.57c0,.08.2.15.22.12.15-.28.37-.82-.1-1Z" transform="translate(0.04 -1.53)"/><path class="cls-1" d="M260,48.05c.33.07.63.31,1,.18a3.75,3.75,0,0,0,1-.48,1.71,1.71,0,0,0,.44-1.91.56.56,0,0,0-.79-.3,3.53,3.53,0,0,1-2.16.52,1.06,1.06,0,0,1-.9-1.52,2.45,2.45,0,0,1,1.87-1.19c1.11-.2,1.93.85,2.3,1.66a3.11,3.11,0,0,1,0,2.71,1.72,1.72,0,0,1-.28.37c-.26.29-.47.69-.88.78a1.34,1.34,0,0,1-1.43-.62" transform="translate(0.04 -1.53)"/><path class="cls-1" d="M263.65,44.72a6.49,6.49,0,0,1-1.37,4.84,2.09,2.09,0,0,0,1.43.39c.56-1.4.61-2.93,1.22-4.32.08-.17.19-.46.06-.54-.39-.25-1-.37-1.41-.63Z" transform="translate(0.04 -1.53)"/><path d="M261.4,44.1a1.86,1.86,0,0,0-1.92.12c-.23.12-.4.43-.24.6.59.62,1.5.23,2-.27C261.35,44.45,261.88,44.48,261.4,44.1Z" transform="translate(0.04 -1.53)"/><path class="cls-1" d="M251.83,34.6c.32.1.58-.29.82-.16s.52.79,1,.88c0-.22.25-.22.33-.22a3.4,3.4,0,0,1,1.74.14,1.2,1.2,0,0,1,.38.49,9.34,9.34,0,0,1,.19,1.35,12,12,0,0,0,1.24,2.18,4,4,0,0,0,.47.67c.73.94,1.49,1.73,2.28,2.6.18.2-.28.15-.29.36a1.81,1.81,0,0,0-1.74.74,2.27,2.27,0,0,0-.39.9,2.91,2.91,0,0,0,0,1.1,2.41,2.41,0,0,0,.68,1.15c.1.11.42,0,.6.11s.08.14.06.17c-.09.2-.29.14-.42,0s-.46-.38-.7-.51a8.3,8.3,0,0,0-1.52-.76c-.15-.05-.05-.48.07-.54a2.55,2.55,0,0,0,1.23-2.15,5.16,5.16,0,0,0-1.08-2.82c-.08-.13-.48.21-.67.45a2.19,2.19,0,0,1-1.14.61c0-.22-.21-.33-.33-.35a13.26,13.26,0,0,0-2.28-.28,5.11,5.11,0,0,0-1.78.8.44.44,0,0,1-.62-.24,1,1,0,0,1,.1-.75c.07-.16.25-.31.24-.48,0-.77-.95-1.11-1.14-1.79-.06-.22.37-.31.61-.47s.37,0,.48-.17,0-.5.22-.7.32-.09.35-.16a2.06,2.06,0,0,1,.5-.76A1.62,1.62,0,0,0,251.83,34.6Z" transform="translate(0.04 -1.53)"/><path class="cls-1" d="M248.82,41.06c.14,0,.15.2.16.28.14.59.39,1.21,1.08,1,1.07-.3,2.78-1.63,3.4-.12-1.6.68-3.3.53-5,.84a4.17,4.17,0,0,0-.81.42c-.24.11-.17-.28-.31-.41a.84.84,0,0,0,.29-.4c.12-.39.27-.76.38-1.16s.59-.33.77-.66" transform="translate(0.04 -1.53)"/><path class="cls-1" d="M256.53,41.39c-.72.44-1.4.8-2.12,1.19a8.22,8.22,0,0,1-2.85.87,9.85,9.85,0,0,0-1.23.13A23.2,23.2,0,0,0,245,45.52a.17.17,0,0,0,0,.17c.4.25.7-.22,1-.28,1.85-.34,3.62.23,5.41-.28.34-.1.55-.55.93-.63s1,0,1.48-.13a5.4,5.4,0,0,0,2.4-2c.22-.32.63-.65.36-1.09A.53.53,0,0,1,256.53,41.39Z" transform="translate(0.04 -1.53)"/><path class="cls-1" d="M246.21,41.85a1.87,1.87,0,0,0-1.23.53,8.58,8.58,0,0,1-1.19,1.3,18.46,18.46,0,0,1-1.78,1c-.5.28-1,.54-1.5.78s-.94.21-1.24.48a1.85,1.85,0,0,0-.21,2.09s.19.07.29.06a1.84,1.84,0,0,1,1.6.24c.14.1.38-.12.47-.3s.19-.43.31-.62a9.33,9.33,0,0,1,2.27-2c1.08-.72,1.64-.84,2.67-1.53a6.56,6.56,0,0,1,.24-1.63c0-.13-.06,0-.16-.17s-.39-.09-.61-.16Z" transform="translate(0.04 -1.53)"/><path class="cls-1" d="M238.18,48.71c-.25-.18-.54,0-.78.1s-.3.37-.27.62c.18,0,.2.25.39.19a.43.43,0,0,0,.34.5c.3.11.58-.08.86-.28s.36.07.57.16.47-.23.68-.32.45-.14.6-.34-.12-.39-.32-.47c-.36-.16-.77,0-1.15-.2a1.12,1.12,0,0,0-1.32.1" transform="translate(0.04 -1.53)"/><path class="cls-1" d="M246.47,46.76a1.07,1.07,0,0,0-.9.21c-.2.15-.44.18-.59.38a.23.23,0,0,0,0,.23.74.74,0,0,0,.8,0c.29-.17.59-.3.89-.47C246.59,47,246.88,46.84,246.47,46.76Z" transform="translate(0.04 -1.53)"/><path class="cls-1" d="M245,53.36a4.23,4.23,0,0,0-.34.92,1,1,0,0,0,.57,1.14.86.86,0,0,0,1.09-.18.51.51,0,0,0,0-.51.66.66,0,0,0-.69-.37s.06-.2.08-.25A.27.27,0,0,1,246,54a.68.68,0,0,1,.39.13c.17.14.28.18.36.38s0,.63.1.75.41-.1.44-.33a3.36,3.36,0,0,0,0-1,1.17,1.17,0,0,0-.91-.91,1.34,1.34,0,0,0-.74,0A3,3,0,0,0,245,53.36Z" transform="translate(0.04 -1.53)"/><path class="cls-1" d="M246.16,52.12a.86.86,0,0,1,.39,0,2.67,2.67,0,0,1,1.4,1c.08.14.11.3.18.44s.12,0,.14,0a9.63,9.63,0,0,0,1.37-1.6.59.59,0,0,0-.41-.88C248.15,50.9,246.56,50.86,246.16,52.12Z" transform="translate(0.04 -1.53)"/><path class="cls-1" d="M229.09,35.88a4.68,4.68,0,0,0,.12-.67,8.77,8.77,0,0,1,.75-2.16.84.84,0,0,0,0,.32,8.1,8.1,0,0,1,.51,3.44s-.21.1-.22,0a2.23,2.23,0,0,0-.46-1.45s-.21,0-.21.08a5.18,5.18,0,0,1,.14.75c0,.24-.35.24-.52.18A.35.35,0,0,1,229.09,35.88Z" transform="translate(0.04 -1.53)"/><path class="cls-1" d="M226.08,29.88c.12.4-.24.79-.31,1.21a3.56,3.56,0,0,0,0,1.08,3.73,3.73,0,0,1,.09.46c0,.31.19.57.19.88.25-.1.31.13.34.32a4.74,4.74,0,0,0,.11.69.38.38,0,0,0,.1.19,1.82,1.82,0,0,0,.07-.62c.31.31.17.85.29,1.24,0-.06.13-.18.14-.17.29.26.25.71.42,1.06,0-.08,0-.13.06-.2.19.16.24.41.39.59.32-.18.23-.61.14-.87s-.26-.28-.38-.43a2.87,2.87,0,0,1-.43-.64,13.73,13.73,0,0,1-1-4.75S226.1,30,226.08,29.88Z" transform="translate(0.04 -1.53)"/><path class="cls-1" d="M217.2,50.68c-.19-.17,0-.48,0-.71.13-.79.69-1.45.69-2.26v0a7.25,7.25,0,0,0,.28-.78,3.49,3.49,0,0,1,.06-.65,8,8,0,0,0,.54-1.61c.12-.91.44-1.75.51-2.64a10.62,10.62,0,0,1,.49-2.22,3,3,0,0,0,.06-.32A1.94,1.94,0,0,1,221.15,38c.59-.17,1.16.24,1.76.35a2.71,2.71,0,0,1,1.13.58c.14.1.34.24.3.36-.14.4-1,.5-1.23.9a4.22,4.22,0,0,0-.31,1.27,41.23,41.23,0,0,0-.77,4.37,9.14,9.14,0,0,1-.55,2.25c-.1.23-.15.46-.23.69-.33,1-.5,1.84-.77,2.82a2.84,2.84,0,0,0-.08,1.53,2,2,0,0,1-.51-.28c-.4-.28-.75-.52-1.15-.78A11.39,11.39,0,0,1,217.2,50.68Z" transform="translate(0.04 -1.53)"/><path d="M219.66,43.54c-.22.86-.35,1.49-.54,2.37a16.38,16.38,0,0,1-1,3,2.59,2.59,0,0,1-.47.88s-.13,0-.2,0a3.92,3.92,0,0,1,.3-.78c.07-.2.21-.39.29-.59a17.49,17.49,0,0,0,.65-1.7c.29-1.11.53-2.13.72-3.26,0-.21.11-.41.16-.63a5.43,5.43,0,0,0,.11-.87.13.13,0,0,1,.23-.06c.19.45-.14,1-.18,1.46Z" transform="translate(0.04 -1.53)"/><path d="M219.81,41.28a7.06,7.06,0,0,1,.4-1.43s.09-.12.15-.07.12.15.06.22c-.35.4-.17.91-.36,1.33C220,41.39,219.91,41.25,219.81,41.28Z" transform="translate(0.04 -1.53)"/><path d="M220.09,43.87c-.22.86-.33,1.45-.52,2.33a16.86,16.86,0,0,1-1,3,2.85,2.85,0,0,1-.48.89s-.12,0-.19,0a3.19,3.19,0,0,1,.29-.78c.07-.21.21-.39.29-.6a16.55,16.55,0,0,0,.65-1.7c.29-1.11.53-2.13.72-3.25,0-.22.12-.41.16-.63a6,6,0,0,0,.18-.9c0-.12.15-.13.16,0a7.37,7.37,0,0,1-.2,1.4Z" transform="translate(0.04 -1.53)"/><path d="M219.53,47.35c.1-.36.11-.66.21-1,.25-1,.44-1.87.66-2.87a13.45,13.45,0,0,0,.27-2,7.33,7.33,0,0,1,.74-1.93c.05-.07.13,0,.18,0s.06.09,0,.12a7.91,7.91,0,0,0-.65,1.51,10.83,10.83,0,0,0-.21,1.5,11.66,11.66,0,0,1-.35,1.76c-.11.43-.28,1-.39,1.41,0,.09,0,.18,0,.26-.13.41,0,.47-.18,1,0,.07-.08.31-.19.3Z" transform="translate(0.04 -1.53)"/><path d="M219.4,48.15a1.59,1.59,0,0,0-.21.77,1.37,1.37,0,0,1-.07.29,3,3,0,0,0-.42,1.24s.1,0,.11,0a5,5,0,0,0,.71-2.22C219.44,48.24,219.41,48.13,219.4,48.15Z" transform="translate(0.04 -1.53)"/><path d="M221.73,40.59c-.06.06-.14.1-.17.17A8.38,8.38,0,0,0,221,43c0,.17-.16.3-.17.46a3.78,3.78,0,0,1-.16.94c-.43,1.68-.53,2.85-.93,4.54,0,0,.12,0,.13,0a5.74,5.74,0,0,0,.39-1.17c0-.12,0-.24,0-.36a3.69,3.69,0,0,0,.11-.56,8,8,0,0,1,.11-.84c.15-.58.3-1.12.46-1.7,0-.12,0-.24,0-.36a21.92,21.92,0,0,1,.57-2.58,4.21,4.21,0,0,1,.33-.63c0-.05,0-.13,0-.19" transform="translate(0.04 -1.53)"/><path d="M222.27,41c-.14.08-.12.22-.16.33-.19.68-.19,1.24-.4,1.9s-.19,1.26-.35,1.92c-.1.42-.23.79-.31,1.21a24.09,24.09,0,0,1-1.05,4c0,.09-.1.21,0,.32s.11,0,.13-.06a22,22,0,0,0,1-3.64c.26-1.13.44-2,.69-3.18.05-.19.1-.38.16-.57a9.68,9.68,0,0,1,.43-1.95c.06-.1,0-.2,0-.3s-.05,0-.07,0" transform="translate(0.04 -1.53)"/><path class="cls-1" d="M223,47.19a1.1,1.1,0,0,1,.55.24c.58.45,1.2.71,1.76,1.17,0,0,0,.08,0,.08s-.18,0-.26,0a.85.85,0,0,0-.7.3c-.51.5-.88,1.09-1.36,1.61,0-.08,0-.13.07-.19.27-.38.47-.73.74-1.1a3.42,3.42,0,0,1,.44-.49c.08-.08.24-.23.14-.32a.48.48,0,0,0-.49,0,5.08,5.08,0,0,0-.77.95,2.92,2.92,0,0,1,.71-1.12.11.11,0,0,0,0-.11.23.23,0,0,0-.33-.05,4.72,4.72,0,0,0-1.17,2.26c0,.06,0,.15-.12.16a.87.87,0,0,1,0-.28,6.71,6.71,0,0,1,.89-2.08c.1-.12.15-.38-.08-.31s-.38.42-.56.65a.7.7,0,0,1,0-.29,10.45,10.45,0,0,0,.35-1.08h.06" transform="translate(0.04 -1.53)"/><path class="cls-1" d="M232.61,58a10.28,10.28,0,0,1-1.75-.81,8.18,8.18,0,0,1-1.27-1.07,5.25,5.25,0,0,1-1-1.43c-.35-.67-.7-1.3-1-2-.16-.38-.3-.76-.47-1.14,0,0-.1,0-.12,0a1.53,1.53,0,0,0-.16.81c0,.16.29.27.19.4s-.27,0-.3-.17a.32.32,0,0,0-.12.42c.29.53.74.92,1,1.45,0,.07-.1.16-.16.11a8.42,8.42,0,0,1-1-1.2s-.17.15-.12.26a7.09,7.09,0,0,0,1,1.48s.15.09,0,.15a.07.07,0,0,1-.09,0,6,6,0,0,1-1-1.33c-.13.11-.09.32-.05.45a7.51,7.51,0,0,0,.86,1.44.3.3,0,0,1-.28-.07,8.74,8.74,0,0,1-.73-1.1c0,.07-.11.06-.12.1s-.08.13-.06.19a1,1,0,0,0,.24.5s0,.1,0,.11-.16,0-.22-.09-.13-.33-.21-.29a.67.67,0,0,0-.37.7,4.31,4.31,0,0,0,.74,1.32,7.88,7.88,0,0,0,.92,1.2,22.21,22.21,0,0,0,4.53,3,4.82,4.82,0,0,0,1.28.28c.59.09,1.53.22,2.12.26s.63,0,1.31,0c.06,0,.13,0,.19,0a10.88,10.88,0,0,0,3.72-.92,15.61,15.61,0,0,0,3.33-1.87,4.48,4.48,0,0,0,.92-.87l.1.06c-.32-.34-.38-.92-.83-1.06s-.11.37-.09.61c-.13,0-.28-.08-.35-.2a4.54,4.54,0,0,0-1.09-1.29.17.17,0,0,0-.18,0,21.31,21.31,0,0,1-2.62,1.4,7.17,7.17,0,0,1-1.47.45c-.42.08-1.27.23-1.93.29a6.86,6.86,0,0,1-1.69-.1c-.38,0-.89-.18-1.28-.23A4,4,0,0,1,232.61,58Z" transform="translate(0.04 -1.53)"/><path d="M226.38,56.88c.16.11.23.38.38.36s0-.3-.14-.44-.16,0-.24,0S226.36,56.88,226.38,56.88Z" transform="translate(0.04 -1.53)"/><path class="cls-1" d="M231,40a.63.63,0,0,1,0,.36,3.23,3.23,0,0,1-.65,1.14c-.6.51-1.15.71-2-.13a11.9,11.9,0,0,1-.7-1,7.17,7.17,0,0,0-1.22-1.18c-.1-.08-.21-.22-.37-.2.28,0,.25-.43.29-.66a4.74,4.74,0,0,0-.09-2.15.68.68,0,0,1,.28.43c0,.32.07.62.13,1,0,.07.09,0,.11.09.22-.1.17-.35.11-.55s-.05-.25,0-.31.12.07.12.11c0,.45.24.83.28,1.28.06,0,.14.08.15,0a3,3,0,0,0-.08-1.2c.43.41.24,1.08.42,1.59,0,.06.1-.07.12-.13.08-.28,0-.59.11-.87a1.07,1.07,0,0,1,.14.39c.13.54-.21,1.11.09,1.57,0,.07.33.06.33-.1,0-.57.07-1.13.08-1.7a.13.13,0,0,1,.17-.09c.28.14.52-.06.7-.23s.13-.08.14-.06a8,8,0,0,1,.29,1.49,1.31,1.31,0,0,1,0,.68,2.75,2.75,0,0,0,0,.76s0,0,.09,0,.18-.22.3-.24.19.27.35.22S231,40.17,231,40Z" transform="translate(0.04 -1.53)"/><path d="M229,38.14a13.81,13.81,0,0,0,.1,2,.25.25,0,0,0,.31-.26,4.13,4.13,0,0,0-.15-1.79S229,38.07,229,38.14Z" transform="translate(0.04 -1.53)"/><path class="cls-1" d="M228.1,52c-.09-.11-.09-.25-.16-.38-.23-.43-.09-1-.16-1.45a1.32,1.32,0,0,0-.46-1c-.2-.14-.4-.23-.58-.38-.51-.44-.87-.56-1.4-1a8.26,8.26,0,0,0-1.29-1c-.33-.15-.75-.13-1-.45a1.43,1.43,0,0,1-.15-1c.13-.71.28-1.34.43-2.06s.22-1.11.31-1.69c0-.23.26-.36.47-.44a1.08,1.08,0,0,1,.77,0,5.91,5.91,0,0,0,.82.24c.13,0,.69.27.82.31a13.38,13.38,0,0,1,1.4.44c.5.23.43.42,1,.57.08,0-.08.16-.11.17a1.74,1.74,0,0,0-1.18,2.21,3.59,3.59,0,0,0,.45.77c.16.24-.23.24-.4.29a1.93,1.93,0,0,1-1.15-.21c-.08,0-.19.18-.14.29a2.17,2.17,0,0,1,.07.24c.06.23,0,.48.12.71s.16.37.25.56a6,6,0,0,0,.37.51,1.37,1.37,0,0,0,.49.52,4.82,4.82,0,0,0,.91.37,3,3,0,0,1,1,.3,1.67,1.67,0,0,0-.47.65,3.89,3.89,0,0,0-.08,1.73,2.31,2.31,0,0,0,1.47,1.73,2.93,2.93,0,0,0,2.37.08,4.91,4.91,0,0,0,1.45-1.42,1.94,1.94,0,0,1,.23,1.66c0,.06-.2.08-.28,0a1.63,1.63,0,0,0-2.28.49,2.72,2.72,0,0,0-.45,2c-.08,0-.25,0-.32,0a4.18,4.18,0,0,1-1.36-1.18c-.28-.4-.75-1-1-1.41a14.21,14.21,0,0,1-.79-1.84Z" transform="translate(0.04 -1.53)"/><path class="cls-1" d="M311.42,46.39c-.52.47-.58.34-1.13.76a3.29,3.29,0,0,0-1,1c.21,0,.3.2.41.34s.36.53.56.82a9.35,9.35,0,0,0,1,1c.16.18.21.41.38.58A5.49,5.49,0,0,0,313,52.08c.06,0,.14.12.21.15.39.2.93.53,1.25.07.15-.21,0-.46,0-.7a1.48,1.48,0,0,0-.24-.66c-.11-.17-.07-.37-.14-.55-.19-.48-.26-1.07-.43-1.55-.1-.32-.25-.63-.33-1s-.14-.53-.2-.82-.13-.73-.23-1.1c0-.11-.05-.28-.15-.3-.27,0-.62.25-.87.33H312C311.87,46,311.57,46.25,311.42,46.39Z" transform="translate(0.04 -1.53)"/><path d="M310.24,48c.28.22.37.57.6.86,0,0,0,.13.05.18a4.53,4.53,0,0,0,.78.85c.31.28.56.59.89.85a4.25,4.25,0,0,1,.47.37,2,2,0,0,0,.44.47,1.1,1.1,0,0,0,.88.2s0,.12.09.18a1.54,1.54,0,0,1-1.26,0A11.92,11.92,0,0,1,310.32,49a1.9,1.9,0,0,1-.44-.9C309.87,48,310.22,48,310.24,48Z" transform="translate(0.04 -1.53)"/><path d="M310.69,47.55c-.14.1-.29.22-.21.35a10.42,10.42,0,0,0,.93,1.38,11.46,11.46,0,0,0,2.16,2.07c.15.11.58.25.72.1s0-.27-.11-.27-.56-.29-.71-.44a10.38,10.38,0,0,1-1.22-1.29C311.77,48.83,311.27,48.22,310.69,47.55Z" transform="translate(0.04 -1.53)"/><path d="M311.34,47.1c-.09.06-.32.23-.27.3.19.33.39.61.61.92a10.85,10.85,0,0,0,1.92,2.28,1.24,1.24,0,0,0,.48.08c-.06-.13-.05-.33-.12-.39a14.21,14.21,0,0,1-1.75-2.11l-.21-.25c-.2-.29-.28-.62-.57-.83A.07.07,0,0,0,311.34,47.1Z" transform="translate(0.04 -1.53)"/><path d="M311.9,46.67c-.1.07-.37.09-.32.18a17.16,17.16,0,0,0,1.22,1.62c.23.3.33.66.64.89a1.28,1.28,0,0,0,.31.15c-.12-.3-.05-.63-.24-.91a8.3,8.3,0,0,0-.58-.91c-.32-.34-.56-.71-.88-1C312,46.61,311.94,46.63,311.9,46.67Z" transform="translate(0.04 -1.53)"/><path d="M312.58,46.14c-.1.15-.47.22-.37.34a10.4,10.4,0,0,0,1,1.33c0-.18-.12-.61-.14-.78a2,2,0,0,0-.48-1Z" transform="translate(0.04 -1.53)"/><path class="cls-1" d="M314.2,36.7a15.48,15.48,0,0,0-2.44,1.56c-.19.13-.1.5.1.77s.43.43.62.68a4.08,4.08,0,0,1,.76,1.95c.43,2.3.64,4.43,1.27,6.66.07.25,0,.54.12.77.28.8.71,1.54,1,2.37a1.13,1.13,0,0,1,.08.58c.11,0,.23,0,.31,0A26.27,26.27,0,0,0,318.37,50a7.33,7.33,0,0,0-.27-3.21c-.11-.52-.14-1-.21-1.56a16.66,16.66,0,0,0-.56-2.07c-.51-1.92-1.13-3.71-1.8-5.56C315.35,37.05,314.84,36.41,314.2,36.7Z" transform="translate(0.04 -1.53)"/><path d="M312.57,39.23c.8,1.13.62,1.86,1.08,3.06,0,.1.3,0,.31-.12a5.21,5.21,0,0,0-.91-3C313,39,312.7,39,312.5,39A.54.54,0,0,0,312.57,39.23Z" transform="translate(0.04 -1.53)"/><path d="M313.73,43.16a26.16,26.16,0,0,1,.81,3.78c.15.71.36,1.44.51,2.11,0,.16.33.08.22-.48s-.14-1.2-.28-1.79-.22-1.17-.32-1.55c-.24-.9-.26-1.29-.54-2.15,0-.12-.26.06-.46.07Z" transform="translate(0.04 -1.53)"/><path d="M313.15,38.89a6.3,6.3,0,0,1,1.21,3.1c.22,1.49.62,2.87.88,4.36a3.12,3.12,0,0,0,.48,1.47c0,.06.29-.24.29-.35a9.76,9.76,0,0,0-.62-2.37c-.4-1.42-.36-2.87-.77-4.28a5.33,5.33,0,0,0-.73-1.64,1.9,1.9,0,0,0-.38-.46C313.46,38.83,313,38.74,313.15,38.89Z" transform="translate(0.04 -1.53)"/><path d="M313.87,38.58c.13.28.31.53.42.8a6.56,6.56,0,0,1,.4,1c.06.28.14.56.21.83s0,.55.22.63.3-.17.28-.28a13,13,0,0,0-.87-2.69C314.34,38.46,314,38.33,313.87,38.58Z" transform="translate(0.04 -1.53)"/><path d="M314.39,38.32c1,1.22,1,3,1.64,4.61.37-.21.21-.52.08-1-.21-.71-.36-1.42-.58-2.15a3.83,3.83,0,0,0-.76-1.63c-.14-.14-.3,0-.38.12C314.41,38.28,314.37,38.37,314.39,38.32Z" transform="translate(0.04 -1.53)"/><path d="M315,38a6.34,6.34,0,0,0,.46.73,4.33,4.33,0,0,1,.3.78c.2.63.32,1.24.48,1.9.07.29.06.57.12.87s.26.78.37,1.18c.07.22,0,.45.08.68s.18.31.2.49c.14-.09.42-.14.35-.35a23.35,23.35,0,0,1-1.09-4.08c-.08-.45-.32-.85-.4-1.31a1.54,1.54,0,0,0-.62-1C315.14,37.91,315,38,315,38Z" transform="translate(0.04 -1.53)"/><path class="cls-1" d="M233.48,43.08a.72.72,0,0,0-.55-.43c-.13,0-.15.12-.18.2-.17.52-.48,1-.61,1.5a1.38,1.38,0,0,0,0,.78,5.44,5.44,0,0,0,.19.52c.06.13,0,.26.05.4s.11.23.15.35a.43.43,0,0,0,.51.25c.05,0,.1-.09.06-.14a.9.9,0,0,1-.07-.14,2.42,2.42,0,0,0-.13-.48c-.12-.25-.37-.4-.54-.63a.34.34,0,0,1,.43.1.86.86,0,0,0,0-.39,2,2,0,0,0-.08-.45c-.08-.19-.41-.19-.42-.43,0-.06.1-.1.15-.12s.33.19.38.1c.16-.3-.29-.91.18-1,.1,0,.12.25.26.26A.18.18,0,0,0,233.48,43.08Z" transform="translate(0.04 -1.53)"/><path class="cls-1" d="M233.59,46.8c0-.08.1-.11.12-.17,0-.28.07-.54.14-.81a.6.6,0,0,1,.25-.43c.19-.13.32.17.35.36.08.53.2.74-.09,1.2a.35.35,0,0,1-.34.16c-.23-.09-.41-.19-.43-.44" transform="translate(0.04 -1.53)"/><path class="cls-1" d="M233.9,44.45c0-.19.18-.33.15-.53.33.08.45.56.39.89C234.19,44.85,233.86,44.75,233.9,44.45Z" transform="translate(0.04 -1.53)"/><path class="cls-1" d="M228.49,44.51a1,1,0,0,0,1.26-.18c.19-.16.13-.41.05-.64.32,0,.42.42.5.66a.86.86,0,0,1-.16.77,1.2,1.2,0,0,1-1.73,0,.4.4,0,0,1-.11-.48C228.34,44.57,228.46,44.6,228.49,44.51Z" transform="translate(0.04 -1.53)"/><path class="cls-1" d="M227,46.76a1,1,0,0,0,.66.49c-.06.09-.05.2-.13.27.21.2.46.12.7-.05s.08,0,.14.21c-.35.06-.39.31-.68.49-.29-.32-.47-.33-.62-.76,0-.09,0-.19-.06-.29S227.07,46.88,227,46.76Z" transform="translate(0.04 -1.53)"/><path class="cls-1" d="M228.14,48.33c.16-.09.25-.39.44-.3s.35.32.57.47.28,0,.3.16-.15.07-.2.07a1.26,1.26,0,0,1-.54-.21c-.17-.09-.44-.1-.57-.29" transform="translate(0.04 -1.53)"/><path class="cls-1" d="M229.14,47.49a4,4,0,0,0,.82.71c0-.39-.31-.65-.57-.9C229.31,47.22,229.08,47.4,229.14,47.49Z" transform="translate(0.04 -1.53)"/><path class="cls-1" d="M230.68,46.6a2.11,2.11,0,0,1-.58.34s0,.07,0,.08c.4.17.68.49,1.08.63.06,0,.08-.12,0-.2C231.09,47.13,230.75,47,230.68,46.6Z" transform="translate(0.04 -1.53)"/><path class="cls-1" d="M232.05,50.75a1.41,1.41,0,0,0-1,.49c-.17.24-.31.61-.09.79.37.31.73-.26.83-.63,0-.18.25-.2.42-.21a.1.1,0,0,0,.06-.12.37.37,0,0,0-.39-.32" transform="translate(0.04 -1.53)"/><path class="cls-1" d="M233.22,50.53c-.1-.12-.17-.28-.32-.33a2.71,2.71,0,0,0-2,.43,1.49,1.49,0,0,0-.55.48c-.15.22-.05.5-.2.7s-.22,0-.29-.15c-.26-.49,0-1,0-1.5a2.2,2.2,0,0,1,1.76-.84c.75,0,1.8.26,1.84,1.17,0,0,0,.11-.05.12A.21.21,0,0,1,233.22,50.53Z" transform="translate(0.04 -1.53)"/><path class="cls-1" d="M232.8,54.86a.36.36,0,0,0-.24.24c-.16.46-.24,1.25.23,1.48s1.27-.34,1.5-.91a.72.72,0,0,0-.41-1,1.3,1.3,0,0,0-.52,0A3.25,3.25,0,0,0,232.8,54.86Z" transform="translate(0.04 -1.53)"/><path d="M233,55.25c-.1.14-.2.31-.14.45s.12.15.21.1.07-.23.12-.39,0-.13,0-.15S233.05,55.14,233,55.25Z" transform="translate(0.04 -1.53)"/><path class="cls-1" d="M234,57.67a1.83,1.83,0,0,0,1-.74s.09-.07.11,0a1.46,1.46,0,0,1,0,1.21A1.78,1.78,0,0,1,234,57.67Z" transform="translate(0.04 -1.53)"/><path class="cls-1" d="M240.51,51.37a5.67,5.67,0,0,0,.12.91A7.26,7.26,0,0,0,242,55.61c.14.31-2.54,1.85-4,2.12a2.37,2.37,0,0,1-1.18.1c-.05,0-.05-.2,0-.28s.48-.13.73-.2a2.92,2.92,0,0,0,1.83-1.57s0,0,0,0a7.75,7.75,0,0,0,.4-2.81,1.94,1.94,0,0,1,.19-.62c-.23.06-.45-.07-.69,0a4.11,4.11,0,0,0-1,.23,3.4,3.4,0,0,0-1.14.9,9,9,0,0,0-.84,1.3c-.05.08-.2.1-.21,0a2.21,2.21,0,0,1,0-1.22c.05-.11.27.06.41,0a2.73,2.73,0,0,0,1.3-.88,2.43,2.43,0,0,0,.37-.91,2.31,2.31,0,0,0,0-.91c.08,0,.15-.07.23,0a.85.85,0,0,0,.83-.1c.18-.1.32.19.54.23s.48-.24.75-.22c.06,0,0,.08.05.12s0,.23,0,.39" transform="translate(0.04 -1.53)"/><path class="cls-1" d="M237.34,56.13c.64-.42.85-1.22,1.52-1.53.12-.06.08,0,.25,0A3,3,0,0,1,238.6,56a.53.53,0,0,1-.18.24c-.25.18-.56.36-.83.17a1.63,1.63,0,0,1-.34-.3S237.32,56.13,237.34,56.13Z" transform="translate(0.04 -1.53)"/><path class="cls-1" d="M238.65,54a1.55,1.55,0,0,1,.65-.33c-.06-.23,0-.48,0-.71,0-.08-.09,0-.11,0a2.48,2.48,0,0,0-.57,1.07Z" transform="translate(0.04 -1.53)"/><path class="cls-1" d="M238.1,53a1.34,1.34,0,0,1,.05.52c0,.17-.24.18-.32.33h-.09A.62.62,0,0,1,238.1,53Z" transform="translate(0.04 -1.53)"/><path class="cls-1" d="M236.1,50.49a1.06,1.06,0,0,0-.56.78,1,1,0,0,0,.32,1,1.17,1.17,0,0,0,1.54-.18c.07-.09,0-.22-.06-.22-.36,0-.75,0-1-.24s-.33-.41-.19-.63a1.1,1.1,0,0,1,.3-.35s0-.08,0-.11-.23-.12-.38-.07Z" transform="translate(0.04 -1.53)"/><path class="cls-1" d="M242.36,49c0,.15,0,.3,0,.46a2.43,2.43,0,0,0,.31,1.1s.12.18.16.06.13-.18.07-.24c-.39-.46-.1-1-.33-1.5,0,0-.12,0-.17,0S242.36,48.92,242.36,49Z" transform="translate(0.04 -1.53)"/><path class="cls-1" d="M243.08,48.23A2.75,2.75,0,0,0,243,50c.08,0,.16.12.17.06a12.72,12.72,0,0,1,.14-1.37C243.4,48.46,243.22,48,243.08,48.23Z" transform="translate(0.04 -1.53)"/><path class="cls-1" d="M244,47.34a3.72,3.72,0,0,0-.29,2c.08-.09.07-.28.26-.26-.13-.62.44-1.16.24-1.76A.37.37,0,0,0,244,47.34Z" transform="translate(0.04 -1.53)"/><path class="cls-1" d="M242.62,51.12a2.78,2.78,0,0,1-.59-1.56c-.22.11-.17.37-.15.51C241.92,50.49,242.17,51,242.62,51.12Z" transform="translate(0.04 -1.53)"/><path d="M229.88,57c.72.59,1.66.84,2.19,1.66a.75.75,0,0,1,.15.62,1.28,1.28,0,0,1-1.29,1,3,3,0,0,1-2.34-1.6c-.06-.09.15,0,.12-.12.13,0,.26.13.38,0a2.61,2.61,0,0,0,.76-.86C230,57.55,229.73,57.39,229.88,57Z" transform="translate(0.04 -1.53)"/><path d="M233.39,58.64c-.15,0-.36-.13-.42.08s.09.21.06.32a3.66,3.66,0,0,1-.65,1.67s-.1.09-.12.16.09.21.16.24c.24.09.47.29.74.18,0,0,.08-.08.06-.12a.64.64,0,0,1-.05-.33c.15-.45.32-.87.43-1.34a.58.58,0,0,1,.27-.31A.19.19,0,0,0,234,59C233.87,58.74,233.66,58.67,233.39,58.64Z" transform="translate(0.04 -1.53)"/><path d="M234.73,59c.64,0,1.46,0,2.35-.07.14,0,.2.15.21.2,0,.23.14.49,0,.71,0,0-.14,0-.17,0a.35.35,0,0,0-.25-.17,4.71,4.71,0,0,0-.84,0c-.11,0-.09.36-.06.38.21.15.47-.06.67,0s.09.4,0,.47-.43-.19-.6,0-.07.4,0,.42c.26.06.65-.08.91,0,0-.08.08-.08.11-.12s.18-.12.21-.07a1.13,1.13,0,0,1,0,.81c0,.06-.14.08-.19.09a11.44,11.44,0,0,1-2.34,0s-.08,0-.1-.09.15-.19.16-.32a9.33,9.33,0,0,0,0-1.67s-.09-.06-.11-.1-.11-.19,0-.29S234.77,59,234.73,59Z" transform="translate(0.04 -1.53)"/><path d="M238.66,58.44c-.28.16-.59.17-.85.35-.05,0,0,.14,0,.18s.22.13.26.19a12.87,12.87,0,0,1,.43,1.45.44.44,0,0,0,.25.25,1.46,1.46,0,0,0,.72,0,1.94,1.94,0,0,0,1.13-.49c.64-.67,0-1.52-.07-2.27,0-.08.12-.17.07-.21a.6.6,0,0,0-.81.22c-.07.11.15.12.18.19a3,3,0,0,1,.36,1.53.53.53,0,0,1-.74.38c-.48-.25-.53-.86-.66-1.36,0-.11.06-.2.14-.27s0-.07,0-.09A.34.34,0,0,0,238.66,58.44Z" transform="translate(0.04 -1.53)"/><path class="cls-1" d="M230.56,58.13a5.34,5.34,0,0,0-.63,1,.1.1,0,0,0,0,.1c.36.23.74.63,1.16.37a.67.67,0,0,0,.25-1,2.39,2.39,0,0,0-.67-.59A.12.12,0,0,0,230.56,58.13Z" transform="translate(0.04 -1.53)"/><path class="cls-1" d="M271.21,51.37c.21.14.7.24.51.49s-.64,0-.68-.33c.08,0,.07-.09.13-.1Z" transform="translate(0.04 -1.53)"/><path class="cls-1" d="M271.3,52.34s-.06,0-.09,0c0,.19.24.26.39.31s.25-.21.15-.3a.35.35,0,0,0-.44-.07S271.31,52.34,271.3,52.34Z" transform="translate(0.04 -1.53)"/></svg>