<svg version="1.1" xmlns="http://www.w3.org/2000/svg" role="img" viewBox="0 0 425 56">
    <title id="tsunLogo">Toronto Sun</title>
    <path d="m308.89 17.93h-1.04c-0.09-0.54-0.14-0.83-0.15-0.89-0.14-0.89-0.29-1.93-0.89-2.67-0.59-0.74-1.18-1.33-3.11-1.33-1.03 0-2.07 0.29-2.66 0.89-0.74 0.59-1.04 1.18-1.04 1.92 0.15 1.34 0 1.48 1.48 2.52 1.48 0.89 4.45 2.22 9.48 4.3 5.34 2.22 8.89 4.44 10.97 7.11 2.22 2.66 2.96 5.63 2.96 8.74 0 4-1.33 8.29-4.59 11.55s-8.6 5.34-16.3 5.34c-8.3 0-13.78-2.52-17.04-6.08-3.26-3.55-4.44-7.85-4.44-11.4v-2.82h16.59v1.19c0 2.66 0.89 4 1.78 4.89 0.89 0.74 2.22 1.03 2.81 1.03 2.82 0 4.3-2.07 4.3-3.7 0-1.48-0.3-1.78-1.78-2.82-1.48-0.89-4.29-1.92-8.59-3.7-1.93-0.74-5.63-2.07-8.74-4.44s-5.93-6.08-5.93-11.26c0-5.19 2.82-9.49 6.82-12.15 4-2.67 9.18-4.15 14.07-4.15 5.78 0 12.15 1.93 16.15 6.22 3.56 4 3.85 7.85 4 10.82v1.18h-15.11"></path>
    <path d="m342.96 2.07h1.19v31.26c0 1.63 0.15 3.86 0.89 5.48 0.89 1.63 2.07 2.82 5.18 2.82 3.26 0 4.3-1.04 5.04-2.67 0.74-1.48 0.74-3.85 0.74-5.77v-31.12h16.3v31.26c0 8.6-2.23 12.74-5.93 16.15-3.7 3.56-9.04 5.78-16.15 5.78-4.15 0-11.7-0.89-16.59-5.63-4.74-4.59-5.93-8.74-5.78-16.15v-31.41h15.11"></path>
    <path d="m391.11 26.22l0.3 28h-15.71v-51.11-1.04h13.93l19.56 28.89-0.6-28.89h15.71v52.15h-13.93l-19.26-28z"></path>
    <path d="m20.44 54.37h-9.92v-42.07h-10.52v-9.49h30.96v9.49h-10.52v42.07z"></path>
    <path d="m52.86 2.21l1.13 0.18 1.11 0.24 1.08 0.31 1.05 0.37 1.02 0.44 0.98 0.51 0.95 0.56 0.92 0.63 0.89 0.69 0.84 0.75 0.81 0.81 0.77 0.86 0.73 0.93 0.68 0.98 0.65 1.03 0.59 1.09 0.56 1.14 0.5 1.2 0.46 1.24 0.41 1.29 0.36 1.35 0.31 1.39 0.25 1.44 0.2 1.49 0.14 1.53 0.09 1.57 0.03 1.62v1.48l-0.03 1.62-0.08 1.58-0.15 1.53-0.19 1.48-0.25 1.44-0.31 1.4-0.35 1.34-0.4 1.3-0.46 1.24-0.5 1.19-0.55 1.15-0.59 1.08-0.64 1.04-0.68 0.98-0.72 0.92-0.77 0.87-0.8 0.81-0.85 0.75-0.88 0.68-0.92 0.63-0.95 0.57-0.99 0.5-1.02 0.44-1.06 0.38-1.08 0.31-1.12 0.24-1.14 0.17-1.17 0.11-1.2 0.03-1.19-0.03-1.15-0.11-1.14-0.17-1.1-0.24-1.08-0.31-1.05-0.38-1.02-0.44-0.98-0.5-0.96-0.57-0.92-0.63-0.88-0.68-0.85-0.75-0.8-0.81-0.77-0.87-0.73-0.92-0.69-0.98-0.64-1.04-0.6-1.08-0.55-1.15-0.51-1.19-0.46-1.24-0.4-1.3-0.36-1.34-0.31-1.4-0.25-1.44-0.2-1.48-0.15-1.53-0.08-1.58-0.03-1.62v-1.48l0.03-1.62 0.08-1.57 0.15-1.53 0.2-1.49 0.25-1.44 0.31-1.39 0.36-1.35 0.4-1.29 0.46-1.24 0.51-1.2 0.55-1.14 0.6-1.09 0.64-1.03 0.69-0.98 0.73-0.93 0.77-0.86 0.8-0.81 0.85-0.75 0.88-0.69 0.92-0.63 0.96-0.56 0.98-0.51 1.02-0.44 1.05-0.37 1.08-0.31 1.1-0.24 1.14-0.18 1.15-0.1 1.19-0.04 1.18 0.04 1.16 0.1zm-4.4 9.27l-0.89 0.27-0.85 0.38-0.8 0.5-0.75 0.61-0.7 0.72-0.65 0.84-0.59 0.95-0.53 1.07-0.46 1.19-0.4 1.31-0.34 1.43-0.26 1.56-0.19 1.67-0.12 1.8-0.04 1.92v1.49l0.04 1.92 0.12 1.8 0.19 1.69 0.26 1.56 0.34 1.44 0.4 1.32 0.46 1.2 0.53 1.09 0.59 0.96 0.65 0.85 0.7 0.74 0.75 0.62 0.8 0.5 0.85 0.4 0.89 0.28 0.94 0.16 0.97 0.06 0.97-0.06 0.94-0.16 0.89-0.27 0.85-0.39 0.8-0.49 0.76-0.61 0.7-0.72 0.64-0.84 0.59-0.95 0.53-1.08 0.46-1.19 0.41-1.31 0.33-1.43 0.26-1.55 0.2-1.67 0.11-1.8 0.04-1.93v-1.48h0.15l-0.04-1.92-0.12-1.81-0.2-1.68-0.27-1.56-0.35-1.44-0.41-1.32-0.48-1.2-0.54-1.09-0.6-0.97-0.66-0.85-0.71-0.73-0.77-0.62-0.81-0.51-0.85-0.39-0.9-0.28-0.94-0.17-0.98-0.05-0.97 0.05-0.94 0.17z"></path>
    <path d="m91.37 2.86l0.77 0.05 0.76 0.08 0.74 0.1 0.73 0.12 0.71 0.14 0.69 0.16 0.68 0.18 0.66 0.21 0.64 0.23 0.63 0.25 0.6 0.27 0.59 0.3 0.57 0.31 0.55 0.34 0.53 0.36 0.51 0.39 0.5 0.4 0.47 0.43 0.44 0.45 0.43 0.47 0.41 0.49 0.38 0.52 0.37 0.54 0.33 0.56 0.32 0.58 0.29 0.61 0.27 0.63 0.25 0.65 0.22 0.67 0.2 0.7 0.17 0.72 0.14 0.74 0.12 0.76 0.1 0.79 0.06 0.81 0.05 0.83 0.01 0.86v0.29l-0.01 0.57-0.02 0.55-0.03 0.54-0.05 0.54-0.06 0.52-0.07 0.51-0.09 0.51-0.1 0.49-0.11 0.48-0.12 0.47-0.14 0.46-0.14 0.46-0.16 0.44-0.17 0.43-0.17 0.42-0.19 0.41-0.2 0.41-0.21 0.39-0.22 0.38-0.23 0.37-0.23 0.37-0.25 0.35-0.25 0.35-0.27 0.33-0.27 0.33-0.28 0.31-0.29 0.31-0.29 0.3-0.3 0.29-0.31 0.27-0.32 0.27-0.32 0.27-0.33 0.25-0.34 0.24-0.34 0.23-0.35 0.23-0.35 0.21-0.35 0.21-0.37 0.2 9.48 19.85h-11.25l-8.15-17.33h-4.89v17.33h-10.08v-51.56h15.71l0.8 0.02 0.79 0.03zm-7.22 25.14h5.48l1.33-0.08 1.22-0.22 1.11-0.39 0.98-0.54 0.86-0.7 0.72-0.85 0.57-1.02 0.42-1.19 0.26-1.35 0.09-1.51v-0.3l-0.67-1.49-0.69-1.33-0.72-1.18-0.75-1.02-0.77-0.87-0.8-0.7-0.82-0.55-0.85-0.4-0.88-0.23-0.91-0.08h-5.18v16z"></path>
    <path d="m132.86 2.21l1.13 0.18 1.11 0.24 1.08 0.31 1.05 0.37 1.02 0.44 0.98 0.51 0.95 0.56 0.92 0.63 0.89 0.69 0.84 0.75 0.81 0.81 0.77 0.86 0.73 0.93 0.68 0.98 0.65 1.03 0.59 1.09 0.56 1.14 0.5 1.2 0.46 1.24 0.41 1.29 0.36 1.35 0.31 1.39 0.25 1.44 0.2 1.49 0.14 1.53 0.09 1.57 0.03 1.62v1.48l-0.03 1.62-0.08 1.58-0.15 1.53-0.19 1.48-0.25 1.44-0.31 1.4-0.35 1.34-0.4 1.3-0.46 1.24-0.5 1.19-0.55 1.15-0.59 1.08-0.64 1.04-0.68 0.98-0.72 0.92-0.77 0.87-0.8 0.81-0.85 0.75-0.88 0.68-0.92 0.63-0.95 0.57-0.99 0.5-1.02 0.44-1.06 0.38-1.08 0.31-1.12 0.24-1.14 0.17-1.17 0.11-1.2 0.03-1.2-0.03-1.17-0.11-1.14-0.17-1.12-0.24-1.08-0.31-1.06-0.38-1.02-0.44-0.99-0.5-0.95-0.57-0.92-0.63-0.88-0.68-0.85-0.75-0.8-0.81-0.77-0.87-0.72-0.92-0.68-0.98-0.64-1.04-0.6-1.08-0.55-1.15-0.5-1.19-0.45-1.24-0.4-1.3-0.36-1.34-0.3-1.4-0.25-1.44-0.2-1.48-0.14-1.53-0.08-1.58-0.03-1.62v-1.48l0.03-1.62 0.08-1.57 0.15-1.53 0.2-1.49 0.25-1.44 0.31-1.39 0.36-1.35 0.4-1.29 0.46-1.24 0.51-1.2 0.55-1.14 0.6-1.09 0.64-1.03 0.69-0.98 0.73-0.93 0.77-0.86 0.8-0.81 0.85-0.75 0.88-0.69 0.92-0.63 0.96-0.56 0.98-0.51 1.02-0.44 1.05-0.37 1.08-0.31 1.1-0.24 1.14-0.18 1.15-0.1 1.19-0.04 1.18 0.04 1.16 0.1zm-4.25 9.27l-0.89 0.27-0.85 0.38-0.8 0.5-0.76 0.61-0.7 0.72-0.64 0.84-0.59 0.95-0.53 1.07-0.46 1.19-0.41 1.31-0.33 1.43-0.26 1.56-0.2 1.67-0.11 1.8-0.04 1.92v1.49l0.04 1.92 0.11 1.8 0.2 1.69 0.26 1.56 0.33 1.44 0.41 1.32 0.46 1.2 0.53 1.09 0.59 0.96 0.64 0.85 0.7 0.74 0.76 0.62 0.8 0.5 0.85 0.4 0.89 0.28 0.93 0.16 0.98 0.06 0.97-0.06 0.94-0.16 0.89-0.27 0.85-0.39 0.8-0.49 0.75-0.61 0.7-0.72 0.65-0.84 0.59-0.95 0.53-1.08 0.46-1.19 0.4-1.31 0.34-1.43 0.26-1.55 0.19-1.67 0.12-1.8 0.04-1.93v-1.48h0.15l-0.04-1.92-0.12-1.81-0.2-1.68-0.28-1.56-0.34-1.44-0.41-1.32-0.48-1.2-0.54-1.09-0.6-0.97-0.66-0.85-0.71-0.73-0.77-0.62-0.81-0.51-0.86-0.39-0.9-0.28-0.94-0.17-0.97-0.05-0.98 0.05-0.93 0.17z"></path>
    <path d="m165.48 24.59v29.78h-9.78v-51.56h9.19l15.85 28.6v-28.6h9.93v51.56h-8.74l-16.45-29.78z"></path>
    <path d="m215.41 54.37h-10.08v-42.07h-10.52v-9.49h31.12v9.49h-10.52v42.07z"></path>
    <path d="m249.16 2.21l1.13 0.18 1.11 0.24 1.08 0.31 1.04 0.37 1.02 0.44 0.99 0.51 0.95 0.56 0.92 0.63 0.88 0.69 0.85 0.75 0.81 0.81 0.76 0.86 0.73 0.93 0.69 0.98 0.64 1.03 0.6 1.09 0.55 1.14 0.51 1.2 0.46 1.24 0.41 1.29 0.36 1.35 0.3 1.39 0.26 1.44 0.2 1.49 0.14 1.53 0.09 1.57 0.03 1.62v1.48l-0.03 1.62-0.09 1.58-0.14 1.53-0.2 1.48-0.25 1.44-0.3 1.4-0.35 1.34-0.41 1.3-0.45 1.24-0.5 1.19-0.55 1.15-0.59 1.08-0.64 1.04-0.68 0.98-0.73 0.92-0.76 0.87-0.81 0.81-0.84 0.75-0.88 0.68-0.92 0.63-0.96 0.57-0.99 0.5-1.02 0.44-1.05 0.38-1.09 0.31-1.11 0.24-1.15 0.17-1.17 0.11-1.2 0.03-1.18-0.03-1.16-0.11-1.13-0.17-1.11-0.24-1.08-0.31-1.04-0.38-1.02-0.44-0.99-0.5-0.95-0.57-0.92-0.63-0.88-0.68-0.85-0.75-0.81-0.81-0.77-0.87-0.72-0.92-0.69-0.98-0.64-1.04-0.6-1.08-0.55-1.15-0.51-1.19-0.46-1.24-0.41-1.3-0.36-1.34-0.3-1.4-0.26-1.44-0.2-1.48-0.14-1.53-0.09-1.58-0.03-1.62v-1.48l0.03-1.62 0.09-1.57 0.14-1.53 0.2-1.49 0.26-1.44 0.3-1.39 0.36-1.35 0.41-1.29 0.46-1.24 0.51-1.2 0.55-1.14 0.6-1.09 0.64-1.03 0.69-0.98 0.72-0.93 0.77-0.86 0.81-0.81 0.85-0.75 0.88-0.69 0.92-0.63 0.95-0.56 0.99-0.51 1.02-0.44 1.04-0.37 1.08-0.31 1.11-0.24 1.13-0.18 1.16-0.1 1.18-0.04 1.19 0.04 1.16 0.1zm-4.25 9.27l-0.9 0.27-0.85 0.38-0.8 0.5-0.75 0.61-0.7 0.72-0.65 0.84-0.58 0.95-0.53 1.07-0.47 1.19-0.4 1.31-0.33 1.43-0.27 1.56-0.19 1.67-0.12 1.8-0.04 1.92v1.49l0.04 1.92 0.12 1.8 0.19 1.69 0.27 1.56 0.33 1.44 0.4 1.32 0.47 1.2 0.53 1.09 0.58 0.96 0.65 0.85 0.7 0.74 0.75 0.62 0.8 0.5 0.85 0.4 0.9 0.28 0.93 0.16 0.97 0.06 0.98-0.06 0.93-0.16 0.9-0.27 0.85-0.39 0.8-0.49 0.75-0.61 0.7-0.72 0.65-0.84 0.58-0.95 0.53-1.08 0.47-1.19 0.4-1.31 0.33-1.43 0.27-1.55 0.19-1.67 0.12-1.8 0.04-1.93v-1.48h0.14l-0.04-1.92-0.12-1.81-0.2-1.68-0.27-1.56-0.34-1.44-0.42-1.32-0.47-1.2-0.55-1.09-0.6-0.97-0.66-0.85-0.71-0.73-0.76-0.62-0.81-0.51-0.86-0.39-0.9-0.28-0.94-0.17-0.98-0.05-0.97 0.05-0.93 0.17z"></path>
</svg>