<svg xmlns="http://www.w3.org/2000/svg" width="369" height="82" viewBox="0 0 369 82">
    <g fill="none" fill-rule="nonzero">
        <path fill="#231F20" d="M16.95 23.4H9.41a33.31 33.31 0 0 0-4.66.28c-.88.13-1.32.92-1.32 2.36 0 1.08 0 2-.07 2.8v.64H.03v-8.66h40.62v8.66h-3.33v-.64c-.07-.78-.1-1.72-.1-2.8 0-1.44-.43-2.23-1.29-2.36a33.61 33.61 0 0 0-4.64-.28h-7.55v36.43c0 2.84.25 4.56.76 5.16.51.6 2 1 4.58 1.11h1.38v2H10.33v-2h1.36c2.51-.13 4-.49 4.52-1.11.52-.62.74-2.32.74-5.16V23.4zM53.44 39.87a16.74 16.74 0 0 1 5.52-5.45 13.68 13.68 0 0 1 7-1.82 8.8 8.8 0 0 1 7 2.94c1.68 2 2.52 4.7 2.52 8.1v16.19c.153 3.18.4 4.97.74 5.37.34.41 1.87.7 4.6.9h.58v2H63.28v-2h.58c2.73-.2 4.27-.49 4.61-.9.34-.41.59-2.19.73-5.37V44.61c0-3-.38-5.06-1.16-6.23-.78-1.17-2.16-1.74-4.16-1.74-1.66.065-3.28.52-4.73 1.33a28.24 28.24 0 0 0-5.71 4v17.84c0 2.9.23 4.63.7 5.18.47.55 2 .92 4.61 1.09h.61v2H41.22v-2h.61c2.58-.173 4.11-.543 4.59-1.11.48-.567.72-2.287.72-5.16v-33.9c0-2.88-.24-4.6-.72-5.16-.48-.56-2.01-.93-4.59-1.11h-.61v-2h12.22v22.23zM109.04 66.54a30.35 30.35 0 0 1-11 2.37 16.14 16.14 0 0 1-12.41-5.16c-3.18-3.427-4.773-7.883-4.78-13.37 0-5.213 1.427-9.483 4.28-12.81a13.86 13.86 0 0 1 11-5c4.14 0 7.32 1.397 9.54 4.19 2.22 2.793 3.333 6.773 3.34 11.94v.61h-21.2c0 5.41.94 9.51 2.83 12.27a9.49 9.49 0 0 0 8.39 4.14 19.44 19.44 0 0 0 10-2.42l.01 3.24zm-21-19.16h14.32v-1.41c0-4.04-.52-6.96-1.56-8.76a5.44 5.44 0 0 0-5.05-2.67 6.32 6.32 0 0 0-5.62 3.49 18.33 18.33 0 0 0-2.08 9.37l-.01-.02zM230.78 66.54a30.39 30.39 0 0 1-11 2.37 16.13 16.13 0 0 1-12.41-5.16c-3.187-3.427-4.78-7.883-4.78-13.37 0-5.213 1.427-9.483 4.28-12.81a13.86 13.86 0 0 1 11-5c4.127 0 7.307 1.397 9.54 4.19 2.233 2.793 3.347 6.773 3.34 11.94v.61h-21.18c0 5.41 1 9.51 2.83 12.27a9.52 9.52 0 0 0 8.4 4.14 19.47 19.47 0 0 0 10-2.42l-.02 3.24zm-21-19.16h14.37v-1.41c0-4.04-.52-6.96-1.56-8.76a5.44 5.44 0 0 0-5.09-2.69 6.31 6.31 0 0 0-5.62 3.49c-1.4 2.36-2.09 5.47-2.09 9.39l-.01-.02zM262.15 66.94a26.33 26.33 0 0 1-9.74 2 16.09 16.09 0 0 1-12.34-5.09c-3.153-3.4-4.727-7.817-4.72-13.25.007-5.433 1.517-9.787 4.53-13.06 3.04-3.273 7.08-4.91 12.12-4.91a44.07 44.07 0 0 1 10.15 1.53v8.29h-3.92v-.58c0-4.78-2.11-7.17-6.3-7.17a8.32 8.32 0 0 0-7.28 4.16c-1.8 2.78-2.697 6.54-2.69 11.28 0 4.847 1.063 8.67 3.19 11.47a10.37 10.37 0 0 0 8.7 4.2 20.25 20.25 0 0 0 8.34-1.62l-.04 2.75zM283.2 68.93c-5.12 0-9.14-1.63-12.11-4.89-2.97-3.26-4.44-7.68-4.44-13.29 0-5.61 1.48-10 4.44-13.28 2.96-3.28 7-4.87 12.11-4.87 5.11 0 9.18 1.63 12.12 4.87 2.94 3.24 4.42 7.66 4.42 13.28 0 5.62-1.48 10-4.43 13.29-2.95 3.29-7 4.89-12.11 4.89zm0-1.94c2.84 0 5.2-1.533 7.08-4.6 1.88-3.067 2.817-6.943 2.81-11.63a22 22 0 0 0-2.81-11.59c-1.893-3.087-4.27-4.63-7.13-4.63-2.81 0-5.16 1.54-7 4.63a25.31 25.31 0 0 0 0 23.22c1.85 3.07 4.19 4.6 7 4.6h.05zM314.33 42.93v16.9c0 2.88.25 4.6.75 5.18.5.58 2 .94 4.6 1.09h1.38v2h-18.91v-2h.6c2.58-.17 4.12-.54 4.6-1.11.48-.57.72-2.28.72-5.16V41.7c0-2.88-.25-4.59-.72-5.15-.47-.56-2-.93-4.6-1.12h-.6v-2h12.21v6.51c2.867-4.88 6.62-7.32 11.26-7.32a7.17 7.17 0 0 1 2.14.38v9.47h-3.61v-.58a16.66 16.66 0 0 0-.62-3.54c-.19-.37-.67-.56-1.45-.56-3.147-.013-5.73 1.7-7.75 5.14zM356.32 68.12v-6.47a16.33 16.33 0 0 1-5.35 5.45 13.09 13.09 0 0 1-6.82 1.83 11.1 11.1 0 0 1-9.36-4.66c-2.32-3.113-3.483-7.28-3.49-12.5 0-5.8 1.333-10.447 4-13.94a12.7 12.7 0 0 1 10.61-5.23 13.71 13.71 0 0 1 5.65 1.18 14.93 14.93 0 0 1 4.76 3.54V25.93c0-2.92-.22-4.65-.67-5.2-.45-.55-2-.9-4.63-1.07h-.61v-2h12.22v42.19c0 2.9.22 4.63.69 5.18.47.55 2 .92 4.61 1.09h.61v2h-12.22zm0-28.33a19.7 19.7 0 0 0-4.86-2.78 13.13 13.13 0 0 0-4.72-.91 7.27 7.27 0 0 0-6.59 3.44c-1.453 2.32-2.18 5.813-2.18 10.48 0 4.953.707 8.66 2.12 11.12a6.9 6.9 0 0 0 6.38 3.71 10.83 10.83 0 0 0 5.34-1.37 14.2 14.2 0 0 0 4.5-4.09l.01-19.6z"/>
        <path fill="#B8292F" d="M200.81 40.75c0 22.506-18.244 40.75-40.75 40.75s-40.75-18.244-40.75-40.75S137.554 0 160.06 0a40.74 40.74 0 0 1 40.75 40.75z"/>
        <path fill="#B9282E" d="M200.62 40.63A40.48 40.48 0 1 1 160.15.16c22.349.006 40.464 18.121 40.47 40.47z"/>
        <path fill="#BA272D" d="M200.42 40.54c0 22.202-17.998 40.2-40.2 40.2s-40.2-17.998-40.2-40.2S138.018.34 160.22.34s40.2 17.998 40.2 40.2z"/>
        <path fill="#BB272D" d="M200.22 40.41A39.92 39.92 0 1 1 160.3.54c22.028 0 39.892 17.842 39.92 39.87z"/>
        <path fill="#BC262C" d="M200.03 40.29A39.65 39.65 0 1 1 160.39.65c21.89.006 39.634 17.75 39.64 39.64z"/>
        <path fill="#BD252B" d="M199.83 40.18A39.37 39.37 0 1 1 160.47.82c21.738 0 39.36 17.622 39.36 39.36z"/>
        <path fill="#BE242A" d="M199.63 40.06A39.09 39.09 0 1 1 160.55.98a39.08 39.08 0 0 1 39.08 39.08z"/>
        <path fill="#BF2329" d="M199.44 39.95c0 21.434-17.376 38.81-38.81 38.81s-38.81-17.376-38.81-38.81 17.376-38.81 38.81-38.81a38.81 38.81 0 0 1 38.81 38.81z"/>
        <path fill="#BF2329" d="M199.24 39.84c0 21.28-17.25 38.53-38.53 38.53s-38.53-17.25-38.53-38.53 17.25-38.53 38.53-38.53 38.53 17.25 38.53 38.53z"/>
        <path fill="#C02228" d="M199.05 39.72A38.26 38.26 0 1 1 160.8 1.47c21.123.006 38.244 17.127 38.25 38.25z"/>
        <path fill="#C12127" d="M198.85 39.61c0 20.987-17.013 38-38 38s-38-17.013-38-38 17.013-38 38-38 38 17.013 38 38z"/>
        <path fill="#C22026" d="M198.65 39.54a37.7 37.7 0 1 1-37.69-37.69 37.69 37.69 0 0 1 37.69 37.69z"/>
        <path fill="#C31F25" d="M198.46 39.38a37.43 37.43 0 1 1-37.42-37.42 37.42 37.42 0 0 1 37.42 37.42z"/>
        <path fill="#C41F25" d="M198.26 39.27a37.15 37.15 0 1 1-37.11-37.14c20.5.017 37.11 16.64 37.11 37.14z"/>
        <path fill="#C51E24" d="M198.07 39.15A36.87 36.87 0 1 1 161.2 2.29c20.359 0 36.864 16.501 36.87 36.86z"/>
        <path fill="#C61D23" d="M197.87 39.04a36.59 36.59 0 1 1-36.58-36.59 36.58 36.58 0 0 1 36.58 36.59z"/>
        <path fill="#C61D23" d="M194.15 35.82c0 16.922-13.718 30.64-30.64 30.64s-30.64-13.718-30.64-30.64 13.718-30.64 30.64-30.64a30.63 30.63 0 0 1 30.64 30.64z"/>
        <path fill="#C61E23" d="M194.02 35.68c0 16.812-13.628 30.44-30.44 30.44s-30.44-13.628-30.44-30.44 13.628-30.44 30.44-30.44a30.43 30.43 0 0 1 30.44 30.44z"/>
        <path fill="#C71F23" d="M193.91 35.54c0 16.696-13.534 30.23-30.23 30.23-16.696 0-30.23-13.534-30.23-30.23 0-16.696 13.534-30.23 30.23-30.23a30.22 30.22 0 0 1 30.23 30.23z"/>
        <path fill="#C72023" d="M193.8 35.4c0 16.569-13.431 30-30 30-16.569 0-30-13.431-30-30 0-16.569 13.431-30 30-30 16.569 0 30 13.431 30 30z"/>
        <path fill="#C82123" d="M193.7 35.26c0 16.468-13.349 29.818-29.817 29.82-16.467.002-29.82-13.346-29.823-29.813-.004-16.468 13.342-29.821 29.81-29.827a29.82 29.82 0 0 1 29.83 29.82z"/>
        <path fill="#C82223" d="M193.59 35.12a29.62 29.62 0 1 1-29.62-29.58c16.345-.006 29.603 13.235 29.62 29.58z"/>
        <path fill="#C92323" d="M193.48 34.98c-.017 16.239-13.191 29.391-29.43 29.38-16.239-.011-29.395-13.181-29.39-29.42.006-16.239 13.171-29.4 29.41-29.4a29.4 29.4 0 0 1 29.41 29.44z"/>
        <path fill="#C92423" d="M193.38 34.84c.006 16.13-13.066 29.213-29.197 29.22-16.13.007-29.214-13.062-29.223-29.193-.01-16.131 13.06-29.216 29.19-29.227a29.2 29.2 0 0 1 29.23 29.2z"/>
        <path fill="#CA2523" d="M193.27 34.71c0 16.016-12.984 29-29 29s-29-12.984-29-29 12.984-29 29-29 29 12.984 29 29z"/>
        <path fill="#CA2623" d="M193.15 34.54c-.006 15.899-12.898 28.784-28.797 28.78-15.899-.004-28.785-12.894-28.783-28.793.002-15.9 12.891-28.787 28.79-28.787a28.78 28.78 0 0 1 28.79 28.8z"/>
        <path fill="#CB2723" d="M193.06 34.43c0 15.79-12.8 28.59-28.59 28.59s-28.59-12.8-28.59-28.59 12.8-28.59 28.59-28.59a28.58 28.58 0 0 1 28.59 28.59z"/>
        <path fill="#CB2823" d="M192.95 34.29c0 15.674-12.706 28.38-28.38 28.38s-28.38-12.706-28.38-28.38 12.706-28.38 28.38-28.38a28.37 28.37 0 0 1 28.38 28.38z"/>
        <path fill="#CB2923" d="M192.84 34.15a28.18 28.18 0 1 1-28.17-28.18 28.17 28.17 0 0 1 28.17 28.18z"/>
        <path fill="#CC2A23" d="M192.74 34.01c0 15.464-12.536 28-28 28s-28-12.536-28-28 12.536-28 28-28 28 12.536 28 28z"/>
        <path fill="#CC2B23" d="M192.63 33.87a27.77 27.77 0 1 1-27.77-27.76 27.76 27.76 0 0 1 27.77 27.76z"/>
        <path fill="#CD2C23" d="M192.52 33.73c0 15.221-12.339 27.56-27.56 27.56-15.221 0-27.56-12.339-27.56-27.56 0-15.221 12.339-27.56 27.56-27.56a27.55 27.55 0 0 1 27.56 27.56z"/>
        <path fill="#CD2D23" d="M192.42 33.59a27.36 27.36 0 1 1-27.36-27.35 27.35 27.35 0 0 1 27.36 27.35z"/>
        <path fill="#CE2E22" d="M192.31 33.45c0 14.993-12.153 27.148-27.147 27.15-14.993.002-27.15-12.15-27.153-27.143-.004-14.994 12.147-27.151 27.14-27.157a27.14 27.14 0 0 1 27.16 27.15z"/>
        <path fill="#CE2F22" d="M192.2 33.32c-.006 14.877-12.07 26.934-26.947 26.93-14.877-.004-26.935-12.066-26.933-26.943.002-14.878 12.063-26.937 26.94-26.937a26.94 26.94 0 0 1 26.94 26.95z"/>
        <path fill="#CF3022" d="M192.15 33.18c0 14.768-11.972 26.74-26.74 26.74-14.768 0-26.74-11.972-26.74-26.74 0-14.768 11.972-26.74 26.74-26.74a26.73 26.73 0 0 1 26.74 26.74z"/>
        <path fill="#CF3122" d="M191.99 33.04a26.53 26.53 0 1 1-26.53-26.5c14.64 0 26.513 11.86 26.53 26.5z"/>
        <path fill="#D03222" d="M191.88 32.9c-.017 14.539-11.814 26.313-26.353 26.3-14.54-.013-26.316-11.808-26.307-26.347.01-14.539 11.8-26.319 26.34-26.313a26.32 26.32 0 0 1 26.32 26.36z"/>
        <path fill="#D03322" d="M191.78 32.76c0 14.424-11.692 26.118-26.117 26.12-14.424.002-26.12-11.689-26.123-26.113-.004-14.425 11.686-26.121 26.11-26.127a26.12 26.12 0 0 1 26.13 26.12z"/>
        <path fill="#D03422" d="M191.67 32.62c0 14.315-11.605 25.92-25.92 25.92-14.315 0-25.92-11.605-25.92-25.92 0-14.315 11.605-25.92 25.92-25.92a25.91 25.91 0 0 1 25.92 25.92z"/>
        <path fill="#D13522" d="M191.56 32.48c0 14.2-11.51 25.71-25.71 25.71-14.2 0-25.71-11.51-25.71-25.71 0-14.2 11.51-25.71 25.71-25.71a25.7 25.7 0 0 1 25.71 25.71z"/>
        <path fill="#D13622" d="M191.46 32.34a25.51 25.51 0 1 1-25.51-25.5 25.5 25.5 0 0 1 25.51 25.5z"/>
        <path fill="#D23722" d="M191.35 32.2c0 13.973-11.327 25.3-25.3 25.3s-25.3-11.327-25.3-25.3 11.327-25.3 25.3-25.3a25.29 25.29 0 0 1 25.3 25.3z"/>
        <path fill="#D23822" d="M191.24 32.06c0 13.857-11.233 25.09-25.09 25.09s-25.09-11.233-25.09-25.09 11.233-25.09 25.09-25.09a25.09 25.09 0 0 1 25.09 25.09z"/>
        <path fill="#D33922" d="M191.15 31.93c0 13.745-11.142 24.888-24.887 24.89-13.745.002-24.89-11.138-24.893-24.883-.004-13.745 11.135-24.891 24.88-24.897a24.88 24.88 0 0 1 24.9 24.89z"/>
        <path fill="#D33A22" d="M191.03 31.79c-.006 13.63-11.058 24.674-24.687 24.67-13.629-.004-24.675-11.054-24.673-24.683.002-13.63 11.05-24.677 24.68-24.677a24.68 24.68 0 0 1 24.68 24.69z"/>
        <path fill="#D43B22" d="M190.93 31.65c0 13.52-10.96 24.48-24.48 24.48s-24.48-10.96-24.48-24.48 10.96-24.48 24.48-24.48a24.47 24.47 0 0 1 24.48 24.48z"/>
        <path fill="#D43C22" d="M190.82 31.54c0 13.41-10.87 24.28-24.28 24.28-13.41 0-24.28-10.87-24.28-24.28 0-13.41 10.87-24.28 24.28-24.28a24.27 24.27 0 0 1 24.28 24.28z"/>
        <path fill="#D53D22" d="M190.71 31.37c0 13.293-10.777 24.07-24.07 24.07-13.293 0-24.07-10.777-24.07-24.07 0-13.293 10.777-24.07 24.07-24.07a24.06 24.06 0 0 1 24.07 24.07z"/>
        <path fill="#D53E22" d="M190.61 31.23a23.87 23.87 0 1 1-23.87-23.86c13.18 0 23.864 10.68 23.87 23.86z"/>
        <path fill="#D53F22" d="M190.5 31.09a23.66 23.66 0 1 1-23.66-23.66c13.067 0 23.66 10.593 23.66 23.66z"/>
        <path fill="#D64022" d="M190.39 30.95a23.45 23.45 0 1 1-23.45-23.41c12.938-.006 23.433 10.472 23.45 23.41z"/>
        <path fill="#D64122" d="M190.29 30.81c-.011 12.838-10.425 23.237-23.263 23.23-12.838-.007-23.24-10.419-23.237-23.257.004-12.838 10.412-23.243 23.25-23.243a23.25 23.25 0 0 1 23.25 23.27z"/>
        <path fill="#D74222" d="M190.15 30.67c0 12.703-10.297 23-23 23s-23-10.297-23-23 10.297-23 23-23 23 10.297 23 23z"/>
        <path fill="#D74322" d="M190.07 30.54A22.84 22.84 0 1 1 167.24 7.7a22.83 22.83 0 0 1 22.83 22.84z"/>
        <path fill="#D84422" d="M189.97 30.4c0 12.498-10.132 22.63-22.63 22.63s-22.63-10.132-22.63-22.63 10.132-22.63 22.63-22.63a22.62 22.62 0 0 1 22.63 22.63z"/>
        <path fill="#D84522" d="M189.86 30.26c0 12.388-10.042 22.43-22.43 22.43S145 42.648 145 30.26s10.042-22.43 22.43-22.43a22.42 22.42 0 0 1 22.43 22.43z"/>
        <path fill="#D94622" d="M189.75 30.12c0 12.272-9.948 22.22-22.22 22.22-12.272 0-22.22-9.948-22.22-22.22 0-12.272 9.948-22.22 22.22-22.22a22.21 22.21 0 0 1 22.22 22.22z"/>
        <path fill="#D94722" d="M189.65 29.98c0 12.15-9.85 22-22 22s-22-9.85-22-22 9.85-22 22-22 22 9.85 22 22z"/>
        <path fill="#DA4822" d="M189.54 29.84a21.81 21.81 0 1 1-21.81-21.81 21.8 21.8 0 0 1 21.81 21.81z"/>
        <path fill="#DA4922" d="M189.43 29.7c0 11.93-9.67 21.6-21.6 21.6-11.93 0-21.6-9.67-21.6-21.6 0-11.93 9.67-21.6 21.6-21.6 11.93 0 21.6 9.67 21.6 21.6z"/>
        <path fill="#DA4A22" d="M189.33 29.54c0 11.819-9.581 21.4-21.4 21.4-11.819 0-21.4-9.581-21.4-21.4 0-11.819 9.581-21.4 21.4-21.4a21.4 21.4 0 0 1 21.4 21.4z"/>
        <path fill="#DB4B22" d="M189.22 29.42c0 11.703-9.487 21.19-21.19 21.19-11.703 0-21.19-9.487-21.19-21.19 0-11.703 9.487-21.19 21.19-21.19a21.19 21.19 0 0 1 21.19 21.19z"/>
        <path fill="#DB4C22" d="M189.15 29.28c0 11.598-9.402 21-21 21s-21-9.402-21-21 9.402-21 21-21 21 9.402 21 21z"/>
        <path fill="#DC4D22" d="M189.01 29.15c-.006 11.475-9.311 20.774-20.787 20.77-11.475-.004-20.775-9.308-20.773-20.783.002-11.476 9.305-20.777 20.78-20.777a20.78 20.78 0 0 1 20.78 20.79z"/>
        <path fill="#DC4E22" d="M188.9 29.01c0 11.366-9.214 20.58-20.58 20.58-11.366 0-20.58-9.214-20.58-20.58 0-11.366 9.214-20.58 20.58-20.58a20.57 20.57 0 0 1 20.58 20.58z"/>
        <path fill="#DD4F22" d="M188.79 28.87a20.37 20.37 0 1 1-20.37-20.33c11.237-.006 20.353 9.093 20.37 20.33z"/>
        <path fill="#DD4F21" d="M188.69 28.73c-.011 11.137-9.046 20.157-20.183 20.15-11.137-.007-20.16-9.04-20.157-20.177.004-11.137 9.033-20.163 20.17-20.163a20.16 20.16 0 0 1 20.17 20.19z"/>
        <path fill="#DE5021" d="M188.58 28.59c0 11.046-8.954 20-20 20s-20-8.954-20-20 8.954-20 20-20 20 8.954 20 20z"/>
        <path fill="#DE5121" d="M188.47 28.45c0 10.908-8.842 19.75-19.75 19.75s-19.75-8.842-19.75-19.75S157.812 8.7 168.72 8.7s19.75 8.842 19.75 19.75z"/>
        <path fill="#DF5221" d="M188.37 28.31c0 10.797-8.753 19.55-19.55 19.55s-19.55-8.753-19.55-19.55 8.753-19.55 19.55-19.55 19.55 8.753 19.55 19.55z"/>
        <path fill="#DF5321" d="M188.26 28.17a19.34 19.34 0 1 1-19.34-19.34c10.681 0 19.34 8.659 19.34 19.34z"/>
        <path fill="#E05421" d="M188.15 28.03a19.14 19.14 0 1 1-19.13-19.14 19.13 19.13 0 0 1 19.13 19.14z"/>
        <path fill="#E05521" d="M188.05 27.89a18.93 18.93 0 1 1-18.9-18.93c10.44.022 18.895 8.49 18.9 18.93z"/>
        <path fill="#E05621" d="M187.94 27.76c0 10.344-8.386 18.73-18.73 18.73-10.344 0-18.73-8.386-18.73-18.73 0-10.344 8.386-18.73 18.73-18.73a18.72 18.72 0 0 1 18.73 18.73z"/>
        <path fill="#E15721" d="M187.83 27.62c-.006 10.227-8.3 18.514-18.527 18.51-10.227-.004-18.515-8.296-18.513-18.523.002-10.227 8.293-18.517 18.52-18.517a18.52 18.52 0 0 1 18.52 18.53z"/>
        <path fill="#E15821" d="M187.73 27.48c0 10.118-8.202 18.32-18.32 18.32s-18.32-8.202-18.32-18.32 8.202-18.32 18.32-18.32 18.32 8.202 18.32 18.32z"/>
        <path fill="#E25921" d="M187.62 27.34c0 10.002-8.108 18.11-18.11 18.11-10.002 0-18.11-8.108-18.11-18.11 0-10.002 8.108-18.11 18.11-18.11 10.002 0 18.11 8.108 18.11 18.11z"/>
        <path fill="#E25A21" d="M187.51 27.2c-.006 9.885-8.022 17.894-17.907 17.89-9.884-.004-17.895-8.019-17.893-17.903.002-9.885 8.015-17.897 17.9-17.897a17.89 17.89 0 0 1 17.9 17.91z"/>
        <path fill="#E35B21" d="M187.41 27.06c0 9.775-7.925 17.7-17.7 17.7-9.775 0-17.7-7.925-17.7-17.7 0-9.775 7.925-17.7 17.7-17.7a17.69 17.69 0 0 1 17.7 17.7z"/>
        <path fill="#E35C21" d="M187.3 26.92c0 9.66-7.83 17.49-17.49 17.49-9.66 0-17.49-7.83-17.49-17.49 0-9.66 7.83-17.49 17.49-17.49 9.66 0 17.49 7.83 17.49 17.49z"/>
        <path fill="#E45D21" d="M187.15 26.78a17.29 17.29 0 1 1-17.24-17.24c9.512.022 17.218 7.728 17.24 17.24z"/>
        <path fill="#E45E21" d="M187.09 26.64c-.006 9.437-7.66 17.084-17.097 17.08-9.437-.004-17.085-7.656-17.083-17.093.002-9.438 7.653-17.087 17.09-17.087a17.09 17.09 0 0 1 17.09 17.1z"/>
        <path fill="#E55F21" d="M186.98 26.54a16.88 16.88 0 1 1-16.83-16.91 16.87 16.87 0 0 1 16.83 16.91z"/>
        <path fill="#E56021" d="M186.87 26.37c-.006 9.205-7.471 16.664-16.677 16.66-9.205-.004-16.665-7.468-16.663-16.673.002-9.206 7.465-16.667 16.67-16.667a16.67 16.67 0 0 1 16.67 16.68z"/>
        <path fill="#E56121" d="M186.77 26.23c0 9.096-7.374 16.47-16.47 16.47s-16.47-7.374-16.47-16.47 7.374-16.47 16.47-16.47a16.46 16.46 0 0 1 16.47 16.47z"/>
        <path fill="#E66221" d="M186.66 26.09c-.006 8.979-7.288 16.254-16.267 16.25-8.979-.004-16.255-7.284-16.253-16.263.002-8.98 7.281-16.257 16.26-16.257a16.26 16.26 0 0 1 16.26 16.27z"/>
        <path fill="#E66321" d="M186.55 25.95a16.05 16.05 0 1 1-16-16.06 16 16 0 0 1 16 16.06z"/>
        <path fill="#E76421" d="M186.45 25.81c0 8.754-7.096 15.85-15.85 15.85s-15.85-7.096-15.85-15.85 7.096-15.85 15.85-15.85 15.85 7.096 15.85 15.85z"/>
        <path fill="#E76521" d="M186.34 25.67a15.65 15.65 0 1 1-15.64-15.65c8.64.006 15.64 7.01 15.64 15.65z"/>
        <path fill="#E86621" d="M186.23 25.54A15.44 15.44 0 1 1 170.8 10.1a15.43 15.43 0 0 1 15.43 15.44z"/>
        <path fill="#E86721" d="M186.15 25.39a15.24 15.24 0 1 1-15.24-15.23c8.413 0 15.234 6.817 15.24 15.23z"/>
        <path fill="#E96821" d="M186.02 25.25c0 8.284-6.716 15-15 15-8.284 0-15-6.716-15-15 0-8.284 6.716-15 15-15 8.284 0 15 6.716 15 15z"/>
        <path fill="#E96921" d="M185.91 25.11c0 8.185-6.635 14.82-14.82 14.82s-14.82-6.635-14.82-14.82 6.635-14.82 14.82-14.82 14.82 6.635 14.82 14.82z"/>
        <path fill="#EA6A21" d="M185.81 24.98c0 8.07-6.538 14.613-14.607 14.62-8.069.007-14.618-6.524-14.633-14.593-.015-8.07 6.51-14.625 14.58-14.647a14.61 14.61 0 0 1 14.66 14.62z"/>
        <path fill="#EA6B21" d="M185.7 24.84c-.006 7.957-6.46 14.404-14.417 14.4-7.957-.004-14.405-6.456-14.403-14.413.002-7.957 6.453-14.407 14.41-14.407a14.41 14.41 0 0 1 14.41 14.42z"/>
        <path fill="#EA6C21" d="M185.6 24.7a14.21 14.21 0 1 1-14.21-14.16c7.828 0 14.182 6.332 14.21 14.16z"/>
        <path fill="#EB6D21" d="M185.49 24.54c0 7.732-6.268 14-14 14s-14-6.268-14-14 6.268-14 14-14 14 6.268 14 14z"/>
        <path fill="#EB6E21" d="M185.38 24.42a13.8 13.8 0 1 1-13.79-13.8 13.79 13.79 0 0 1 13.79 13.8z"/>
        <path fill="#EC6F21" d="M185.28 24.28c0 7.506-6.084 13.59-13.59 13.59s-13.59-6.084-13.59-13.59 6.084-13.59 13.59-13.59a13.59 13.59 0 0 1 13.59 13.59z"/>
        <path fill="#EC7021" d="M185.15 24.14a13.39 13.39 0 1 1-13.39-13.39c7.395 0 13.39 5.995 13.39 13.39z"/>
        <path fill="#ED7120" d="M185.06 24c0 7.28-5.9 13.18-13.18 13.18-7.28 0-13.18-5.9-13.18-13.18 0-7.28 5.9-13.18 13.18-13.18 7.28 0 13.18 5.9 13.18 13.18z"/>
        <path fill="#ED7220" d="M184.96 23.86c0 7.18-5.82 13-13 13s-13-5.82-13-13 5.82-13 13-13 13 5.82 13 13z"/>
        <path fill="#EE7320" d="M184.85 23.73c-.006 7.051-5.725 12.764-12.777 12.76-7.051-.004-12.765-5.722-12.763-12.773.002-7.052 5.719-12.767 12.77-12.767a12.76 12.76 0 0 1 12.77 12.78z"/>
        <path fill="#EE7420" d="M184.74 23.59c-.006 6.931-5.625 12.548-12.557 12.55-6.931.002-12.554-5.612-12.563-12.543-.01-6.932 5.599-12.56 12.53-12.577a12.56 12.56 0 0 1 12.59 12.57z"/>
        <path fill="#EF7520" d="M184.64 23.45c0 6.826-5.534 12.36-12.36 12.36s-12.36-5.534-12.36-12.36 5.534-12.36 12.36-12.36 12.36 5.534 12.36 12.36z"/>
        <path fill="#EF7620" d="M184.53 23.31c-.006 6.709-5.448 12.144-12.157 12.14-6.709-.004-12.145-5.444-12.143-12.153.002-6.71 5.441-12.147 12.15-12.147a12.15 12.15 0 0 1 12.15 12.16z"/>
        <path fill="#EF7720" d="M184.42 23.17a11.95 11.95 0 1 1-11.94-11.95 11.94 11.94 0 0 1 11.94 11.95z"/>
        <path fill="#F07820" d="M184.32 23.03c0 6.484-5.256 11.74-11.74 11.74s-11.74-5.256-11.74-11.74 5.256-11.74 11.74-11.74 11.74 5.256 11.74 11.74z"/>
        <path fill="#F07920" d="M184.21 22.89c0 6.373-5.167 11.54-11.54 11.54-6.373 0-11.54-5.167-11.54-11.54 0-6.373 5.167-11.54 11.54-11.54 6.373 0 11.54 5.167 11.54 11.54z"/>
        <path fill="#F17A20" d="M184.15 22.75c0 6.257-5.073 11.33-11.33 11.33s-11.33-5.073-11.33-11.33 5.073-11.33 11.33-11.33a11.33 11.33 0 0 1 11.33 11.33z"/>
        <path fill="#F17B20" d="M184 22.61a11.13 11.13 0 1 1-11.13-11.07c6.124 0 11.097 4.947 11.13 11.07z"/>
        <path fill="#F27C20" d="M183.89 22.47c-.006 6.03-4.897 10.914-10.927 10.91-6.03-.004-10.915-4.894-10.913-10.923.002-6.03 4.89-10.917 10.92-10.917a10.92 10.92 0 0 1 10.92 10.93z"/>
        <path fill="#F27D20" d="M183.78 22.34c-.006 5.914-4.803 10.704-10.717 10.7-5.913-.004-10.705-4.8-10.703-10.713.002-5.914 4.796-10.707 10.71-10.707a10.71 10.71 0 0 1 10.71 10.72z"/>
        <path fill="#F37E20" d="M183.68 22.2c-.006 5.8-4.71 10.5-10.51 10.5s-10.504-4.7-10.51-10.5c-.006-5.8 4.69-10.509 10.49-10.52a10.52 10.52 0 0 1 10.53 10.52z"/>
        <path fill="#F37F20" d="M183.57 22.06c-.006 5.687-4.62 10.294-10.307 10.29-5.687-.004-10.295-4.616-10.293-10.303.002-5.688 4.613-10.297 10.3-10.297a10.3 10.3 0 0 1 10.3 10.31z"/>
        <path fill="#F48020" d="M183.46 21.92a10.1 10.1 0 1 1-10.09-10.1c5.574.006 10.09 4.526 10.09 10.1z"/>
        <path fill="#F48120" d="M183.36 21.78a9.9 9.9 0 1 1-9.89-9.9 9.89 9.89 0 0 1 9.89 9.9z"/>
        <path fill="#FFF" d="M185.05 43.17c-7.52 7.52-7.73-6.34-16.41-15s-22.53-8.89-15-16.41c7.53-7.52 20.66-6.58 29.33 2.1 8.67 8.68 9.6 21.78 2.08 29.31z" opacity=".4" style="mix-blend-mode:screen"/>
        <path fill="#FFF" d="M152.54 43.48v14.75c0 3.36.26 5.38.77 6.08.51.7 2.05 1.12 4.59 1.3h.72v2.34h-21v-2.31h.72c3.027-.207 4.823-.64 5.39-1.3.56-.67.85-2.69.85-6.08V22.09c0-3.39-.29-5.42-.85-6.07-.56-.65-2.36-1.07-5.39-1.27l-.72-.07v-2.35h13.33l6.74-.17 3-.08c11.467 0 17.2 4.667 17.2 14 0 7.78-3.763 12.98-11.29 15.6l10.73 16.45a55 55 0 0 0 4.69 6.2 4.38 4.38 0 0 0 2.87 1.1c.34 0 1.18.09 2.51.15h.75v2.34h-14.17l-15-24.5-6.44.06zm.13-2.53h2.73c9.66 0 14.49-4.647 14.49-13.94 0-4.413-.907-7.54-2.72-9.38-1.813-1.84-4.9-2.76-9.26-2.76h-5.24v26.08z"/>
    </g>
<script xmlns=""/></svg>