<svg version="1.1"
    xmlns="http://www.w3.org/2000/svg" role="img" viewBox="89 275 400 48">
    <title id="wsLogo">Windsor Star</title>
    <polygon points="144.95 278.54 147.55 278.54 147.55 319.19 144.74 319.19 144.74 321.11 157.93 321.11 157.93 319.19 155.15 319.19 155.15 278.54 157.93 278.54 157.93 276.61 144.95 276.61"></polygon>
    <path d="m186.32 278.51l0.44 0.02c2.15 0.14 2.19 0.38 2.6 0.81 0.54 0.51 0.74 1.68 0.74 3.76v23.02l-18.94-29.52h-11.19v1.93h2.86l0.7 0.88v35.14c0.01 1.98-0.14 3.1-0.62 3.65-0.46 0.57-1.01 1.04-2.51 1.04l-0.43 0.03v1.83h9.44v-1.84l-0.44-0.02c-1.56 0-1.81-0.18-2.4-0.75-0.6-0.53-0.81-1.78-0.81-3.82v-32.03l24.72 38.77h1.85v-38.25c-0.01-1.97 0.22-3.04 0.78-3.6 0.54-0.58 0.83-0.95 2.21-1.03l0.43-0.03v-1.89h-9.43v1.9z"></path>
    <path d="m116.33 278.54h2.42c0.99 0 1.68 0.12 2.04 0.34 0.35 0.22 0.49 0.44 0.51 1.03 0 0.44-0.13 1.07-0.39 1.87l-1.69 5.2-2.89-8.44zm26.25-1.93h-9.86v1.89l0.43 0.03c1.43 0.09 1.83 0.16 2.48 0.37 0.64 0.25 0.77 0.38 0.82 1.02 0 0.37-0.11 0.9-0.34 1.59l-9.47 28.49-6.42-19.7 2.61-7.74c0.59-1.77 1.03-2.7 1.75-3.2 0.72-0.52 1.94-0.74 4.2-0.83l0.45-0.02v-1.91h-23.6v1.93h2.67l6.69 19.73-3.94 11.75-10.34-31.49h2.77v-1.93h-13.73v1.93h2.72l15.14 44.08 1.49-0.33 6.97-20.76 7.19 21.09 1.49-0.33 13.25-39.7c0.58-1.74 1.01-2.67 1.73-3.18 0.56-0.42 1.42-0.75 3.29-0.87v-1.91h-0.44z"></path>
    <path d="m294.55 315.53c-2.15 3.14-5.13 4.26-8.85 4.27-3.69-0.01-6.67-1.12-8.83-4.25-2.16-3.14-3.46-8.41-3.46-16.73 0-8.25 1.31-13.52 3.48-16.68 2.17-3.15 5.15-4.28 8.8-4.29 3.72 0.01 6.69 1.15 8.85 4.29 2.15 3.15 3.44 8.43 3.44 16.68 0.01 8.29-1.27 13.57-3.43 16.71m5.01-33.96c-3.89-3.87-8.98-5.83-13.8-5.83-4.85 0-9.95 1.98-13.85 5.85-3.9 3.88-6.57 9.67-6.57 17.24s2.67 13.36 6.56 17.23c3.89 3.88 8.98 5.85 13.8 5.85 4.85 0 9.95-1.98 13.85-5.85 3.9-3.88 6.57-9.67 6.57-17.23 0.01-7.6-2.67-13.39-6.56-17.26"></path>
    <path d="m222.97 314.25c-2.21 3.29-5.71 4.92-11.3 4.93h-3.19v-40.64h3.19c5.59 0.01 9.09 1.61 11.3 4.88 2.22 3.28 3.11 8.39 3.11 15.41 0.01 6.99-0.89 12.11-3.11 15.42m-10.08-37.64h-15.32v1.93h2.75v40.64h-2.75v1.93h15.22c6.45 0 11.61-2.31 15.13-6.27s5.39-9.52 5.39-16.01c0-6.46-1.86-12.02-5.36-15.97-3.49-3.94-8.64-6.25-15.06-6.25"></path>
    <path d="m252.29 293.85c-4.81-1.18-8.58-1.72-9.99-2.57-1.65-0.95-2.89-2.47-2.9-5.58 0.04-4.67 2.71-7.91 7.93-7.94 6.08 0.03 10.22 4.08 11.25 12.42l0.05 0.41h1.65v-13.76h-1.7v0.47c0 0.83-0.12 1.31-0.25 1.5-0.13 0.18-0.2 0.21-0.48 0.22h-0.13c-0.02 0.02-0.46-0.18-1-0.51-1.68-0.99-4.87-2.98-9.15-2.98-3.55 0-6.58 1.3-8.72 3.64-2.13 2.34-3.34 5.7-3.34 9.78 0 3.8 0.88 6.59 2.76 8.6s4.67 3.18 8.39 3.94c4.62 0.93 7.92 1.63 9.95 3.5 1.62 1.53 2.38 3.44 2.39 5.63-0.02 5.37-3.72 9.16-9.41 9.19-6.71-0.02-11.76-5.06-12.37-14.82l-0.03-0.44h-1.73v16.56h1.74l0.02-0.45c0.1-1.53 0.56-1.78 1.01-1.8 0.68-0.03 2.15 0.73 4.07 1.52 1.93 0.79 4.4 1.59 7.35 1.59h0.01c3.98 0 7.33-1.47 9.66-4.06 2.33-2.6 3.63-6.28 3.63-10.66 0.04-7.36-3.42-11.61-10.66-13.4"></path>
    <path d="m318.73 297h-1.07v-18.46h3.25c3.43 0 5.65 0.72 7.03 2.18 1.38 1.45 2.01 3.78 2.01 7.18 0 3.21-0.68 5.43-2.34 6.88s-4.47 2.22-8.88 2.22m23.6 20.28l-0.31 0.42c-0.58 0.79-1.59 1.45-2.28 1.43-1.39-0.04-1.97-0.61-2.49-2.31-0.48-1.69-0.65-4.37-0.88-8.01-0.34-5.61-3.32-9.32-9.02-10.89 6.38-1.3 10.72-5.01 10.73-10.52 0.01-3.48-1.41-6.25-4.05-8.06-2.64-1.82-6.45-2.72-11.29-2.72h-19.09v1.93h6.23v40.65h-2.73v1.93h13.17v-1.93h-2.83v-20.26h1.31c3.52 0 5.6 0.4 6.82 1.39 1.23 0.97 1.81 2.64 2.16 5.47 0.6 4.94 0.44 9.04 1.81 11.89 1.57 3.24 4.68 3.87 7.3 3.87h0.09c3.14 0 5.24-1.31 6.38-2.72l0.27-0.34-1.3-1.22z"></path>
    <path d="m375.1 293.83c-4.81-1.18-8.59-1.72-10.01-2.57-1.66-0.95-2.89-2.47-2.91-5.58 0.04-4.67 2.72-7.92 7.94-7.95 6.09 0.03 10.23 4.08 11.26 12.43l0.05 0.69h1.65v-14.23h-1.7v0.64c0.01 0.83-0.12 1.31-0.25 1.5-0.13 0.18-0.2 0.21-0.48 0.22-0.04 0-0.08 0-0.13-0.01-0.02 0.02-0.46-0.18-1-0.51-1.68-0.98-4.88-2.98-9.16-2.98-3.54 0-6.59 1.29-8.72 3.64-2.14 2.35-3.35 5.71-3.35 9.79 0 3.8 0.88 6.6 2.76 8.61s4.67 3.18 8.39 3.94c4.63 0.93 7.93 1.63 9.96 3.5 1.62 1.53 2.39 3.44 2.4 5.64-0.02 5.38-3.72 9.17-9.42 9.2-6.71-0.02-11.77-5.06-12.38-14.83l-0.03-0.44h-1.73v16.58h1.74l0.02-0.45c0.1-1.53 0.56-1.78 1.01-1.79 0.68-0.03 2.16 0.73 4.07 1.52 1.94 0.79 4.4 1.59 7.36 1.59h0.01c3.98 0 7.34-1.47 9.67-4.07 2.33-2.59 3.63-6.28 3.63-10.67 0.05-7.37-3.41-11.62-10.65-13.41"></path>
    <path d="m407.41 278.54h1.25c5.09 0.02 6.91 1.06 8.37 2.87 1.21 1.61 2.5 5.16 2.5 8.97v0.47h1.82v-14.23h-35.59v14.23h1.82v-0.47c-0.01-3.55 1.29-7.37 2.51-8.98 1.37-1.72 3.52-2.85 8.6-2.86h1.13v40.64h-2.69v1.93h13.1v-1.93h-2.8v-40.64z"></path>
    <path d="m486.75 317.27l-0.31 0.42c-0.58 0.79-1.58 1.45-2.28 1.43-1.39-0.04-1.97-0.61-2.49-2.31-0.48-1.69-0.65-4.37-0.88-8-0.34-5.61-3.32-9.32-9.01-10.89 6.37-1.29 10.72-5.01 10.73-10.52 0.01-3.48-1.41-6.25-4.05-8.06-2.64-1.82-6.45-2.72-11.29-2.72h-19.09v1.93h6.22v40.65h-5.92l-13.17-43.07h-2.87l-12.98 39.41c-0.41 1.43-0.81 2.34-1.37 2.87-0.55 0.52-1.31 0.78-2.67 0.79h-0.91v1.93h9.96v-1.91l-0.45-0.02c-1.48-0.05-1.42-0.09-2.05-0.27-0.63-0.22-0.7-0.29-0.75-0.83 0-0.25 0.06-0.6 0.19-1.04l3.14-9.92h12.42l3.67 12.06h-2.81v1.93h26.99v-1.93h-2.83v-20.26h1.31c3.52 0 5.6 0.4 6.82 1.39 1.23 0.97 1.81 2.64 2.16 5.48 0.6 4.94 0.45 9.04 1.82 11.89 1.57 3.24 4.68 3.86 7.3 3.86h0.08c3.15 0 5.24-1.31 6.38-2.72l0.27-0.33-1.28-1.24zm-61.53-12.44l5.72-17.83 5.24 17.83h-10.96zm37.93-7.84h-1.07v-18.46h3.26c3.43 0 5.65 0.72 7.02 2.18 1.38 1.45 2.01 3.77 2.01 7.18 0 3.21-0.68 5.43-2.34 6.88-1.66 1.46-4.46 2.23-8.88 2.22z"></path>
</svg>