<svg width="142" height="90" viewBox="0 0 142 90" fill="none"
    xmlns="http://www.w3.org/2000/svg">
    <path fill-rule="evenodd" clip-rule="evenodd" d="M96.8153 0C72.066 0 52 20.1073 52 44.916C52 69.7245 72.0593 89.8384 96.8153 89.8384C121.559 89.8384 141.624 69.7245 141.624 44.916C141.624 20.1138 121.559 0 96.8153 0ZM92.6565 67.2983C92.6565 67.8308 92.3613 68.1333 91.83 68.1333H85.9657C85.4344 68.1333 85.1392 67.8374 85.1392 67.2983V50.6759C85.1392 50.1432 84.844 49.8474 84.3126 49.8474H74.657C74.2437 49.8474 73.9486 49.7291 73.6468 49.4332L70.8065 46.5861C70.5113 46.2902 70.3932 45.9943 70.3932 45.58V23.8355C70.3932 23.3029 70.6884 23.0004 71.2198 23.0004H77.143C77.681 23.0004 77.9761 23.2963 77.9761 23.8355V41.0562C77.9761 41.4705 78.0941 41.7663 78.3894 42.0688L78.4483 42.128C78.7436 42.4239 79.0387 42.5422 79.452 42.5422H84.3126C84.8506 42.5422 85.1392 42.2463 85.1392 41.7138V23.8355C85.1392 23.3029 85.4344 23.0004 85.9657 23.0004H91.83C92.3613 23.0004 92.6565 23.2963 92.6565 23.8355V67.2983ZM119.911 45.3301C119.911 45.7444 119.793 46.0403 119.499 46.3362L116.658 49.1833C116.363 49.4792 116.068 49.5976 115.655 49.5976H106.419C106.005 49.5976 105.704 49.7159 105.415 50.0117L105.356 50.0709C105.061 50.3668 104.943 50.6627 104.943 51.077V59.9274C104.943 60.4599 105.238 60.7558 105.776 60.7558H111.699C112.23 60.7558 112.526 60.4599 112.526 59.9274V57.2579C112.526 56.7187 112.821 56.4227 113.352 56.4227H119.098C119.636 56.4227 119.925 56.7187 119.925 57.2579V67.2983C119.925 67.8308 119.63 68.1333 119.098 68.1333H98.2912C97.7599 68.1333 97.4647 67.8374 97.4647 67.2983V46.5795C97.4647 46.1652 97.5828 45.8693 97.8779 45.5734L100.718 42.7264C101.02 42.4304 101.315 42.3121 101.728 42.3121H111.03C111.443 42.3121 111.738 42.1937 112.034 41.8979L112.093 41.8386C112.388 41.5428 112.506 41.2469 112.506 40.8326V31.8639C112.506 31.4496 112.388 31.1538 112.093 30.8579L112.034 30.7987C111.738 30.5028 111.443 30.3845 111.03 30.3845H106.412C105.999 30.3845 105.697 30.5028 105.408 30.7987L105.349 30.8579C105.054 31.1538 104.936 31.4496 104.936 31.8639V35.191C104.936 35.7236 104.641 36.0195 104.11 36.0195H98.2912C97.7599 36.0195 97.4647 35.7236 97.4647 35.191V27.2941C97.4647 26.8798 97.5828 26.5839 97.8779 26.2881L100.718 23.4344C101.02 23.1386 101.315 23.0201 101.728 23.0201H115.648C116.061 23.0201 116.363 23.1386 116.652 23.4344L119.491 26.2881C119.788 26.5839 119.905 26.8798 119.905 27.2941V45.3301H119.911Z" fill="white"></path>
    <path d="M13.787 27.2815C13.787 27.5912 13.617 27.7654 13.3041 27.7654H9.55704C9.24796 27.7654 9.07797 27.9359 9.07797 28.2495V49.2331C9.07797 49.5429 8.90417 49.7171 8.59514 49.7171H5.19185C4.88281 49.7171 4.71284 49.5429 4.71284 49.2331V28.2495C4.71284 27.9397 4.539 27.7654 4.22997 27.7654H0.482873C0.173834 27.7654 0 27.5912 0 27.2815V24.0094C0 23.6996 0.169971 23.5254 0.482873 23.5254H13.3041C13.6132 23.5254 13.787 23.6996 13.787 24.0094V27.2815Z" fill="white"></path>
    <path d="M19.7006 23.5251C20.0097 23.5251 20.1835 23.6994 20.1835 24.0092V33.864C20.1835 34.1738 20.3535 34.348 20.6625 34.348H24.6182C24.9272 34.348 25.0972 34.1738 25.0972 33.864V24.0092C25.0972 23.6994 25.271 23.5251 25.5801 23.5251H28.9834C29.2925 23.5251 29.4663 23.6994 29.4663 24.0092V49.2328C29.4663 49.5426 29.2925 49.7169 28.9834 49.7169H25.5801C25.271 49.7169 25.0972 49.5426 25.0972 49.2328V39.0682C25.0972 38.7585 24.9272 38.5881 24.6182 38.5881H20.6625C20.3535 38.5881 20.1835 38.7585 20.1835 39.0682V49.2328C20.1835 49.5426 20.0097 49.7169 19.7006 49.7169H16.2973C15.9883 49.7169 15.8184 49.5426 15.8184 49.2328V24.0092C15.8184 23.6994 15.9883 23.5251 16.2973 23.5251H19.7006Z" fill="white"></path>
    <path d="M32.9712 49.7169C32.6622 49.7169 32.4922 49.5426 32.4922 49.2328V24.0092C32.4922 23.6994 32.6622 23.5251 32.9712 23.5251H44.5215C44.8305 23.5251 45.0005 23.6994 45.0005 24.0092V27.2812C45.0005 27.5909 44.8267 27.7652 44.5215 27.7652H37.3364C37.0273 27.7652 36.8573 27.9356 36.8573 28.2492V33.7981C36.8573 34.108 37.0273 34.2783 37.3364 34.2783H42.4239C42.733 34.2783 42.903 34.4525 42.903 34.7623V38.0344C42.903 38.3442 42.733 38.5184 42.4239 38.5184H37.3364C37.0273 38.5184 36.8573 38.6888 36.8573 38.9986V44.9967C36.8573 45.3064 37.0273 45.4806 37.3364 45.4806H44.5215C44.8305 45.4806 45.0005 45.6549 45.0005 45.9647V49.2367C45.0005 49.5465 44.8267 49.7208 44.5215 49.7208H32.9712V49.7169Z" fill="white"></path>
</svg>