<?xml version="1.0" encoding="UTF-8"?>
<!-- Generator: Adobe Illustrator 26.0.0, SVG Export Plug-In . SVG Version: 6.00 Build 0)  -->
<svg version="1.1" id="Layer_1" xmlns="http://www.w3.org/2000/svg" xmlns:xlink="http://www.w3.org/1999/xlink" x="0px" y="0px" viewBox="0 0 841.9 393.4" style="enable-background:new 0 0 841.9 393.4;" xml:space="preserve">
<style type="text/css">
	.st0{fill:#ED1D25;}
</style>
<g>
	<path class="st0" d="M430.4,97.6c0,0,23.8-31.2-10.3-57.6c0,0-14.6-12.9-39.9-14.7c0,0-4.1-0.8-7,3c0,0-2.3,3.3-14.2,4   c0,0-36.6,1.1-61,16.2c0,0-35.4,23.1-29.7,51.5c0,0,5.1,39.5,34.4,60.6c0,0-50.1,47.9-52.7,82.7c0,0-9.9,57.1,39,76.2   c0,0,51.8,25.7,100.2-30.8c0,0,30.2-34.4,16.7-68.3c0,0-10.8-37.8-35-56.7C371,163.8,421.8,115.3,430.4,97.6 M348.6,255.8   c-10.2,31.8-36.2,30.4-36.2,30.4c-12.4,0.1-13.1-12.4-13.1-12.4c-2.6-56.3,31.4-62.7,31.4-62.7c5.8-1.2,10.1,3.3,10.1,3.3   C358.5,233.1,348.6,255.8,348.6,255.8 M372.5,100.3c0,0-22.3,29.8-35.4,30.1c0,0-21.8-9.6-3.5-39.8c0,0,10.2-18,38.4-10.5   C372,80.1,384.5,85.5,372.5,100.3"/>
	<path class="st0" d="M451.7,119.3c0,0-7.3,62.3-9.3,70.1c0,0-13.2,66.5-5.7,72.9c0,0,16.3,14.6,29.8-4.7c0,0,11.3-17.9,17.1-36.5   c0,0,1.2-10.5,13.5-12.4l74.1-19.5c0,0,20.5-4.5,24.2-4.7c0,0,2.1-0.3,4,0.4c1.2,0.5,1.9,0.4,2.6-0.3c2.4-2.1,8.3-8.1,7.3-16.4   c0,0,0.1-15.3-13.9-15.7c0,0-20.4,0.9-33.5,4.3c0,0-17.2,3.6-24.5,5c0,0-35.8,7.7-39.5,7.9c0,0-5.9,0-3.2-7.3   c0,0,3.3-18.1,12.6-23.4c0,0,41.9-20.3,53.8-22.5c0,0,72.5-20.6,78.3-22.4c0,0,11-2.7,12-16.8c0,0,2.1-12.1-31.6-11.3   c0,0-60.4,5.5-86.5,14.8C533.5,80.9,451.9,111.5,451.7,119.3"/>
	<path class="st0" d="M630.9,161.4c0,0-3.5,36-4.3,43.8c0,0-8.2,50.7,10.2,60.1c0,0,12,8.7,24.1,1.8c0.3-0.1,0.5-0.4,0.5-0.7   c0.9-4.4,7.5-37.8,9.3-41c0,0,10.7-46,19-57.6c0,0,22,27.4,36.3,28.4c0,0,13.2,4,26.9-11.7c0,0,16.5-15,17.7-15.9   c0,0,0.2,85.1,7.3,89.8c0,0,13.1,15.5,38.7,2.4c0.4-0.2,0.4-0.4,0.3-0.9c-0.6-5.8-4.4-47.8-3.4-59.8c0,0,0.2-40.3,1.8-50.3   c0,0,1.8-21.9,2.1-28.5c0,0,0.3-19.3-13.4-34.5c0,0-7.1-9.8-14.1-7.6c0,0-4.6,0.9-10.2,13.4c0,0-9.4,17.3-11.8,23.4   c0,0-11.5,23.2-25.3,23.8c0,0-7.2,3.1-13.5-9.4c0,0-11.4-25.7-12.5-39.6c0,0-2.5-16.7-13.2-20.5c0,0-8.5-7.9-18,4   c0,0-21.9,23.8-37.8,75.4c0,0-1.3,9.2-3.9,8.3C643.8,158.2,632,155.6,630.9,161.4"/>
	<path class="st0" d="M213.2,63.3c0,0-34-22.1-105.3-6.4c0,0-47.2,8.7-55.9,57.8c0,0-5.4,34.8,28.5,61.3c0,0,43.4,34.3,95.4,29.6   c1.1-0.2,0.3,0.9,0.3,0.9l-5.4,9c0,0-24.7,45.7-83.4,86.2c0,0-35,28.5-59.6,30.9c-0.6,0-1.2,0.2-1.3,0.5   c-12.2,29,30.6,38.4,47.9,33.6c10.4-1.8,22.3-6.1,35.1-14.6c0,0,57.8-32.8,103.5-97.3c0,0,39.3-49.5,43.6-104.2   C256.6,150.8,265.3,88.5,213.2,63.3 M189.8,161.7c0,0-6.6,5-29.4-0.5c0,0-54.7-9.8-53-27.1c0,0,3.1-28.6,58.9-29.7   c0,0,31.4-0.9,33.8,24.9C200,129.2,206.1,155,189.8,161.7"/>
</g>
<script xmlns=""/></svg>