<?xml version="1.0" encoding="UTF-8"?>
<svg width="118px" height="60px" viewBox="0 0 118 60" version="1.1" xmlns="http://www.w3.org/2000/svg" xmlns:xlink="http://www.w3.org/1999/xlink">
    <!-- Generator: Sketch 53.2 (72643) - https://sketchapp.com -->
    <title>Group 59</title>
    <desc>Created with Sketch.</desc>
    <g id="FINAL-ASSETS" stroke="none" stroke-width="1" fill="none" fill-rule="evenodd">
        <g id="LIVE95" transform="translate(-426.000000, -141.000000)">
            <g id="MENU" transform="translate(0.000000, 130.000000)">
                <g id="Group-59" transform="translate(426.000000, 11.000000)">
                    <path d="M67.0905284,39.390329 L52.8731805,19.2507478 C51.3347956,17.0867398 50.4808574,15.3215354 50.4808574,13.3270189 C50.4808574,9.79611167 53.214656,7.06231306 56.6887338,7.06231306 C60.1633101,7.06231306 62.8971087,9.73928215 62.8971087,13.555334 C62.8971087,17.3713858 60.1059821,19.4217348 56.4035892,19.9910269 L60.5047856,25.8005982 C62.8891326,25.3075773 65.2809571,24.0159521 67.1264207,22.0478564 C65.208674,19.9481555 63.9135593,17.0942173 63.9135593,13.6046859 C63.9135593,10.1021934 65.2046859,7.06031904 67.2804586,4.76321037 C64.707677,1.7886341 60.8452642,0 56.6887338,0 C49.2839482,0 42.8487537,5.58175474 42.8487537,13.499003 C42.8487537,17.998006 44.8991027,21.0164506 48.0312064,25.2881356 L62.652343,45.5882353 L67.0905284,39.390329 Z" id="Fill-1" fill="#D58B82"></path>
                    <path d="M0.536291127,57.8934197 L0.536291127,53.257328 C0.536291127,52.9198405 0.720239282,52.7358923 1.05772682,52.7358923 L1.82392822,52.7358923 C2.16191426,52.7358923 2.34586241,52.9198405 2.34586241,53.257328 L2.34586241,57.4542373 C2.34586241,57.6641077 2.40717846,57.8016949 2.76460618,57.8016949 L4.81994018,57.8016949 C5.15742772,57.8016949 5.34137587,57.9861416 5.34137587,58.3231306 L5.34137587,58.8595214 C5.34137587,59.197009 5.15742772,59.3809571 4.81994018,59.3809571 L2.15643071,59.3809571 C1.0781655,59.3809571 0.536291127,59.0185444 0.536291127,57.8934197" id="Fill-3" fill="#FEFEFE"></path>
                    <path d="M5.82068794,58.8595214 L5.82068794,54.8470588 C5.82068794,54.5095713 6.00463609,54.3261216 6.34212363,54.3261216 L7.11879362,54.3261216 C7.45628116,54.3261216 7.64022931,54.5095713 7.64022931,54.8470588 L7.64022931,58.8595214 C7.64022931,59.197009 7.45628116,59.3809571 7.11879362,59.3809571 L6.34212363,59.3809571 C6.00463609,59.3809571 5.82068794,59.197009 5.82068794,58.8595214 M5.77482552,52.8684945 C5.77482552,52.2957129 6.09187438,51.9532403 6.73594217,51.9532403 C7.37502493,51.9532403 7.68659023,52.2957129 7.68659023,52.8684945 C7.68659023,53.4467597 7.37502493,53.7837488 6.73594217,53.7837488 C6.09187438,53.7837488 5.77482552,53.4467597 5.77482552,52.8684945" id="Fill-5" fill="#FEFEFE"></path>
                    <path d="M16.5957627,56.5797109 L16.5957627,58.8593719 C16.5957627,59.1968594 16.4118146,59.3813061 16.074327,59.3813061 L15.3794118,59.3813061 C15.0414257,59.3813061 14.8574776,59.1968594 14.8574776,58.8593719 L14.8574776,56.5029412 C14.8574776,55.9047358 14.622682,55.645015 14.0808076,55.645015 C13.5389332,55.645015 13.3445165,55.9047358 13.3445165,56.5029412 L13.3445165,58.8593719 C13.3445165,59.1968594 13.1605683,59.3813061 12.8235793,59.3813061 L12.1386341,59.3813061 C11.8011466,59.3813061 11.6171984,59.1968594 11.6171984,58.8593719 L11.6171984,56.5029412 C11.6171984,55.9047358 11.4227817,55.645015 10.8809073,55.645015 C10.3335494,55.645015 10.1037388,55.9047358 10.1037388,56.5029412 L10.1037388,58.8593719 C10.1037388,59.1968594 9.91979063,59.3813061 9.58230309,59.3813061 L8.88738784,59.3813061 C8.5499003,59.3813061 8.36595214,59.1968594 8.36595214,58.8593719 L8.36595214,56.5797109 C8.36595214,54.8165005 9.30613161,54.2332502 10.7323529,54.2332502 C11.6376371,54.2332502 12.1690429,54.4635593 12.4811067,54.8568794 C12.7876869,54.4635593 13.3245763,54.2332502 14.2288634,54.2332502 C15.6550847,54.2332502 16.5957627,54.8165005 16.5957627,56.5797109" id="Fill-7" fill="#FEFEFE"></path>
                    <path d="M20.612014,56.0994516 C20.612014,55.6398305 20.3772183,55.4145065 19.8453141,55.4145065 C19.2725324,55.4145065 18.9814058,55.6807079 18.9200897,56.4728315 L20.336341,56.3347458 C20.5506979,56.3143071 20.612014,56.2629611 20.612014,56.0994516 M21.0621635,57.3671486 L19.0123131,57.5765204 C19.1912762,58.0371386 19.5845962,58.1747258 20.1932702,58.1747258 C20.5098205,58.1747258 20.8881854,58.1238784 21.3278664,58.02667 C21.6907777,57.9449153 21.9101196,58.1084247 21.9101196,58.476321 L21.9101196,58.6657527 C21.9101196,58.972333 21.7675474,59.1712363 21.4659521,59.2485045 C20.8782154,59.3965603 20.3208873,59.47333 19.8149053,59.47333 C18.2097208,59.47333 17.1259721,58.6453141 17.1259721,56.855683 C17.1259721,55.1891825 18.0362413,54.2385344 19.8453141,54.2385344 C21.3587737,54.2385344 22.2476072,54.9030409 22.2476072,56.2734297 C22.2476072,56.9892822 21.9415254,57.2754237 21.0621635,57.3671486" id="Fill-9" fill="#FEFEFE"></path>
                    <path d="M26.0600199,54.796012 L26.0600199,55.2506481 C26.0600199,55.5881356 25.8606181,55.7670987 25.4872383,55.7775673 C24.6133599,55.798006 24.5724826,55.8897308 24.5724826,56.2322034 L24.5724826,58.859322 C24.5724826,59.1968096 24.3885344,59.3812562 24.0510469,59.3812562 L23.2688933,59.3812562 C22.9319043,59.3812562 22.7474576,59.1968096 22.7474576,58.859322 L22.7474576,55.9515454 C22.7474576,54.6429711 23.2130608,54.3209372 25.5031904,54.2790628 C25.8656032,54.2740778 26.0600199,54.4585244 26.0600199,54.796012" id="Fill-11" fill="#FEFEFE"></path>
                    <path d="M26.5247258,58.8595214 L26.5247258,54.8470588 C26.5247258,54.5095713 26.708674,54.3261216 27.045663,54.3261216 L27.8228315,54.3261216 C28.160319,54.3261216 28.3442672,54.5095713 28.3442672,54.8470588 L28.3442672,58.8595214 C28.3442672,59.197009 28.160319,59.3809571 27.8228315,59.3809571 L27.045663,59.3809571 C26.708674,59.3809571 26.5247258,59.197009 26.5247258,58.8595214 M26.4788634,52.8684945 C26.4788634,52.2957129 26.7954138,51.9532403 27.4394816,51.9532403 C28.0790628,51.9532403 28.3906281,52.2957129 28.3906281,52.8684945 C28.3906281,53.4467597 28.0790628,53.7837488 27.4394816,53.7837488 C26.7954138,53.7837488 26.4788634,53.4467597 26.4788634,52.8684945" id="Fill-13" fill="#FEFEFE"></path>
                    <path d="M30.7973081,56.8557328 C30.7973081,57.7301097 31.1088734,58.098006 32.0191426,58.098006 C32.2185444,58.098006 32.4588235,58.0775673 32.7245264,58.0421735 C33.0824526,57.9908275 33.2918245,58.154337 33.2918245,58.5117647 L33.2918245,58.7470588 C33.2918245,59.0541376 33.1492522,59.2590229 32.8471585,59.325324 C32.4179462,59.4270189 31.9937188,59.4728814 31.6153539,59.4728814 C30.0714855,59.4728814 28.9777667,58.6299103 28.9777667,56.8557328 C28.9777667,55.0820538 30.0714855,54.2335992 31.6153539,54.2335992 C31.9937188,54.2335992 32.4179462,54.2794616 32.8471585,54.3821535 C33.1492522,54.4484546 33.2918245,54.65334 33.2918245,54.9589232 L33.2918245,55.1942173 C33.2918245,55.5521436 33.0465603,55.7061815 32.6168495,55.6498504 C32.3925224,55.6244267 32.1931206,55.6084746 32.0191426,55.6084746 C31.1088734,55.6084746 30.7973081,55.987338 30.7973081,56.8557328" id="Fill-15" fill="#FEFEFE"></path>
                    <path d="M38.5204885,59.3811067 L37.73335,59.3811067 C37.4317547,59.3811067 37.2069292,59.2789133 37.0738285,59.0695414 L35.5404287,56.9788136 L35.5404287,58.859671 C35.5404287,59.19666 35.3559821,59.3811067 35.018993,59.3811067 L34.2727318,59.3811067 C33.9352443,59.3811067 33.7512961,59.19666 33.7512961,58.859671 L33.7512961,52.746012 C33.7512961,52.4090229 33.9352443,52.2245763 34.2727318,52.2245763 L35.018993,52.2245763 C35.3559821,52.2245763 35.5404287,52.4090229 35.5404287,52.746012 L35.5404287,56.4623629 L37.0688435,54.6218843 C37.2014457,54.4174975 37.4212861,54.3257727 37.7228814,54.3257727 L38.4796112,54.3257727 C38.9242772,54.3257727 39.0982552,54.581007 38.8579761,54.8875872 L37.2577767,56.7026421 L38.9143071,58.8187936 C39.1291625,59.1308574 38.9546859,59.3811067 38.5204885,59.3811067" id="Fill-17" fill="#FEFEFE"></path>
                    <path d="M39.6080259,54.7142074 L39.786989,52.7157029 C39.8173978,52.3881854 40.006331,52.2196909 40.3338485,52.2196909 L40.9270688,52.2196909 C41.2999501,52.2196909 41.4684447,52.4445165 41.3717348,52.8024427 L40.8298604,54.8114158 C40.7481057,55.1080259 40.5536889,55.2555833 40.2471087,55.2555833 L40.1090229,55.2555833 C39.7615653,55.2555833 39.5771186,55.0671486 39.6080259,54.7142074" id="Fill-19" fill="#FEFEFE"></path>
                    <path d="M41.5397308,58.6810568 L41.5397308,58.5120638 C41.5397308,58.1491525 41.7545862,57.9856431 42.1174975,58.0469591 C43.22667,58.2468594 44.3971585,58.3231306 44.3971585,57.8779661 C44.3971585,57.7149551 44.2695414,57.6227318 44.0138086,57.5559322 L43.0118146,57.3006979 C41.9385344,57.03001 41.4629611,56.5285145 41.4629611,55.7927218 C41.4629611,54.2947159 43.4310568,53.977667 45.2969591,54.4123629 C45.6035394,54.4841476 45.7466102,54.6835494 45.7466102,54.9906281 L45.7466102,55.1332004 C45.7466102,55.4961117 45.5322532,55.6601196 45.1688435,55.5878365 C44.2336491,55.4093719 43.1294616,55.3430708 43.1294616,55.7264207 C43.1294616,55.8540379 43.2321535,55.9402792 43.4106181,55.9871386 L44.4789133,56.2578265 C45.5422233,56.5285145 46.0482054,57.0449651 46.0482054,57.8420738 C46.0482054,59.4681954 43.9066301,59.7338983 41.9843968,59.2638086 C41.6828016,59.1915254 41.5397308,58.9876371 41.5397308,58.6810568" id="Fill-21" fill="#FEFEFE"></path>
                    <path d="M52.565005,56.8761715 C52.565005,55.6498504 52.064008,55.2864407 50.9598205,55.2864407 C50.6741775,55.2864407 50.341675,55.3123629 49.9732802,55.3587238 L49.9732802,57.7864407 C49.9732802,58.2206381 50.0754736,58.4763709 50.9598205,58.4763709 C52.064008,58.4763709 52.565005,58.0775673 52.565005,56.8761715 M53.6437687,56.8761715 C53.6437687,58.7879362 52.6417747,59.4728814 50.8885344,59.4728814 C49.4214357,59.4728814 48.895015,58.9928215 48.895015,57.934995 L48.895015,52.6433699 C48.895015,52.3731805 49.0430708,52.2246261 49.3137587,52.2246261 L49.5540379,52.2246261 C49.8247258,52.2246261 49.9732802,52.3731805 49.9732802,52.6433699 L49.9732802,54.3412762 C50.2953141,54.3048853 50.6018943,54.2894317 50.8885344,54.2894317 C52.6417747,54.2894317 53.6437687,54.9589232 53.6437687,56.8761715" id="Fill-23" fill="#FEFEFE"></path>
                    <path d="M57.5580758,56.3552841 C57.9314556,56.3144068 57.9823031,56.2525922 57.9823031,56.0686441 C57.9823031,55.562662 57.6298604,55.2655533 56.862662,55.2655533 C56.024676,55.2655533 55.5540877,55.6449153 55.472333,56.5641575 L57.5580758,56.3552841 Z M57.8038385,57.3009472 L55.5391326,57.5357428 C55.7280658,58.2052343 56.2495015,58.4814058 57.0007478,58.4814058 C57.3536889,58.4814058 57.7679462,58.4200897 58.2175972,58.3029412 C58.5137089,58.225673 58.692672,58.3537886 58.692672,58.6553838 L58.692672,58.783001 C58.692672,59.0287637 58.5805085,59.1867896 58.3402293,59.2535892 C57.8187936,59.39666 57.3227817,59.4729312 56.8681456,59.4729312 C55.3756231,59.4729312 54.3786142,58.6145065 54.3786142,56.8861914 C54.3786142,55.2301595 55.2270688,54.2894816 56.862662,54.2894816 C58.2380359,54.2894816 59.0560818,54.9699402 59.0560818,56.1658524 C59.0560818,56.8812064 58.7594716,57.1982552 57.8038385,57.3009472 L57.8038385,57.3009472 Z" id="Fill-25" fill="#FEFEFE"></path>
                    <path d="M59.7200399,58.7830508 L59.7200399,58.6554337 C59.7200399,58.3643071 59.8940179,58.2307079 60.1901296,58.2925224 C61.4732802,58.5527418 62.7409771,58.6250249 62.7409771,57.9400798 C62.7409771,57.6639083 62.5460618,57.5153539 62.127318,57.4026919 L60.9977069,57.1065803 C60.0520439,56.8608175 59.6686939,56.360319 59.6686939,55.7162512 C59.6686939,54.3363908 61.4219342,54.0293121 63.1497507,54.4889332 C63.395015,54.5557328 63.507677,54.7142572 63.507677,54.9590229 L63.507677,55.0771685 C63.507677,55.3737787 63.3287139,55.5013958 63.0326022,55.4296112 C61.9942173,55.184347 60.7474576,55.1484546 60.7474576,55.7007976 C60.7474576,55.9051844 60.9054835,56.0432702 61.17667,56.1145563 L62.4089731,56.4316052 C63.3541376,56.6773679 63.8142572,57.136989 63.8142572,57.8987039 C63.8142572,59.4425723 61.8152542,59.7541376 60.0674975,59.2591226 C59.8272183,59.1868395 59.7200399,59.0288136 59.7200399,58.7830508" id="Fill-27" fill="#FEFEFE"></path>
                    <path d="M67.2837986,55.3738784 L65.6990528,55.3738784 L65.6990528,57.5872383 C65.6990528,58.1949153 65.934347,58.445663 66.5430209,58.445663 C66.8700399,58.445663 67.0594716,58.3743769 67.27333,58.3743769 C67.6008475,58.3743769 67.6930708,58.4815553 67.6930708,58.7268195 L67.6930708,58.8848455 C67.6930708,59.1151545 67.5903789,59.2891326 67.3610668,59.3404786 C65.776321,59.7387836 64.600349,59.2891326 64.600349,57.5872383 L64.600349,53.6251246 C64.600349,53.3549352 64.7489033,53.2058824 65.0190927,53.2058824 L65.2798106,53.2058824 C65.550997,53.2058824 65.6990528,53.3549352 65.6990528,53.6251246 L65.6990528,54.3818544 L67.2837986,54.3818544 C67.554985,54.3818544 67.7035394,54.5299103 67.7035394,54.8010967 L67.7035394,54.9541376 C67.7035394,55.225324 67.554985,55.3738784 67.2837986,55.3738784" id="Fill-29" fill="#FEFEFE"></path>
                    <path d="M78.2834995,56.5999003 L78.2834995,58.9623131 C78.2834995,59.2334995 78.1354437,59.3810568 77.8642572,59.3810568 L77.6239781,59.3810568 C77.3537886,59.3810568 77.2052343,59.2334995 77.2052343,58.9623131 L77.2052343,56.5286142 C77.2052343,55.680658 76.8213858,55.286341 76.0247757,55.286341 C75.22667,55.286341 74.9250748,55.680658 74.9250748,56.5286142 L74.9250748,58.9623131 C74.9250748,59.2334995 74.7775174,59.3810568 74.506331,59.3810568 L74.2655533,59.3810568 C73.9943669,59.3810568 73.8468096,59.2334995 73.8468096,58.9623131 L73.8468096,56.5286142 C73.8468096,55.680658 73.5452144,55.286341 72.7481057,55.286341 C71.95,55.286341 71.56665,55.680658 71.56665,56.5286142 L71.56665,58.9623131 C71.56665,59.2334995 71.4185942,59.3810568 71.1479063,59.3810568 L70.9071286,59.3810568 C70.6364407,59.3810568 70.4883848,59.2334995 70.4883848,58.9623131 L70.4883848,56.5999003 C70.4883848,54.9383848 71.3159023,54.289332 72.6503988,54.289332 C73.555683,54.289332 74.0925723,54.5859422 74.3836989,55.1178465 C74.674327,54.5859422 75.2117149,54.289332 76.116002,54.289332 C77.4504985,54.289332 78.2834995,54.9383848 78.2834995,56.5999003" id="Fill-31" fill="#FEFEFE"></path>
                    <path d="M83.4043868,54.3819541 L83.644666,54.3819541 C83.9153539,54.3819541 84.0634098,54.53001 84.0634098,54.8011964 L84.0634098,57.1117647 C84.0634098,58.9367896 83.1541376,59.4731805 81.6616152,59.4731805 C80.1735793,59.4731805 79.2638086,58.9367896 79.2638086,57.1117647 L79.2638086,54.8011964 C79.2638086,54.53001 79.4118644,54.3819541 79.6830508,54.3819541 L79.9238285,54.3819541 C80.1940179,54.3819541 80.3425723,54.53001 80.3425723,54.8011964 L80.3425723,57.1167498 C80.3425723,58.1845464 80.7463609,58.4761715 81.6616152,58.4761715 C82.5818544,58.4761715 82.9851446,58.1845464 82.9851446,57.1167498 L82.9851446,54.8011964 C82.9851446,54.53001 83.1332004,54.3819541 83.4043868,54.3819541" id="Fill-33" fill="#FEFEFE"></path>
                    <path d="M84.9008475,58.7830508 L84.9008475,58.6554337 C84.9008475,58.3643071 85.075324,58.2307079 85.3714357,58.2925224 C86.6550847,58.5527418 87.9217846,58.6250249 87.9217846,57.9400798 C87.9217846,57.6639083 87.7278664,57.5153539 87.3091226,57.4026919 L86.1785145,57.1065803 C85.23335,56.8608175 84.8495015,56.360319 84.8495015,55.7162512 C84.8495015,54.3363908 86.6027418,54.0293121 88.3315553,54.4889332 C88.576321,54.5557328 88.6894816,54.7142572 88.6894816,54.9590229 L88.6894816,55.0771685 C88.6894816,55.3737787 88.5095214,55.5013958 88.2134098,55.4296112 C87.1755234,55.184347 85.9282652,55.1484546 85.9282652,55.7007976 C85.9282652,55.9051844 86.0872881,56.0432702 86.3579761,56.1145563 L87.5897807,56.4316052 C88.5354437,56.6773679 88.9960618,57.136989 88.9960618,57.8987039 C88.9960618,59.4425723 86.9970588,59.7541376 85.2483051,59.2591226 C85.0090229,59.1868395 84.9008475,59.0288136 84.9008475,58.7830508" id="Fill-35" fill="#FEFEFE"></path>
                    <path d="M89.9204387,58.9622134 L89.9204387,54.8011964 C89.9204387,54.53001 90.0684945,54.3819541 90.339681,54.3819541 L90.6053838,54.3819541 C90.8755733,54.3819541 91.0246261,54.53001 91.0246261,54.8011964 L91.0246261,58.9622134 C91.0246261,59.2333998 90.8755733,59.3809571 90.6053838,59.3809571 L90.339681,59.3809571 C90.0684945,59.3809571 89.9204387,59.2333998 89.9204387,58.9622134 M89.8327019,52.9657029 C89.8327019,52.5519442 90.0480558,52.2907278 90.4767697,52.2907278 C90.9069791,52.2907278 91.1158524,52.5519442 91.1158524,52.9657029 C91.1158524,53.3799601 90.9069791,53.6302094 90.4767697,53.6302094 C90.0480558,53.6302094 89.8327019,53.3799601 89.8327019,52.9657029" id="Fill-37" fill="#FEFEFE"></path>
                    <path d="M93.115005,56.8863908 C93.115005,58.0214855 93.5756231,58.4761216 94.5776171,58.4761216 C94.8577767,58.4761216 95.2052343,58.4352443 95.563659,58.3694417 C95.8542871,58.3081256 96.0287637,58.4407278 96.0287637,58.7318544 L96.0287637,58.8594716 C96.0287637,59.1052343 95.9166002,59.2642572 95.6708375,59.3250748 C95.2620638,59.4217846 94.8727318,59.4731306 94.510319,59.4731306 C93.0332502,59.4731306 92.0212861,58.624676 92.0212861,56.8863908 C92.0212861,55.1486042 93.0332502,54.289681 94.510319,54.289681 C94.8727318,54.289681 95.2620638,54.3415254 95.6708375,54.4382353 C95.9166002,54.4990528 96.0287637,54.6580758 96.0287637,54.9028415 L96.0287637,55.0264706 C96.0287637,55.3175972 95.8288634,55.4402293 95.4863908,55.3789133 C95.1543868,55.3175972 94.837338,55.2861914 94.5776171,55.2861914 C93.5756231,55.2861914 93.115005,55.7517946 93.115005,56.8863908" id="Fill-39" fill="#FEFEFE"></path>
                    <path d="M106.762014,56.5999003 L106.762014,58.9623131 C106.762014,59.2334995 106.613958,59.3810568 106.34327,59.3810568 L106.102991,59.3810568 C105.831805,59.3810568 105.683749,59.2334995 105.683749,58.9623131 L105.683749,56.5286142 C105.683749,55.680658 105.299402,55.286341 104.502792,55.286341 C103.705683,55.286341 103.404088,55.680658 103.404088,56.5286142 L103.404088,58.9623131 C103.404088,59.2334995 103.255533,59.3810568 102.984347,59.3810568 L102.744068,59.3810568 C102.47338,59.3810568 102.324826,59.2334995 102.324826,58.9623131 L102.324826,56.5286142 C102.324826,55.680658 102.02323,55.286341 101.226122,55.286341 C100.429013,55.286341 100.044666,55.680658 100.044666,56.5286142 L100.044666,58.9623131 C100.044666,59.2334995 99.8971087,59.3810568 99.6259222,59.3810568 L99.3851446,59.3810568 C99.1149551,59.3810568 98.9664008,59.2334995 98.9664008,58.9623131 L98.9664008,56.5999003 C98.9664008,54.9383848 99.7949153,54.289332 101.128913,54.289332 C102.034197,54.289332 102.570588,54.5859422 102.861715,55.1178465 C103.15334,54.5859422 103.690229,54.289332 104.594516,54.289332 C105.928514,54.289332 106.762014,54.9383848 106.762014,56.5999003" id="Fill-41" fill="#FEFEFE"></path>
                    <path d="M107.879761,58.9622134 L107.879761,54.8011964 C107.879761,54.53001 108.028814,54.3819541 108.299003,54.3819541 L108.564706,54.3819541 C108.835892,54.3819541 108.983948,54.53001 108.983948,54.8011964 L108.983948,58.9622134 C108.983948,59.2333998 108.835892,59.3809571 108.564706,59.3809571 L108.299003,59.3809571 C108.028814,59.3809571 107.879761,59.2333998 107.879761,58.9622134 M107.793021,52.9657029 C107.793021,52.5519442 108.007378,52.2907278 108.437089,52.2907278 C108.866301,52.2907278 109.076171,52.5519442 109.076171,52.9657029 C109.076171,53.3799601 108.866301,53.6302094 108.437089,53.6302094 C108.007378,53.6302094 107.793021,53.3799601 107.793021,52.9657029" id="Fill-43" fill="#FEFEFE"></path>
                    <path d="M114.586191,58.92667 C114.770638,59.1863908 114.668445,59.3813061 114.356879,59.3813061 L113.932154,59.3813061 C113.73325,59.3813061 113.599651,59.3100199 113.487488,59.150997 L112.36336,57.6230808 L111.232752,59.150997 C111.121087,59.3100199 110.987488,59.3813061 110.794068,59.3813061 L110.363858,59.3813061 C110.057278,59.3813061 109.9501,59.1863908 110.134048,58.92667 L111.656979,56.8862911 L110.134048,54.8314556 C109.9501,54.5757228 110.057278,54.3818046 110.363858,54.3818046 L110.794068,54.3818046 C110.987488,54.3818046 111.121087,54.4535892 111.232752,54.6061316 L112.36336,56.1455135 L113.487488,54.6061316 C113.599651,54.4535892 113.73325,54.3818046 113.932154,54.3818046 L114.356879,54.3818046 C114.668445,54.3818046 114.770638,54.5757228 114.586191,54.8314556 L113.06326,56.8862911 L114.586191,58.92667 Z" id="Fill-45" fill="#FEFEFE"></path>
                    <path d="M4.98504487e-05,40.439681 L4.98504487e-05,23.6211366 C4.98504487e-05,22.5433699 0.60224327,21.9411765 1.67951147,21.9411765 L3.46914257,21.9411765 C4.54690927,21.9411765 5.1496012,22.5433699 5.1496012,23.6211366 L5.1496012,39.5084746 C5.1496012,40.3668993 5.40483549,41.0418744 6.92078764,41.0418744 L14.7368395,41.0418744 C15.8146062,41.0418744 16.4167996,41.6445663 16.4167996,42.722333 L16.4167996,44.0004985 C16.4167996,45.0782652 15.8146062,45.6809571 14.7368395,45.6809571 L5.6605683,45.6809571 C1.73434696,45.6809571 4.98504487e-05,44.2382851 4.98504487e-05,40.439681" id="Fill-47" fill="#FEFEFE"></path>
                    <path d="M17.6562812,44.0004985 L17.6562812,29.4102692 C17.6562812,28.3325025 18.2589731,27.7298106 19.3367398,27.7298106 L21.144317,27.7298106 C22.2220837,27.7298106 22.8247757,28.3325025 22.8247757,29.4102692 L22.8247757,44.0004985 C22.8247757,45.0782652 22.2220837,45.6809571 21.144317,45.6809571 L19.3367398,45.6809571 C18.2589731,45.6809571 17.6562812,45.0782652 17.6562812,44.0004985 M17.4184945,22.5982054 C17.4184945,20.8449651 18.3691426,19.7681954 20.2495015,19.7681954 C22.1493021,19.7681954 23.08001,20.8449651 23.08001,22.5982054 C23.08001,24.3509472 22.1493021,25.392323 20.2495015,25.392323 C18.3691426,25.392323 17.4184945,24.3509472 17.4184945,22.5982054" id="Fill-49" fill="#FEFEFE"></path>
                    <path d="M40.9567797,27.73001 L42.8017448,27.73001 C44.0250748,27.73001 44.5729312,28.4782652 44.1895813,29.6472582 L40.5370389,40.732004 C39.2224826,44.7678963 37.8889831,46.0091725 34.4921735,46.0091725 C31.1143071,46.0091725 29.7623629,44.7678963 28.4483051,40.732004 L24.8137089,29.6472582 C24.4303589,28.4782652 24.9782154,27.73001 26.2015454,27.73001 L28.046012,27.73001 C29.0325523,27.73001 29.6531904,28.1861416 29.9273679,29.1362911 L33.0315553,39.6367896 C33.5245763,41.1701894 33.9079262,41.3705882 34.4921735,41.3705882 C35.0948654,41.3705882 35.4787139,41.1701894 35.9532901,39.6367896 L39.0764207,29.1362911 C39.3500997,28.1861416 39.9707378,27.73001 40.9567797,27.73001" id="Fill-51" fill="#FEFEFE"></path>
                    <path d="M57.189332,33.9021436 C57.189332,32.167348 56.1305085,31.2361416 53.7935194,31.2361416 C51.2546361,31.2361416 49.9026919,32.3866899 49.629013,35.4724327 L55.9296112,34.83335 C56.9889332,34.7241775 57.189332,34.5232802 57.189332,33.9021436 M57.628016,38.3577767 L49.9026919,39.1613659 C50.5612164,41.2067298 52.2222333,41.9370389 54.6514457,41.9370389 C55.8383848,41.9370389 57.2626122,41.7366401 58.8329013,41.3522931 C60.0198405,41.0786142 60.7322034,41.5900798 60.7322034,42.7770189 L60.7322034,43.3248754 C60.7322034,44.3114158 60.2760718,44.9504985 59.3079761,45.2062313 C57.3358923,45.7351446 55.4724826,46.009322 53.7566301,46.009322 C48.2237288,46.009322 44.5163509,42.9963609 44.5163509,36.7147059 C44.5163509,30.779013 47.6574277,27.4011466 53.7935194,27.4011466 C58.9425723,27.4011466 61.9924227,29.8114158 61.9924227,34.3772183 C61.9924227,36.9335494 60.914656,38.0108175 57.628016,38.3577767" id="Fill-53" fill="#FEFEFE"></path>
                    <path d="M104.900449,14.5614656 L100.764357,14.5614656 L100.764357,8.49915254 L115.096859,8.49915254 L115.096859,1.64471585 L93.3999501,1.64471585 L93.3999501,21.3022433 L100.159172,21.3022433 L100.764357,21.3022433 L103.994167,21.3022433 C107.732951,21.3022433 109.828664,23.6257727 109.828664,26.7409272 C109.828664,30.4233799 106.939332,32.5759222 103.087388,32.5759222 C99.3481057,32.5759222 96.9129113,30.5933699 94.8162014,27.3645563 L89.491675,31.159671 C91.9273679,36.0320538 96.7429212,39.6008475 103.313709,39.6008475 C111.301745,39.6008475 117.646211,34.3889831 117.646211,26.6277667 C117.646211,18.8665503 111.301745,14.5614656 104.900449,14.5614656" id="Fill-55" fill="#FEFEFE"></path>
                    <path d="M77.6107178,0.22337986 C70.3031406,0.22337986 63.901346,5.77472582 63.901346,13.5927717 C63.901346,20.4472084 68.8863908,24.8664506 73.8151047,25.8858923 L77.8943669,20.1077268 C74.2119143,19.5409272 71.4352443,17.5015454 71.4352443,13.7059322 C71.4352443,9.91031904 74.1545862,7.24780658 77.6107178,7.24780658 C81.0663509,7.24780658 83.7856929,9.96714855 83.7856929,13.4791127 C83.7856929,15.462662 82.9362413,17.2183948 81.4058325,19.3714357 L62.6311565,45.5887836 L71.6132104,45.5972582 L86.2218843,25.3764207 C89.3370389,21.1271685 91.3769192,18.1251745 91.3769192,13.6496012 C91.3769192,5.77472582 84.9756231,0.22337986 77.6107178,0.22337986" id="Fill-57" fill="#FEFEFE"></path>
                </g>
            </g>
        </g>
    </g>
</svg>