<svg width="154" height="32" viewBox="0 0 154 32" fill="#3a9948"
    xmlns="http://www.w3.org/2000/svg">
    <title>Agriland Logo</title>
    <path d="M63.6485 24.4483V24.5444H59.6954L57.8961 20.5914H47.677L45.8777 24.5444H41.8916V24.4813L52.2068 2.56226H53.3633L63.6485 24.4483ZM51.3087 12.3969L48.9296 17.6025H56.6435L54.2645 12.3969C53.7508 11.2404 53.3002 10.0839 52.7866 8.66908C52.2729 10.0809 51.8223 11.2073 51.3087 12.3969Z" fill="#3a9948"></path>
    <path d="M79.2206 10.21V25.1241C79.2206 29.72 76.1026 32.003 71.699 32.003C69.0646 32.003 66.9739 31.264 65.2077 29.8162L66.5564 27.1818C67.8751 28.2421 69.4491 28.8519 71.4106 28.8519C74.0149 28.8519 75.6851 27.6293 75.6851 25.1872C75.6851 24.4483 75.7181 23.6432 75.7482 22.8412C74.4956 24.1599 72.7924 24.8027 70.9931 24.8027C66.9108 24.8027 64.1143 21.7178 64.1143 17.3472C64.1143 12.9766 66.9108 9.85858 70.927 9.85858C73.0807 9.85858 74.9762 10.6606 76.1987 12.3007L76.9046 10.21H79.2206ZM75.8443 17.3442C75.8443 14.8059 74.3994 12.9075 71.729 12.9075C69.1908 12.9075 67.6798 14.7398 67.6798 17.3442C67.6798 19.9485 69.2238 21.7809 71.696 21.7809C74.3994 21.7809 75.8443 19.8854 75.8443 17.3442Z" fill="#3a9948"></path>
    <path d="M92.3379 10.4985L91.4368 13.4542C90.8901 13.262 90.3103 13.1328 89.5714 13.1328C87.5468 13.1328 86.165 14.4515 86.165 16.7314V24.5414H82.6655V10.2101H85.0446L85.7204 12.3308C86.5555 10.7237 88.0034 9.88867 89.8658 9.88867C90.86 9.88867 91.6651 10.114 92.3379 10.4985Z" fill="#3a9948"></path>
    <path d="M93.6567 5.13357C93.6567 3.97709 94.4918 3.0459 95.8435 3.0459C97.1923 3.0459 98.0303 3.97709 98.0303 5.16662C98.0303 6.3231 97.1622 7.22425 95.8435 7.22425C94.4918 7.22125 93.6567 6.29005 93.6567 5.13357ZM94.0743 10.2101H97.5768V24.5444H94.0743V10.2101Z" fill="#3a9948"></path>
    <path d="M101.022 1.40277H104.525L104.558 24.5444H101.022V1.40277Z" fill="#3a9948"></path>
    <path d="M119.679 15.2896V24.5444H117.333L116.69 22.3907C115.63 23.9016 113.927 24.8328 111.581 24.8328C108.946 24.8328 107.081 23.3549 107.081 20.8166C107.081 17.5394 109.974 15.7371 114.344 15.7371C115.083 15.7371 115.63 15.7702 116.144 15.8002V15.1574C116.144 13.6795 115.05 12.9406 113.218 12.9406C111.803 12.9406 110.229 13.3911 108.751 14.097L107.754 11.4296C109.875 10.4654 111.836 9.95172 113.765 9.95172C117.432 9.95473 119.679 11.8171 119.679 15.2896ZM116.243 18.0831C115.663 18.0201 115.215 17.987 114.573 17.987C112.034 17.987 110.557 18.8882 110.557 20.4622C110.557 21.5856 111.328 22.1984 112.614 22.1984C114.666 22.1984 116.177 20.6875 116.243 18.0831Z" fill="#3a9948"></path>
    <path d="M135.963 15.5779V24.5444H132.461V15.8993C132.461 14.1 131.755 12.9736 130.019 12.9736C127.832 12.9736 126.516 14.5476 126.516 16.6683V24.5414H123.014V10.2101H125.393L126.099 12.4599C127.03 11.0151 128.574 9.82556 130.92 9.82556C134.197 9.82556 135.963 11.9132 135.963 15.5779Z" fill="#3a9948"></path>
    <path d="M153.614 1.40277V24.5444H151.202L150.592 22.3907C149.435 23.9647 147.666 24.8989 145.416 24.8989C141.301 24.8989 138.507 21.8139 138.507 17.2811C138.507 12.9736 141.4 9.8556 145.416 9.8556C147.345 9.8556 149.081 10.6276 150.204 11.9132C150.141 10.5945 150.108 9.37499 150.108 7.79796V1.40277H153.614ZM150.24 17.3772C150.24 14.7429 148.6 12.9406 146.125 12.9406C143.683 12.9406 142.043 14.7399 142.043 17.3772C142.043 20.0447 143.683 21.844 146.125 21.844C148.633 21.844 150.24 20.0447 150.24 17.3772Z" fill="#3a9948"></path>
    <path d="M16.1938 21.2192C16.7255 21.8711 17.2332 22.5469 17.7108 23.2468C19.6993 20.9549 22.2706 19.1135 25.3105 17.9811C27.3532 17.2211 29.4438 16.8456 31.5075 16.8096C31.5285 16.4641 31.5435 16.1157 31.5435 15.7672C31.5435 15.2806 31.5195 14.8 31.4774 14.3254C29.1344 14.3614 26.7614 14.785 24.4454 15.6471C21.1772 16.8666 18.3927 18.8071 16.1938 21.2192Z" fill="#3a9948"></path>
    <path d="M21.3275 7.27833C23.4843 6.4763 25.6741 5.93861 27.8639 5.64724C24.9712 2.19581 20.6276 0 15.7704 0C8.66628 0 2.65859 4.69802 0.685059 11.1593C3.84811 12.0214 6.85196 13.3912 9.57645 15.2115C12.7095 11.7721 16.6775 9.00854 21.3275 7.27833Z" fill="#3a9948"></path>
    <path d="M19.48 26.1846C20.0777 27.323 20.6124 28.5096 21.072 29.7472C21.1681 30.0055 21.2583 30.2668 21.3484 30.5252C25.9923 28.7679 29.5879 24.8869 30.9487 20.0627C29.4407 20.1469 27.9208 20.4502 26.4309 21.006C23.5622 22.0723 21.1982 23.9047 19.48 26.1846Z" fill="#3a9948"></path>
    <path d="M0.0660847 14.3374C0.0240308 14.809 0 15.2866 0 15.7702C0 16.1577 0.0150192 16.5392 0.0420539 16.9177C6.96593 19.0745 12.8685 24.2681 15.644 31.5374C15.6861 31.5374 15.7282 31.5404 15.7702 31.5404C16.6053 31.5404 17.4223 31.4744 18.2244 31.3512C18.1673 31.192 18.1132 31.0298 18.0531 30.8706C14.9381 22.4959 8.07134 16.5933 0.0660847 14.3374Z" fill="#3a9948"></path>
    <path d="M0.753906 20.5944C2.40903 25.749 6.64145 29.7471 11.9372 31.0688C9.58522 26.1665 5.52402 22.5258 0.753906 20.5944Z" fill="#3a9948"></path>
    <path d="M12.1748 17.152C12.8086 17.6837 13.4244 18.2394 14.0162 18.8221C16.5214 16.1487 19.6574 13.9919 23.3191 12.6312C25.8003 11.709 28.3355 11.2254 30.8467 11.1233C30.5854 10.2792 30.258 9.46214 29.8645 8.68414C27.3863 8.86437 24.8961 9.39005 22.454 10.2972C18.4048 11.8051 14.9383 14.1902 12.1748 17.152Z" fill="#3a9948"></path>
</svg>