<?xml version="1.0" encoding="utf-8"?>
<!-- Generator: Adobe Illustrator 26.0.2, SVG Export Plug-In . SVG Version: 6.00 Build 0)  -->
<svg version="1.1" id="Laag_1" xmlns="http://www.w3.org/2000/svg" xmlns:xlink="http://www.w3.org/1999/xlink" x="0px" y="0px"
	 viewBox="0 0 836.58 267.94" style="enable-background:new 0 0 836.58 267.94;" xml:space="preserve">
<style type="text/css">
	.st0{fill:#FFFFFF;}
</style>
<g>
	<path class="st0" d="M59.11,120.55h8.45c10.19,0,13.4-9.47,13.4-22.42c0-13.4-4.37-23.3-17.18-23.3h-4.66V120.55z M59.11,29.69
		v41.06h4.66c12.23,0,12.81-8.3,12.81-20.82c0-13.1-2.77-20.24-11.94-20.24H59.11z M22.71,124.63v-3.64l7.28-0.87
		c2.04-0.29,2.91-1.46,2.91-3.64V33.91c0-2.18-0.87-3.49-2.91-3.64l-7.28-1.02v-3.64h48.05c21.84,0,33.49,10.05,33.49,24.17
		c0,11.21-10.48,21.11-30.14,22.86v0.29c25.19,0.73,34.51,14.56,34.51,25.48c0,15.58-11.65,26.21-33.49,26.21H22.71z"/>
	<path class="st0" d="M117.36,61.72c0-2.18-0.87-2.91-2.91-2.91h-5.82v-3.64l32.03-4.8l0.88,1.02c-0.58,2.91-0.88,7.72-0.88,13.11
		v37.71c0,5.68,2.91,9.76,9.18,9.76c8.74,0,14.12-8.44,14.12-18.2V61.72c0-2.18-0.87-2.91-2.91-2.91h-8.74v-3.64l34.95-4.8
		l0.87,1.02c-0.58,2.91-0.87,7.72-0.87,13.11v52.13c0,2.18,0.87,3.35,2.91,3.64l5.82,0.73v3.64c-8.88,0.73-18.35,1.46-24.17,1.46
		c-3.49,0-7.86-0.58-7.86-5.82v-14.12h-0.29c-5.53,15.14-14.85,19.95-25.48,19.95c-10.92,0-20.82-7.28-20.82-23.3V61.72z"/>
	<path class="st0" d="M199.79,123.17l-1.89-20.39h3.64c5.82,11.5,10.48,19.22,20.53,19.22c6.12,0,10.05-3.79,10.05-10.05
		c0-5.97-3.2-10.34-15-15.72c-13.83-6.26-19.51-12.38-19.51-24.03c0-11.65,8.74-21.84,27.66-21.84c6.55,0,11.21,0.73,22.57,2.91
		l0.73,20.38h-3.64c-5.39-11.21-8.74-19.22-18.2-19.22c-6.41,0-9.76,4.22-9.76,9.17c0,7.57,5.97,9.9,11.21,12.23
		c18.05,8.15,24.61,13.83,24.61,26.94c0,13.83-11.5,23.3-28.25,23.3C217.55,126.08,210.71,125.36,199.79,123.17"/>
	<path class="st0" d="M275.37,19.79c7.28,0,13.11,4.37,13.11,11.65c0,7.28-5.82,11.65-13.11,11.65c-7.28,0-13.11-4.37-13.11-11.65
		C262.26,24.16,268.09,19.79,275.37,19.79 M287.02,116.47c0,2.18,0.87,3.2,2.91,3.64l5.82,0.87v3.64h-40.77v-3.64l5.82-0.87
		c2.04-0.44,2.91-1.46,2.91-3.64V61.73c0-2.18-0.87-2.91-2.91-2.91h-5.82v-3.64l32.04-4.81l0.87,1.02
		c-0.58,2.91-0.87,7.72-0.87,13.11V116.47z"/>
	<path class="st0" d="M327.21,51.38c-0.58,2.91-0.87,7.72-0.87,13.11v5.97h0.29c5.53-15.14,14.71-20.1,25.34-20.1
		c10.92,0,20.97,7.28,20.97,23.3v42.81c0,2.18,0.88,3.2,2.91,3.64l5.82,0.87v3.64h-37.86v-3.64l3.64-0.87
		c2.04-0.58,2.18-1.46,2.18-3.64V74.25c0-5.53-2.91-9.76-9.32-9.76c-8.59,0-13.98,8.45-13.98,18.2v33.78c0,2.18,0.87,3.2,2.91,3.64
		l5.82,0.87v3.64H294.3v-3.64l5.82-0.87c2.04-0.44,2.91-1.46,2.91-3.64V61.73c0-2.18-0.88-2.91-2.91-2.91h-5.82v-3.64l32.03-4.81
		L327.21,51.38z"/>
	<path class="st0" d="M405.12,80.22h25.34c2.62-16.89-1.02-25.77-9.61-25.77C411.39,54.44,405.85,66.24,405.12,80.22 M404.98,84
		c-0.58,17.47,8.44,30.87,24.61,30.87c7.13,0,13.25-2.62,18.64-7.28l1.89,2.18c-4.8,7.72-15.72,16.31-30.58,16.31
		c-20.38,0-37.86-12.38-37.86-37.13c0-26.21,21.11-38.59,39.31-38.59c16.02,0,34.22,6.99,29.85,33.64H404.98z"/>
	<path class="st0" d="M458.28,123.17l-1.89-20.39h3.64c5.82,11.5,10.48,19.22,20.53,19.22c6.12,0,10.05-3.79,10.05-10.05
		c0-5.97-3.2-10.34-15-15.72c-13.83-6.26-19.51-12.38-19.51-24.03c0-11.65,8.74-21.84,27.66-21.84c6.55,0,11.21,0.73,22.57,2.91
		l0.73,20.38h-3.64c-5.39-11.21-8.74-19.22-18.2-19.22c-6.41,0-9.76,4.22-9.76,9.17c0,7.57,5.97,9.9,11.21,12.23
		c18.05,8.15,24.61,13.83,24.61,26.94c0,13.83-11.5,23.3-28.25,23.3C476.04,126.08,469.2,125.36,458.28,123.17"/>
	<path class="st0" d="M517.26,123.17l-1.89-20.39h3.64c5.83,11.5,10.48,19.22,20.53,19.22c6.12,0,10.05-3.79,10.05-10.05
		c0-5.97-3.2-10.34-15-15.72c-13.83-6.26-19.51-12.38-19.51-24.03c0-11.65,8.74-21.84,27.66-21.84c6.55,0,11.21,0.73,22.57,2.91
		l0.73,20.38h-3.64c-5.39-11.21-8.74-19.22-18.2-19.22c-6.41,0-9.76,4.22-9.76,9.17c0,7.57,5.97,9.9,11.21,12.23
		c18.05,8.15,24.61,13.83,24.61,26.94c0,13.83-11.5,23.3-28.25,23.3C535.02,126.08,528.18,125.36,517.26,123.17"/>
	<path class="st0" d="M59.11,187.4h7.28c11.65,0,14.56-10.19,14.56-24.46c0-14.27-2.91-24.03-14.56-24.03h-7.28V187.4z
		 M59.11,191.48v34.22c0,2.18,0.87,3.35,2.91,3.64l10.19,0.87v3.64H22.71v-3.64l7.28-0.87c2.04-0.29,2.91-1.46,2.91-3.64v-82.56
		c0-2.18-0.87-3.49-2.91-3.64l-7.28-1.02v-3.64h50.96c23.3,0,34.95,12.67,34.95,28.1s-11.65,28.54-34.95,28.54H59.11z"/>
	<path class="st0" d="M133.38,197.44c0,20.53,3.2,33.78,13.1,33.78c9.9,0,13.11-13.25,13.11-33.78c0-20.53-3.35-33.78-13.11-33.78
		C136.59,163.66,133.38,176.91,133.38,197.44 M108.63,197.44c0-22.86,16.31-37.86,37.86-37.86c21.41,0,37.86,15,37.86,37.86
		c0,22.86-16.45,37.86-37.86,37.86C124.94,235.3,108.63,220.31,108.63,197.44"/>
	<path class="st0" d="M191.05,232.39L189.16,212h3.64c5.82,11.5,10.48,19.22,20.53,19.22c6.12,0,10.05-3.79,10.05-10.05
		c0-5.97-3.2-10.34-15-15.72c-13.83-6.26-19.51-12.38-19.51-24.03c0-11.65,8.74-21.84,27.66-21.84c6.55,0,11.21,0.73,22.57,2.91
		l0.73,20.38h-3.64c-5.39-11.21-8.74-19.22-18.2-19.22c-6.41,0-9.76,4.22-9.76,9.17c0,7.57,5.97,9.9,11.21,12.23
		c18.05,8.15,24.61,13.83,24.61,26.94c0,13.83-11.5,23.3-28.25,23.3C208.81,235.3,201.97,234.58,191.05,232.39"/>
	<path class="st0" d="M251.92,161.48c3.35-0.29,5.68-1.75,8.15-4.37l12.38-13.54h3.64v17.47h16.02v4.22h-16.02v51.84
		c0,9.76,4.08,11.21,8.74,11.21c2.77,0,5.24-0.73,8.16-1.89l0.58,3.79c-5.82,2.91-14.12,5.1-22.57,5.1
		c-11.65,0-18.2-3.64-18.2-16.02v-54.02h-8.74v-3.06L251.92,161.48z"/>
</g>
</svg>
