<svg xmlns="http://www.w3.org/2000/svg" width="80" height="54" viewBox="0 0 140 95">
    <g fill="none" fill-rule="evenodd">
        <g fill="#FFF" fill-rule="nonzero">
            <g>
                <g>
                    <path d="M65.106 46.065c.036-1.534-.556-3.017-1.638-4.106-1.082-1.088-2.562-1.687-4.096-1.658-3.886 0-6.131 2.055-6.72 5.764h12.454zm44.306 8.514c0 2.585.135 5.498 1.593 7.685H97.682c-.347-1.046-.505-2.146-.465-3.247h-.132c-2.787 3.187-6.788 4.107-11.005 4.107-4.155 0-7.863-1.265-10.039-4.007-3.131 6.042-9.689 8.872-16.716 8.872-7.094 0-13.052-2.73-16.364-7.773l-.013.075c-1.384 7.721-8.763 11.701-16.248 11.701H3.735c-.993-.002-1.944-.398-2.644-1.102-.7-.704-1.093-1.657-1.091-2.65V28.453c-.002-.993.39-1.947 1.09-2.65.701-.704 1.652-1.1 2.645-1.103h22.041c12.395 0 15.03 7.02 15.03 11.844 0 4.769-2.305 7.35-5.8 9.27v.012c1.882.65 3.712 1.684 5.161 3.247.431-9.555 7.562-17.202 18.019-17.202 10.894 0 16.828 4.914 18.75 13.763 2.29-2.037 5.64-2.969 8.963-3.543l.537-.09c2.5-.406 4.952-.632 6.895-1 1.78-.33 3.56-.86 3.56-3.047 0-2.318-2.175-3.187-4.285-3.187-4.021 0-4.814 2.052-4.881 3.51H75.597c.199-4.836 2.572-7.68 5.932-9.274 3.297-1.594 7.649-1.992 11.67-1.992 11.917 0 15.075 3.624 15.912 8.154h5.087V24.7h9.32c2.06.007 3.727 1.676 3.731 3.737v6.729h6.988v8.079h-6.988v28.707c-.466.016-.932.04-1.385.04l-.422-.001-.212-.003-.423-.008c-5.233-.13-10.61-1.444-10.61-10.254V43.245l-4.786-.001v11.335zm24.825 6.7c2.95.007 5.335 2.404 5.33 5.355-.01 2.944-2.402 5.322-5.344 5.314-2.941-.007-5.321-2.397-5.318-5.34.004-2.944 2.39-5.328 5.332-5.328zM23.602 51.923h-9.097v8.812h8.492c3.03 0 5.67-.865 5.67-4.506 0-2.78-1.637-4.306-5.065-4.306zm50.415.964H52.584c.33 3.908 2.572 6.689 6.657 6.689 2.11 0 4.415-.797 5.47-2.45h10.143c-.522-1.215-.818-2.624-.837-4.239zm22.873-6.064c-1.641.758-3.369 1.314-5.144 1.654-2.899.665-4.416 1.39-4.416 3.709 0 1.593 1.717 3.187 4.086 3.187 2.97 0 5.275-1.785 5.474-5.363v-3.187zM22.15 35.958h-7.645v7.155h7.644c3.034 0 4.945-.86 4.945-3.908 0-2.386-1.979-3.247-4.945-3.247z" transform="translate(-333.000000, -5450.000000) translate(0.000000, 5420.000000) translate(333.000000, 30.000000)"></path>
                </g>
            </g>
        </g>
    </g>
</svg>