<svg class="w-full"
    xmlns="http://www.w3.org/2000/svg" viewBox="0 0 360 52">
    <g fill="none" fill-rule="evenodd">
        <g fill-rule="nonzero">
            <g>
                <g>
                    <path fill="#EDA401" d="M46.158 21.746c.09 10.546-8.524 20.493-19.21 22.26-5.852.96-10.235.24-13.806-3.205 3.541 5.033 9.844 7.76 17.018 6.591 10.955-1.797 19.81-12.044 19.72-22.83-.06-7.07-3.902-12.642-9.635-15.13 4.142 2.787 5.883 6.562 5.913 12.314zM316.733 33.273c-4.56-.33-7.123 7.68-1.52 7.92 4.56.39 7.182-7.68 1.52-7.92zM321.447 40.214L327.803 40.214 331.873 18.866 325.516 18.866zM330.145 9.443c-4.567-.33-7.134 7.682-1.522 7.922 4.567.36 7.164-7.712 1.522-7.922z" transform="translate(-490 -35) translate(490 35) translate(3.612)"></path>
                    <path fill="#1A3057" d="M76.343 21.267c-2.874-4.065-9.437-4.095-12.885-.873.453-.783 2.087-9.877 2.329-10.961h-6.473l-5.959 30.534h6.14l.363-1.807c8.893 8.943 23.471-7.8 16.485-16.893zm-4.96 8.07c-.576 6.143-10.647 7.528-9.83 0 .695-6.293 11.19-7.408 9.83 0zM96.775 19.29c-2.633-1.982-7.062-.481-9.307 1.83l.39-2.07h-6.076l-4.1 21.164h6.404c1.227-4.924 1.557-19.364 10.115-14.95l2.843-5.765-.269-.21zM114.941 21.2c-7.819-9.06-23.155 2.127-20.59 12.706 2.295 10.032 16.333 7.904 20.65.517l-4.92-2.706c-1.872 3.77-9.299 4.773-9.57-.577h15.155c.936-3.283 1.268-7.144-.725-9.94zm-8.332 2.28c1.841-.061 3.472.942 3.713 2.735H101.9c.996-1.641 2.808-2.766 4.71-2.736z" transform="translate(-490 -35) translate(490 35) translate(3.612)"></path>
                    <path fill="#1A3057" d="M129.452 18.396c-4.015-.03-7.524 1.644-10.32 4.632l4.074 3.227c2.082-2.839 8.507-4.034 8.358.538-17.875-6.186-20.314 21.873-2.26 11.654l-.327 1.673h6.275c1.012-7.5 7.585-22.47-5.8-21.724zm1.16 13.387c-.505 2.002-2.706 3.765-4.818 3.795-.743 0-1.547-.06-2.082-.657-.624-.688-.595-1.465-.387-2.032.714-2.032 5.414-2.45 7.287-1.106zM161.374 19.727L161.585 18.682 154.16 18.682 146.615 24.888 149.663 9.433 143.204 9.433 137.258 39.717 143.717 39.717 145.045 32.974 147.158 31.244 150.84 39.717 158.054 39.717 158.265 38.733 152.591 26.828zM160.096 40.214L166.452 40.214 170.521 18.866 164.195 18.866zM169.283 8.946c-4.56-.33-7.123 7.68-1.52 7.92 4.56.39 7.182-7.68 1.52-7.92zM190.468 20.946c-2.61-3.901-9.121-2.971-12.152.12l.39-2.01h-6.09l-4.08 21.158h6.42c.24-1.14.51-2.521.78-4.232.51-3.241 1.23-7.203 2.73-9.544.9-1.41 2.1-2.01 3.75-2.01 1.951 0 2.521 1.83 2.461 2.73-.03.42-.06.9-.12 1.411-.48 4.022-2.22 10.234-2.28 11.645h6.42c.39-4.412 4.441-15.216 1.77-19.268z" transform="translate(-490 -35) translate(490 35) translate(3.612)"></path>
                    <path fill="#EDA401" d="M237.136 20.946c-2.61-3.901-9.121-2.971-12.152.12l.39-2.01h-6.09l-4.08 21.158h6.42c.24-1.14.51-2.521.78-4.232.51-3.241 1.23-7.203 2.73-9.544.9-1.41 2.1-2.01 3.75-2.01 1.95 0 2.52 1.83 2.46 2.73-.03.42-.06.9-.12 1.411-.48 4.022-2.22 10.234-2.28 11.645h6.421c.39-4.412 4.44-15.216 1.77-19.268z" transform="translate(-490 -35) translate(490 35) translate(3.612)"></path>
                    <path fill="#1A3057" d="M210.7 20.733c-4.903-5.348-13.544-.776-16.564 5.319-.509 1.045-.987 2.031-1.196 3.137-.27 1.344-.24 2.689-.06 3.854.957 6.334 9.24 9.71 14.502 4.81.03 5.498-8.91 9.054-9.957 2.51l-6.549 2.42c1.765 10.1 17.134 8.098 20.841.18 2.123-2.898 4.455-20.258 5.472-23.873h-6.16l-.328 1.643zm-9.09 13.236c-5.441-2.808.18-11.712 5.323-9.381 5.532 2.838-.21 11.742-5.322 9.381z" transform="translate(-490 -35) translate(490 35) translate(3.612)"></path>
                    <path fill="#EDA401" d="M259.434 21.2c-7.827-9.06-23.18 2.127-20.61 12.706 2.296 10.032 16.349 7.904 20.67.517l-4.926-2.706c-1.873 3.77-9.308 4.773-9.58-.577h15.171c.907-3.283 1.239-7.174-.725-9.94zm-8.371 2.249c1.843-.06 3.475.942 3.717 2.736h-8.432c1.028-1.642 2.81-2.736 4.715-2.736zM352.252 21.2c-7.82-9.06-23.156 2.127-20.59 12.706 2.295 10.032 16.333 7.904 20.65.517l-4.92-2.706c-1.873 3.77-9.3 4.773-9.571-.577h15.155c.936-3.283 1.268-7.174-.724-9.94zm-8.363 2.249c1.842-.06 3.472.942 3.713 2.736h-8.423c1.027-1.642 2.808-2.736 4.71-2.736zM289.059 18.866L283.676 30.749 282.202 18.866 275.886 18.866 269.871 30.749 269.029 18.866 261.871 18.866 264.548 40.214 271.044 40.214 277.179 28.149 278.653 40.214 285.21 40.214 296.127 18.866z" transform="translate(-490 -35) translate(490 35) translate(3.612)"></path>
                    <path fill="#EDA401" d="M304.31 26.139c-6.85-1.836 1.952-5.118 3.154-.391l6.04-2.288c-1.893-10.868-23.767-4.185-16.916 5.63 1.532 1.685 4.266 2.047 6.34 2.528 7.33 2.138-3.997 5.6-4.057-.18l-6.22 2.468c1.443 8.038 9.706 7.978 15.024 4.817 4.476-2.68 6.82-7.647 1.261-11.019-1.291-.812-3.996-1.384-4.627-1.565z" transform="translate(-490 -35) translate(490 35) translate(3.612)"></path>
                    <path fill="#1A3057" d="M26.678 49.384c-11.826 0-19.85-9.756-17.98-21.777C10.568 15.585 21.67 5.829 33.496 5.829c8.538 0 15.084 5.075 17.377 12.414C49.425 7.703 41.038 0 29.665 0 15.787 0 2.755 11.447.552 25.553-1.65 39.658 7.792 51.136 21.67 51.136c4.254 0 8.447-1.087 12.249-2.99-2.354.815-4.797 1.238-7.24 1.238z" transform="translate(-490 -35) translate(490 35) translate(3.612)"></path>
                </g>
            </g>
        </g>
    </g>
</svg>