<svg width="496" height="64" viewBox="0 0 496 64" fill="none" xmlns="http://www.w3.org/2000/svg">
<path d="M88.7986 13.7039C90.5671 13.666 92.3419 13.6597 94.1104 13.5587C94.1352 12.6688 94.0731 12.2018 94.1042 11.4507C94.2407 8.3581 94.5882 5.54318 96.5553 3.34048C98.5224 1.13778 101.017 0.519257 103.636 0.115323C106.471 -0.320168 112.273 0.418273 116.201 3.35311C115.941 5.15819 114.936 11.5896 114.936 11.5896C114.936 11.5896 113.912 11.4886 113.403 11.4381C112.156 8.16244 110.834 4.60278 109.717 1.35868C109.208 1.10622 108.172 0.910568 107.309 0.967371C106.447 1.02417 105.851 1.61745 105.652 2.55155C105.454 3.48565 105.522 4.20515 105.516 5.25917C105.516 6.31318 105.578 7.44294 105.621 8.67367C105.665 9.90441 105.727 10.6429 105.683 11.7726C105.665 12.2081 105.609 13.016 105.59 13.6219C107.899 13.7039 110.207 13.7039 112.515 13.7481C112.509 14.051 112.509 14.922 112.503 15.2187C110.195 15.1871 107.88 15.1745 105.572 15.1303C105.379 25.5 105.503 35.3396 105.503 45.7094C107.005 46.4857 108.507 47.2557 110.002 48.032C110.002 48.3097 110.002 48.5937 109.996 48.8714C103.307 48.8777 96.6111 48.8777 89.9218 48.8777C89.9218 48.6 89.9218 48.316 89.928 48.0383C91.3055 47.2431 92.6893 46.4478 94.0669 45.6463C94.0669 35.2765 94.0669 25.4748 94.1166 15.1051C92.3481 15.1303 90.5795 15.1808 88.811 15.206C88.8048 14.922 88.7986 14.0069 88.7986 13.7039ZM173.762 13.8175L178.975 13.4325L187.364 4.31876H189.84V13.6913H196.641V15.1934H189.84V40.9C189.84 42.4085 189.946 43.614 190.157 44.5165C190.368 45.419 190.709 46.0691 191.174 46.4541C191.64 46.8391 192.267 46.9906 193.049 46.9085C193.83 46.8202 194.798 46.5614 195.94 46.1322V46.9717C193.526 48.1771 191.268 48.9408 189.17 49.269C187.073 49.5909 185.23 49.4331 183.641 48.7831C182.053 48.1393 180.805 46.9969 179.893 45.3559C178.981 43.7213 178.528 41.5627 178.528 38.893V15.1871H173.893L173.762 13.8175ZM69.0035 4.14835L81.7741 1.04942H85.0754V43.4057C85.0754 44.3966 85.1374 45.2044 85.2677 45.8293C85.3919 46.4541 85.609 46.9149 85.9007 47.2178C86.1986 47.5208 86.5895 47.6912 87.0735 47.7353C87.5575 47.7795 88.1656 47.7164 88.8855 47.5397L88.8234 48.4422C86.1551 49.086 83.8653 49.4016 81.9603 49.3763C80.0553 49.3511 78.4977 49.0544 77.2877 48.4738C76.0776 47.8931 75.1902 47.0663 74.6194 45.9871C74.0485 44.9078 73.763 43.6203 73.763 42.1118V6.67294L69.1276 4.93097L69.0035 4.14835ZM69.5992 31.5338C69.6613 30.7386 69.6985 30.0569 69.6613 29.2238C69.5806 27.1095 69.2766 24.5912 68.4512 22.7167C67.6197 20.8359 66.7199 19.561 65.2679 18.305C63.8158 17.049 62.2955 16.3169 60.4587 15.7488C58.622 15.1808 56.4129 14.941 54.5016 14.941C51.9946 14.941 49.3326 15.3449 47.1669 16.2727C44.995 17.2005 43.4499 18.2924 41.9606 19.927C40.4713 21.5554 39.5839 23.2216 38.8889 25.3233C38.1939 27.425 37.8837 29.6088 37.8837 31.9062C37.8837 34.2036 38.256 36.665 39.0875 38.8362C39.919 41.0073 40.9864 42.8187 42.6122 44.4723C44.238 46.1259 45.9755 47.2746 48.2032 48.1961C50.4371 49.1176 53.0682 49.5341 55.5627 49.5404C58.0573 49.5467 60.6325 49.0481 62.9285 48.1961C65.2245 47.344 67.1605 46.3468 69.2828 45.2297C69.1462 44.952 68.8732 44.3966 68.7429 44.1252C65.6588 45.7725 62.6306 47.1673 60.5642 47.3756C58.4979 47.5902 55.935 47.445 53.608 45.0656C51.281 42.6925 50.2137 38.5332 49.6925 35.0114C49.6801 34.9104 49.5559 34.2162 49.5932 34.0458C56.2329 33.503 64.5853 32.9854 69.5992 31.5338ZM49.5249 32.4174C49.0533 28.9209 49.0843 24.2188 49.86 21.1893C50.6357 18.1598 51.3555 16.1906 54.0548 16.0139C57.2196 15.8056 57.8277 19.9018 58.1069 21.2587C58.5165 23.2216 58.7274 25.2413 58.8205 26.7245C58.9136 28.2077 59.0936 29.8171 59.1122 31.4202C56.2081 31.9125 51.7402 32.2912 49.5249 32.4174ZM36.0221 34.6895C35.6808 31.6285 34.5514 29.3248 32.6215 27.7722C30.6917 26.2196 28.3088 25.3359 25.473 25.1214C28.2281 24.1305 30.2139 22.824 31.4487 21.2146C32.6774 19.5988 33.3972 17.819 33.6082 15.8814C33.7757 14.3729 33.7013 12.8771 33.3848 11.3876C33.0683 9.8981 32.4106 8.55376 31.4177 7.34827C30.4248 6.14278 29.0535 5.17081 27.3222 4.43868C25.5847 3.70655 23.4252 3.34048 20.8438 3.34048H0V4.17991L3.87835 7.67015V44.5733L0 48.1267V48.9661H19.7578C25.6467 48.9661 29.9346 47.6849 32.6277 45.1224C35.3147 42.5663 36.4502 39.0823 36.0221 34.6895ZM15.3086 4.94991H18.7402C19.4414 4.94991 20.3846 5.08876 20.9307 5.36646C21.4457 5.63155 21.8677 6.09228 22.2152 6.77392C22.5875 7.50605 22.8729 8.52851 23.0777 9.81605C23.2825 11.1288 23.3631 12.8203 23.3259 14.84C23.2825 16.563 23.1398 18.0778 22.8915 19.3527C22.6557 20.5771 22.2586 21.6374 21.7125 22.4895C21.1851 23.31 20.4342 23.9664 19.4848 24.4271C18.6409 24.8373 17.2447 25.1087 15.3148 25.2223V4.94991H15.3086ZM23.9092 44.6238C23.1398 46.473 21.2595 47.3756 19.4414 47.3756H15.3086V26.8002C16.3263 26.756 17.2881 26.6929 18.2003 26.6046C19.1125 26.5162 19.9874 26.4089 20.8376 26.2827C20.8438 26.289 20.8562 26.2953 20.8624 26.2953C21.8242 26.775 22.6123 27.6712 23.2204 28.9966C23.3135 29.1986 23.4066 29.4826 23.4997 29.8045C23.9589 31.0226 24.294 32.7014 24.5049 34.7968C24.5111 34.8473 24.5173 34.8789 24.5173 34.8789H24.5111C24.5111 34.8978 24.5173 34.9168 24.5173 34.942C24.9393 39.3853 24.7283 42.642 23.9092 44.6238ZM324.98 31.5464C325.043 30.7512 325.08 30.0695 325.043 29.2364C324.962 27.1221 324.658 24.6038 323.832 22.7293C323.001 20.8485 322.101 19.5736 320.649 18.3176C319.197 17.0616 317.677 16.3295 315.84 15.7614C314.003 15.1934 311.794 14.9536 309.883 14.9536C307.376 14.9536 304.714 15.3575 302.548 16.2853C300.376 17.2131 298.831 18.305 297.342 19.9396C295.853 21.568 294.965 23.2342 294.27 25.3359C293.575 27.4377 293.265 29.6214 293.265 31.9188C293.259 34.2162 293.637 36.6777 294.469 38.8488C295.3 41.0199 296.368 42.8313 297.993 44.4849C299.619 46.1385 301.357 47.2872 303.584 48.2087C305.818 49.1302 308.449 49.5467 310.944 49.5531C313.439 49.5594 316.014 49.0608 318.31 48.2087C320.606 47.3567 322.542 46.3594 324.664 45.2423C324.527 44.9646 324.254 44.4092 324.124 44.1378C321.04 45.7851 318.012 47.1799 315.945 47.3882C313.879 47.6028 311.316 47.4576 308.989 45.0782C306.662 42.7051 305.595 38.5458 305.074 35.0241C305.061 34.9231 304.937 34.2288 304.974 34.0584C311.62 33.5156 319.973 32.9981 324.98 31.5464ZM304.906 32.43C304.435 28.9335 304.466 24.2314 305.241 21.2019C306.017 18.1724 306.737 16.2033 309.436 16.0265C312.601 15.8183 313.209 19.9144 313.488 21.2714C313.898 23.2342 314.109 25.2539 314.202 26.7371C314.295 28.2203 314.475 29.8297 314.493 31.4328C311.589 31.9251 307.121 32.3038 304.906 32.43ZM272.899 31.5464C272.961 30.7512 272.998 30.0695 272.961 29.2364C272.88 27.1221 272.576 24.6038 271.751 22.7293C270.919 20.8485 270.02 19.5736 268.568 18.3176C267.116 17.0616 265.595 16.3295 263.759 15.7614C261.922 15.1934 259.713 14.9536 257.801 14.9536C255.294 14.9536 252.632 15.3575 250.467 16.2853C248.295 17.2131 246.75 18.305 245.26 19.9396C243.771 21.568 242.884 23.2342 242.189 25.3359C241.494 27.4377 241.183 29.6214 241.183 31.9188C241.177 34.2162 241.556 36.6777 242.387 38.8488C243.219 41.0199 244.286 42.8313 245.912 44.4849C247.538 46.1385 249.275 47.2872 251.503 48.2087C253.737 49.1302 256.368 49.5467 258.862 49.5531C261.357 49.5594 263.932 49.0608 266.228 48.2087C268.524 47.3567 270.46 46.3594 272.582 45.2423C272.446 44.9646 272.173 44.4092 272.043 44.1378C268.959 45.7851 265.93 47.1799 263.864 47.3882C261.798 47.6028 259.235 47.4576 256.908 45.0782C254.581 42.7051 253.513 38.5458 252.992 35.0241C252.98 34.9231 252.856 34.2288 252.893 34.0584C259.539 33.5156 267.891 32.9981 272.899 31.5464ZM252.825 32.43C252.353 28.9335 252.384 24.2314 253.16 21.2019C253.935 18.1724 254.655 16.2033 257.355 16.0265C260.519 15.8183 261.127 19.9144 261.407 21.2714C261.816 23.2342 262.027 25.2539 262.12 26.7371C262.213 28.2203 262.393 29.8297 262.412 31.4328C259.508 31.9251 255.04 32.3038 252.825 32.43ZM387.388 16.8786C387.388 16.8786 386.928 16.4683 386.68 16.279C386.227 15.9319 385.687 15.6163 385.086 15.3449C384.477 15.0672 383.77 14.8589 382.988 14.7264C382.591 14.6569 382.163 14.6191 381.728 14.6191C381.3 14.6191 380.841 14.6506 380.382 14.7201C378.57 14.9599 377.105 15.8877 376.02 17.4845C375.138 18.7783 374.636 20.1984 374.487 21.852C374.487 21.852 374.462 22.3506 374.462 22.906L369.988 16.4999H369.169L361.536 19.7629V20.5329L364.868 22.3254V45.4822L361.536 47.9752V48.9345H381.977V47.9752L376.063 45.0972V25.1971L376.02 24.7995C375.852 22.4958 376.001 21.2524 376.504 20.2741C377.006 19.2959 377.701 18.7594 378.582 18.6773C378.706 18.6773 378.843 18.6773 378.992 18.6773C379.141 18.6773 379.277 18.6963 379.401 18.7405L383.789 29.1039H385.359L387.388 16.8786ZM229.542 1.73737C234.134 1.78155 239.26 2.00245 242.319 2.29909C245.378 2.59573 247.997 2.89868 250.181 3.19532L248.456 14.1899H246.83L241.463 3.49196L235.046 3.15114V44.8195L240.582 48.0825V48.9156H218.255V48.0825L223.852 44.8195L223.846 3.15114L217.436 3.49196L212.049 14.1836H210.442L208.717 3.18901C210.895 2.89237 213.52 2.58942 216.579 2.29278C219.638 1.99614 224.764 1.77524 229.356 1.73106H229.542V1.73737ZM272.514 4.21146L285.155 1.14409H288.425V43.0649C288.425 44.0431 288.487 44.8447 288.611 45.4632C288.735 46.0817 288.946 46.5425 289.238 46.8391C289.529 47.1358 289.92 47.3062 290.398 47.3503C290.882 47.3945 291.478 47.3314 292.191 47.161L292.129 48.0572C289.486 48.6947 287.227 49.004 285.341 48.985C283.454 48.9661 281.915 48.6631 280.718 48.0888C279.52 47.5144 278.645 46.694 278.074 45.6273C277.51 44.5607 277.224 43.2858 277.224 41.7899V6.71081L272.632 4.98146L272.514 4.21146ZM458.079 27.9489C457.763 24.9257 456.764 21.3787 454.623 18.9614C451.334 15.2439 447.735 14.152 442.746 15.326C440.648 15.8183 438.569 17.1626 436.41 18.8099C435.529 17.9768 433.531 16.2096 432.054 15.5153C431.775 15.5153 431.489 15.5153 431.21 15.5153C428.144 16.6198 425.079 17.7117 422.02 18.8414C422.02 19.0939 422.02 19.3653 422.026 19.6114C423.174 20.3246 424.328 20.5077 425.47 21.5554C425.538 30.4104 425.544 49.5404 425.464 55.9718C425.383 62.4032 425.464 56.1296 425.414 60.1374C424.136 60.9894 423.1 61.7216 421.945 62.4158C421.939 62.7566 421.945 63.0659 421.927 63.4004C423.162 63.413 424.117 63.4193 425.389 63.432C426.655 63.4446 426.686 63.4446 428.449 63.4635C430.211 63.4825 434.443 63.5203 436.484 63.5393C438.526 63.5582 439.885 63.5708 441.771 63.5898C441.771 63.331 441.815 63.0722 441.833 62.8134C440.146 61.8857 438.452 60.9579 436.764 60.0364C436.807 56.2369 436.937 52.4374 437.037 48.6505C438.439 48.7326 440.363 48.7767 442.187 48.6C445.613 48.2655 451.75 46.2648 455.318 41.6258C458.005 38.1167 458.563 32.5689 458.079 27.9489ZM447.114 40.4582C446.413 43.229 445.644 45.2739 443.199 46.3405C440.996 47.2999 438.178 47.2115 437.099 44.6617C437.235 36.2737 437.192 28.9524 436.962 20.5203C437.682 19.8892 439.004 19.1696 441.101 19.1381C444.092 19.0876 446.816 21.4418 447.685 27.5765C448.386 32.5626 447.809 37.6875 447.114 40.4582ZM478.966 47.8111L481.982 45.5705V22.5463C481.982 20.5014 481.709 19.7945 481.163 18.9424C480.617 18.0904 479.612 17.6612 478.147 17.6612C477.309 17.6612 476.441 17.9074 475.535 18.3996C474.635 18.8919 473.766 19.6872 472.922 20.798V46.0817L475.752 47.8111V48.6442H458.52V47.8111L461.728 44.8068V10.7691L457.893 9.29851L457.831 8.40228L469.906 4.63433H472.922V18.4564C475.063 16.1528 477.849 15.0041 481.287 15.0041C485.519 15.0041 488.498 16.0265 490.217 18.0714C491.935 20.1164 492.792 23.2342 492.792 27.4124V45.4506L496 47.8805V48.6505H478.966V47.8111ZM355.858 44.283C354.357 43.4877 352.557 42.9576 350.46 42.6988C348.362 42.44 346.023 42.5031 343.448 42.8945C342.597 43.0207 341.847 43.1532 341.195 43.2795C340.537 43.4057 339.935 43.5824 339.383 43.797C338.452 43.6266 337.857 43.4183 337.248 43.027C336.634 42.642 336.156 42.2128 335.821 41.7331C335.48 41.2598 335.281 40.7675 335.219 40.2499C335.157 39.7324 335.232 39.259 335.443 38.8299C335.629 38.8993 335.641 38.893 335.834 38.9561C338.024 39.6819 340.525 40.048 343.324 40.048C345.818 40.048 348.052 39.745 350.019 39.1454C351.986 38.5458 353.662 37.7064 355.033 36.6272C356.411 35.5542 357.453 34.2793 358.173 32.815C358.893 31.3508 359.253 29.7603 359.253 28.0373C359.253 26.4846 358.986 25.033 358.458 23.676C357.931 22.3191 357.18 21.1073 356.206 20.028C356.119 19.3401 356.113 18.6963 356.175 18.0904C356.237 17.4908 356.448 16.9922 356.808 16.6072C357.168 16.2222 357.683 15.9319 358.365 15.7362C358.824 15.6037 359.526 15.509 360.059 15.5342C360.214 14.638 361.083 9.46261 361.083 9.46261C359.011 8.42753 357.317 7.93523 355.858 7.89105C354.4 7.84687 353.327 8.22556 352.65 9.0208C351.974 9.81605 351.732 11.0026 351.918 12.5742C352.11 14.1457 352.836 16.0265 354.108 18.2229C352.712 17.1878 351.105 16.3926 349.281 15.8309C347.462 15.2692 345.471 14.9915 343.311 14.9915C338.316 14.9915 334.413 16.1528 331.595 18.4754C328.778 20.798 327.376 23.9664 327.376 27.9678C327.376 30.2904 327.959 32.3606 329.119 34.1657C330.218 35.8761 331.825 37.2204 333.929 38.1987C333.016 39.8965 333.159 42.6231 333.308 43.5256C333.457 44.4281 333.761 45.2676 334.226 46.0439C334.692 46.8202 335.325 47.445 336.132 47.9184C337.149 47.9184 338.353 47.9436 339.749 47.9815C341.145 48.0257 342.542 48.1519 343.938 48.3665C347.45 48.7957 349.969 49.8749 351.49 51.598C353.016 53.321 353.587 55.2586 353.202 57.4108C352.905 59.1339 351.943 60.5224 350.317 61.5764C348.685 62.6304 346.203 63.1164 342.858 63.028C340.655 62.9839 338.837 62.5862 337.397 61.8352C335.958 61.0841 334.94 60.1248 334.351 58.9634C333.755 57.8021 333.6 56.5209 333.873 55.1198C334.146 53.7186 334.897 52.3553 336.125 51.0173L332.886 50.8217C331.192 51.2508 329.852 51.8757 328.853 52.6962C327.86 53.5103 327.214 54.4066 326.917 55.3785C326.619 56.3442 326.718 57.3477 327.202 58.3828C327.686 59.4179 328.586 60.3394 329.901 61.1598C331.211 61.974 332.961 62.6557 335.139 63.1921C337.317 63.7286 339.973 64 343.106 64C345.731 64 348.108 63.7097 350.249 63.129C352.383 62.5484 354.214 61.7279 355.74 60.6739C357.267 59.6198 358.44 58.3576 359.265 56.8996C360.09 55.4353 360.5 53.8196 360.5 52.0587C360.5 50.2915 360.097 48.7578 359.296 47.445C358.514 46.1385 357.36 45.0845 355.858 44.283ZM338.763 19.3022C339.569 17.5287 340.674 16.6703 342.145 16.6703C343.721 16.6703 345.055 17.4782 346.221 19.1381C347.45 20.8927 348.269 23.9096 348.654 28.0941C348.946 31.7736 348.753 34.5002 348.095 36.198C347.5 37.7317 346.346 38.4449 344.465 38.4449C343.628 38.4449 342.864 38.3123 342.194 38.0472C341.561 37.8011 340.978 37.3151 340.463 36.6082C339.911 35.8508 339.427 34.7716 339.023 33.402C338.614 32.0009 338.279 30.1516 338.037 27.911C337.639 24.1241 337.888 21.2272 338.763 19.3022ZM144.293 46.29C143.381 46.5551 142.655 46.5425 142.134 46.2395C141.296 45.7472 140.874 44.4786 140.874 42.4337V27.2105C140.874 22.9881 139.776 19.8892 137.585 17.901C135.388 15.9192 132.1 14.9283 127.712 14.9283C125.454 14.9283 123.052 15.2692 120.496 15.9508C117.939 16.6324 115.469 17.8695 113.08 19.6619L114.42 28.0436H115.407L121.265 17.4151C122.401 16.9228 123.958 16.4873 125.503 16.5314C127.042 16.5756 127.892 16.948 128.562 17.7811C129.226 18.6142 129.562 19.4915 129.562 21.4544V29.0029C125.454 29.5141 122.165 30.1642 119.689 30.9532C117.213 31.7421 115.308 32.6383 113.968 33.6418C112.627 34.6454 111.734 35.7183 111.293 36.8733C110.852 38.022 110.635 39.2212 110.635 40.4582C110.635 41.9919 110.939 43.3236 111.547 44.4534C112.156 45.5831 112.975 46.5109 113.999 47.2367C115.022 47.9626 116.251 48.4927 117.678 48.8335C119.106 49.1744 120.632 49.3006 122.27 49.2185C124.157 49.1302 125.751 48.7073 127.048 47.9373C128.345 47.1673 129.394 46.1449 130.195 44.8699C130.784 46.107 131.69 47.0537 132.931 47.7164C134.166 48.3791 135.55 48.7578 137.082 48.8651C138.615 48.9724 140.173 48.8083 141.767 48.3854C142.717 48.133 143.61 47.7795 144.467 47.3377L144.293 46.29ZM127.346 45.5768C126.682 46.0502 125.981 46.3026 125.212 46.3405C124.715 46.3405 124.256 46.2585 123.84 46.1007C123.468 45.9618 123.127 45.6652 122.816 45.2234C122.475 44.7374 122.208 44.0684 122.022 43.2353C121.83 42.3643 121.73 41.2156 121.73 39.8145C121.73 38.3565 121.817 37.0879 121.997 36.0402C122.165 35.0619 122.512 34.2288 123.04 33.5661C123.561 32.9097 124.337 32.3669 125.342 31.9441C126.242 31.5654 127.427 31.2435 129.605 30.8964L129.692 43.1469C128.78 44.3524 127.992 45.1224 127.346 45.5768ZM422.088 46.29C421.176 46.5551 420.45 46.5425 419.929 46.2395C419.091 45.7472 418.669 44.4786 418.669 42.4337V27.2105C418.669 22.9881 417.571 19.8892 415.38 17.901C413.183 15.9192 409.895 14.9283 405.507 14.9283C403.249 14.9283 400.847 15.2692 398.291 15.9508C395.734 16.6324 393.264 17.8695 390.875 19.6619L392.215 28.0436H393.202L399.06 17.4151C400.196 16.9228 401.753 16.4873 403.298 16.5314C404.837 16.5756 405.687 16.948 406.357 17.7811C407.021 18.6142 407.357 19.4915 407.357 21.4544V29.0029C403.249 29.5141 399.96 30.1642 397.484 30.9532C395.008 31.7421 393.103 32.6383 391.762 33.6418C390.422 34.6454 389.529 35.7183 389.088 36.8733C388.647 38.022 388.43 39.2212 388.43 40.4582C388.43 41.9919 388.734 43.3236 389.342 44.4534C389.951 45.5831 390.77 46.5109 391.793 47.2367C392.817 47.9626 394.046 48.4927 395.473 48.8335C396.901 49.1744 398.427 49.3006 400.065 49.2185C401.952 49.1302 403.546 48.7073 404.843 47.9373C406.14 47.1673 407.189 46.1449 407.989 44.8699C408.579 46.107 409.485 47.0537 410.726 47.7164C411.961 48.3791 413.345 48.7578 414.877 48.8651C416.41 48.9724 417.968 48.8083 419.562 48.3854C420.512 48.133 421.405 47.7795 422.262 47.3377L422.088 46.29ZM405.135 45.5768C404.471 46.0502 403.77 46.3026 403 46.3405C402.504 46.3405 402.045 46.2585 401.629 46.1007C401.257 45.9618 400.915 45.6652 400.605 45.2234C400.264 44.7374 399.997 44.0684 399.811 43.2353C399.618 42.3643 399.519 41.2156 399.519 39.8145C399.519 38.3565 399.606 37.0879 399.786 36.0402C399.954 35.0619 400.301 34.2288 400.829 33.5661C401.35 32.9097 402.125 32.3669 403.131 31.9441C404.03 31.5654 405.216 31.2435 407.394 30.8964L407.481 43.1469C406.568 44.3524 405.78 45.1224 405.135 45.5768ZM174.004 33.8817C173.601 32.6131 172.881 31.5023 171.845 30.5555C170.809 29.6088 169.406 28.8451 167.65 28.2582C165.894 27.6775 163.722 27.2546 161.134 26.9959C157.659 26.6487 154.83 25.7967 153.893 25.1214C152.956 24.446 151.882 23.4741 151.926 21.9278C151.969 21.2398 152.168 20.5519 152.528 19.8576C152.887 19.1696 153.427 18.5574 154.147 18.0146C154.867 17.4782 155.754 17.0427 156.815 16.7208C157.877 16.3989 159.124 16.2348 160.563 16.2348C162.195 16.2348 163.908 16.5693 165.404 17.4087L170.225 25.5695H171.559L172.72 18.1219L172.323 18.0146C170.585 16.8975 168.724 16.0896 166.732 15.591C164.74 15.0987 162.704 14.8463 160.632 14.8463C158.596 14.8463 156.778 15.1303 155.165 15.6857C153.551 16.2474 152.186 16.9985 151.069 17.9452C149.946 18.8919 149.077 20.0028 148.463 21.2714C147.849 22.54 147.501 23.8906 147.414 25.3107C147.116 31.2561 150.889 34.9168 158.727 36.299C160.93 36.6461 162.729 37.0311 164.125 37.4603C165.522 37.8895 166.601 38.3881 167.365 38.9435C168.128 39.5052 168.668 40.13 168.891 40.8495C169.518 42.8881 169.046 44.8131 166.974 46.2585C166.229 46.776 165.249 47.2052 164.02 47.5523C162.791 47.8994 161.116 48.1645 159.087 47.9626C157.057 47.7606 155.481 47.2557 154.042 46.6119L148.494 37.8453H147.284L146.012 46.1007L147.346 46.4415C149.084 47.4324 150.976 48.1961 153.03 48.7389C155.084 49.2753 157.194 49.5467 159.353 49.5467C161.935 49.5467 164.169 49.2438 166.055 48.6442C167.935 48.0446 169.493 47.2304 170.74 46.2017C170.746 46.1953 170.753 46.1954 170.753 46.189C172 45.154 172.925 43.9611 173.514 42.6041C174.11 41.2472 174.445 39.7955 174.532 38.2429C174.588 36.6082 174.408 35.1566 174.004 33.8817Z" fill="black"/>
</svg>
