<svg class="masthead__svg" width="179" height="36" enable-background="new 0 0 834.1 135.8" version="1.1" viewBox="0 0 834.1 135.8" xml:space="preserve"
    xmlns="http://www.w3.org/2000/svg">
    <g fill="#222">
        <path d="m46.8 63.6c-0.3 3.4-0.2 17.3-27.5 29.6-0.7 0.3-2.5 1.3-3.2 1.9-2.6 2.3-8.8 7.9-9.8 8.8 0 0-1.5 1.6-2.5 0.3-0.8-1 0.7-2.1 0.7-2.1s8.8-8.9 12.7-10.7c4.2-2 26.8-13.3 26.8-27.9v-28.1s-0.1-6.4 1.7-6.4c1.6 0 1.3 6.4 1.3 6.4l-0.2 28.2m0 9.8s2.7-5 2.7-16.1v-21.9s0-6.4 1.8-6.4c1.6 0 1.1 6.4 1.1 6.4s0 18.1 0 21.5c0 2.4-0.4 10.2-1 16.4 0 0 0.2 4.5-4.9 4.5-2.9 0 0.3-4.4 0.3-4.4zm-27.3-5.8c0.5 1.3 1.3 3.3 2.5 3.3 0 0 2.7 0.3 2.7-7.2 0 0 0.3-4.2-0.1-7-0.4-2.7-1.9-11.9 0.9-11.9 0 0 1.1-0.1 1 1.8 0 2.4 0.4 7.3 0.5 9.9 0 2.1 0.3 8-0.2 10.8-0.5 2.7-3.6 14-8.1 14 0 0-1.4 0-0.6-2 0 0 1.2-4.6-0.3-8.8-1.4-4.2-4-6.1-5.8-7.3 0 0-0.8-0.2-0.8-1.4s3.4 0 4.2 0.6c0 0 1.8 1.1 3.5 4.3 0.1-0.1 0.4 0.2 0.6 0.9zm59.9 16c-2.6 0-2.3-4.8-2.3-4.8v-38.6s1.8-15.1-22.1-15.1c0 0-13.9 0.8-19.8 1s-15.8 1.1-22.3-8c0 0-1.6-2.5 0.5-2.5 1.4 0 5.4 8.5 21.7 6.9 16.3-1.7 18.7-1.4 20.3-1.5s26.4-1.5 26.4 19.1v39.3s0.2 4.2-2.4 4.2zm-16.3-34.5s-6.6 0.6-8-4.6v-15.5h4.7s13.9-0.3 13.9 9.8v2.5c-0.4 2.3-2.1 7.8-10.6 7.8zm10.4 6.5c0.1 0.9 0.1 1 0.1 2.3 0 1.4-0.4 2.7-2 2.7s-6.9-2.1-9-2.1-4.2 0.7-6.1 0.7c-1.7 0-1.6-2.9-1.6-3.7v-0.6c0-1.2 0.2-3.1 1.6-3.1 2 0 4 0.7 6.1 0.7s7.5-2.1 9-2.1c1.6 0 2 1.3 2 2.7 0.1 1.3-0.1 2.5-0.1 2.5zm-2.7 25c-4.9-1.2-10.2-2.5-12.7-2.5 0 0-2.7 0.3-2.7-2.4v-7.2c0.3-2.3 1.7-6.5 8.3-6.5 0 0 10.3 0.6 10.3 7.7v8.9s0.5 3-3.2 2zm1.6 21.3c-0.6 1.6-1.8 1.1-2.9 0.8 0 0-4.1-1.1-7.6-2.2s-10.8-2.4-14.1-2.6-18.4-0.6-23.9 0.6c0 0-0.8 0.3-0.8 0s0.7-0.5 0.7-0.5 10.9-4.2 23.8-3.3c13 0.8 23.4 5.3 23.4 5.3s1.8 0.7 1.4 1.9zm25.9-14.3v-52.4c0-14.3-8.3-22.7-20.6-27.8-12.2-5.1-38-2.6-49.8-2.6s-15-4.3-15.3-4.6c-0.4-0.4-0.6 0.1-0.6 0.1-3.2 4.9-3.4 11.6-3.4 11.6 0 17.1 23.9 17.2 24.4 17.7s-0.5 1.6-0.5 1.6-5.9 5.2-8.8 8.9-1.8 9.8-2.9 10.6c-1.1 0.9-2.8 0.3-2.8 0.3-3.7-1.2-8-0.3-8-0.3-6.7 3-6.6 5.3-6.6 6.2s-1.1 2-1.1 2c0 1.2 3.1 1.2 3.1 2.5 0 1.2-2.7 0.4-2.7 1.2s0.7 0.9 0.7 0.9 12.3-0.3 12.3 12.2c0.1 12.4-15.7 22.5-15.7 27.6s3.8 4.7 3.8 4.7c4.7 0 7.3-1.8 7.3-1.8 9.5-3.7 29.4-4.6 29.4-4.6 17.4 0 29.4 6.4 30.8 6.4s2.4-0.8 3.2-2.7c0.9-2 4.7-7.9 7.4-9.5s11.2-2.1 11.2-2.1c5.9-0.1 5.2-6.1 5.2-6.1z"></path>
        <path d="m207.3 56.9c-0.5 0.6-1.3 0.7-1.7 0.3l-8.6-7.5c-0.4-0.4-0.4-1.2 0.1-1.7 0.5-0.6 1.3-0.7 1.7-0.3l8.6 7.5c0.4 0.4 0.4 1.2-0.1 1.7m-25.7 47.6c-0.4 0-3.1-2.3-4.9-3.6s-9.7-6.3-9.7-6.3-1.6-0.5-1.6-1.1 1.4-0.9 1.8-1.2c0.9-0.6 2.6-1.2 2.6-4.1v-34.5s-0.2-2.1-1.7-3.3l-2.2-1.8s-0.9-0.8 0.3-1.7c0 0 1.2-0.8 2.6 0.4s3.9 3.5 3.9 4.3v38.7s0.1 0.8-1.5 2.2c-1.9 1.7 0.8 2.3 1.8 3s9.1 6.6 9.1 6.6 0.5 0.7 0.5 1.4-0.6 1-1 1zm40.7-61.3c0-0.4-0.6-1.3-1.1-1.3-0.4 0-0.7 0.2-1.4 0.5s-2.4 1.2-3 1.2-1.1-0.4-1.1-0.4-0.1-0.1-0.2-0.2c-2.1-2.1-6.2-6.2-6.8-6.6-0.7-0.6-2.7-2.3-4.6-2.3-1.8 0-2.7 1.2-2.7 1.2s-9.8 12.1-10.2 12.5-0.7 1.2-1.8 1.2c-1 0-0.8-1.3-0.8-2s-0.8-2-0.8-2-9.8-8-11.1-9-2.3-1.9-3.4-1.9c-1.2 0-2 0.7-2 0.7s-9 10.5-9.5 11.2-2.5 2.9-2.5 4.1c0 1.1 0.5 1.8 0.9 1.8s0.8-0.4 0.8-0.4c0.6-0.5 1.8-0.6 1.8-0.6 3.7 0.6 4.3 4.2 4.3 4.2v30.2c0 3.5-1.5 4.4-1.5 4.4s-3.3 2.3-3.3 3.9c0 1.7 2.5 2.4 2.5 2.4 2.3 0.9 10 6.4 11.1 7.1 1 0.7 5.8 4.9 6.7 4.9s1.8-0.7 1.8-0.7 14.5-16.5 14.9-16.9 0.6-0.8 0.6-1.3c0-0.4-0.7-1.3-1.1-1.3s-0.7 0.2-1.4 0.5-2.4 1.3-2.9 1.3c-0.6 0-1.1-0.3-1.1-0.3s-4-2.4-4.6-2.9-0.5-2.1-0.5-2.1 0-24.5 0-25.6 0.4-1.4 0.4-1.4 4.1-5.3 4.4-5.7 1.1-0.7 1.6-0.7 1.1 0.5 1.1 0.5 6.5 5.7 7.9 6.7 2.7 1.9 3.1 1.9 1-0.5 1-0.5 2.1-2.5 4.5-5.1c1-1.1 2-2.2 3-3.2l0.3-0.3c3.1-3.3 5.8-6.1 6-6.3 0.5-0.6 0.7-1 0.7-1.4z"></path>
        <path d="m268.7 56.9c-0.5 0.6-1.3 0.7-1.7 0.3l-8.6-7.5c-0.4-0.4-0.4-1.2 0.1-1.7 0.5-0.6 1.3-0.7 1.7-0.3l8.6 7.5c0.4 0.4 0.4 1.2-0.1 1.7m-25.8 47.6c-0.4 0-3.1-2.3-4.9-3.6s-9.7-6.3-9.7-6.3-1.6-0.5-1.6-1.1 1.4-0.9 1.8-1.2c0.9-0.6 2.6-1.2 2.6-4.1v-34.5s-0.2-2.1-1.7-3.3l-2.3-1.8s-0.9-0.8 0.3-1.7c0 0 1.2-0.8 2.6 0.4s3.9 3.5 3.9 4.3v38.7s0.1 0.8-1.5 2.2c-1.9 1.7 0.8 2.3 1.8 3s9.1 6.6 9.1 6.6 0.5 0.7 0.5 1.4c0.2 0.7-0.5 1-0.9 1zm40.8-61.3c0-0.4-0.6-1.3-1.1-1.3-0.4 0-0.7 0.2-1.4 0.5s-2.4 1.2-3 1.2-1.1-0.4-1.1-0.4-0.1-0.1-0.2-0.2c-2.1-2.1-6.2-6.2-6.8-6.6-0.7-0.6-2.7-2.3-4.6-2.3-1.8 0-2.7 1.2-2.7 1.2s-9.8 12.1-10.2 12.5-0.7 1.2-1.8 1.2c-1 0-0.8-1.3-0.8-2s-0.8-2-0.8-2-10-8.2-11.3-9.2-2.3-1.9-3.4-1.9c-1.2 0-2 0.7-2 0.7s-9 10.5-9.5 11.2-2.5 2.9-2.5 4.1c0 1.1 0.5 1.8 0.9 1.8s0.8-0.4 0.8-0.4c0.6-0.5 1.8-0.6 1.8-0.6 3.7 0.6 4.3 4.2 4.3 4.2v30.2c0 3.5-1.5 4.4-1.5 4.4s-3.3 2.3-3.3 3.9c0 1.7 2.5 2.4 2.5 2.4 2.3 0.9 10 6.4 11.1 7.1 1 0.7 5.8 4.9 6.7 4.9s1.8-0.7 1.8-0.7 14.5-16.5 14.9-16.9 0.6-0.8 0.6-1.3c0-0.4-0.7-1.3-1.1-1.3s-0.7 0.2-1.4 0.5-2.4 1.3-2.9 1.3c-0.6 0-1.1-0.3-1.1-0.3s-4-2.4-4.6-2.9-0.5-2.1-0.5-2.1 0-24.5 0-25.6 0.4-1.4 0.4-1.4 4.1-5.3 4.4-5.7 1.1-0.7 1.6-0.7 1.1 0.5 1.1 0.5 6.5 5.7 7.9 6.7 2.7 1.9 3.1 1.9 1-0.5 1-0.5 2.1-2.5 4.5-5.1c1-1.1 2-2.2 3.1-3.2l0.3-0.3c3.1-3.3 5.8-6.1 6-6.3 0.6-0.4 0.8-0.8 0.8-1.2z"></path>
        <path d="m327.5 114.9c-3.1 0-6.8 1.9-6.8 0.3 0-1.4 5.1-2 6.5-2.2h0.5s0.2 0 0.5 0c1.6 0.2 6 0.9 6 2.2 0.1 1.6-3.5-0.3-6.7-0.3m-39.9-3.3c0-1.5 0.2-1.3 1.1-2.1 1.2-1 5-2.5 5-5.2v-2.6-40s0.6-4.2-3.1-6.4c0 0-2.7-1.4-0.8-3 0 0 0.9-0.3 2.1 0.9s3.4 4.3 3.4 4.3 0.5 0.3 0.5 2v42.2s0.5 4.6-1.2 6.1-5.9 4.3-5.9 4.3-1.1 1-1.1-0.5zm25.2-56.5c1.1-1.4 6.4-4.6 6.4-4.6s8-2.5 8 21.6c0 24.2-8.1 34.7-13 34.7 0 0-2.4 0.5-2.4-3.5v-45.7c-0.1 0-0.1-1.1 1-2.5zm11.7-8.8c1.5-1 2.6 1.3 2.6 1.3s5.1 8 5.1 24-4.5 25.1-4.5 25.1-0.6 2-1.9 1.2 0.2-2.3 0.2-2.3 3.4-9 3.4-23.9c0-15-4.9-22.4-4.9-22.4s-1.4-2.1 0-3zm2.7 65.1c-10 0-16.8 13.7-16.8 13.7-1.3 1.7-4.2 5.4-11.7 5.4-9.6 0-8.2-5.8-8.2-5.8 0-11.2 21.2-13.8 21.2-13.8 16.2-2.1 34.1-12.1 34.1-43.8 0-25.4-12.8-32.9-13.9-32.9-1.2 0-1.6 0.7-1.6 0.7s-12.8 12.3-14 13.4-1.4 1.5-2.5 1.5-1.8-2.4-2-3c-0.3-0.6-1-1.5-1-1.5s-8.8-8.2-9.5-8.7-2.3-2.3-3.5-2.3-2.1 1-2.1 1-12 12.5-13.9 14.9c-1.9 2.3-2.2 5.2-0.7 5.2 1.4 0 2.9-1.1 2.9-1.1 6.3 2.3 6.6 6 6.6 6v40.5s-9 3.9-9 16.4c0 17.4 16.1 18.8 24.1 18.8s10.6-1.6 14.2-3.2c3.6-1.7 10.5-4.8 15.6-4.8s6.4 3.1 6.4 3.1c0.3 1.1 1.6 1.5 1.6 1.5 2.4 0 0.4-2.7 0.4-2.7-0.1-10.2-6.7-18.5-16.7-18.5z"></path>
        <path d="m144.6 57.5c-0.4 0.5-1.3 0.6-1.8 0.2l-16.4-12.2c-0.6-0.4-0.7-1.2-0.2-1.8 0.4-0.5 1.3-0.6 1.8-0.2l16.4 12.2c0.5 0.5 0.6 1.3 0.2 1.8m-8.1 3.6-6.6 4.4c-0.3 0.2-0.7 0.2-1.1 0.1-0.3-0.2-0.5-0.5-0.5-0.9v-8.8c0-0.4 0.2-0.7 0.5-0.9s0.7-0.2 1 0l6.6 4.3c0.3 0.2 0.5 0.5 0.5 0.9 0.1 0.4-0.1 0.7-0.4 0.9zm-16.4 37.7s-0.9 1.4-2.7 0.2c-2.5-1.6-8.2-5.5-8.2-5.5s-0.5-0.5-0.5-1.1c0-0.4 0-1.3-0.1-1.9v-36.7c0-0.7 0.2-1.3 0.9-1.3s1.5-0.2 1.5 0.7v35.8c0 1.1 0.1 2.7 1.3 3.4 2 1.2 6.6 4.4 6.6 4.4s1.7 1 1.2 2zm34.3-51.6c-4.1-1.6-9.9-5.6-13.8-8.2s-6.8-5-8.3-5c-1.6 0-2.6 1.3-2.6 1.3s-6.3 5.8-10.5 7.7-6.2 1.4-9.5 2.2-3.2 3.3-3.2 3.3v37.4 3.3c-0.5 0.4-3.6 2.2-3.6 4.5s2.2 2.4 2.2 2.4 8.3 3.7 11.7 5.7c3.3 2 8.5 6.2 9.2 6.2s2-1.1 2-1.1 18.1-15.3 20.1-16.6 1.5-2.2 1.5-2.2c0-2-3.1-2.2-3.1-2.2-0.7 0-1.7 0.5-1.7 0.5s-5.8 4.2-6.7 4.2-1.2-0.5-1.2-0.5-7-5-7.8-5.8c-0.9-0.8-0.8-1.5-0.8-1.5s0-4.4 0-5.6c0-2.5 1.7-3 1.7-3s23.3-19.9 24.8-21.2c1.5-1.2 2-1.7 2-3.1-0.1-1.6-2.4-2.7-2.4-2.7z"></path>
        <path d="m454.9 17.4c-4.4 6.5-10.1 20.6-9.1 34.9 1.1 15 3.1 20.5 3.1 25.5s0 9.1-4.9 16c0 0-0.6 2-1.6 1.1s0.3-1.9 0.3-1.9 3.5-6.3 3.5-15.1-3.4-20.5-3.4-26.3c0-9.4 2.4-27.1 10.9-35.1 0 0 2.2-2.5 2.8-1.9 0.5 0.6-1.2 2.2-1.6 2.8m-16 65.2c-1 0-1.5-1.6-1.5-1.6s-7.9-12.9-19.4-16.3l-2-0.9s-0.5-1 2-0.9 10.2 3.9 10.2 3.9 0.8 0.6 1.2 0.2-0.8-3.2-2.1-5.9-3.4-9.2-7.2-12.7c0 0-3.5-1.8-2.5-3.1 1.1-1.4 4.8 1.1 7 4.2s2.7-0.8 2.7-1.3c0-0.4 1.3-8.8 3.9-12.8s4.1-5 4.1-5 0.6-0.5 0.9-0.1c0.4 0.4-0.7 3.1-1.2 4-0.5 1-4.6 8.1-4.6 15.8s2.5 15.9 5 20.9 4.4 10.1 4.4 10.1 0.1 1.5-0.9 1.5zm-12.7-59.1c-5.9 0-14.5-6-14.5-6s-4.5-2.4-6.8-2.5c-1.3-0.1-4.4-0.1-4.4-0.9s2.5-2.1 4.4-2.1c0 0 3.6-0.5 7.8 2.4 5.9 4 10.1 6.1 13.8 6.1s10.4-1.5 10.4-0.2c-0.1 1.9-4.8 3.2-10.7 3.2zm-14.6 79.2s-9-5.1-13.4-5.8c0 0-5.3-0.3-4.7-2.2s5-2 8.9-0.6c5.9 2.2 10.4 6.1 10.4 6.1s3.2 2.1 2.8 2.8c-0.3 0.8-1.1 1.6-4-0.3zm57.1-94.9c0.8-1.5 2.7-2.5 2.7-4.7 0-2.3-3-0.8-3-0.8s-11.6 4.4-13.8 5.1c-2.3 0.8-6.8 1.1-6.8 1.1-13.1 0-13.3-8.5-30-8.5s-25.4 13.2-25.4 22.5 3.3 13.4 9.7 13.4c5.3 0 6.8-3.4 6.8-7s-4.2-7-7.2-7-5.7 1.7-5.7 1.7c-1.1 0-1.1-1.7-1.1-1.7 1-4.3 5.7-4.3 5.7-4.3 6.8 0 12.7 4.2 12.7 4.2 6.8 4 12.1 4.7 14 4.7s5.7-0.9 6.4-0.9c0.8 0 1.7-0.2 1.7 0.8 0 0.9-0.8 1.9-0.8 1.9s-3.8 3.3-5.6 6.2-1.9 7.9-5.9 7.9-2.7-2.5-8.9-2.5c-6.3 0-6.4 6.4-6.4 7.4 0 0.9 5.7 2.6 7.6 3.6 1.9 0.9 7.2 6.2 6.3 8.3-1 2.1-5.5-1-7.5-1s-7.6 3-7.6 7.1c0 4 7.8 3.3 7.8 3.3 9.6 2 22.5 15.6 22.5 21.4s-3.5 9.3-8.8 7.3-11.6-20.7-26-20.7-15.7 15.1-15.7 15.1c-1.5 11.3 3.3 16.2 4.1 16.2s1-0.4 1-1.1c0-0.8-1-2.3-1-4s2.1-3.2 4.4-3.2c2.6 0 16.5 5.7 16.5 5.7s5.9 2.6 10 2.6c3.6 0 16.9-0.4 30.5-13.6s17.8-24.8 17.8-38.2-5.9-26.3-5.9-33.7c-0.2-7.2 4.1-13.1 4.9-14.6z"></path>
        <path d="m650.6 56.9c-0.5 0.6-1.3 0.7-1.7 0.3l-8.6-7.5c-0.4-0.4-0.4-1.2 0.1-1.7 0.5-0.6 1.3-0.7 1.7-0.3l8.6 7.5c0.5 0.4 0.4 1.2-0.1 1.7m-25.7 47.6c-0.4 0-3.1-2.3-4.9-3.6s-9.7-6.3-9.7-6.3-1.6-0.5-1.6-1.1 1.4-0.9 1.8-1.2c0.9-0.6 2.6-1.2 2.6-4.1v-34.5s-0.2-2.1-1.7-3.3l-2.2-1.8s-0.9-0.8 0.3-1.7c0 0 1.2-0.8 2.6 0.4s3.9 3.5 3.9 4.3v38.7s0.1 0.8-1.5 2.2c-1.9 1.7 0.8 2.3 1.8 3s9.1 6.6 9.1 6.6 0.5 0.7 0.5 1.4c0.1 0.7-0.6 1-1 1zm40.8-61.3c0-0.4-0.6-1.3-1.1-1.3-0.4 0-0.7 0.2-1.4 0.5s-2.4 1.2-3 1.2-1.1-0.4-1.1-0.4-0.1-0.1-0.2-0.2c-2.1-2.1-6.2-6.2-6.8-6.6-0.7-0.6-2.7-2.3-4.6-2.3-1.8 0-2.7 1.2-2.7 1.2s-9.8 12.1-10.2 12.5-0.7 1.2-1.8 1.2c-1 0-0.8-1.3-0.8-2s-0.8-2-0.8-2-10-8.2-11.3-9.2-2.3-1.9-3.4-1.9c-1.2 0-2 0.7-2 0.7s-9 10.5-9.5 11.2-2.5 2.9-2.5 4.1c0 1.1 0.5 1.8 0.9 1.8s0.8-0.4 0.8-0.4c0.6-0.5 1.8-0.6 1.8-0.6 3.7 0.6 4.3 4.2 4.3 4.2v30.2c0 3.5-1.5 4.4-1.5 4.4s-3.3 2.3-3.3 3.9c0 1.7 2.5 2.4 2.5 2.4 2.2 0.9 10 6.4 11.1 7.1 1 0.7 5.8 4.9 6.7 4.9s1.8-0.7 1.8-0.7 14.5-16.5 14.9-16.9 0.6-0.8 0.6-1.3c0-0.4-0.7-1.3-1.1-1.3s-0.7 0.2-1.4 0.5-2.4 1.3-2.9 1.3c-0.6 0-1.1-0.3-1.1-0.3s-4-2.4-4.6-2.9-0.5-2.1-0.5-2.1 0-24.5 0-25.6 0.4-1.4 0.4-1.4 4.1-5.3 4.4-5.7 1.1-0.7 1.6-0.7 1.1 0.5 1.1 0.5 6.5 5.7 7.9 6.7 2.7 1.9 3.1 1.9 1-0.5 1-0.5 2.1-2.5 4.5-5.1c1-1.1 2-2.2 3.1-3.2l0.3-0.3c3.1-3.3 5.8-6.1 6-6.3 0.6-0.4 0.8-0.8 0.8-1.2z"></path>
        <path d="m815.8 104.4c-0.4 0-3.1-2.3-4.9-3.6s-9.7-6.3-9.7-6.3-1.6-0.5-1.6-1.1 1.4-1 1.8-1.2c0.9-0.6 2.6-1.2 2.6-4.1v-69.9c-0.2-1.8-1.3-2.6-2.1-4.2-0.9-1.6 0.1-1.8 1.2-0.7 0.6 0.6 1.9 1.7 2.7 3.2l0.1 0.2c1 2 1 4.8 1 4.8v68.6s0.1 0.8-1.5 2.2c-1.9 1.7 0.8 2.3 1.8 3s9.1 6.6 9.1 6.6 0.5 0.7 0.5 1.4-0.6 1.1-1 1.1m17.2-16.8c-0.4 0-0.7 0.2-1.4 0.5s-2.4 1.3-2.9 1.3c-0.6 0-1.1-0.3-1.1-0.3s-4-2.4-4.6-2.9-0.5-2.1-0.5-2.1 0-55.5 0-62.7c0-3 1.9-6.7 4.3-7.5 2.4-0.9 2.5-2.7 2.5-2.7 0-3.9-8.3-0.6-8.3-0.6-6.9 2.2-8.9 7.6-9.7 7.6-0.7 0-0.9-1-0.9-1-3.5-6.3-10.3-7.9-11-7.9s-2 0.2-2 1.5 0.8 2 2.5 3.5c1.7 1.4 1.5 3.6 1.5 3.6v67.1c0 3.5-1.5 4.4-1.5 4.4s-3.3 2.3-3.3 3.9c0 1.7 2.5 2.4 2.5 2.4 2.3 0.9 10 6.4 11.1 7.1 1 0.7 5.8 4.9 6.7 4.9s1.8-0.7 1.8-0.7 14.5-16.5 14.9-16.9 0.6-0.8 0.6-1.3c-0.1-0.3-0.8-1.2-1.2-1.2z"></path>
        <path d="m514.9 59.6v32.6c0 0.9-0.8 1.7-1.7 1.7s-1.7-0.7-1.7-1.6v-31.7s0.4-3-1.8-3.9c-6.3-3.4-11.8-6.4-11.8-6.4-0.8-0.5-1.1-1.5-0.6-2.3s1.5-1 2.3-0.6l12 6.5c3.5 1.6 3.3 5.7 3.3 5.7m-9.6 26.5c-3.2-1.6-8.5-4.4-8.5-4.4s-1-0.3-1-1.1v-10.2-15s-0.3-2.1 2.9-0.6c3.2 1.6 8.5 4.4 8.5 4.4s1 0.3 1 1.1v10.3 15s0.3 2.1-2.9 0.5zm-4.4 15.9c-0.7 0.9-2.2-0.1-5.3-1.9s-10.2-3.8-12.6-4.3-6.6-1.2-6.6-2.5 0.7-1.8 1.1-2.1 0.3-0.9 0.3-0.9v-7.9-29.1c0-0.9 0.8-1.7 1.7-1.7s1.7 0.7 1.7 1.6v36.2s0.1 0.6-0.3 0.9-1.1 0.8-1.1 2.1 4.1 1.6 6.5 2.2c2.4 0.5 9.6 3 12.6 4.9 2.6 1.4 2 2.5 2 2.5zm27.7-9.3v-44.5c0-2.5-2.2-2.5-2.2-2.5-11.6-3.1-20.2-10.1-20.8-10.6s-1.4-1-2.3-1c-1 0-2.1 1.1-2.1 1.1-9.4 10.6-19.8 10-23.1 10.2s-2.9 2.9-2.9 2.9v38.5 2c0 1-0.5 1.1-0.5 1.1s-3.9 2.6-3.9 4.8 1.8 2 1.8 2c3.8 0.4 8.5 1.7 15.5 3.8s13.3 7.5 14.2 7.5c1 0 1.7-1.5 1.7-1.5 6.3-8.9 17.5-10.9 21.4-10.9 3.9-0.1 3.2-2.9 3.2-2.9z"></path>
        <path d="m586.4 101.1c-0.5 0.7-1.9-0.5-1.9-0.5l-7.5-6.4s-1.2-0.9-1.2-1.5v-3.4-33s0.3-2-0.6-2.9c-1-0.9-3.3-2.9-3.3-2.9s-1-0.6-0.1-1.6 3.9 1.7 4.3 2.1c0.4 0.3 2.3 1.9 2.3 3.2v2.2 34.8s-0.1 0.9 0.5 1.6c0.7 0.7 7.4 6.7 7.4 6.7s0.6 0.9 0.1 1.6m-33.9 0c-0.5 0.7-1.9-0.5-1.9-0.5l-7.5-6.4s-1.2-0.9-1.2-1.5v-3.4-33s0.3-2-0.6-2.9c-1-0.9-3.3-2.9-3.3-2.9s-1-0.6-0.1-1.6 3.9 1.7 4.3 2.1c0.4 0.3 2.3 1.9 2.3 3.2v2.2 34.8s-0.1 0.9 0.5 1.6c0.7 0.7 7.4 6.7 7.4 6.7s0.6 0.9 0.1 1.6zm49.1-14.5c-0.8 0-0.9 0.5-0.9 0.5 0 2.9-3.3 2.4-3.3 2.4-5 0-4.4-5.4-4.4-5.4s0-26 0-27.8 2.6-3.8 2.6-3.8 3.7-2.9 3.7-3.8c0-1.1-1.2-2.2-1.2-2.2s-11.7-12.3-13.3-12.3c-1.7 0-2.6 1.2-2.6 1.2s-12.5 12.3-12.5 13.8c0 2.9 1.5 3.5 2.4 4.4 1.2 1.1 1.3 2.2 1.3 2.2s0 25 0 28.3-6.3 5.3-6.3 5.3c-3 0-6.4-5.3-6.4-5.3s0-36.3 0-37.7c0-1.3-0.8-1.6-0.8-1.6s-13.5-10.6-14.2-10.6-1.5 1-1.5 1-10.9 13.8-11.7 15.3 0.5 3.7 1.1 3.7 0.8-0.3 0.8-0.3l1.2-0.6c3 0 4 3.1 4 3.1v33.1 5.3c0 1.2 0.6 1.7 0.6 1.7s13.3 11.5 14.2 11.5 1.7-0.9 1.7-0.9 12.6-12.5 13.8-12.5 2 1.3 2 1.3 13 12.2 13.9 12.2 2.1-1.9 2.1-1.9 10.4-13.6 12.6-15.8c2.3-2.4 1.8-3.8 1.1-3.8z"></path>
        <path d="m714 101.5c-0.6 0.4-1.4 0.3-1.8-0.3l-7-5.3v-38.7l-3.1-4.3c-0.4-0.6-0.3-1.4 0.3-1.8s1.4-0.3 1.8 0.3l3.5 4.9v38.8s6.5 4.6 6.6 4.6c0.4 0.6 0.3 1.4-0.3 1.8m-37.2-0.6c-0.6 0.4-1.6 0.5-2-0.1 0 0-6.9-7-6.9-7l4.8-4.8c0.5-0.7 1-1.4 1-2.2v-0.3l0.1-29.2-3.1-4.3c-0.4-0.6-0.3-1.4 0.3-1.8s1.4-0.3 1.8 0.3l3.5 4.9v32c0 0.8-0.5 1.6-1 2.2l-0.1 0.1c-0.6 0.7-1.3 1.3-1.4 1.4l-2 1.9 5.2 5c0.5 0.5 0.4 1.5-0.2 1.9zm53.4-13.1c-0.6 0-0.8 0.3-0.8 0.3l-1.2 0.6c-3 0-4-3.1-4-3.1v-33-5.3c1.5-1.6 2.6-2.8 2.8-2.9 0.5-0.4 0.7-0.8 0.7-1.2s-0.6-1.3-1.1-1.3c-0.4 0-0.7 0.2-1.4 0.5s-2.4 1.2-3 1.2-1.1-0.4-1.1-0.4-0.1-0.1-0.2-0.2c-2.1-2.1-6.3-6.1-6.8-6.6-2.4-2.9-4.7-2.3-4.7-2.3-0.9 0-1.7 0.9-1.7 0.9s-12.6 12.5-13.8 12.5-2-1.3-2-1.3-13.1-12.2-14-12.2-2.1 1.9-2.1 1.9-11 13-13.2 15.3c-2.3 2.3-1.8 3.7-1 3.7s0.9-0.5 0.9-0.5c0-2.9 3.3-2.5 3.3-2.5 5 0 5 6 5 6s0 26 0 27.8-2.6 3.8-2.6 3.8-3.7 2.9-3.7 3.8c0 1.1 1.2 2.2 1.2 2.2s11.7 12.3 13.3 12.3c1.7 0 2.6-1.2 2.6-1.2s12.5-12.3 12.5-13.8c0-2.9-1.5-3.5-2.4-4.4-1.2-1.1-1.2-2.2-1.2-2.2s0-25 0-28.3c0-4.7 6.3-5.3 6.3-5.3 3 0 6.4 5.3 6.4 5.3s0 36.3 0 37.7c0 1.3 0.8 1.6 0.8 1.6s13.5 10.6 14.2 10.6 1.5-1 1.5-1 10.8-13.6 11.6-15.1c0.8-1.7-0.5-3.9-1.1-3.9z"></path>
        <path d="m672.8 89c-0.1 0-0.1 0 0 0"></path>
        <path d="m673.8 86.4"></path>
        <path d="m778.2 103.4c-0.8 0.9-1.8-0.2-1.8-0.2l-5.5-5.7s-1.6-1.2-1.6-6.7v-31s0.3-2.3-3.5-4.4c-4.2-2.3-15.5-8-15.5-8s-1.4-0.6-0.7-1.7 1.8-0.1 1.8-0.1l15.3 7.5s4.6 2 4.6 6.7-0.1 31.1-0.1 31.1-0.2 3.1 1.4 5.4c1.8 2.5 5.3 6 5.3 6s0.8 0.6 0.3 1.1m-12.1-13c0 0.9-4.3 5.6-7.1 5.6-2.7 0-3.7-8.3-3.7-10.1s0.1-9.6 3.7-9.6 7.1 4.5 7.1 4.5v9.6zm-14.6-22.1 0.6-1.3v-9.5c0-1.9 0.2-3.4-0.9-4.5-1.1-1 0.3-1.7 0.3-1.7l13.1 7.3c1.8 1 1.4 2.3 1.4 2.3v12.1c0 2.4-2 1.4-2 1.4l-12-4.9c0.1 0-0.5-0.3-0.5-1.2zm-4.1 7c-1 0.7-8.8 6-8.8 13.7 0 7.1 7.4 13.6 7.4 13.6 0.1 0.2 0.1 0.3 0.1 0.5-0.1 0.5-0.5 0.8-1 0.7-0.3 0-8.1-6.1-8.1-15s9.4-14.8 9.4-14.8 0.5-0.3 0.8-0.3c0.5 0.1 0.8 0.5 0.7 0.9s-0.3 0.6-0.5 0.7zm48.3 13.6c-0.8 0-0.8 0.3-0.8 0.3s-1.1 1.2-1.4 1.5-0.6 0.4-1.6 0.4c-0.9 0-1.6-0.7-3.2-2.1s-1.4-4.8-1.4-4.8 0-36.6 0-37.4 0.7-1.7 0.9-2.2c0.3-0.5-0.2-0.7-0.2-0.7s-1.9-1.2-2.4-1.4c-0.5-0.3-0.8 0.2-0.8 0.2s-1 1.1-1.3 1.4-0.5 0.6-1.1 0.6-1.4-0.6-1.4-0.6-18.7-10-19.7-10c-0.9 0-1.1 1.5-5.2 4.9-4.1 3.3-7.4 3.1-10.5 3.1-3 0-6.7-2.6-7.6-1.3s1.3 2.2 1.3 2.2c4.6 1.8 5 2.5 7.4 5.6 2.6 3.3 2.6 9 2.6 9s0 7.9 0 9.5c0 1.5-1.8 2.8-1.8 2.8-14.9 6.9-13.6 20.4-13.6 20.4 0 11.1 10.4 17.4 14.7 17.4 2.6 0 5.5-3.3 8.5-6s7.1-5.4 8-5.4c1.3 0 2 1 2 1 2.3 3.9 9.1 10.3 11.8 10.3s8.7-6.9 8.7-6.9 7.5-7.9 8.4-9.1c0.6-1.1 0.4-2.7-0.3-2.7z"></path>
    </g>
</svg>