<?xml version="1.0" encoding="utf-8"?>
<!-- Generator: Adobe Illustrator 16.0.4, SVG Export Plug-In . SVG Version: 6.00 Build 0)  -->
<!DOCTYPE svg PUBLIC "-//W3C//DTD SVG 1.1//EN" "http://www.w3.org/Graphics/SVG/1.1/DTD/svg11.dtd">
<svg version="1.1" id="Layer_1" xmlns="http://www.w3.org/2000/svg" xmlns:xlink="http://www.w3.org/1999/xlink" x="0px" y="0px"
	 width="100px" height="23.394px" viewBox="0 0 100 23.394" enable-background="new 0 0 100 23.394" xml:space="preserve">
<g>
	<g>
		<path d="M4.119,23.274H0v-0.435h0.735V6.827H0V6.393h4.119c1.942,0,3.531,1.109,3.531,2.459v11.961
			C7.65,22.165,6.061,23.274,4.119,23.274z M5.295,7.792c0-0.53-0.529-0.965-1.177-0.965H3.09v16.013h1.029
			c0.647,0,1.177-0.434,1.177-0.965V7.792z"/>
		<path d="M12.945,23.394c-1.942,0-3.531-1.108-3.531-2.46V8.732c0-1.351,1.588-2.461,3.531-2.461c1.941,0,3.53,1.11,3.53,2.461
			v12.202C16.476,22.286,14.886,23.394,12.945,23.394z M14.122,7.671c0-0.53-0.529-0.964-1.177-0.964
			c-0.648,0-1.176,0.434-1.176,0.964v14.324c0,0.53,0.528,0.964,1.176,0.964c0.647,0,1.177-0.434,1.177-0.964V7.671z"/>
		<path d="M24.712,6.827v16.447H22.83l-3.56-13.143v12.708h0.735v0.435h-2.206v-0.435h0.735V6.827h-0.735V6.393h2.972l3.207,11.721
			V6.827h-0.735V6.393h2.206v0.434H24.712z"/>
		<path d="M26.333,23.274v-0.435h0.734V6.827h-0.734V6.393h7.354v5.064h-2.353V6.827H29.42v7.308h2.795v0.434H29.42v8.271h1.913
			v-4.63h2.353v5.064H26.333z"/>
		<path d="M38.834,23.394c-1.941,0-3.53-1.108-3.53-2.46V8.732c0-1.351,1.589-2.461,3.53-2.461c1.943,0,3.532,1.11,3.532,2.461
			v2.725h-2.354V7.671c0-0.53-0.53-0.964-1.178-0.964c-0.646,0-1.177,0.434-1.177,0.964v14.324c0,0.53,0.531,0.964,1.177,0.964
			c0.648,0,1.178-0.434,1.178-0.964v-7.428h-1.178v-0.434h3.532v6.8C42.366,22.286,40.777,23.394,38.834,23.394z"/>
		<path d="M47.367,23.274v-0.435h0.735l-0.529-4.896h-2.119l-0.588,4.896h0.736v0.435h-2.206v-0.435h0.735l2.059-16.446h2.354
			l1.912,16.446h0.734v0.435H47.367z M46.573,8.395l-1.089,9.115h2.059L46.573,8.395z"/>
		<path d="M51.779,23.274v-0.435h0.735V6.827h-0.735V6.393h3.825v0.434h-0.735v16.013h1.766v-4.63h2.354v5.064H51.779z"/>
		<path d="M71.196,6.827v16.447h-1.883l-3.56-13.143v12.708h0.735v0.435h-2.206v-0.435h0.734V6.827h-0.734V6.393h2.971l3.207,11.721
			V6.827h-0.735V6.393h2.207v0.434H71.196z"/>
		<path d="M72.814,23.274v-0.435h0.735V6.827h-0.735V6.393h7.354v5.064h-2.352V6.827h-1.913v7.308h2.794v0.434h-2.794v8.271h1.913
			v-4.63h2.352v5.064H72.814z"/>
		<path d="M91.584,6.827l-1.381,16.447H87.85L86.73,9.359l-1.059,13.915h-2.354l-1.53-16.447h-0.735V6.393h3.823v0.434h-0.734
			l1.088,13.722l1.119-14.155h2.354l1.146,14.155l1.002-13.722h-0.735V6.393h2.206v0.434H91.584z"/>
		<path d="M96.616,23.394c-1.942,0-3.384-1.108-3.384-2.46v-2.725h2.354v3.786c0,0.53,0.381,0.964,1.029,0.964
			c0.646,0,1.029-0.434,1.029-0.964v-2.942c0-0.868-0.146-1.374-0.707-2.098l-2.94-3.763c-0.56-0.723-0.766-1.35-0.766-2.169V8.732
			c0-1.351,1.441-2.461,3.384-2.461c1.941,0,3.384,1.11,3.384,2.461v2.725h-2.354V7.671c0-0.53-0.383-0.964-1.029-0.964
			c-0.648,0-1.029,0.434-1.029,0.964v2.822c0,0.867,0.146,1.375,0.705,2.098l2.941,3.762c0.561,0.723,0.767,1.35,0.767,2.17v2.411
			C100,22.286,98.558,23.394,96.616,23.394z"/>
	</g>
	<g>
		<path d="M29.935,4.156c-0.266,0-0.524-0.012-0.8-0.012c-0.298,0-0.393,0-0.709,0.012c0.011-0.658,0.017-1.345,0.017-2.001
			c0-0.676-0.005-1.404-0.017-2.073c0.188,0.006,0.382,0.006,0.57,0.006c0.327,0,0.562-0.006,0.856-0.006
			c1.209-0.005,1.807,0.729,1.807,2.037C31.659,3.34,31.125,4.156,29.935,4.156z M29.739,0.81h-0.017c-0.088,0-0.093,0-0.099,0.087
			c-0.011,0.242-0.017,0.529-0.017,0.834v0.293c0,0.469,0.006,0.98,0.017,1.327c0,0.059,0.006,0.071,0.106,0.071h0.034
			c0.493,0,0.6-0.669,0.6-1.286C30.362,1.292,30.233,0.81,29.739,0.81z"/>
		<path d="M33.838,4.145c-0.405,0-0.739,0-1.138,0.012c0-0.511,0.011-1.251,0.011-1.949c0-0.705-0.007-1.521-0.011-2.126
			c0.346,0.006,0.681,0.012,1.103,0.012c0.399,0,0.716-0.006,1.192-0.012c-0.006,0.1-0.006,0.253-0.006,0.399
			c0,0.147,0,0.294,0.006,0.387c-0.435-0.006-0.688-0.011-1.057-0.011c-0.083,0-0.076,0.023-0.076,0.035
			c-0.013,0.141-0.019,0.611-0.019,0.652v0.117c0,0.077,0.013,0.082,0.101,0.082h0.04c0.318,0,0.653-0.005,0.951-0.011
			c-0.005,0.083-0.011,0.235-0.011,0.387c0,0.153,0.005,0.312,0.011,0.394C34.613,2.507,34.272,2.5,33.984,2.5h-0.051
			c-0.071,0-0.09,0.017-0.09,0.083v0.093c0,0.188,0.006,0.476,0.013,0.61c0,0.059,0.006,0.065,0.083,0.065
			c0.398,0,0.699-0.006,1.133-0.011c-0.007,0.152-0.012,0.288-0.012,0.411c0,0.147,0,0.288,0.012,0.405
			C34.643,4.145,34.243,4.145,33.838,4.145z"/>
		<path d="M38.594,4.15c-0.219,0-0.453,0.006-0.652,0.012c-0.11-0.399-0.271-0.963-0.347-1.18c-0.086-0.246-0.153-0.317-0.287-0.317
			h-0.018c-0.058,0-0.063,0.012-0.063,0.077v0.164c0,0.446,0.005,0.84,0.011,1.256c-0.142-0.005-0.407-0.012-0.599-0.012
			c-0.217,0-0.399,0.006-0.568,0.012c0.01-0.464,0.01-1.068,0.01-1.708c0-0.775-0.005-1.679-0.01-2.373
			c0.233,0.006,0.568,0.012,0.82,0.012c0.347,0,0.5-0.012,0.847-0.012c0.839,0,1.372,0.494,1.372,1.251
			c0,0.522-0.329,0.904-0.605,1.009c-0.063,0.024-0.08,0.024-0.08,0.035c0,0.023,0.035,0.036,0.069,0.077
			c0.047,0.059,0.148,0.141,0.294,0.54c0.094,0.24,0.258,0.769,0.382,1.168C39.011,4.156,38.811,4.15,38.594,4.15z M37.326,0.816
			h-0.024c-0.046,0-0.063,0.023-0.069,0.076c-0.005,0.129-0.012,0.282-0.012,0.412c0,0.164,0.006,0.37,0.006,0.534
			c0,0.058,0.011,0.07,0.082,0.07h0.023c0.382,0,0.576-0.205,0.576-0.552C37.907,0.974,37.707,0.816,37.326,0.816z"/>
		<path d="M42.681,4.15c-0.218,0-0.452,0.006-0.652,0.012c-0.11-0.399-0.269-0.963-0.346-1.18c-0.086-0.246-0.152-0.317-0.288-0.317
			h-0.017c-0.059,0-0.065,0.012-0.065,0.077v0.164c0,0.446,0.006,0.84,0.012,1.256C41.184,4.156,40.92,4.15,40.726,4.15
			c-0.218,0-0.398,0.006-0.569,0.012c0.011-0.464,0.011-1.068,0.011-1.708c0-0.775-0.005-1.679-0.011-2.373
			c0.235,0.006,0.569,0.012,0.821,0.012c0.347,0,0.499-0.012,0.846-0.012c0.839,0,1.374,0.494,1.374,1.251
			c0,0.522-0.329,0.904-0.604,1.009c-0.064,0.024-0.081,0.024-0.081,0.035c0,0.023,0.034,0.036,0.069,0.077
			c0.046,0.059,0.148,0.141,0.292,0.54c0.095,0.24,0.259,0.769,0.384,1.168C43.098,4.156,42.897,4.15,42.681,4.15z M41.411,0.816
			h-0.022c-0.046,0-0.065,0.023-0.07,0.076c-0.006,0.129-0.012,0.282-0.012,0.412c0,0.164,0.005,0.37,0.005,0.534
			c0,0.058,0.012,0.07,0.082,0.07h0.023c0.383,0,0.576-0.205,0.576-0.552C41.994,0.974,41.795,0.816,41.411,0.816z"/>
		<path d="M46.274,2.43c-0.046,0.112-0.087,0.205-0.087,0.328v0.447c0,0.387,0.012,0.575,0.017,0.956
			c-0.176-0.005-0.388-0.012-0.599-0.012c-0.223,0-0.44,0.006-0.598,0.012c0.005-0.381,0.01-0.552,0.01-0.956V2.758
			c0-0.07-0.052-0.251-0.082-0.322c-0.317-0.74-0.563-1.292-1.015-2.354c0.199,0.006,0.434,0.012,0.645,0.012
			c0.211,0,0.364-0.006,0.564-0.012c0.164,0.464,0.288,0.705,0.439,1.215l0.055,0.188c0.012,0.03,0.022,0.053,0.035,0.053
			s0.023-0.018,0.036-0.053l0.063-0.193c0.159-0.488,0.264-0.746,0.447-1.21c0.171,0.006,0.353,0.012,0.517,0.012
			c0.194,0,0.398-0.006,0.598-0.012C46.855,1.122,46.545,1.801,46.274,2.43z"/>
		<path d="M51.635,2.641c-0.111,0-0.146-0.006-0.265-0.006c-0.077,0-0.093,0.006-0.093,0.094v0.117c0,0.434,0.004,0.969,0.01,1.315
			C51.159,4.156,50.89,4.15,50.689,4.15c-0.217,0-0.438,0.006-0.599,0.012c0.013-0.563,0.025-1.303,0.025-1.99
			c0-0.657-0.007-1.714-0.018-2.09c0.194,0.006,0.428,0.006,0.657,0.006c0.353,0,0.539-0.006,0.892-0.006
			c0.935,0,1.532,0.464,1.532,1.274C53.178,2.242,52.59,2.641,51.635,2.641z M51.506,0.798c-0.047,0-0.1,0-0.141,0.006
			c-0.064,0.006-0.084,0.029-0.084,0.088c0,0.212-0.004,0.646-0.004,0.904v0.041c0,0.058,0.016,0.07,0.059,0.07h0.093
			c0.329,0,0.528-0.223,0.528-0.546C51.957,1.062,51.869,0.798,51.506,0.798z"/>
		<path d="M55.293,4.145c-0.406,0-0.74,0-1.139,0.012c0-0.511,0.012-1.251,0.012-1.949c0-0.705-0.007-1.521-0.012-2.126
			c0.345,0.006,0.681,0.012,1.104,0.012c0.398,0,0.715-0.006,1.191-0.012c-0.007,0.1-0.007,0.253-0.007,0.399
			c0,0.147,0,0.294,0.007,0.387c-0.436-0.006-0.687-0.011-1.057-0.011c-0.083,0-0.076,0.023-0.076,0.035
			c-0.012,0.141-0.018,0.611-0.018,0.652v0.117c0,0.077,0.011,0.082,0.101,0.082h0.04c0.316,0,0.652-0.005,0.95-0.011
			c-0.005,0.083-0.012,0.235-0.012,0.387c0,0.153,0.007,0.312,0.012,0.394C56.068,2.507,55.728,2.5,55.439,2.5h-0.053
			c-0.07,0-0.088,0.017-0.088,0.083v0.093c0,0.188,0.006,0.476,0.011,0.61c0,0.059,0.007,0.065,0.083,0.065
			c0.4,0,0.699-0.006,1.133-0.011c-0.006,0.152-0.012,0.288-0.012,0.411c0,0.147,0,0.288,0.012,0.405
			C56.097,4.145,55.697,4.145,55.293,4.145z"/>
		<path d="M59.086,4.232c-1.163,0-1.656-0.758-1.656-2.114C57.43,0.75,57.871,0,59.079,0c1.164,0,1.68,0.651,1.68,2.096
			C60.759,3.604,60.208,4.232,59.086,4.232z M59.104,0.745c-0.307,0-0.405,0.211-0.405,1.433c0,1.115,0.136,1.303,0.399,1.303
			c0.293,0,0.393-0.153,0.393-1.333C59.49,0.868,59.355,0.745,59.104,0.745z"/>
		<path d="M63.349,2.641c-0.111,0-0.147-0.006-0.264-0.006c-0.076,0-0.094,0.006-0.094,0.094v0.117c0,0.434,0.005,0.969,0.011,1.315
			c-0.129-0.005-0.4-0.012-0.599-0.012c-0.218,0-0.439,0.006-0.6,0.012c0.013-0.563,0.024-1.303,0.024-1.99
			c0-0.657-0.006-1.714-0.018-2.09c0.192,0.006,0.429,0.006,0.658,0.006c0.352,0,0.54-0.006,0.891-0.006
			c0.935,0,1.534,0.464,1.534,1.274C64.894,2.242,64.306,2.641,63.349,2.641z M63.22,0.798c-0.047,0-0.102,0-0.142,0.006
			c-0.064,0.006-0.082,0.029-0.082,0.088c0,0.212-0.005,0.646-0.005,0.904v0.041c0,0.058,0.018,0.07,0.06,0.07h0.092
			c0.329,0,0.527-0.223,0.527-0.546C63.67,1.062,63.582,0.798,63.22,0.798z"/>
		<path d="M68.192,3.775c0,0.129,0,0.288,0.006,0.381C67.806,4.15,67.394,4.145,67,4.145c-0.387,0-0.745,0.005-1.133,0.012
			c0.012-0.664,0.012-1.379,0.012-2.043c0-0.663,0-1.362-0.012-2.031c0.194,0.006,0.381,0.006,0.576,0.006
			c0.182,0,0.439,0,0.622-0.006c-0.011,0.57-0.018,1.245-0.018,1.943c0,0.405,0.011,0.88,0.018,1.262
			c0,0.047,0.006,0.065,0.076,0.065h0.094c0.369,0,0.635,0,0.97-0.011C68.198,3.499,68.192,3.622,68.192,3.775z"/>
		<path d="M70.342,4.145c-0.405,0-0.74,0-1.138,0.012c0-0.511,0.011-1.251,0.011-1.949c0-0.705-0.006-1.521-0.011-2.126
			c0.345,0.006,0.681,0.012,1.102,0.012c0.4,0,0.718-0.006,1.192-0.012c-0.006,0.1-0.006,0.253-0.006,0.399
			c0,0.147,0,0.294,0.006,0.387c-0.435-0.006-0.688-0.011-1.058-0.011c-0.081,0-0.075,0.023-0.075,0.035
			c-0.011,0.141-0.018,0.611-0.018,0.652v0.117c0,0.077,0.012,0.082,0.1,0.082h0.041c0.317,0,0.651-0.005,0.951-0.011
			c-0.006,0.083-0.013,0.235-0.013,0.387c0,0.153,0.007,0.312,0.013,0.394C71.115,2.507,70.774,2.5,70.488,2.5h-0.053
			c-0.07,0-0.088,0.017-0.088,0.083v0.093c0,0.188,0.007,0.476,0.012,0.61c0,0.059,0.006,0.065,0.081,0.065
			c0.399,0,0.699-0.006,1.134-0.011c-0.005,0.152-0.012,0.288-0.012,0.411c0,0.147,0,0.288,0.012,0.405
			C71.146,4.145,70.746,4.145,70.342,4.145z"/>
	</g>
</g>
</svg>
