<svg xmlns="http://www.w3.org/2000/svg" viewBox="0 0 136 48.847">
    <defs>
        <style>
            .cls-1{fill:#fff}
        </style>
    </defs>
    <g id="img_logo_engineers_ireland" transform="translate(-30.063 -42)">
        <g id="img_logo_engineers_ireland-2" data-name="img_logo_engineers_ireland">
            <path id="Path_10" d="M28.108 15.425a17.252 17.252 0 0 0-10.883-4.456L16.368 0s-.686 10.712-.686 10.969a16.883 16.883 0 0 0-11.054 4.456A13.38 13.38 0 0 0 0 25.537a14.026 14.026 0 0 0 4.028 9.6 16.833 16.833 0 0 0 9.684 4.8c0 .343-.514 8.912-.514 8.912h6.342s-.514-8.655-.514-8.912a16.833 16.833 0 0 0 9.684-4.8 13.589 13.589 0 0 0-.6-19.71zm-3.771 1.457a13.621 13.621 0 0 1 3 8.655 14.658 14.658 0 0 1-2.485 8.055 10.946 10.946 0 0 1-6 4.285c-.086-.428-1.628-24.595-1.628-24.852a9.789 9.789 0 0 1 7.114 3.857zm-8.912-3.942c-.343 5.57-1.543 24.852-1.543 24.852A10.846 10.846 0 0 1 7.8 33.507a13.612 13.612 0 0 1-2.485-8.055c-.002-6.513 4.454-11.998 10.11-12.512z" class="cls-1" data-name="Path 10" transform="translate(30.063 42)"/>
            <path id="Path_11" d="M57.4 29.111c-.428.086-.943.086-1.457.171-.6 0-1.114.086-1.714.086h-3.687v-7.541h2.828a11.485 11.485 0 0 0 1.714.086c.6 0 1.114.086 1.543.086 0-.171-.086-.514-.086-.686 0-.343.086-.514.086-.857a1.546 1.546 0 0 1-1.028.257c-.514 0-.943.086-1.457.086h-1.629a13.3 13.3 0 0 1-1.971.086v-6.6h2.142c.6 0 1.114.086 1.628.086s1.028.086 1.457.086.943.086 1.457.086V13c-.686 0-1.457.086-2.228.086h-4.456c-.686 0-1.457-.086-2.142-.086 0 1.114 0 2.142.086 3.256v10.8c-.086 1.112-.086 2.144-.086 3.255.686 0 1.457-.086 2.228-.086h4.628c.686 0 1.457.086 2.228.086a1.671 1.671 0 0 1-.086-.686v-.343c-.086 0-.086-.082.002-.171zM70.253 17.97h-.514l-.171-.086.086 3.6v5.57l-1.628-1.628-2.226-2.485-2.485-2.657-2.4-2.571H60.4v2.057a77.622 77.622 0 0 1-.343 9.941l-.086.857h.343l.6-.086.857.086V30.4c-.171-1.971-.171-4.028-.171-6v-3.173c.514.6 4.285 4.628 4.285 4.628 1.543 1.628 3.085 3.256 4.456 4.8v.086h.514v-.686c0-3.685-.086-7.113.171-10.712l.086-1.457-.343.086h-.514zm13.2.171a10.658 10.658 0 0 1-1.371-.343c-.428 0-1.028-.086-1.543-.086a8.478 8.478 0 0 0-3 .514 5.116 5.116 0 0 0-2.228 1.2 5.26 5.26 0 0 0-1.457 2.057 7.105 7.105 0 0 0-.514 2.742 6.526 6.526 0 0 0 .514 2.742 5.26 5.26 0 0 0 1.457 2.057 4.476 4.476 0 0 0 2.142 1.2 8.477 8.477 0 0 0 3 .428l1.114-.086 1.2-.086 1.2-.343 1.114-.343v-3.768l.086-1.543-.171.086h-.428l-.343.086c-.343 0-.514-.086-.857-.086l-.171-.086v1.457l.086 1.2v1.114s-.086.686-.086.943c-.086.086-.171.086-.428.171l-.686.171-.686.086h-.857a4.574 4.574 0 0 1-2.142-.428 3.766 3.766 0 0 1-1.543-1.028 3.556 3.556 0 0 1-1.028-1.714 8.684 8.684 0 0 1-.343-2.228 7.584 7.584 0 0 1 .343-2.485 4.255 4.255 0 0 1 1.114-1.714A3.766 3.766 0 0 1 78.479 19a7.944 7.944 0 0 1 2.057-.343 3.8 3.8 0 0 1 1.114.171 2.143 2.143 0 0 1 1.114.343 7.535 7.535 0 0 1 .857.514 1.321 1.321 0 0 1 .6.6l.086.086h.428l.171-.857c.086-.343.086-.514.171-.6l.086-.171-.943-.428zm6.342 2.314l.086-2.571-.686.086h-.857l-.6-.086v.257l.086 2.4v7.541l-.086 2.485h2.142V30.4l-.086-2.228-.086-2.314v-3.089zm13.2-2.485h-.6l-.171-.086.086 3.6v5.57a99.173 99.173 0 0 1-1.543-1.628l-2.4-2.485-2.4-2.657-2.4-2.571h-.6l.086 2.057c0 3.256-.086 6.6-.343 9.941l-.086.857h.171l.6-.086.857.086V30.4c-.086-1.971-.086-4.028-.171-6l.086-2.228v-.943c.514.6 4.285 4.628 4.285 4.628 1.543 1.628 3 3.256 4.285 4.8l.086.086h.514v-.686c-.086-3.685-.086-7.113.086-10.712l.086-1.457-.171.086h-.343zm10.363 11.23h-.171l-1.028.086-1.2.086h-2.314v-4.889h.686l1.114.086h1.2l1.2.086v-1.371h-1.028l-.943.086h-1.114s-.857.086-1.2.086v-4.372h1.371l1.114.086 1.028.086h1.2v-.171l-.086-.514.086-.6h-6.684l.086 2.485v7.627l-.086 2.485h6.684V30.4l-.086-.428v-.343zm9.255 0h-.171l-1.028.086-1.2.086H117.9v-4.889h.686l1.114.086h1.2l1.2.086v-.171l-.086-.514.086-.686h-1.03l-.943.086h-1.114s-.857.086-1.2.086v-4.372h1.371l1.114.086 1.028.086h1.2v-.171l-.086-.514.086-.6h-6.6v.171l.086 2.4v7.541l-.086 2.485h6.684V30.4l-.086-.428v-.343zm11.141.343l-.943-1.028-1.885-2.485-.857-1.03a3.263 3.263 0 0 1-.428-.514 2.9 2.9 0 0 0 .857-.343 3.166 3.166 0 0 0 1.2-.6 5.84 5.84 0 0 0 1.028-1.028 4.076 4.076 0 0 0 .428-1.543 2.626 2.626 0 0 0-.343-1.457 3.289 3.289 0 0 0-.943-.943 3.89 3.89 0 0 0-1.2-.514 7.841 7.841 0 0 0-1.457-.086h-4.2v.171l.086 2.4v7.541l-.086 2.485h2.057V30.4l-.086-2.228V24.74h.428c.343.428.686.857 1.114 1.371l1.457 1.714 1.2 1.457.943 1.2h2.576l-.343-.343zm-5.654-5.917h-1.028V20.8s.086-1.371.086-1.885h.514l1.028-.086c.343 0 .6.086.943.086a2.018 2.018 0 0 1 .857.428 1.98 1.98 0 0 1 .6.6 3.684 3.684 0 0 1 .171 1.028 1.675 1.675 0 0 1-.343 1.2c-.171.428-.514.6-.857.857a3.709 3.709 0 0 1-1.028.428 1.845 1.845 0 0 1-.943.17zm13.112.343a3.206 3.206 0 0 0-1.371-.6c-.514-.171-.943-.428-1.371-.6a10.7 10.7 0 0 1-1.028-.686 2.477 2.477 0 0 1-.343-1.2 2.642 2.642 0 0 1 .086-.857 1.188 1.188 0 0 1 .428-.6A1.866 1.866 0 0 1 138.3 19a2.15 2.15 0 0 1 .857-.171 2.535 2.535 0 0 1 .857.171c.171.086.428.171.514.343a2.271 2.271 0 0 1 .428.514l.343.6h.428l.343-.943.343-.686-.086-.086a5.963 5.963 0 0 0-1.2-.686 7.686 7.686 0 0 0-1.543-.171 3.478 3.478 0 0 0-1.628.343 4.124 4.124 0 0 0-1.371.686 5.5 5.5 0 0 0-.857 1.114 7.545 7.545 0 0 0-.171 1.457 2.554 2.554 0 0 0 .428 1.714c.343.343.6.857 1.114 1.028a4.124 4.124 0 0 0 1.371.686c.514.171.943.428 1.371.6a2.685 2.685 0 0 1 .943.686 1.492 1.492 0 0 1 .428 1.2 3.515 3.515 0 0 1-.086.943 2.366 2.366 0 0 1-.514.686 2.062 2.062 0 0 1-.686.514 3.683 3.683 0 0 1-1.028.171 3.645 3.645 0 0 1-.943-.171 1.633 1.633 0 0 1-.857-.428 1.477 1.477 0 0 1-.514-.514 2.6 2.6 0 0 1-.428-.6v-.086h-.686l-.086 1.028-.171.857a3.362 3.362 0 0 0 1.2.686 5.7 5.7 0 0 0 1.885.343 4.359 4.359 0 0 0 1.885-.343 3.464 3.464 0 0 0 1.457-.857 4.9 4.9 0 0 0 .943-1.371 5.533 5.533 0 0 0 .343-1.628 2.443 2.443 0 0 0-.431-1.629 4.513 4.513 0 0 0-1.286-1.031z" class="cls-1" data-name="Path 11" transform="translate(23.14 40.141)"/>
            <path id="Path_12" d="M73.814 39.756c0-1.114.086-2.228.086-3.256h-.6a2.143 2.143 0 0 1-1.2 0h-.6c.086 1.028.086 2.142.171 3.256v10.8c-.086 1.114-.086 2.142-.171 3.256a6.071 6.071 0 0 1 1.2-.086 5.658 5.658 0 0 1 1.2.086c0-1.114-.086-2.142-.086-3.256 0-1.028-.086-2.142-.086-3.256v-4.287c-.086-1.113.086-2.228.086-3.257zm22.624 12.769l-.171.086-1.028.086h-1.2l-1.371.086h-1.029v-.857l-.086-1.714V48.5l.086-.428V47.9h1.8l1.114.086 1.371.086V47.9l-.086-.514.086-.686H94.9l-.943.086h-2.318v-.857l-.171-1.285.086-1.114v-.943h1.371l1.114.086 1.028.086h1.2v-.171l-.086-.514.086-.6-.171-.086-1.628.086h-3.086l-1.882-.089v.171l.086 2.228.086 2.4v3.085l-.09 2.231-.082 2.482h.171L91.3 53.9h3.171l1.885.086v-.171l-.086-.428v-.343zm9.941.686l.086-.686h-.171a13.407 13.407 0 0 1-2.571.171s-1.885.086-2.142.086c0-.343-.086-2.742-.086-2.742V46.1l.086-2.228.086-2.571-.686.086h-.857l-.6-.086v.171l.086 2.4.086 2.228v3.085l-.086 2.228-.087 2.487h.171l1.628-.086h3.256l1.885.086-.086-.171zm24.509-11.826a1.274 1.274 0 0 1-.514-.086h-.174l.086 3.6v5.57l-1.628-1.628-2.228-2.485-2.484-2.656-2.4-2.571h-.514v2.057a75.773 75.773 0 0 1-.343 9.855l-.086.943h.343l.6-.086.857.086v-.171c-.171-1.971-.171-4.028-.171-6v-3.258c.514.6 4.285 4.628 4.285 4.628 1.543 1.628 3 3.256 4.456 4.8v.086h.514v-.686c0-3.685-.086-7.113.171-10.712l.086-1.457h-.344zM145.8 44.9a4.536 4.536 0 0 0-1.114-1.971 3.487 3.487 0 0 0-1.885-1.114 6.261 6.261 0 0 0-2.742-.514l-2.657.086h-1.371l-1.543-.086v.171l.086 2.4.086 2.228v3.085l-.086 2.228-.086 2.485h.171l1.2-.086h1.114l2.4.086a6.713 6.713 0 0 0 2.228-.343 4.675 4.675 0 0 0 2.142-1.114 5.608 5.608 0 0 0 1.628-2.057 6.841 6.841 0 0 0 .6-3.085 7.393 7.393 0 0 0-.171-2.399zm-2.314 5.4a4.742 4.742 0 0 1-1.2 1.628 3.729 3.729 0 0 1-1.628.857 6.75 6.75 0 0 1-1.971.343l-1.2-.086a3.213 3.213 0 0 1-.943-.086c0-1.114-.086-2.4-.086-3.6v-3.087l.086-1.885v-1.628c.343 0 1.114-.086 1.114-.086l1.457-.086a15.351 15.351 0 0 1 2.057.171 3.64 3.64 0 0 1 1.457.857 3.023 3.023 0 0 1 1.028 1.457 10.008 10.008 0 0 1 .428 2.571 8.616 8.616 0 0 1-.6 2.66zM86.24 52.954l-.857-1.028-2.742-3.514a1.534 1.534 0 0 0-.428-.514 4.177 4.177 0 0 0 .943-.343 3.166 3.166 0 0 0 1.2-.6 3.553 3.553 0 0 0 .943-1.028 2.644 2.644 0 0 0 .428-1.543 2.452 2.452 0 0 0-.343-1.457 2.28 2.28 0 0 0-.857-.943 2.813 2.813 0 0 0-1.2-.514 8.444 8.444 0 0 0-1.457-.171l-2.057.086h-1.029l-1.2-.086.086.171v2.4l.086 2.228v3.085L77.67 51.5l-.086 2.485L78.7 53.9l1.028.086v-.171l-.087-2.315-.086-2.228v-1.117h.514c.343.428.686.857 1.114 1.371l1.371 1.714 1.2 1.543.857 1.2.6-.086h1.029l1.028.086-.343-.343zm-5.656-5.913h-.6a1.5 1.5 0 0 1-.428-.086V46.1l.086-1.971v-1.716h.6l1.028-.086c.171 0 .514.086.857.086a1.633 1.633 0 0 1 .857.428.847.847 0 0 1 .6.6 2.1 2.1 0 0 1 .343 1.028 1.675 1.675 0 0 1-.343 1.2 2.723 2.723 0 0 1-.857.857 2.2 2.2 0 0 1-1.028.428 4.887 4.887 0 0 1-1.115.087zm38.221 5.4l-.857-1.885-.948-2.23-1.028-2.4-1.028-2.485-1.028-2.4h-.514l-2.742 6.342-3 6.513.943-.086.857.086v-.086c.171-.6.428-1.2.686-2.142 0 0 .857-1.971 1.028-2.485h.943l1.028-.086 1.2.086h1.028c.086.171.428 1.114.428 1.114l.514 1.2.514 1.2.428 1.114h.086l.514-.086h.943l.686.086-.086-.343zm-4.542-4.371h-2.657c.171-.428 1.457-3.428 1.714-3.942.171.514 1.457 3.514 1.628 3.942z" class="cls-1" data-name="Path 12" transform="translate(19.836 36.779)"/>
        </g>
    </g>
</svg>
