<?xml version="1.0" encoding="utf-8"?>
<!-- Generator: Adobe Illustrator 16.0.4, SVG Export Plug-In . SVG Version: 6.00 Build 0)  -->
<!DOCTYPE svg PUBLIC "-//W3C//DTD SVG 1.1//EN" "http://www.w3.org/Graphics/SVG/1.1/DTD/svg11.dtd">
<svg version="1.1" id="Layer_1" xmlns="http://www.w3.org/2000/svg" xmlns:xlink="http://www.w3.org/1999/xlink" x="0px" y="0px"
	 width="45px" height="29.354px" viewBox="3.187 -7.319 45 29.354" enable-background="new 3.187 -7.319 45 29.354"
	 xml:space="preserve">
<g>
	<g>
		<rect x="3.38" y="-7.503" fill="#008745" width="45" height="29.354"/>
		<rect x="4.546" y="-6.191" fill="none" stroke="#FFFFFF" stroke-width="0.2939" width="42.668" height="26.729"/>
	</g>
	<g>
		<g>
			<g>
				<path fill="#FFFFFF" d="M10.476-4.796v1.103H9.369v2.625h1.106v1.103H9.369v3.528H7.812v-8.358H10.476z"/>
				<path fill="#FFFFFF" d="M10.825-0.366c0-0.944,0.204-2.572,1.689-2.572c1.413,0,1.661,1.25,1.661,1.797
					c0,0.744-0.292,1.375-0.991,1.805c-0.35,0.21-0.654,0.283-0.945,0.346c0.028,1.072,0.684,1.575,1.281,1.575
					c0.101,0,0.248-0.01,0.582-0.125v1.071c-0.32,0.095-0.655,0.095-0.728,0.095c-0.407,0-0.947-0.063-1.529-0.494
					c-0.713-0.536-1.019-1.407-1.019-2.763V-0.366z M12.179-0.06c0.553-0.168,0.641-0.62,0.641-1.072
					c0-0.462-0.116-0.641-0.291-0.808c-0.147,0.157-0.35,0.398-0.35,1.05V-0.06z"/>
				<path fill="#FFFFFF" d="M17.435-1.72c-0.888,0.158-1.251,0.841-1.251,1.061v4.221h-1.355V-1.72c0-0.294-0.146-0.409-0.306-0.504
					l0.815-0.714c0.554,0.147,0.758,0.273,0.846,0.924c0.479-0.777,0.538-0.924,1.251-0.924V-1.72z"/>
				<path fill="#FFFFFF" d="M23.274,3.562h-1.354v-5.198c0-0.052,0-0.325-0.276-0.325c-0.16,0-0.247,0.084-0.35,0.21v5.313h-1.354
					v-5.198c0-0.157-0.073-0.325-0.276-0.325c-0.175,0-0.292,0.137-0.35,0.21v5.313h-1.355v-5.429c0-0.095-0.057-0.273-0.232-0.388
					l0.801-0.683c0.321,0.084,0.553,0.231,0.684,0.474c0.218-0.221,0.481-0.474,1.004-0.474c0.612,0,0.874,0.347,0.961,0.474
					c0.378-0.316,0.569-0.474,1.021-0.474c0.728,0,1.077,0.494,1.077,1.177V3.562z"/>
				<path fill="#FFFFFF" d="M23.87-0.009c0-1.313,0.583-2.929,2.723-2.929h0.642v4.819c0,0.683,0.175,0.82,0.35,0.924l-0.787,0.82
					c-0.29-0.063-0.481-0.159-0.728-0.546c-0.248,0.304-0.597,0.546-0.917,0.546c-1.106,0-1.282-1.471-1.282-2.857V-0.009z
					 M25.88-1.709c-0.523,0.211-0.655,0.578-0.655,1.639v1.176c0,0.388,0,1.586,0.437,1.586c0.088,0,0.16-0.021,0.218-0.063V-1.709z
					"/>
				<path fill="#FFFFFF" d="M31.471,3.562h-1.354V-1.7c0-0.177-0.189-0.262-0.321-0.262c-0.16,0-0.261,0.116-0.307,0.168v5.355
					h-1.353V-1.72c0-0.093,0-0.368-0.277-0.515l0.859-0.703c0.336,0.074,0.51,0.231,0.685,0.452
					c0.276-0.252,0.495-0.452,0.976-0.452c0.641,0,1.092,0.389,1.092,1.125V3.562z"/>
				<path fill="#FFFFFF" d="M32.053-0.009c0-1.313,0.583-2.929,2.724-2.929h0.641v4.819c0,0.683,0.175,0.82,0.35,0.924l-0.788,0.82
					c-0.29-0.063-0.48-0.159-0.728-0.546c-0.246,0.304-0.596,0.546-0.917,0.546c-1.106,0-1.281-1.471-1.281-2.857V-0.009z
					 M34.062-1.709c-0.522,0.211-0.654,0.578-0.654,1.639v1.176c0,0.388,0,1.586,0.437,1.586c0.088,0,0.161-0.021,0.218-0.063
					V-1.709z"/>
				<path fill="#FFFFFF" d="M39.319,3.404c0,0.81-0.686,1.386-1.82,1.386c-0.567,0-0.961-0.158-1.367-0.314l0.435-0.841
					c0.234,0.105,0.452,0.2,0.772,0.2c0.408,0,0.627-0.179,0.627-0.431V3.132c-0.277,0.272-0.597,0.325-0.714,0.325
					c-1.224,0-1.295-2.079-1.295-2.897c0-1.355,0.218-3.498,2.75-3.498h0.612V3.404z M37.966-1.783
					c-0.365,0.168-0.627,0.451-0.627,1.45v1.428c0,0.305,0,1.008,0.188,1.239c0.073,0.084,0.146,0.115,0.249,0.115
					c0.015,0,0.131,0,0.189-0.042V-1.783z"/>
				<path fill="#FFFFFF" d="M41.4-4.796v2.237c0.188-0.2,0.511-0.378,0.903-0.378c0.917,0,1.106,0.683,1.106,1.208v5.292h-1.354
					v-5.218c0-0.169-0.103-0.306-0.307-0.306c-0.161,0-0.232,0.084-0.35,0.189v5.334h-1.354v-8.358H41.4z"/>
			</g>
			<g>
				<path fill="#FFFFFF" d="M9.757,4.904v6.174h1.197V4.904h2.331V18.71h-2.331v-5.812H9.757v5.812H7.428V4.904H9.757z"/>
				<path fill="#FFFFFF" d="M18.445,4.904v1.821h-1.654v4.353h1.654v1.82h-1.654v3.99h1.654v1.821H14.46V4.904H18.445z"/>
				<path fill="#FFFFFF" d="M20.469,4.904c1.765,0,3.027,0.433,3.812,1.404c0.588,0.711,0.849,1.561,0.849,2.428
					c0,1.804-1.111,2.567-1.589,2.897c0.435,0.382,0.718,0.641,1.176,1.647c0.653,1.491,0.871,4.058,1,5.429h-2.373
					c-0.064-1.614-0.24-5.048-1.785-6.054v6.054h-2.33V4.904H20.469z M21.755,10.869c1.197-0.434,1.197-1.82,1.197-1.994
					c0-0.814-0.282-1.682-1.197-1.994V10.869z"/>
				<path fill="#FFFFFF" d="M30.639,4.799l1.829,13.911h-2.352l-0.132-2.465h-1.306l-0.218,2.465H26.13l1.96-13.911H30.639z
					 M29.419,7.089h-0.195c-0.066,2.011-0.087,2.897-0.152,3.71l-0.262,3.625h1.022l-0.173-2.809L29.419,7.089z"/>
				<path fill="#FFFFFF" d="M35.626,4.904v11.985h1.371v1.821h-3.702V4.904H35.626z"/>
				<path fill="#FFFFFF" d="M38.499,4.904c2.352,0,3.332,0.884,3.942,1.63c0.935,1.162,1.457,2.947,1.457,5.221
					c0,1.128-0.151,3.764-1.438,5.394c-0.63,0.798-1.523,1.562-3.548,1.562h-1.089V4.904H38.499z M40.153,16.455
					c0.74-0.451,1.309-1.196,1.309-4.7c0-1.354-0.153-2.724-0.394-3.365c-0.306-0.798-0.567-0.953-0.915-1.179V16.455z"/>
			</g>
		</g>
		<path fill="#231F20" d="M25.662,2.691c0.034,0,0.063-0.006,0.093-0.013c-0.095-0.381-0.096-0.905-0.096-1.138V0.363
			c0-0.667,0.052-1.059,0.221-1.311v-0.761c-0.523,0.211-0.655,0.578-0.655,1.639v1.176C25.225,1.493,25.225,2.691,25.662,2.691z
			 M31.905-1.38c0-0.505-0.214-0.846-0.554-1.011c0.076,0.16,0.119,0.351,0.119,0.577v5.375h-0.919v0.435h1.354V-1.38z
			 M21.728-1.316c0.062-0.076,0.122-0.136,0.192-0.171v-0.148c0-0.052,0-0.325-0.276-0.325c-0.16,0-0.247,0.084-0.35,0.21v5.313
			h-0.919v0.435h1.353V-1.316z M29.574,10.017l-0.155-2.927h-0.195c-0.066,2.011-0.087,2.897-0.152,3.71l-0.262,3.625h0.466
			l0.229-3.189C29.535,10.874,29.555,10.498,29.574,10.017z M23.986,12.06c0.484-0.333,1.578-1.098,1.578-2.889
			c0-0.867-0.261-1.717-0.849-2.428c-0.138-0.17-0.291-0.322-0.457-0.46c0.007,0.008,0.015,0.016,0.023,0.025
			c0.588,0.711,0.849,1.561,0.849,2.428c0,1.804-1.111,2.567-1.589,2.897C23.704,11.777,23.847,11.905,23.986,12.06z M29.796-1.961
			c-0.16,0-0.261,0.116-0.307,0.168v5.355h-0.917v0.435h1.353v-5.356c0.032-0.037,0.096-0.11,0.192-0.146V-1.7
			C30.117-1.877,29.928-1.961,29.796-1.961z M27.231,4.059l0.786-0.818c-0.174-0.105-0.349-0.243-0.349-0.925v-4.819h-0.435v4.385
			c0,0.683,0.175,0.82,0.35,0.924l-0.787,0.82c-0.104-0.023-0.195-0.049-0.279-0.092C26.758,3.904,26.945,3.997,27.231,4.059z
			 M26.1,3.125c-0.001,0-0.002,0-0.005,0c-0.019,0-0.038-0.005-0.058-0.01c-0.245,0.288-0.578,0.511-0.885,0.511
			c-0.174,0-0.326-0.038-0.457-0.104c0.192,0.331,0.477,0.538,0.892,0.538c0.317,0,0.663-0.236,0.91-0.537
			C26.361,3.45,26.238,3.332,26.1,3.125z M21.755,6.881v3.988c0.167-0.061,0.311-0.142,0.434-0.234V7.315
			c0.152,0.052,0.285,0.119,0.402,0.199C22.404,7.237,22.135,7.011,21.755,6.881z M19.747-1.316
			c0.039-0.049,0.103-0.124,0.192-0.169v-0.15c0-0.157-0.073-0.325-0.276-0.325c-0.175,0-0.292,0.137-0.35,0.21v5.313h-0.92v0.435
			h1.353V-1.316z M43.844-1.295c0-0.399-0.11-0.891-0.567-1.103c0.1,0.211,0.134,0.452,0.134,0.667v5.292h-0.92v0.435h1.354V-1.295z
			 M40.589,7.644c0.058,0.039,0.113,0.075,0.168,0.112c-0.188-0.282-0.377-0.399-0.604-0.546v9.245
			c0.154-0.094,0.301-0.201,0.436-0.342V7.644z M41.837-4.362H41.4v1.802c0.108-0.112,0.256-0.217,0.437-0.287V-4.362z
			 M41.837-1.338c0.078-0.071,0.139-0.13,0.22-0.164v-0.154c0-0.169-0.103-0.306-0.307-0.306c-0.161,0-0.232,0.084-0.35,0.189v5.334
			h-0.92v0.435h1.356V-1.338z M23.708-1.328c0-0.496-0.187-0.891-0.566-1.071c0.088,0.18,0.132,0.396,0.132,0.637v5.323h-0.92v0.435
			h1.354V-1.328z M37.358,3.833c0.396-0.006,0.607-0.182,0.607-0.429V3.132c-0.277,0.272-0.597,0.325-0.714,0.325
			c-0.162,0-0.302-0.037-0.425-0.101C36.96,3.578,37.133,3.75,37.358,3.833z M35.415,4.059L36.2,3.241
			c-0.175-0.105-0.35-0.243-0.35-0.925v-4.819h-0.434v4.385c0,0.683,0.175,0.82,0.35,0.924l-0.788,0.82
			c-0.104-0.023-0.194-0.049-0.279-0.092C34.939,3.904,35.128,3.997,35.415,4.059z M39.134,4.929c0.399-0.247,0.62-0.631,0.62-1.09
			v-6.343h-0.435v5.908c0,0.81-0.686,1.386-1.82,1.386c-0.312,0-0.572-0.049-0.811-0.117L36.565,4.91
			c0.38,0.147,0.75,0.293,1.259,0.311V4.904h0.675C38.724,4.904,38.932,4.914,39.134,4.929z M33.844,2.691
			c0.035,0,0.063-0.006,0.093-0.013c-0.094-0.381-0.095-0.905-0.095-1.138V0.363c0-0.667,0.052-1.059,0.22-1.311v-0.761
			c-0.522,0.211-0.654,0.578-0.654,1.639v1.176C33.407,1.493,33.407,2.691,33.844,2.691z M37.776,2.449c0.005,0,0.029,0,0.06-0.002
			c-0.062-0.305-0.062-0.707-0.062-0.917V0.101c0-0.521,0.071-0.846,0.192-1.062v-0.823c-0.365,0.168-0.627,0.451-0.627,1.45v1.428
			c0,0.305,0,1.008,0.188,1.239C37.601,2.417,37.674,2.449,37.776,2.449z M36.06,16.889V5.338h-0.434v11.55H36.06z M16.618-0.225
			c0-0.22,0.364-0.903,1.253-1.061v-0.831c-0.035-0.049-0.082-0.099-0.144-0.139l0.144-0.123v-0.126c-0.183,0-0.32,0.01-0.436,0.038
			v0.746c-0.888,0.158-1.251,0.841-1.251,1.061v4.221h-0.92v0.435h1.354V-0.225z M21.559,12.656v6.054h-1.896v0.433h2.33V13.09
			c0.035,0.022,0.068,0.049,0.102,0.074C21.938,12.962,21.76,12.789,21.559,12.656z M18.445,18.71h-3.551v0.433h3.985v-1.82h-0.435
			V18.71z M28.679,16.245l-0.218,2.465h-1.835l-0.06,0.433h2.328l0.219-2.463h0.895l-0.023-0.435H28.679z M18.445,6.725h-1.654
			v4.353h0.434V7.159h1.655V5.338h-0.435V6.725z M18.445,12.898h-1.654v3.99h0.434v-3.554h1.655v-1.823h-0.435V12.898z
			 M30.695,5.234l1.772,13.476h-1.94l0.022,0.433h2.353l-1.83-13.909H30.695z M36.997,18.71h-3.268v0.433h3.701v-1.82h-0.434V18.71z
			 M42.875,6.968c-0.158-0.192-0.34-0.394-0.564-0.586c0.045,0.051,0.088,0.102,0.131,0.152c0.935,1.162,1.457,2.947,1.457,5.221
			c0,1.128-0.151,3.764-1.438,5.394c-0.63,0.798-1.523,1.562-3.548,1.562h-0.654v0.433h1.088c2.025,0,2.918-0.763,3.551-1.56
			c1.283-1.631,1.438-4.267,1.438-5.394C44.335,9.916,43.811,8.13,42.875,6.968z M34.678,3.522
			c-0.135-0.072-0.257-0.191-0.396-0.398c-0.001,0-0.002,0-0.004,0c-0.021,0-0.04-0.005-0.058-0.01
			c-0.244,0.288-0.579,0.511-0.887,0.511c-0.175,0-0.326-0.038-0.458-0.104c0.193,0.331,0.477,0.538,0.893,0.538
			C34.086,4.059,34.431,3.823,34.678,3.522z M24.046,12.13c0.207,0.248,0.411,0.58,0.67,1.151c0.653,1.491,0.871,4.058,1,5.429
			H23.76c0.006,0.154,0.014,0.301,0.019,0.433h2.374c-0.131-1.369-0.348-3.937-1.002-5.428C24.719,12.765,24.442,12.48,24.046,12.13
			z M13.862-2.261c0.249,0.384,0.313,0.841,0.313,1.12c0,0.744-0.292,1.375-0.991,1.805c-0.35,0.21-0.654,0.283-0.945,0.346
			c0.02,0.72,0.321,1.181,0.698,1.408c-0.152-0.246-0.252-0.57-0.265-0.974c0.292-0.063,0.597-0.137,0.948-0.345
			c0.698-0.431,0.989-1.062,0.989-1.807C14.608-1.104,14.476-1.871,13.862-2.261z M9.804,0.468h1.023
			c-0.001-0.034-0.002-0.064-0.002-0.099v-0.735c0-0.085,0.002-0.174,0.006-0.269h-0.356v0.669H9.369v3.528H8.246v0.435h1.558V0.468
			z M16.336-2.261c-0.065-0.057-0.146-0.101-0.239-0.14c0.038,0.105,0.065,0.229,0.087,0.387C16.239-2.104,16.29-2.187,16.336-2.261
			z M9.757,11.078h0.435v-5.74H9.757V11.078z M13.284,18.71h-1.896v0.433h2.33V5.338h-0.434V18.71z M9.757,18.71H7.862v0.433h2.33
			v-5.808h0.762v-0.437H9.757V18.71z M14.101,3.531c-0.32,0.095-0.655,0.095-0.728,0.095c-0.407,0-0.947-0.063-1.529-0.494
			c0-0.001-0.001-0.001-0.001-0.001c0.125,0.165,0.268,0.309,0.435,0.435c0.583,0.431,1.121,0.494,1.529,0.494
			c0.073,0,0.408,0,0.728-0.095V2.894c-0.204,0.071-0.337,0.102-0.434,0.115V3.531z M9.804-3.258h1.107v-1.104h-0.435v0.668H9.369
			v2.625h0.435V-3.258z M12.614-0.34v-0.117c0-0.438,0.093-0.691,0.198-0.857c-0.027-0.33-0.134-0.483-0.283-0.626
			c-0.147,0.157-0.35,0.398-0.35,1.05v0.83C12.379-0.122,12.518-0.219,12.614-0.34z"/>
	</g>
</g>
</svg>
