<?xml version="1.0" encoding="utf-8"?>
<!-- Generator: Adobe Illustrator 16.0.4, SVG Export Plug-In . SVG Version: 6.00 Build 0)  -->
<!DOCTYPE svg PUBLIC "-//W3C//DTD SVG 1.1//EN" "http://www.w3.org/Graphics/SVG/1.1/DTD/svg11.dtd">
<svg version="1.1" id="Layer_1" xmlns="http://www.w3.org/2000/svg" xmlns:xlink="http://www.w3.org/1999/xlink" x="0px" y="0px"
	 width="88.08px" height="14.17px" viewBox="0 0 88.08 14.17" enable-background="new 0 0 88.08 14.17" xml:space="preserve">
<g>
	<g>
		<path fill="#D72027" d="M10.91,13.22c-0.666,0.627-1.477,0.952-2.429,0.952h-4.94c-0.949,0-1.783-0.306-2.49-0.914
			c-0.708-0.606-1.05-1.354-1.05-2.267V3.197c0-0.889,0.342-1.64,1.05-2.268c0.707-0.627,1.541-0.932,2.49-0.932h5.77
			c0.264,0,0.406,0.143,0.406,0.406V2.61c0,0.264-0.143,0.405-0.406,0.405H3.744c-0.264,0-0.403,0.101-0.403,0.322v7.411
			c0,0.263,0.122,0.404,0.385,0.404h4.512c0.244,0,0.365-0.121,0.365-0.386V8.582H6.216c-0.264,0-0.407-0.142-0.407-0.407V5.993
			c0-0.267,0.144-0.405,0.407-0.405h5.323c0.263,0,0.405,0.139,0.405,0.405v4.998C11.944,11.842,11.6,12.592,10.91,13.22z"/>
		<path fill="#D72027" d="M21.661,14.172h-5.305c-1.578,0-2.367-0.792-2.367-2.368v-0.103c0-0.853,0.382-1.54,1.134-2.066
			l3.967-2.732C19.152,6.861,19.19,6.82,19.19,6.76c0-0.059-0.062-0.082-0.161-0.082h-4.231c-0.263,0-0.404-0.142-0.404-0.402V4.471
			c0-0.281,0.142-0.423,0.404-0.423h5.263c0.912,0,1.642,0.265,2.186,0.771c0.569,0.505,0.853,1.133,0.853,1.859v6.095
			C23.099,13.704,22.612,14.172,21.661,14.172z M20.061,9.19l-3.38,2.35h3.116c0.183,0,0.264-0.103,0.264-0.285V9.19z"/>
		<path fill="#D72027" d="M33.099,8.582l-3.966,2.734c-0.062,0.039-0.104,0.08-0.104,0.14c0,0.062,0.06,0.084,0.161,0.084h4.232
			c0.262,0,0.404,0.142,0.404,0.403v1.802c0,0.284-0.143,0.427-0.404,0.427h-5.264c-0.911,0-1.639-0.266-2.207-0.772
			c-0.547-0.505-0.829-1.132-0.829-1.859V6.678c0-1.537,1.275-2.63,3.036-2.63h3.705c1.577,0,2.367,0.789,2.367,2.369v0.102
			C34.231,7.368,33.849,8.058,33.099,8.582z M28.42,6.678c-0.183,0-0.261,0.104-0.261,0.286v2.062l3.382-2.349H28.42z"/>
		<path fill="#D72027" d="M38.706,14.172h-2.248c-0.263,0-0.404-0.143-0.404-0.405V0.404c0-0.264,0.142-0.406,0.404-0.406h2.248
			c0.263,0,0.405,0.143,0.405,0.406v13.362C39.111,14.029,38.969,14.172,38.706,14.172z"/>
		<path fill="#D72027" d="M43.949,3.016h-2.229c-0.263,0-0.403-0.142-0.403-0.405V0.404c0-0.264,0.141-0.406,0.403-0.406h2.229
			c0.262,0,0.405,0.143,0.405,0.406V2.61C44.354,2.874,44.211,3.016,43.949,3.016z M43.949,14.172h-2.229
			c-0.263,0-0.403-0.143-0.403-0.405V4.453c0-0.264,0.141-0.405,0.403-0.405h2.229c0.262,0,0.405,0.142,0.405,0.405v9.313
			C44.354,14.029,44.211,14.172,43.949,14.172z"/>
		<path fill="#D72027" d="M53.263,14.172h-3.851c-1.375,0-3.034-1.074-3.034-2.632V6.678c0-1.496,1.558-2.63,3.034-2.63h3.851
			c0.261,0,0.401,0.142,0.401,0.405v1.8c0,0.283-0.141,0.425-0.401,0.425h-3.584c-0.184,0-0.267,0.104-0.267,0.286v4.25
			c0,0.224,0.105,0.326,0.284,0.326h3.566c0.261,0,0.401,0.142,0.401,0.403v1.823C53.664,14.029,53.523,14.172,53.263,14.172z"/>
		<path fill="#231F20" d="M63.604,14.172H58.99c-1.016,0-1.842-0.266-2.491-0.812c-0.688-0.588-1.031-1.377-1.031-2.369V0.404
			c0-0.264,0.141-0.406,0.402-0.406h2.514c0.26,0,0.405,0.143,0.405,0.406v10.384c0,0.244,0.138,0.365,0.402,0.365h4.413
			c0.265,0,0.406,0.141,0.406,0.406v2.207C64.011,14.029,63.869,14.172,63.604,14.172z"/>
		<path fill="#231F20" d="M68.445,3.016h-2.229c-0.262,0-0.404-0.142-0.404-0.405V0.404c0-0.264,0.143-0.406,0.404-0.406h2.229
			c0.261,0,0.404,0.143,0.404,0.406V2.61C68.85,2.874,68.706,3.016,68.445,3.016z M68.445,14.172h-2.229
			c-0.262,0-0.404-0.143-0.404-0.405V4.453c0-0.264,0.143-0.405,0.404-0.405h2.229c0.261,0,0.404,0.142,0.404,0.405v9.313
			C68.85,14.029,68.706,14.172,68.445,14.172z"/>
		<path fill="#231F20" d="M77.35,6.678h-2.223v7.089c0,0.263-0.145,0.405-0.406,0.405h-2.228c-0.262,0-0.405-0.143-0.405-0.405
			V6.678h-1.419c-0.262,0-0.404-0.142-0.404-0.402V4.453c0-0.264,0.143-0.405,0.404-0.405h1.419V2.711
			c0-0.828,0.306-1.498,0.892-1.984c0.586-0.483,1.314-0.729,2.185-0.729h2.186c0.265,0,0.404,0.143,0.404,0.406v1.862
			c0,0.263-0.14,0.406-0.404,0.406h-1.942c-0.184,0-0.28,0.08-0.28,0.241v1.134h2.223c0.265,0,0.404,0.142,0.404,0.405v1.822
			C77.754,6.536,77.614,6.678,77.35,6.678z"/>
		<path fill="#231F20" d="M86.948,8.582l-3.97,2.734c-0.06,0.039-0.101,0.08-0.101,0.14c0,0.062,0.063,0.084,0.163,0.084h4.229
			c0.267,0,0.405,0.142,0.405,0.403v1.802c0,0.284-0.139,0.427-0.405,0.427h-5.261c-0.914,0-1.642-0.266-2.207-0.772
			c-0.546-0.505-0.83-1.132-0.83-1.859V6.678c0-1.537,1.276-2.63,3.037-2.63h3.705c1.577,0,2.365,0.789,2.365,2.369v0.102
			C88.079,7.368,87.699,8.058,86.948,8.582z M82.27,6.678c-0.18,0-0.261,0.104-0.261,0.286v2.062l3.376-2.349H82.27z"/>
	</g>
</g>
</svg>
