<svg xmlns="http://www.w3.org/2000/svg" width="192" height="99" viewBox="0 0 192.83 99.54" version="1.1">
    <title>gcn-logo--standard</title>
    <path d="M.44,87.16c0-5.48,4.05-8,8.21-8,3.94,0,8.21,2.41,8.43,7.34-2.3.66-3.72,3-3.72,5.69,0,3.72,3.07,6.57,13.25,6.57,13.69,0,25.29-5.15,25.29-12.48,0-6.35-6.79-8.1-15.55-8.1-2.85,0-7.45.22-12.48.22C12.92,78.4,0,76.76,0,65.59,0,59.68,3.07,53,15,49.6,9.53,47.85,4.05,44,4.05,37c0-13.25,17.41-17.52,27.81-17.19C29.13,9.42,35.48,0,46.1,0c6.24,0,10.4,3.61,10.4,9a9.32,9.32,0,0,1-9.09,9.31c.55-3.39-3.39-5.15-7-5.15s-8.54,1.64-7.77,6.68c11.94,0,23.76,5.8,23.76,15.22,0,11.17-11.39,17.3-27,17.3A47.56,47.56,0,0,1,15.88,50C4.6,53.87,4.27,58.8,25.51,58.8c3.18,0,7.77-.22,11.39-.22C48,58.58,62.2,61,62.2,75.45c0,15-15.55,24.09-36.68,24.09C13.58,99.54.44,97,.44,87.16Zm22-51.57c0,12.59,2.52,16,8.1,16,7.23,0,7.34-7.56,7.34-15.22,0-11.39-2.08-15.77-7.45-15.77S22.45,25.19,22.45,35.59Z"></path>
    <path d="M92.86,20.59c9.75,0,24.2,3.29,24.2,15.22,0,6.68-5,10.18-10.29,10.18-4.93,0-9.42-3-9.75-9.2a7.11,7.11,0,0,0,3.83-6.68c0-4.6-3.07-8.76-8.21-8.76-8.76,0-10.18,12-10.18,21.46,0,20.15,8.43,28.47,17.63,28.47,7.12,0,14.23-4.93,17.74-13.25l.66.33c-5.37,11.72-14.78,21.24-29.78,21.24C73,79.61,60.55,68.44,60.55,51,60.55,33.07,73.91,20.59,92.86,20.59Z"></path>
    <path d="M146.4,35c2.08-7.88,9.75-14.45,19.71-14.45,9.64,0,17.19,5.37,17.19,16.1V78.07h9.53v.77h-35.7v-.77H163V36.13c0-4.27-.22-10.95-5.91-10.95-6,0-10.62,8.21-10.62,14.67V78.07h6v.77H116.72v-.77h9.53v-54L115.3,25.51l-.11-.77,31.54-4.16Z"></path>
</svg>