<svg xmlns:dc="http://purl.org/dc/elements/1.1/"
    xmlns:cc="http://creativecommons.org/ns#"
    xmlns:rdf="http://www.w3.org/1999/02/22-rdf-syntax-ns#"
    xmlns:svg="http://www.w3.org/2000/svg"
    xmlns="http://www.w3.org/2000/svg"
    xmlns:sodipodi="http://sodipodi.sourceforge.net/DTD/sodipodi-0.dtd"
    xmlns:inkscape="http://www.inkscape.org/namespaces/inkscape" width="300" height="34.391922" viewBox="0 0 79.375002 9.0995293" version="1.1" id="svg110402" sodipodi:docname="Animated Galway daily Logo 300.svg" inkscape:version="0.92.2 5c3e80d, 2017-08-06">
    <defs id="defs110396"></defs>
    <sodipodi:namedview id="base" pagecolor="#ffffff" bordercolor="#666666" borderopacity="1.0" inkscape:pageopacity="0.0" inkscape:pageshadow="2" inkscape:zoom="1.979899" inkscape:cx="162.69816" inkscape:cy="-40.516748" inkscape:document-units="px" inkscape:current-layer="layer1" showgrid="false" fit-margin-top="0" fit-margin-left="0" fit-margin-right="0" fit-margin-bottom="0" inkscape:window-width="1280" inkscape:window-height="755" inkscape:window-x="0" inkscape:window-y="1" inkscape:window-maximized="1" units="px"></sodipodi:namedview>
    <metadata id="metadata110399">
        <rdf:rdf>
            <cc:work rdf:about="">
                <dc:format>image/svg+xml</dc:format>
                <dc:type rdf:resource="http://purl.org/dc/dcmitype/StillImage"></dc:type>
                <dc:title></dc:title>
            </cc:work>
        </rdf:rdf>
    </metadata>
    <g inkscape:label="Layer 1" inkscape:groupmode="layer" id="layer1" transform="translate(305.43509,-77.276116)">
        <path sodipodi:nodetypes="ccsccccscccccccccccccc" style="fill:#ff3d00;fill-opacity:1;stroke-width:0.04560171" d="M -255.73703,81.808377 V 77.36221 h 1.43838 c 1.13418,0 1.51271,0.01527 1.78987,0.07224 1.37524,0.28264 2.35958,1.251865 2.77488,2.732266 0.10118,0.360693 0.14412,2.424995 0.0612,2.940513 -0.25452,1.58158 -1.35031,2.76973 -2.83604,3.075078 -0.27716,0.05696 -0.65569,0.07224 -1.78987,0.07224 h -1.43838 z m 2.93666,4.07968 c 1.35543,-0.195922 2.37441,-1.156319 2.72097,-2.564522 0.12017,-0.488271 0.16784,-1.766428 0.0919,-2.463578 -0.10406,-0.955251 -0.39978,-1.616447 -0.9831,-2.198098 -0.40706,-0.405885 -0.72752,-0.613758 -1.1989,-0.777688 -0.47792,-0.166205 -0.83792,-0.200858 -2.09688,-0.201846 l -1.15144,-8.46e-4 v 4.126954 4.126955 l 1.15144,-8.46e-4 c 0.63329,-4.97e-4 1.29299,-0.02136 1.466,-0.04637 z" id="d_daily" inkscape:connector-curvature="0" inkscape:label="#path110971"></path>
        <path sodipodi:nodetypes="cscccscccccccccsccscccss" style="fill:#ff3d00;fill-opacity:1;stroke-width:0.04560171" d="m -248.70904,86.129222 c 0.0268,-0.06897 0.76323,-2.033835 1.63659,-4.366364 0.87335,-2.332528 1.60215,-4.276871 1.61955,-4.320762 0.0238,-0.06015 0.0838,-0.07965 0.24335,-0.07918 l 0.21172,6.97e-4 1.63768,4.388538 c 0.90073,2.413698 1.64731,4.415503 1.65906,4.448457 0.016,0.04477 -0.0277,0.0563 -0.17281,0.0456 l -0.19419,-0.01432 -0.48951,-1.29965 -0.48951,-1.299648 -2.16669,-0.01184 -2.16669,-0.01184 -0.49556,1.32289 -0.49556,1.322888 h -0.19305 c -0.192,0 -0.19278,-6.97e-4 -0.14438,-0.125406 z m 5.51249,-2.866493 c 0,-0.04573 -1.97312,-5.373251 -2.00322,-5.408787 -0.0153,-0.01802 -0.47884,1.179828 -1.03015,2.661895 -0.55131,1.482066 -1.00923,2.712669 -1.01759,2.734672 -0.009,0.02257 0.87091,0.04001 2.01788,0.04001 1.11819,0 2.03308,-0.0125 2.03308,-0.02779 z" id="a_daily" inkscape:connector-curvature="0" inkscape:label="#path110971"></path>
        <path sodipodi:nodetypes="ccccccccc" style="fill:#ff3d00;fill-opacity:1;stroke-width:0.04560171" d="M -240.00444,81.808377 V 77.36221 h 0.18241 0.18241 v 4.446167 4.446168 h -0.18241 -0.18241 z" id="i_daily" inkscape:connector-curvature="0" inkscape:label="#path110971"></path>
        <path sodipodi:nodetypes="ccccccccccccc" style="fill:#ff3d00;fill-opacity:1;stroke-width:0.04560171" d="M -236.99472,81.808377 V 77.36221 h 0.1596 0.15961 v 4.286561 4.286561 h 2.28008 2.28009 v 0.159607 0.159606 h -2.43969 -2.43969 z" id="L_daily" inkscape:connector-curvature="0" inkscape:label="#path110971"></path>
        <path sodipodi:nodetypes="ccccccccccsccccccccc" style="fill:#ff3d00;fill-opacity:1;stroke-width:0.04560171" d="m -229.69898,84.578764 -5e-4,-1.675863 -1.68267,-2.770305 -1.68266,-2.770303 0.23534,0.0015 0.23534,0.0015 1.52587,2.594211 c 1.26889,2.15729 1.53443,2.581373 1.57668,2.517989 0.028,-0.04192 0.72589,-1.209996 1.551,-2.595717 l 1.50022,-2.519494 h 0.19993 c 0.14456,0 0.19367,0.0163 0.17734,0.05885 -0.0124,0.03237 -0.76356,1.279005 -1.66921,2.770304 l -1.64664,2.711453 v 1.675863 1.675864 h -0.1596 -0.15961 l -4.9e-4,-1.675864 z" id="y_daily" inkscape:connector-curvature="0" inkscape:label="#path110971"></path>
        <path style="fill:#ff3d00;fill-opacity:1;stroke-width:0.04560171" d="m -302.43318,86.325039 c -1.34911,-0.29051 -2.27457,-1.108729 -2.71511,-2.400492 -0.34343,-1.007021 -0.38407,-2.737418 -0.0914,-3.891177 0.38297,-1.509718 1.40937,-2.483607 2.86457,-2.718031 0.48522,-0.07817 1.45302,-0.03445 1.91178,0.08636 1.13253,0.298238 1.87567,1.03283 2.17447,2.14948 0.0503,0.188106 0.0978,0.413836 0.10549,0.501618 l 0.014,0.159607 -0.89538,0.01234 -0.89538,0.01234 -0.0316,-0.168199 c -0.14278,-0.761059 -0.57373,-1.185058 -1.32288,-1.301525 -1.04685,-0.16275 -1.79754,0.385122 -2.10494,1.536233 -0.12353,0.462609 -0.12627,2.541098 -0.004,2.986913 0.19764,0.720211 0.52303,1.175797 1.01156,1.416298 0.59038,0.290644 1.48286,0.285072 2.07581,-0.01296 l 0.29702,-0.149291 0.0125,-0.786629 0.0125,-0.786629 h -0.82191 -0.8219 V 82.28727 81.603245 h 1.75566 1.75567 v 1.773554 1.773555 l -0.27726,0.256695 c -0.36054,0.333793 -1.03782,0.666539 -1.68362,0.82716 -0.39683,0.0987 -0.61155,0.122133 -1.25404,0.136869 -0.55253,0.01267 -0.86039,-4.98e-4 -1.07165,-0.04605 z m 5.01619,-0.08976 c 0,-0.01063 0.72048,-1.954984 1.60108,-4.320762 0.8806,-2.365781 1.62135,-4.35785 1.64612,-4.426822 l 0.045,-0.125404 h 0.85709 c 0.77395,0 0.86013,0.0077 0.88842,0.0798 0.0172,0.04389 0.74819,1.998494 1.62436,4.343563 0.87617,2.345068 1.61283,4.309931 1.63703,4.366365 l 0.044,0.102604 h -0.99171 -0.99171 l -0.29893,-0.900635 -0.29892,-0.900633 -1.60011,-0.01198 -1.60011,-0.01198 -0.30418,0.912612 -0.30419,0.912614 h -0.97665 c -0.53715,0 -0.97664,-0.0087 -0.97664,-0.01935 z m 5.22482,-3.389383 c -0.39738,-1.242864 -1.07168,-3.163388 -1.09272,-3.112316 -0.0155,0.03762 -0.26253,0.771239 -0.54893,1.63026 l -0.52074,1.561859 h 1.09395 c 1.02119,0 1.09227,-0.0053 1.06844,-0.0798 z m 3.89552,-1.037439 v -4.446166 h 0.93484 0.93483 v 3.716539 3.71654 h 1.93808 1.93807 v 0.729627 0.729629 h -2.87291 -2.87291 z m 7.59198,4.389166 c -0.026,-0.07167 -1.88934,-8.485602 -1.92389,-8.687127 l -0.0254,-0.148205 h 0.91305 c 0.90935,0 0.91316,3.45e-4 0.93709,0.102603 0.0132,0.05643 0.27453,1.426194 0.5807,3.043915 0.30616,1.617721 0.57076,2.95697 0.58801,2.976108 0.0172,0.01914 0.34594,-1.324974 0.73045,-2.986912 0.3845,-1.661941 0.70879,-3.047836 0.72063,-3.079766 0.0166,-0.04459 0.20266,-0.05517 0.80225,-0.0456 l 0.78071,0.01246 0.70705,3.066715 c 0.38887,1.686693 0.71854,3.066716 0.73259,3.066716 0.014,0 0.26779,-1.287678 0.56384,-2.861508 0.29606,-1.573829 0.55835,-2.958981 0.58287,-3.078116 l 0.0446,-0.216608 h 0.90826 c 0.83553,0 0.90806,0.0064 0.90581,0.0798 -0.001,0.04389 -0.4376,2.039537 -0.96945,4.434767 l -0.967,4.354964 -0.93481,0.01229 -0.93481,0.01229 -0.70369,-2.896601 c -0.38703,-1.593131 -0.71625,-2.896601 -0.73161,-2.896601 -0.0154,0 -0.34435,1.303069 -0.73109,2.89571 l -0.70316,2.895709 h -0.92616 c -0.69952,0 -0.93121,-0.01394 -0.94681,-0.057 z m 8.55103,0.03766 c 0,-0.01063 0.72049,-1.954984 1.60108,-4.320762 0.8806,-2.365781 1.62135,-4.35785 1.64612,-4.426822 l 0.045,-0.125404 h 0.85709 c 0.77394,0 0.86013,0.0077 0.88842,0.0798 0.0172,0.04389 0.74819,1.998494 1.62436,4.343563 0.87617,2.345068 1.61283,4.309931 1.63704,4.366365 l 0.044,0.102604 h -0.99172 -0.99171 l -0.29893,-0.900635 -0.29893,-0.900633 -1.6001,-0.01198 -1.60011,-0.01198 -0.30419,0.912612 -0.30418,0.912614 h -0.97665 c -0.53715,0 -0.97664,-0.0087 -0.97664,-0.01935 z m 5.22483,-3.389383 c -0.3974,-1.242864 -1.07168,-3.163388 -1.09273,-3.112316 -0.0155,0.03762 -0.26252,0.771239 -0.54894,1.63026 l -0.52074,1.561859 h 1.09396 c 1.02119,0 1.09226,-0.0053 1.06845,-0.0798 z m 5.12676,1.797059 v -1.611671 l -1.00672,-1.956664 c -0.5537,-1.076165 -1.21103,-2.351689 -1.46073,-2.834496 l -0.454,-0.877833 h 1.01786 1.01787 l 0.90806,1.984391 c 0.61251,1.33852 0.91999,1.963084 0.9447,1.918927 0.0202,-0.036 0.42776,-0.913589 0.90579,-1.950189 0.47804,-1.036599 0.88467,-1.900529 0.90361,-1.919841 0.019,-0.01931 0.47866,-0.02957 1.02158,-0.0228 l 0.98714,0.01231 -1.45609,2.827307 -1.4561,2.827305 -10e-4,1.607462 -0.001,1.60746 h -0.93484 -0.93483 z" id="Y_daily" inkscape:connector-curvature="0" inkscape:label="#path110971" sodipodi:nodetypes="csssscccccscscccccccccccccccccccssccscsccccccccccsssccscscccccccccccccccccscscccccsscscscscccssscscscscscsccccccccccsssccscscccsscccscccccccccccc"></path>
    </g>
</svg>