<svg width="194" height="26" viewBox="0 0 194 26" fill="none" xmlns="http://www.w3.org/2000/svg">
<path d="M26.5 6.81L25.412 0.179999C24.8907 0.338665 24.3807 0.474665 23.882 0.587998C23.406 0.678665 22.794 0.735332 22.046 0.757998C21.1847 0.757998 20.414 0.769332 19.734 0.792C19.054 0.792 18.3967 0.803333 17.762 0.825999C17.1273 0.825999 16.47 0.825999 15.79 0.825999C15.1327 0.825999 14.3847 0.825999 13.546 0.825999C12.7073 0.825999 11.948 0.825999 11.268 0.825999C10.6107 0.825999 9.96467 0.825999 9.33 0.825999C8.69533 0.825999 8.038 0.825999 7.358 0.825999C6.678 0.803333 5.90733 0.780666 5.046 0.757998C4.20733 0.735332 3.56133 0.689999 3.108 0.622C2.67733 0.553999 2.20133 0.463332 1.68 0.349999L0.66 6.81L0.966 6.912C1.102 6.504 1.28333 6.08467 1.51 5.654C1.75933 5.22333 2.00867 4.82667 2.258 4.464C2.53 4.07867 2.77933 3.72733 3.006 3.41C3.25533 3.09266 3.47067 2.85467 3.652 2.696C4.128 2.24267 4.638 1.92533 5.182 1.744C5.74867 1.56267 6.46267 1.46067 7.324 1.438C7.75467 1.438 8.12867 1.438 8.446 1.438C8.786 1.41533 9.10333 1.404 9.398 1.404C9.71533 1.404 10.044 1.404 10.384 1.404C10.7467 1.404 11.166 1.404 11.642 1.404V12.658C11.642 13.27 11.642 13.916 11.642 14.596C11.642 15.276 11.6307 15.9333 11.608 16.568C11.608 17.2027 11.5967 17.7807 11.574 18.302C11.574 18.8233 11.574 19.2427 11.574 19.56C11.574 19.9227 11.5627 20.2967 11.54 20.682C11.54 21.0673 11.5173 21.43 11.472 21.77C11.4493 22.0873 11.404 22.382 11.336 22.654C11.2907 22.9033 11.2113 23.0847 11.098 23.198C10.5767 23.7873 10.044 24.1613 9.5 24.32C8.956 24.4787 8.38933 24.592 7.8 24.66V25H18.85V24.66C18.3513 24.5693 17.7847 24.4333 17.15 24.252C16.538 24.0707 16.062 23.7307 15.722 23.232C15.5407 22.9827 15.4273 22.5633 15.382 21.974C15.3593 21.362 15.348 20.7273 15.348 20.07V12.522C15.348 11.8193 15.348 10.958 15.348 9.938C15.348 8.89533 15.348 7.84133 15.348 6.776C15.348 5.71067 15.348 4.69067 15.348 3.716C15.3707 2.74133 15.382 1.97067 15.382 1.404C15.8807 1.404 16.3 1.404 16.64 1.404C17.0027 1.404 17.3313 1.404 17.626 1.404C17.9433 1.404 18.2607 1.41533 18.578 1.438C18.8953 1.438 19.2693 1.438 19.7 1.438C20.5613 1.46067 21.264 1.55133 21.808 1.71C22.3747 1.846 22.896 2.14067 23.372 2.594C23.5533 2.75267 23.7687 3.002 24.018 3.342C24.2673 3.65933 24.5167 4.01067 24.766 4.396C25.038 4.78133 25.2987 5.20067 25.548 5.654C25.7973 6.08467 26.0127 6.504 26.194 6.912L26.5 6.81ZM53.2684 25V24.66C52.679 24.592 52.135 24.4673 51.6364 24.286C51.1377 24.1047 50.741 23.7873 50.4464 23.334C50.3104 23.13 50.2197 22.756 50.1744 22.212C50.1517 21.6453 50.1404 21.0333 50.1404 20.376C50.1404 19.56 50.129 18.812 50.1064 18.132C50.1064 17.452 50.1064 16.7947 50.1064 16.16C50.1064 15.5027 50.1064 14.8453 50.1064 14.188C50.1064 13.508 50.1064 12.7487 50.1064 11.91V6.096C50.1064 5.756 50.1064 5.40467 50.1064 5.042C50.1064 4.67933 50.1177 4.328 50.1404 3.988C50.163 3.62533 50.197 3.308 50.2424 3.036C50.2877 2.74133 50.3557 2.51467 50.4464 2.356C50.6957 1.90267 51.081 1.56267 51.6024 1.336C52.1237 1.08667 52.6564 0.927999 53.2004 0.859999V0.519999H42.9664V0.859999C43.4877 0.882665 44.009 0.973332 44.5304 1.132C45.0517 1.268 45.5164 1.642 45.9244 2.254C46.1057 2.54867 46.2077 2.934 46.2304 3.41C46.2757 3.86333 46.3097 4.30533 46.3324 4.736C46.355 5.484 46.3664 6.15267 46.3664 6.742C46.3664 7.33133 46.3664 7.90933 46.3664 8.476C46.3664 9.04267 46.3664 9.632 46.3664 10.244C46.3664 10.8333 46.3664 11.4907 46.3664 12.216H32.9364C32.9364 11.9893 32.9364 11.57 32.9364 10.958C32.9364 10.3233 32.9364 9.598 32.9364 8.782C32.9364 7.94333 32.9364 7.07067 32.9364 6.164C32.959 5.23467 32.9817 4.37333 33.0044 3.58C33.027 3.05866 33.1404 2.628 33.3444 2.288C33.5484 1.948 33.7977 1.68733 34.0924 1.506C34.387 1.302 34.7157 1.15466 35.0784 1.064C35.441 0.973333 35.781 0.905333 36.0984 0.859999V0.519999H25.9664V0.859999C26.5557 0.927999 27.077 1.05267 27.5304 1.234C28.0064 1.39267 28.403 1.66467 28.7204 2.05C28.8564 2.20867 28.9584 2.43533 29.0264 2.73C29.0944 3.002 29.1397 3.31933 29.1624 3.682C29.2077 4.022 29.2304 4.396 29.2304 4.804C29.2304 5.212 29.2304 5.62 29.2304 6.028V12.658C29.2304 13.27 29.2304 13.9273 29.2304 14.63C29.2304 15.31 29.219 15.9787 29.1964 16.636C29.1964 17.2707 29.185 17.86 29.1624 18.404C29.1624 18.948 29.1624 19.3787 29.1624 19.696C29.1624 20.0587 29.151 20.444 29.1284 20.852C29.1057 21.2373 29.0717 21.6 29.0264 21.94C29.0037 22.28 28.9584 22.586 28.8904 22.858C28.845 23.1073 28.777 23.2887 28.6864 23.402C28.4144 23.7193 28.0177 23.9913 27.4964 24.218C26.975 24.422 26.431 24.5693 25.8644 24.66V25H35.8944V24.66C35.4184 24.6147 34.931 24.49 34.4324 24.286C33.9337 24.082 33.5484 23.7873 33.2764 23.402C33.095 23.1527 32.993 22.722 32.9704 22.11C32.9477 21.498 32.9364 20.8633 32.9364 20.206V12.896H46.3664C46.3664 13.1227 46.3664 13.5193 46.3664 14.086C46.3664 14.63 46.3664 15.2647 46.3664 15.99C46.3664 16.6927 46.3664 17.452 46.3664 18.268C46.3664 19.0613 46.355 19.832 46.3324 20.58C46.3324 20.852 46.321 21.1353 46.2984 21.43C46.2984 21.7247 46.287 22.008 46.2644 22.28C46.2417 22.552 46.2077 22.79 46.1624 22.994C46.1397 23.198 46.1057 23.334 46.0604 23.402C45.879 23.6967 45.505 23.9687 44.9384 24.218C44.3717 24.4447 43.669 24.592 42.8304 24.66V25H53.2684ZM77.1836 18.506L76.8096 18.404C76.243 19.3787 75.6876 20.2173 75.1436 20.92C74.6223 21.6 74.0783 22.178 73.5116 22.654C72.945 23.13 72.3556 23.504 71.7436 23.776C71.1316 24.0253 70.463 24.1953 69.7376 24.286C69.0803 24.3767 68.4456 24.4333 67.8336 24.456C67.2443 24.4787 66.757 24.49 66.3716 24.49C65.465 24.49 64.6263 24.422 63.8556 24.286C63.085 24.15 62.5976 23.9233 62.3936 23.606C62.1896 23.2887 62.0536 22.8127 61.9856 22.178C61.9403 21.5207 61.9063 20.8293 61.8836 20.104C61.8836 19.8773 61.8723 19.6053 61.8496 19.288C61.8496 18.948 61.8496 18.5967 61.8496 18.234C61.8496 17.8487 61.8496 17.4633 61.8496 17.078C61.8496 16.6927 61.8496 16.3527 61.8496 16.058C61.8496 15.4007 61.8496 14.766 61.8496 14.154C61.8496 13.542 61.8723 13.0773 61.9176 12.76C62.2803 12.76 62.575 12.76 62.8016 12.76C63.051 12.76 63.2776 12.76 63.4816 12.76C63.7083 12.76 63.935 12.7713 64.1616 12.794C64.3883 12.794 64.6716 12.8053 65.0116 12.828C65.6916 12.8733 66.281 12.998 66.7796 13.202C67.301 13.406 67.743 13.6667 68.1056 13.984C68.5136 14.3693 68.899 14.9473 69.2616 15.718C69.647 16.4887 69.9303 17.2367 70.1116 17.962H70.5196V7.252H70.1116C69.9756 7.88667 69.817 8.46467 69.6356 8.986C69.477 9.48467 69.2503 9.92667 68.9556 10.312C68.6836 10.6973 68.321 11.026 67.8676 11.298C67.4143 11.57 66.8476 11.7853 66.1676 11.944C65.873 12.012 65.499 12.0687 65.0456 12.114C64.615 12.1367 64.173 12.1593 63.7196 12.182C63.289 12.2047 62.9036 12.216 62.5636 12.216C62.2236 12.216 61.997 12.216 61.8836 12.216C61.8836 12.148 61.8836 12.0233 61.8836 11.842C61.8836 11.638 61.8723 11.3547 61.8496 10.992C61.8496 10.6067 61.8496 10.1193 61.8496 9.53C61.8496 8.94067 61.8496 8.21533 61.8496 7.354C61.8496 5.858 61.861 4.54333 61.8836 3.41C61.929 2.27666 61.9743 1.52866 62.0196 1.166C62.2463 1.12067 62.609 1.08667 63.1076 1.064C63.629 1.01867 64.1276 0.995999 64.6036 0.995999C66.0996 0.995999 67.369 1.064 68.4116 1.2C69.4543 1.336 70.1683 1.49467 70.5536 1.676C72.163 2.46933 73.8856 4.01067 75.7216 6.3L76.0616 6.13L73.7496 0.519999H54.9816V0.859999C55.5936 0.950666 56.0923 1.05267 56.4776 1.166C56.863 1.25667 57.2256 1.48333 57.5656 1.846C57.7016 1.982 57.8036 2.20867 57.8716 2.526C57.9623 2.82067 58.019 3.16067 58.0416 3.546C58.087 3.93133 58.1096 4.33933 58.1096 4.77C58.1323 5.20067 58.1436 5.62 58.1436 6.028V12.658C58.1436 13.27 58.1436 13.9273 58.1436 14.63C58.1436 15.31 58.1323 15.9787 58.1096 16.636C58.1096 17.2707 58.0983 17.86 58.0756 18.404C58.0756 18.948 58.0756 19.3787 58.0756 19.696C58.0756 20.0587 58.0643 20.4327 58.0416 20.818C58.019 21.1807 57.9736 21.532 57.9056 21.872C57.8603 22.212 57.8036 22.518 57.7356 22.79C57.6676 23.0393 57.577 23.232 57.4636 23.368C57.1463 23.7307 56.7383 24.014 56.2396 24.218C55.7636 24.422 55.2423 24.5693 54.6756 24.66V25H75.4836L77.1836 18.506ZM108.086 13.678V13.338H98.1242V13.678C99.4389 13.7913 100.357 14.1427 100.878 14.732C101.264 15.14 101.49 15.6613 101.558 16.296C101.649 16.9307 101.694 17.6447 101.694 18.438C101.694 19.2313 101.649 20.002 101.558 20.75C101.468 21.498 101.332 22.0193 101.15 22.314C100.606 23.1527 99.8582 23.7647 98.9062 24.15C97.9769 24.5127 96.9682 24.694 95.8802 24.694C94.3615 24.694 93.0129 24.4107 91.8342 23.844C90.6555 23.2547 89.6582 22.4387 88.8422 21.396C88.0262 20.3533 87.4029 19.1067 86.9722 17.656C86.5415 16.1827 86.3262 14.562 86.3262 12.794C86.3262 11.1847 86.5529 9.65467 87.0062 8.204C87.4595 6.73067 88.1055 5.43867 88.9442 4.328C89.7829 3.19467 90.8029 2.29933 92.0042 1.642C93.2055 0.961999 94.5542 0.622 96.0502 0.622C97.4555 0.622 98.7249 0.859999 99.8582 1.336C100.992 1.812 101.921 2.43533 102.646 3.206C103.213 3.79533 103.746 4.54333 104.244 5.45C104.743 6.35667 105.117 7.32 105.366 8.34H105.774V0.928H105.468C105.174 1.31333 104.924 1.642 104.72 1.914C104.516 2.186 104.392 2.322 104.346 2.322C104.301 2.322 104.086 2.20866 103.7 1.982C103.315 1.73267 102.76 1.472 102.034 1.2C101.332 0.905331 100.459 0.644665 99.4162 0.417998C98.3735 0.168665 97.1722 0.0439991 95.8122 0.0439991C93.5455 0.0439991 91.6189 0.372666 90.0322 1.03C88.4455 1.66467 87.1082 2.51467 86.0202 3.58C85.2495 4.328 84.6035 5.12133 84.0822 5.96C83.5835 6.79867 83.1869 7.626 82.8922 8.442C82.6202 9.258 82.4275 10.04 82.3142 10.788C82.2009 11.5133 82.1442 12.1593 82.1442 12.726C82.1442 14.6527 82.4502 16.398 83.0622 17.962C83.6969 19.5033 84.5922 20.818 85.7482 21.906C86.9269 22.9713 88.3662 23.7873 90.0662 24.354C91.7662 24.898 93.6929 25.17 95.8462 25.17C96.9342 25.17 98.0222 25.0567 99.1102 24.83C100.198 24.6033 101.184 24.3313 102.068 24.014C102.975 23.674 103.734 23.3453 104.346 23.028C104.981 22.7107 105.378 22.484 105.536 22.348V17.384C105.536 16.8627 105.548 16.3413 105.57 15.82C105.593 15.2987 105.684 14.9133 105.842 14.664C106.046 14.3467 106.375 14.12 106.828 13.984C107.282 13.8253 107.701 13.7233 108.086 13.678ZM131.791 17.996L131.451 17.894C131.179 18.574 130.895 19.2313 130.601 19.866C130.306 20.478 129.943 21.056 129.513 21.6C129.082 22.1213 128.561 22.586 127.949 22.994C127.359 23.402 126.611 23.7307 125.705 23.98C125.319 24.0933 124.877 24.184 124.379 24.252C123.88 24.32 123.393 24.3767 122.917 24.422C122.441 24.4447 121.999 24.4673 121.591 24.49C121.205 24.49 120.922 24.49 120.741 24.49C120.287 24.49 119.834 24.4673 119.381 24.422C118.927 24.354 118.508 24.286 118.123 24.218C117.737 24.1273 117.409 24.0253 117.137 23.912C116.865 23.7987 116.683 23.6853 116.593 23.572C116.389 23.2547 116.264 22.7673 116.219 22.11C116.196 21.4527 116.173 20.7613 116.151 20.036C116.151 19.2653 116.139 18.574 116.117 17.962C116.117 17.3273 116.117 16.7153 116.117 16.126C116.117 15.5367 116.117 14.936 116.117 14.324C116.117 13.6893 116.117 12.9867 116.117 12.216C116.117 11.3773 116.117 10.618 116.117 9.938C116.117 9.258 116.117 8.60067 116.117 7.966C116.139 7.33133 116.151 6.68533 116.151 6.028C116.173 5.37067 116.196 4.64533 116.219 3.852C116.241 3.24 116.377 2.75267 116.627 2.39C116.899 2.00467 117.216 1.71 117.579 1.506C117.941 1.302 118.327 1.15466 118.735 1.064C119.143 0.973333 119.494 0.905333 119.789 0.859999V0.519999H108.943V0.859999C109.532 0.927999 110.087 1.064 110.609 1.268C111.153 1.472 111.583 1.76667 111.901 2.152C112.037 2.31067 112.139 2.526 112.207 2.798C112.275 3.07 112.32 3.38733 112.343 3.75C112.388 4.09 112.411 4.464 112.411 4.872C112.411 5.25733 112.411 5.654 112.411 6.062V12.658C112.411 13.27 112.411 13.9273 112.411 14.63C112.411 15.31 112.399 15.9787 112.377 16.636C112.377 17.2707 112.365 17.86 112.343 18.404C112.343 18.948 112.343 19.3787 112.343 19.696C112.343 20.0587 112.32 20.4327 112.275 20.818C112.252 21.1807 112.218 21.532 112.173 21.872C112.127 22.212 112.059 22.518 111.969 22.79C111.901 23.0393 111.81 23.232 111.697 23.368C111.379 23.7307 110.937 24.014 110.371 24.218C109.827 24.422 109.271 24.5693 108.705 24.66V25H130.533L131.791 17.996ZM156.407 12.59C156.407 10.958 156.124 9.394 155.557 7.898C154.99 6.402 154.174 5.08733 153.109 3.954C152.044 2.798 150.74 1.88 149.199 1.2C147.68 0.519999 145.958 0.179999 144.031 0.179999C142.263 0.179999 140.574 0.474666 138.965 1.064C137.378 1.63067 135.984 2.458 134.783 3.546C133.604 4.61133 132.664 5.926 131.961 7.49C131.258 9.03133 130.907 10.7767 130.907 12.726C130.907 14.562 131.236 16.2507 131.893 17.792C132.573 19.3107 133.491 20.6253 134.647 21.736C135.803 22.824 137.152 23.674 138.693 24.286C140.234 24.8753 141.866 25.17 143.589 25.17C145.334 25.17 146.978 24.864 148.519 24.252C150.083 23.64 151.443 22.7673 152.599 21.634C153.778 20.5007 154.707 19.1633 155.387 17.622C156.067 16.0807 156.407 14.4033 156.407 12.59ZM152.191 12.624C152.191 14.052 152.01 15.48 151.647 16.908C151.307 18.336 150.786 19.628 150.083 20.784C149.38 21.9173 148.496 22.8467 147.431 23.572C146.388 24.2973 145.153 24.66 143.725 24.66C142.297 24.66 141.039 24.3313 139.951 23.674C138.886 23.0167 137.99 22.144 137.265 21.056C136.562 19.968 136.03 18.71 135.667 17.282C135.304 15.854 135.123 14.3693 135.123 12.828C135.123 11.3547 135.282 9.904 135.599 8.476C135.939 7.02533 136.449 5.73333 137.129 4.6C137.832 3.46667 138.716 2.54867 139.781 1.846C140.869 1.12066 142.15 0.757998 143.623 0.757998C145.074 0.757998 146.332 1.12066 147.397 1.846C148.462 2.54867 149.346 3.478 150.049 4.634C150.774 5.76733 151.307 7.03667 151.647 8.442C152.01 9.84733 152.191 11.2413 152.191 12.624ZM174.652 18.302C174.652 16.6927 174.221 15.3553 173.36 14.29C172.521 13.202 171.331 12.3747 169.79 11.808C169.359 11.6493 168.94 11.502 168.532 11.366C168.147 11.23 167.761 11.1053 167.376 10.992C166.991 10.856 166.594 10.72 166.186 10.584C165.801 10.448 165.381 10.2893 164.928 10.108C163.772 9.67733 162.831 9.09933 162.106 8.374C161.381 7.64867 161.018 6.68533 161.018 5.484C161.018 4.71333 161.143 4.03333 161.392 3.444C161.664 2.832 162.027 2.322 162.48 1.914C162.956 1.506 163.5 1.2 164.112 0.995999C164.747 0.791999 165.415 0.689999 166.118 0.689999C167.002 0.689999 167.807 0.871332 168.532 1.234C169.257 1.59667 169.903 2.07267 170.47 2.662C171.037 3.22867 171.535 3.886 171.966 4.634C172.397 5.35933 172.748 6.096 173.02 6.844H173.394V0.553999H173.02C172.839 0.825999 172.635 1.098 172.408 1.37C172.204 1.642 172.068 1.778 172 1.778C171.977 1.778 171.841 1.69867 171.592 1.54C171.365 1.35867 171.014 1.166 170.538 0.961999C170.085 0.757999 169.495 0.576666 168.77 0.417998C168.045 0.236666 167.172 0.146 166.152 0.146C165.064 0.146 164.021 0.293333 163.024 0.587998C162.049 0.859999 161.188 1.29067 160.44 1.88C159.692 2.46933 159.091 3.206 158.638 4.09C158.207 4.974 157.992 6.028 157.992 7.252C157.992 7.97733 158.117 8.66867 158.366 9.326C158.615 9.96067 158.944 10.55 159.352 11.094C159.76 11.6153 160.236 12.08 160.78 12.488C161.324 12.8733 161.891 13.1793 162.48 13.406C163.001 13.61 163.443 13.78 163.806 13.916C164.191 14.0293 164.554 14.154 164.894 14.29C165.257 14.4033 165.642 14.528 166.05 14.664C166.458 14.8 166.934 14.97 167.478 15.174C168.022 15.378 168.532 15.6047 169.008 15.854C169.484 16.1033 169.892 16.4093 170.232 16.772C170.595 17.112 170.878 17.52 171.082 17.996C171.286 18.472 171.388 19.0273 171.388 19.662C171.388 21.226 170.867 22.4727 169.824 23.402C168.781 24.3087 167.421 24.762 165.744 24.762C165.155 24.762 164.543 24.66 163.908 24.456C163.273 24.252 162.763 24.048 162.378 23.844C161.993 23.64 161.585 23.3453 161.154 22.96C160.746 22.5747 160.349 22.1327 159.964 21.634C159.601 21.1127 159.261 20.5687 158.944 20.002C158.627 19.4127 158.366 18.812 158.162 18.2H157.822L157.924 24.966H158.23C158.411 24.7167 158.615 24.456 158.842 24.184C159.069 23.912 159.216 23.776 159.284 23.776C159.352 23.776 159.511 23.8553 159.76 24.014C160.032 24.1727 160.429 24.354 160.95 24.558C161.471 24.7393 162.129 24.898 162.922 25.034C163.715 25.17 164.667 25.238 165.778 25.238C167.07 25.238 168.26 25.0907 169.348 24.796C170.436 24.5013 171.365 24.048 172.136 23.436C172.929 22.824 173.541 22.0873 173.972 21.226C174.425 20.3647 174.652 19.39 174.652 18.302ZM193.538 18.302C193.538 16.6927 193.107 15.3553 192.246 14.29C191.407 13.202 190.217 12.3747 188.676 11.808C188.245 11.6493 187.826 11.502 187.418 11.366C187.033 11.23 186.647 11.1053 186.262 10.992C185.877 10.856 185.48 10.72 185.072 10.584C184.687 10.448 184.267 10.2893 183.814 10.108C182.658 9.67733 181.717 9.09933 180.992 8.374C180.267 7.64867 179.904 6.68533 179.904 5.484C179.904 4.71333 180.029 4.03333 180.278 3.444C180.55 2.832 180.913 2.322 181.366 1.914C181.842 1.506 182.386 1.2 182.998 0.995999C183.633 0.791999 184.301 0.689999 185.004 0.689999C185.888 0.689999 186.693 0.871332 187.418 1.234C188.143 1.59667 188.789 2.07267 189.356 2.662C189.923 3.22867 190.421 3.886 190.852 4.634C191.283 5.35933 191.634 6.096 191.906 6.844H192.28V0.553999H191.906C191.725 0.825999 191.521 1.098 191.294 1.37C191.09 1.642 190.954 1.778 190.886 1.778C190.863 1.778 190.727 1.69867 190.478 1.54C190.251 1.35867 189.9 1.166 189.424 0.961999C188.971 0.757999 188.381 0.576666 187.656 0.417998C186.931 0.236666 186.058 0.146 185.038 0.146C183.95 0.146 182.907 0.293333 181.91 0.587998C180.935 0.859999 180.074 1.29067 179.326 1.88C178.578 2.46933 177.977 3.206 177.524 4.09C177.093 4.974 176.878 6.028 176.878 7.252C176.878 7.97733 177.003 8.66867 177.252 9.326C177.501 9.96067 177.83 10.55 178.238 11.094C178.646 11.6153 179.122 12.08 179.666 12.488C180.21 12.8733 180.777 13.1793 181.366 13.406C181.887 13.61 182.329 13.78 182.692 13.916C183.077 14.0293 183.44 14.154 183.78 14.29C184.143 14.4033 184.528 14.528 184.936 14.664C185.344 14.8 185.82 14.97 186.364 15.174C186.908 15.378 187.418 15.6047 187.894 15.854C188.37 16.1033 188.778 16.4093 189.118 16.772C189.481 17.112 189.764 17.52 189.968 17.996C190.172 18.472 190.274 19.0273 190.274 19.662C190.274 21.226 189.753 22.4727 188.71 23.402C187.667 24.3087 186.307 24.762 184.63 24.762C184.041 24.762 183.429 24.66 182.794 24.456C182.159 24.252 181.649 24.048 181.264 23.844C180.879 23.64 180.471 23.3453 180.04 22.96C179.632 22.5747 179.235 22.1327 178.85 21.634C178.487 21.1127 178.147 20.5687 177.83 20.002C177.513 19.4127 177.252 18.812 177.048 18.2H176.708L176.81 24.966H177.116C177.297 24.7167 177.501 24.456 177.728 24.184C177.955 23.912 178.102 23.776 178.17 23.776C178.238 23.776 178.397 23.8553 178.646 24.014C178.918 24.1727 179.315 24.354 179.836 24.558C180.357 24.7393 181.015 24.898 181.808 25.034C182.601 25.17 183.553 25.238 184.664 25.238C185.956 25.238 187.146 25.0907 188.234 24.796C189.322 24.5013 190.251 24.048 191.022 23.436C191.815 22.824 192.427 22.0873 192.858 21.226C193.311 20.3647 193.538 19.39 193.538 18.302Z" fill="black"/>
</svg>
