<?xml version="1.0" encoding="utf-8"?>
<!-- Generator: Adobe Illustrator 25.4.1, SVG Export Plug-In . SVG Version: 6.00 Build 0)  -->
<svg version="1.1" id="Layer_1" xmlns="http://www.w3.org/2000/svg" xmlns:xlink="http://www.w3.org/1999/xlink" x="0px" y="0px"
	 viewBox="0 0 870.6 448.3" style="enable-background:new 0 0 870.6 448.3;" xml:space="preserve">
<style type="text/css">
	.st0{fill:#FFFF82;}
</style>
<g>
	<path class="st0" d="M0,0h85.5v154.2c20-19.4,47.5-28.1,76.8-28.1c84.3,0,133,56.8,133,139.2v178h-85.6V279.7
		c0-43.1-19.4-74.9-61.8-74.9c-24.4,0-48.1,12.5-62.4,35v203.6H0V0z"/>
	<path class="st0" d="M408,250.4h140.5c-5.6-37.5-35-54.3-69.9-54.3C453,196.1,418,207.9,408,250.4 M323.7,287.2
		c0-92.4,65.6-161.1,159.9-161.1c93,0,161.7,69.3,149.9,177.3H406.8c5,45,43.1,66.2,75.6,66.2c35,0,58.1-16.2,72.4-38.7l66.2,47.5
		c-29.3,42.5-77.4,69.9-138,69.9C398.7,448.3,323.7,382.1,323.7,287.2"/>
	<path class="st0" d="M664.1,443.3h85.5V131.1h-85.5V443.3z"/>
	<polygon class="st0" points="750.3,251.9 870.6,251.9 870.6,130.9 	"/>
</g>
</svg>

