<svg id="Layer_1" data-name="Layer 1" xmlns="http://www.w3.org/2000/svg" width="97.76mm" height="36.82mm" viewBox="0 0 277.12 104.37"><path d="M142.34,55.44H129.61V68.09h-6V38.36h6V50.59h12.73V38.36h6V68.09h-6Z" transform="translate(-28.68 -27.19)" style="fill:#fff"/><path d="M152.4,38.19a3.67,3.67,0,1,1,3.67,3.5A3.51,3.51,0,0,1,152.4,38.19ZM153,44.5h6V68.09h-6Z" transform="translate(-28.68 -27.19)" style="fill:#fff"/><path d="M172.76,44.11a9.25,9.25,0,0,1,7.79,3.75V44.5h6V68.26c0,6.39-3.91,11.45-11.66,11.45-6.65,0-11.29-3.32-11.89-8.73h5.92c.6,2.13,2.81,3.54,5.8,3.54,3.27,0,5.83-1.87,5.83-6.26V64.6a9.32,9.32,0,0,1-7.79,3.87c-6,0-10.78-4.9-10.78-12.26S166.75,44.11,172.76,44.11Zm1.53,5.24c-3.19,0-6.22,2.39-6.22,6.86s3,7,6.22,7,6.26-2.47,6.26-6.94S177.57,49.35,174.29,49.35Z" transform="translate(-28.68 -27.19)" style="fill:#fff"/><path d="M191,36.58h6V47.44a9.06,9.06,0,0,1,7.33-3.28c5.32,0,9.2,3.57,9.2,10.09V68.09h-6v-13c0-3.79-2.09-5.84-5.24-5.84S197,51.27,197,55.06v13h-6Z" transform="translate(-28.68 -27.19)" style="fill:#fff"/><path d="M217.83,36.58h6V68.09h-6Z" transform="translate(-28.68 -27.19)" style="fill:#fff"/><path d="M237.65,44.11a9.35,9.35,0,0,1,7.8,3.75V44.5h6V68.09h-6V64.64a9.32,9.32,0,0,1-7.84,3.83c-6,0-10.73-4.9-10.73-12.26S231.65,44.11,237.65,44.11Zm1.54,5.24c-3.2,0-6.22,2.39-6.22,6.86s3,7,6.22,7,6.26-2.47,6.26-6.94S242.46,49.35,239.19,49.35Z" transform="translate(-28.68 -27.19)" style="fill:#fff"/><path d="M272.43,55.06c0-3.79-2.08-5.84-5.24-5.84s-5.32,2.05-5.32,5.84v13h-6V44.5h6v2.94A8.79,8.79,0,0,1,269,44.16c5.5,0,9.41,3.57,9.41,10.09V68.09h-6Z" transform="translate(-28.68 -27.19)" style="fill:#fff"/><path d="M292.05,44.11a9.68,9.68,0,0,1,7.71,3.67V36.58h6.05V68.09h-6.05V64.6A8.93,8.93,0,0,1,292,68.47c-6,0-10.78-4.9-10.78-12.26S286,44.11,292.05,44.11Zm1.49,5.24c-3.19,0-6.22,2.39-6.22,6.86s3,7,6.22,7,6.26-2.47,6.26-6.94S296.82,49.35,293.54,49.35Z" transform="translate(-28.68 -27.19)" style="fill:#fff"/><path d="M134.8,80.85c7.16,0,10.73,4.13,10.73,9.12a8.57,8.57,0,0,1-6.77,8.55l7.11,12.06H139L132.42,99h-2.81v11.59h-6V80.85Zm-.21,4.94h-5v8.73h5c3.32,0,4.81-1.74,4.81-4.43S137.91,85.79,134.59,85.79Z" transform="translate(-28.68 -27.19)" style="fill:#fff"/><path d="M158.25,86.6A9.31,9.31,0,0,1,166,90.35V87h6v23.6h-6v-3.45a9.31,9.31,0,0,1-7.83,3.83c-6,0-10.73-4.9-10.73-12.26S152.24,86.6,158.25,86.6Zm1.53,5.24c-3.19,0-6.21,2.38-6.21,6.86s3,7,6.21,7,6.26-2.47,6.26-6.94S163.06,91.84,159.78,91.84Z" transform="translate(-28.68 -27.19)" style="fill:#fff"/><path d="M186,86.6a9.66,9.66,0,0,1,7.7,3.66V79.06h6v31.52h-6v-3.5A8.89,8.89,0,0,1,185.9,111c-6,0-10.77-4.9-10.77-12.26S179.9,86.6,186,86.6Zm1.49,5.24c-3.2,0-6.22,2.38-6.22,6.86s3,7,6.22,7,6.26-2.47,6.26-6.94S190.72,91.84,187.44,91.84Z" transform="translate(-28.68 -27.19)" style="fill:#fff"/><path d="M203.53,80.68a3.67,3.67,0,1,1,3.67,3.49A3.5,3.5,0,0,1,203.53,80.68Zm.64,6.3h6v23.6h-6Z" transform="translate(-28.68 -27.19)" style="fill:#fff"/><path d="M225,111c-6.81,0-12-4.77-12-12.18s5.33-12.18,12.14-12.18,12.14,4.73,12.14,12.18S231.85,111,225,111Zm0-5.2c3.15,0,6.17-2.29,6.17-7s-2.93-7-6.09-7-6,2.25-6,7S221.8,105.76,225,105.76Z" transform="translate(-28.68 -27.19)" style="fill:#fff"/><path d="M58.55,68.3a10.77,10.77,0,0,1-1-4.61,11,11,0,1,1,20.64,5.08c.39,1.75.92,3.74,1.63,5.9a15.79,15.79,0,1,0-23-.41C57.53,72.07,58.1,70.05,58.55,68.3Z" transform="translate(-28.68 -27.19)" style="fill:#fff"/><path d="M60,102.46A91.73,91.73,0,0,0,64.85,87h6.81a93.77,93.77,0,0,0,5.21,16.21,78.2,78.2,0,0,1,13.35-3.56,67.58,67.58,0,0,1-16.38-38l-3.13-1.39s-2,8.12-.09,21.12H65.9c1.94-13-.09-21.13-.09-21.13l-3.14,1.39a67.62,67.62,0,0,1-16,37.54A80.59,80.59,0,0,1,60,102.46Z" transform="translate(-28.68 -27.19)" style="fill:#fff"/><path d="M68.47,37.17A26.51,26.51,0,0,0,52.36,84.75c.78-1.52,1.49-3,2.12-4.5A21.69,21.69,0,1,1,82,80.61c.63,1.45,1.35,3,2.14,4.46a26.52,26.52,0,0,0-15.69-47.9Z" transform="translate(-28.68 -27.19)" style="fill:#fff"/><path d="M68.47,27.19A36.49,36.49,0,0,0,47.16,93.32q1.44-2,2.67-4a31.69,31.69,0,1,1,36.9.26q1.26,2,2.74,4a36.5,36.5,0,0,0-21-66.35Z" transform="translate(-28.68 -27.19)" style="fill:#fff"/><path d="M108.29,101.82c-9.21-.49-25.85.67-39.77,8.57-14-8-30.61-9.29-39.84-8.9l1.16,8.93a72.19,72.19,0,0,1,32.34,4.23,43.26,43.26,0,0,0-13,16.9S70,107,107.13,110.75Z" transform="translate(-28.68 -27.19)" style="fill:#fff"/></svg>