<svg id="Layer_1" data-name="Layer 1" xmlns="http://www.w3.org/2000/svg" viewBox="0 0 200 60"><defs><style>.cls-1{fill:#1d1d1b;}</style></defs><polygon class="cls-1" points="6.3 58.31 0 58.31 0 58.7 19.68 58.7 19.68 58.31 13.37 58.31 13.37 1.69 19.68 1.69 19.68 1.3 0 1.3 0 1.69 6.3 1.69 6.3 58.31 6.3 58.31"/><path class="cls-1" d="M118.64,58.31h-5.47L96.13,0h-.41L80.87,52.58c-1.31,4.57-2.56,5.73-4.7,5.73H70.69V1.69h6.08V1.3H63.92L49.6,45.2,34.78,1.3h-13v.39H28V50.63c0,5.38-1,7.68-4.64,7.68H21.74v.39H35.82v-.39H33.06c-3.66,0-4.64-2.3-4.64-7.68V5.21L46,57.39l17.61-54V58.31H57.16v.39h31v-.39H84.6c-2.21,0-3.78-1.74-3.78-2.89a21.26,21.26,0,0,1,1.08-5l3-10.73h15.15l5.36,18.66h-7v.39h20.23v-.39ZM100,39.26H85l7.4-26.2L100,39.26Z"/><path class="cls-1" d="M148.65,48.75c0,7.42-4.5,10.86-11.13,10.86-12.3,0-14-19.09-14-29.61,0-10.68,1.66-29.61,14-29.61,8.64,0,16.13,9.8,16.41,18.52h.39V1.47h-.39c0,2-1.07,4.07-3.14,4.07-2.28,0-5.67-5.54-13.27-5.54-11.68,0-21.84,13.29-21.84,30,0,19.24,9.47,30,21.84,30,10.44,0,16.24-6.52,18.59-8.72V40.66h5.46v-.39H142.29v.39h6.36v8.09Z"/><path class="cls-1" d="M165.78,58.31h-6.09v.39H200V42h-.39c0,13.86-6.11,16.33-17.31,16.33h-9.47V29.7H178c7.26,0,8.66,4.21,8.66,10.41H187V18.42h-.39c0,5.3-1.47,10.9-8.66,10.9h-5.12V1.69h10.85C191,1.69,197,5.79,197,15.16h.38L196.54,1.3H159.69v.39h6.09V58.31Z"/></svg>