<?xml version="1.0" encoding="utf-8"?>
<!-- Generator: Adobe Illustrator 20.1.0, SVG Export Plug-In . SVG Version: 6.00 Build 0)  -->
<svg version="1.1" id="Layer_1" xmlns="http://www.w3.org/2000/svg" xmlns:xlink="http://www.w3.org/1999/xlink" x="0px" y="0px"
	 width="185px" height="90px" viewBox="0 0 185 90" style="enable-background:new 0 0 185 90;" xml:space="preserve">
<style type="text/css">
	.st0{fill:#15110E;}
	.st1{fill:#AD1613;}
</style>
<g>
	<path class="st0" d="M26.2,55.4c2.2,1.2,5.1,2,7.4,2.3v6.6H1v-6.6c2.3-0.3,5.3-1.1,7.4-2.3V10C6.3,8.8,3.3,7.9,1,7.6V0h32.6v7.6
		c-2.3,0.3-5.3,1.2-7.4,2.4V55.4z"/>
	<path class="st1" d="M56.4,23v31.9c2.2,1.2,5.1,2,7.4,2.3v7.1H36.6v-7.1c2.3-0.3,5.3-1.1,7.4-2.3V9.7c-2.3-0.9-5-1.6-7.8-1.9V0
		h28.1L81,40.5L96.9,0h26.7v7.8c-2.6,0.3-5.3,0.9-7.8,1.7v45.4c2.1,1.2,5.1,2,7.3,2.3v7.1H92.1v-7.1c2.3-0.3,4.7-1.1,6.9-2.3V23
		L81.9,64.3h-7.8L56.4,23z"/>
	<path class="st0" d="M145.8,10.4h-6.7l-3.2,11.6h-10.4V0H184v21.9h-10.4l-2.8-11.6h-7.2v44.6c2.1,1.2,5.1,2,7.4,2.3v7.1h-32.6v-7.1
		c2.3-0.3,5.3-1.1,7.4-2.3V10.4z"/>
</g>
<g>
	<path class="st0" d="M4.8,88.6c0.5,0.2,1,0.4,1.6,0.4v0.7H1v-0.7c0.6-0.1,1.1-0.2,1.6-0.4V76c-0.5-0.2-1-0.4-1.6-0.4v-0.8h5.3v0.8
		c-0.6,0.1-1.1,0.2-1.6,0.4V88.6z"/>
	<path class="st0" d="M9.5,82.7c0-0.5,0-2-0.1-2.3l-1.8-0.2v-0.9l3.7-0.3c0.1,0.8,0.1,1.9,0.2,2.9c0.9-1.7,2-2.9,3.4-2.9
		c0.6,0,1,0.2,1.3,0.4v3h-1.4l-0.5-1.8c-1.1,0-1.9,1-2.8,2.5v5.7c0.5,0.2,0.9,0.3,1.4,0.4v0.7H8.1v-0.7c0.5-0.1,1-0.2,1.5-0.4V82.7z
		"/>
	<path class="st0" d="M19.8,82.7c0-0.5,0-2-0.1-2.3l-1.8-0.2v-0.9l3.8-0.3c0.1,1.1,0.1,2.4,0.1,3.7v6c0.5,0.2,0.9,0.3,1.4,0.4v0.7
		h-4.9v-0.7c0.5-0.1,1-0.2,1.5-0.4V82.7z M20.6,76.4c-0.8,0-1.4-0.6-1.4-1.4s0.6-1.4,1.4-1.4c0.7,0,1.3,0.6,1.3,1.4
		S21.4,76.4,20.6,76.4z"/>
	<path class="st0" d="M27.9,90c-1.1,0-2.3-0.3-3.1-0.8l-0.1-2.3H26l0.6,1.7c0.5,0.3,1.1,0.4,1.9,0.4c0.4,0,0.7,0,1.1-0.1
		c0.4-0.4,0.7-0.9,0.7-1.7c0-2.4-5.6-1.5-5.6-5.1c0-2.1,2.1-3.2,3.9-3.2c1,0,1.8,0.2,2.8,0.6v2.4H30l-0.5-1.6C29,80.1,28.5,80,28,80
		c-0.2,0-0.5,0-0.8,0.1c-0.6,0.5-0.8,1-0.8,1.5c0,2.5,5.6,1.7,5.6,5.2C32,88.6,30.3,90,27.9,90z"/>
	<path class="st0" d="M34.5,78c0-0.5,0-2-0.1-2.3l-1.8-0.2v-0.9l3.8-0.3c0.1,1,0.1,2.4,0.1,3.7v2.5c1.2-1,2-1.5,3.3-1.5
		c2.1,0,3.2,1.6,3.2,3.8v5.9c0.5,0.2,0.9,0.3,1.4,0.4v0.7h-4.7v-0.7c0.5-0.1,0.9-0.2,1.3-0.4v-5.8c0-2.1-1.2-2.5-2.1-2.5
		c-0.8,0-1.8,0.5-2.5,0.9v7.4c0.5,0.2,0.8,0.3,1.3,0.4v0.7h-4.7v-0.7c0.5-0.1,1-0.2,1.4-0.4V78z"/>
	<path class="st0" d="M52.5,77.8v10.8c0.5,0.2,1,0.3,1.6,0.4v0.8h-4.6V89c0.6-0.1,1.1-0.2,1.6-0.4V76c-0.5-0.2-1.1-0.4-1.8-0.5v-0.8
		h4L58.8,87l5.4-12.3h3.9v0.8c-0.6,0.1-1.2,0.2-1.8,0.4v12.6c0.5,0.2,1,0.3,1.6,0.4v0.8h-5.2V89c0.6-0.1,1-0.2,1.5-0.4V77.8
		l-5.4,12.1h-0.8L52.5,77.8z"/>
	<path class="st0" d="M77.9,88c-0.9,1.2-2.2,2-4,2c-3,0-5-2.2-5-5.4c0-3.1,1.9-5.6,5-5.6c2.2,0,3.9,1.9,4,4.5
		c-0.1,0.3-0.4,0.5-0.6,0.7h-6.4c0,3.1,1.8,4.5,3.5,4.5c1.4,0,2.1-0.5,2.8-1.2L77.9,88z M71,83.2c1.7,0,5.1-0.1,5.1-0.2
		c0-1.9-1.2-3-2.8-3c-0.3,0-0.5,0-0.8,0.1C71.5,80.9,71.1,81.9,71,83.2z"/>
	<path class="st0" d="M88.7,86.2c0,0.7,0.1,2.1,0.1,2.4l1.6,0.2v0.8L87,90c-0.1-0.5-0.1-1-0.1-1.6c-1.1,1.1-2.1,1.7-3.4,1.7
		c-2.4,0-4.1-2.3-4.1-5.4c0-3.3,1.9-5.7,4.8-5.7c1,0,1.9,0.4,2.6,0.8V78c0-0.5,0-2-0.1-2.3l-1.8-0.2v-0.9l3.8-0.3
		c0.1,1,0.1,2.4,0.1,3.7V86.2z M83.9,80.1c-0.2,0-0.5,0-0.7,0.1c-1.3,0.7-1.9,2-1.9,4.2c0,2.8,1.2,4.3,3.1,4.3c0.9,0,1.6-0.4,2.4-1
		v-5.3C86.7,81.2,85.5,80.1,83.9,80.1z"/>
	<path class="st0" d="M93.3,82.7c0-0.5,0-2-0.1-2.3l-1.8-0.2v-0.9l3.8-0.3c0.1,1.1,0.1,2.4,0.1,3.7v6c0.5,0.2,0.9,0.3,1.4,0.4v0.7
		h-4.9v-0.7c0.5-0.1,1-0.2,1.5-0.4V82.7z M94.1,76.4c-0.8,0-1.4-0.6-1.4-1.4s0.6-1.4,1.4-1.4c0.7,0,1.3,0.6,1.3,1.4
		S94.8,76.4,94.1,76.4z"/>
	<path class="st0" d="M102.7,78.9c1,0,1.9,0.2,2.9,0.6v2.8h-1.5l-0.4-1.8c-0.6-0.3-1.3-0.4-2-0.4c-0.2,0-0.5,0-0.7,0.1
		c-1,1-1.4,2.1-1.4,3.9c0,3.1,1.6,4.5,3.2,4.5c1.2,0,1.9-0.5,2.6-1.2l0.6,0.5c-0.8,1.3-2.2,2-3.8,2c-2.8,0-4.7-2.1-4.7-5.4
		C97.6,81.4,99.5,78.9,102.7,78.9z"/>
	<path class="st0" d="M113.4,88.5c-0.9,0.9-1.7,1.5-3.1,1.5c-1.7,0-2.9-1.2-2.9-2.7c0-1.5,0.8-3,5.9-3.4V83c0-2.3-0.6-3-2-3
		c-0.3,0-0.7,0-1.1,0.1l-0.5,2h-1.5v-2.5c1.1-0.4,2.3-0.7,3.6-0.7c2.6,0,3.5,1.6,3.5,4v4.7c0,0.9,0.3,1.3,0.9,1.3
		c0.2,0,0.5-0.1,0.6-0.1l0.2,0.7c-0.4,0.2-0.8,0.5-1.5,0.5C114.4,90,113.6,89.4,113.4,88.5z M113.3,87.7v-2.8
		c-1.6,0.1-2.7,0.3-3.7,0.7c-0.2,0.4-0.3,0.7-0.3,1.1c0,1.1,0.6,2,1.9,2C112.1,88.7,112.7,88.2,113.3,87.7z"/>
	<path class="st0" d="M119.7,78c0-0.5,0-2-0.1-2.3l-1.8-0.2v-0.9l3.8-0.3c0.1,1,0.1,2.4,0.1,3.7v10.7c0.5,0.2,0.9,0.3,1.4,0.4v0.7
		h-4.9v-0.7c0.5-0.1,1-0.2,1.5-0.4V78z"/>
	<path class="st0" d="M133.3,76h-2.9l-0.6,3h-1.3v-4.2h11.9v4.2h-1.3l-0.6-3h-3v12.6c0.5,0.2,1,0.3,1.6,0.4v0.8h-5.3V89
		c0.6-0.1,1.1-0.2,1.6-0.4V76z"/>
	<path class="st0" d="M143.7,82.7c0-0.5,0-2-0.1-2.3l-1.8-0.2v-0.9l3.8-0.3c0.1,1.1,0.1,2.4,0.1,3.7v6c0.5,0.2,0.9,0.3,1.4,0.4v0.7
		h-4.9v-0.7c0.5-0.1,1-0.2,1.5-0.4V82.7z M144.5,76.4c-0.8,0-1.4-0.6-1.4-1.4s0.6-1.4,1.4-1.4c0.7,0,1.3,0.6,1.3,1.4
		S145.3,76.4,144.5,76.4z"/>
	<path class="st0" d="M150.1,82.7c0-0.5,0-2-0.1-2.3l-1.8-0.2v-0.9l3.6-0.3c0,0.5,0.1,1,0.1,1.6c1-1,2-1.7,3.2-1.7
		c1.3,0,2.2,0.7,2.6,1.8c1.2-1,2.1-1.8,3.3-1.8c2,0,2.9,1.6,2.9,3.8v6c0.5,0.2,0.9,0.3,1.4,0.4v0.7h-4.7v-0.7
		c0.5-0.1,0.8-0.2,1.3-0.4v-5.9c0-2-0.8-2.5-1.8-2.5c-0.6,0-1.6,0.4-2.3,0.9c0.1,0.4,0.1,0.9,0.1,1.4v6c0.5,0.2,0.8,0.3,1.3,0.4v0.7
		h-4.6v-0.7c0.5-0.1,0.8-0.2,1.3-0.4v-5.9c0-2-0.8-2.5-1.8-2.5c-0.6,0-1.5,0.4-2.2,0.9v7.5c0.5,0.2,0.8,0.3,1.3,0.4v0.7h-4.7v-0.7
		c0.5-0.1,1-0.2,1.5-0.4V82.7z"/>
	<path class="st0" d="M175,88c-0.9,1.2-2.2,2-4,2c-3,0-5-2.2-5-5.4c0-3.1,1.9-5.6,5-5.6c2.2,0,3.9,1.9,4,4.5
		c-0.1,0.3-0.4,0.5-0.6,0.7h-6.4c0,3.1,1.8,4.5,3.5,4.5c1.4,0,2.1-0.5,2.8-1.2L175,88z M168.1,83.2c1.7,0,5.1-0.1,5.1-0.2
		c0-1.9-1.2-3-2.8-3c-0.3,0-0.5,0-0.8,0.1C168.7,80.9,168.3,81.9,168.1,83.2z"/>
	<path class="st0" d="M180,90c-1.1,0-2.3-0.3-3.1-0.8l-0.1-2.3h1.4l0.6,1.7c0.5,0.3,1.1,0.4,1.9,0.4c0.4,0,0.7,0,1.1-0.1
		c0.4-0.4,0.7-0.9,0.7-1.7c0-2.4-5.6-1.5-5.6-5.1c0-2.1,2.1-3.2,3.9-3.2c1,0,1.8,0.2,2.8,0.6v2.4H182l-0.5-1.6
		c-0.5-0.2-1-0.3-1.6-0.3c-0.2,0-0.5,0-0.8,0.1c-0.6,0.5-0.8,1-0.8,1.5c0,2.5,5.6,1.7,5.6,5.2C184,88.6,182.4,90,180,90z"/>
</g>
</svg>
