<?xml version="1.0" encoding="UTF-8"?>
<svg width="240px" height="60px" viewBox="0 0 240 60" version="1.1" xmlns="http://www.w3.org/2000/svg" xmlns:xlink="http://www.w3.org/1999/xlink">
    <title>Mastheads/TheImpartialReporter</title>
    <g id="Mastheads/TheImpartialReporter" stroke="none" stroke-width="1" fill="none" fill-rule="evenodd">
        <g id="Group-53" transform="translate(-0.480000, 7.120000)" fill="#000000" fill-rule="nonzero">
            <path d="M27.4350993,19.1612735 C27.485228,19.1612735 27.5353568,19.0816144 27.5854856,18.9222961 C27.6356143,18.7629778 27.6606787,18.6209767 27.6606787,18.4962928 C27.6606787,18.3854627 27.6406272,18.3300476 27.6005242,18.3300476 C26.7683868,18.3300476 26.3523182,18.0391186 26.3523182,17.4572604 C26.3523182,17.3325765 26.3673568,17.2009658 26.397434,17.0624281 L28.7885757,5.52916845 C28.8487302,5.25209314 28.9840779,5.12048237 29.1946186,5.13433613 L31.4804899,5.23823937 C32.5131423,5.29365443 33.0294685,5.90322011 33.0294685,7.0669364 C33.0294685,7.385573 32.9893655,7.73884402 32.9091595,8.12674945 C32.889108,8.23757957 32.9843526,8.29299463 33.1948934,8.29299463 C33.4054342,8.29299463 33.5207303,8.23757957 33.5407818,8.12674945 L34.2776745,4.65638123 C34.2877003,4.60096617 34.2927131,4.55247799 34.2927131,4.51091669 C34.2927131,4.37237904 34.1072367,4.30311021 33.7362839,4.30311021 C33.7355925,4.30311021 33.7342454,4.30311021 33.7322426,4.30311021 L33.712358,4.30344379 C33.5920967,4.30537113 33.0286042,4.31565026 32.0218805,4.33428118 C30.8989963,4.35506183 29.7059319,4.36545216 28.4426873,4.36545216 L28.0150147,4.36506733 C26.8837139,4.36301492 25.8256877,4.35275287 24.8409362,4.33428118 C23.8476954,4.31565026 23.2956711,4.30537113 23.1848633,4.30344379 L23.1671245,4.30311021 C22.8042006,4.30311021 22.5976743,4.41394033 22.5475456,4.63560058 L21.8256915,8.12674945 C21.8156657,8.19601827 21.8607816,8.24450645 21.9610391,8.27221398 C22.0512709,8.28606775 22.1515284,8.28606775 22.2618117,8.27221398 C22.3720949,8.24450645 22.4322494,8.19601827 22.4422752,8.12674945 C22.8232537,6.25649113 23.700507,5.29365443 25.0740349,5.23823937 L27.3899834,5.13433613 C27.5303439,5.13433613 27.6205757,5.16204366 27.6606787,5.21745872 C27.6907559,5.27287379 27.6857431,5.39755767 27.6456401,5.59151039 L25.269537,17.0624281 C25.149228,17.6304325 24.8835456,18.0044841 24.4724898,18.1845831 C24.2519233,18.2815594 23.9110477,18.3300476 23.4498632,18.3300476 C23.3997344,18.3300476 23.3496057,18.4097068 23.2994769,18.5690251 C23.2493481,18.7283434 23.2242838,18.8703445 23.2242838,18.9950284 C23.2242838,19.1058585 23.2443353,19.1612735 23.2844383,19.1612735 C23.6854683,19.1058585 24.4023095,19.078151 25.4349619,19.078151 C26.3673568,19.078151 27.0340692,19.1058585 27.4350993,19.1612735 Z M34.4520314,19.8678156 C35.5741864,19.8678156 36.5093156,19.0227359 37.2574189,17.3325765 C37.9223997,15.8363699 38.25489,13.9799653 38.25489,12.8023953 C38.25489,11.223066 37.7007394,10.4334014 36.5924382,10.4334014 C35.3594531,10.4334014 34.1056873,11.5070682 32.8311409,13.6544018 L32.7272377,13.5504986 L34.8676444,4.24076827 C34.9092057,4.07452308 34.8745713,3.99140049 34.7637412,3.99140049 C34.7498874,3.99140049 34.4762755,4.08491341 33.9429056,4.27193924 C33.4095356,4.45896507 32.9004097,4.55247799 32.4155279,4.55247799 C32.3185516,4.55247799 32.2700634,4.63560058 32.2700634,4.80184576 C32.2700634,4.98194471 32.3185516,5.07199419 32.4155279,5.07199419 C32.941971,5.07199419 33.2051926,5.32136196 33.2051926,5.82009752 C33.2051926,6.05561153 33.1497775,6.40195566 33.0389474,6.85912992 L30.1919986,19.078151 C30.1504373,19.2582499 30.3513169,19.3482994 30.7946374,19.3482994 C31.1686891,19.3482994 31.3764955,19.2582499 31.4180568,19.078151 L31.9791343,16.833841 C32.2700634,15.6978322 32.5817731,14.8873869 32.9142635,14.4025052 C34.2580787,12.4906855 35.3178918,11.5347757 36.0937026,11.5347757 C36.606292,11.5347757 36.8625866,12.1235608 36.8625866,13.3011308 C36.8625866,14.1046492 36.7101952,15.6147096 36.4054124,16.7922797 C36.2668747,17.3464303 36.072922,17.8520927 35.8235542,18.309267 C35.5741864,18.7664412 35.3455993,18.9950284 35.1377928,18.9950284 C34.9161326,18.9950284 34.7775949,18.8564907 34.7221799,18.5794154 C34.6252035,18.1638024 34.361982,17.955996 33.9325152,17.955996 C33.7247088,17.955996 33.5584636,18.0633626 33.4337797,18.278096 C33.3090958,18.4928294 33.2606076,18.7248799 33.2883152,18.9742477 C33.3021689,19.2097617 33.4268528,19.4175682 33.6623668,19.5976672 C33.8978808,19.7777661 34.1611024,19.8678156 34.4520314,19.8678156 Z M41.1988152,19.3482994 C42.1270174,19.3482994 43.1175617,18.7040993 44.1704478,17.4156991 C44.1843016,17.3879916 44.1912285,17.3602841 44.1912285,17.3325765 C44.1912285,17.1524776 44.1150328,17.0624281 43.9626414,17.0624281 C43.9349338,17.0624281 43.9072263,17.069355 43.8795188,17.0832087 C43.3253681,17.540383 42.9859509,17.8036045 42.861267,17.8728734 C42.4040928,18.19151 41.9815529,18.3508283 41.5936475,18.3508283 C40.8455441,18.3508283 40.4714925,17.7897508 40.4714925,16.6675958 C40.4714925,16.3489592 40.5199807,15.9472 40.616957,15.4623182 C41.4343292,15.3099268 42.3348239,14.9566558 43.3184413,14.4025052 C44.7730866,13.5712792 45.5004093,12.6361501 45.5004093,11.5971177 C45.5004093,10.8213068 45.0570888,10.4334014 44.1704478,10.4334014 C42.979024,10.4334014 41.8291615,11.2092122 40.7208603,12.760834 C39.6679741,14.2154793 39.141531,15.593929 39.141531,16.8961829 C39.141531,18.5309272 39.8272924,19.3482994 41.1988152,19.3482994 Z M40.8039829,14.8181181 C41.1226195,13.8345008 41.5174518,13.0102017 41.9884798,12.345221 C42.5010691,11.6109714 43.0067315,11.2438467 43.5054671,11.2438467 C43.865665,11.2438467 44.0457639,11.4516531 44.0457639,11.8672661 C44.0457639,12.7261995 43.5816628,13.4535222 42.6534605,14.0492341 C42.0577486,14.4371396 41.4412561,14.6934342 40.8039829,14.8181181 Z" id="The"></path>
            <path d="M5.51116455,43.9396864 C6.03770893,43.9396864 8.63532789,44.0682478 10.6712995,44.0682478 C11.127638,44.0682478 11.3733587,43.9396864 11.3733587,43.6397096 C11.3733587,43.4254405 11.2329469,43.2968791 10.9521232,43.2968791 C10.5308877,43.2968791 9.75862258,43.2111715 9.2320782,43.1254638 C8.17898943,42.9540485 7.96837168,42.0112646 7.8630628,40.7685038 C7.71563037,39.2566212 7.69204118,36.6259453 7.68826691,33.4606677 L7.687548,30.9978334 C7.687548,30.7407105 7.79285688,30.6550029 7.96837168,30.6550029 L11.0223291,30.7407105 C11.2680498,30.7407105 11.4786676,30.7835643 11.6541824,31.0406872 C12.0318418,31.5726657 13.2028865,33.6602224 14.3913409,35.700211 L14.6883682,36.2082894 C14.8366141,36.4609054 14.9841217,36.7106906 15.1293753,36.9545141 C17.095141,40.254258 18.4290534,42.2683875 19.9384807,43.2540253 C20.8511576,43.8539787 21.7287316,44.0682478 23.6944973,44.0682478 L27.0292784,44.0682478 C27.4505139,44.0682478 27.6962346,43.9825402 27.6962346,43.6397096 C27.6962346,43.4254405 27.5558228,43.2968791 27.2749991,43.2968791 C26.9941754,43.2968791 26.6782488,43.2540253 26.2921162,43.1683176 C25.7655718,43.0397562 24.3263505,42.7397795 22.3605848,40.254258 C20.2895103,37.5973213 17.8674061,33.7833316 14.7432427,28.983704 C18.2886416,25.469691 19.3768333,22.5556314 19.3768333,19.3844488 C19.3768333,16.5132431 17.972715,14.3276984 16.9898321,13.5134758 C15.0942723,11.9278846 12.7423741,11.6707617 10.5308877,11.6707617 C9.44269595,11.6707617 6.77487107,11.7993231 5.58137047,11.7993231 C4.84420833,11.7993231 2.63272192,11.6707617 0.772265096,11.6707617 C0.245720712,11.6707617 0,11.7564693 0,12.056446 C0,12.3564228 0.210617754,12.4421304 0.596750302,12.4421304 C1.08819173,12.4421304 1.68494203,12.4849842 1.9657657,12.5706918 C3.12416334,12.8706686 3.40498702,13.5563296 3.47519293,15.0133594 L3.47949002,15.0988935 L3.47949002,15.0988935 L3.48755096,15.2698128 C3.52740173,16.1554583 3.53979975,17.1126013 3.54365691,19.6188553 L3.54430188,20.1236772 C3.5443933,20.2111704 3.54447709,20.3003748 3.54455391,20.39134 L3.54539822,23.698127 C3.54539885,23.8292676 3.54539885,23.962665 3.54539885,24.0983688 L3.54539885,31.6406407 L3.54538762,32.1110069 L3.54538762,32.1110069 L3.54467994,33.4860673 C3.54090567,36.6259453 3.51731648,39.2566212 3.36988406,40.7685038 C3.22947222,42.0112646 3.05395743,42.9540485 2.35189825,43.1254638 C2.03597162,43.2111715 1.61473611,43.2968791 1.08819173,43.2968791 C0.66695622,43.2968791 0.526544384,43.4254405 0.526544384,43.6397096 C0.526544384,43.9396864 0.772265096,44.0682478 1.22860356,44.0682478 C2.63272192,44.0682478 4.84420833,43.9396864 5.51116455,43.9396864 Z M10.5643808,29.1155619 C9.54556491,29.1155619 8.3229859,28.987396 7.4671806,28.6883423 C7.18191216,28.5601764 7.10040689,28.3892886 7.10040689,27.919347 L7.10040689,14.9318713 C7.10040689,14.5900956 7.18191216,14.4192077 7.4671806,14.3337638 C7.87470693,14.2055979 8.60825434,14.162876 9.62707018,14.162876 C12.0314756,14.162876 15.8622231,15.9144763 15.8622231,21.9809946 C15.8622231,25.4841953 14.6803967,27.4494055 13.4578177,28.3892886 C12.7242703,28.9446741 12.1944861,29.1155619 10.5643808,29.1155619 Z M41.8135073,43.403684 C41.9712941,42.8388047 42.1921956,40.9115697 42.1921956,40.280234 C42.1921956,39.9811803 42.1606383,39.6156702 41.9397367,39.6156702 C41.7503925,39.6156702 41.6872778,39.748583 41.6241631,40.0476367 C41.4348189,41.2106234 41.1192453,41.8087308 40.4249833,42.1410127 C39.6991639,42.4732946 38.5315414,42.5065228 37.805722,42.5065228 C34.9655593,42.5065228 34.1135105,42.0745564 34.0503957,40.1473213 C34.0411142,39.9029963 34.0372923,39.5235741 34.0365215,39.0851419 L34.0369069,38.535568 C34.0394762,37.5886356 34.0503957,36.5274031 34.0503957,35.9605692 L34.0503957,33.7010522 C34.0503957,33.5349113 34.0819531,33.4019985 34.2081826,33.4019985 C34.9024446,33.4019985 38.058181,33.4684549 38.5630988,33.5349113 C39.6044918,33.6345959 39.9516228,34.0665623 40.1094096,34.6314416 C40.1725243,34.9969517 40.1725243,35.3624618 40.2040817,35.6615155 C40.2040817,35.7944283 40.2671964,35.8941128 40.4565406,35.8941128 C40.7089995,35.8941128 40.7405569,35.4953746 40.7405569,35.2627772 C40.7405569,35.0634081 40.8036716,33.9336496 40.8667863,33.3687703 C41.0245732,31.9399581 41.0876879,31.4747635 41.0876879,31.3086225 C41.0876879,31.1424815 40.9930158,31.0095688 40.8667863,31.0095688 C40.7405569,31.0095688 40.6458848,31.1757097 40.4249833,31.3750789 C40.1725243,31.6741326 39.7622786,31.740589 39.099574,31.8070454 C38.6140761,31.8581657 36.3733165,31.8699626 35.0776978,31.872685 L34.2397399,31.8735017 L34.2397399,31.8735017 C34.0819531,31.8735017 34.0503957,31.740589 34.0503957,31.574448 L34.0503957,24.5965279 C34.0503957,24.430387 34.1135105,24.3307024 34.2397399,24.3307024 C34.5019088,24.3307024 35.3489159,24.3448588 36.2316028,24.3666379 L36.6733772,24.3781324 C37.5527029,24.4022708 38.3761821,24.432943 38.5946561,24.4636152 C39.9831802,24.5965279 40.2040817,24.9952662 40.4249833,25.4936891 C40.5827701,25.825971 40.6143274,26.3243939 40.6143274,26.523763 C40.6143274,26.7563603 40.6458848,26.8892731 40.835229,26.8892731 C41.0561305,26.8892731 41.1192453,26.5569912 41.1508026,26.4240784 C41.2042074,26.1429168 41.2576122,25.2194091 41.2918987,24.760733 L41.3085894,24.5632997 L41.3085894,24.5632997 C41.3717042,23.2674003 41.529491,22.9351184 41.529491,22.7357492 C41.529491,22.6028365 41.4979336,22.4699237 41.3401468,22.4699237 C41.2139174,22.4699237 41.0561305,22.5696083 40.8983437,22.6028365 C40.6774422,22.6360647 40.2356391,22.7357492 39.7307212,22.7689774 C39.5831906,22.7781152 39.0108583,22.7822272 38.2401461,22.7833865 L37.0874764,22.783332 C35.3611308,22.7812386 33.2868653,22.7718184 32.4401048,22.7694961 L32.1569539,22.7689774 L32.1569539,22.7689774 C31.3680198,22.7689774 29.6008074,22.7025211 28.1491687,22.7025211 C27.7389229,22.7025211 27.5180214,22.7689774 27.5180214,22.9683466 C27.5180214,23.1677157 27.7073656,23.2674003 27.9913818,23.2674003 C28.4016276,23.2674003 28.874988,23.3006285 29.0958896,23.3670849 C29.9794958,23.6329104 30.2319547,23.9319641 30.2950694,24.8955817 C30.2965038,24.9363617 30.2978731,24.9769358 30.2991801,25.017641 L30.3029173,25.1404867 C30.30351,25.1611388 30.3040879,25.181908 30.3046514,25.2028363 L30.3078618,25.3306531 C30.3185122,25.7870555 30.3231178,26.3508004 30.3251094,27.4120367 L30.3258129,27.8984483 C30.3258755,27.9561311 30.3259333,28.0150684 30.3259866,28.0753023 L30.3266264,30.5897633 C30.3266268,30.6836201 30.3266268,30.779237 30.3266268,30.876656 L30.3266268,35.8608847 L30.3266164,36.1968179 L30.3266164,36.1968179 L30.3259628,37.1764665 C30.3228089,39.1958895 30.3046738,40.8870097 30.2003973,41.8751872 C30.1057252,42.705892 29.9479384,43.237543 29.3799059,43.3704558 C29.127447,43.4369122 28.8118733,43.4701404 28.4016276,43.4701404 C28.0544966,43.4701404 27.9598245,43.6362813 27.9598245,43.7691941 C27.9598245,43.9685632 28.1491687,44.0682478 28.4962997,44.0682478 C29.0643322,44.0682478 29.7585942,44.0350196 30.4212989,44.0017914 C31.0840035,44.0017914 31.6835934,43.9685632 31.9991671,43.9685632 C32.8196585,43.9685632 33.8610515,44.0017914 35.2180182,44.0350196 C36.4845204,44.0970456 38.0259223,44.1301261 39.9191958,44.1342611 L40.6070114,44.1342611 C41.4192191,44.1280736 41.6421959,44.0650832 41.8135073,43.403684 Z M54.7204691,44.0682478 C55.0044854,44.0682478 55.225387,43.9685632 55.225387,43.7691941 C55.225387,43.6362813 55.0991575,43.4701404 54.7835839,43.4701404 C54.3733381,43.4701404 53.7737482,43.4369122 53.3635025,43.3704558 C52.543011,43.237543 52.3852242,42.705892 52.2905521,41.9084154 C52.1872735,40.9025074 52.1684955,39.2292895 52.1650814,37.2345495 L52.1643345,36.2119869 C52.1643227,36.0957475 52.1643227,35.9786937 52.1643227,35.8608847 L52.1643227,24.6629843 C52.1643227,24.3639306 52.2274374,24.1977896 52.3852242,24.1313333 C52.6376831,24.0316487 53.1741583,23.9984205 53.584404,23.9984205 C54.2155513,23.9984205 55.3516164,24.1313333 56.3614521,25.0617226 C57.9077629,26.4573066 58.002435,28.3180853 58.002435,29.2484747 C58.002435,32.1393273 55.8249769,33.833965 54.278666,33.833965 C53.6790761,33.833965 53.3635025,33.9668778 53.3635025,34.1994751 C53.3635025,34.3988443 53.5528467,34.4985288 53.7106335,34.4985288 C53.8053056,34.52345 54.1484919,34.5296803 54.3674211,34.5312378 L54.531125,34.531757 L54.531125,34.531757 C58.4757954,34.531757 61.5053024,31.6741326 61.5053024,27.6867497 C61.5053024,26.1582529 60.7163683,24.8955817 60.1167784,24.2974742 C59.6749753,23.8987359 58.4126807,22.7025211 54.9413707,22.7025211 C53.6790761,22.7025211 51.4700606,22.7689774 50.3339955,22.7689774 C49.5450614,22.7689774 47.7778491,22.7025211 46.3262103,22.7025211 C45.9159646,22.7025211 45.695063,22.7689774 45.695063,22.9683466 C45.695063,23.1677157 45.8844072,23.2674003 46.1684235,23.2674003 C46.5786692,23.2674003 47.0520297,23.3006285 47.2729312,23.3670849 C48.1565374,23.6329104 48.4089963,23.9319641 48.4721111,24.8955817 C48.4735455,24.9363617 48.4749147,24.9769358 48.4762217,25.017641 L48.4799589,25.1404867 C48.4805517,25.1611388 48.4811296,25.181908 48.481693,25.2028363 L48.4849035,25.3306531 C48.4955539,25.7870555 48.5001594,26.3508004 48.502151,27.4120367 L48.5028545,27.8984483 C48.5029171,27.9561311 48.5029749,28.0150684 48.5030283,28.0753023 L48.5030044,37.1764665 C48.4998505,39.1958895 48.4817155,40.8870097 48.377439,41.8751872 C48.2827669,42.705892 48.1249801,43.237543 47.5569475,43.3704558 C47.3044886,43.4369122 46.988915,43.4701404 46.5786692,43.4701404 C46.2315382,43.4701404 46.1368661,43.6362813 46.1368661,43.7691941 C46.1368661,43.9685632 46.3262103,44.0682478 46.6733413,44.0682478 C47.7778491,44.0682478 49.5450614,43.9685632 50.1762087,43.9685632 C50.9020281,43.9685632 52.8585847,44.0682478 54.7204691,44.0682478 Z M75.1940676,44.4337579 C82.0745115,44.4337579 86.3785777,39.3498447 86.3785777,32.8703475 C86.3785777,26.3908502 82.1957528,22.3037828 75.4668605,22.3037828 C67.3740036,22.3037828 64.2823504,28.5506827 64.2823504,33.3687703 C64.2823504,38.3862272 67.4346243,44.4337579 75.1940676,44.4337579 Z M76.2623611,42.9052611 C71.3462939,42.9052611 68.3848077,38.3197708 68.3848077,32.5048374 C68.3848077,25.5269173 71.7905169,23.7990514 74.6927734,23.7990514 C78.8980838,23.7990514 82.2445632,27.6535215 82.2445632,33.9004214 C82.2445632,41.9416436 78.0984825,42.9052611 76.2623611,42.9052611 Z M96.5837517,44.0682478 C96.9308827,44.0682478 97.1517843,43.9685632 97.1517843,43.7691941 C97.1517843,43.6362813 97.0255548,43.4701404 96.8046533,43.4701404 C96.4575223,43.4701404 95.8579323,43.4369122 95.4476866,43.3704558 C94.5956378,43.237543 94.4694083,42.705892 94.3747362,41.8751872 C94.2485068,40.6789723 94.2169494,38.4859117 94.2169494,35.8608847 L94.2169494,35.4621464 C94.2169494,35.2960054 94.3116215,35.229549 94.437851,35.229549 L96.9308827,35.2960054 C97.1202269,35.2960054 97.2780137,35.3292336 97.4358005,35.4953746 C97.7829315,35.927341 98.950554,37.8213479 100.055062,39.3498447 C101.601373,41.5429053 102.642766,42.8720329 103.841945,43.5033686 C104.567765,43.9021069 105.325142,44.0682478 106.871452,44.0682478 L109.522271,44.0682478 C109.869402,44.0682478 110.058746,44.0017914 110.058746,43.7691941 C110.058746,43.6362813 109.932517,43.4701404 109.711615,43.4701404 C109.490714,43.4701404 109.332927,43.4701404 109.04891,43.403684 C108.607107,43.3039994 107.628829,43.1710867 106.082518,41.5429053 C104.409978,39.7818112 102.453421,37.2232405 99.991947,34.0333342 C102.70588,31.740589 103.841945,29.8798103 103.841945,27.7864343 C103.841945,25.8924274 102.674323,24.4636152 101.885389,23.8987359 C100.402193,22.868662 98.3825215,22.7025211 96.6153091,22.7025211 C95.7632602,22.7025211 93.2386711,22.7689774 92.2919502,22.7689774 C91.7239177,22.7689774 89.9567053,22.7025211 88.5050665,22.7025211 C88.0948208,22.7025211 87.8739192,22.7689774 87.8739192,22.9683466 C87.8739192,23.1677157 88.0632634,23.2674003 88.3472797,23.2674003 C88.7575254,23.2674003 89.2308859,23.3006285 89.4517874,23.3670849 C90.3353936,23.6329104 90.5878526,23.9319641 90.6509673,24.8955817 C90.6524017,24.9363617 90.6537709,24.9769358 90.6550779,25.017641 L90.6588151,25.1404867 C90.6594079,25.1611388 90.6599858,25.181908 90.6605493,25.2028363 L90.6637597,25.3306531 C90.6744101,25.7870555 90.6790156,26.3508004 90.6810072,27.4120367 L90.6817107,27.8984483 C90.6817733,27.9561311 90.6818311,28.0150684 90.6818845,28.0753023 L90.6825243,30.5897633 C90.6825246,30.6836201 90.6825246,30.779237 90.6825246,30.876656 L90.6825246,35.8608847 L90.6825143,36.1968179 L90.6825143,36.1968179 L90.6818607,37.1764665 C90.6787067,39.1958895 90.6605717,40.8870097 90.5562952,41.8751872 C90.4616231,42.705892 90.3038363,43.237543 89.7358037,43.3704558 C89.4833448,43.4369122 89.1677712,43.4701404 88.7575254,43.4701404 C88.4103944,43.4701404 88.3157223,43.6362813 88.3157223,43.7691941 C88.3157223,43.9685632 88.5050665,44.0682478 88.8521975,44.0682478 C89.1590052,44.0682478 89.5169476,44.0605561 89.8854415,44.0494458 L90.3301016,44.0347461 C91.1450738,44.0057911 91.9325469,43.9685632 92.2603928,43.9685632 C92.6706386,43.9685632 94.9743261,44.0682478 96.5837517,44.0682478 Z M96.5837517,33.833965 C95.8894897,33.833965 95.0689982,33.7675086 94.4694083,33.5681395 C94.2800641,33.4684549 94.2169494,33.3687703 94.2169494,33.0697166 L94.2169494,24.6629843 C94.2169494,24.430387 94.2800641,24.3307024 94.4694083,24.264246 C94.7534246,24.1977896 95.4161292,24.1645615 96.1103912,24.1645615 C97.7513742,24.1645615 100.339078,25.1946354 100.339078,29.1820183 C100.339078,31.5079916 99.3923571,32.7374347 98.5403083,33.3687703 C98.0669478,33.7342804 97.6882594,33.833965 96.5837517,33.833965 Z M122.303003,44.0682478 C122.618577,44.0682478 122.839479,43.9685632 122.839479,43.7691941 C122.839479,43.6362813 122.713249,43.4701404 122.397675,43.4701404 C121.98743,43.4701404 121.356282,43.4369122 120.977594,43.3704558 C120.157103,43.237543 119.999316,42.705892 119.904644,41.9084154 C119.784152,40.7348561 119.749921,38.6530138 119.747058,36.2119869 L119.746857,24.430387 L123.249724,24.4968434 C125.742756,24.5300716 126.468575,25.3940045 126.53169,26.1250247 L126.563247,26.4240784 C126.594805,26.8560449 126.65792,26.9889577 126.878821,26.9889577 C127.036608,26.9889577 127.099723,26.8228167 127.13128,26.523763 C127.13128,25.7927428 127.194395,23.6993668 127.194395,23.1012593 C127.194395,22.6692929 127.162837,22.5031519 126.973493,22.5031519 C126.878821,22.5031519 126.65792,22.5696083 126.216116,22.6360647 C125.805871,22.7025211 125.206281,22.7689774 124.322675,22.7689774 L113.056696,22.7689774 C112.141532,22.7689774 111.100139,22.7357492 110.279648,22.6360647 C109.585386,22.5363801 109.301369,22.3037828 109.080468,22.3037828 C108.922681,22.3037828 108.828009,22.4699237 108.764894,22.8354338 C108.701779,23.0680312 108.165304,25.7927428 108.165304,26.2579375 C108.165304,26.5569912 108.228419,26.7231322 108.417763,26.7231322 C108.607107,26.7231322 108.670222,26.5902194 108.733337,26.3576221 C108.796452,26.1582529 108.922681,25.7927428 109.206697,25.3940045 C109.616943,24.7626689 110.279648,24.5632997 111.889073,24.5300716 L116.023088,24.430387 L116.023088,35.8608847 L116.023078,36.1968179 L116.023078,36.1968179 L116.022424,37.1764665 C116.01927,39.1958895 116.001135,40.8870097 115.896858,41.8751872 C115.802186,42.705892 115.6444,43.237543 115.076367,43.3704558 C114.855465,43.4369122 114.508334,43.4701404 114.098089,43.4701404 C113.750958,43.4701404 113.656286,43.6362813 113.656286,43.7691941 C113.656286,43.9685632 113.84563,44.0682478 114.192761,44.0682478 C115.297269,44.0682478 117.19071,43.9685632 117.821858,43.9685632 C118.610792,43.9685632 120.472676,44.0682478 122.303003,44.0682478 Z M143.793568,43.403684 C143.951355,42.8388047 144.172257,40.9115697 144.172257,40.280234 C144.172257,39.9811803 144.140699,39.6156702 143.919798,39.6156702 C143.730453,39.6156702 143.667339,39.748583 143.604224,40.0476367 C143.41488,41.2106234 143.099306,41.8087308 142.405044,42.1410127 C141.679225,42.4732946 140.511602,42.5065228 139.785783,42.5065228 C136.94562,42.5065228 136.093571,42.0745564 136.030457,40.1473213 C136.021175,39.9029963 136.017353,39.5235741 136.016582,39.0851419 L136.016968,38.535568 C136.01928,37.6833288 136.028356,36.7385066 136.030148,36.1448426 L136.030457,33.7010522 C136.030457,33.5349113 136.062014,33.4019985 136.188243,33.4019985 C136.882506,33.4019985 140.038242,33.4684549 140.54316,33.5349113 C141.584553,33.6345959 141.931684,34.0665623 142.089471,34.6314416 C142.152585,34.9969517 142.152585,35.3624618 142.184143,35.6615155 C142.184143,35.7944283 142.247257,35.8941128 142.436602,35.8941128 C142.68906,35.8941128 142.720618,35.4953746 142.720618,35.2627772 C142.720618,35.0634081 142.783733,33.9336496 142.846847,33.3687703 C143.004634,31.9399581 143.067749,31.4747635 143.067749,31.3086225 C143.067749,31.1424815 142.973077,31.0095688 142.846847,31.0095688 C142.720618,31.0095688 142.625946,31.1757097 142.405044,31.3750789 C142.152585,31.6741326 141.74234,31.740589 141.079635,31.8070454 C140.594137,31.8581657 138.353377,31.8699626 137.057759,31.872685 L136.219801,31.8735017 L136.219801,31.8735017 C136.062014,31.8735017 136.030457,31.740589 136.030457,31.574448 L136.030457,24.5965279 C136.030457,24.430387 136.093571,24.3307024 136.219801,24.3307024 C136.787833,24.3307024 140.101357,24.3971588 140.574717,24.4636152 C141.963241,24.5965279 142.184143,24.9952662 142.405044,25.4936891 C142.562831,25.825971 142.594388,26.3243939 142.594388,26.523763 C142.594388,26.7563603 142.625946,26.8892731 142.81529,26.8892731 C143.036191,26.8892731 143.099306,26.5569912 143.130864,26.4240784 C143.193978,26.0917965 143.257093,24.8623535 143.28865,24.5632997 C143.351765,23.2674003 143.509552,22.9351184 143.509552,22.7357492 C143.509552,22.6028365 143.477995,22.4699237 143.320208,22.4699237 C143.193978,22.4699237 143.036191,22.5696083 142.878405,22.6028365 C142.657503,22.6360647 142.2157,22.7357492 141.710782,22.7689774 C141.563252,22.7781152 140.990919,22.7822272 140.220207,22.7833865 L139.067537,22.783332 C137.341192,22.7812386 135.266926,22.7718184 134.420166,22.7694961 L134.137015,22.7689774 L134.137015,22.7689774 C133.348081,22.7689774 131.580868,22.7025211 130.12923,22.7025211 C129.718984,22.7025211 129.498082,22.7689774 129.498082,22.9683466 C129.498082,23.1677157 129.687427,23.2674003 129.971443,23.2674003 C130.381689,23.2674003 130.855049,23.3006285 131.075951,23.3670849 C131.959557,23.6329104 132.212016,23.9319641 132.27513,24.8955817 C132.276565,24.9363617 132.277934,24.9769358 132.279241,25.017641 L132.282978,25.1404867 C132.283571,25.1611388 132.284149,25.181908 132.284712,25.2028363 L132.287923,25.3306531 C132.298573,25.7870555 132.303179,26.3508004 132.30517,27.4120367 L132.305874,27.8984483 C132.305936,27.9561311 132.305994,28.0150684 132.306048,28.0753023 L132.306024,37.1764665 C132.30287,39.1958895 132.284735,40.8870097 132.180458,41.8751872 C132.085786,42.705892 131.927999,43.237543 131.359967,43.3704558 C131.107508,43.4369122 130.791934,43.4701404 130.381689,43.4701404 C130.034558,43.4701404 129.939885,43.6362813 129.939885,43.7691941 C129.939885,43.9685632 130.12923,44.0682478 130.476361,44.0682478 C131.044393,44.0682478 131.738655,44.0350196 132.40136,44.0017914 C133.064064,44.0017914 133.663654,43.9685632 133.979228,43.9685632 C134.799719,43.9685632 135.841112,44.0017914 137.198079,44.0350196 C138.464581,44.0970456 140.005983,44.1301261 141.899257,44.1342611 L142.587072,44.1342611 C143.39928,44.1280736 143.622257,44.0650832 143.793568,43.403684 Z M156.384956,44.0682478 C156.732087,44.0682478 156.952989,43.9685632 156.952989,43.7691941 C156.952989,43.6362813 156.82676,43.4701404 156.605858,43.4701404 C156.258727,43.4701404 155.659137,43.4369122 155.248891,43.3704558 C154.396843,43.237543 154.270613,42.705892 154.175941,41.8751872 C154.060688,40.782991 154.024358,38.859776 154.018911,36.535504 L154.018154,35.4621464 C154.018154,35.2960054 154.112826,35.229549 154.239056,35.229549 L156.732087,35.2960054 C156.921432,35.2960054 157.079218,35.3292336 157.237005,35.4953746 C157.584136,35.927341 158.751759,37.8213479 159.856266,39.3498447 C161.402577,41.5429053 162.44397,42.8720329 163.64315,43.5033686 C164.36897,43.9021069 165.126346,44.0682478 166.672657,44.0682478 L169.323476,44.0682478 C169.670607,44.0682478 169.859951,44.0017914 169.859951,43.7691941 C169.859951,43.6362813 169.733721,43.4701404 169.51282,43.4701404 C169.291918,43.4701404 169.134131,43.4701404 168.850115,43.403684 C168.408312,43.3039994 167.430034,43.1710867 165.883723,41.5429053 C164.211183,39.7818112 162.254626,37.2232405 159.793152,34.0333342 C162.507085,31.740589 163.64315,29.8798103 163.64315,27.7864343 C163.64315,25.8924274 162.475528,24.4636152 161.686594,23.8987359 C160.203397,22.868662 158.183726,22.7025211 156.416514,22.7025211 C155.564465,22.7025211 153.039876,22.7689774 152.093155,22.7689774 C151.525122,22.7689774 149.75791,22.7025211 148.306271,22.7025211 C147.896026,22.7025211 147.675124,22.7689774 147.675124,22.9683466 C147.675124,23.1677157 147.864468,23.2674003 148.148484,23.2674003 C148.55873,23.2674003 149.032091,23.3006285 149.252992,23.3670849 C150.136598,23.6329104 150.389057,23.9319641 150.452172,24.8955817 C150.453606,24.9363617 150.454976,24.9769358 150.456283,25.017641 L150.46002,25.1404867 C150.460613,25.1611388 150.461191,25.181908 150.461754,25.2028363 L150.464964,25.3306531 C150.475615,25.7870555 150.48022,26.3508004 150.482212,27.4120367 L150.482915,27.8984483 C150.482978,27.9561311 150.483036,28.0150684 150.483089,28.0753023 L150.483065,37.1764665 C150.479911,39.1958895 150.461776,40.8870097 150.3575,41.8751872 C150.262828,42.705892 150.105041,43.237543 149.537008,43.3704558 C149.28455,43.4369122 148.968976,43.4701404 148.55873,43.4701404 C148.211599,43.4701404 148.116927,43.6362813 148.116927,43.7691941 C148.116927,43.9685632 148.306271,44.0682478 148.653402,44.0682478 C148.96021,44.0682478 149.318152,44.0605561 149.686646,44.0494458 L150.131306,44.0347461 C150.946279,44.0057911 151.733752,43.9685632 152.061598,43.9685632 C152.471843,43.9685632 154.775531,44.0682478 156.384956,44.0682478 Z M156.384956,33.833965 C155.690694,33.833965 154.870203,33.7675086 154.270613,33.5681395 C154.081269,33.4684549 154.018154,33.3687703 154.018154,33.0697166 L154.018154,24.6629843 C154.018154,24.430387 154.081269,24.3307024 154.270613,24.264246 C154.554629,24.1977896 155.217334,24.1645615 155.911596,24.1645615 C157.552579,24.1645615 160.140283,25.1946354 160.140283,29.1820183 C160.140283,31.5079916 159.193562,32.7374347 158.341513,33.3687703 C157.868153,33.7342804 157.489464,33.833965 156.384956,33.833965 Z" id="Reporter"></path>
            <path d="M54.2810693,19.0333651 C54.5027883,19.0333651 54.6640384,18.9578359 54.6640384,18.781601 C54.6640384,18.655719 54.5632571,18.5801897 54.3415381,18.5801897 C54.039194,18.5801897 53.595756,18.5298369 53.3135682,18.4794841 C52.7088801,18.3787785 52.5677862,17.9256031 52.5073174,17.2458401 C52.4395923,16.3364682 52.4287563,14.7875752 52.4270225,12.86776 L52.4271774,5.12329721 C52.4272216,5.06985562 52.4272697,5.01744848 52.4273222,4.96604664 L52.4276925,4.66946622 C52.4299073,3.19705425 52.4370263,2.63473741 52.4599088,2.11442496 L52.4670048,1.96375989 L52.4670048,1.96375989 C52.5073174,1.08258558 52.6685675,0.65458663 53.2127869,0.528704586 C53.4546621,0.478351768 53.6159123,0.453175359 53.817475,0.453175359 C54.0190377,0.453175359 54.1399754,0.402822542 54.1399754,0.201411271 C54.1399754,0.0503528177 53.9787252,4.06336171e-13 53.7166937,4.06336171e-13 C52.9507553,4.06336171e-13 51.7615353,0.0755292265 51.2576285,0.0755292265 C50.6730966,0.0755292265 49.4032515,4.06336171e-13 48.6373132,4.06336171e-13 C48.3148128,4.06336171e-13 48.1535627,0.0503528177 48.1535627,0.201411271 C48.1535627,0.402822542 48.2745003,0.453175359 48.476063,0.453175359 C48.7179383,0.453175359 48.9799698,0.478351768 49.2016888,0.553880995 C49.6451268,0.679763039 49.8466895,1.10776199 49.887002,1.96375989 L49.8894694,2.01401072 L49.8894694,2.01401072 L49.8940981,2.11442496 C49.9169805,2.63473741 49.9240995,3.19705425 49.9263143,4.66946622 L49.9266847,4.96604664 C49.9267372,5.01744848 49.9267853,5.06985562 49.9268294,5.12329721 L49.9273142,7.06601848 C49.9273146,7.14306296 49.9273146,7.22143327 49.9273146,7.30115857 L49.9273146,11.7322065 L49.9273088,12.0119503 L49.9273088,12.0119503 L49.9269476,12.825415 C49.9249292,14.7642506 49.9118097,16.3259328 49.8265332,17.2206636 C49.7660644,17.9507795 49.6451268,18.3787785 49.2420013,18.4794841 C49.0605949,18.5298369 48.8187196,18.5801897 48.5163755,18.5801897 C48.2745003,18.5801897 48.1938752,18.655719 48.1938752,18.781601 C48.1938752,18.9578359 48.3349691,19.0333651 48.5970006,19.0333651 C49.4032515,19.0333651 50.6730966,18.9578359 51.1366909,18.9578359 C51.6809102,18.9578359 52.9507553,19.0333651 54.2810693,19.0333651 Z M75.324217,19.0333651 C75.6064048,19.0333651 75.8482801,18.9699205 75.8482801,18.8007351 C75.8482801,18.673846 75.7071862,18.6526978 75.5257797,18.6526978 C75.2637482,18.6526978 74.8606228,18.6315496 74.2760909,18.441216 C73.6714027,18.2508823 73.46984,17.637585 73.2884336,16.3052494 L71.4542128,3.23567206 C71.393744,2.79156021 71.2728064,2.58007838 71.0914,2.58007838 C70.9099935,2.58007838 70.8092121,2.74926385 70.647962,3.08763478 L65.165456,15.1632475 L59.6627938,3.23567206 C59.4007623,2.6858193 59.2798247,2.58007838 59.1185745,2.58007838 C58.9573243,2.58007838 58.8363867,2.77041203 58.7759179,3.12993115 L56.780447,16.9185467 C56.6796656,17.637585 56.5184154,18.4623641 55.9540398,18.5892532 C55.6516958,18.6526978 55.5106019,18.6526978 55.3493517,18.6526978 C55.147789,18.6526978 55.0268513,18.6949942 55.0268513,18.8007351 C55.0268513,18.9910687 55.1881015,19.0333651 55.3896642,19.0333651 C56.0346649,19.0333651 57.002166,18.9699205 57.3851351,18.9699205 C57.747948,18.9699205 58.6549803,19.0333651 59.5015437,19.0333651 C59.8038878,19.0333651 59.9852942,18.9910687 59.9852942,18.8007351 C59.9852942,18.6949942 59.8442003,18.6526978 59.6829501,18.6526978 C59.4813874,18.6526978 59.1991996,18.6315496 58.8363867,18.5469569 C58.4937301,18.4623641 58.2316986,18.2720305 58.2316986,17.870215 C58.2316986,17.5318441 58.2518548,17.2569177 58.2921674,16.8762504 L59.3402935,8.45927337 L59.4209186,8.45927337 C60.1263881,10.0453871 61.3357644,12.7100582 61.5171709,13.1541701 C61.7590461,13.7463192 63.3513916,16.9819913 63.8351421,17.9548077 C64.1576425,18.5892532 64.3592052,19.0122169 64.5406116,19.0122169 C64.7220181,19.0122169 64.8227994,18.8218833 65.2863937,17.8279186 L69.6804609,8.22664335 L69.761086,8.22664335 L70.9704623,17.5318441 C71.0510874,18.1239932 70.9906186,18.3989196 70.869681,18.441216 C70.7285871,18.5046605 70.647962,18.5681051 70.647962,18.673846 C70.647962,18.8007351 70.7688996,18.8641796 71.2324939,18.906476 C72.0387447,18.9699205 74.8203102,19.0333651 75.324217,19.0333651 Z M82.3789122,19.0333651 C82.6006311,19.0333651 82.7618813,18.9699205 82.7618813,18.8218833 C82.7618813,18.7161423 82.6611,18.6526978 82.439381,18.6526978 C82.1370369,18.6526978 81.6935989,18.6104014 81.4114111,18.5681051 C80.806723,18.4835123 80.6857853,18.0182523 80.6253165,17.4261031 C80.5406602,16.6622308 80.5271152,15.3611607 80.524948,13.811189 L80.5245352,4.44111852 C80.5245352,4.2084885 80.585004,4.0815994 80.6857853,4.03930304 C80.8671918,3.97585848 81.1695359,3.9547103 81.4718799,3.9547103 C81.9354742,3.9547103 82.7618813,4.0815994 83.4875071,4.77948946 C84.6162583,5.83689863 84.6767271,7.25382692 84.6767271,7.95171697 C84.6767271,10.1088317 83.1045379,11.4411672 81.9757867,11.4411672 C81.552505,11.4411672 81.4114111,11.5046118 81.4114111,11.6737973 C81.4114111,11.8218345 81.552505,11.8429827 81.6532864,11.8641309 C81.7540677,11.8852791 81.9757867,11.8852791 82.0765681,11.8852791 C84.9387587,11.8852791 87.0350109,9.77046074 87.0350109,6.7674187 C87.0350109,5.64656498 86.4706353,4.69489672 86.0271974,4.25078487 C85.704697,3.93356212 84.7976648,3.04533841 82.2781308,3.04533841 C81.3509423,3.04533841 80.1818785,3.10878296 79.3554714,3.10878296 C78.7910958,3.10878296 77.5212507,3.04533841 76.4529683,3.04533841 C76.1506242,3.04533841 76.0095303,3.08763478 76.0095303,3.23567206 C76.0095303,3.38370935 76.1304679,3.42600572 76.3521869,3.42600572 C76.6343747,3.42600572 76.9770313,3.4471539 77.1382815,3.48945027 C77.8034385,3.63748755 77.9646886,3.97585848 78.0050012,4.69489672 L78.0074686,4.73710742 L78.0074686,4.73710742 L78.0120972,4.82145538 C78.0349797,5.25851784 78.0420987,5.73086398 78.0443135,6.96769004 L78.0446838,7.2168176 C78.0447363,7.25999514 78.0447844,7.30401714 78.0448286,7.34890807 L78.0453134,8.98079394 C78.0453137,9.0455113 78.0453137,9.11134236 78.0453137,9.17831161 L78.0453137,12.9003919 L78.0453073,13.1325157 L78.0453073,13.1325157 L78.0449009,13.8111024 C78.0427337,15.3606193 78.0291887,16.6588471 77.9445324,17.404955 C77.8639073,18.0182523 77.7631259,18.4835123 77.3600005,18.5681051 C77.178594,18.6104014 76.9367188,18.6526978 76.6343747,18.6526978 C76.3924994,18.6526978 76.3118743,18.7161423 76.3118743,18.8218833 C76.3118743,18.9699205 76.4529683,19.0333651 76.7149998,19.0333651 C77.5212507,19.0333651 78.7910958,18.9699205 79.25469,18.9699205 C79.7787531,18.9699205 81.0485982,19.0333651 82.3789122,19.0333651 Z M85.2821268,19.0321168 L85.5441,19.0286655 C86.4124061,19.0139793 87.213058,18.9699205 87.3978238,18.9699205 C88.0226683,18.9699205 88.8893879,19.0333651 89.5343886,19.0333651 C89.7561076,19.0333651 89.8770453,18.9910687 89.8770453,18.8218833 C89.8770453,18.6949942 89.8165765,18.6526978 89.5747012,18.6526978 L89.2723571,18.6526978 C88.6475127,18.6526978 88.4661062,18.3777714 88.4661062,17.9971041 C88.4661062,17.7433259 88.5668876,17.2357695 88.7684503,16.7070649 L89.856889,13.6828747 C89.8972015,13.5559856 89.9375141,13.5136892 90.0382954,13.5136892 L94.5331441,13.5136892 C94.6339254,13.5136892 94.6943942,13.5559856 94.7347068,13.6617265 L96.3472085,18.1451414 C96.4479899,18.3989196 96.306896,18.5892532 96.1658021,18.6315496 C95.9642393,18.6526978 95.8836143,18.6949942 95.8836143,18.8218833 C95.8836143,18.9699205 96.1254895,18.9699205 96.4883024,18.9910687 C97.7648663,19.0245533 98.9530015,19.0315293 99.7526824,19.0329826 L100.297838,19.0333651 C101.04362,19.0333651 101.225026,18.9910687 101.225026,18.8218833 C101.225026,18.673846 101.124245,18.6526978 100.962995,18.6526978 C100.721119,18.6526978 100.418775,18.6315496 100.116431,18.5681051 C99.6931496,18.4623641 99.1086177,18.1662896 98.3426794,16.2629531 C97.7693455,14.8342758 96.8137889,12.3361792 95.8865451,9.89935153 L95.7131189,9.44344037 C94.6181239,6.56404693 93.5992368,3.87070502 93.343924,3.25682025 C93.1423613,2.77041203 93.0214237,2.58007838 92.8400172,2.58007838 C92.6384545,2.58007838 92.5175169,2.8127084 92.2756416,3.42600572 L87.2164174,16.7070649 C86.813292,17.7644741 86.4303228,18.4835123 85.5031343,18.6104014 C85.3418841,18.6315496 85.0596963,18.6526978 84.8782899,18.6526978 C84.7170397,18.6526978 84.6364146,18.6949942 84.6364146,18.8218833 C84.6364146,18.9910687 84.7573522,19.0333651 85.0193838,19.0333651 C85.1067276,19.0333651 85.1944914,19.0329245 85.2821268,19.0321168 Z M94.1501749,12.45628 L90.4414209,12.45628 C90.3607958,12.45628 90.3406395,12.3928355 90.3607958,12.3082428 L92.2151728,7.10578963 C92.2353291,7.0211969 92.2756416,6.91545598 92.3361104,6.91545598 C92.3965792,6.91545598 92.4167355,7.0211969 92.4368918,7.10578963 L94.2509562,12.3293909 C94.2711125,12.3928355 94.2509562,12.45628 94.1501749,12.45628 Z M103.462372,18.9699205 C103.764717,18.9699205 105.256281,19.0333651 106.425344,19.0333651 C106.687376,19.0333651 106.82847,18.9699205 106.82847,18.8218833 C106.82847,18.7161423 106.747845,18.6526978 106.586595,18.6526978 C106.344719,18.6526978 105.901281,18.6104014 105.598937,18.5681051 C104.994249,18.4835123 104.873311,18.0182523 104.812843,17.404955 C104.728186,16.6588471 104.714641,15.3606193 104.712474,13.7985678 L104.712061,12.5831691 C104.712061,12.45628 104.77253,12.4139837 104.873311,12.4139837 L106.626907,12.45628 C106.768001,12.45628 106.888939,12.4774282 106.98972,12.6043173 C107.206574,12.8668465 107.878993,13.8970472 108.561408,14.9037732 L108.731963,15.1545078 C108.817086,15.2791728 108.901786,15.4024408 108.985191,15.5227666 C110.113942,17.1511768 110.87988,18.1451414 111.7466,18.6315496 C112.270663,18.9276242 112.77457,19.0333651 113.903321,19.0333651 L115.818167,19.0333651 C116.060042,19.0333651 116.201136,18.9910687 116.201136,18.8218833 C116.201136,18.7161423 116.120511,18.6526978 115.959261,18.6526978 C115.798011,18.6526978 115.616604,18.6315496 115.394885,18.5892532 C115.092541,18.5258087 114.266134,18.3777714 113.137383,17.1511768 C111.948163,15.8399894 110.55738,13.9578011 108.763472,11.5892045 C110.799255,9.85505348 111.4241,8.41697701 111.4241,6.85201143 C111.4241,5.43508314 110.617849,4.35652579 110.053473,3.9547103 C108.965035,3.17222751 107.614564,3.04533841 106.344719,3.04533841 C105.719875,3.04533841 104.187998,3.10878296 103.502685,3.10878296 C103.079403,3.10878296 101.809558,3.04533841 100.741276,3.04533841 C100.438932,3.04533841 100.297838,3.08763478 100.297838,3.23567206 C100.297838,3.38370935 100.418775,3.42600572 100.640494,3.42600572 C100.922682,3.42600572 101.265339,3.4471539 101.426589,3.48945027 C102.091746,3.63748755 102.252996,3.97585848 102.293309,4.69489672 L102.295776,4.73710742 L102.295776,4.73710742 L102.300405,4.82145538 C102.323287,5.25851784 102.330406,5.73086398 102.332621,6.96769004 L102.332991,7.2168176 C102.333044,7.25999514 102.333092,7.30401714 102.333136,7.34890807 L102.333621,8.98079394 C102.333621,9.0455113 102.333621,9.11134236 102.333621,9.17831161 L102.333621,12.9003919 L102.333615,13.1325157 L102.333615,13.1325157 L102.333208,13.8111024 C102.331041,15.3606193 102.317496,16.6588471 102.23284,17.404955 C102.152215,18.0182523 102.051433,18.4835123 101.648308,18.5681051 C101.466902,18.6104014 101.225026,18.6526978 100.922682,18.6526978 C100.680807,18.6526978 100.600182,18.7161423 100.600182,18.8218833 C100.600182,18.9699205 100.741276,19.0333651 101.003307,19.0333651 C101.809558,19.0333651 103.079403,18.9699205 103.462372,18.9699205 Z M106.425344,11.4411672 C105.921438,11.4411672 105.316749,11.3777227 104.893468,11.2296854 C104.752374,11.1662409 104.712061,11.0816481 104.712061,10.8490181 L104.712061,4.41997034 C104.712061,4.25078487 104.752374,4.16619214 104.893468,4.12389577 C105.09503,4.06045122 105.457843,4.03930304 105.96175,4.03930304 C107.15097,4.03930304 109.04566,4.90637856 109.04566,7.9094206 C109.04566,9.64357164 108.461128,10.6163881 107.85644,11.0816481 C107.493627,11.3565745 107.231595,11.4411672 106.425344,11.4411672 Z M122.83255,19.0333651 C123.054269,19.0333651 123.215519,18.9699205 123.215519,18.8218833 C123.215519,18.7161423 123.114737,18.6526978 122.893018,18.6526978 C122.590674,18.6526978 122.147236,18.6104014 121.865049,18.5681051 C121.26036,18.4835123 121.139423,18.0182523 121.078954,17.4261031 C120.994298,16.6622308 120.980753,15.3611607 120.978585,13.811189 L120.978173,4.22963669 L123.517863,4.29308124 C125.311771,4.3353776 125.85599,4.92752674 125.896303,5.47737951 L125.916459,5.71000953 C125.936616,6.02723228 125.976928,6.13297319 126.138178,6.13297319 C126.259116,6.13297319 126.299428,6.00608409 126.319585,5.79460226 C126.319585,5.24474949 126.380053,3.78552483 126.380053,3.34141298 C126.380053,3.02419023 126.359897,2.89730113 126.218803,2.89730113 C126.138178,2.89730113 125.976928,2.9395975 125.674584,3.00304205 C125.37224,3.04533841 124.928802,3.10878296 124.283801,3.10878296 L116.301918,3.10878296 C115.636761,3.10878296 114.870822,3.0664866 114.28629,3.00304205 C113.782384,2.96074568 113.580821,2.74926385 113.419571,2.74926385 C113.298633,2.74926385 113.238164,2.87615295 113.177695,3.15107933 C113.137383,3.3202648 112.754414,5.24474949 112.754414,5.58312043 C112.754414,5.81575044 112.794726,5.92149136 112.93582,5.92149136 C113.056758,5.92149136 113.117227,5.83689863 113.157539,5.66771316 C113.197852,5.49852769 113.298633,5.24474949 113.500196,4.92752674 C113.80254,4.4622667 114.28629,4.35652579 115.455354,4.31422942 L118.458639,4.22963669 L118.458639,12.9003919 L118.458632,13.1325157 L118.458632,13.1325157 L118.458226,13.8111024 C118.456059,15.3606193 118.442514,16.6588471 118.357857,17.404955 C118.297388,18.0182523 118.176451,18.4835123 117.773325,18.5681051 C117.591919,18.6104014 117.350044,18.6526978 117.0477,18.6526978 C116.805824,18.6526978 116.725199,18.7161423 116.725199,18.8218833 C116.725199,18.9699205 116.866293,19.0333651 117.128325,19.0333651 C117.934576,19.0333651 119.204421,18.9699205 119.668015,18.9699205 C120.232391,18.9699205 121.502236,19.0333651 122.83255,19.0333651 Z M133.434749,19.0333651 C133.656468,19.0333651 133.817718,18.9699205 133.817718,18.8218833 C133.817718,18.7161423 133.716936,18.6526978 133.495217,18.6526978 C133.192873,18.6526978 132.749435,18.6104014 132.467248,18.5681051 C131.862559,18.4835123 131.721466,18.102845 131.660997,17.5318441 C131.593272,16.7679717 131.582436,15.4669016 131.580702,13.8542569 L131.580857,7.34890807 C131.580901,7.30401714 131.580949,7.25999514 131.581001,7.2168176 L131.581372,6.96769004 C131.583587,5.73086398 131.590706,5.25851784 131.613588,4.82145538 L131.620684,4.69489672 L131.620684,4.69489672 C131.660997,3.9547103 131.822247,3.59519118 132.366466,3.48945027 C132.608341,3.4471539 132.769592,3.42600572 132.971154,3.42600572 C133.172717,3.42600572 133.293655,3.38370935 133.293655,3.21452388 C133.293655,3.08763478 133.132405,3.04533841 132.870373,3.04533841 C132.104435,3.04533841 130.915215,3.10878296 130.411308,3.10878296 C129.826776,3.10878296 128.556931,3.04533841 127.790993,3.04533841 C127.468492,3.04533841 127.307242,3.08763478 127.307242,3.21452388 C127.307242,3.38370935 127.42818,3.42600572 127.629742,3.42600572 C127.871618,3.42600572 128.133649,3.4471539 128.355368,3.51059845 C128.798806,3.61633937 129.000369,3.97585848 129.040681,4.69489672 L129.043149,4.73710742 L129.043149,4.73710742 L129.047777,4.82145538 C129.07066,5.25851784 129.077779,5.73086398 129.079994,6.96769004 L129.080364,7.2168176 C129.080417,7.25999514 129.080465,7.30401714 129.080509,7.34890807 L129.080994,8.98079394 C129.080994,9.0455113 129.080994,9.11134236 129.080994,9.17831161 L129.080994,12.9003919 L129.080988,13.1353767 L129.080988,13.1353767 L129.080627,13.818687 C129.078609,15.4473089 129.065489,16.759122 128.980213,17.5106959 C128.919744,18.1239932 128.798806,18.4835123 128.395681,18.5681051 C128.214274,18.6104014 127.972399,18.6526978 127.670055,18.6526978 C127.42818,18.6526978 127.347555,18.7161423 127.347555,18.8218833 C127.347555,18.9699205 127.488648,19.0333651 127.75068,19.0333651 C128.556931,19.0333651 129.826776,18.9699205 130.29037,18.9699205 C130.83459,18.9699205 132.104435,19.0333651 133.434749,19.0333651 Z M133.233897,19.0321168 L133.495871,19.0286655 C134.364177,19.0139793 135.164829,18.9699205 135.349594,18.9699205 C135.974439,18.9699205 136.841159,19.0333651 137.486159,19.0333651 C137.707878,19.0333651 137.828816,18.9910687 137.828816,18.8218833 C137.828816,18.6949942 137.768347,18.6526978 137.526472,18.6526978 L137.224128,18.6526978 C136.599283,18.6526978 136.417877,18.3777714 136.417877,17.9971041 C136.417877,17.7433259 136.518658,17.2357695 136.720221,16.7070649 L137.80866,13.6828747 C137.848972,13.5559856 137.889285,13.5136892 137.990066,13.5136892 L142.484915,13.5136892 C142.585696,13.5136892 142.646165,13.5559856 142.686477,13.6617265 L144.298979,18.1451414 C144.39976,18.3989196 144.258667,18.5892532 144.117573,18.6315496 C143.91601,18.6526978 143.835385,18.6949942 143.835385,18.8218833 C143.835385,18.9699205 144.07726,18.9699205 144.440073,18.9910687 C145.716637,19.0245533 146.904772,19.0315293 147.704453,19.0329826 L148.249608,19.0333651 C148.99539,19.0333651 149.176797,18.9910687 149.176797,18.8218833 C149.176797,18.673846 149.076016,18.6526978 148.914765,18.6526978 C148.67289,18.6526978 148.370546,18.6315496 148.068202,18.5681051 C147.64492,18.4623641 147.060388,18.1662896 146.29445,16.2629531 C145.721116,14.8342758 144.765559,12.3361792 143.838316,9.89935153 L143.664889,9.44344037 C142.569894,6.56404693 141.551007,3.87070502 141.295695,3.25682025 C141.094132,2.77041203 140.973194,2.58007838 140.791788,2.58007838 C140.590225,2.58007838 140.469287,2.8127084 140.227412,3.42600572 L135.168188,16.7070649 C134.765063,17.7644741 134.382093,18.4835123 133.454905,18.6104014 C133.293655,18.6315496 133.011467,18.6526978 132.83006,18.6526978 C132.66881,18.6526978 132.588185,18.6949942 132.588185,18.8218833 C132.588185,18.9910687 132.709123,19.0333651 132.971154,19.0333651 C133.058498,19.0333651 133.146262,19.0329245 133.233897,19.0321168 Z M142.101945,12.45628 L138.393191,12.45628 C138.312566,12.45628 138.29241,12.3928355 138.312566,12.3082428 L140.166943,7.10578963 C140.1871,7.0211969 140.227412,6.91545598 140.287881,6.91545598 C140.34835,6.91545598 140.368506,7.0211969 140.388662,7.10578963 L142.202727,12.3293909 C142.222883,12.3928355 142.202727,12.45628 142.101945,12.45628 Z M158.630088,18.5258087 C158.791339,17.9125114 158.932432,16.3263976 158.932432,16.0937676 C158.932432,15.8399894 158.912276,15.7342485 158.771182,15.7342485 C158.609932,15.7342485 158.56962,15.8611376 158.549463,16.0514712 C158.509151,16.4532867 158.267275,17.0454358 158.0254,17.3203622 C157.521493,17.8913632 156.735399,17.9125114 155.667116,17.9125114 C154.094927,17.9125114 153.570864,17.7644741 153.228208,17.4472513 C152.849482,17.1066543 152.809616,15.9026138 152.80542,13.7139448 L152.805411,7.34890807 C152.805455,7.30401714 152.805503,7.25999514 152.805556,7.2168176 L152.805926,6.96769004 C152.808141,5.73086398 152.81526,5.25851784 152.838142,4.82145538 L152.845238,4.69489672 L152.845238,4.69489672 C152.885551,3.9547103 153.046801,3.59519118 153.59102,3.48945027 C153.832896,3.4471539 154.155396,3.42600572 154.377115,3.42600572 C154.61899,3.42600572 154.739928,3.38370935 154.739928,3.23567206 C154.739928,3.08763478 154.598834,3.04533841 154.316646,3.04533841 C154.041513,3.04533841 153.682429,3.05311037 153.311123,3.06321392 L152.99154,3.07231821 C152.406285,3.08959099 151.841456,3.10878296 151.575393,3.10878296 C151.031174,3.10878296 149.761329,3.04533841 148.813984,3.04533841 C148.51164,3.04533841 148.370546,3.08763478 148.370546,3.23567206 C148.370546,3.38370935 148.491484,3.42600572 148.713203,3.42600572 C148.975234,3.42600572 149.217109,3.4471539 149.37836,3.48945027 C150.043517,3.63748755 150.204767,3.97585848 150.245079,4.69489672 L150.247547,4.73710742 L150.247547,4.73710742 L150.252175,4.82145538 C150.275058,5.25851784 150.282177,5.73086398 150.284392,6.96769004 L150.284762,7.2168176 C150.284814,7.25999514 150.284863,7.30401714 150.284907,7.34890807 L150.285391,8.98079394 C150.285392,9.0455113 150.285392,9.11134236 150.285392,9.17831161 L150.285392,12.9003919 L150.285385,13.1325157 L150.285385,13.1325157 L150.284979,13.8111024 C150.282812,15.3606193 150.269267,16.6588471 150.18461,17.404955 C150.103985,18.0182523 150.003204,18.4835123 149.600079,18.5681051 C149.418672,18.6104014 149.176797,18.6526978 148.874453,18.6526978 C148.632578,18.6526978 148.551952,18.7161423 148.551952,18.8218833 C148.551952,18.9699205 148.693046,19.0333651 148.955078,19.0333651 C149.358203,19.0333651 149.882266,18.9910687 150.345861,18.9910687 C150.697679,18.9756882 151.028175,18.9714935 151.267567,18.9703495 L151.428938,18.9699364 C151.452623,18.9699205 151.474612,18.9699205 151.494768,18.9699205 C152.321175,18.9699205 153.046801,18.9910687 153.953833,19.0333651 C154.807511,19.0532693 155.786171,19.0919068 157.108271,19.0963835 L157.360243,19.0968096 C158.408369,19.0968096 158.509151,18.9910687 158.630088,18.5258087 Z" id="IMPARTIAL"></path>
        </g>
    </g>
</svg>