<svg xmlns="http://www.w3.org/2000/svg" viewBox="0 0 247.62 35.32"><defs><style>.cls-1{fill:#333;}</style></defs><g id="Layer_2" data-name="Layer 2"><g id="Layer_1-2" data-name="Layer 1"><path class="cls-1" d="M3.25,11.13c0-.84-.1-7.14-.13-7.59C3,2.7,2.69,2.35,2,2.35H.28C.1,2.35,0,2.28,0,2.14v-1C0,1,.1.91.24.91.67.91,2.45,1,5.88,1S10.57.91,11.06.91c.18,0,.25.11.25.32V2.1c0,.18-.11.25-.28.25H10c-.87,0-1.4.28-1.4.91,0,.35-.1,8.08-.1,8.5v2.7c0,.35.1,8.43.1,8.75,0,1.08.53,1.26,1.19,1.26h1.44c.17,0,.28.07.28.24v1c0,.14-.11.21-.32.21-.42,0-1.82-.1-5.14-.1-3.68,0-5.18.1-5.57.1-.18,0-.28-.07-.28-.28v-.94c0-.14.1-.21.28-.21h1c.71,0,1.44-.11,1.58-.95.07-.52.17-8.08.17-9.94Z"/><path class="cls-1" d="M20.16,23.14c0,1.08.35,1.43,1.09,1.43h1.43c.21,0,.25.11.25.32v.7c0,.21,0,.31-.18.31s-1.82-.1-5-.1c-2.7,0-4.16.1-4.38.1s-.21-.07-.21-.35v-.66c0-.25.08-.32.39-.32h1a.81.81,0,0,0,.91-.84c.07-1,.07-2.2.07-3.95V16.87c0-1.5-.35-2.13-1.41-2.73l-.59-.35c-.21-.1-.28-.17-.28-.31v-.32c0-.14.07-.21.28-.28l4.9-2.13a1.65,1.65,0,0,1,.56-.14.44.44,0,0,1,.42.42l.32,2.73H20c1.09-2.31,2.63-3.36,4.17-3.36a1.86,1.86,0,0,1,1.85,2,2.3,2.3,0,0,1-2.24,2,2.33,2.33,0,0,1-1.26-.31,1.61,1.61,0,0,0-.87-.25,1,1,0,0,0-.91.63,4.91,4.91,0,0,0-.6,2.07Z"/><path class="cls-1" d="M35.74,25.9c-.28,0-1.9-.1-4.94-.1-2,0-3.4.1-3.78.1-.18,0-.28-.07-.28-.35v-.7c0-.21.1-.28.35-.28h1.29c.39,0,.63-.14.67-.7.07-1.05.07-2.13.07-3.11l-.07-4.9c0-1-.21-1.68-1.68-2.21-.39-.14-.42-.28-.42-.49v-.38c0-.11.07-.18.38-.28l5.22-1.68a2.93,2.93,0,0,1,1-.21c.27,0,.38.17.34.42-.07.59-.07,2.8-.07,5.88v3.74c0,1.37,0,2.63,0,3,.07.67.25.91.63.91H35.7c.28,0,.35.11.35.32v.66C36.05,25.8,36,25.9,35.74,25.9ZM30.94,8a2.48,2.48,0,0,1-2.56-2.52,2.61,2.61,0,0,1,2.73-2.31,2.38,2.38,0,0,1,2.6,2.2A2.65,2.65,0,0,1,30.94,8Z"/><path class="cls-1" d="M48.41,14.6c0,.17,0,.24-.14.31l-.63.28c-.11.07-.21,0-.35-.1l-2-2.1a3,3,0,0,0-2.18-1,1.94,1.94,0,0,0-2.06,1.89c.07,1.23.49,1.58,3.08,2.28,1.72.45,2.56.7,3.61,1.82a3.68,3.68,0,0,1,1.12,3c0,3.12-2.45,5.36-6.27,5.36a8.31,8.31,0,0,1-4.1-1c-.14-.1-.17-.24-.21-.45l-.45-3.36a.26.26,0,0,1,.24-.28l.63-.18c.11,0,.18,0,.25.14l1.4,2.07a3.45,3.45,0,0,0,3,1.78,2,2,0,0,0,2.07-2.13c0-1.4-1-1.86-3.29-2.56-2.49-.73-4.27-1.92-4.27-4.44a4.59,4.59,0,0,1,1.82-4,5.69,5.69,0,0,1,3.85-1.26,8.19,8.19,0,0,1,3.68.73c.52.25.59.42.63.67Z"/><path class="cls-1" d="M57.26,23.14c0,1.05.21,1.43.52,1.43h.7c.18,0,.28.07.28.28v.67c0,.24,0,.38-.24.38s-1.89-.1-4-.1c-2.45,0-3.78.1-4.09.1-.14,0-.25-.1-.25-.35v-.7c0-.24.14-.28.53-.28h.56c.56,0,1.08-.14,1.19-.59a8.81,8.81,0,0,0,.17-2.31L52.6,7.11c0-1.75-.45-2.77-1.64-3.22l-.63-.21c-.21-.11-.28-.21-.28-.32V2.91c0-.14.1-.28.59-.42A29.94,29.94,0,0,0,55.93.35,2.55,2.55,0,0,1,57,0c.32,0,.39.28.32.88s-.11,7.7-.11,9.76v2.1h.25A5.21,5.21,0,0,1,62,10.61,4.94,4.94,0,0,1,65.52,12C67.17,13.34,67,15.09,67,17.33V19.5c0,1.75-.07,3.88-.07,4.55,0,.49.7.52,1.12.52h.66c.28,0,.39.07.39.25v.73c0,.21-.07.35-.28.35s-1.37-.1-3.82-.1-3.68.1-4,.1-.32-.1-.32-.38v-.67c0-.17,0-.28.25-.28h.45a.82.82,0,0,0,.85-.66c0-.49.1-2.35.1-3.4V18.38c0-1.72.11-4.17-.81-5.08a2,2,0,0,0-1.64-.66,3.17,3.17,0,0,0-2.07,1.22,2.48,2.48,0,0,0-.59,1.72Z"/><path class="cls-1" d="M86.1,14.84c0,.6,0,8.16.1,9.56h2a50.8,50.8,0,0,0,5.11-.18c1.89-.17,4.27-4.37,4.8-5.67.1-.21.21-.31.42-.21l.7.28c.1.07.1.11.07.32s-1.51,6-1.72,7c-.91-.07-11-.1-14.21-.1-3.47,0-4.73.1-5.18.1-.25,0-.28-.07-.28-.31v-.88c0-.17,0-.24.24-.24h1.09c1.29,0,1.5-.49,1.5-.88,0-.66.11-9.38.11-11.51v-2c0-2.24-.07-5.95-.11-6.51-.07-.91-.24-1.26-1-1.26H78.4c-.21,0-.25-.18-.25-.35V1.16c0-.18,0-.25.25-.25C78.78.91,80,1,83.23,1c4.09,0,5.56-.11,5.88-.11s.32.11.32.35v.81c0,.17-.08.28-.35.28H87.43c-1.09,0-1.23.35-1.23,1.29,0,.46-.1,5.74-.1,8.19Z"/><path class="cls-1" d="M105.94,17.08v1c0,3.64,2.07,5.42,4.62,5.42a4.43,4.43,0,0,0,3.82-1.92.21.21,0,0,1,.35-.11l.6.32c.14.07.24.24-.07.84a7.34,7.34,0,0,1-6.2,3.71c-2.24,0-4.1-.39-5.25-1.65a7.65,7.65,0,0,1-2.42-6A8.34,8.34,0,0,1,103,13.48a7,7,0,0,1,6.09-2.87c5.67,0,6,5.42,6,6s-.32.49-1.09.49Zm3.4-1.33c.77,0,1.12-.17,1.12-.7,0-1.54-.63-3-1.72-3-1.64,0-2.52,1.29-2.76,3.74Z"/><path class="cls-1" d="M118.09,34.23a2.91,2.91,0,0,1-1.72-2.73c0-1.75,2-3,3.61-3.67v-.18a3,3,0,0,1-2.42-2.8c0-2,2-3.15,3.12-3.71V21a5.72,5.72,0,0,1-3.08-5.32c0-2.28,1.82-5.11,6.79-5.11a6.44,6.44,0,0,1,4.93,2,5.48,5.48,0,0,1,3.09-1.23,1.7,1.7,0,0,1,1.92,1.82,1.57,1.57,0,0,1-1.54,1.51,1.12,1.12,0,0,1-1.08-.6,1.27,1.27,0,0,0-1-.52,1.17,1.17,0,0,0-.67.31,5.11,5.11,0,0,1,.42,2.28,5,5,0,0,1-1.58,3.78,7.12,7.12,0,0,1-4.72,1.68,14.24,14.24,0,0,1-2.07-.11c-.45.28-1.29.91-1.29,1.61,0,1.23,1,1.33,4.79,1.23,2.38-.07,4.17.07,5.89,1.4a4.31,4.31,0,0,1,1.71,3.53,5,5,0,0,1-2,3.89,12.37,12.37,0,0,1-7.49,2.17A12.83,12.83,0,0,1,118.09,34.23ZM129.46,31c0-1.93-1.36-3-4.55-2.84l-3,.14a2.49,2.49,0,0,0-1.75,2.38A3,3,0,0,0,121.34,33a5.5,5.5,0,0,0,3.54.91C127.19,34,129.46,32.73,129.46,31Zm-7-17.92a8.09,8.09,0,0,0-.7,3.88,4.47,4.47,0,0,0,.77,2.66,1.89,1.89,0,0,0,1.61.7c1.54,0,2.06-2.34,2.06-5a5.75,5.75,0,0,0-.31-2.34,1.69,1.69,0,0,0-1.72-1A2,2,0,0,0,122.5,13.06Z"/><path class="cls-1" d="M142.94,14.63a2.64,2.64,0,0,0-.53-1.92,2.19,2.19,0,0,0-1.47-.42,3.17,3.17,0,0,0-1.85.56c-.53.35-.11.94-.11,2.06a2,2,0,0,1-2.27,2,1.37,1.37,0,0,1-1.51-1.26,3.31,3.31,0,0,1,1-2.45,10.25,10.25,0,0,1,6.72-2.59c2.24,0,2.84.35,3.57,1a3.77,3.77,0,0,1,1,3l.07,7c0,1.82.14,2.38.81,2.38a1.25,1.25,0,0,0,1-.63c.14-.21.25-.24.35-.17l.49.28c.14.07.25.17.11.49a3.89,3.89,0,0,1-3.54,2.38,3.27,3.27,0,0,1-3.32-2.14h-.18a8,8,0,0,1-3,1.82,7.46,7.46,0,0,1-2.52.32c-1.22,0-2.31-1.33-2.31-3.22,0-1.54.74-3.15,3-4.27a34.13,34.13,0,0,0,4.52-2.31Zm0,3.26c-1.71,1-3.15,1.5-3.15,3.92,0,1.61.74,2.27,1.51,2.31A1.94,1.94,0,0,0,143,22.86Z"/><path class="cls-1" d="M157.36,18.8c0,1.4,0,3.67.1,4.69,0,.59.14,1.08.88,1.08h1.19c.31,0,.38.11.38.32v.66c0,.21-.07.35-.21.35s-1.78-.1-4.55-.1c-2.94,0-4.34.1-4.65.1s-.25-.14-.25-.42v-.59c0-.25.07-.32.46-.32h1c.38,0,.94-.24.94-1.5V11.94c0-2.49,0-5.32-.07-6.23-.07-1.19-.8-1.68-1.92-2l-.63-.21c-.25-.11-.28-.21-.28-.39V2.56c0-.11.07-.25.31-.28a39,39,0,0,0,6.23-2,2,2,0,0,1,.77-.25c.21,0,.35.18.32.63,0,1.93-.07,9.21-.07,11.62Z"/><path class="cls-1" d="M190.19,15.61c0-3.11,0-4.83-.11-6.58,0-1.36-.2-4.79-.31-5.32a1.87,1.87,0,0,0-1.85-1.36h-1.13c-.17,0-.21-.11-.21-.32V1.16c0-.18,0-.25.32-.25S188.4,1,191,1c2.1,0,2.94-.11,3.32-.11s.35.07.35.28V2c0,.18,0,.32-.17.32h-1c-.6,0-1,.59-1.05,1.85-.25,2.35-.81,10.26-.81,14.88v6c0,.53,0,1.16-.52,1.16a1.88,1.88,0,0,1-1.37-.56c-.6-.56-2.31-2.42-4.41-4.9l-6-7.11c-.59-.7-5.42-6.72-6.23-7.87h-.28v7.07c0,2.9.32,7.21.35,8.54.07,2,.7,3.08,2.17,3.08h.88c.24,0,.28.1.28.31v.84c0,.21,0,.28-.28.28s-2.45-.1-4.1-.1c-1.08,0-3.5.1-3.85.1-.14,0-.17-.07-.17-.31v-.91c0-.11,0-.21.21-.21h1.22c.77,0,1.33-1.12,1.51-3.47,0-.66.31-6.26.31-11.44V6.41c0-2.07-1.26-4-3-4.06l-.87,0c-.18,0-.21-.14-.21-.24V1.12c0-.14,0-.21.21-.21s.45,0,1.12,0,1.82.07,3.64.07c1.19,0,2.24-.07,2.66-.07a1.22,1.22,0,0,1,1,.45l8.12,9.94,6,7.46h.14Z"/><path class="cls-1" d="M200.76,17.08v1c0,3.64,2.06,5.42,4.62,5.42a4.43,4.43,0,0,0,3.81-1.92.21.21,0,0,1,.35-.11l.6.32c.14.07.24.24-.07.84a7.33,7.33,0,0,1-6.2,3.71c-2.24,0-4.09-.39-5.25-1.65a7.64,7.64,0,0,1-2.41-6,8.38,8.38,0,0,1,1.57-5.14,7,7,0,0,1,6.09-2.87c5.67,0,6,5.42,6,6s-.32.49-1.09.49Zm3.39-1.33c.77,0,1.12-.17,1.12-.7,0-1.54-.63-3-1.71-3-1.65,0-2.52,1.29-2.77,3.74Z"/><path class="cls-1" d="M210.66,11.27c0-.17,0-.28.21-.28.49,0,1.19.11,4.17.11,1.75,0,2.59-.11,3.11-.11.21,0,.28.07.28.28V12c0,.18,0,.28-.28.28h-.45c-.32,0-.46.32-.32.81l2.38,7.24H220l2.14-5.46a2.88,2.88,0,0,0-.32-2.06,1.09,1.09,0,0,0-.91-.32h-.24c-.21,0-.28-.1-.28-.28v-.77c0-.21.1-.28.31-.28s1.4.11,3.61.11c2,0,2.8-.11,3.08-.11s.31.07.31.21v.77c0,.18,0,.35-.21.35H227a.56.56,0,0,0-.45.77L229,20.2h.14L231,14.88c.67-1.82.18-2.56-.77-2.56h-.49c-.17,0-.21-.1-.21-.28v-.8a.23.23,0,0,1,.25-.25c.21,0,1.26.11,3.22.11,1.51,0,2.14-.11,2.55-.11.18,0,.25.11.25.32V12c0,.18-.07.28-.25.28h-.35a1.51,1.51,0,0,0-1.43.74c-.28.59-4.83,11.58-5.39,12.81a.82.82,0,0,1-.81.45c-.38,0-.52-.24-.77-.84l-3.53-9h-.21l-3.92,9.27a.89.89,0,0,1-.84.56c-.35,0-.53-.28-.7-.7l-5.08-12.35a1.34,1.34,0,0,0-1.22-.95h-.42c-.21,0-.25-.1-.25-.31Z"/><path class="cls-1" d="M247.13,14.6a.23.23,0,0,1-.14.31l-.63.28c-.1.07-.21,0-.35-.1l-2-2.1a3,3,0,0,0-2.17-1,1.94,1.94,0,0,0-2.06,1.89c.07,1.23.49,1.58,3.08,2.28,1.71.45,2.55.7,3.6,1.82a3.68,3.68,0,0,1,1.12,3c0,3.12-2.45,5.36-6.26,5.36a8.31,8.31,0,0,1-4.1-1c-.14-.1-.17-.24-.21-.45l-.45-3.36a.26.26,0,0,1,.24-.28l.63-.18c.11,0,.18,0,.25.14l1.4,2.07a3.45,3.45,0,0,0,3,1.78,2,2,0,0,0,2.07-2.13c0-1.4-1-1.86-3.29-2.56-2.49-.73-4.27-1.92-4.27-4.44a4.59,4.59,0,0,1,1.82-4,5.69,5.69,0,0,1,3.85-1.26,8.13,8.13,0,0,1,3.67.73c.53.25.6.42.63.67Z"/></g></g></svg>
