<svg xmlns="http://www.w3.org/2000/svg" width="695" height="154" viewBox="0 0 695 154">
    <g fill="none" fill-rule="evenodd">
        <path fill="#000" d="M608.157 135.69c0 9.016 5.633 15.027 13.522 15.027s13.522-6.01 13.522-15.027v-32.867h.378l33.055 40.76c4.322 5.257 8.078 8.262 12.961 8.262 7.134 0 12.772-5.633 12.772-12.772 0-3.006-.939-6.195-3.383-9.017l-31.739-37.183 24.04-21.411c3.943-3.572 5.26-6.766 5.26-10.71 0-6.011-4.695-12.206-11.46-12.206-3.567 0-7.884 1.689-12.206 5.822L635.2 83.101V19.996c0-9.016-5.633-15.027-13.522-15.027s-13.522 6.01-13.522 15.027V135.69zm-42.072 0c0 9.016 5.634 15.027 13.522 15.027 7.89 0 13.523-6.01 13.523-15.027V19.996c0-9.016-5.634-15.027-13.523-15.027-7.888 0-13.522 6.01-13.522 15.027V135.69zm-60.845-8.639c-14.65 0-21.41-14.272-21.41-27.233s6.572-27.61 21.41-27.61c14.278 0 20.85 14.649 20.85 27.61 0 12.96-6.761 27.233-20.85 27.233zm47.894-60.85c0-6.95 0-17.66-12.96-17.66-6.573 0-12.206 4.694-12.956 11.272-6.011-8.45-15.778-12.395-25.733-12.395-24.794 0-44.7 22.723-44.7 52.4 0 30.427 19.344 52.027 44.7 52.027 10.333 0 18.783-4.322 25.733-12.583 1.877 7.133 5.072 11.455 12.955 11.455 12.961 0 12.961-10.705 12.961-17.655v-66.86zm-141.421 7.134h-6.016c-7.323 0-11.834-4.506-11.834-11.833 0-6.761 5.073-11.834 11.834-11.834h6.016v-16.15c0-9.016 5.628-15.027 13.522-15.027 7.884 0 13.517 6.01 13.517 15.027v16.15h7.7c6.95 0 12.96 3.195 12.96 11.834 0 8.455-6.01 11.833-12.96 11.833h-7.7v62.355c0 9.016-5.633 15.027-13.517 15.027-7.894 0-13.522-6.01-13.522-15.027V73.335z"/>
        <path fill="#D90013" d="M352.922 48.543c-16.717 0-33.994 9.767-33.994 28.172 0 27.8 53.338 26.672 53.338 46.205 0 6.761-7.322 13.523-19.344 13.523-18.033 0-24.04-12.206-31.367-12.206-3.566 0-6.76 3.005-6.76 7.511 0 8.455 16.527 18.967 37.565 18.967 18.595 0 36.434-9.95 36.434-30.8 0-28.927-53.339-27.045-53.339-44.511 0-8.455 8.073-12.583 17.467-12.583 15.777 0 18.594 10.139 25.733 10.139 5.067 0 7.51-3.19 7.51-6.761 0-10.328-19.532-17.656-33.243-17.656zm-147.259 93.533c2.26 6.388 4.888 8.639 9.583 8.639 4.51 0 7.327-2.25 9.394-8.64l21.41-67.426h.373l21.411 67.427c2.072 6.388 4.879 8.639 9.394 8.639 4.695 0 7.323-2.25 9.573-8.64l27.422-79.82c.755-2.44 1.322-4.7 1.322-6.384 0-3.195-2.26-7.328-7.89-7.328-3.576 0-6.95 1.317-9.204 8.455l-21.223 68.178h-.377l-20.845-65.738c-2.255-7.14-3.76-10.895-9.771-10.895-6.011 0-7.512 3.756-9.767 10.895l-20.845 65.738h-.377l-21.222-68.178c-2.256-7.138-5.634-8.455-9.2-8.455-5.639 0-7.89 4.133-7.89 7.328 0 1.684.562 3.944 1.312 6.383l27.417 79.822zM105.931 93.62c.566-15.212 7.888-31.556 28.36-30.8 18.222 0 26.484 16.527 26.484 30.8H105.93zm62.17 12.394c7.135 0 9.201-3 9.201-8.828 0-24.034-15.777-48.644-43.01-48.644-27.984 0-44.894 24.044-44.894 51.089 0 26.483 13.905 51.078 45.832 51.078 19.534 0 40.006-12.385 40.006-20.462 0-4.7-3.006-7.323-6.011-7.323-6.2 0-11.834 13.518-33.806 13.518-18.594 0-29.488-13.334-29.488-30.428h62.17zM0 57.371c0-5.45 3.194-8.828 8.26-8.828 5.078 0 8.267 3.378 8.267 8.828v3.944l.373.373c7.327-9.39 17.66-13.145 27.61-13.145 15.4 0 34.75 9.767 34.75 37.939v55.41c0 5.445-3.194 8.823-8.266 8.823-5.073 0-8.262-3.378-8.262-8.823V87.421c0-17.467-12.21-24.6-23.105-24.6-10.894 0-23.1 7.133-23.1 24.6v54.471c0 5.445-3.19 8.823-8.266 8.823-5.067 0-8.261-3.378-8.261-8.823V57.371z"/>
    </g>
</svg>
