<svg width="256" height="41" viewBox="0 0 256 41" fill="none" xmlns="http://www.w3.org/2000/svg">
<path d="M17.1078 40.1177L9.49196 23.4054L6.72347 17.118V40.1177H0V0.831562H6.30769L13.5686 17.8786L16.1647 24.1355V0.811279H22.7665V40.1177H17.1078Z" fill="#0D0F21"/>
<path d="M37.3997 41C30.5647 41 26.2446 36.5177 26.2446 30.2708V10.6785C26.2446 4.49246 30.5545 0 37.3997 0C44.2449 0 48.5548 4.49246 48.5548 10.6785V30.2708C48.5548 36.5177 44.3057 41 37.3997 41ZM41.1519 10.2221C41.1783 9.71364 41.101 9.2051 40.9247 8.72746C40.7483 8.24981 40.4766 7.81306 40.126 7.44379C39.7755 7.07453 39.3534 6.78047 38.8856 6.57952C38.4178 6.37858 37.9139 6.27495 37.4048 6.27495C36.8956 6.27495 36.3918 6.37858 35.924 6.57952C35.4561 6.78047 35.0341 7.07453 34.6835 7.44379C34.333 7.81306 34.0613 8.24981 33.8849 8.72746C33.7085 9.2051 33.6312 9.71364 33.6577 10.2221V30.7373C33.6312 31.2458 33.7085 31.7543 33.8849 32.232C34.0613 32.7096 34.333 33.1464 34.6835 33.5156C35.0341 33.8849 35.4561 34.179 35.924 34.3799C36.3918 34.5809 36.8956 34.6845 37.4048 34.6845C37.9139 34.6845 38.4178 34.5809 38.8856 34.3799C39.3534 34.179 39.7755 33.8849 40.126 33.5156C40.4766 33.1464 40.7483 32.7096 40.9247 32.232C41.101 31.7543 41.1783 31.2458 41.1519 30.7373V10.2221Z" fill="#0D0F21"/>
<path d="M65.0037 7.32177V40.1177H57.6312V7.32177H50.3804V0.831543H72.2038V7.32177H65.0037Z" fill="#0D0F21"/>
<path d="M74.6177 40.1177V0.831543H93.3785V7.1798H81.9293V16.9151H89.8292V22.6955H81.9192V33.5464H93.3785V40.0873L74.6177 40.1177Z" fill="#0D0F21"/>
<path d="M124.308 40.1177H117.757L113.812 16.9963L109.624 40.1177H103.134L96.167 0.831543H103.428L106.967 26.7925L111.328 0.831543H116.997L121.053 26.7925L124.836 0.831543H131.62L124.308 40.1177Z" fill="#0D0F21"/>
<path d="M144.681 41C137.836 41 133.526 36.5177 133.526 30.2708V10.6785C133.526 4.49246 137.836 0 144.681 0C151.527 0 155.837 4.49246 155.837 10.6785V30.2708C155.826 36.5177 151.577 41 144.681 41ZM148.454 10.2221C148.48 9.71364 148.403 9.2051 148.227 8.72746C148.05 8.24981 147.779 7.81306 147.428 7.44379C147.078 7.07453 146.655 6.78047 146.188 6.57952C145.72 6.37858 145.216 6.27495 144.707 6.27495C144.198 6.27495 143.694 6.37858 143.226 6.57952C142.758 6.78047 142.336 7.07453 141.986 7.44379C141.635 7.81306 141.363 8.24981 141.187 8.72746C141.011 9.2051 140.933 9.71364 140.96 10.2221V30.7373C140.933 31.2458 141.011 31.7543 141.187 32.232C141.363 32.7096 141.635 33.1464 141.986 33.5156C142.336 33.8849 142.758 34.179 143.226 34.3799C143.694 34.5809 144.198 34.6845 144.707 34.6845C145.216 34.6845 145.72 34.5809 146.188 34.3799C146.655 34.179 147.078 33.8849 147.428 33.5156C147.779 33.1464 148.05 32.7096 148.227 32.232C148.403 31.7543 148.48 31.2458 148.454 30.7373V10.2221Z" fill="#0D0F21"/>
<path d="M197.678 7.32177V40.1177H190.306V7.32177H183.055V0.831543H204.878V7.32177H197.678Z" fill="#0D0F21"/>
<path d="M222.341 40.1177V24.0138H214.147V40.1177H206.826V0.831543H214.147V17.4628H222.341V0.831543H229.714V40.1177H222.341Z" fill="#0D0F21"/>
<path d="M246.892 24.0747V40.1177H239.57V24.0747L230.9 0.831543H238.566L243.637 16.8137L248.474 0.831543H255.786L246.892 24.0747Z" fill="#0D0F21"/>
<path d="M167.468 24.0037H171.241C173.127 24.0037 174.131 25.0178 174.131 27.1271V30.6359C174.131 32.4612 174.131 34.6314 174.131 39.4991H181.159C181.159 39.4991 181.159 32.0759 181.159 31.1733V27.6646C181.159 24.3586 179.861 21.9349 176.322 20.9918C179.678 20.2921 180.976 17.7467 180.976 14.39V8.50823C180.976 3.08281 177.68 0.192627 172.306 0.192627H160.035V39.4889H167.377L167.468 24.0037ZM173.999 15.5664C173.999 17.5946 172.985 18.6087 171.109 18.6087H167.458V6.21637H171.403C173.239 6.21637 173.999 7.23047 173.999 9.04571V15.5664Z" fill="#0D0F21"/>
</svg>
