<svg class="masthead__svg" width="179" height="36" enable-background="new -236 252.7 485.3 56.3" version="1.1" viewBox="-236 252.7 485.3 56.3" xml:space="preserve"
    xmlns="http://www.w3.org/2000/svg">
    <g fill="#222">
        <path d="m-235.6 252.7h17.1l29.8 37.7v-25.6c0-2.5-0.7-4.6-2.2-6.1-1.4-1.5-3.5-2.4-6.1-2.5v-3.5h20.1v3.5c-2.8 0.3-4.8 1.1-6 2.5s-1.8 3.4-1.8 6.1v42.9h-4.3l-34-43.4v30c0 3.4 0.8 5.9 2.4 7.5s3.5 2.4 5.9 2.4h0.9v3.5h-22.2v-3.5h1.5c2.2 0 4-0.9 5.5-2.6s2.2-4 2.2-6.7v-35.4c-1.6-2.2-3.7-3.3-6.3-3.3h-2.5v-3.5z"></path>
        <path d="m-146.5 291h-24.4c0.1 4.9 1.1 8.5 3 10.8s4.3 3.5 7.3 3.5c2.1 0 4.1-0.6 6-1.8s3.9-3.3 5.9-6.5l2.7 1.7c-2.1 3.7-4.5 6.4-7.2 8s-6 2.4-9.9 2.4c-5.7 0-10.3-1.7-13.8-5.2s-5.3-7.9-5.3-13.3 1.8-10 5.3-13.6 7.9-5.5 13-5.5c3.6 0 6.6 0.7 9.2 2.2s4.6 3.6 6 6.4c1.4 2.7 2.1 6.4 2.2 10.9zm-24.4-3.4h11.6c1.1 0 1.9-0.3 2.3-0.8s0.7-1.5 0.7-3c0-2.9-0.7-5.1-2-6.7s-3-2.4-5-2.4c-2.4 0-4.2 1.1-5.5 3.2s-1.9 5.4-2.1 9.7z"></path>
        <path d="m-147.8 272.9h18v3.3h-1c-1.1 0-1.9 0.2-2.4 0.5-0.4 0.3-0.7 0.7-0.7 1.2 0 0.3 0.1 0.7 0.3 1.1l7.3 16.1 6.3-15c-1-1.9-1.8-3-2.3-3.3-0.6-0.4-1.7-0.6-3.1-0.6v-3.3h19.4v3.3h-1.2c-1.2 0-2 0.2-2.5 0.5-0.4 0.3-0.7 0.8-0.7 1.3 0 0.6 0.2 1.3 0.5 2l6.9 15 6-14.5c0.1-0.4 0.2-0.9 0.2-1.3 0-0.9-0.3-1.6-0.8-2.2-0.5-0.5-1.2-0.8-2-0.8h-1.4v-3.3h14v3.3c-2.9 0.2-4.9 1.8-6.1 4.8l-11.2 28h-2.8l-10.7-24-9.8 24h-2.8l-13.3-30c-0.5-1.1-1-1.8-1.5-2.1-0.5-0.4-1.3-0.6-2.5-0.6l-0.1-3.4z"></path>
        <path d="m-64.6 273.9 2.4-2.9h2.3l0.7 11.9h-3c-1.6-3.2-3.3-5.4-5.2-6.7s-4.2-1.9-6.9-1.9c-2.3 0-4.1 0.4-5.3 1.3s-1.8 2-1.8 3.4c0 1.3 0.5 2.4 1.4 3.1s3.5 1.5 7.7 2.3c3.8 0.8 6.4 1.4 7.6 1.9 2.4 1 4.3 2.4 5.6 4.3 1.4 1.9 2 4.1 2 6.7 0 3.2-1.3 5.9-3.9 8.1s-6 3.3-10.2 3.3c-2 0-3.9-0.2-5.5-0.7s-3.4-1.3-5.1-2.5l-2.7 3.1h-2.8l-0.7-13.2h3.1c2.6 6.6 7.1 10 13.5 10 2.6 0 4.6-0.5 6-1.5s2.1-2.2 2.1-3.6c0-1.3-0.4-2.3-1.3-2.9-0.9-0.7-3.2-1.4-6.9-2.2-4-0.8-6.8-1.5-8.3-2.1-2.5-1-4.4-2.3-5.7-4s-1.9-3.8-1.9-6.2c0-3.5 1.2-6.3 3.5-8.5s5.4-3.3 9.3-3.3c1.9 0 3.6 0.2 5.1 0.7 1.6 0.3 3.2 1 4.9 2.1z"></path>
        <path d="m-42.4 256.2v-3.5h28.2v3.5h-4.8c-1.4 0-2.3 0.3-2.9 0.8s-0.8 1.4-0.8 2.5v40.9c0 1.7 0.3 2.7 0.8 3.2s1.7 0.7 3.7 0.7h7.9c2.9 0 5.7-1.4 8.3-4.2s4.5-7.3 5.9-13.4h3.3l-1.3 21h-48.4v-3.5h4.8c1.1 0 1.9-0.3 2.4-0.8s0.8-1.3 0.8-2.3v-42c0-1-0.3-1.8-0.8-2.2-0.6-0.5-1.5-0.7-2.9-0.7h-4.2z"></path>
        <path d="m44.7 290.5h-24.4c0.1 4.9 1.1 8.5 3 10.8s4.3 3.5 7.3 3.5c2.1 0 4.1-0.6 6-1.8s3.9-3.3 5.9-6.5l2.7 1.7c-2.1 3.7-4.5 6.4-7.2 8s-6 2.4-9.9 2.4c-5.7 0-10.3-1.7-13.8-5.2s-5.3-7.9-5.3-13.3 1.8-10 5.3-13.6 7.9-5.5 13-5.5c3.6 0 6.6 0.7 9.2 2.2s4.6 3.6 6 6.4c1.3 2.8 2.1 6.4 2.2 10.9zm-24.4-3.4h11.6c1.1 0 1.9-0.3 2.3-0.8 0.5-0.5 0.7-1.5 0.7-3 0-2.9-0.7-5.1-2-6.7s-3-2.4-5-2.4c-2.4 0-4.2 1.1-5.5 3.2-1.2 2.2-1.9 5.4-2.1 9.7z"></path>
        <path d="m57.1 258.6h3.3v14.3h11.5v4h-11.5v22.1c0 1.5 0.4 2.6 1.1 3.4s1.7 1.2 2.9 1.2c3.5 0 5.3-3.2 5.5-9.7h3.3c-0.1 3.4-0.6 6.2-1.6 8.3s-2.5 3.7-4.4 4.9c-1.9 1.1-4 1.7-6.4 1.7-2.1 0-3.9-0.4-5.4-1.3-1.5-0.8-2.7-2.1-3.6-3.8s-1.4-3.5-1.4-5.4v-21.4h-6.2v-3.4c3.8-0.5 6.7-1.9 8.8-4.3 2.2-2.5 3.5-6 4.1-10.6z"></path>
        <path d="m87.1 258.6h3.3v14.3h11.5v4h-11.5v22.1c0 1.5 0.4 2.6 1.1 3.4s1.7 1.2 2.9 1.2c3.5 0 5.3-3.2 5.5-9.7h3.3c-0.1 3.4-0.6 6.2-1.6 8.3s-2.5 3.7-4.4 4.9c-1.9 1.1-4 1.7-6.4 1.7-2.1 0-3.9-0.4-5.4-1.3-1.5-0.8-2.7-2.1-3.6-3.8s-1.4-3.5-1.4-5.4v-21.4h-6.2v-3.4c3.8-0.5 6.7-1.9 8.8-4.3 2.3-2.5 3.6-6 4.1-10.6z"></path>
        <path d="m140.7 290.5h-24.4c0.1 4.9 1.1 8.5 3 10.8s4.3 3.5 7.3 3.5c2.1 0 4.1-0.6 6-1.8s3.9-3.3 5.9-6.5l2.7 1.7c-2.1 3.7-4.5 6.4-7.2 8s-6 2.4-9.9 2.4c-5.7 0-10.3-1.7-13.8-5.2s-5.3-7.9-5.3-13.3 1.8-10 5.3-13.6 7.9-5.5 13-5.5c3.6 0 6.6 0.7 9.2 2.2s4.6 3.6 6 6.4c1.3 2.8 2.1 6.4 2.2 10.9zm-24.4-3.4h11.6c1.1 0 1.9-0.3 2.3-0.8s0.7-1.5 0.7-3c0-2.9-0.7-5.1-2-6.7s-3-2.4-5-2.4c-2.4 0-4.2 1.1-5.5 3.2s-1.9 5.4-2.1 9.7z"></path>
        <path d="m164.2 304.2v3.5h-24.3v-3.5h3c1.2 0 2.1-0.2 2.7-0.7s0.9-1.1 0.9-2v-20.5c0-1.7-0.4-2.9-1.1-3.6-0.8-0.8-1.8-1.2-3.2-1.2h-2v-3.3l14.9-0.8v11.3c0.9-3.8 2.4-6.7 4.5-8.7 2.2-2 4.6-3 7.3-3 2.3 0 4.1 0.6 5.5 1.8 1.3 1.2 2 2.8 2 4.7 0 1.7-0.5 3-1.4 4s-2.1 1.5-3.4 1.5c-1.2 0-2.2-0.4-3.1-1.3s-1.3-2-1.3-3.4c0-0.8 0.2-1.6 0.6-2.4 0.2-0.5 0.3-0.8 0.3-1 0-0.3-0.1-0.6-0.2-0.8-0.2-0.2-0.4-0.2-0.8-0.2-0.9 0-1.9 0.5-2.9 1.6-1.6 1.6-3 4.1-4.1 7.5s-1.7 6.8-1.7 10.3v7.5c0 0.9 0.2 1.5 0.7 2s1.1 0.7 2 0.7h5.1z"></path>
    </g>
    <g fill="#282C71">
        <path d="m221.2 302.1v-3.8s-0.1 0-0.4 0-0.4 0-0.4 0 0.5 1.3 0.4 4-0.5 3.7-0.9 4l-0.9 0.9c-0.1 0 0.7-0.1 0.9-0.2 0.2-0.2 0.4-0.3 0.4-0.3l0.1 1 0.4-0.9s0.1 0.1 0.3 0.4 0.8 0.5 0.8 0.5-0.4-0.8-0.7-1.4c-0.2-0.6-0.1-2.4 0-4.2z"></path>
        <path d="m222.4 305.5c-0.3-0.5-0.3-2.6-0.3-3.2 0-1.1 0.2-4.1 0.2-4.1s-0.3 0.1-0.5 0.1-0.3 0-0.3 0-0.1 5.6 0.2 7.1c0.1 0.6 0.5 1.2 0.9 1.7 0.4 0.4 0.9 0.6 0.9 0.6s-0.1-0.2-0.2-0.5c-0.1-0.2-0.1-0.5-0.1-0.5s0.4 0.2 0.6 0.2 0.6 0.1 0.6 0.1 0 0-0.2-0.1-0.4-0.4-0.4-0.4 0.2 0 0.6 0 0.7-0.1 0.7-0.1-0.2 0-0.4-0.1-2.1-0.6-2.3-0.8z"></path>
        <path d="m218.5 259.1c0 1-0.7 1.9-1.5 1.9s-1.5-0.8-1.5-1.9c0-1 0.7-1.9 1.5-1.9s1.5 0.9 1.5 1.9zm-1.5-0.3c-0.5 0-0.9 0.4-0.9 0.9s0.4 1 0.9 1 0.9-0.4 0.9-0.9-0.4-1-0.9-1z"></path>
        <path d="m224.7 259.7c-0.3 1-1.2 1.6-2 1.3-0.8-0.2-1.2-1.2-0.9-2.2s1.2-1.6 2-1.3c0.8 0.2 1.2 1.2 0.9 2.2zm-1.3-0.8c-0.5-0.2-1 0.1-1.2 0.6s0.1 1 0.6 1.2 1-0.1 1.2-0.6c0.1-0.5-0.1-1-0.6-1.2z"></path>
        <path d="m230.6 262c-0.6 0.9-1.6 1.2-2.3 0.7s-0.8-1.5-0.2-2.4 1.6-1.2 2.3-0.7 0.8 1.5 0.2 2.4zm-2.4-0.9c-0.3 0.4-0.2 1 0.3 1.3 0.4 0.3 1 0.2 1.3-0.3s0.2-1-0.3-1.3c-0.4-0.2-1-0.1-1.3 0.3z"></path>
        <path d="m236 263.4c0.5 0.7 0.3 1.7-0.5 2.4-0.8 0.6-1.9 0.6-2.4 0-0.5-0.7-0.3-1.7 0.5-2.4 0.8-0.6 1.9-0.6 2.4 0zm-2.5 0.9c-0.4 0.3-0.5 0.9-0.1 1.3 0.3 0.4 0.9 0.5 1.3 0.1 0.4-0.3 0.5-0.9 0.1-1.3s-0.9-0.4-1.3-0.1z"></path>
        <path d="m239.7 270.5c-0.9 0.5-2 0.4-2.4-0.3s-0.1-1.7 0.8-2.3c0.9-0.5 2-0.4 2.4 0.3s0.1 1.7-0.8 2.3zm-1.8-1.8c-0.4 0.3-0.6 0.8-0.3 1.3 0.3 0.4 0.8 0.6 1.3 0.3 0.4-0.3 0.6-0.8 0.3-1.3-0.3-0.4-0.9-0.6-1.3-0.3z"></path>
        <path d="m242.3 276.3c-1 0.3-2-0.2-2.2-1s0.4-1.7 1.4-2 2 0.2 2.2 1c0.2 0.9-0.4 1.7-1.4 2zm-0.1-1.5c-0.1-0.5-0.7-0.8-1.1-0.7-0.5 0.1-0.8 0.7-0.7 1.1 0.1 0.5 0.7 0.8 1.1 0.7 0.5-0.1 0.8-0.6 0.7-1.1z"></path>
        <path d="m245.2 281.6c0.1 0.8-0.7 1.6-1.7 1.7s-1.9-0.5-2-1.3 0.7-1.6 1.7-1.7c1-0.2 1.9 0.4 2 1.3zm-2.6-0.7c-0.5 0-0.9 0.5-0.8 1 0 0.5 0.5 0.9 1 0.8 0.5 0 0.9-0.5 0.8-1 0-0.5-0.5-0.9-1-0.8z"></path>
        <path d="m212.1 259.9c0.3 1-0.1 2-0.9 2.2s-1.7-0.4-2-1.3c-0.3-1 0.1-2 0.9-2.2 0.8-0.3 1.7 0.3 2 1.3zm-1.5 0.1c-0.5 0.2-0.8 0.7-0.6 1.2s0.7 0.8 1.2 0.6 0.8-0.7 0.6-1.2c-0.2-0.4-0.8-0.7-1.2-0.6z"></path>
        <path d="m206.7 262.2c0.6 0.9 0.5 1.9-0.2 2.4s-1.7 0.2-2.3-0.7-0.5-1.9 0.2-2.4 1.7-0.1 2.3 0.7zm-1.5 0.6c-0.4 0.3-0.5 0.9-0.3 1.3 0.3 0.4 0.9 0.5 1.3 0.3 0.4-0.3 0.5-0.9 0.3-1.3-0.3-0.5-0.8-0.6-1.3-0.3z"></path>
        <path d="m202.2 268.5c-0.5 0.7-1.6 0.7-2.4 0-0.8-0.6-1-1.7-0.5-2.4s1.6-0.7 2.4 0 1 1.8 0.5 2.4zm-1.7-1.3c-0.3 0.4-0.3 1 0.1 1.3s1 0.3 1.3-0.1 0.3-1-0.1-1.3c-0.4-0.4-1-0.4-1.3 0.1z"></path>
        <path d="m199.2 273.4c-0.3 0.8-1.4 1-2.3 0.6s-1.4-1.4-1.1-2.2 1.4-1 2.3-0.6c0.9 0.5 1.4 1.5 1.1 2.2zm-0.8-1.3c-0.5-0.2-1 0-1.2 0.5s0 1 0.5 1.2 1 0 1.2-0.5c0.2-0.4 0-1-0.5-1.2z"></path>
        <path d="m197.6 278.7c-0.1 0.8-1 1.4-2 1.3s-1.8-0.9-1.7-1.7 1-1.4 2-1.3 1.8 0.9 1.7 1.7zm-1.1-1.1c-0.5-0.1-1 0.3-1 0.8-0.1 0.5 0.3 1 0.8 1 0.5 0.1 1-0.3 1-0.8 0-0.4-0.3-0.9-0.8-1z"></path>
        <path d="m197.3 284.4c0.2 0.8-0.4 1.7-1.4 1.9-1 0.3-2-0.2-2.2-1s0.4-1.7 1.4-1.9 2 0.2 2.2 1zm-1.5-0.6c-0.5 0.1-0.8 0.6-0.7 1.1s0.6 0.8 1.1 0.7 0.8-0.6 0.7-1.1-0.6-0.8-1.1-0.7z"></path>
        <path d="m230 291.7c0.2-1.6 0-2.3-0.5-3.8-0.4-1.1-1.1-2-1.7-2.6-0.2-0.3-0.5-0.5-0.6-0.8-0.4-0.7-0.9-2.9-0.8-4.4v-0.4c0-1.3 0.1-2.4-0.4-3.4-0.5-1.1-1.3-1.7-1.3-1.7-0.1 0-0.1-0.1-0.1-0.2s0-0.2 0.1-0.2c0.2-0.2 0.6-0.6 1.4-0.7h0.7c-0.2 0-0.4-0.1-0.6-0.1-0.8 0-1.8 0.6-1.8 0.6-0.1 0.1-0.3 0-0.3-0.1-0.1-0.1-0.1-0.2 0-0.4 0 0 0.3-0.5 0.7-0.8-0.7 0.3-1.4 0.7-1.4 0.7-0.1 0.1-0.2 0-0.3 0s-0.1-0.1-0.1-0.2 0-0.2 0.3-0.6c0-0.1 0.1-0.1 0.2-0.2 0 0-0.1 0-0.1 0.1-0.7 0.5-1.3 1.1-1.7 1.6-0.6 0.8-0.8 1.7-0.8 2.4 0.2-0.2 0.4-0.4 0.7-0.5 0.4-0.1 0.8-0.1 1.1 0.2 0.5 0.4 0.7 1.2 0.6 1.9-0.1 0.6-0.3 1-0.6 1.6-0.3 0.5-0.6 1.1-0.8 2-0.5 1.7 0.2 4.5 0.2 4.5 0 0.1 0 0.3-0.1 0.3 0 0-2.3 1.3-4.6 3.4-2.2 2.1-3.8 6.3-3.8 6.4-0.4 1.1-0.9 2.9-0.9 4.4-0.1 2.5 1.2 3.8 1.2 3.8s0-3.6 1-4.8 2.9-2.2 4.1-2c0.7 0.1 1.4 0.1 1.9 0 2.5-0.1 4.6-0.8 5.9-1.4 1.9-1 3-2.7 3.2-4.6z"></path>
        <path d="m247.2 277c0.3-0.7 0.5-1.5 0.5-2.3 0-2.1-1.3-3.9-3.1-4.7 0.1-0.4 0.1-0.8 0.1-1.2 0-2.6-1.9-4.7-4.4-5.1-0.1-2.8-2.3-5-5.1-5h-0.6c-0.7-2-2.6-3.5-4.9-3.5-0.7 0-1.3 0.1-1.9 0.4-0.9-1.4-2.5-2.4-4.3-2.4-1.2 0-2.2 0.4-3.1 1-0.9-0.8-2.1-1.4-3.5-1.4-1.6 0-3.1 0.8-4 1.9-0.7-0.4-1.6-0.6-2.4-0.6-2.1 0-3.9 1.3-4.7 3.1-0.3-0.1-0.7-0.1-1.1-0.1-2.6 0-4.7 1.9-5.1 4.4-2.8 0.1-5 2.3-5 5.1v0.6c-2.1 0.7-3.6 2.6-3.6 4.9 0 0.7 0.1 1.3 0.4 1.9-1.4 0.9-2.3 2.5-2.3 4.3 0 1.1 0.4 2.2 1 3-0.9 0.9-1.4 2.2-1.4 3.6 0 2.8 2.3 5.1 5.1 5.1 0.6 0 1.2-0.1 1.7-0.3l9.1-1.3s1.9 2.7 4.6 4.9c1 0.8 2.4 1.7 3.5 2.4 0.5-1.2 1.9-4.4 3.8-6.2 2-1.9 4-3 4.6-3.4-0.1-0.7-0.5-3.1-0.1-4.6 0.3-0.9 0.6-1.5 0.9-2.1 0.3-0.5 0.5-0.9 0.5-1.4 0.1-0.7-0.1-1.2-0.4-1.4-0.2-0.1-0.3-0.2-0.5-0.1-0.6 0.3-0.9 1-0.9 1.1s-0.1 0.2-0.3 0.2c-0.1 0-0.2-0.1-0.3-0.2 0-0.1-0.4-2.2 0.9-3.8 0.5-0.6 1.1-1.3 1.9-1.8 1-0.7 2.1-1.1 2.2-1.1s0.3 0 0.3 0.1c0.1 0.1 0 0.3-0.1 0.4-0.2 0.2-0.7 0.6-1.2 1 0.4-0.2 0.8-0.3 1.1-0.4 0.7-0.2 2 0 2 0 0.1 0 0.2 0.1 0.2 0.3 0 0.1-0.1 0.3-0.2 0.3 0 0-0.9 0.2-1.6 0.4h0.3c1.6 0 2.5 1 2.6 1 0.1 0.1 0.1 0.2 0 0.3s-0.2 0.2-0.3 0.1c0 0-1.3-0.4-2.3-0.3-0.4 0.1-0.7 0.2-0.8 0.3 0.3 0.3 0.9 0.8 1.2 1.7 0.5 1.1 0.5 2.3 0.4 3.6v0.4c0 1.5 0.4 3.5 0.7 4.1 0.1 0.2 0.3 0.4 0.6 0.7 0.6 0.7 1.4 1.6 1.8 2.8 0.6 1.6 0.8 2.4 0.6 4l0.1-0.1c0.8-1.5 1.2-2.8 1.2-2.8l4.7-1.9s5.5 0.1 7.6-0.3c1.7-0.3 2.8-0.8 3.6-1.9 0.9-0.9 1.5-2.2 1.5-3.6 0.3-1.7-0.5-3.2-1.8-4.1zm-51.9 10.2c-1.7 0.4-3.3-0.2-3.6-1.4s0.8-2.5 2.5-2.9 3.3 0.2 3.6 1.4-0.8 2.5-2.5 2.9zm-0.5-6.6c-1.7-0.2-3-1.3-2.8-2.6 0.1-1.2 1.6-2 3.4-1.8 1.7 0.2 3 1.3 2.8 2.6-0.2 1.2-1.7 2-3.4 1.8zm4.9-6.9c-0.5 1.1-2.2 1.4-3.8 0.7s-2.4-2.2-1.9-3.3 2.2-1.4 3.8-0.7c1.5 0.7 2.4 2.2 1.9 3.3zm2.9-4.8c-0.8 0.9-2.5 0.8-3.8-0.2-1.3-1.1-1.8-2.7-1-3.7 0.8-0.9 2.5-0.8 3.8 0.2s1.8 2.7 1 3.7zm4.2-3.8c-1 0.7-2.6 0.1-3.6-1.4-1-1.4-0.9-3.1 0.1-3.8s2.6-0.1 3.6 1.3c0.9 1.5 0.9 3.2-0.1 3.9zm4.6-2.5c-1.2 0.4-2.5-0.7-3-2.3s0-3.3 1.2-3.6c1.2-0.4 2.5 0.7 3 2.3 0.5 1.7-0.1 3.3-1.2 3.6zm5.6-1c-1.2 0-2.2-1.4-2.2-3.1s1-3.1 2.2-3.1 2.2 1.4 2.2 3.1-1 3.1-2.2 3.1zm8.6-2.4c-0.5 1.6-1.9 2.7-3 2.3-1.2-0.4-1.7-2-1.2-3.6s1.9-2.7 3-2.3c1.2 0.3 1.7 2 1.2 3.6zm6 2.6c-1 1.4-2.6 2-3.6 1.4-1-0.7-1.1-2.4-0.1-3.8s2.6-2 3.6-1.4 1.1 2.4 0.1 3.8zm4.9 4.1c-1.3 1.1-3 1.2-3.8 0.2-0.8-0.9-0.3-2.6 1-3.7s3-1.2 3.8-0.2 0.3 2.6-1 3.7zm0.3 4.5c-0.6-1 0-2.6 1.5-3.5s3.2-0.8 3.8 0.2 0 2.6-1.5 3.5c-1.4 1-3.1 0.9-3.8-0.2zm2.8 5.1c-0.3-1.2 0.8-2.5 2.4-3 1.7-0.5 3.3 0.1 3.6 1.3s-0.8 2.5-2.4 3c-1.7 0.5-3.3-0.1-3.6-1.3zm4.6 8.4c-1.7 0.2-3.2-0.7-3.3-1.9s1.2-2.3 2.9-2.5 3.2 0.7 3.3 1.9c0.2 1.2-1.1 2.3-2.9 2.5z"></path>
    </g>
</svg>