<?xml version="1.0" encoding="UTF-8"?><svg id="b" xmlns="http://www.w3.org/2000/svg" width="762.887" height="291.816" viewBox="0 0 762.887 291.816"><g id="c"><g><polygon points="29.314 237.584 762.658 237.584 733.344 291.816 0 291.816 29.314 237.584" style="fill:#eb2126;"/><path d="M267.15,171.737c9.682,0,17.508-2.141,23.472-6.428,5.964-4.283,8.942-12.201,8.942-23.753,0-5.774-.793-10.574-2.372-14.391-1.586-3.818-3.732-6.891-6.427-9.222-2.705-2.329-5.917-3.958-9.645-4.891-3.725-.933-7.822-1.397-12.29-1.397h-17.328v60.082h15.649Zm-4.191-88.027c11.178,0,19.324-1.998,24.448-6.008,5.128-4.005,7.686-10.758,7.686-20.261s-2.328-16.205-6.986-20.12c-4.657-3.91-12.013-5.867-22.075-5.867h-14.529v52.257h11.457ZM278.608,1.833c8.195,0,15.788,.838,22.775,2.516,6.983,1.676,12.993,4.471,18.021,8.382,5.034,3.913,8.945,9.131,11.74,15.649,2.795,6.523,4.192,14.533,4.192,24.033,0,10.808-2.516,20.076-7.546,27.805-5.028,7.733-12.577,12.996-22.636,15.788v.56c11.178,1.494,20.023,6.245,26.55,14.253,6.52,8.011,9.778,18.722,9.778,32.137,0,7.824-1.025,15.275-3.071,22.355-2.053,7.082-5.547,13.275-10.482,18.584-4.938,5.307-11.364,9.546-19.28,12.711-7.922,3.172-17.744,4.751-29.484,4.751h-67.903V1.833h67.346Z" style="fill:#eb2126;"/><path d="M449.907,126.187l-19.28-89.704h-.56l-19.28,89.704h39.12ZM455.218,1.833l52.817,199.523h-41.918l-9.22-42.193h-53.099l-9.219,42.193h-41.919L405.476,1.833h49.741Z" style="fill:#eb2126;"/><polygon points="522.004 1.833 562.247 1.833 562.247 168.381 633.507 168.381 633.507 201.355 522.004 201.355 522.004 1.833" style="fill:#eb2126;"/><polygon points="651.387 1.833 691.627 1.833 691.627 168.381 762.887 168.381 762.887 201.355 651.387 201.355 651.387 1.833" style="fill:#eb2126;"/><path d="M24.614,64.609c.305,4.408,.916,7.986,1.831,10.736,.918,2.751,2.225,4.757,3.93,6.022,1.701,1.265,3.943,1.899,6.743,1.899s5.038-.633,6.743-1.899c1.698-1.265,3.008-3.272,3.923-6.022,.915-2.751,1.527-6.328,1.834-10.736,.301-4.406,.455-9.753,.455-16.037s-.153-11.607-.455-15.973c-.307-4.363-.919-7.942-1.834-10.736-.915-2.792-2.225-4.82-3.923-6.088-1.705-1.264-3.95-1.897-6.743-1.897s-5.043,.633-6.743,1.897c-1.705,1.268-3.012,3.296-3.93,6.088-.915,2.794-1.526,6.373-1.831,10.736-.308,4.366-.462,9.687-.462,15.973s.153,11.63,.462,16.037M6.282,29.001c.653-5.982,2.096-11.108,4.322-15.386,2.225-4.274,5.433-7.613,9.623-10.015C24.419,1.201,30.044,0,37.119,0s12.696,1.201,16.885,3.6c4.186,2.403,7.397,5.741,9.623,10.015,2.225,4.278,3.664,9.404,4.318,15.386,.656,5.979,.981,12.502,.981,19.572,0,7.158-.325,13.703-.981,19.639-.654,5.934-2.093,11.04-4.318,15.315-2.226,4.279-5.437,7.551-9.623,9.821-4.189,2.27-9.82,3.404-16.885,3.404s-12.7-1.134-16.893-3.404c-4.19-2.27-7.398-5.541-9.623-9.821-2.225-4.275-3.668-9.381-4.322-15.315-.653-5.936-.979-12.481-.979-19.639,0-7.07,.326-13.593,.979-19.572" style="fill:#eb2126;"/><polygon points="132.296 1.833 132.296 17.28 98.908 17.28 98.908 39.275 130.329 39.275 130.329 54.725 98.908 54.725 98.908 95.308 80.059 95.308 80.059 1.833 132.296 1.833" style="fill:#eb2126;"/><polygon points="192.912 1.833 192.912 17.28 159.525 17.28 159.525 39.275 190.949 39.275 190.949 54.725 159.525 54.725 159.525 95.308 140.671 95.308 140.671 1.833 192.912 1.833" style="fill:#eb2126;"/><polygon points="59.7 123.329 39.274 123.329 39.274 201.356 20.421 201.356 20.421 123.329 0 123.329 0 107.878 59.7 107.878 59.7 123.329" style="fill:#eb2126;"/><polygon points="86.67 107.878 86.67 143.62 108.663 143.62 108.663 107.878 127.517 107.878 127.517 201.356 108.663 201.356 108.663 159.855 86.67 159.855 86.67 201.356 67.817 201.356 67.817 107.878 86.67 107.878" style="fill:#eb2126;"/><polygon points="192.849 123.329 159.461 123.329 159.461 145.32 190.886 145.32 190.886 160.772 159.461 160.772 159.461 185.907 194.156 185.907 194.156 201.356 140.608 201.356 140.608 107.878 192.849 107.878 192.849 123.329" style="fill:#eb2126;"/></g></g></svg>