<?xml version="1.0" encoding="utf-8"?>
<!-- Generator: Adobe Illustrator 23.0.4, SVG Export Plug-In . SVG Version: 6.00 Build 0)  -->
<svg version="1.1" id="Layer_1" xmlns="http://www.w3.org/2000/svg" xmlns:xlink="http://www.w3.org/1999/xlink" x="0px" y="0px"
	 viewBox="0 0 928.8 169.1" style="enable-background:new 0 0 928.8 169.1;" xml:space="preserve">
<style type="text/css">
	.st0{fill:#FFFFFF;}
</style>
<g>
	<g>
		<polygon class="st0" points="37.4,113.6 51.9,113.6 51.9,50.3 37.4,50.3 37.4,34.1 91.4,34.1 91.4,50.3 76.9,50.3 76.9,113.6 
			91.4,113.6 91.4,129.8 37.4,129.8 		"/>
		<path class="st0" d="M141.3,129.8h-47v-15.4h12.4v-36H95.5V63.1h30.6V80h0.3c3.9-11.6,12.3-17.9,23.3-17.9h3.1v20.2h-2.5
			c-17.2,0-21.9,11.6-21.9,25.1v7.1h13v15.3H141.3z"/>
		<path class="st0" d="M155.6,63.1h31.3v51.3h9.7v15.4h-41v-15.4h9.7v-36h-9.7V63.1z M188,44.1c0,6.5-5.2,11.7-11.7,11.7
			s-11.6-5.2-11.6-11.7s5.1-11.6,11.6-11.6S188,37.6,188,44.1"/>
		<path class="st0" d="M200.5,106.9H216c0.1,3.1,1.1,5.1,4.2,7.5c2.7,2,6.2,2.8,10.6,2.8c6.5,0,10.9-2.5,10.9-6.5
			c0-9.7-25.2-3.2-38.8-16.8c-2.8-2.8-4.9-7.2-4.9-12.1c0-11.4,10.3-19.6,24.7-19.6c6.1,0,11.7,1.1,16.8,3.2v-2.3h15.2v19.3h-15.2
			c-1.3-4.7-6.1-6.9-14.5-6.9c-5.6,0-9.2,2.1-9.2,5.1c0,9.3,43.4,0.4,43.4,28.1c0,13-9,22.4-26.2,22.4c-9.6,0-13.8-1.7-16.9-4.7v3.4
			h-15.5v-22.9H200.5z"/>
		<path class="st0" d="M260.3,114.5h10.3v-65h-10.3V34.1h31.9v34.4c8-5.4,12.3-6.9,18.9-6.9c13.8,0,20.7,9.6,20.7,20.9v32h9.7v15.4
			h-31.3V87.1c0-5.8-2-8-6.8-8c-3.5,0-6.5,1.1-11.3,4.1v31.3h9.7v15.4h-41.6L260.3,114.5L260.3,114.5z"/>
		<path class="st0" d="M429.1,129.8h-50.2v-16.2h12V50.3h-12V34.1h54.4c20,0,32.6,13.5,32.6,30.5c0,16.5-10.6,30.5-34.5,30.5h-15.5
			v18.6h13.3L429.1,129.8L429.1,129.8z M422.8,78.8c11.4,0,16.6-4.7,16.6-14.1c0-8.9-5.9-14.4-14-14.4h-9.6v28.5H422.8z"/>
		<path class="st0" d="M499.2,131.4c-19.7,0-35-12.8-35-35c0-23.4,16.9-34.8,35-34.8c19.5,0,35.1,12.4,35.1,34.8
			C534.3,117.4,520.1,131.4,499.2,131.4 M499.2,78.1c-8.5,0-13.1,6.8-13.1,18.8c0,11.3,4.9,18,13.1,18c8.5,0,13.3-6.8,13.3-18.5
			C512.5,84.9,507.7,78.1,499.2,78.1"/>
		<path class="st0" d="M540.1,106.9h15.5c0.1,3.1,1.1,5.1,4.2,7.5c2.7,2,6.2,2.8,10.6,2.8c6.5,0,10.9-2.5,10.9-6.5
			c0-9.7-25.2-3.2-38.8-16.8c-2.8-2.8-4.9-7.2-4.9-12.1c0-11.4,10.3-19.6,24.7-19.6c6.1,0,11.7,1.1,16.8,3.2v-2.3h15.2v19.3H579
			c-1.3-4.7-6.1-6.9-14.5-6.9c-5.6,0-9.2,2.1-9.2,5.1c0,9.3,43.4,0.4,43.4,28.1c0,13-9,22.4-26.2,22.4c-9.6,0-13.8-1.7-16.9-4.7v3.4
			h-15.5V106.9z"/>
		<path class="st0" d="M599.5,63.1h8.5V52.7l21.6-15.2v25.7h12v15.4h-12v28.9c0,5.8,1,6.9,5.5,6.9c2.3,0,3.5-0.3,6.5-1.3v14.4
			c-5.4,2.3-10.7,3.4-15.9,3.4c-8.5,0-17.6-4.1-17.6-15.9V78.5h-8.5L599.5,63.1L599.5,63.1z"/>
		<polygon class="st0" points="110.3,40.7 107.4,40.7 107.4,36.9 105,36.9 105,47.6 107.4,47.6 107.4,50.4 98.3,50.4 98.3,47.6 
			100.8,47.6 100.8,36.9 98.3,36.9 98.3,40.7 95.5,40.7 95.5,34.1 110.3,34.1 		"/>
		<polygon class="st0" points="111.7,47.6 113.7,47.6 113.7,36.9 111.7,36.9 111.7,34.1 119.6,34.1 119.6,36.9 117.9,36.9 
			117.9,40.4 122.4,40.4 122.4,36.9 120.7,36.9 120.7,34.1 128.5,34.1 128.5,36.9 126.6,36.9 126.6,47.6 128.5,47.6 128.5,50.4 
			120.7,50.4 120.7,47.6 122.4,47.6 122.4,43.2 117.9,43.2 117.9,47.6 119.6,47.6 119.6,50.4 111.7,50.4 		"/>
		<polygon class="st0" points="130.1,47.6 132,47.6 132,36.9 130.1,36.9 130.1,34.1 144.4,34.1 144.4,39.3 141.3,39.3 141.3,36.9 
			136.2,36.9 136.2,40.6 140.3,40.6 140.3,43.4 136.2,43.4 136.2,47.6 141.3,47.6 141.3,45.2 144.4,45.2 144.4,50.4 130.1,50.4 		
			"/>
	</g>
	<g>
		<path class="st0" d="M681,63h21.1v5.7h-15.2v6.5h8.9v5.7h-8.9v7.5H703v5.7h-22V63z"/>
		<path class="st0" d="M706.8,86l5.4-2c1.3,2.9,3.8,4.9,6.8,4.9s5-1.3,5-3.8c0-2.6-2.9-3.6-6.3-4.7c-4.5-1.5-9.7-3.2-9.7-9.4
			c0-4.6,3.8-8.5,10.5-8.5c5.5,0,9.1,3.1,10.3,7.2l-5.3,1.8c-0.8-1.9-2.4-3.3-5.3-3.3c-2.6,0-4.1,1.1-4.1,3s2.6,2.8,5.6,3.8
			c4.6,1.5,10.4,3.5,10.4,10.2c0,6-4.9,9.4-11.2,9.4C712.9,94.5,708.5,91.2,706.8,86z"/>
		<path class="st0" d="M748.5,93.9h-6V68.7h-8.8V63h23.6v5.7h-8.8V93.9z"/>
		<path class="st0" d="M770.7,79.8c0-2,1.6-3.7,3.7-3.7c2.1,0,3.8,1.6,3.8,3.7s-1.6,3.6-3.8,3.6S770.7,81.9,770.7,79.8z"/>
		<path class="st0" d="M796,71h-4.7v-4.7c3,0,5.1-0.8,5.9-3.3h4.8v30.9h-6V71z"/>
		<path class="st0" d="M815.1,88.8c4.4-0.1,9-1.8,10.6-8c-1.1,0.9-2.9,1.7-5.3,1.7c-6.1,0-10.4-3.7-10.4-10c0-6.1,4.6-9.9,11.2-9.9
			c7.7,0,11.1,5.1,11.1,12c0,11.9-5.4,19.7-17.3,20v-5.8C815,88.8,815.1,88.8,815.1,88.8z M826.5,72.4c0-2.6-2-4.3-5.2-4.3
			s-5.2,1.7-5.2,4.3c0,2.9,2,4.4,5.2,4.4S826.5,75.2,826.5,72.4z"/>
		<path class="st0" d="M850.5,68.7h-14.4V63h21.3v5.3c-6.5,7.3-8.9,19.1-8.9,25.7h-6C842.6,83.7,845.2,76.2,850.5,68.7z"/>
		<path class="st0" d="M862.3,78.5c0-7.6,2.5-16,11.4-16s11.4,8.3,11.4,16c0,7.6-2.5,16-11.4,16S862.3,86.1,862.3,78.5z M879.1,78.5
			c0-5.2-1.2-10.3-5.4-10.3s-5.4,5.2-5.4,10.3c0,5.2,1.2,10.3,5.4,10.3S879.1,83.6,879.1,78.5z"/>
	</g>
	<g>
		<path class="st0" d="M889.4,102.9v3H676.6v-3H889.4z"/>
	</g>
</g>
<g>
	<path class="st0" d="M676.1,122.5c0-3.5,1.7-8,6.5-8c3,0,4.8,1.7,5.5,3.5l-2.7,1.2c-0.8-1.2-1.5-1.8-2.9-1.8
		c-2.6,0-3.4,2.8-3.4,5.1c0,2.4,1,5.1,3.4,5.1c1.3,0,2.1-0.8,2.8-2l2.7,1c-1,2.3-2.7,3.8-5.5,3.8
		C677.7,130.4,676.1,126.3,676.1,122.5z"/>
	<path class="st0" d="M690,124.5c0-3.6,2.1-5.9,5.3-5.9c2.8,0,5,1.7,5,5.3c0,0.4,0,1.1-0.1,1.7h-7.4c0.1,1.5,1.2,2.3,2.5,2.3
		c1,0,1.8-0.4,2.4-1.2l1.8,1.8c-1,1.1-2.3,1.9-4.2,1.9C692,130.5,690,128.3,690,124.5z M697.5,123.2c-0.2-1.3-1-2.1-2.2-2.1
		c-1.3,0-2.3,0.7-2.4,2.1H697.5z"/>
	<path class="st0" d="M703,115.6l2.9-1.3v16H703V115.6z"/>
	<path class="st0" d="M708.8,124.5c0-3.6,2.1-5.9,5.3-5.9c2.8,0,5,1.7,5,5.3c0,0.4,0,1.1-0.1,1.7h-7.4c0.1,1.5,1.2,2.3,2.5,2.3
		c1,0,1.8-0.4,2.4-1.2l1.8,1.8c-1,1.1-2.3,1.9-4.2,1.9C710.8,130.5,708.8,128.3,708.8,124.5z M716.3,123.2c-0.2-1.3-1-2.1-2.2-2.1
		c-1.3,0-2.3,0.7-2.4,2.1H716.3z"/>
	<path class="st0" d="M724.6,129.4v0.8h-2.9v-14.7l2.9-1.3v5.5c0.5-0.6,1.3-1.1,2.4-1.1c2.7,0,4.7,2.3,4.7,5.9
		c0,3.8-1.9,5.9-4.8,5.9C725.8,130.5,725.1,130.1,724.6,129.4z M728.8,124.5c0-2-0.8-3.1-2.3-3.1c-1,0-1.7,0.5-2,0.9v4.5
		c0.4,0.6,1,0.9,2,0.9C728,127.7,728.8,126.5,728.8,124.5z"/>
	<path class="st0" d="M734.4,118.9h2.9v1c0.3-0.7,1-1.3,2.1-1.3c0.9,0,1.7,0.3,2.3,0.9l-0.4,2.6c-0.5-0.4-1.2-0.7-2.1-0.7
		c-1,0-1.9,0.5-1.9,2.4v6.3h-2.9V118.9z"/>
	<path class="st0" d="M750.1,129.4c-0.5,0.5-1.4,1.1-2.9,1.1c-2.3,0-4.2-1.3-4.2-3.7c0-2.6,2.3-3.7,4.5-3.7c1.1,0,1.9,0.2,2.6,0.5
		v-0.6c0-1.2-0.7-1.8-2-1.8c-1.3,0-2.4,0.4-3.5,1.1l-0.9-2.3c1.1-0.7,2.7-1.3,4.6-1.3c2,0,4.6,0.5,4.6,4.4v7.2h-2.8V129.4z
		 M750.1,127v-1.2c-0.6-0.2-1.3-0.4-2.1-0.4c-1.2,0-2.2,0.4-2.2,1.3c0,0.7,0.7,1.2,1.9,1.2C748.8,127.9,749.6,127.5,750.1,127z"/>
	<path class="st0" d="M756.7,127.5v-6.1H755v-2.5h1.6v-3.3l2.9-1.4v4.7h2.5v2.5h-2.5v5.6c0,0.6,0.3,0.9,0.8,0.9
		c0.6,0,1.2-0.2,1.9-0.5l-0.3,2.5c-0.7,0.3-1.5,0.5-2.5,0.5C757.5,130.5,756.7,129.4,756.7,127.5z"/>
	<path class="st0" d="M764.5,115.9c0-0.9,0.8-1.7,1.7-1.7c1,0,1.7,0.7,1.7,1.7c0,0.9-0.7,1.7-1.7,1.7
		C765.3,117.6,764.5,116.8,764.5,115.9z M764.8,118.9h2.9v11.3h-2.9V118.9z"/>
	<path class="st0" d="M777.9,124c0-1.8-0.6-2.6-2-2.6c-1.4,0-2.1,0.8-2.1,2.6v6.2H771v-11.3h2.9v1.1c0.7-0.9,1.7-1.3,3-1.3
		c1.9,0,4,1.1,4,4.4v7.1h-2.9V124z"/>
	<path class="st0" d="M786.5,132.2c3.1-0.2,4-0.7,4-2.3v-0.3c-0.7,0.7-1.5,0.9-2.4,0.9c-2.7,0-4.7-2-4.7-5.9c0-3.6,1.9-5.9,4.7-5.9
		c1,0,1.8,0.3,2.4,0.9v-0.6h2.9v9.8c0,3.9-1.1,5.6-5.3,5.9L786.5,132.2z M790.6,126.8v-4.5c-0.4-0.4-0.9-0.9-2-0.9
		c-1.4,0-2.3,1.1-2.3,3.1c0,1.9,0.7,3.2,2.3,3.2C789.6,127.7,790.1,127.4,790.6,126.8z"/>
	<path class="st0" d="M801.4,129l1.6-2.3c0.8,0.5,1.7,1,3.2,1c1.8,0,3-1,3-2.6c0-1.4-0.8-2.3-2.2-2.3c-1.1,0-1.7,0.4-2.4,1.1
		l-2.8-1.3l0.4-7.8h8.9v2.9H805l-0.2,2.8c0.6-0.3,1.4-0.5,2.3-0.5c3.4,0,5,2.3,5,5.1c0,3.4-2.5,5.5-5.9,5.5
		C803.9,130.5,802.3,129.7,801.4,129z"/>
	<path class="st0" d="M815.1,122.5c0-3.8,1.3-8,5.7-8c4.4,0,5.7,4.1,5.7,8c0,3.8-1.3,8-5.7,8C816.4,130.5,815.1,126.3,815.1,122.5z
		 M823.5,122.5c0-2.6-0.6-5.2-2.7-5.2c-2.1,0-2.7,2.6-2.7,5.2c0,2.6,0.6,5.2,2.7,5.2C822.9,127.6,823.5,125,823.5,122.5z"/>
	<path class="st0" d="M838,130l-4.2-11.1h2.9l2.5,6.5c0.1,0.3,0.2,0.7,0.3,1c0.1-0.4,0.2-0.7,0.3-1l2.5-6.5h2.9l-6,15.6h-3L838,130z
		"/>
	<path class="st0" d="M846.7,124.5c0-3.6,2.1-5.9,5.3-5.9c2.8,0,5,1.7,5,5.3c0,0.4,0,1.1-0.1,1.7h-7.4c0.1,1.5,1.2,2.3,2.5,2.3
		c1,0,1.8-0.4,2.4-1.2l1.8,1.8c-1,1.1-2.3,1.9-4.2,1.9C848.7,130.5,846.7,128.3,846.7,124.5z M854.2,123.2c-0.2-1.3-1-2.1-2.2-2.1
		c-1.3,0-2.3,0.7-2.4,2.1H854.2z"/>
	<path class="st0" d="M866,129.4c-0.5,0.5-1.4,1.1-2.9,1.1c-2.3,0-4.2-1.3-4.2-3.7c0-2.6,2.3-3.7,4.5-3.7c1.1,0,1.9,0.2,2.6,0.5
		v-0.6c0-1.2-0.7-1.8-2-1.8c-1.3,0-2.4,0.4-3.5,1.1l-0.9-2.3c1.1-0.7,2.7-1.3,4.6-1.3c2,0,4.6,0.5,4.6,4.4v7.2H866V129.4z M866,127
		v-1.2c-0.6-0.2-1.3-0.4-2.1-0.4c-1.2,0-2.2,0.4-2.2,1.3c0,0.7,0.7,1.2,1.9,1.2C864.7,127.9,865.5,127.5,866,127z"/>
	<path class="st0" d="M871.9,118.9h2.9v1c0.3-0.7,1-1.3,2.1-1.3c0.9,0,1.7,0.3,2.3,0.9l-0.4,2.6c-0.5-0.4-1.2-0.7-2.1-0.7
		c-1,0-1.9,0.5-1.9,2.4v6.3h-2.9V118.9z"/>
	<path class="st0" d="M880.5,128.4l1.9-1.6c0.5,0.5,1.5,1.2,2.7,1.2c1,0,1.7-0.3,1.7-1c0-0.7-0.8-1-2.1-1.5
		c-2.5-0.8-3.9-1.7-3.9-3.7c0-2.1,1.9-3.2,4.1-3.2c2,0,3.3,0.9,4.1,1.8l-1.9,1.6c-0.7-0.6-1.3-0.9-2.2-0.9c-0.9,0-1.4,0.3-1.4,0.8
		c0,0.6,1,1,2.2,1.4c1.9,0.6,3.7,1.5,3.7,3.8c0,2.2-1.7,3.4-4.4,3.4C883.2,130.5,881.4,129.7,880.5,128.4z"/>
</g>
</svg>
