<svg xmlns="http://www.w3.org/2000/svg" xmlns:xlink="http://www.w3.org/1999/xlink" viewBox="0 0 879.35 191.07"><defs><style>.cls-1{fill:none;}.cls-2{fill:#cb774a;}.cls-3{fill:#f7bd18;}.cls-4{fill:#13294e;}.cls-5{fill:#fff;}.cls-23,.cls-6{fill:#243450;}.cls-7{clip-path:url(#clip-path);}.cls-8{clip-path:url(#clip-path-2);}.cls-9{clip-path:url(#clip-path-3);}.cls-10{clip-path:url(#clip-path-4);}.cls-11{clip-path:url(#clip-path-5);}.cls-12{clip-path:url(#clip-path-6);}.cls-13{clip-path:url(#clip-path-7);}.cls-14{clip-path:url(#clip-path-8);}.cls-15{clip-path:url(#clip-path-9);}.cls-16{clip-path:url(#clip-path-10);}.cls-17{clip-path:url(#clip-path-11);}.cls-18{clip-path:url(#clip-path-12);}.cls-19{clip-path:url(#clip-path-13);}.cls-20{clip-path:url(#clip-path-14);}.cls-21{clip-path:url(#clip-path-15);}.cls-22{clip-path:url(#clip-path-16);}.cls-23{font-size:42px;font-family:VAGRounded-Light, VAG Rounded;font-weight:300;}</style><clipPath id="clip-path" transform="translate(1.4)"><path class="cls-1" d="M18.93,54.13H30.05c5.94,0,10,3.33,10,9.46s-4.1,9.57-10,9.57H18.93ZM11.05,39.29c-5.4,0-8.31,3.22-8.31,8.38v60.45c0,5.38,3.45,8.39,8.1,8.39s8.09-3,8.09-8.39V84.78h.22l24,28.93a8.19,8.19,0,0,0,14.36-5.48,7,7,0,0,0-2.16-4.74L37,83.92c11-1.72,20-8.5,20-20.33,0-16.88-10.25-24.3-26.88-24.3Z"/></clipPath><clipPath id="clip-path-2" transform="translate(1.4)"><path class="cls-1" d="M75.39,87.5c0-7.42,3.78-15.81,12.3-15.81S100,80.08,100,87.5s-3.89,15.6-12.31,15.6-12.3-8.18-12.3-15.6m-15.55,0c0,16.13,11.12,29.79,27.85,29.79s27.83-13.65,27.83-29.79c0-15.7-11.45-30-27.86-30s-27.85,14.31-27.85,30"/></clipPath><clipPath id="clip-path-3" transform="translate(1.4)"><path class="cls-1" d="M121.09,42.1v66.25c0,5.16,3.23,8.6,7.77,8.6s7.77-3.44,7.77-8.6V42.1c0-5.16-3.24-8.61-7.77-8.61s-7.77,3.45-7.77,8.61"/></clipPath><clipPath id="clip-path-4" transform="translate(1.4)"><path class="cls-1" d="M145.91,42.1v66.25c0,5.16,3.24,8.6,7.78,8.6s7.77-3.44,7.77-8.6V42.1c0-5.16-3.24-8.61-7.77-8.61s-7.78,3.45-7.78,8.61"/></clipPath><clipPath id="clip-path-5" transform="translate(1.4)"><path class="cls-1" d="M194.46,70.4c7.23,0,11.55,5,12.41,11.83H182.15c.75-6.56,5.4-11.83,12.31-11.83M166.6,87.5c0,17.1,11.66,29.79,29.15,29.79,11.55,0,25.37-6.45,25.37-13.12,0-3.33-3-6.67-6.37-6.67-4.1,0-9.61,6.24-17.6,6.24-7.23,0-13.6-3.55-14.68-11.19h33.15c4.74,0,6.79-2.26,6.79-6.88,0-12.91-11.11-28.18-27.95-28.18-16.41,0-27.86,14.31-27.86,30"/></clipPath><clipPath id="clip-path-6" transform="translate(1.4)"><path class="cls-1" d="M241.12,64.77h-.21c0-4.94-3.46-6.45-7.56-6.45-3.88,0-8,2.58-8,7.74v42.17c0,5.16,3.24,8.6,7.78,8.6s7.77-3.44,7.77-8.6V84.46c0-6.13,4.75-8.18,9.39-10.33s9.28-2.47,9.28-7.53c0-5.59-3.77-8.28-7.55-8.28-4.86,0-8,2.15-10.91,6.45"/></clipPath><clipPath id="clip-path-7" transform="translate(1.4)"><path class="cls-1" d="M406.61,77.21c0,22.26,15.22,39.58,37.13,39.58,8,0,24.29-2.37,24.29-12.69,0-2.47-2.27-7.32-7.12-7.32-4.43,0-8.1,4.52-17.17,4.52-13.28,0-20.29-11-20.29-23.77,0-13.12,6.91-24.41,20.29-24.41,9.07,0,12.09,3.76,16.52,3.76,4,0,6.69-3.33,6.69-7.2,0-9.47-15.33-12-23.21-12-22,0-37.13,17.21-37.13,39.58"/></clipPath><clipPath id="clip-path-8" transform="translate(1.4)"><path class="cls-1" d="M486.71,87.5c0-7.42,3.77-15.81,12.3-15.81s12.31,8.39,12.31,15.81-3.89,15.6-12.31,15.6-12.3-8.18-12.3-15.6m-15.55,0c0,16.13,11.12,29.79,27.85,29.79s27.85-13.66,27.85-29.79c0-15.7-11.44-30-27.85-30s-27.85,14.31-27.85,30"/></clipPath><clipPath id="clip-path-9" transform="translate(1.4)"><path class="cls-1" d="M546.3,87.5c0-7.42,3.77-15.81,12.3-15.81,8.2,0,12,8.39,12,15.81s-3.89,15.6-12,15.6c-8.42,0-12.3-8.18-12.3-15.6m-15.55,0c0,17.42,11.12,29.79,25.69,29.79,5.94,0,10.8-2.47,14.79-7.21,1.08,4.09,2.92,6.57,7.45,6.57,7.45,0,7.45-6.14,7.45-10.11V68.25c0-4,0-10.11-7.45-10.11a7.37,7.37,0,0,0-7.45,6.45c-3.45-4.84-9.07-7.1-14.79-7.1-14.25,0-25.69,13-25.69,30"/></clipPath><clipPath id="clip-path-10" transform="translate(1.4)"><path class="cls-1" d="M594.76,75.56c0,17.75,27,16.67,27,23.77,0,2.91-1.4,4.41-6.15,4.41-7.35,0-10-5.27-16.09-5.27-4.32,0-6.69,4.52-6.69,6.88,0,7,13,11.94,21.7,11.94,13.38,0,22.13-7.85,22.13-18.17,0-17.64-27-16.57-27-23.77,0-3,2.48-4.3,5.29-4.3,5.07,0,11,4.51,13.92,4.51,3.68,0,6.37-3.33,6.37-6.88,0-7.64-11.76-11.19-19.43-11.19-12.31,0-21,7.32-21,18.07"/></clipPath><clipPath id="clip-path-11" transform="translate(1.4)"><path class="cls-1" d="M645.28,49.54V58.8h-3.45a6.62,6.62,0,0,0-6.8,6.44,1.82,1.82,0,0,0,0,.33c0,4.2,2.59,6.78,6.8,6.78h3.45v35.7c0,5.17,3.24,8.61,7.77,8.61s7.78-3.44,7.78-8.61V72.35h4.42c4,0,7.45-1.94,7.45-6.78s-3.45-6.77-7.45-6.77h-4.42V49.54c0-5.16-3.24-8.6-7.78-8.6s-7.77,3.44-7.77,8.6"/></clipPath><clipPath id="clip-path-12" transform="translate(1.4)"><path class="cls-1" d="M697.64,70.4c7.23,0,11.55,5,12.41,11.83H685.33c.76-6.56,5.4-11.83,12.31-11.83M669.79,87.5c0,17.1,11.66,29.79,29.15,29.79,11.55,0,25.36-6.45,25.36-13.12,0-3.33-3-6.67-6.37-6.67-4.1,0-9.6,6.24-17.59,6.24-7.24,0-13.6-3.55-14.68-11.19H718.8c4.75,0,6.8-2.26,6.8-6.88,0-12.91-11.12-28.18-28-28.18-16.41,0-27.85,14.31-27.85,30"/></clipPath><clipPath id="clip-path-13" transform="translate(1.4)"><path class="cls-1" d="M746.79,64.77h-.22c0-4.94-3.45-6.45-7.55-6.45-3.89,0-8,2.58-8,7.74v42.17c0,5.16,3.24,8.6,7.77,8.6s7.77-3.44,7.77-8.6V84.46c0-6.13,4.75-8.18,9.4-10.33s9.28-2.47,9.28-7.53c0-5.59-3.78-8.28-7.55-8.28-4.86,0-8,2.15-10.91,6.45"/></clipPath><clipPath id="clip-path-14" transform="translate(1.4)"><path class="cls-1" d="M760.82,108.92a8.42,8.42,0,1,0,8.45-8.39h0a8.41,8.41,0,0,0-8.42,8.39"/></clipPath><clipPath id="clip-path-15" transform="translate(1.4)"><path class="cls-1" d="M787.45,67v41.3c0,5.17,3.24,8.61,7.77,8.61s7.77-3.44,7.77-8.61V67c0-5.16-3.23-8.6-7.77-8.6s-7.77,3.44-7.77,8.6m-.93-23.34a9.09,9.09,0,0,0,8.74,8.93,8.71,8.71,0,1,0-8.74-8.93"/></clipPath><clipPath id="clip-path-16" transform="translate(1.4)"><path class="cls-1" d="M835.85,70.4c7.23,0,11.55,5,12.41,11.83H823.52c.76-6.56,5.4-11.83,12.31-11.83M808,87.5c0,17.1,11.65,29.79,29.14,29.79,11.55,0,25.37-6.45,25.37-13.12,0-3.33-3-6.67-6.37-6.67-4.1,0-9.61,6.24-17.59,6.24-7.24,0-13.61-3.55-14.68-11.19H857c4.75,0,6.8-2.26,6.8-6.88,0-12.91-11.12-28.18-28-28.18-16.41,0-27.85,14.31-27.85,30"/></clipPath></defs><g id="Layer_2" data-name="Layer 2"><g id="Layer_1-2" data-name="Layer 1"><path class="cls-2" d="M311.57,102.4c-3.4,4.53-6.49,9.35-10.3,13.51-3.51,3.83-3.55,7.11-.74,11.2,1.67,2.42,2.66,5.31,4,8l-1.77,1.08c-1.11-1.52-2.69-2.88-3.26-4.59-2.33-7-7-9.45-14.13-8.14-1.65.31-3.42-.09-5.14-.17-.09-.58-.17-1.16-.25-1.74l8-1.74a42.48,42.48,0,0,1-5.18-2.6,9.19,9.19,0,0,1-1.8-2.53c.95-.19,2-.75,2.82-.51a54.85,54.85,0,0,1,8,3c2.57,1.22,4.26.5,5.81-1.59,3.16-4.23,6.32-8.47,9.63-12.58.74-.92,2.13-1.32,3.21-2Z" transform="translate(1.4)"/><path class="cls-2" d="M330.52,145.57l2.08-5.78a25.54,25.54,0,0,1-4.33,1.35,7.61,7.61,0,0,1-2.69-.75c.48-.8.76-2,1.47-2.34a56.07,56.07,0,0,1,7.91-3.33c3.37-1.09,4.23-3.06,3.68-6.49-1-6.34-1.63-12.74-2.41-19.12l1.4-.65c.72,1.1,1.91,2.14,2.08,3.32.81,5.67,1.53,11.36,1.9,17.07.21,3.23,1.48,5,4.58,5.78a69.76,69.76,0,0,1,6.88,2.22,16.4,16.4,0,0,1,2.65,1.63l-.54,1.58c-2.31-.51-4.79-.66-6.9-1.61-4.65-2.09-8.26-1.65-11.32,2.8-1.36,2-3.51,3.4-5.3,5.08Z" transform="translate(1.4)"/><path class="cls-2" d="M384.64,94.57a2.91,2.91,0,0,0-.59,3.62c1.31,2.27,1.8,4.41-.85,7-1.21,1.2-.1,4.58-.37,6.93a34,34,0,0,1-.78,4,2.91,2.91,0,0,1-3.22,2.19,6.35,6.35,0,0,1-3.57-1.23A149.23,149.23,0,0,1,364.61,105c-1.45-1.73-1-2.94,1-4.33A83.22,83.22,0,0,0,377.48,91c2.56-2.66,4.53-3.8,7.41-1.08C387.12,92.05,386.05,93.3,384.64,94.57Z" transform="translate(1.4)"/><path class="cls-2" d="M275.07,28.83,289,27.16c-1.45,3.57-2.68,6.64-4.2,10.38Z" transform="translate(1.4)"/><circle class="cls-3" cx="337.53" cy="55" r="55"/><path class="cls-2" d="M350.25,47.47a2.66,2.66,0,0,0,2.86,1.36c2.87-.51,5.07,0,6.82,3.15.79,1.43,4.09,1.33,6.07,2.28a11.21,11.21,0,0,1,3.18,2.64,2.7,2.7,0,0,1,.77,2.66c-.49,1.7-.39,3.51-1.83,4.48-9.57,6.41-20.36,8-31.59,6.71-5.56-.66-7.94-5.26-4.77-9.92a96,96,0,0,1,12.66-14.58C347,43.74,348.94,44.94,350.25,47.47Z" transform="translate(1.4)"/><ellipse class="cls-4" cx="317.52" cy="37.56" rx="6.48" ry="5.82" transform="translate(147.01 307.14) rotate(-64.22)"/><circle class="cls-5" cx="317.15" cy="39.75" r="2.85"/><path class="cls-6" d="M18.93,54.13H30.05c5.94,0,10,3.33,10,9.46s-4.1,9.57-10,9.57H18.93ZM11.05,39.29c-5.4,0-8.31,3.22-8.31,8.38v60.45c0,5.38,3.45,8.39,8.1,8.39s8.09-3,8.09-8.39V84.78h.22l24,28.93a8.19,8.19,0,0,0,14.36-5.48,7,7,0,0,0-2.16-4.74L37,83.92c11-1.72,20-8.5,20-20.33,0-16.88-10.25-24.3-26.88-24.3Z" transform="translate(1.4)"/><g class="cls-7"><rect class="cls-6" y="35.15" width="63.01" height="85.5"/></g><path class="cls-6" d="M75.39,87.5c0-7.42,3.78-15.81,12.3-15.81S100,80.08,100,87.5s-3.89,15.6-12.31,15.6-12.3-8.18-12.3-15.6m-15.55,0c0,16.13,11.12,29.79,27.85,29.79s27.83-13.65,27.83-29.79c0-15.7-11.45-30-27.86-30s-27.85,14.31-27.85,30" transform="translate(1.4)"/><g class="cls-8"><rect class="cls-6" x="57.1" y="53.36" width="63.98" height="68.08"/></g><path class="cls-6" d="M121.09,42.1v66.25c0,5.16,3.23,8.6,7.77,8.6s7.77-3.44,7.77-8.6V42.1c0-5.16-3.24-8.61-7.77-8.61s-7.77,3.45-7.77,8.61" transform="translate(1.4)"/><g class="cls-9"><rect class="cls-6" x="118.35" y="29.36" width="23.82" height="91.74"/></g><path class="cls-6" d="M145.91,42.1v66.25c0,5.16,3.24,8.6,7.78,8.6s7.77-3.44,7.77-8.6V42.1c0-5.16-3.24-8.61-7.77-8.61s-7.78,3.45-7.78,8.61" transform="translate(1.4)"/><g class="cls-10"><rect class="cls-6" x="143.18" y="29.36" width="23.82" height="91.74"/></g><path class="cls-6" d="M194.46,70.4c7.23,0,11.55,5,12.41,11.83H182.15c.75-6.56,5.4-11.83,12.31-11.83M166.6,87.5c0,17.1,11.66,29.79,29.15,29.79,11.55,0,25.37-6.45,25.37-13.12,0-3.33-3-6.67-6.37-6.67-4.1,0-9.61,6.24-17.6,6.24-7.23,0-13.6-3.55-14.68-11.19h33.15c4.74,0,6.79-2.26,6.79-6.88,0-12.91-11.11-28.18-27.95-28.18-16.41,0-27.86,14.31-27.86,30" transform="translate(1.4)"/><g class="cls-11"><rect class="cls-6" x="163.87" y="53.36" width="64.09" height="68.08"/></g><path class="cls-6" d="M241.12,64.77h-.21c0-4.94-3.46-6.45-7.56-6.45-3.88,0-8,2.58-8,7.74v42.17c0,5.16,3.24,8.6,7.78,8.6s7.77-3.44,7.77-8.6V84.46c0-6.13,4.75-8.18,9.39-10.33s9.28-2.47,9.28-7.53c0-5.59-3.77-8.28-7.55-8.28-4.86,0-8,2.15-10.91,6.45" transform="translate(1.4)"/><g class="cls-12"><rect class="cls-6" x="222.63" y="54.18" width="42.5" height="66.78"/></g><path class="cls-6" d="M406.61,77.21c0,22.26,15.22,39.58,37.13,39.58,8,0,24.29-2.37,24.29-12.69,0-2.47-2.27-7.32-7.12-7.32-4.43,0-8.1,4.52-17.17,4.52-13.28,0-20.29-11-20.29-23.77,0-13.12,6.91-24.41,20.29-24.41,9.07,0,12.09,3.76,16.52,3.76,4,0,6.69-3.33,6.69-7.2,0-9.47-15.33-12-23.21-12-22,0-37.13,17.21-37.13,39.58" transform="translate(1.4)"/><g class="cls-13"><rect class="cls-6" x="403.87" y="33.49" width="69.7" height="87.43"/></g><path class="cls-6" d="M486.71,87.5c0-7.42,3.77-15.81,12.3-15.81s12.31,8.39,12.31,15.81-3.89,15.6-12.31,15.6-12.3-8.18-12.3-15.6m-15.55,0c0,16.13,11.12,29.79,27.85,29.79s27.85-13.66,27.85-29.79c0-15.7-11.44-30-27.85-30s-27.85,14.31-27.85,30" transform="translate(1.4)"/><g class="cls-14"><rect class="cls-6" x="468.42" y="53.36" width="63.98" height="68.08"/></g><path class="cls-6" d="M546.3,87.5c0-7.42,3.77-15.81,12.3-15.81,8.2,0,12,8.39,12,15.81s-3.89,15.6-12,15.6c-8.42,0-12.3-8.18-12.3-15.6m-15.55,0c0,17.42,11.12,29.79,25.69,29.79,5.94,0,10.8-2.47,14.79-7.21,1.08,4.09,2.92,6.57,7.45,6.57,7.45,0,7.45-6.14,7.45-10.11V68.25c0-4,0-10.11-7.45-10.11a7.37,7.37,0,0,0-7.45,6.45c-3.45-4.84-9.07-7.1-14.79-7.1-14.25,0-25.69,13-25.69,30" transform="translate(1.4)"/><g class="cls-15"><rect class="cls-6" x="528.01" y="53.36" width="63.66" height="68.08"/></g><path class="cls-6" d="M594.76,75.56c0,17.75,27,16.67,27,23.77,0,2.91-1.4,4.41-6.15,4.41-7.35,0-10-5.27-16.09-5.27-4.32,0-6.69,4.52-6.69,6.88,0,7,13,11.94,21.7,11.94,13.38,0,22.13-7.85,22.13-18.17,0-17.64-27-16.57-27-23.77,0-3,2.48-4.3,5.29-4.3,5.07,0,11,4.51,13.92,4.51,3.68,0,6.37-3.33,6.37-6.88,0-7.64-11.76-11.19-19.43-11.19-12.31,0-21,7.32-21,18.07" transform="translate(1.4)"/><g class="cls-16"><rect class="cls-6" x="590.08" y="53.36" width="52.1" height="68.08"/></g><path class="cls-6" d="M645.28,49.54V58.8h-3.45a6.62,6.62,0,0,0-6.8,6.44,1.82,1.82,0,0,0,0,.33c0,4.2,2.59,6.78,6.8,6.78h3.45v35.7c0,5.17,3.24,8.61,7.77,8.61s7.78-3.44,7.78-8.61V72.35h4.42c4,0,7.45-1.94,7.45-6.78s-3.45-6.77-7.45-6.77h-4.42V49.54c0-5.16-3.24-8.6-7.78-8.6s-7.77,3.44-7.77,8.6" transform="translate(1.4)"/><g class="cls-17"><rect class="cls-6" x="632.29" y="36.8" width="45.95" height="83.99"/></g><path class="cls-6" d="M697.64,70.4c7.23,0,11.55,5,12.41,11.83H685.33c.76-6.56,5.4-11.83,12.31-11.83M669.79,87.5c0,17.1,11.66,29.79,29.15,29.79,11.55,0,25.36-6.45,25.36-13.12,0-3.33-3-6.67-6.37-6.67-4.1,0-9.6,6.24-17.59,6.24-7.24,0-13.6-3.55-14.68-11.19H718.8c4.75,0,6.8-2.26,6.8-6.88,0-12.91-11.12-28.18-28-28.18-16.41,0-27.85,14.31-27.85,30" transform="translate(1.4)"/><g class="cls-18"><rect class="cls-6" x="667.05" y="53.36" width="64.09" height="68.08"/></g><path class="cls-6" d="M746.79,64.77h-.22c0-4.94-3.45-6.45-7.55-6.45-3.89,0-8,2.58-8,7.74v42.17c0,5.16,3.24,8.6,7.77,8.6s7.77-3.44,7.77-8.6V84.46c0-6.13,4.75-8.18,9.4-10.33s9.28-2.47,9.28-7.53c0-5.59-3.78-8.28-7.55-8.28-4.86,0-8,2.15-10.91,6.45" transform="translate(1.4)"/><g class="cls-19"><rect class="cls-6" x="728.29" y="54.18" width="42.5" height="66.78"/></g><path class="cls-6" d="M760.82,108.92a8.42,8.42,0,1,0,8.45-8.39h0a8.41,8.41,0,0,0-8.42,8.39" transform="translate(1.4)"/><g class="cls-20"><rect class="cls-6" x="758.08" y="96.39" width="25.12" height="25.05"/></g><path class="cls-6" d="M787.45,67v41.3c0,5.17,3.24,8.61,7.77,8.61s7.77-3.44,7.77-8.61V67c0-5.16-3.23-8.6-7.77-8.6s-7.77,3.44-7.77,8.6m-.93-23.34a9.09,9.09,0,0,0,8.74,8.93,8.71,8.71,0,1,0-8.74-8.93" transform="translate(1.4)"/><g class="cls-21"><rect class="cls-6" x="783.74" y="31.01" width="25.76" height="90.02"/></g><path class="cls-6" d="M835.85,70.4c7.23,0,11.55,5,12.41,11.83H823.52c.76-6.56,5.4-11.83,12.31-11.83M808,87.5c0,17.1,11.65,29.79,29.14,29.79,11.55,0,25.37-6.45,25.37-13.12,0-3.33-3-6.67-6.37-6.67-4.1,0-9.61,6.24-17.59,6.24-7.24,0-13.61-3.55-14.68-11.19H857c4.75,0,6.8-2.26,6.8-6.88,0-12.91-11.12-28.18-28-28.18-16.41,0-27.85,14.31-27.85,30" transform="translate(1.4)"/><g class="cls-22"><rect class="cls-6" x="805.26" y="53.36" width="64.09" height="68.08"/></g><text class="cls-23" transform="translate(1.4 178.76) scale(1.03 1)"><tspan xml:space="preserve">For the Ups  &amp; Downs of Pregnancy &amp; Parenting </tspan></text></g></g></svg>