<svg width="90.4" height="50" version="1.1" viewBox="0 0 77.4 40.7" xml:space="preserve"
    xmlns="http://www.w3.org/2000/svg">
    <title>RTÉ logo</title>
    <g transform="matrix(.956 0 0 .956 1.7 .89)">
        <path d="m70 35.6c-5.94 0-10.9-4.24-11.8-10.2h11.2c1.24 0 3.95 0.261 3.95 0.261v-4.98s-2.65 0.197-4.14 0.197h-11c1.11-5.88 5.96-9.94 11.8-9.94 3.1 0 6.91 1.42 6.91 1.42l0.068-5.23s-2.71-1.03-6.98-1.03c-9.88 0-18.5 7.55-18.5 17.2 0 10.4 8.64 17.4 18.5 17.4 4.64 0 7.42-1.24 7.42-1.24l-0.133-5.41c1e-3 -1e-3 -3.42 1.6-7.28 1.6z" style="fill:#003775"/>
        <path d="m36.4 40.5s0.375-2.51 0.375-4.71v-23.9h-1.61c-2.2 0-5.6 0-8.12 0.246l-0.214-5.55h26.2l-0.127 5.55c-2.6-0.246-5.94-0.246-8.2-0.246h-1.99v23.9c0 2.2 0.439 4.71 0.439 4.71h-6.77z" style="fill:#003775"/>
        <path d="m77.1 3.88c-1.93-0.541-4.46-0.912-6.57-0.912-5.76 0-10.7 1.74-14.9 5.43l0.063-4.07c4.38-2.98 9.36-4.32 14.8-4.32 2.38 0 4.45 0.326 6.63 0.896l-0.062 2.98z" style="fill:#019a67"/>
        <path d="m24.7 35.9-9.11-8.77c5.61-0.541 10.3-4.66 10.3-10 0-5.69-3.28-10.7-13.1-11.1-0.407-0.02-0.83-0.031-1.27-0.031-6.77 0-11.4 0.324-11.4 0.324s0.309 3.34 0.309 5.02v24.6c-1e-3 2.27-0.44 4.64-0.44 4.64h6.83s-0.439-2.38-0.439-5.09v-10l6.42 6.72 3.25 3.36c2 2.19 5.49 5.02 5.49 5.02h9.03s-4.04-2.83-5.92-4.64zm-13.4-12.8h-4.89v-12.3s2.38-0.067 5.22-0.067c0.425 0 0.836 0.035 1.21 0.053 4.55 0.375 6.43 2.85 6.43 5.83 0 3.34-2.64 5.87-6.43 6.41-0.489 0.065-1.01 0.092-1.53 0.092z" style="fill:#003775"/>
    </g>
    <script xmlns=""/>
</svg>