<svg width="224" height="110" viewBox="0 0 224 110" xmlns="http://www.w3.org/2000/svg"><title>sw-logo-red-bg</title><g id="Page-1" fill="none" fill-rule="evenodd"><g id="sw-logo-red-bg" fill-rule="nonzero"><g id="Group" fill="#FF0D0D"><path id="Path" d="M0 0h224v110H0z"/></g><g id="Group" transform="translate(7.86 13.75)"><path d="M85.594 47.955c6.679 1.987 10.259 6.667 11.297 13.43.212 1.389.44 2.808.44 4.86 0 2.053-.477 4.103-1.118 6.36-1.642 5.767-5.635 9.223-11.355 10.665a23.321 23.321 0 0 1-14.58-.838c-5.825-2.31-8.738-6.89-9.596-12.927a25.972 25.972 0 0 1 .487-10.393c1.483-5.624 5.037-9.308 10.545-11.036a23.35 23.35 0 0 1 13.88-.121zm101.27.26c7.034 1.89 11.16 7.022 11.88 14.31.355 3.615.217 7.176-1.001 10.6-1.97 5.56-6.112 8.624-11.651 10.018-4.28 1.06-8.638 1.06-12.97.625-1.536-.147-3.06-.42-4.583-.713l-1.826-.357a94.645 94.645 0 0 0-1.827-.34c-.926-.164-1.25-.63-1.24-1.622.06-5.083.028-10.17.028-15.254l-.022.016V50.053c0-.53 0-.943.678-1.14 7.457-2.156 14.983-2.73 22.535-.7l-.001.002zM33.562 3.167c.392.127.773.29 1.155.445.101.063.195.138.28.223-1.133 2.65-2.266 5.258-3.426 7.95a19.451 19.451 0 0 0-8.532-1.51 7.846 7.846 0 0 0-1.859.35c-2.087.678-2.68 2.856-1.123 4.446a9.946 9.946 0 0 0 2.754 1.818c2.177 1.06 4.428 1.919 6.61 2.936.924.48 1.82 1.017 2.68 1.606 6.831 4.315 6.185 13.94.529 18.477-3.178 2.544-6.805 3.88-10.75 4.51-.562.09-1.129.165-1.802.265 1.208 7.299 2.415 14.576 3.639 21.996l.53.032c1.72-7.463 3.426-14.84 5.152-22.31h9.396c.56 0 .831.139.969.743 1.318 5.92 2.695 11.825 4.014 17.74.275 1.23.387 2.502.577 3.8h.895c.318-2.294.572-4.563.954-6.81.842-4.908 1.753-9.81 2.616-14.72.08-.46.164-.752.736-.746h12.18c.126.023.248.058.366.106A843.654 843.654 0 0 0 61.234 48a7029.433 7029.433 0 0 0-8.57 34.27c-.243.998-.64 1.279-1.652 1.263a269.2 269.2 0 0 0-10.592.032c-.948 0-1.366-.212-1.63-1.182-1.256-4.66-2.622-9.286-3.91-13.93-.259-.97-.354-1.97-.54-3.03h-.65L28.87 83.48h-8.696c-1.24 0-2.484-.032-3.707.053-.779.053-.948-.334-1.107-.96-1.988-7.9-3.983-15.8-5.985-23.697C8.178 54.017 6.95 49.15 5.7 44.302a1.255 1.255 0 0 0-.752-.668c-1.155-.413-2.336-.753-3.655-1.166l3.771-9.334c1.875.498 3.617 1.14 5.413 1.384 1.662.18 3.34.163 5-.053a2.497 2.497 0 0 0 2.367-2.036 2.65 2.65 0 0 0-1.457-2.872 39.503 39.503 0 0 0-4.576-2.295 20.647 20.647 0 0 1-6.54-3.991C.694 18.87.615 11.95 5.095 7.196c3.03-3.222 6.9-4.844 11.164-5.48a37.368 37.368 0 0 1 17.302 1.452l.001-.001zm86.097 44.029c3.31.228 6.557.816 9.533 2.332 3.178 1.59 5.243 4.028 5.757 7.659a6.772 6.772 0 0 1-.937 4.658 12.986 12.986 0 0 1-5.487 4.86c-.275.15-.561.27-.885.425l9.083 16.282c-.334.037-.567.09-.794.09-4.544 0-9.083 0-13.627.053a1.144 1.144 0 0 1-1.255-.843c-1.923-4.595-3.893-9.174-5.826-13.78-.254-.6-.53-.896-1.292-.604v15.116h-13.95c0-.297-.047-.631-.047-.965 0-10.78 0-21.556-.027-32.331-.05-.323.034-.653.235-.911.2-.258.499-.422.824-.451 6.139-1.691 12.383-2.025 18.695-1.59zm32.412.408v28.42h9.242v7.42h-23.414v-35.84h14.172zm26.75 6.752c-.815 0-1.15.218-1.144 1.14.043 6.604.027 13.208.027 19.807v.88c3.49.747 5.794-.843 6.471-4.416.652-3.455.53-6.953.334-10.441a14.48 14.48 0 0 0-.53-3.085c-.715-2.65-2.441-3.87-5.158-3.885zM76.602 55.513a6.484 6.484 0 0 0-1.033 2.422 40.872 40.872 0 0 0-.244 12.9 9.798 9.798 0 0 0 1.192 3.658 2.69 2.69 0 0 0 4.618.058c.43-.59.724-1.266.863-1.982.233-1.665.422-4.156.567-7.474 0-1.303.069-2.613 0-3.906-.122-1.87-.291-3.747-1.287-5.411a2.73 2.73 0 0 0-4.676-.266zm38.033-2.228l-.484.04-.244.02c0 4.033 0 7.876.026 11.719.078.33.32.596.641.705 2.156.2 4.131-.318 5.333-2.221 1.62-2.56 1.52-5.353.593-8.152a1.82 1.82 0 0 0-.413-.636c-1.532-1.68-3.44-1.636-5.452-1.475zM51.742 6.783V31.92c.133 2.439 2.5 3.684 4.608 2.412.831-.53 1.059-1.34 1.059-2.22V7.884l.021-1.102h12.181v23.66c0 6.65-2.907 10.468-9.4 12.12-5.164 1.316-10.29 1.104-15.179-1.15-4.237-1.95-6.355-5.262-6.323-10.07.085-7.753 0-15.513 0-23.267V6.783h13.033zm78.275.334c6.69 1.706 10.799 6.55 11.678 13.478a27.937 27.937 0 0 1-.418 10.42c-1.563 6.2-5.524 10.07-11.726 11.433-6.418 1.394-12.816.88-19.108-.965a1.166 1.166 0 0 1-.979-1.336c.042-5.14.02-10.293.02-15.444V8.937c.008-.39.081-.7.636-.877 6.551-2.094 13.209-2.65 19.897-.943zm63.282-.393c3.4.043 6.8 0 10.2 0 .302 0 .61.037 1.06.07-.34.672-.62 1.224-.895 1.78-3.146 6.36-6.285 12.74-9.417 19.14a3.776 3.776 0 0 0-.339 1.54c-.026 4.104 0 8.206 0 12.309l-.015 1.07c-.371.027-.62.058-.864.058-3.707 0-7.414 0-11.148.059-.826 0-1.096-.207-1.085-1.06.042-4.007.047-8.014 0-12.016a5.942 5.942 0 0 0-.53-2.358 2090.05 2090.05 0 0 0-4.686-9.79l-4.714-9.78c-.133-.274-.244-.561-.408-.932.376-.031.651-.074.921-.074h11.651a1.114 1.114 0 0 1 1.24.912c1 3.206 2.055 6.403 3.12 9.593.09.265.402.46.613.69.212-.23.53-.42.63-.69 1.15-3.18 2.289-6.36 3.385-9.598.11-.602.676-1.01 1.281-.923zm-39.91.037c3.968.022 7.937.022 11.905 0a.928.928 0 0 1 1.012.753 24357.94 24357.94 0 0 0 11.974 34.213c.1.228.17.53.27.906-.37 0-.646.048-.921.048-3.84 0-7.685 0-11.525.053-.677 0-.953-.207-1.085-.853-.26-1.3-.588-2.582-.911-3.96H160.4c-2.161 0-4.322.048-6.477 0-.906 0-1.361.19-1.547 1.145-.228 1.209-.64 2.38-.99 3.615h-11.27c.063-.26.09-.498.17-.72 4.031-11.492 8.062-22.976 12.09-34.452a.917.917 0 0 1 1.012-.748h.001zm-79.07-.042c2.95.042 5.905 0 8.86.042.48.01.935.216 1.26.568a763.156 763.156 0 0 1 8.157 11.5c.522.758.985 1.556 1.382 2.386.28.573.604.763 1.112.53V6.793h10.645l.005 35.914h-8.913a1.09 1.09 0 0 1-.789-.376 2124.196 2124.196 0 0 1-10.105-14.9 7.826 7.826 0 0 1-.836-1.705c-.223-.615-.53-.886-1.176-.705v17.612H73.318c0-.323-.058-.63-.058-.933V7.78c0-.87.27-1.061 1.06-1.061h-.001zm48.062 7.884v20.742c3.14.71 5.296-.72 5.942-3.927.602-3.253.759-6.573.466-9.87a24.42 24.42 0 0 0-.694-4.594c-.61-2.27-2.118-3.33-4.47-3.414-1.064-.04-1.231.074-1.244 1.063zm35.7 2.759a8.393 8.393 0 0 1-.302 1.876c-1.06 3.885-2.118 7.77-3.178 11.66-.074.287-.127.578-.195.886h8.028a6172.42 6172.42 0 0 0-3.474-15.27l-.005.01c-.53-.18-.848.043-.874.838z" id="Shape" fill="#000"/><path d="M84.302 46.663c6.678 1.987 10.258 6.667 11.296 13.43.212 1.389.44 2.808.44 4.86 0 2.053-.477 4.103-1.118 6.36-1.641 5.767-5.635 9.223-11.354 10.665a23.32 23.32 0 0 1-14.58-.838c-5.826-2.31-8.739-6.89-9.597-12.927a25.978 25.978 0 0 1 .488-10.394c1.483-5.623 5.036-9.307 10.544-11.035a23.342 23.342 0 0 1 13.88-.121h.001zm101.27.26c7.033 1.89 11.159 7.022 11.88 14.31.354 3.615.216 7.176-1.002 10.6-1.97 5.56-6.111 8.624-11.65 10.018-4.28 1.06-8.639 1.06-12.97.625-1.537-.147-3.061-.42-4.583-.713l-1.826-.357a97.58 97.58 0 0 0-1.827-.34c-.927-.164-1.25-.63-1.24-1.622.059-5.083.027-10.17.027-15.254l-.021.016V48.76c0-.53 0-.943.678-1.14 7.457-2.156 14.982-2.73 22.534-.7v.002zM32.27 1.875c.392.127.773.29 1.154.445.102.063.196.138.28.223-1.133 2.65-2.266 5.257-3.426 7.95a19.434 19.434 0 0 0-8.532-1.51 7.788 7.788 0 0 0-1.858.35c-2.087.678-2.68 2.856-1.123 4.446a9.932 9.932 0 0 0 2.754 1.818c2.176 1.06 4.427 1.919 6.61 2.936a25.929 25.929 0 0 1 2.679 1.606c6.832 4.315 6.186 13.94.53 18.477-3.178 2.544-6.806 3.88-10.751 4.51-.562.09-1.128.165-1.801.265 1.207 7.299 2.415 14.576 3.638 21.996l.53.032c1.721-7.463 3.426-14.84 5.153-22.31H37.5c.561 0 .832.139.97.743 1.318 5.92 2.695 11.825 4.014 17.74.275 1.23.386 2.502.577 3.8h.895c.318-2.295.572-4.563.953-6.81.842-4.908 1.753-9.811 2.616-14.72.08-.46.165-.752.737-.746h12.18c.125.023.248.058.366.106a844.147 844.147 0 0 0-.869 3.487 7000.567 7000.567 0 0 0-8.569 34.27c-.243.998-.64 1.279-1.652 1.263a269.194 269.194 0 0 0-10.592.032c-.948 0-1.366-.212-1.631-1.182-1.255-4.66-2.622-9.286-3.909-13.93-.26-.97-.355-1.971-.54-3.031h-.651l-4.82 18.058H18.88c-1.239 0-2.484-.032-3.707.053-.778.053-.948-.334-1.107-.96-1.988-7.9-3.982-15.8-5.984-23.697A1392.64 1392.64 0 0 0 4.406 43.01a1.252 1.252 0 0 0-.752-.668C2.5 41.929 1.32 41.59 0 41.177l3.77-9.334c1.876.498 3.618 1.14 5.413 1.384a21.12 21.12 0 0 0 5-.053 2.495 2.495 0 0 0 2.367-2.036 2.648 2.648 0 0 0-1.456-2.872 39.583 39.583 0 0 0-4.576-2.295 20.65 20.65 0 0 1-6.54-3.992c-4.577-4.4-4.657-11.32-.176-16.075 3.029-3.223 6.9-4.844 11.164-5.48a37.37 37.37 0 0 1 17.302 1.452l.002-.001zm86.097 44.029c3.31.228 6.556.816 9.533 2.332 3.177 1.59 5.243 4.028 5.756 7.658a6.772 6.772 0 0 1-.937 4.66 13 13 0 0 1-5.487 4.86c-.275.148-.561.27-.884.424l9.083 16.282c-.334.037-.567.09-.795.09-4.544 0-9.082 0-13.626.053a1.145 1.145 0 0 1-1.256-.843c-1.922-4.595-3.892-9.174-5.825-13.78-.254-.6-.53-.896-1.292-.605v15.117h-13.95c0-.297-.048-.631-.048-.965 0-10.78 0-21.556-.026-32.331a1.182 1.182 0 0 1 1.059-1.362c6.138-1.691 12.382-2.025 18.695-1.59zm32.412.408v28.42h9.241v7.42h-23.414v-35.84h14.173zm26.75 6.752c-.816 0-1.15.217-1.144 1.14.042 6.604.026 13.208.026 19.807v.88c3.49.747 5.794-.843 6.472-4.416.651-3.455.53-6.954.334-10.441a14.543 14.543 0 0 0-.53-3.085c-.715-2.65-2.441-3.87-5.158-3.885zM75.309 54.22a6.482 6.482 0 0 0-1.032 2.422 40.813 40.813 0 0 0-.244 12.9 9.768 9.768 0 0 0 1.192 3.658 2.69 2.69 0 0 0 4.618.058c.43-.59.724-1.266.863-1.982.233-1.665.422-4.156.567-7.474 0-1.303.068-2.613 0-3.906-.122-1.87-.292-3.747-1.287-5.411a2.73 2.73 0 0 0-4.677-.266zm38.034-2.228l-.485.04-.244.02c0 4.033 0 7.876.027 11.719.077.33.32.596.64.705 2.156.2 4.132-.32 5.334-2.221 1.62-2.56 1.52-5.353.593-8.152a1.839 1.839 0 0 0-.413-.636c-1.532-1.68-3.44-1.636-5.452-1.475zM50.45 5.49v25.138c.132 2.439 2.5 3.684 4.607 2.412.832-.53 1.06-1.34 1.06-2.22V6.592l.02-1.102H68.32v23.66c0 6.65-2.908 10.468-9.4 12.12-5.164 1.316-10.291 1.104-15.18-1.15-4.236-1.95-6.354-5.262-6.323-10.07.085-7.753 0-15.513 0-23.267V5.49H50.45zm78.275.333c6.689 1.707 10.798 6.552 11.678 13.479a27.916 27.916 0 0 1-.419 10.42c-1.562 6.2-5.524 10.07-11.725 11.433-6.419 1.394-12.817.88-19.108-.965a1.168 1.168 0 0 1-.98-1.336c.042-5.14.021-10.293.021-15.444V7.645c.007-.39.08-.7.636-.877 6.55-2.094 13.208-2.65 19.897-.944v-.001zm63.282-.392c3.4.043 6.8 0 10.2 0 .302 0 .61.037 1.06.07-.34.672-.62 1.224-.896 1.78-3.146 6.36-6.284 12.74-9.416 19.14a3.776 3.776 0 0 0-.339 1.54c-.026 4.104 0 8.206 0 12.308l-.016 1.07c-.37.028-.62.059-.863.059-3.707 0-7.415 0-11.148.059-.826 0-1.097-.207-1.086-1.06.042-4.007.048-8.014 0-12.016a5.925 5.925 0 0 0-.53-2.358c-1.551-3.268-3.116-6.53-4.686-9.79l-4.714-9.78c-.132-.274-.244-.561-.408-.932.376-.031.652-.074.922-.074h11.651a1.114 1.114 0 0 1 1.24.912c1 3.206 2.054 6.402 3.119 9.593.09.265.402.46.614.69.212-.23.53-.42.63-.69 1.15-3.18 2.288-6.36 3.384-9.598a1.14 1.14 0 0 1 1.282-.923zm-39.91.037c3.968.022 7.936.022 11.905 0a.927.927 0 0 1 1.011.753c3.983 11.406 7.974 22.81 11.974 34.213.101.228.17.53.27.906-.37 0-.646.048-.92.048-3.84 0-7.685 0-11.525.053-.678 0-.953-.207-1.086-.854-.26-1.298-.588-2.58-.91-3.96h-3.708c-2.16 0-4.321.049-6.477 0-.906 0-1.361.192-1.546 1.146-.228 1.209-.641 2.38-.99 3.615h-11.27c.063-.26.09-.498.169-.721l12.09-34.451a.918.918 0 0 1 1.012-.748h.001zm-79.07-.042c2.95.042 5.905 0 8.86.042.48.01.934.216 1.26.567a768.299 768.299 0 0 1 8.156 11.502 17.53 17.53 0 0 1 1.383 2.385c.28.572.603.763 1.112.53V5.5h10.645l.005 35.914h-8.913a1.094 1.094 0 0 1-.79-.376 2124.088 2124.088 0 0 1-10.104-14.9 7.86 7.86 0 0 1-.837-1.706c-.222-.614-.53-.885-1.176-.704v17.61H72.026c0-.322-.058-.63-.058-.932V6.487c0-.87.27-1.06 1.059-1.06v-.001zm48.062 7.884l-.001 20.742c3.14.71 5.296-.72 5.942-3.927.602-3.253.76-6.573.466-9.87a24.341 24.341 0 0 0-.694-4.594c-.609-2.27-2.118-3.33-4.47-3.414-1.063-.04-1.23.074-1.243 1.063zm35.7 2.759a8.451 8.451 0 0 1-.302 1.876c-1.06 3.885-2.119 7.77-3.178 11.66-.074.287-.127.578-.196.886h8.029a7098.818 7098.818 0 0 0-3.474-15.27l-.006.01c-.53-.18-.847.043-.874.838h.001z" id="Shape" fill="#FFF"/></g></g></g><script xmlns=""/></svg>