<svg xmlns="http://www.w3.org/2000/svg"
    xmlns:xlink="http://www.w3.org/1999/xlink" width="221" height="67" viewBox="0 0 221 67">
    <defs>
        <path id="198nycvrza" d="M0.021 0.132L146.524 0.132 146.524 23.407 0.021 23.407z"></path>
    </defs>
    <g fill="none" fill-rule="evenodd">
        <g>
            <g>
                <path fill="#FFFFFE" d="M71.354 1.541c.303.171.663.3.593.491.367-.154.464-.347-.593-.49M71.947 2.032L71.71 2.138 71.925 2.101 71.947 2.032M116.51 8.03l-.372-.695-1.68.583c.744.538 1.07.02 2.051.112M116.35 10.228L117.254 9.84 115.742 9.979 116.35 10.228M93.949 7.592l.198.161c1.175.1 2.227.005 3.41-.025-1.256-.008-2.367.02-3.608-.136M71.548.824c.44-.358.997-.128 1.437-.337l-1.664.207.227.13" transform="translate(-490 -48) translate(490 48)"></path>
                <path fill="#113F77" d="M92.105 14.245c.988-.3 2.26.32 3.5.245l.543.97c1.393-.089.716-.65 1.753-.96 1.138.73 3.776.586 4.343.706.36.462-.557.49-.783.707 1.604-.05 1.59-.98 3.559-.866l.015.24c4.752-.93 10.773-.592 15.864-2.389-.36.015-.302-.183-.467-.334 5.4-.906 11.522-3.51 14.284-7.186-2.507 1.543-7.354 2.007-9.754 4.161-1.166-.225-2.614.887-3.233.1-4.087.414-5.584 2.045-9.652 2.258-.58-.128-.309-.577-.483-.983l3.114-.594-1.916-.246c.797-.437 2.805-.262 2.96-1.063-2.619 1.183-6.942.554-9.354 1.409 1.11.255 2.517.089 3.838.224.582.31 1.494.423 1.446.866-3.84 1.188-7.112.558-11.054.367-1-.045-2.33-.31-2.427-.742.665-.053.232-.464.786-.586-1.433.151-.361 1.48-2.355 1.021l.498-1.402c-.986 1.422-2.501-.613-4.007-.09-.354-.68.63-.8 1.695-.6-1.136-.522-1.444.28-2.39.038l1.195-1.002c-1.295.922-1.771-.643-2.265-1.168-.135.28.19 1.328-1.07.964-.511-.281-.165-.523-.255-.725-.138.287-.716.713-1.566.575-.068-.438.694-.502.84-.898-.645-.118-1.188-.127-1.582-.56-1.206.12-.049.603-.832.91-1.679-.628.11-1.448-.36-2.44 1.44-.319 3.199-.186 3.972-.324l-2.619-.196c.256-.449-1.569-1.16-.118-1.36-2.47-.975-5.698-.987-8.235-.95.325.221.76.392.64.685-1.318.086-1.085-.493-1.299-.884-.997.192-1.005 1.026-1.668 1.577-1.858-.929-2.184-.531-3.74-1.743l.014.85c-1.114-.807-1.407.415-2.636-.157-.056-.186.451-.365.866-.532-1.16.194-.989-.782-2.129-.537l.96-.872c-.897-.03-2.225.165-1.712-.602-1.618.805-4.348.367-6.312.888l.136-.726c-1.009.812-3.748 0-4.59 1.083l-.162-.291-1.953 1.056c-.908-.006-.683-1.127-.734-.817-1.989.4-3.541.52-4.88.381-.19 1.032-2.223 1.578-3.833 2.007-8.037.887-16.185 5.557-20.736 11.404-.77.794-1.007 2.648-1.547 3.872 1.287-.98 1.028-1.42 2.126-2.56 1.047-.621 2.086-.105 3.211-.247l-.91-.319c.799-1.5 1.05-.381 1.568-1.747l.747 1.106c-.048-.788 1.177-.93 1.717-.877l-.17-.998c1.056-.145 1.769-.173 2.416.397l-.496-.692c.568.279 3.231-1.787 2.84.016.17-.275.22-.766.82-.91l.423.735c.7-.524 1.533-1.051 1.925-.703-.354.366-.359.768-.358 1.17 3.376-1.107-.263-2.851 2.884-3.977l.119.536.649-.817 1.055.462c.736-2.148 4.653-.872 6.53-2.09.784-.314 1.993.751 3.502.47l-.173-.827c1.317.654 6.001 1.089 7.123 3.034 1.155-.625-.12-.18-.097-.844 2.28-.824 2.425.5 3.576 1.02 1.404-.39-1.047-.341-.28-.96 2.103.673 1.798-.941 4.432-.223.227.49-.713.28-1.007.574 1.929-.78 5.388.145 8.194.31 3.108 1.035 7.755 2.077 11.278 3.603l.132-.282c1.358 1.117 3.173.784 4.88 1.536l-.769-.635" transform="translate(-490 -48) translate(490 48)"></path>
                <path fill="#B1CA37" d="M80.008 9.264c-1.06.234-2.1-.544-3.435-.61l-.479-1.041c-1.466-.063-.804.579-1.906.786-1.11-.943-3.924-.751-4.502-.92-.363-.475.603-.48.85-.696-1.702.039-1.683.862-3.714.721l-.012-.244c-4.926.786-11.022.765-16.06 2.716.359-.032.31.171.481.316-5.285 1.38-11.49 3.933-13.786 8.182 2.308-1.895 7.173-2.557 9.417-4.876 1.214.3 2.548-1.091 3.22-.275 4.046-.561 5.486-2.289 9.559-2.619.584.121.32.579.501.992l-3.094.655 1.918.216c-.784.469-2.791.288-2.907 1.167 2.556-1.286 6.875-.69 9.283-1.57-1.104-.335-2.514-.077-3.836-.149-.584-.284-1.504-.5-1.462-.926 3.856-1.275 7.16-.582 11.165-.207 1.027.027 2.35.456 2.411.905-.673-.014-.27.447-.834.518 1.447-.014.48-1.47 2.46-.802l-.634 1.37c1.223-1.346 2.49.934 3.961.506.283.719-.704.752-1.74.451 1.073.63 1.46-.149 2.373.178l-1.285.905c1.376-.813 1.69.81 2.13 1.385.162-.27-.056-1.357 1.155-.876.48.331.113.544.182.755.165-.273.78-.656 1.615-.459.026.447-.737.449-.922.846.633.156 1.167.224 1.52.692 1.207-.016.104-.605.91-.848 1.608.78-.245 1.453.13 2.495-1.46.197-3.2-.083-3.989 0l2.595.412c-.296.431 1.454 1.308-.01 1.385 2.37 1.207 5.594 1.456 8.116 1.64-.305-.25-.722-.461-.577-.747 1.318.02 1.037.59 1.215 1 1.006-.101 1.093-.973 1.799-1.475 1.767 1.09 2.123.714 3.567 2.065l.058-.86c1.034.918 1.438-.33 2.607.357.04.192-.48.332-.904.467 1.167-.102.914.873 2.066.717l-1.024.805c.886.103 2.219.013 1.645.749 1.675-.684 4.343-.039 6.33-.382l-.199.723c1.074-.74 3.702.314 4.634-.69l.131.31 2.032-.89c.896.101.56 1.21.642.902 1.997-.188 3.542-.16 4.834.144.305-1.011 2.365-1.325 3.998-1.54 7.971.12 16.458-2.628 22.676-6.543.997-.45 1.864-2.123 2.828-3.093-1.565.466-1.482.977-2.927 1.66-1.217.206-2.017-.587-3.169-.813l.777.596c-1.245 1.214-1.157.001-2.077 1.187l-.393-1.295c-.19.79-1.426.593-1.952.395l-.115 1.022c-1.1-.203-1.794-.28-2.299-1.014l.315.802c-.488-.396-3.674 1.003-2.858-.691-.234.243-.395.725-1.031.75l-.264-.817c-.827.387-1.781.748-2.114.324.439-.296.528-.696.614-1.095-3.698.463-.308 2.888-3.678 3.465l-.03-.555-.788.698-.984-.617c-1.06 2.04-4.802.22-6.834 1.24-.823.212-1.91-.967-3.455-.853l.086.855c-1.252-.814-5.888-1.686-6.838-3.738-1.21.53.103.192.019.862-2.348.636-2.374-.716-3.48-1.344-1.434.272 1.016.437.195.994-2.038-.86-1.867.828-4.427-.128-.183-.514.732-.224 1.05-.496-1.987.624-5.342-.556-8.107-.962-2.991-1.275-7.49-2.712-10.82-4.536l-.157.278c-1.23-1.237-3.048-1.071-4.652-1.978l.69.709" transform="translate(-490 -48) translate(490 48)"></path>
                <path fill="#B1CA37" d="M55.353 14.803l.392.675 1.627-.694c-.755-.549-1.057.026-2.019.02M55.423 12.546L54.545 13.024 56.032 12.745 55.423 12.546M77.503 15.813l-.181-.18c-1.196-.21-2.239-.297-3.366-.331 1.191.086 2.288.245 3.547.51M152.41 46.822c1.235 1.44 2.47 2.37 4.517 2.37 1.619 0 3.62-.804 3.62-2.709 0-5.543-10.608-1.692-10.608-9.69 0-3.977 3.067-6.77 6.988-6.77 3.024 0 4.815.888 6.987 3.005l-2.428 2.666c-1.278-1.312-2.259-2.075-4.134-2.075-1.746 0-3.322.594-3.322 2.624 0 4.825 10.61 1.228 10.61 9.735 0 4.146-3.495 6.812-7.457 6.812-3.198 0-5.625-1.058-7.587-3.598l2.813-2.37M167.548 52.79L171.638 52.771 171.638 30.023 167.548 30.041 167.548 52.79M186.177 33.83c-4.091 0-7.116 3.599-7.116 7.618 0 3.937 3.324 7.533 7.288 7.533 4.429 0 7.753-2.919 7.753-7.533 0-4.613-3.495-7.617-7.925-7.617zm7.669 15.362c-2.043 2.328-4.644 3.598-7.84 3.598-6.221 0-10.95-5.458-11.036-11.427-.085-6.558 4.9-11.34 11.036-11.34 2.94 0 5.668 1.354 7.586 3.09V22.2l4.089-.007v30.538l-3.808.02-.027-3.56zM215.378 35.228c-.939-1.058-2.302-1.397-3.752-1.397-4.643 0-7.498 3.724-6.987 8.167l10.739-6.77zm-9.545 10.281c1.364 2.16 3.367 3.472 5.923 3.472 2.942 0 5.796-1.988 8.01-3.724l.81 4.273c-2.684 1.863-5.198 3.26-8.564 3.26-6.946 0-11.462-5.163-11.462-11.976 0-5.84 5.028-10.791 10.78-10.791 4.601 0 7.33 2.074 9.671 5.882l-15.168 9.604zM171.938 24.612c0 1.295-1.057 2.344-2.36 2.344s-2.36-1.05-2.36-2.344c0-1.295 1.057-2.344 2.36-2.344s2.36 1.05 2.36 2.344" transform="translate(-490 -48) translate(490 48)"></path>
                <path fill="#113F77" d="M17.297 53.903v-30.61l4.09.013v10.537h.257c1.065-1.735 3.664-2.708 6.22-2.708 4.39 0 8.48 2.074 8.48 7.194l-.014 15.534-4.076.04V38.921c0-3.173-2.258-4.19-4.772-4.19-3.239 0-6.094 1.947-6.094 7.256v11.934l-4.09-.018M42.425 44.452c0 3.005 1.747 4.53 4.687 4.53 2.812 0 5.283-1.058 5.283-4.53 0-2.708-2.427-3.976-4.984-3.976-2.43 0-4.986 1.184-4.986 3.976zM52.82 52.79v-2.963h-.084c-1.236 2.412-3.792 2.963-6.39 2.963-4.859 0-8.011-3.598-8.011-8.338 0-4.738 4.216-7.574 8.606-7.574 2.046 0 4.049.593 5.454 2.073v-1.65c0-3.173-1.917-3.47-5.113-3.47-1.789 0-4.09.127-6.305 1.227l1.107-4.19c1.491-.296 3.878-.845 5.88-.845 5.795 0 8.522 2.285 8.522 8.04l-.027 14.689-3.639.038zM59.274 52.79V30.7l4.09-.677v3.173h.085c1.234-2.2 3.834-3.173 6.39-3.173 4.39 0 8.48 2.074 8.48 7.448l.017 15.28-4.107.039V37.81c0-3.175-2.258-4.19-4.771-4.19-3.24 0-6.094 1.946-6.094 6.558l-.039 12.574-4.051.038M81.1 52.79V30.7l4.092-.677v3.173h.085c1.237-2.2 3.835-3.173 6.392-3.173 4.389 0 8.48 2.074 8.48 7.448l.005 15.28-4.096.039V37.81c0-3.175-2.259-4.19-4.774-4.19-3.237 0-6.092 1.946-6.092 6.558v12.574l-4.092.038M113.803 33.83c-4.261 0-7.627 3.428-7.627 7.576 0 4.146 3.366 7.575 7.627 7.575 4.31 0 7.683-3.429 7.683-7.575 0-4.148-3.374-7.575-7.683-7.575zm11.78 7.576c0 6.431-5.378 11.384-11.78 11.384-6.393 0-11.72-4.953-11.72-11.384 0-6.433 5.327-11.383 11.72-11.383 6.402 0 11.78 4.95 11.78 11.383z" transform="translate(-490 -48) translate(490 48)"></path>
                <g transform="translate(-490 -48) translate(490 48) translate(0 29.383)">
                    <mask id="77rk0s4uyb" fill="#fff">
                        <use xlink:href="#198nycvrza"></use>
                    </mask>
                    <path fill="#113F77" d="M127.48 23.407V1.317l4.088-.677v3.174h.084c1.237-2.2 3.837-3.174 6.393-3.174 4.389 0 8.48 2.074 8.48 7.448l-.028 15.281-4.063.038V8.427c0-3.174-2.257-4.19-4.773-4.19-3.237 0-6.093 1.946-6.093 6.558l-.082 12.574-4.007.038M2.874 17.307C4.138 18.778 5.4 19.73 7.492 19.73c1.655 0 3.701-.822 3.701-2.768 0-5.669-10.846-1.732-10.846-9.908C.347 2.988 3.484.132 7.492.132c3.092 0 4.921.91 7.143 3.072L12.153 5.93c-1.307-1.34-2.31-2.12-4.226-2.12-1.786 0-3.398.606-3.398 2.683 0 4.932 10.847 1.255 10.847 9.949 0 4.24-3.572 6.966-7.623 6.966-3.267 0-5.75-1.08-7.753-3.677l2.874-2.423" mask="url(#77rk0s4uyb)"></path>
                </g>
                <path fill="#214175" d="M46.599 57.143L45.847 57.141 45.847 64.7 49.28 64.7 49.288 63.953 46.599 63.953 46.599 57.143M52.5 64.023c-1.13 0-2.083-.977-2.083-2.133 0-1.156.954-2.133 2.083-2.133 1.13 0 2.083.977 2.083 2.133 0 1.156-.954 2.133-2.083 2.133zm0-4.97c-1.67 0-2.793 1.467-2.793 2.837s1.122 2.837 2.793 2.837c1.67 0 2.792-1.467 2.792-2.837s-1.122-2.837-2.792-2.837zM58.51 59.053c-.586 0-1.208.337-1.528.81v-.82l-.709.018v5.63l.709-.005v-3.582c0-.962.924-1.41 1.549-1.41.847 0 1.313.406 1.313 1.144v3.853l.71-.005v-3.71c0-1.258-.707-1.923-2.045-1.923M65.48 61.083c0 .823-.815 1.315-1.602 1.315-.761 0-1.57-.461-1.57-1.315 0-.857.803-1.369 1.58-1.369.783 0 1.592.512 1.592 1.369zm.646-1.498l.023-.007.208-.72-.072.015c-.816.165-1.436.22-2.08.19-.11-.005-.22-.01-.327-.01-1.342 0-2.28.847-2.28 2.061 0 .595.448 1.26 1.027 1.532l-.24.751.086-.032c.527-.198.904-.305 1.385-.305.815 0 1.688.6 1.688 1.495 0 .774-.9 1.294-1.741 1.294-.916 0-1.51-.542-1.923-1.015l-.028-.03-.539.401.027.035c.627.835 1.505 1.313 2.41 1.313 1.213 0 2.503-.73 2.503-2.083 0-.772-.402-1.378-1.166-1.76.663-.301 1.102-.948 1.102-1.638 0-.527-.242-.994-.738-1.424.064.009.128.013.191.013.177 0 .3-.019.484-.076zM70.005 56.772c-1.043 0-2.108.22-2.108 1.85v.508h-.733l-.006.704h.739v4.853l.709-.001v-4.852h1.53v-.704h-1.53v-.381c0-1.038.134-1.262 1.56-1.272h.057l-.183-.705h-.035M73.181 64.023c-1.129 0-2.083-.977-2.083-2.133 0-1.156.954-2.133 2.083-2.133 1.13 0 2.083.977 2.083 2.133 0 1.156-.953 2.133-2.083 2.133zm0-4.97c-1.67 0-2.793 1.467-2.793 2.837s1.123 2.837 2.793 2.837c1.67 0 2.793-1.467 2.793-2.837s-1.122-2.837-2.793-2.837zM77.653 60.089v-1.096l-.71-.021v5.715l.71.004v-2.862c0-1.25.765-2.122 1.452-2.122.085 0 .177 0 .239.01l.035.006.307-.72h-.068c-1.046 0-1.612.313-1.965 1.086M84.9 61.9c0 1.15-.97 2.123-2.116 2.123-1.24 0-2.105-.886-2.105-2.154 0-1.02.837-2.112 2.084-2.112 1.258 0 2.136.881 2.136 2.143zm0-1.844c-.435-.472-1.139-1.003-2.106-1.003-1.583 0-2.824 1.237-2.824 2.816 0 1.656 1.197 2.858 2.846 2.858.897 0 1.686-.482 2.083-.963v.927h.71v-7.55h-.71v2.915zM86.722 66.553L87.413 66.553 88.553 63.619 87.693 63.624 86.722 66.553M95.914 59.405c0 .943-.472 1.506-1.26 1.506h-.876v-2.938h.886c.748 0 1.25.74 1.25 1.432zm.816 0c0-1.263-.918-2.179-2.183-2.179h-1.52v7.465l.751-.005v-3.528l2.701 3.51.023.029 1.071-.006-2.55-3.175c1.055-.215 1.707-1.018 1.707-2.111zM100.332 64.023c-1.13 0-2.084-.977-2.084-2.133 0-1.156.955-2.133 2.084-2.133 1.13 0 2.083.977 2.083 2.133 0 1.156-.954 2.133-2.083 2.133zm0-4.97c-1.67 0-2.793 1.467-2.793 2.837s1.122 2.837 2.793 2.837c1.67 0 2.792-1.467 2.792-2.837s-1.122-2.837-2.792-2.837zM105.736 61.495c-.633-.166-1.178-.31-1.178-.88 0-.633.58-.858 1.078-.858.41 0 .797.151 1.256.49l.037.027.405-.561-.036-.026c-.512-.36-.957-.634-1.63-.634-.904 0-1.82.547-1.82 1.594 0 1.046.864 1.292 1.626 1.509.648.184 1.208.343 1.208.923 0 .696-.598.944-1.11.944-.59 0-.942-.22-1.317-.572l-.029-.028-.535.447.029.034c.446.523 1.07.823 1.713.823.946 0 1.958-.441 1.958-1.68 0-1.117-.88-1.348-1.655-1.552M111.122 59.757c.725 0 1.192.271 1.457.499l.036.03.442-.573-.04-.026c-.605-.41-1.267-.634-1.864-.634-1.44 0-2.931 1.04-2.931 2.784 0 1.648 1.21 2.89 2.814 2.89.73 0 1.535-.284 1.956-.692l.028-.028-.437-.543-.034.026c-.458.349-.984.533-1.522.533h-.044c-1.132 0-2.052-.948-2.052-2.112 0-1.248.921-2.154 2.19-2.154M116.586 64.023c-1.13 0-2.083-.977-2.083-2.133 0-1.156.954-2.133 2.083-2.133 1.13 0 2.084.977 2.084 2.133 0 1.156-.955 2.133-2.084 2.133zm0-4.97c-1.67 0-2.793 1.467-2.793 2.837s1.123 2.837 2.793 2.837c1.67 0 2.792-1.467 2.792-2.837s-1.121-2.837-2.792-2.837zM125.675 59.053c-.573 0-1.153.323-1.528.846-.391-.573-.74-.846-1.573-.846-.473 0-1.135.336-1.41.825v-.836l-.709.003v5.646l.71-.005v-3.433c0-1.006.489-1.56 1.377-1.56.641 0 1.089.454 1.089 1.103v3.895l.71-.005v-3.433c0-1.006.489-1.56 1.377-1.56.641 0 1.089.454 1.089 1.103v3.895l.71-.005v-4.018c0-1.011-.689-1.615-1.842-1.615M134.262 59.053c-.573 0-1.153.323-1.528.846-.391-.573-.74-.846-1.573-.846-.473 0-1.135.336-1.41.825v-.836l-.708.003v5.646l.709-.005v-3.433c0-1.006.489-1.56 1.377-1.56.642 0 1.09.454 1.09 1.103v3.895l.709-.005v-3.433c0-1.006.489-1.56 1.377-1.56.641 0 1.089.454 1.089 1.103v3.895l.71-.005v-4.018c0-1.011-.69-1.615-1.842-1.615M139.973 64.023c-1.13 0-2.084-.977-2.084-2.133 0-1.156.955-2.133 2.084-2.133 1.13 0 2.083.977 2.083 2.133 0 1.156-.954 2.133-2.083 2.133zm0-4.97c-1.67 0-2.793 1.467-2.793 2.837s1.122 2.837 2.793 2.837c1.67 0 2.793-1.467 2.793-2.837s-1.123-2.837-2.793-2.837zM145.983 59.053c-.586 0-1.208.337-1.528.81v-.891h-.709v5.719l.71-.005v-3.582c0-.962.924-1.41 1.548-1.41.847 0 1.314.406 1.314 1.144v3.853l.709-.005v-3.71c0-1.258-.707-1.923-2.044-1.923M155.769 62.723c-.13.112-.26.245-.398.387-.399.407-.85.87-1.39.87-.65 0-1.142-.474-1.142-1.103 0-.7.46-1.112.948-1.548.15-.135.307-.274.45-.424l1.532 1.818zm-1.082-5.026c.467 0 .832.307.832.699 0 .654-.578 1.114-1.044 1.485l-.126.101c-.264-.287-.537-.793-.537-1.267 0-.638.327-1.018.875-1.018zm2.887 3.292l-1.333 1.292-1.484-1.8c.113-.112.237-.224.365-.338.518-.466 1.106-.994 1.106-1.726 0-.84-.772-1.361-1.488-1.361-.995 0-1.637.642-1.637 1.637 0 .539.233 1.087.712 1.675l-.25.247c-.09.086-.181.17-.272.252-.598.547-1.163 1.064-1.163 1.979 0 1.065.783 1.839 1.862 1.839.783 0 1.32-.545 1.84-1.072.12-.121.239-.241.359-.353l1.202 1.438.866.005-1.576-1.918 1.372-1.33-.48-.466zM164.377 60.43c-.86-.277-1.604-.516-1.604-1.312 0-.97.79-1.315 1.528-1.315.596 0 1 .253 1.499.69l.034.03.46-.554-.025-.028c-.503-.554-1.239-.885-1.968-.885-1.167 0-2.344.65-2.344 2.104 0 1.371 1.098 1.71 2.067 2.009.873.268 1.697.523 1.697 1.454 0 .85-.596 1.4-1.517 1.4-.792 0-1.325-.3-1.78-1l-.027-.04-.582.457.02.033c.5.848 1.315 1.296 2.358 1.296 1.38 0 2.344-.908 2.344-2.21 0-1.436-1.147-1.805-2.16-2.13M170.096 64.023c-1.129 0-2.083-.977-2.083-2.133 0-1.156.954-2.133 2.083-2.133 1.13 0 2.084.977 2.084 2.133 0 1.156-.955 2.133-2.084 2.133zm0-4.97c-1.67 0-2.793 1.467-2.793 2.837s1.123 2.837 2.793 2.837c1.67 0 2.793-1.467 2.793-2.837s-1.122-2.837-2.793-2.837zM177.44 61.624c0 2.06-.587 2.462-1.601 2.462-.848 0-1.26-.475-1.26-1.453v-3.676l-.705.015-.005 3.736c0 1.34.645 2.02 1.916 2.02.828 0 1.427-.428 1.656-.835v.798l.71-.005v-5.714h-.71v2.652M181.303 63.98c-.669 0-.918-.23-.918-.848v-3.248h1.455v-.704h-1.455v-1.287l-.71-.001v1.288h-.735l.007.704h.729v3.238c0 .993.574 1.563 1.574 1.563.192 0 .385-.031.564-.065l.036-.007v-.66l-.05.006c-.168.021-.328.021-.497.021M184.96 59.053c-.639 0-1.233.282-1.528.706V57.14h-.708v7.55l.708-.005v-3.582c0-.962.925-1.41 1.55-1.41.847 0 1.313.406 1.313 1.144v3.853l.71-.005v-3.71c0-1.258-.707-1.923-2.045-1.923M192.244 57.143L191.492 57.141 191.492 64.7 194.929 64.7 194.933 63.953 192.244 63.953 192.244 57.143M198.22 59.757c.42 0 .808.15 1.075.415l-3.183 2.028c-.024-.131-.029-.267-.029-.363 0-1.186.919-2.08 2.137-2.08zm2.157.562c-.317-.61-1.128-1.266-2.157-1.266-1.649 0-2.846 1.166-2.846 2.773 0 1.681 1.188 2.901 2.825 2.901.62 0 1.513-.263 2.033-.798v-.838l-.073.06c-.718.594-1.355.872-2.003.872-.945 0-1.623-.71-1.847-1.181l4.087-2.487-.019-.036zM201.619 64.687L202.328 64.692 202.328 58.993 201.619 58.995 201.619 64.687M205.78 63.98c-.668 0-.917-.23-.917-.848v-3.248h1.454v-.704h-1.454v-1.302h-.71v1.302h-.557l-.171.704h.728v3.238c0 .993.574 1.563 1.574 1.563.193 0 .385-.031.564-.065l.037-.007v-.66l-.05.006c-.169.021-.328.021-.497.021M207.9 60.089v-1.096l-.71-.021v5.715l.71.005V61.83c0-1.25.765-2.122 1.452-2.122.084-.001.176 0 .239.01l.034.006.308-.72h-.067c-1.047 0-1.614.313-1.966 1.086M210.741 64.687L211.45 64.692 211.45 58.993 210.741 58.995 210.741 64.687M218.398 59.053c-.573 0-1.153.323-1.528.846-.391-.573-.74-.846-1.573-.846-.473 0-1.134.336-1.41.825v-.906h-.709v5.719l.71-.004v-3.434c0-1.006.49-1.56 1.377-1.56.642 0 1.09.454 1.09 1.103v3.895l.703-.004.005-3.434c0-1.006.49-1.56 1.378-1.56.641 0 1.089.454 1.089 1.103v3.895l.709-.004v-4.019c0-1.011-.688-1.615-1.84-1.615" transform="translate(-490 -48) translate(490 48)"></path>
            </g>
        </g>
    </g>
</svg>