<svg width="78.51mm" height="16.198mm" version="1.1" viewBox="0 0 78.51 16.198" xmlns="http://www.w3.org/2000/svg"><defs><clipPath id="clipPath6029"><path d="m487.14 1062.8 1.7816 2.306-2.9516 1.881c-2.9391 2.083-5.1565 5.122-6.2409 8.564-0.5449 1.724-0.8017 3.511-0.7601 5.313 0.0401 1.862 0.3997 3.699 1.0672 5.463 1.2367 3.27 3.4329 6.023 6.35 7.958 2.8581 1.894 6.1756 2.863 9.5937 2.803 1.8978-0.034 3.7753-0.391 5.5734-1.063 0.8912-0.332 1.7542-0.739 2.5739-1.217l-1.0867-1.39-1.6788-2.095 3.4549-2.189c2.9344-2.079 5.1455-5.116 6.2283-8.554 0.545-1.724 0.7994-3.51 0.7585-5.307-0.0424-1.86-0.3996-3.695-1.0647-5.455-1.2383-3.272-3.4322-6.022-6.3461-7.953-2.855-1.893-6.171-2.86-9.5843-2.799-1.8947 0.033-3.7737 0.39-5.5703 1.06-0.8708 0.324-1.996 0.877-2.9688 1.45zm27.426 19.226c-1.4039 4.169-4.0265 7.846-7.4226 10.427l2.5755 3.396-0.5159 0.414c-1.6057 1.289-4.0014 2.612-6.2518 3.454-2.2214 0.828-4.5511 1.27-6.8997 1.314-8.7315 0.155-16.663-5.196-19.734-13.319-3.2131-8.498-0.4107-18.079 6.8148-23.545l-2.3925-3.389 0.4963-0.4c1.6528-1.33 4.423-3.13 6.6059-3.942 2.0722-0.773 4.2378-1.213 6.4301-1.301 0.1547-0.01 0.3102-0.01 0.4657-0.014 8.7229-0.156 16.648 5.193 19.717 13.31 1.5995 4.231 1.6403 9.061 0.1107 13.595z" clip-rule="evenodd"/></clipPath><clipPath id="clipPath6033"><path d="m475 1054.7h223v46.266h-223z"/></clipPath><clipPath id="clipPath6021"><path d="m585.75 1097.2c0 0.348 0.2332 0.579 0.5834 0.579h7.2977c0.4665 0 0.7005-0.173 0.8175-0.579l6.5965-24.753h0.2913v24.753c0 0.348 0.2332 0.579 0.5842 0.579h5.546c0.3502 0 0.5834-0.231 0.5834-0.579v-38.259c0-0.347-0.2332-0.578-0.5834-0.578h-7.0065c-0.4656 0-0.6988 0.174-0.8166 0.578l-6.8886 24.752h-0.2914v-24.752c0-0.347-0.234-0.578-0.5842-0.578h-5.5459c-0.3502 0-0.5834 0.231-0.5834 0.578z" clip-rule="evenodd"/></clipPath><clipPath id="clipPath6025"><path d="m475 1054.7h223v46.266h-223z"/></clipPath><clipPath id="clipPath6013"><path d="m573.57 1097.2c0 0.348 0.2333 0.579 0.5827 0.579h6.4819c0.3494 0 0.5826-0.231 0.5826-0.579v-38.259c0-0.347-0.2332-0.578-0.5826-0.578h-6.4819c-0.3494 0-0.5827 0.231-0.5827 0.578z" clip-rule="evenodd"/></clipPath><clipPath id="clipPath6017"><path d="m475 1054.7h223v46.266h-223z"/></clipPath><clipPath id="clipPath6005"><path d="m561.46 1085.4c0 4.464-1.2846 5.738-4.2613 5.738h-1.6937c-0.2332 0-0.3494-0.115-0.3494-0.347v-10.782c0-0.231 0.1162-0.347 0.3494-0.347h1.6937c2.9767 0 4.2613 1.273 4.2613 5.738zm-13.368-27.013c-0.351 0-0.5842 0.232-0.5842 0.58v38.258c0 0.348 0.2332 0.58 0.5842 0.58h9.3401c7.2389 0 11.675-3.421 11.675-12.405 0-8.927-4.6108-12.405-11.675-12.405h-1.9269c-0.2332 0-0.3494-0.116-0.3494-0.348v-13.68c0-0.348-0.234-0.58-0.5834-0.58z" clip-rule="evenodd"/></clipPath><clipPath id="clipPath6009"><path d="m475 1054.7h223v46.266h-223z"/></clipPath><clipPath id="clipPath5997"><path d="m531.97 1057.9c-7.1815 0-10.625 3.768-10.742 10.551 0 0.348 0.1178 0.579 0.468 0.638l6.2463 0.984c0.4091 0.059 0.6423-0.115 0.6423-0.463 0.1162-3.652 1.1676-5.101 3.4447-5.101 2.1602 0 3.1519 1.101 3.1519 4.695 0 3.478-0.7004 4.696-3.6772 5.855l-2.3949 0.928c-5.604 2.145-7.5301 5.1-7.5301 11.419 0 7.13 3.4439 10.955 10.508 10.955 6.9483 0 10.217-3.594 10.508-9.796 0-0.348-0.1743-0.58-0.5261-0.638l-5.9542-0.927c-0.3494-0.058-0.6415 0.116-0.6415 0.463-0.0581 2.841-1.0514 4.29-3.1534 4.29-2.0424 0-3.0349-1.275-3.0349-3.942 0-2.956 0.6415-3.883 3.7368-5.101l2.3934-0.927c5.4289-2.087 7.5309-4.985 7.5309-11.651 0-8.057-3.0937-12.232-10.976-12.232" clip-rule="evenodd"/></clipPath><clipPath id="clipPath6001"><path d="m475 1054.7h223v46.266h-223z"/></clipPath><clipPath id="clipPath5989"><path d="m687.84 1064.1c1.1621 0 1.8602 0.576 2.2088 1.558 0.1736 0.518 0.2317 1.039 0.2317 4.154 0 3.117-0.0581 3.579-0.2317 4.098-0.3486 0.981-1.0467 1.557-2.2088 1.557-1.1613 0-1.8601-0.576-2.2088-1.557-0.1735-0.519-0.2308-0.981-0.2308-4.098 0-3.115 0.0573-3.636 0.2308-4.154 0.3487-0.982 1.0475-1.558 2.2088-1.558m2.2088 19.274c0.1736 0.52 0.2317 1.211 0.2317 3.406 0 2.191-0.0581 2.826-0.2317 3.346-0.3486 1.038-1.0467 1.558-2.2088 1.558-1.1613 0-1.8601-0.52-2.2088-1.558-0.1735-0.52-0.2308-1.155-0.2308-3.346 0-2.195 0.0573-2.886 0.2308-3.406 0.3487-1.038 1.0475-1.558 2.2088-1.558 1.1621 0 1.8602 0.52 2.2088 1.558m-11.915-13.677c0 2.944 0.117 4.097 0.5246 5.367 0.5229 1.616 1.5099 2.886 2.7301 3.693v0.116c-1.2783 0.807-2.2072 2.135-2.7301 3.75-0.4076 1.155-0.5246 2.367-0.5246 4.387 0 2.654 0.1743 3.981 0.5246 5.135 1.2194 3.751 4.3571 5.887 9.1814 5.887 4.8252 0 7.9636-2.136 9.1823-5.887 0.3502-1.154 0.5237-2.481 0.5237-5.135 0-2.02-0.1735-3.232-0.5237-4.387-0.523-1.615-1.3938-2.943-2.7294-3.75v-0.116c1.2775-0.807 2.2064-2.077 2.7294-3.693 0.4067-1.27 0.5237-2.423 0.5237-5.367 0-3.636-0.1735-4.905-0.5237-6.059-1.2187-3.752-4.3571-5.888-9.1823-5.888-4.8243 0-7.962 2.136-9.1814 5.888-0.3503 1.154-0.5246 2.423-0.5246 6.059" clip-rule="evenodd"/></clipPath><clipPath id="clipPath5993"><path d="m475 1054.7h223v46.266h-223z"/></clipPath><clipPath id="clipPath5981"><path d="m653.79 1067.8c0 0.405 0.1743 0.635 0.5794 0.693l5.813 0.577c0.4059 0.058 0.6972-0.116 0.6972-0.577 0-1.904 0.0589-2.424 0.1751-2.886 0.3487-1.039 1.0459-1.558 2.2662-1.558 1.1629 0 1.8601 0.462 2.208 1.5 0.1751 0.462 0.2332 1.04 0.2332 4.097 0 3.117-0.0581 3.694-0.2332 4.099-0.3479 1.095-1.1621 1.442-2.5575 1.442h-0.8708c-0.3478 0-0.5818 0.231-0.5818 0.577v5.367c0 0.347 0.234 0.577 0.5818 0.577h0.9297c1.3365 0 2.1507 0.347 2.4986 1.385 0.1751 0.405 0.2332 0.923 0.2332 3.809 0 2.192-0.0581 2.771-0.2332 3.232-0.3479 1.038-1.0451 1.499-2.208 1.499-1.2203 0-1.9175-0.518-2.2662-1.557-0.1162-0.462-0.1751-0.982-0.1751-2.885 0-0.462-0.2913-0.635-0.6972-0.578l-5.813 0.578c-0.4051 0.056-0.5794 0.288-0.5794 0.692 0 1.79 0.1743 3.117 0.5221 4.27 1.221 3.694 4.3022 5.829 9.0661 5.829 4.9405 0 7.9047-2.077 9.1249-5.77 0.3494-1.097 0.5238-2.598 0.5238-5.31 0-2.597-0.1155-3.635-0.406-4.56-0.5237-1.614-1.5704-2.711-3.0231-3.578v-0.114c1.5116-0.866 2.4994-1.904 3.0231-3.578 0.2905-0.924 0.406-1.906 0.406-5.482 0-3.521-0.1744-5.022-0.5238-6.118-1.2202-3.693-4.2425-5.771-9.1249-5.771-4.7639 0-7.8451 2.136-9.0661 5.828-0.3478 1.155-0.5221 2.482-0.5221 4.271" clip-rule="evenodd"/></clipPath><clipPath id="clipPath5985"><path d="m475 1054.7h223v46.266h-223z"/></clipPath><clipPath id="clipPath5973"><path d="m639.71 1064.1c1.221 0 1.9183 0.576 2.2088 1.499 0.1744 0.577 0.2325 1.271 0.2325 12.292 0 11.022-0.0581 11.715-0.2325 12.292-0.2905 0.925-1.0467 1.501-2.2088 1.501-1.1613 0-1.9182-0.576-2.2088-1.501-0.1751-0.577-0.2324-1.27-0.2324-12.292 0-11.021 0.0573-11.715 0.2324-12.292 0.2906-0.923 1.0475-1.499 2.2088-1.499m-9.7633 13.791c0 11.254 0.2317 12.811 0.6965 14.254 1.221 3.81 4.4176 5.887 9.0668 5.887 4.6493 0 7.9629-2.02 9.1258-5.887 0.464-1.443 0.6391-3 0.6391-14.254 0-11.252-0.1751-12.81-0.6391-14.253-1.1629-3.867-4.4765-5.888-9.1258-5.888-4.6492 0-7.9039 2.078-9.1249 5.888-0.4649 1.443-0.6384 3.001-0.6384 14.253" clip-rule="evenodd"/></clipPath><clipPath id="clipPath5977"><path d="m475 1054.7h223v46.266h-223z"/></clipPath><clipPath id="clipPath5965"><path d="m617.39 1089.3h-0.1154l-4.9398-3.405c-0.2921-0.231-0.6407-0.115-0.6407 0.347v6.231c0 0.405 0.117 0.636 0.523 0.925l5.114 3.75c0.3502 0.23 0.5819 0.347 0.9894 0.347h5.7525c0.3502 0 0.5818-0.231 0.5818-0.577v-38.088c0-0.347-0.2316-0.577-0.5818-0.577h-6.1019c-0.3479 0-0.5811 0.23-0.5811 0.577z" clip-rule="evenodd"/></clipPath><clipPath id="clipPath5969"><path d="m475 1054.7h223v46.266h-223z"/></clipPath></defs><g transform="translate(-21.977 -131.28)"><g transform="matrix(.35278 0 0 -.35278 -145.59 519.69)" clip-path="url(#clipPath5965)"><g clip-path="url(#clipPath5969)"><path d="m606.7 1053.3h22.961v49.242h-22.961z"/></g></g><g transform="matrix(.35278 0 0 -.35278 -145.59 519.69)" clip-path="url(#clipPath5973)"><g clip-path="url(#clipPath5977)"><path d="m624.95 1052.7h29.528v50.282h-29.528z"/></g></g><g transform="matrix(.35278 0 0 -.35278 -145.59 519.69)" clip-path="url(#clipPath5981)"><g clip-path="url(#clipPath5985)"><path d="m648.79 1052.7h29.237v50.281h-29.237z"/></g></g><g transform="matrix(.35278 0 0 -.35278 -145.59 519.69)" clip-path="url(#clipPath5989)"><g clip-path="url(#clipPath5993)"><path d="m673.14 1052.7h29.412v50.282h-29.412z"/></g></g><g transform="matrix(.35278 0 0 -.35278 -145.59 519.69)" clip-path="url(#clipPath5997)"><g clip-path="url(#clipPath6001)"><path d="m516.23 1052.9h31.718v50.461h-31.718z" fill="#e34598"/></g></g><g transform="matrix(.35278 0 0 -.35278 -145.59 519.69)" clip-path="url(#clipPath6005)"><g clip-path="url(#clipPath6009)"><path d="m542.51 1053.4h31.6v49.418h-31.6z" fill="#e34598"/></g></g><g transform="matrix(.35278 0 0 -.35278 -145.59 519.69)" clip-path="url(#clipPath6013)"><g clip-path="url(#clipPath6017)"><path d="m568.57 1053.4h17.647v49.416h-17.647z" fill="#e34598"/></g></g><g transform="matrix(.35278 0 0 -.35278 -145.59 519.69)" clip-path="url(#clipPath6021)"><g clip-path="url(#clipPath6025)"><path d="m580.75 1053.4h32.3v49.416h-32.3z" fill="#e34598"/></g></g><g transform="matrix(.35278 0 0 -.35278 -145.59 519.69)" clip-path="url(#clipPath6029)"><g clip-path="url(#clipPath6033)"><path d="m470 1050.1h50.686v55.917h-50.686z" fill="#e34598"/></g></g></g></svg>
