<?xml version="1.0" encoding="UTF-8"?>
<!DOCTYPE svg PUBLIC "-//W3C//DTD SVG 1.1//EN" "http://www.w3.org/Graphics/SVG/1.1/DTD/svg11.dtd">
<svg xmlns="http://www.w3.org/2000/svg" version="1.1" width="272px" height="90px" style="shape-rendering:geometricPrecision; text-rendering:geometricPrecision; image-rendering:optimizeQuality; fill-rule:evenodd; clip-rule:evenodd" xmlns:xlink="http://www.w3.org/1999/xlink">
<g><path style="opacity:0.769" fill="#636063" d="M 261.5,25.5 C 258.421,27.0195 255.088,27.8529 251.5,28C 250.944,28.3826 250.611,28.8826 250.5,29.5C 249.167,29.5 247.833,29.5 246.5,29.5C 250.933,27.5464 255.433,25.5464 260,23.5C 260.717,24.0442 261.217,24.7109 261.5,25.5 Z"/></g>
<g><path style="opacity:1" fill="#a6d2ea" d="M 261.5,25.5 C 262.789,26.6366 263.789,27.9699 264.5,29.5C 263.624,29.3691 262.957,29.7025 262.5,30.5C 263.167,30.8333 263.833,31.1667 264.5,31.5C 262.667,34.2904 261.667,33.9571 261.5,30.5C 258.762,30.1489 256.096,29.4822 253.5,28.5C 253.167,28.8333 252.833,29.1667 252.5,29.5C 253.981,30.4803 255.315,31.647 256.5,33C 254.925,32.621 253.425,32.7877 252,33.5C 251.79,31.9419 251.29,30.6085 250.5,29.5C 250.611,28.8826 250.944,28.3826 251.5,28C 255.088,27.8529 258.421,27.0195 261.5,25.5 Z"/></g>
<g><path style="opacity:0.815" fill="#312420" d="M 19.5,31.5 C 20.8333,31.5 22.1667,31.5 23.5,31.5C 23.5,41.5 23.5,51.5 23.5,61.5C 22.1667,61.5 20.8333,61.5 19.5,61.5C 19.5,51.5 19.5,41.5 19.5,31.5 Z"/></g>
<g><path style="opacity:0.632" fill="#30241f" d="M 29.5,31.5 C 31.9477,31.0847 33.2811,32.0847 33.5,34.5C 31.5512,38.4659 29.5512,38.4659 27.5,34.5C 28.1925,33.4822 28.8592,32.4822 29.5,31.5 Z"/></g>
<g><path style="opacity:0.812" fill="#1d5a98" d="M 146.5,31.5 C 148.833,31.5 151.167,31.5 153.5,31.5C 153.334,36.1785 153.501,40.8452 154,45.5C 155.556,39.7758 159.056,38.1091 164.5,40.5C 162.525,43.6095 160.192,46.4428 157.5,49C 160.77,52.3594 163.437,56.1927 165.5,60.5C 162.833,61.8333 160.167,61.8333 157.5,60.5C 156.058,57.9504 154.892,55.2837 154,52.5C 153.502,55.4816 153.335,58.4816 153.5,61.5C 151.167,61.5 148.833,61.5 146.5,61.5C 146.5,51.5 146.5,41.5 146.5,31.5 Z"/></g>
<g><path style="opacity:0.823" fill="#1d5a98" d="M 216.5,31.5 C 218.833,31.5 221.167,31.5 223.5,31.5C 223.5,41.5 223.5,51.5 223.5,61.5C 221.179,61.7711 219.179,61.1045 217.5,59.5C 213.092,63.422 209.258,62.7553 206,57.5C 203.604,50.9233 204.77,45.0899 209.5,40C 211.624,38.4178 213.79,38.2512 216,39.5C 216.497,36.854 216.664,34.1873 216.5,31.5 Z M 213.5,44.5 C 214.496,44.4142 215.329,44.7476 216,45.5C 216.499,49.1516 216.665,52.8183 216.5,56.5C 215.167,56.5 213.833,56.5 212.5,56.5C 212.237,52.3998 212.57,48.3998 213.5,44.5 Z"/></g>
<g><path style="opacity:0.808" fill="#5e5d63" d="M 246.5,29.5 C 246.047,30.4584 245.381,31.2917 244.5,32C 245.756,32.4169 246.423,33.2502 246.5,34.5C 240.045,33.2398 240.045,31.5731 246.5,29.5 Z"/></g>
<g><path style="opacity:1" fill="#5c95be" d="M 264.5,29.5 C 265.5,29.8333 266.167,30.5 266.5,31.5C 266.404,33.1186 266.404,34.7853 266.5,36.5C 265.833,35.8333 265.167,35.1667 264.5,34.5C 262.872,35.5353 261.205,35.5353 259.5,34.5C 255.833,34.5 252.167,34.5 248.5,34.5C 247.833,34.5 247.167,34.5 246.5,34.5C 246.423,33.2502 245.756,32.4169 244.5,32C 245.381,31.2917 246.047,30.4584 246.5,29.5C 247.833,29.5 249.167,29.5 250.5,29.5C 251.29,30.6085 251.79,31.9419 252,33.5C 253.425,32.7877 254.925,32.621 256.5,33C 255.315,31.647 253.981,30.4803 252.5,29.5C 252.833,29.1667 253.167,28.8333 253.5,28.5C 256.096,29.4822 258.762,30.1489 261.5,30.5C 261.667,33.9571 262.667,34.2904 264.5,31.5C 263.833,31.1667 263.167,30.8333 262.5,30.5C 262.957,29.7025 263.624,29.3691 264.5,29.5 Z"/></g>
<g><path style="opacity:0.75" fill="#30231f" d="M -0.5,60.5 C -0.5,59.1667 -0.5,57.8333 -0.5,56.5C 2.79889,57.3761 6.13222,57.5428 9.5,57C 10.7596,55.1862 10.7596,53.3529 9.5,51.5C 5.71504,50.5818 2.38171,48.9151 -0.5,46.5C -0.5,43.8333 -0.5,41.1667 -0.5,38.5C 1.40296,35.4673 4.2363,34.1339 8,34.5C 12.2574,33.6925 14.4241,35.3592 14.5,39.5C 11.1485,38.4473 7.81513,38.4473 4.5,39.5C 3.25316,41.0421 3.25316,42.5421 4.5,44C 7.85533,45.1176 11.022,46.6176 14,48.5C 17.5216,56.4589 15.0216,61.1255 6.5,62.5C 4.14903,61.8266 1.8157,61.1599 -0.5,60.5 Z"/></g>
<g><path style="opacity:0.804" fill="#1d5a98" d="M 75.5,34.5 C 78.4475,34.2229 81.2809,34.5562 84,35.5C 84.7599,39.819 85.4265,44.1523 86,48.5C 87.029,43.8564 87.8623,39.1897 88.5,34.5C 91.1194,34.2317 93.6194,34.565 96,35.5C 98.6106,51.3467 100.111,51.0134 100.5,34.5C 102.833,34.5 105.167,34.5 107.5,34.5C 105.987,43.2202 104.154,51.8868 102,60.5C 99.6194,61.435 97.1194,61.7683 94.5,61.5C 93.6048,56.188 92.7714,50.8546 92,45.5C 91.2286,50.8546 90.3952,56.188 89.5,61.5C 86.8333,61.5 84.1667,61.5 81.5,61.5C 79.9714,52.3866 77.9714,43.3866 75.5,34.5 Z"/></g>
<g><path style="opacity:1" fill="#86bedf" d="M 266.5,31.5 C 267.965,32.4057 268.965,33.739 269.5,35.5C 269.9,37.8258 269.4,40.1591 268,42.5C 267.208,40.4127 266.041,38.5793 264.5,37C 262.347,36.9005 260.681,36.0672 259.5,34.5C 261.205,35.5353 262.872,35.5353 264.5,34.5C 265.167,35.1667 265.833,35.8333 266.5,36.5C 266.404,34.7853 266.404,33.1186 266.5,31.5 Z"/></g>
<g><path style="opacity:0.741" fill="#30231f" d="M 53.5,38.5 C 54.4511,39.9187 54.7845,41.5853 54.5,43.5C 51.2391,43.1005 50.5724,44.2671 52.5,47C 52.3852,48.8951 51.7185,50.5618 50.5,52C 47.2301,52.9948 43.8967,53.8281 40.5,54.5C 44.2348,55.1527 47.9015,55.9861 51.5,57C 55.236,64.3496 52.9026,68.1829 44.5,68.5C 38.6665,68.8358 36.1665,66.1691 37,60.5C 37.7504,59.8742 38.5838,59.3742 39.5,59C 36.8333,56.6667 36.8333,54.3333 39.5,52C 35.1977,47.2032 35.8644,43.2032 41.5,40C 44.2305,39.2716 46.8971,39.4383 49.5,40.5C 51.0255,40.0057 52.3588,39.339 53.5,38.5 Z M 42.5,43.5 C 44.1667,43.5 45.8333,43.5 47.5,43.5C 47.6621,45.5273 47.4955,47.5273 47,49.5C 44.1731,50.9986 42.3397,50.1653 41.5,47C 41.6483,45.7441 41.9816,44.5774 42.5,43.5 Z M 41.5,59.5 C 43.8568,59.3367 46.1902,59.5034 48.5,60C 49.5171,61.0495 49.6838,62.2161 49,63.5C 46.5991,64.6023 44.0991,64.769 41.5,64C 40.2721,62.5098 40.2721,61.0098 41.5,59.5 Z"/></g>
<g><path style="opacity:0.8" fill="#1d5a98" d="M 114.5,38.5 C 117.747,38.4152 120.581,39.4152 123,41.5C 124.354,45.3628 124.854,49.3628 124.5,53.5C 121.102,53.1796 117.768,53.513 114.5,54.5C 117.168,55.7378 119.834,55.7378 122.5,54.5C 123.318,56.1083 123.985,57.7749 124.5,59.5C 119.088,63.6491 113.921,63.3158 109,58.5C 107.455,53.9534 107.121,49.2867 108,44.5C 109.436,41.5581 111.603,39.5581 114.5,38.5 Z M 114.5,44.5 C 115.833,44.5 117.167,44.5 118.5,44.5C 118.5,45.5 118.5,46.5 118.5,47.5C 117.167,47.5 115.833,47.5 114.5,47.5C 114.5,46.5 114.5,45.5 114.5,44.5 Z"/></g>
<g><path style="opacity:0.798" fill="#1d5a98" d="M 133.5,38.5 C 136.747,38.4152 139.581,39.4152 142,41.5C 143.036,44.9707 143.869,48.4707 144.5,52C 140.976,53.0958 137.31,53.9291 133.5,54.5C 136.168,55.7378 138.834,55.7378 141.5,54.5C 142.318,56.1083 142.985,57.7749 143.5,59.5C 137.035,63.8456 131.535,62.8456 127,56.5C 126.333,52.5 126.333,48.5 127,44.5C 128.436,41.5581 130.603,39.5581 133.5,38.5 Z M 133.5,44.5 C 134.833,44.5 136.167,44.5 137.5,44.5C 137.5,45.5 137.5,46.5 137.5,47.5C 136.167,47.5 134.833,47.5 133.5,47.5C 133.5,46.5 133.5,45.5 133.5,44.5 Z"/></g>
<g><path style="opacity:0.787" fill="#1d5a98" d="M 171.5,38.5 C 180.663,39.1824 184.33,44.1824 182.5,53.5C 178.818,53.3347 175.152,53.5014 171.5,54C 174.131,56.4838 177.131,56.6505 180.5,54.5C 182.803,60.2103 180.803,62.877 174.5,62.5C 166.07,60.4326 162.904,55.0992 165,46.5C 166.001,42.8009 168.168,40.1342 171.5,38.5 Z M 172.5,44.5 C 173.5,44.5 174.5,44.5 175.5,44.5C 175.5,45.5 175.5,46.5 175.5,47.5C 174.127,47.6567 172.793,47.49 171.5,47C 172.252,46.3292 172.586,45.4959 172.5,44.5 Z"/></g>
<g><path style="opacity:0.808" fill="#1d5a98" d="M 194.5,38.5 C 197.961,38.1459 200.461,39.4792 202,42.5C 202.5,48.8246 202.666,55.1579 202.5,61.5C 200.167,61.5 197.833,61.5 195.5,61.5C 195.949,55.648 195.449,49.9813 194,44.5C 193.586,44.9574 193.086,45.2907 192.5,45.5C 191.217,50.521 191.217,55.521 192.5,60.5C 189.914,61.48 187.247,61.8134 184.5,61.5C 184.5,54.1667 184.5,46.8333 184.5,39.5C 187.144,39.1601 189.477,39.8267 191.5,41.5C 192.548,40.452 193.548,39.452 194.5,38.5 Z"/></g>
<g><path style="opacity:0.788" fill="#1d5a98" d="M 233.5,38.5 C 236.747,38.4152 239.581,39.4152 242,41.5C 243.354,45.3628 243.854,49.3628 243.5,53.5C 240.102,53.1796 236.768,53.513 233.5,54.5C 236.168,55.7378 238.834,55.7378 241.5,54.5C 242.318,56.1083 242.985,57.7749 243.5,59.5C 238.088,63.6491 232.921,63.3158 228,58.5C 225.363,53.9705 225.03,49.3038 227,44.5C 228.436,41.5581 230.603,39.5581 233.5,38.5 Z M 233.5,44.5 C 235.346,44.2222 236.68,44.8888 237.5,46.5C 236.311,47.4287 234.978,47.762 233.5,47.5C 233.5,46.5 233.5,45.5 233.5,44.5 Z"/></g>
<g><path style="opacity:0.682" fill="#30231f" d="M 28.5,39.5 C 30.1667,39.5 31.8333,39.5 33.5,39.5C 33.5,46.8333 33.5,54.1667 33.5,61.5C 31.8333,61.5 30.1667,61.5 28.5,61.5C 28.5,54.1667 28.5,46.8333 28.5,39.5 Z"/></g>
<g><path style="opacity:0.738" fill="#302320" d="M 60.5,39.5 C 70.8487,39.8059 74.6821,45.1392 72,55.5C 66.6194,64.8114 61.2861,64.8114 56,55.5C 54.3159,49.1146 55.8159,43.7813 60.5,39.5 Z M 61.5,43.5 C 63.4672,43.2606 65.3005,43.5939 67,44.5C 67.6667,48.5 67.6667,52.5 67,56.5C 65,59.1667 63,59.1667 61,56.5C 60.2316,52.0804 60.3982,47.7471 61.5,43.5 Z"/></g>
<g><path style="opacity:0.839" fill="#1c5a99" d="M 257.5,38.5 C 258.167,38.8333 258.833,39.1667 259.5,39.5C 260.72,41.0496 260.72,42.7163 259.5,44.5C 259.5,44.8333 259.5,45.1667 259.5,45.5C 257.703,45.9349 255.703,45.9349 253.5,45.5C 253.5,50.8333 253.5,56.1667 253.5,61.5C 251.167,61.5 248.833,61.5 246.5,61.5C 246.5,54.1667 246.5,46.8333 246.5,39.5C 249.044,39.1043 251.211,39.771 253,41.5C 254.129,39.8588 255.629,38.8588 257.5,38.5 Z"/></g>
<g><path style="opacity:1" fill="#3c4e65" d="M 261.5,25.5 C 262.922,25.7086 264.255,26.2086 265.5,27C 267.364,29.6877 269.364,32.1877 271.5,34.5C 271.5,37.8333 271.5,41.1667 271.5,44.5C 270.833,44.8333 270.167,45.1667 269.5,45.5C 267.716,46.7199 266.05,46.7199 264.5,45.5C 266.942,43.8607 267.109,41.8607 265,39.5C 263.667,38.8333 262.333,38.1667 261,37.5C 260.283,38.0442 259.783,38.7109 259.5,39.5C 258.833,39.1667 258.167,38.8333 257.5,38.5C 257.5,37.5 257.5,36.5 257.5,35.5C 254.287,35.81 251.287,35.4767 248.5,34.5C 252.167,34.5 255.833,34.5 259.5,34.5C 260.681,36.0672 262.347,36.9005 264.5,37C 266.041,38.5793 267.208,40.4127 268,42.5C 269.4,40.1591 269.9,37.8258 269.5,35.5C 268.965,33.739 267.965,32.4057 266.5,31.5C 266.167,30.5 265.5,29.8333 264.5,29.5C 263.789,27.9699 262.789,26.6366 261.5,25.5 Z"/></g>
<g><path style="opacity:0.929" fill="#524d52" d="M 259.5,44.5 C 261.099,44.2322 262.432,44.5655 263.5,45.5C 262.167,45.5 261.5,46.1667 261.5,47.5C 260.5,47.1667 259.833,46.5 259.5,45.5C 259.5,45.1667 259.5,44.8333 259.5,44.5 Z"/></g>
<g><path style="opacity:1" fill="#32537e" d="M 263.5,45.5 C 263.833,45.5 264.167,45.5 264.5,45.5C 266.05,46.7199 267.716,46.7199 269.5,45.5C 267.662,47.8069 265.662,50.1402 263.5,52.5C 262.438,50.9783 261.771,49.3117 261.5,47.5C 261.5,46.1667 262.167,45.5 263.5,45.5 Z"/></g>
</svg>
