<?xml version="1.0" encoding="UTF-8"?>
<!-- Generator: Adobe Illustrator 25.2.1, SVG Export Plug-In . SVG Version: 6.00 Build 0)  -->
<svg version="1.1" id="Layer_1" xmlns="http://www.w3.org/2000/svg" xmlns:xlink="http://www.w3.org/1999/xlink" x="0px" y="0px" viewBox="0 0 256.6 62.2" style="enable-background:new 0 0 256.6 62.2;" xml:space="preserve">
<style type="text/css">
	.st0{fill:#FFFFFF;}
</style>
<path class="st0" d="M113.8,49.4c-0.3-2.6,1.3-19.2-0.8-23.6c-1.7-3.6-6.4-5.7-10.4-5.7c-4.1,0-9.6,1-13.3,5.9c-2,2.6,0.1,7,3.6,6.8  c2.8,0,4-2.1,4.3-3.5c0.2-0.9-0.1-2.4-0.6-3.3c-0.6-0.9-0.5-1.3-0.2-1.4c7.6-3.6,10.5,1.8,10.5,6.2l0,3c-1.2,0.6-3.5,1.5-6.5,2.5  c-3.7,1.2-7.3,2.3-9.1,3.4c-1.9,1.3-3,2-4.2,4.8c-1.2,3.2-0.6,7.7,2.1,10c5.9,5.4,15.2,0.8,17.9-2.6c1.4,6,7.7,5.2,11.8,4.1V53  C115.3,52.7,113.8,51.7,113.8,49.4z M106.8,48.6c-3.2,4.5-12.2,6.6-12.6-1.4C94,44.3,95.3,40.1,107,37L106.8,48.6z"/>
<path class="st0" d="M247.2,45.8c-4.9,7.1-12,8.7-17,2.6c-3.1-3.9-3.3-12.2-2-17.1c0.5-1.9,2.5-7.5,8.1-7.5c3.3,0,4.1,1.7,4.5,2.6  c-3,2.5-1,7.9,3,7.7c2.4,0,4.4-2,4.4-4.4c0-9-12.1-10.9-18.8-7.6c-4.2,2-7.1,5.5-8.7,9.7c-2.4,6.3-1,15.4,3.2,20  c6.9,7.6,20,6.9,26.3-3.9L247.2,45.8z"/>
<g>
	<path class="st0" d="M183.6,49.4V21.6h-12.9v2.7c3.6,0.1,5.7,1.4,5.8,4.6l0,0.7v20.1c0,3-1.6,2.9-5,3.4v2.8h17.3v-2.8   C184.6,52.7,183.6,51.7,183.6,49.4z"/>
	<path class="st0" d="M179.7,5.4c-6.6,0.1-6.6,9.9,0,10C186.3,15.3,186.3,5.5,179.7,5.4z"/>
</g>
<path class="st0" d="M6.5,5.4v11.9l3.1,0c1.9-7.6,6.5-8.5,14.1-8.5v39.8c0.1,3.8-2.7,4-8.1,4.4l0,3H40l0-3c-5.4-0.3-8.3-0.5-8.1-4.4  V8.8c7.6,0,12.3,0.9,14.1,8.5l3.1,0V5.4H6.5z"/>
<path class="st0" d="M164.8,20.8c-1.8-0.1-3.8,0.5-5.7,1.5c-1.5,0.8-3,2-4.3,3.5v-4.1h-12.4v2.7c4.7,0,5.3,3,5.3,4.6v20.8  c0,2.6-1.3,3.1-5.2,3.4v2.8h18.8v-2.8c-5.7-0.7-6.5-1.4-6.5-3.8V30.1c1.5-2,3.6-3.6,5.2-4.1c0,0,0,0,0,0c0.9,5.2,8.8,4.5,8.8-0.8  C168.8,22.9,167,21,164.8,20.8z"/>
<path class="st0" d="M216.6,42.1c-2.4-5.1-9.5-6-14.1-8c-1.9-0.7-3.5-1.4-4.4-3.1c-3-7.3,7.6-9.1,11.8-4.8c1.7,1.6,2.5,3.3,3,5.7  h2.7l-0.5-10.8h-2.8l-0.6,1.3c-4.8-2.5-12.6-2.6-16.4,1.1c-3.3,2.8-4.1,7.9-2.2,11.6c3.2,6,11.5,5.7,16.5,9c3,2.3,2.5,6.5,0.6,8  c-6.3,4.5-14.3-0.6-16.2-8h-2.5v11.8h2.7l0.7-2.2c5.2,4,13.8,4.3,18.9,0C217.3,50.8,218.4,45.9,216.6,42.1z"/>
<path class="st0" d="M134.2,49.4V21.6h-12.9v2.7c3.6,0.1,5.7,1.4,5.8,4.6l0,0.7v20.1c0,3-1.6,2.9-5,3.4v2.8h17.3v-2.8  C135.2,52.7,134.2,51.7,134.2,49.4z"/>
<path class="st0" d="M130.3,15.4c6.6-0.1,6.6-9.9,0-10C123.7,5.5,123.7,15.3,130.3,15.4z"/>
<path class="st0" d="M79.3,49.2l0-27.6H66l0,2.8c3.9,0.1,6.2,1.3,6.2,4.4l0,0.7v0.1l0,0v18.1c-1.6,4.1-13.8,9.3-14-2l0-24.1H46.1  v2.8c3.1,0.1,4.9,1.3,5,4.4l0,0.7l0,15.4c0,15.4,14.4,13.3,19.6,8.1c0.4-0.4,1.1-1.1,1.5-1.5v4.4l12.4,0v-2.8  C80.6,53.1,79.3,51.5,79.3,49.2z"/>
<script xmlns=""/></svg>