<?xml version="1.0" encoding="UTF-8"?>
<!DOCTYPE svg PUBLIC "-//W3C//DTD SVG 1.1//EN" "http://www.w3.org/Graphics/SVG/1.1/DTD/svg11.dtd">
<svg xmlns="http://www.w3.org/2000/svg" version="1.1" width="291px" height="70px" style="shape-rendering:geometricPrecision; text-rendering:geometricPrecision; image-rendering:optimizeQuality; fill-rule:evenodd; clip-rule:evenodd" xmlns:xlink="http://www.w3.org/1999/xlink">
<g><path style="opacity:1" fill="#f9f9f9" d="M -0.5,-0.5 C 96.5,-0.5 193.5,-0.5 290.5,-0.5C 290.5,22.8333 290.5,46.1667 290.5,69.5C 244.833,69.5 199.167,69.5 153.5,69.5C 153.5,68.5 153.5,67.5 153.5,66.5C 155.167,66.5 156.833,66.5 158.5,66.5C 158.662,64.4727 158.495,62.4727 158,60.5C 156.644,59.6198 155.144,59.2865 153.5,59.5C 153.662,61.5273 153.495,63.5273 153,65.5C 151.5,64 150,62.5 148.5,61C 150.545,60.0705 151.379,58.5705 151,56.5C 149.333,58.1667 147.667,59.8333 146,61.5C 145.113,56.2729 144.613,56.4396 144.5,62C 144.667,63.5 144.833,65 145,66.5C 145.196,64.7139 146.029,63.3805 147.5,62.5C 148.99,65.0001 150.657,67.3335 152.5,69.5C 101.5,69.5 50.5,69.5 -0.5,69.5C -0.5,46.1667 -0.5,22.8333 -0.5,-0.5 Z"/></g>
<g><path style="opacity:1" fill="#131313" d="M 21.5,11.5 C 20.8339,16.8229 20.5006,22.3229 20.5,28C 20.5048,33.8762 21.1714,39.3762 22.5,44.5C 23.675,44.281 24.675,44.6143 25.5,45.5C 20.1667,46.8333 14.8333,46.8333 9.5,45.5C 10.6283,44.7379 11.7949,44.0712 13,43.5C 13.4998,32.8385 13.6665,22.1719 13.5,11.5C 10.4281,11.1826 7.42814,11.5159 4.5,12.5C 4.08138,13.6721 3.41471,14.6721 2.5,15.5C 1.51998,12.9135 1.18665,10.2469 1.5,7.5C 11.8333,7.5 22.1667,7.5 32.5,7.5C 32.8134,10.2469 32.48,12.9135 31.5,15.5C 30.7379,14.3717 30.0712,13.2051 29.5,12C 26.854,11.5026 24.1873,11.3359 21.5,11.5 Z"/></g>
<g><path style="opacity:1" fill="#a9a9a9" d="M 21.5,11.5 C 21.1901,22.5813 21.5234,33.5813 22.5,44.5C 21.1714,39.3762 20.5048,33.8762 20.5,28C 20.5006,22.3229 20.8339,16.8229 21.5,11.5 Z"/></g>
<g><path style="opacity:1" fill="#161616" d="M 120.5,44.5 C 115.944,46.4417 110.944,47.1083 105.5,46.5C 105.821,44.9519 106.821,44.2852 108.5,44.5C 108.424,41.0272 107.758,37.6939 106.5,34.5C 102.486,34.3345 98.4862,34.5012 94.5,35C 92.9239,37.9508 92.2572,41.1174 92.5,44.5C 94.4832,44.1568 95.8166,44.8235 96.5,46.5C 92.4862,46.6655 88.4862,46.4988 84.5,46C 85.056,45.6174 85.3893,45.1174 85.5,44.5C 86.3764,44.6309 87.0431,44.2975 87.5,43.5C 91.6346,32.9739 95.468,22.3072 99,11.5C 101.592,10.0183 103.925,10.3517 106,12.5C 109.556,23.0095 113.39,33.3428 117.5,43.5C 118.325,44.3857 119.325,44.719 120.5,44.5 Z"/></g>
<g><path style="opacity:1" fill="#666666" d="M 39.5,22.5 C 35.6286,22.185 31.9619,22.5184 28.5,23.5C 27.9569,23.44 27.6236,23.1067 27.5,22.5C 31.6493,21.1905 35.6493,21.1905 39.5,22.5 Z"/></g>
<g><path style="opacity:1" fill="#6e6e6e" d="M 148.5,23.5 C 145.5,22.1667 142.5,22.1667 139.5,23.5C 138.957,23.44 138.624,23.1067 138.5,22.5C 142.167,21.1667 145.833,21.1667 149.5,22.5C 149.376,23.1067 149.043,23.44 148.5,23.5 Z"/></g>
<g><path style="opacity:1" fill="#757575" d="M 267.5,22.5 C 267.5,22.1667 267.5,21.8333 267.5,21.5C 273.833,21.5 280.167,21.5 286.5,21.5C 286.5,23.5 286.5,25.5 286.5,27.5C 284.821,27.7148 283.821,27.0481 283.5,25.5C 284.117,25.6107 284.617,25.944 285,26.5C 285.49,25.2068 285.657,23.8734 285.5,22.5C 279.5,22.5 273.5,22.5 267.5,22.5 Z"/></g>
<g><path style="opacity:1" fill="#101010" d="M 28.5,23.5 C 31.9619,22.5184 35.6286,22.185 39.5,22.5C 38.791,23.404 37.791,23.7373 36.5,23.5C 36.5,26.5 36.5,29.5 36.5,32.5C 40.1667,32.5 43.8333,32.5 47.5,32.5C 48.4767,29.7131 48.81,26.7131 48.5,23.5C 48.6599,22.1074 50.9933,22.1074 55.5,23.5C 54.179,26.5982 53.5123,30.0982 53.5,34C 53.5761,38.0915 54.2428,41.9249 55.5,45.5C 52.3601,46.6408 49.0267,46.8075 45.5,46C 46.4162,45.6258 47.2496,45.1258 48,44.5C 48.498,41.5184 48.6646,38.5184 48.5,35.5C 44.5,35.5 40.5,35.5 36.5,35.5C 36.5,38.8333 36.5,42.1667 36.5,45.5C 35.8855,46.8551 33.2189,46.8551 28.5,45.5C 29.209,44.596 30.209,44.2627 31.5,44.5C 31.5,37.5 31.5,30.5 31.5,23.5C 30.5,23.5 29.5,23.5 28.5,23.5 Z"/></g>
<g><path style="opacity:1" fill="#e7e7e7" d="M 99.5,18.5 C 100.75,18.5774 101.583,19.244 102,20.5C 103.15,23.7679 103.984,27.1012 104.5,30.5C 101.833,30.5 99.1667,30.5 96.5,30.5C 97.5,26.5 98.5,22.5 99.5,18.5 Z"/></g>
<g><path style="opacity:1" fill="#151515" d="M 241.5,44.5 C 241.611,45.1174 241.944,45.6174 242.5,46C 237.845,46.4992 233.179,46.6658 228.5,46.5C 229.929,45.7658 230.929,44.5991 231.5,43C 230.528,40.8887 229.695,38.7221 229,36.5C 227.13,35.2565 224.964,34.5899 222.5,34.5C 220.5,34.8333 218.5,35.1667 216.5,35.5C 215.067,38.333 214.4,41.333 214.5,44.5C 215.263,45.2679 216.263,45.7679 217.5,46C 213.848,46.4986 210.182,46.6653 206.5,46.5C 207.688,45.6364 208.855,44.6364 210,43.5C 214.371,33.0976 217.871,22.4309 220.5,11.5C 222.806,11.0074 225.139,10.6741 227.5,10.5C 230.659,19.4882 233.826,28.4882 237,37.5C 238.054,40.314 239.554,42.6473 241.5,44.5 Z"/></g>
<g><path style="opacity:1" fill="#e6e6e6" d="M 226.5,30.5 C 224.167,30.5 221.833,30.5 219.5,30.5C 219.5,29.5 219.5,28.5 219.5,27.5C 219.899,24.3043 220.899,21.3043 222.5,18.5C 224.708,22.2096 226.042,26.2096 226.5,30.5 Z"/></g>
<g><path style="opacity:1" fill="#eeeeee" d="M 267.5,21.5 C 267.5,21.8333 267.5,22.1667 267.5,22.5C 268.5,23.1667 269.5,23.8333 270.5,24.5C 270.95,32.3278 270.283,39.9945 268.5,47.5C 267.71,46.3915 267.21,45.0581 267,43.5C 266.768,44.7375 266.268,45.7375 265.5,46.5C 264.994,42.9929 265.66,39.8263 267.5,37C 264.118,36.1764 260.784,36.343 257.5,37.5C 258.325,38.3857 259.325,38.719 260.5,38.5C 260.5,40.8333 260.5,43.1667 260.5,45.5C 249.141,45.5165 244.974,39.8498 248,28.5C 250.94,23.6802 255.107,22.3469 260.5,24.5C 262.535,25.5965 263.868,27.2632 264.5,29.5C 265.474,27.2573 265.808,24.924 265.5,22.5C 266.738,22.19 266.738,21.69 265.5,21C 266.437,20.3083 267.103,20.475 267.5,21.5 Z"/></g>
<g><path style="opacity:1" fill="#9d9d9d" d="M 55.5,23.5 C 50.9933,22.1074 48.6599,22.1074 48.5,23.5C 48.81,26.7131 48.4767,29.7131 47.5,32.5C 47.5,29.8333 47.5,27.1667 47.5,24.5C 45.6536,24.7778 44.3202,24.1112 43.5,22.5C 47.8333,21.1667 52.1667,21.1667 56.5,22.5C 56.3764,23.1067 56.0431,23.44 55.5,23.5 Z"/></g>
<g><path style="opacity:1" fill="#171717" d="M 57.5,46.5 C 57.5,46.1667 57.5,45.8333 57.5,45.5C 58.4959,45.5858 59.3292,45.2524 60,44.5C 60.6667,37.8333 60.6667,31.1667 60,24.5C 59.2496,23.8742 58.4162,23.3742 57.5,23C 63.4908,22.5005 69.4908,22.3338 75.5,22.5C 75.7852,24.288 75.4519,25.9547 74.5,27.5C 73.6143,26.675 73.281,25.675 73.5,24.5C 70.8333,24.5 68.1667,24.5 65.5,24.5C 65.5,27.1667 65.5,29.8333 65.5,32.5C 67.5,32.5 69.5,32.5 71.5,32.5C 71.281,31.325 71.6143,30.325 72.5,29.5C 73.8333,32.5 73.8333,35.5 72.5,38.5C 71.6143,37.675 71.281,36.675 71.5,35.5C 69.5,35.5 67.5,35.5 65.5,35.5C 65.5,38.5 65.5,41.5 65.5,44.5C 70.0604,45.3419 73.727,44.0086 76.5,40.5C 77.2309,42.4012 77.2309,44.4012 76.5,46.5C 70.1667,46.5 63.8333,46.5 57.5,46.5 Z"/></g>
<g><path style="opacity:1" fill="#0f0f0f" d="M 267.5,22.5 C 273.5,22.5 279.5,22.5 285.5,22.5C 285.657,23.8734 285.49,25.2068 285,26.5C 284.617,25.944 284.117,25.6107 283.5,25.5C 281.393,24.5318 279.059,24.1984 276.5,24.5C 275.729,27.8458 275.062,31.3458 274.5,35C 274.899,36.7275 275.566,38.2275 276.5,39.5C 276.5,41.1667 276.5,42.8333 276.5,44.5C 279.518,44.6646 282.518,44.498 285.5,44C 286.047,43.0754 286.713,42.2421 287.5,41.5C 288.666,43.1673 288.666,44.834 287.5,46.5C 281.491,46.6662 275.491,46.4995 269.5,46C 270.789,42.5978 271.456,38.9312 271.5,35C 271.499,31.3167 271.165,27.8167 270.5,24.5C 269.5,23.8333 268.5,23.1667 267.5,22.5 Z"/></g>
<g><path style="opacity:1" fill="#181818" d="M 180.5,44.5 C 180.918,45.2216 181.584,45.7216 182.5,46C 175.986,46.82 169.653,46.6533 163.5,45.5C 166.114,43.4098 166.114,41.2431 163.5,39C 161.167,38.3333 158.833,38.3333 156.5,39C 155.748,39.6708 155.414,40.5041 155.5,41.5C 154.088,43.2303 154.422,44.7303 156.5,46C 150.843,46.4994 145.176,46.6661 139.5,46.5C 140.761,42.7564 141.428,38.7564 141.5,34.5C 141.489,30.4348 140.822,26.7681 139.5,23.5C 142.5,22.1667 145.5,22.1667 148.5,23.5C 147.179,26.5982 146.512,30.0982 146.5,34C 146.501,37.6833 146.835,41.1833 147.5,44.5C 148.251,45.5735 149.251,45.7401 150.5,45C 153.371,38.717 155.871,32.217 158,25.5C 160.121,21.2177 162.454,20.8843 165,24.5C 166.38,29.5945 168.047,34.5945 170,39.5C 170.848,41.8743 172.181,43.8743 174,45.5C 174.772,45.3552 175.439,45.0219 176,44.5C 176.831,37.8085 176.664,31.1418 175.5,24.5C 174.692,24.1924 174.025,23.6924 173.5,23C 176.964,22.1834 180.298,22.5167 183.5,24C 187.667,28.8333 191.833,33.6667 196,38.5C 196.667,33.8333 196.667,29.1667 196,24.5C 195.25,23.8742 194.416,23.3742 193.5,23C 198.294,21.9933 200.294,22.16 199.5,23.5C 199.5,31.5 199.5,39.5 199.5,47.5C 197.095,46.3129 194.761,44.8129 192.5,43C 188.843,38.177 184.843,33.677 180.5,29.5C 179.186,34.6523 179.186,39.6523 180.5,44.5 Z"/></g>
<g><path style="opacity:1" fill="#737373" d="M 219.5,27.5 C 219.5,28.5 219.5,29.5 219.5,30.5C 221.833,30.5 224.167,30.5 226.5,30.5C 224.052,31.4731 221.385,31.8064 218.5,31.5C 218.232,29.901 218.566,28.5676 219.5,27.5 Z"/></g>
<g><path style="opacity:1" fill="#191919" d="M 265.5,22.5 C 265.808,24.924 265.474,27.2573 264.5,29.5C 263.868,27.2632 262.535,25.5965 260.5,24.5C 255.107,22.3469 250.94,23.6802 248,28.5C 244.974,39.8498 249.141,45.5165 260.5,45.5C 260.5,43.1667 260.5,40.8333 260.5,38.5C 259.325,38.719 258.325,38.3857 257.5,37.5C 260.784,36.343 264.118,36.1764 267.5,37C 265.66,39.8263 264.994,42.9929 265.5,46.5C 259.457,47.9958 253.457,47.8292 247.5,46C 241.829,41.4703 239.996,35.637 242,28.5C 244.205,25.9598 246.705,23.7932 249.5,22C 254.846,21.5676 260.18,21.7343 265.5,22.5 Z"/></g>
<g><path style="opacity:1" fill="#d3d3d3" d="M 159.5,28.5 C 161.982,30.5027 162.982,33.1694 162.5,36.5C 160.833,36.5 159.167,36.5 157.5,36.5C 157.56,33.6592 158.226,30.9925 159.5,28.5 Z"/></g>
<g><path style="opacity:1" fill="#323232" d="M 276.5,24.5 C 276.5,27.1667 276.5,29.8333 276.5,32.5C 278.5,32.5 280.5,32.5 282.5,32.5C 282.281,31.325 282.614,30.325 283.5,29.5C 284.833,32.5 284.833,35.5 283.5,38.5C 282.614,37.675 282.281,36.675 282.5,35.5C 280.5,35.5 278.5,35.5 276.5,35.5C 276.5,36.8333 276.5,38.1667 276.5,39.5C 275.566,38.2275 274.899,36.7275 274.5,35C 275.062,31.3458 275.729,27.8458 276.5,24.5 Z"/></g>
<g><path style="opacity:1" fill="#b2b2b2" d="M 148.5,23.5 C 147.538,30.4122 147.205,37.4122 147.5,44.5C 146.835,41.1833 146.501,37.6833 146.5,34C 146.512,30.0982 147.179,26.5982 148.5,23.5 Z"/></g>
<g><path style="opacity:1" fill="#1e1e1e" d="M 122.5,45.5 C 122.5,43.8333 122.5,42.1667 122.5,40.5C 124.067,45.3077 127.233,46.641 132,44.5C 132.798,42.7412 132.631,41.0745 131.5,39.5C 126.807,37.3174 123.807,33.8174 122.5,29C 124.255,22.1213 128.589,19.9546 135.5,22.5C 136.706,24.5159 136.706,26.5159 135.5,28.5C 134.54,24.6865 132.207,23.1865 128.5,24C 127.409,26.0639 127.242,28.2305 128,30.5C 130.251,32.3773 132.751,33.8773 135.5,35C 138.561,39.5689 137.894,43.5689 133.5,47C 129.525,47.987 125.859,47.487 122.5,45.5 Z"/></g>
<g><path style="opacity:1" fill="#dddddd" d="M 55.5,45.5 C 56.1667,45.5 56.8333,45.5 57.5,45.5C 57.5,45.8333 57.5,46.1667 57.5,46.5C 52.9296,47.441 48.263,47.7744 43.5,47.5C 43.5,46.5 43.5,45.5 43.5,44.5C 42.448,44.3505 41.448,44.5172 40.5,45C 41.8333,45.6667 41.8333,46.3333 40.5,47C 36.1287,47.8275 31.7953,47.6609 27.5,46.5C 27.6236,45.8933 27.9569,45.56 28.5,45.5C 33.2189,46.8551 35.8855,46.8551 36.5,45.5C 36.5,42.1667 36.5,38.8333 36.5,35.5C 40.5,35.5 44.5,35.5 48.5,35.5C 48.6646,38.5184 48.498,41.5184 48,44.5C 47.2496,45.1258 46.4162,45.6258 45.5,46C 49.0267,46.8075 52.3601,46.6408 55.5,45.5 Z"/></g>
<g><path style="opacity:1" fill="#b9b9b9" d="M 85.5,44.5 C 85.3893,45.1174 85.056,45.6174 84.5,46C 88.4862,46.4988 92.4862,46.6655 96.5,46.5C 91.6842,47.6497 86.6842,47.8163 81.5,47C 82.8333,46 82.8333,45 81.5,44C 82.8193,43.805 84.1526,43.9717 85.5,44.5 Z"/></g>
<g><path style="opacity:1" fill="#9d9d9d" d="M 122.5,40.5 C 122.5,42.1667 122.5,43.8333 122.5,45.5C 119.769,46.7297 116.769,47.3964 113.5,47.5C 110.645,47.4975 107.978,47.1641 105.5,46.5C 110.944,47.1083 115.944,46.4417 120.5,44.5C 121.167,43.1667 121.833,41.8333 122.5,40.5 Z"/></g>
<g><path style="opacity:1" fill="#919191" d="M 155.5,41.5 C 156.167,43.5 156.833,45.5 157.5,47.5C 151.31,47.8229 145.31,47.4896 139.5,46.5C 145.176,46.6661 150.843,46.4994 156.5,46C 154.422,44.7303 154.088,43.2303 155.5,41.5 Z"/></g>
<g><path style="opacity:1" fill="#989898" d="M 180.5,44.5 C 181.5,44.5 182.5,44.5 183.5,44.5C 183.5,45.5 183.5,46.5 183.5,47.5C 176.468,47.8303 169.468,47.497 162.5,46.5C 162.624,45.8933 162.957,45.56 163.5,45.5C 169.653,46.6533 175.986,46.82 182.5,46C 181.584,45.7216 180.918,45.2216 180.5,44.5 Z"/></g>
<g><path style="opacity:1" fill="#8a8a8a" d="M 214.5,44.5 C 215.833,44.5 217.167,44.5 218.5,44.5C 218.5,45.5 218.5,46.5 218.5,47.5C 214.298,47.8168 210.298,47.4834 206.5,46.5C 210.182,46.6653 213.848,46.4986 217.5,46C 216.263,45.7679 215.263,45.2679 214.5,44.5 Z"/></g>
<g><path style="opacity:1" fill="#828282" d="M 241.5,44.5 C 243.048,44.8212 243.715,45.8212 243.5,47.5C 238.305,47.8205 233.305,47.4872 228.5,46.5C 233.179,46.6658 237.845,46.4992 242.5,46C 241.944,45.6174 241.611,45.1174 241.5,44.5 Z"/></g>
<g><path style="opacity:1" fill="#757575" d="M 270.5,24.5 C 271.165,27.8167 271.499,31.3167 271.5,35C 271.456,38.9312 270.789,42.5978 269.5,46C 275.491,46.4995 281.491,46.6662 287.5,46.5C 281.355,47.4902 275.022,47.8235 268.5,47.5C 270.283,39.9945 270.95,32.3278 270.5,24.5 Z"/></g>
<g><path style="opacity:1" fill="#969696" d="M 47.5,56.5 C 49.7925,56.2436 51.9592,56.5769 54,57.5C 54.498,60.4816 54.6646,63.4816 54.5,66.5C 52.1667,66.5 49.8333,66.5 47.5,66.5C 47.5,63.1667 47.5,59.8333 47.5,56.5 Z"/></g>
<g><path style="opacity:1" fill="#f9f9f9" d="M 48.5,57.5 C 52.6046,57.4962 54.1046,59.4962 53,63.5C 51.9148,64.2931 50.7481,64.9598 49.5,65.5C 48.52,62.9135 48.1866,60.2469 48.5,57.5 Z"/></g>
<g><path style="opacity:1" fill="#8b8b8b" d="M 94.5,59.5 C 94.281,58.325 94.6143,57.325 95.5,56.5C 96.657,59.7844 96.8236,63.1177 96,66.5C 95.8138,63.9644 95.3138,61.631 94.5,59.5 Z"/></g>
<g><path style="opacity:1" fill="#a8a8a8" d="M 105.5,59.5 C 108.5,59.5 111.5,59.5 114.5,59.5C 114.663,61.8568 114.497,64.1902 114,66.5C 112.894,60.0436 111.561,60.0436 110,66.5C 109.506,64.8659 109.34,63.1992 109.5,61.5C 108.5,61.5 107.5,61.5 106.5,61.5C 106.657,62.8734 106.49,64.2068 106,65.5C 105.505,63.5273 105.338,61.5273 105.5,59.5 Z"/></g>
<g><path style="opacity:1" fill="#bebebe" d="M 207.5,59.5 C 208.822,59.33 209.989,59.6634 211,60.5C 211.495,62.4727 211.662,64.4727 211.5,66.5C 206.59,66.4236 205.257,64.0902 207.5,59.5 Z"/></g>
<g><path style="opacity:1" fill="#a5a5a5" d="M 94.5,59.5 C 92.5992,68.7463 91.0992,68.7463 90,59.5C 90.6667,60.8333 91.3333,62.1667 92,63.5C 92.6082,61.9336 93.4415,60.6002 94.5,59.5 Z"/></g>
<g><path style="opacity:1" fill="#adadad" d="M 224.5,56.5 C 225.479,59.6248 225.813,62.9581 225.5,66.5C 222.159,67.1571 220.159,65.8237 219.5,62.5C 218.719,63.7287 218.219,65.062 218,66.5C 216.598,58.5726 215.264,58.5726 214,66.5C 213.503,64.1902 213.337,61.8568 213.5,59.5C 217.876,58.8515 220.876,60.5182 222.5,64.5C 225.151,62.5852 224.817,61.0852 221.5,60C 222.448,59.5172 223.448,59.3505 224.5,59.5C 224.5,58.5 224.5,57.5 224.5,56.5 Z"/></g>
<g><path style="opacity:1" fill="#8c8c8c" d="M 69.5,59.5 C 70.7251,60.1522 71.3917,61.3189 71.5,63C 71.3333,64.1667 71.1667,65.3333 71,66.5C 70.5604,64.1341 70.0604,61.8008 69.5,59.5 Z"/></g>
<g><path style="opacity:1" fill="#ababab" d="M 163.5,56.5 C 164.302,57.9516 164.802,59.6183 165,61.5C 165.965,59.7397 167.132,59.4063 168.5,60.5C 166.815,62.0175 165.315,63.6841 164,65.5C 163.502,62.5184 163.335,59.5184 163.5,56.5 Z"/></g>
<g><path style="opacity:1" fill="#8c8c8c" d="M 87.5,56.5 C 88.3764,56.3691 89.0431,56.7025 89.5,57.5C 88.7565,60.443 88.2565,63.443 88,66.5C 87.5017,63.1832 87.335,59.8499 87.5,56.5 Z"/></g>
<g><path style="opacity:1" fill="#aeaeae" d="M 171.5,60.5 C 172.568,59.5655 173.901,59.2322 175.5,59.5C 175.5,61.8333 175.5,64.1667 175.5,66.5C 173.833,66.5 172.167,66.5 170.5,66.5C 170.325,63.6711 171.658,62.0045 174.5,61.5C 173.675,60.6143 172.675,60.281 171.5,60.5 Z"/></g>
<g><path style="opacity:1" fill="#878787" d="M 199.5,56.5 C 200.477,59.2869 200.81,62.2869 200.5,65.5C 202.199,65.3398 203.866,65.5065 205.5,66C 203.527,66.4955 201.527,66.6621 199.5,66.5C 199.5,63.1667 199.5,59.8333 199.5,56.5 Z"/></g>
<g><path style="opacity:1" fill="#919191" d="M 236.5,60.5 C 237.209,59.596 238.209,59.2627 239.5,59.5C 239.663,61.8568 239.497,64.1902 239,66.5C 238.998,63.9488 238.164,61.9488 236.5,60.5 Z"/></g>
<g><path style="opacity:1" fill="#929292" d="M 98.5,59.5 C 99.4614,61.2646 99.7947,63.2646 99.5,65.5C 100.5,65.5 101.5,65.5 102.5,65.5C 102.338,63.4727 102.505,61.4727 103,59.5C 103.497,61.8098 103.663,64.1432 103.5,66.5C 101.833,66.5 100.167,66.5 98.5,66.5C 98.5,64.1667 98.5,61.8333 98.5,59.5 Z"/></g>
<g><path style="opacity:1" fill="#b4b4b4" d="M 127.5,58.5 C 128.473,60.9479 128.806,63.6146 128.5,66.5C 126.833,66.5 125.167,66.5 123.5,66.5C 123.561,63.9505 124.894,62.4505 127.5,62C 122.465,61.0013 122.465,59.8347 127.5,58.5 Z"/></g>
<g><path style="opacity:1" fill="#c1c1c1" d="M 177.5,57.5 C 180.145,59.2419 183.145,59.9086 186.5,59.5C 186.5,61.8333 186.5,64.1667 186.5,66.5C 184.833,66.5 183.167,66.5 181.5,66.5C 181.325,63.6711 182.658,62.0045 185.5,61.5C 183.922,60.9276 182.422,60.5943 181,60.5C 179.764,62.3072 179.43,64.3072 180,66.5C 179.586,66.9574 179.086,67.2907 178.5,67.5C 177.047,64.1605 176.713,60.8272 177.5,57.5 Z"/></g>
<g><path style="opacity:1" fill="#c7c7c7" d="M 228.5,59.5 C 232.473,60.0755 233.473,62.2421 231.5,66C 230.207,66.49 228.873,66.6567 227.5,66.5C 227.298,64.0504 227.631,61.717 228.5,59.5 Z"/></g>
<g><path style="opacity:1" fill="#bcbcbc" d="M 57.5,58.5 C 60.4701,58.7458 61.8034,60.4124 61.5,63.5C 60.1266,63.3433 58.7932,63.51 57.5,64C 58.6776,64.9669 60.011,65.4669 61.5,65.5C 59.9547,66.4519 58.288,66.7852 56.5,66.5C 56.2786,63.7212 56.612,61.0545 57.5,58.5 Z"/></g>
<g><path style="opacity:1" fill="#bfbfbf" d="M 116.5,56.5 C 117.404,57.209 117.737,58.209 117.5,59.5C 118.833,59.5 120.167,59.5 121.5,59.5C 121.5,61.8333 121.5,64.1667 121.5,66.5C 119.833,66.5 118.167,66.5 116.5,66.5C 116.5,63.1667 116.5,59.8333 116.5,56.5 Z"/></g>
<g><path style="opacity:1" fill="#cecece" d="M 153.5,69.5 C 153.167,69.5 152.833,69.5 152.5,69.5C 150.657,67.3335 148.99,65.0001 147.5,62.5C 146.029,63.3805 145.196,64.7139 145,66.5C 144.833,65 144.667,63.5 144.5,62C 144.613,56.4396 145.113,56.2729 146,61.5C 147.667,59.8333 149.333,58.1667 151,56.5C 151.379,58.5705 150.545,60.0705 148.5,61C 150,62.5 151.5,64 153,65.5C 153.495,63.5273 153.662,61.5273 153.5,59.5C 155.144,59.2865 156.644,59.6198 158,60.5C 158.495,62.4727 158.662,64.4727 158.5,66.5C 156.833,66.5 155.167,66.5 153.5,66.5C 153.5,67.5 153.5,68.5 153.5,69.5 Z"/></g>
</svg>
