<?xml version="1.0" encoding="UTF-8"?>
<!DOCTYPE svg PUBLIC "-//W3C//DTD SVG 1.1//EN" "http://www.w3.org/Graphics/SVG/1.1/DTD/svg11.dtd">
<svg xmlns="http://www.w3.org/2000/svg" version="1.1" width="200px" height="91px" style="shape-rendering:geometricPrecision; text-rendering:geometricPrecision; image-rendering:optimizeQuality; fill-rule:evenodd; clip-rule:evenodd" xmlns:xlink="http://www.w3.org/1999/xlink">
<g><path style="opacity:0.999" fill="#444641" d="M 67.5,-0.5 C 73.8333,-0.5 80.1667,-0.5 86.5,-0.5C 86.2479,2.24384 86.9145,4.74384 88.5,7C 87.548,8.30038 87.548,9.46705 88.5,10.5C 90.6267,8.38276 90.96,9.04943 89.5,12.5C 90.325,13.3857 91.325,13.719 92.5,13.5C 92.3433,14.8734 92.51,16.2068 93,17.5C 93.3333,17.1667 93.6667,16.8333 94,16.5C 94.2355,18.1193 95.0689,19.1193 96.5,19.5C 97.3382,19.8417 97.6716,20.5084 97.5,21.5C 96.8419,23.6391 95.8419,25.6391 94.5,27.5C 95.0037,31.5066 95.1703,35.5066 95,39.5C 93.9887,38.6634 92.8221,38.33 91.5,38.5C 91.5,36.1667 91.5,33.8333 91.5,31.5C 87.5,31.5 83.5,31.5 79.5,31.5C 79.5,32.8333 79.5,34.1667 79.5,35.5C 77.1667,35.5 74.8333,35.5 72.5,35.5C 72.6664,27.16 72.4997,18.8267 72,10.5C 71.6667,15.1667 71.3333,19.8333 71,24.5C 70.6827,22.6992 70.016,22.3659 69,23.5C 68.5,45.8308 68.3334,68.1642 68.5,90.5C 68.1667,90.5 67.8333,90.5 67.5,90.5C 67.5,60.1667 67.5,29.8333 67.5,-0.5 Z"/></g>
<g><path style="opacity:0.993" fill="#434444" d="M -0.5,-0.5 C 13.5,-0.5 27.5,-0.5 41.5,-0.5C 46.6385,1.30005 50.9718,4.30005 54.5,8.5C 54.4606,9.58317 54.1272,10.5832 53.5,11.5C 56.3418,12.0045 57.6751,13.6711 57.5,16.5C 55.8132,17.8673 54.1465,18.8673 52.5,19.5C 51.8506,17.3759 51.0173,15.3759 50,13.5C 49.6924,14.3081 49.1924,14.9747 48.5,15.5C 47.6551,11.6486 45.3218,9.64859 41.5,9.5C 42.9718,15.4712 40.9718,19.4712 35.5,21.5C 31.2648,20.564 26.9315,20.2307 22.5,20.5C 22.5,43.8333 22.5,67.1667 22.5,90.5C 14.8333,90.5 7.16667,90.5 -0.5,90.5C -0.5,60.1667 -0.5,29.8333 -0.5,-0.5 Z"/></g>
<g><path style="opacity:1" fill="#574e30" d="M 178.5,-0.5 C 178.833,-0.5 179.167,-0.5 179.5,-0.5C 180.818,4.77335 181.818,10.1067 182.5,15.5C 179.964,10.6897 178.63,5.35632 178.5,-0.5 Z"/></g>
<g><path style="opacity:1" fill="#544b2f" d="M 86.5,-0.5 C 86.8333,-0.5 87.1667,-0.5 87.5,-0.5C 90.5,6.16667 93.5,12.8333 96.5,19.5C 95.0689,19.1193 94.2355,18.1193 94,16.5C 93.6667,16.8333 93.3333,17.1667 93,17.5C 92.51,16.2068 92.3433,14.8734 92.5,13.5C 91.325,13.719 90.325,13.3857 89.5,12.5C 90.96,9.04943 90.6267,8.38276 88.5,10.5C 87.548,9.46705 87.548,8.30038 88.5,7C 86.9145,4.74384 86.2479,2.24384 86.5,-0.5 Z"/></g>
<g><path style="opacity:1" fill="#574f36" d="M 54.5,8.5 C 59.7741,13.6467 62.1075,19.98 61.5,27.5C 61.0726,23.4909 59.7393,19.8242 57.5,16.5C 57.6751,13.6711 56.3418,12.0045 53.5,11.5C 54.1272,10.5832 54.4606,9.58317 54.5,8.5 Z"/></g>
<g><path style="opacity:1" fill="#424244" d="M 94.5,27.5 C 96.288,27.2148 97.9547,27.5481 99.5,28.5C 99.8793,30.2131 100.879,31.2131 102.5,31.5C 102.248,34.2438 102.915,36.7438 104.5,39C 103.896,41.5238 103.229,44.0238 102.5,46.5C 97.5,47.1667 92.5,47.8333 87.5,48.5C 87.6236,49.1067 87.9569,49.44 88.5,49.5C 86.9287,63.1144 86.262,76.7811 86.5,90.5C 80.5,90.5 74.5,90.5 68.5,90.5C 68.3334,68.1642 68.5,45.8308 69,23.5C 70.016,22.3659 70.6827,22.6992 71,24.5C 71.3333,19.8333 71.6667,15.1667 72,10.5C 72.4997,18.8267 72.6664,27.16 72.5,35.5C 74.8333,35.5 77.1667,35.5 79.5,35.5C 79.5,34.1667 79.5,32.8333 79.5,31.5C 83.5,31.5 87.5,31.5 91.5,31.5C 91.5,33.8333 91.5,36.1667 91.5,38.5C 92.8221,38.33 93.9887,38.6634 95,39.5C 95.1703,35.5066 95.0037,31.5066 94.5,27.5 Z"/></g>
<g><path style="opacity:0.102" fill="#515742" d="M 106.5,-0.5 C 106.833,-0.5 107.167,-0.5 107.5,-0.5C 107.259,7.86136 107.592,16.1947 108.5,24.5C 108.66,26.3545 107.993,27.6879 106.5,28.5C 106.5,18.8333 106.5,9.16667 106.5,-0.5 Z"/></g>
<g><path style="opacity:1" fill="#545334" d="M 151.5,0.5 C 150.843,11.441 148.51,21.7743 144.5,31.5C 146.214,20.9143 148.548,10.581 151.5,0.5 Z"/></g>
<g><path style="opacity:0.999" fill="#434445" d="M 151.5,-0.5 C 160.5,-0.5 169.5,-0.5 178.5,-0.5C 178.63,5.35632 179.964,10.6897 182.5,15.5C 182.666,20.1785 182.499,24.8452 182,29.5C 180.951,31.1066 179.451,31.7733 177.5,31.5C 176.973,34.2314 176.14,36.8981 175,39.5C 173.605,38.1854 172.605,38.5188 172,40.5C 171.667,43.1667 171.333,45.8333 171,48.5C 170.617,47.944 170.117,47.6107 169.5,47.5C 169.5,46.8333 169.5,46.1667 169.5,45.5C 169.785,42.1709 169.118,39.1709 167.5,36.5C 166.196,32.6403 165.529,28.6403 165.5,24.5C 165.44,23.9569 165.107,23.6236 164.5,23.5C 160.891,29.6159 159.557,36.2826 160.5,43.5C 159.778,43.9175 159.278,44.5842 159,45.5C 158.502,48.4816 158.335,51.4816 158.5,54.5C 158.5,54.8333 158.5,55.1667 158.5,55.5C 156.625,60.2062 155.625,65.2062 155.5,70.5C 155.5,70.8333 155.5,71.1667 155.5,71.5C 154.85,71.8039 154.183,72.1373 153.5,72.5C 152.679,75.4465 152.179,78.4465 152,81.5C 149.891,75.963 150.058,70.463 152.5,65C 149.908,59.9027 150.242,54.9027 153.5,50C 149.848,43.4715 151.681,39.6382 159,38.5C 159.777,35.5706 159.61,32.7372 158.5,30C 156.193,29.2214 154.193,29.7214 152.5,31.5C 151.702,29.9223 151.202,28.2556 151,26.5C 149.955,29.4361 149.121,32.4361 148.5,35.5C 149.325,36.3857 150.325,36.719 151.5,36.5C 151.5,37.5 151.5,38.5 151.5,39.5C 145.604,40.1518 143.27,37.4852 144.5,31.5C 148.51,21.7743 150.843,11.441 151.5,0.5C 151.5,0.166667 151.5,-0.166667 151.5,-0.5 Z"/></g>
<g><path style="opacity:0.993" fill="#424444" d="M 107.5,-0.5 C 114.5,-0.5 121.5,-0.5 128.5,-0.5C 128.5,20.8333 128.5,42.1667 128.5,63.5C 126.833,63.5 125.167,63.5 123.5,63.5C 123.5,61.5 123.5,59.5 123.5,57.5C 124.833,57.5 126.167,57.5 127.5,57.5C 127.884,55.3352 127.217,53.6685 125.5,52.5C 123.889,53.3202 123.222,54.6536 123.5,56.5C 121.282,56.3862 119.282,55.7196 117.5,54.5C 114.811,47.9374 111.645,41.6041 108,35.5C 107.023,33.26 106.523,30.9267 106.5,28.5C 107.993,27.6879 108.66,26.3545 108.5,24.5C 107.592,16.1947 107.259,7.86136 107.5,-0.5 Z"/></g>
<g><path style="opacity:1" fill="#4d4630" d="M 97.5,21.5 C 99.6744,24.5154 101.341,27.8487 102.5,31.5C 100.879,31.2131 99.8793,30.2131 99.5,28.5C 97.9547,27.5481 96.288,27.2148 94.5,27.5C 95.8419,25.6391 96.8419,23.6391 97.5,21.5 Z"/></g>
<g><path style="opacity:1" fill="#444741" d="M 155.5,71.5 C 154.629,77.855 153.629,84.1884 152.5,90.5C 145.167,90.5 137.833,90.5 130.5,90.5C 134.723,70.6123 139.39,50.9457 144.5,31.5C 143.27,37.4852 145.604,40.1518 151.5,39.5C 151.5,38.5 151.5,37.5 151.5,36.5C 150.325,36.719 149.325,36.3857 148.5,35.5C 149.121,32.4361 149.955,29.4361 151,26.5C 151.202,28.2556 151.702,29.9223 152.5,31.5C 154.193,29.7214 156.193,29.2214 158.5,30C 159.61,32.7372 159.777,35.5706 159,38.5C 151.681,39.6382 149.848,43.4715 153.5,50C 150.242,54.9027 149.908,59.9027 152.5,65C 150.058,70.463 149.891,75.963 152,81.5C 152.179,78.4465 152.679,75.4465 153.5,72.5C 154.183,72.1373 154.85,71.8039 155.5,71.5 Z"/></g>
<g><path style="opacity:0.923" fill="#5c5a32" d="M 184.5,24.5 C 186.102,28.2393 187.102,32.2393 187.5,36.5C 185.034,32.9816 184.034,28.9816 184.5,24.5 Z"/></g>
<g><path style="opacity:1" fill="#45473e" d="M 182.5,15.5 C 183.913,18.2186 184.58,21.2186 184.5,24.5C 184.034,28.9816 185.034,32.9816 187.5,36.5C 188.793,39.6791 189.46,43.0124 189.5,46.5C 187.712,46.7852 186.045,46.4519 184.5,45.5C 183.752,43.6675 182.752,42.0009 181.5,40.5C 179.554,42.087 178.054,41.7536 177,39.5C 175.97,43.7727 175.303,48.106 175,52.5C 174.333,51.8333 173.667,51.1667 173,50.5C 172.95,52.744 172.117,54.4107 170.5,55.5C 170.425,52.7938 170.092,50.1272 169.5,47.5C 170.117,47.6107 170.617,47.944 171,48.5C 171.333,45.8333 171.667,43.1667 172,40.5C 172.605,38.5188 173.605,38.1854 175,39.5C 176.14,36.8981 176.973,34.2314 177.5,31.5C 179.451,31.7733 180.951,31.1066 182,29.5C 182.499,24.8452 182.666,20.1785 182.5,15.5 Z"/></g>
<g><path style="opacity:1" fill="#54533b" d="M 165.5,24.5 C 163.707,30.7947 162.041,37.1281 160.5,43.5C 159.557,36.2826 160.891,29.6159 164.5,23.5C 165.107,23.6236 165.44,23.9569 165.5,24.5 Z"/></g>
<g><path style="opacity:0.667" fill="#665d25" d="M 37.5,23.5 C 38.1174,23.6107 38.6174,23.944 39,24.5C 39.6667,38.1667 39.6667,51.8333 39,65.5C 38.6174,66.056 38.1174,66.3893 37.5,66.5C 38.8333,52.1667 38.8333,37.8333 37.5,23.5 Z"/></g>
<g><path style="opacity:1" fill="#414445" d="M 189.5,46.5 C 189.778,49.2903 189.111,51.7903 187.5,54C 188.424,55.8114 189.257,55.6447 190,53.5C 190.333,55.5 190.667,57.5 191,59.5C 191.708,60.3805 192.542,61.0472 193.5,61.5C 193.5,62.1667 193.5,62.8333 193.5,63.5C 193.462,67.3625 193.795,71.1958 194.5,75C 193.26,79.1264 192.26,83.293 191.5,87.5C 189.892,88.3184 188.225,88.9851 186.5,89.5C 184.585,87.5281 182.251,86.5281 179.5,86.5C 179.5,87.8333 179.5,89.1667 179.5,90.5C 178.5,90.5 177.5,90.5 176.5,90.5C 176.5,89.1667 176.5,87.8333 176.5,86.5C 176.5,82.8333 176.5,79.1667 176.5,75.5C 178.288,75.7852 179.955,75.4519 181.5,74.5C 180.5,74.1667 179.5,73.8333 178.5,73.5C 172.532,74.3645 166.532,74.6979 160.5,74.5C 160.5,73.5 160.5,72.5 160.5,71.5C 165.202,70.9213 169.869,70.088 174.5,69C 175.451,65.9433 175.784,62.7766 175.5,59.5C 174.022,59.762 172.689,59.4287 171.5,58.5C 171.709,57.914 172.043,57.414 172.5,57C 171.263,56.7679 170.263,56.2679 169.5,55.5C 169.833,55.5 170.167,55.5 170.5,55.5C 172.117,54.4107 172.95,52.744 173,50.5C 173.667,51.1667 174.333,51.8333 175,52.5C 175.303,48.106 175.97,43.7727 177,39.5C 178.054,41.7536 179.554,42.087 181.5,40.5C 182.752,42.0009 183.752,43.6675 184.5,45.5C 186.045,46.4519 187.712,46.7852 189.5,46.5 Z"/></g>
<g><path style="opacity:0.997" fill="#414344" d="M 57.5,16.5 C 59.7393,19.8242 61.0726,23.4909 61.5,27.5C 61.5,36.1667 61.5,44.8333 61.5,53.5C 54.6794,53.2675 52.0127,56.6009 53.5,63.5C 49.4295,63.2338 45.4295,63.5672 41.5,64.5C 40.185,50.8003 40.185,37.1336 41.5,23.5C 40.8333,23.1667 40.1667,22.8333 39.5,22.5C 39.8333,21.5 40.5,20.8333 41.5,20.5C 41.9526,23.7513 43.6193,26.0846 46.5,27.5C 47.4287,28.6888 47.762,30.0222 47.5,31.5C 50.8806,31.4595 54.2139,31.7929 57.5,32.5C 57.7776,29.7097 57.1109,27.2097 55.5,25C 57.1458,22.405 57.8125,19.5716 57.5,16.5 Z"/></g>
<g><path style="opacity:0.357" fill="#656438" d="M 167.5,36.5 C 169.118,39.1709 169.785,42.1709 169.5,45.5C 168.343,42.7273 167.676,39.7273 167.5,36.5 Z"/></g>
<g><path style="opacity:1" fill="#47463d" d="M 102.5,31.5 C 107.341,39.849 111.675,48.5157 115.5,57.5C 114.883,57.3893 114.383,57.056 114,56.5C 113.503,58.8098 113.337,61.1432 113.5,63.5C 112.5,63.5 111.5,63.5 110.5,63.5C 110.402,59.7111 109.402,56.2111 107.5,53C 108.159,50.5379 108.493,48.0379 108.5,45.5C 107.178,45.67 106.011,45.3366 105,44.5C 103.957,47.7568 103.457,51.0901 103.5,54.5C 99.6893,54.5958 99.6893,55.2624 103.5,56.5C 102.147,57.5237 101.48,58.857 101.5,60.5C 100.5,60.5 99.5,60.5 98.5,60.5C 98.5,61.5 98.5,62.5 98.5,63.5C 100.451,63.7733 101.951,63.1066 103,61.5C 103.49,62.7932 103.657,64.1266 103.5,65.5C 102.325,65.281 101.325,65.6143 100.5,66.5C 102.371,69.2341 103.371,72.2341 103.5,75.5C 98.8333,66.8333 94.1667,58.1667 89.5,49.5C 89.1667,48.1667 88.8333,48.1667 88.5,49.5C 87.9569,49.44 87.6236,49.1067 87.5,48.5C 92.5,47.8333 97.5,47.1667 102.5,46.5C 103.229,44.0238 103.896,41.5238 104.5,39C 102.915,36.7438 102.248,34.2438 102.5,31.5 Z"/></g>
<g><path style="opacity:0.878" fill="#5b563b" d="M 160.5,43.5 C 160.57,47.4248 159.903,51.0915 158.5,54.5C 158.335,51.4816 158.502,48.4816 159,45.5C 159.278,44.5842 159.778,43.9175 160.5,43.5 Z"/></g>
<g><path style="opacity:1" fill="#4c4e38" d="M 189.5,46.5 C 191.072,51.3266 192.406,56.3266 193.5,61.5C 192.542,61.0472 191.708,60.3805 191,59.5C 190.667,57.5 190.333,55.5 190,53.5C 189.257,55.6447 188.424,55.8114 187.5,54C 189.111,51.7903 189.778,49.2903 189.5,46.5 Z"/></g>
<g><path style="opacity:0.997" fill="#434641" d="M 57.5,16.5 C 57.8125,19.5716 57.1458,22.405 55.5,25C 57.1109,27.2097 57.7776,29.7097 57.5,32.5C 54.2139,31.7929 50.8806,31.4595 47.5,31.5C 47.762,30.0222 47.4287,28.6888 46.5,27.5C 43.6193,26.0846 41.9526,23.7513 41.5,20.5C 40.5,20.8333 39.8333,21.5 39.5,22.5C 40.1667,22.8333 40.8333,23.1667 41.5,23.5C 40.185,37.1336 40.185,50.8003 41.5,64.5C 45.4295,63.5672 49.4295,63.2338 53.5,63.5C 52.0127,56.6009 54.6794,53.2675 61.5,53.5C 61.6661,59.1764 61.4994,64.8431 61,70.5C 60.7679,71.7375 60.2679,72.7375 59.5,73.5C 56.0704,81.9307 50.0704,87.5973 41.5,90.5C 36.1667,90.5 30.8333,90.5 25.5,90.5C 25.5,83.5 25.5,76.5 25.5,69.5C 28.5184,69.6646 31.5184,69.498 34.5,69C 35.6906,68.3021 36.6906,67.4687 37.5,66.5C 38.1174,66.3893 38.6174,66.056 39,65.5C 39.6667,51.8333 39.6667,38.1667 39,24.5C 38.6174,23.944 38.1174,23.6107 37.5,23.5C 36.5,23.1667 35.8333,22.5 35.5,21.5C 40.9718,19.4712 42.9718,15.4712 41.5,9.5C 45.3218,9.64859 47.6551,11.6486 48.5,15.5C 49.1924,14.9747 49.6924,14.3081 50,13.5C 51.0173,15.3759 51.8506,17.3759 52.5,19.5C 54.1465,18.8673 55.8132,17.8673 57.5,16.5 Z"/></g>
<g><path style="opacity:1" fill="#454146" d="M 169.5,55.5 C 170.263,56.2679 171.263,56.7679 172.5,57C 172.043,57.414 171.709,57.914 171.5,58.5C 172.689,59.4287 174.022,59.762 175.5,59.5C 175.784,62.7766 175.451,65.9433 174.5,69C 169.869,70.088 165.202,70.9213 160.5,71.5C 160.5,68.8333 160.5,66.1667 160.5,63.5C 159.52,56.62 162.52,53.9533 169.5,55.5 Z"/></g>
<g><path style="opacity:1" fill="#434347" d="M 115.5,57.5 C 116.338,57.8417 116.672,58.5084 116.5,59.5C 116.337,61.8568 116.503,64.1902 117,66.5C 118.087,64.0684 118.587,64.4017 118.5,67.5C 116.42,68.0444 114.42,68.8777 112.5,70C 114.899,70.711 117.232,70.5443 119.5,69.5C 119.009,71.3208 119.009,73.3208 119.5,75.5C 120.167,74.5 120.833,73.5 121.5,72.5C 122.506,75.5198 123.839,78.3531 125.5,81C 125.095,81.9454 124.428,82.6121 123.5,83C 124.667,83.5 125.5,84.3333 126,85.5C 126.671,84.7476 127.504,84.4142 128.5,84.5C 128.5,86.5 128.5,88.5 128.5,90.5C 127.833,90.5 127.167,90.5 126.5,90.5C 124.396,89.0883 122.063,88.0883 119.5,87.5C 118.414,80.8215 117.08,75.4882 115.5,71.5C 112.813,71.3359 110.146,71.5026 107.5,72C 106.62,73.3561 106.286,74.8561 106.5,76.5C 105.5,76.5 104.5,76.5 103.5,76.5C 103.5,76.1667 103.5,75.8333 103.5,75.5C 103.371,72.2341 102.371,69.2341 100.5,66.5C 101.325,65.6143 102.325,65.281 103.5,65.5C 103.657,64.1266 103.49,62.7932 103,61.5C 101.951,63.1066 100.451,63.7733 98.5,63.5C 98.5,62.5 98.5,61.5 98.5,60.5C 99.5,60.5 100.5,60.5 101.5,60.5C 101.48,58.857 102.147,57.5237 103.5,56.5C 99.6893,55.2624 99.6893,54.5958 103.5,54.5C 103.457,51.0901 103.957,47.7568 105,44.5C 106.011,45.3366 107.178,45.67 108.5,45.5C 108.493,48.0379 108.159,50.5379 107.5,53C 109.402,56.2111 110.402,59.7111 110.5,63.5C 111.5,63.5 112.5,63.5 113.5,63.5C 113.337,61.1432 113.503,58.8098 114,56.5C 114.383,57.056 114.883,57.3893 115.5,57.5 Z"/></g>
<g><path style="opacity:1" fill="#404250" d="M 59.5,73.5 C 57.7704,74.9757 56.4371,74.6424 55.5,72.5C 56.7585,70.3516 56.7585,68.1849 55.5,66C 55.6301,64.9412 56.1301,64.1079 57,63.5C 59.0792,66.4832 59.9125,69.8166 59.5,73.5 Z"/></g>
<g><path style="opacity:0.773" fill="#686242" d="M 158.5,55.5 C 158.118,60.7442 157.118,65.7442 155.5,70.5C 155.625,65.2062 156.625,60.2062 158.5,55.5 Z"/></g>
<g><path style="opacity:0.843" fill="#444d3f" d="M 128.5,63.5 C 128.249,66.909 128.583,70.2423 129.5,73.5C 129.192,74.3081 128.692,74.9747 128,75.5C 124.998,68.1634 121.498,61.1634 117.5,54.5C 119.282,55.7196 121.282,56.3862 123.5,56.5C 123.222,54.6536 123.889,53.3202 125.5,52.5C 127.217,53.6685 127.884,55.3352 127.5,57.5C 126.167,57.5 124.833,57.5 123.5,57.5C 123.5,59.5 123.5,61.5 123.5,63.5C 125.167,63.5 126.833,63.5 128.5,63.5 Z"/></g>
<g><path style="opacity:1" fill="#5b543d" d="M 88.5,49.5 C 88.8333,49.5 89.1667,49.5 89.5,49.5C 89.5,63.1667 89.5,76.8333 89.5,90.5C 88.5,90.5 87.5,90.5 86.5,90.5C 86.262,76.7811 86.9287,63.1144 88.5,49.5 Z"/></g>
<g><path style="opacity:1" fill="#504e43" d="M 160.5,63.5 C 160.5,66.1667 160.5,68.8333 160.5,71.5C 160.5,72.5 160.5,73.5 160.5,74.5C 166.532,74.6979 172.532,74.3645 178.5,73.5C 179.5,73.8333 180.5,74.1667 181.5,74.5C 179.955,75.4519 178.288,75.7852 176.5,75.5C 176.5,79.1667 176.5,82.8333 176.5,86.5C 175.26,83.3532 174.26,80.0199 173.5,76.5C 168.544,75.5059 163.544,75.1725 158.5,75.5C 158.539,71.2671 159.205,67.2671 160.5,63.5 Z"/></g>
<g><path style="opacity:1" fill="#434542" d="M 126.5,90.5 C 121.167,90.5 115.833,90.5 110.5,90.5C 108.167,85.8333 105.833,81.1667 103.5,76.5C 104.5,76.5 105.5,76.5 106.5,76.5C 106.286,74.8561 106.62,73.3561 107.5,72C 110.146,71.5026 112.813,71.3359 115.5,71.5C 117.08,75.4882 118.414,80.8215 119.5,87.5C 122.063,88.0883 124.396,89.0883 126.5,90.5 Z"/></g>
<g><path style="opacity:1" fill="#4d483a" d="M 116.5,59.5 C 121.287,67.4095 125.287,75.7429 128.5,84.5C 127.504,84.4142 126.671,84.7476 126,85.5C 125.5,84.3333 124.667,83.5 123.5,83C 124.428,82.6121 125.095,81.9454 125.5,81C 123.839,78.3531 122.506,75.5198 121.5,72.5C 120.833,73.5 120.167,74.5 119.5,75.5C 119.009,73.3208 119.009,71.3208 119.5,69.5C 117.232,70.5443 114.899,70.711 112.5,70C 114.42,68.8777 116.42,68.0444 118.5,67.5C 118.587,64.4017 118.087,64.0684 117,66.5C 116.503,64.1902 116.337,61.8568 116.5,59.5 Z"/></g>
<g><path style="opacity:0.918" fill="#62602b" d="M 197.5,81.5 C 198.167,82.8333 198.833,84.1667 199.5,85.5C 199.5,86.1667 199.5,86.8333 199.5,87.5C 197.692,86.0821 197.025,84.0821 197.5,81.5 Z"/></g>
<g><path style="opacity:0.878" fill="#474739" d="M 193.5,63.5 C 195.434,69.2486 196.767,75.2486 197.5,81.5C 197.025,84.0821 197.692,86.0821 199.5,87.5C 199.5,88.5 199.5,89.5 199.5,90.5C 192.833,90.5 186.167,90.5 179.5,90.5C 179.5,89.1667 179.5,87.8333 179.5,86.5C 182.251,86.5281 184.585,87.5281 186.5,89.5C 188.225,88.9851 189.892,88.3184 191.5,87.5C 192.26,83.293 193.26,79.1264 194.5,75C 193.795,71.1958 193.462,67.3625 193.5,63.5 Z"/></g>
</svg>
