<svg viewBox="0 0 260 32"
    xmlns="http://www.w3.org/2000/svg"
    xmlns:xlink="http://www.w3.org/1999/xlink" focusable="false" class="header__logo-image header__logo-image--bay-of-plenty-times" data-test-ui="svg__svg">
    <path d="M33.563 27.976H0v3.686h32.665c-.3-.996-.3-2.191.895-3.686m122.995 0H41.727c-.498.997-1.095 2.39-1.794 3.686h115.824c-.397-1.097-.397-2.292.796-3.686h.002zm102.378 3.586v-3.684h-94.218c-.398.996-1.095 2.39-1.693 3.686l95.911-.002zM248.577 21.9c1.095 1.094 2.788 1.494 4.186 1.494 2.889 0 5.578-1.394 5.578-4.88 0-3.488-2.792-4.381-5.383-5.277-1.095-.3-2.69-.597-2.69-2.093 0-1.296 1.296-1.792 2.29-1.792 1.792 0 2.989 1.495 3.784 3.087h1.3V7.96h-1.296l-.498 1.195c-1.295-.798-2.29-1.196-3.784-1.196-2.69 0-5.08 1.394-5.08 4.481 0 3.286 2.29 4.283 4.881 5.08 1.095.3 2.987.697 2.987 2.29 0 1.494-1.295 2.093-2.49 2.093-2.192 0-3.485-1.792-4.383-3.686h-1.296l.21 4.581h1.295l.4-.895m-11.553-8.067c.1-1.791.697-4.382 2.69-4.382 1.692 0 2.588 1.884 2.588 3.386 0 .697-.3.996-.896.996h-4.382zm8.162 1.296c.798 0 1.296.1 1.296-.797 0-3.784-3.087-6.28-6.574-6.28-4.383 0-7.767 3.188-7.568 7.969.21 4.581 3.485 7.47 7.668 7.47 2.49 0 4.78-1.095 6.175-3.287l-.997-.895c-1.195 1.295-2.093 2.29-3.884 2.29-3.387 0-4.282-3.387-4.186-6.374h8.066v-.1l.004.004zm-33.068.797c0-1.195 0-2.787.498-3.784.498-.996 1.295-1.883 2.39-1.883 2.093 0 1.884 2.69 1.884 4.282v4.27c0 1.693.209 3.187-1.792 3.187v1.095c1.296 0 2.589-.1 3.885-.1 1.295 0 2.589.1 3.884.1V22c-1.992 0-1.791-1.494-1.791-3.187v-2.987c0-1.095 0-2.69.498-3.585.498-.997 1.295-1.884 2.49-1.884 2.093 0 1.884 2.788 1.884 4.282v4.274c0 1.792.3 3.087-1.792 3.188v1.094c1.296 0 2.59-.1 3.885-.1 1.394 0 2.788.1 4.186.1v-1.094c-.498 0-1.394-.1-1.693-.597-.3-.398-.3-1.992-.3-2.589v-3.388c0-1.394.1-3.977-.397-5.08-.798-1.593-2.39-2.191-3.977-2.191-2.191 0-3.784 1.195-4.879 3.087-.397-2.192-2.191-3.087-4.186-3.087a5.352 5.352 0 00-4.78 3.087h-.1l-.21-3.087c-1.883.797-3.976 1.094-5.975 1.394v1.094c2.191-.1 2.093 1.993 2.093 3.684v4.583c0 .597 0 2.093-.3 2.59-.397.497-1.194.596-1.693.596v1.094c1.394 0 2.69-.1 4.084-.1 1.295 0 2.589.1 3.884.1v-1.094c-1.992 0-1.791-1.495-1.791-3.188v-3.085h.098l.013.004zM201.873 5.174a2.465 2.465 0 002.49-2.49c-.003-1.397-1-2.592-2.393-2.592-1.394 0-2.491 1.195-2.491 2.59 0 1.286 1.095 2.488 2.39 2.488l.004.004zm2.49 2.888a34.18 34.18 0 01-6.278.996v1.095c1.693 0 2.093.697 2.093 2.788v5.873c0 .596 0 2.092-.3 2.588-.397.499-1.194.597-1.693.597v1.095c1.495 0 2.889-.1 4.283-.1 1.394 0 2.69.1 3.976.1v-1.095c-.498 0-1.394-.1-1.693-.597-.3-.397-.3-1.992-.3-2.588V8.058h-.098l.01.004zM198.484.59h-20.72l-.21 6.474h1.394c.498-2.987 1.693-4.98 4.88-4.78.897.1 1.495.1 1.694.397.21.21.21.896.21 2.093V17.52c0 2.987 0 4.383-3.287 4.282v1.195c1.884 0 3.784-.1 5.676-.1 1.893 0 3.785.1 5.677.1v-1.195c-3.286.1-3.188-1.295-3.188-4.282V4.772c0-1.095-.21-1.792.21-2.191.299-.3.696-.21 1.793-.21 2.788 0 4.383 1.884 4.68 4.78h1.394l-.203-6.56zm-32.765 17.725l-1.794-4.68c-.3-.696-.996-2.49-.996-3.087 0-1.195.895-1.094 1.693-1.195v-.99c-1.394 0-2.788.1-4.186.1-1.398 0-2.683-.1-4.08-.1v1.089c.499.1.997.1 1.395.697.209.209.498.697.797 1.494l4.88 11.752-1.094 2.49c-.498 1.196-1.295 2.094-2.69 2.491-1.094.3-2.588.498-2.588 2.093 0 1.095.697 1.693 1.794 1.693 2.29 0 3.087-2.29 3.884-4.083l5.176-11.762c.398-.896 1.884-4.98 2.69-5.976a2.423 2.423 0 011.494-.896V8.363c-.896 0-1.694.1-2.59.1-.996 0-1.992-.1-2.988-.1v1.095c.797.1 1.794.1 1.794 1.494 0 .398-.21.997-.398 1.593l-2.193 5.77zm-8.268-8.267V8.656h-3.286V4.075h-1.393c-.597 2.49-2.192 4.288-4.59 4.98v.995h1.693v8.569c0 2.987.697 4.88 3.784 4.88 1.884 0 3.485-.895 4.581-2.588l-1.094-.798c-.498.597-1.095 1.296-1.884 1.296-1.195 0-1.195-1.495-1.195-2.888V9.95h3.387v.1l-.003-.002zm-20.215 5.877c0-1.094 0-2.589.397-3.485.498-1.094 1.394-2.092 2.69-2.092 2.191 0 2.093 2.689 2.093 4.282v4.284c0 .596 0 2.093-.3 2.589-.397.498-1.195.498-1.693.498v1.195c1.495 0 2.987-.1 4.481-.1 1.296 0 2.49.1 3.784.1v-1.094c-.498 0-1.394-.1-1.693-.597-.3-.398-.3-1.992-.3-2.589v-4.583c0-1.394 0-3.387-.797-4.481-.895-1.196-2.49-1.792-3.784-1.792-2.093 0-3.585 1.295-4.78 3.087l-.398-3.087c-1.883.797-3.884 1.095-5.975 1.295v1.101c2.093 0 2.093 1.593 2.093 3.485v4.875c0 .596 0 2.093-.3 2.589-.397.498-1.194.596-1.693.596v1.095c1.394 0 2.69-.1 4.084-.1 1.394 0 2.69.1 4.083.1V22c-.498 0-1.394-.1-1.693-.596-.3-.398-.3-1.993-.3-2.59v-2.89zM121.7 13.832c.1-1.791.697-4.382 2.69-4.382 1.692 0 2.588 1.883 2.588 3.386 0 .697-.3.996-.896.996H121.7zm8.162 1.296c.798 0 1.296.1 1.296-.798 0-3.784-3.087-6.278-6.574-6.278-4.383 0-7.767 3.187-7.568 7.967.209 4.582 3.484 7.47 7.668 7.47 2.49 0 4.78-1.094 6.174-3.286l-.996-.896c-1.195 1.296-2.093 2.29-3.884 2.29-3.387 0-4.283-3.386-4.186-6.373h8.066v-.1l.004.004zm-19.217 3.686c0 2.39.1 3.087-2.29 3.187v1.095c1.494 0 2.987-.1 4.581-.1 1.394 0 2.69.1 4.084.1V22c-2.29-.1-2.093-.996-2.093-3.187V.092l-6.279.996v1.095c2.093.21 2.093 1.095 2.093 2.888v13.743h-.096zm-12.648-7.569V3.876c0-.996 0-1.295.21-1.494.209-.1.696-.21 1.494-.21 2.69 0 3.976 1.694 3.976 4.481 0 3.686-1.793 4.582-4.979 4.582H98l-.004.01zm-4.88 6.28c0 2.787.1 4.382-2.987 4.281v1.196c1.883 0 3.585-.101 5.278-.101 1.993 0 3.885.1 5.875.1v-1.195c-3.286.1-3.286-1.295-3.286-4.282V12.74h2.884c3.585 0 8.066-1.394 8.066-6.07 0-5.08-4.68-6.07-8.564-6.174-1.693 0-3.386.1-5.08.1-1.693-.1-3.484-.1-5.378-.1v1.189c3.093-.1 3.003 1.593 3.003 4.376v11.46h.21l-.022.003zM82.65 10.353V8.956h-3.977v-5.38c0-.895.398-2.19 1.394-2.19 1.593 0 .996 3.087 3.187 3.087.997 0 1.694-.896 1.694-1.884C84.949.496 82.359 0 80.865 0c-1.992 0-4.382.498-5.577 2.29-.798 1.195-.997 2.69-.997 4.186v2.38h-2.187v1.494H74.3v8.464c0 2.29.1 3.087-2.29 3.187v1.095c1.494 0 2.888-.1 4.383-.1 1.791 0 3.484.1 5.278.1V22c-2.995-.1-3.185-.1-3.185-3.382v-8.27l4.165.005zm-19.42-.896c2.887 0 2.986 4.186 2.986 6.373 0 1.993-.1 6.279-2.788 6.279-3.188 0-3.485-3.885-3.485-6.474.109-2.2.408-6.182 3.297-6.182l-.01.004zm0-1.394c-3.978 0-7.868 3.087-7.868 7.568 0 4.68 3.685 7.767 7.968 7.767 4.083 0 7.668-3.187 7.668-7.767.008-4.487-3.677-7.574-7.758-7.574l-.01.006zM42.718 18.32l-1.793-4.68c-.3-.697-.997-2.49-.997-3.087 0-1.195.896-1.095 1.693-1.195v-.995c-1.393 0-2.787.1-4.185.1-1.399 0-2.68-.1-4.073-.1v1.089c.498.1.996.1 1.394.697.209.209.498.697.797 1.494l4.88 11.752-1.088 2.49c-.596 1.196-1.295 2.094-2.689 2.491-1.095.3-2.589.498-2.589 2.093 0 1.095.697 1.693 1.794 1.693 2.29 0 3.087-2.29 3.884-4.083l5.268-11.762c.398-.896 1.884-4.98 2.69-5.976.37-.473.902-.793 1.494-.896V8.363c-.896 0-1.693.1-2.589.1-.996 0-1.993-.1-2.987-.1v1.095c.798.1 1.794.1 1.794 1.494 0 .398-.21.997-.398 1.593l-2.3 5.775zm-7.557 2.088c-.398.3-.597.498-1.095.498-.697 0-.697-1.195-.697-1.693V12.34c0-3.485-2.987-4.186-5.777-4.186-1.992 0-6.174.498-6.174 3.387 0 1.094.697 1.791 1.693 1.791 1.296 0 1.694-1.095 2.093-2.093.498-1.195.798-1.693 1.993-1.693 1.693 0 1.884 1.494 1.884 2.987 0 1.295-.798 1.295-1.794 1.693-2.788 1.201-6.474 2.3-6.474 5.684a3.615 3.615 0 003.686 3.684c1.693 0 3.386-.996 4.582-2.29.397 1.494 1.295 2.29 2.787 2.29 1.394 0 3.188-.798 3.885-2.093l-.592-1.093zm-5.976-1.592c0 1.094-1.195 2.093-2.191 2.093-1.195 0-1.593-1.196-1.593-2.29 0-2.191 2.093-3.087 3.784-3.784v3.98zM8.466 2.882c0-.597.797-.697 1.296-.697 2.588 0 3.784 1.394 3.784 4.186 0 3.187-1.394 4.186-4.383 4.186h-.599V2.88h-.1l.002.002zM.498 23.096c1.593 0 2.987-.1 4.481-.1 1.593 0 3.188.1 4.78.1 3.977.1 10.358-.498 10.358-6.07 0-4.186-3.976-5.477-7.27-5.875v-.1c2.588-.402 5.975-1.698 5.975-4.99 0-4.675-5.08-5.372-8.567-5.372-1.693 0-3.484.1-5.178.1-1.494 0-2.986-.1-4.581-.1v1.186c3.087-.1 2.987 1.495 2.987 4.282v11.461c0 2.788.1 4.383-2.987 4.283l.002 1.195zm7.966-11.053h1.394c3.286 0 4.78 1.494 4.78 4.979 0 2.39-.896 4.481-3.485 4.481-2.69 0-2.69-2.29-2.69-4.481v-4.98z" transform="translate(0 -.116)" fill="currentColor" fill-rule="nonzero"></path>
</svg>