<svg viewBox="0 0 27 36"
    xmlns="http://www.w3.org/2000/svg"
    xmlns:xlink="http://www.w3.org/1999/xlink" focusable="false" class="header__logo-image" data-test-ui="svg__svg">
    <path d="M115.7 43.674c.47 0 .898.084 1.287.253.389.169.724.41 1.007.726.282.315.5.702.654 1.16.154.459.231.978.231 1.557 0 .587-.077 1.111-.231 1.573a3.451 3.451 0 01-.654 1.183 2.838 2.838 0 01-1.007.748 3.14 3.14 0 01-1.287.258 3.14 3.14 0 01-1.287-.258 2.786 2.786 0 01-1.001-.748 3.503 3.503 0 01-.649-1.183 4.963 4.963 0 01-.231-1.573c0-.58.077-1.098.231-1.556.154-.459.37-.846.649-1.161a2.815 2.815 0 011.001-.726 3.199 3.199 0 011.287-.253zm-8.511.132v2.893h2.915v-2.893h1.276V51h-1.276v-3.19h-2.915V51h-1.276v-7.194h1.276zm14.272 0l1.276 3.52.118.345.113.354c.073.238.15.474.231.709h.044l.117-.353.109-.356c.07-.239.144-.472.225-.699l1.243-3.52h1.452V51h-1.177v-3.289c0-.169.005-.352.016-.55.012-.198.024-.398.039-.6l.025-.3.07-.665.015-.173h-.044l-.583 1.672-1.177 3.234h-.759l-1.188-3.234-.572-1.672h-.044l.105 1.139c.018.201.032.401.044.599l.014.376.002.088V51h-1.155v-7.194h1.441zm10.788 0v1.078h-3.058v1.837h2.585v1.078h-2.585v2.123h3.168V51h-4.444v-7.194h4.334zm-16.549.979c-.572 0-1.025.23-1.359.688-.333.458-.5 1.09-.5 1.897 0 .403.044.768.132 1.095.088.326.213.604.374.835a1.7 1.7 0 00.583.534c.227.125.484.187.77.187.286 0 .543-.062.77-.187a1.71 1.71 0 00.583-.534c.161-.23.286-.51.374-.835.088-.327.132-.692.132-1.095 0-.807-.167-1.44-.5-1.898-.334-.458-.787-.687-1.359-.687zm7.889-29.764c1.755 0 2.905.438 4.054 1.398l.94-.855.335.292-3.198 3.047c-.606-1.065-1.776-2.525-3.281-2.713v8.493c2.905-2.065 3.7-2.796 3.7-2.796.229.146 2.925 1.795 3.782 2.296v.042h-.02c-.355.25-.585.814-.585 1.544v9.954c0 2.567-2.32 4.654-4.953 5.384l-.314-.167c1.233-1.085 2.237-2.42 2.237-4.528v-10.81l-2.237-1.544-1.61 1.168v10.915l.063.041 1.087-1.064.355.313-3.281 3.172c-1.045-.814-2.654-1.252-4.557-1.252-2.11 0-3.448.355-4.66 1.293l-.168-.354c.9-1.67 3.094-3.235 5.184-3.569.543-.605 1.254-1.669 1.254-3.422v-10.33c0-1.753.376-2.943 2.424-4.445 1.17-.856 2.404-1.503 3.449-1.503zM122 16.169c-.69.02-1.233.459-1.233 1.607v11.958c0 2.379-1.819 3.986-3.407 4.883 1.777.062 3.511.627 4.64 1.252v-19.7zm-4.62 1.356l.23.105a4.213 4.213 0 00-.899 2.65v9.287c0 2.609-1.755 4.34-3.929 5.593l-.397-.126c.795-.834 1.296-1.961 1.296-3.339v-1.231c-.439-.167-.773-.293-1.338-.293-1.295 0-1.943.585-2.173 1.086l-.23-.23c.125-1.836 1.003-3.464 2.487-3.464.439 0 1.003.188 1.275.23v-1.816a2.69 2.69 0 00-1.296-.292c-.92 0-1.651.146-2.236 1.085l-.21-.23c.022-1.899.941-3.422 2.53-3.422.48 0 1.003.167 1.212.23v-1.232c0-1.962 1.338-3.632 3.679-4.591zm.292-2.525l.147.188c-1.295 1.816-2.173 2.588-3.573 2.588-1.045 0-2.53-.668-3.512-.668-.794 0-1.108.188-1.61.584l-.125-.208c.773-1.398 2.07-2.4 3.24-2.4 1.191 0 3.01.73 3.386.73.731 0 1.4-.292 2.047-.814z" transform="translate(-105 -15)" fill="currentColor" fill-rule="nonzero"></path>
</svg>