<svg viewBox="0 0 169 35"
    xmlns="http://www.w3.org/2000/svg"
    xmlns:xlink="http://www.w3.org/1999/xlink" focusable="false" class="header__logo-image header__logo-image--hawkes-bay-today" data-test-ui="svg__svg">
    <g fill="currentColor" fill-rule="nonzero">
        <path d="M0 29.513h168.77v5.437H0v-5.437zM6.213 1.475h2.408v9.554H6.213V7.3H2.408v3.651H0V1.475h2.408v3.729h3.805V1.475zm6.835 4.894c0-.622-.546-.854-1.243-.854a3.533 3.533 0 00-2.097.622V4.194c.622-.387 1.553-.621 2.486-.621 1.709 0 3.03.621 3.03 2.718v4.582c-.972.197-1.96.3-2.952.31-1.786 0-3.257-.543-3.257-2.252 0-1.555 1.16-2.252 3.18-2.252h.78v-.31h.078-.005zm0 1.709h-.619c-.7 0-1.093.233-1.093.699 0 .466.388.777.932.777.261.01.523-.017.777-.078l.003-1.398zm10.408.39l1.165-4.66h2.252l-2.097 7.221h-2.485l-1.166-4.2-1.165 4.195h-2.485l-2.097-7.219h2.33l1.165 4.663 1.243-4.66h1.942l1.398 4.66zm6.368 2.561h-2.33V.078h2.33v10.951zm.078-3.96l2.407-3.34h2.64L32.387 6.99l2.64 3.961h-2.562l-2.563-3.883z" transform="translate(0 .017)"></path>
        <path d="M36.581 8.078c.156.777 1.093 1.092 1.943 1.092a5.786 5.786 0 002.408-.546v1.862c-.7.465-1.71.621-2.64.621-2.409 0-3.884-1.475-3.884-3.65 0-2.409 1.475-3.884 3.573-3.884 2.408 0 3.184 1.63 3.184 3.495v1.01h-4.584zm2.482-1.249c0-.7-.31-1.32-1.093-1.32-.782 0-1.165.546-1.32 1.32h2.413zm5.44-6.208c0 1.865-.855 3.184-1.786 3.884h-1.475c.777-1.166 1.092-2.33 1.092-3.884h2.17zm-1.32 7.922c.699.466 1.708.777 2.407.777.466 0 .855-.155.855-.465 0-.31-.232-.466-.855-.547-1.786-.233-2.485-.931-2.485-2.33 0-1.708 1.32-2.408 2.951-2.408.932 0 1.553.156 2.175.547v1.94c-.7-.466-1.399-.699-2.097-.699-.621 0-.777.234-.777.466 0 .31.232.388.777.466 2.097.31 2.64 1.092 2.64 2.408 0 1.63-1.243 2.33-3.03 2.33a5.355 5.355 0 01-2.485-.622V8.543h-.078.001zm-16.55 4.738c.976-.16 1.964-.239 2.952-.233 2.097 0 3.806.7 3.806 2.718a2.021 2.021 0 01-1.703 2.02c1.242.156 2.174.931 2.174 2.252 0 1.787-1.397 2.796-4.582 2.796a22.647 22.647 0 01-2.563-.161v-9.392h-.083zm2.331 3.728h.7c1.009 0 1.398-.388 1.398-1.093 0-.621-.466-.931-1.243-.931-.31 0-.7 0-.855.077v1.947zm0 3.883h.777c.932 0 1.709-.234 1.709-1.01 0-.775-.546-1.009-1.399-1.009H28.96v2.024l.005-.005zm9.404-2.718c0-.622-.547-.854-1.243-.854a3.533 3.533 0 00-2.097.622v-1.943c.622-.387 1.553-.621 2.486-.621 1.709 0 3.03.621 3.03 2.718v4.577c-.972.197-1.96.3-2.952.31-1.786 0-3.262-.546-3.262-2.252 0-1.553 1.165-2.253 3.184-2.253h.777v-.31h.078l-.001.006zm0 1.63h-.622c-.699 0-1.092.234-1.092.7 0 .466.388.777.931.777.262.01.523-.017.777-.078l.006-1.398zm6.523.39l1.63-4.738h2.409l-3.961 10.096h-2.252l1.009-2.718-2.952-7.375h2.486l1.631 4.735zm21.126 5.28h-6.214V5.904H52.27V.387h21.282v5.515h-7.534v19.573-.002zM86.677 0c7.3 0 13.125 5.282 13.125 12.975 0 7.694-5.825 12.976-13.126 12.976-7.222 0-13.048-5.282-13.048-12.976C73.628 5.282 79.454 0 86.676 0zm0 5.67c-3.806 0-6.602 2.951-6.602 7.3 0 4.427 2.796 7.3 6.601 7.3s6.601-2.95 6.601-7.295c0-4.432-2.722-7.305-6.6-7.305zM101.666.62c1.864-.309 5.278-.62 8.387-.62 8.388 0 14.057 4.271 14.057 12.738 0 9.165-5.98 13.126-14.213 13.126-3.03 0-6.29-.156-8.233-.622l.001-24.62zm6.29 19.573c.778.078 1.787.156 2.718.156 4.195 0 6.99-2.408 6.99-7.612 0-4.816-3.183-6.913-7.144-6.913-.777 0-1.786.078-2.564.156v14.213zm23.532.544l-1.708 4.738h-6.601L132.965.388h7.534l9.708 25.086h-6.913l-1.708-4.738-10.097.002zm5.126-14.059l-3.261 8.933h6.447l-3.186-8.933zM161.78.388h6.99l-9.014 15.922v9.086h-6.214V16.39L144.46.388h6.913l5.282 9.94 5.126-9.94z" transform="translate(0 .017)"></path>
    </g>
</svg>