<?xml version="1.0" encoding="utf-8"?>
<!-- Generator: Adobe Illustrator 16.2.0, SVG Export Plug-In . SVG Version: 6.00 Build 0)  -->
<!DOCTYPE svg PUBLIC "-//W3C//DTD SVG 1.1//EN" "http://www.w3.org/Graphics/SVG/1.1/DTD/svg11.dtd">
<svg version="1.1" id="Layer_1" xmlns="http://www.w3.org/2000/svg" xmlns:xlink="http://www.w3.org/1999/xlink" x="0px" y="0px"
	 width="198.23px" height="24.102px" viewBox="0 0 198.23 24.102" enable-background="new 0 0 198.23 24.102" xml:space="preserve">
<path fill="#010101" d="M6.77,15.87c-0.648-1.34-0.975-3.375-0.975-6.102c0-2.743,0.326-4.782,0.975-6.115
	c0.65-1.333,1.637-2,2.962-2c1.367,0,2.367,0.679,3,2.038c0.632,1.359,0.948,3.505,0.948,6.436c0,2.564-0.331,4.498-0.993,5.801
	c-0.663,1.303-1.647,1.955-2.955,1.955C8.406,17.884,7.42,17.213,6.77,15.87 M16.865,2.962c-1.756-1.675-4.134-2.513-7.134-2.513
	c-2.991,0-5.36,0.838-7.108,2.513C0.875,4.637,0,6.906,0,9.769c0,2.846,0.877,5.111,2.629,6.795s4.119,2.525,7.103,2.525
	c2.991,0,5.367-0.842,7.128-2.525c1.76-1.684,2.641-3.949,2.641-6.795C19.5,6.906,18.621,4.637,16.865,2.962 M20.656,15.153
	c0,1.273,0.283,2.227,0.853,2.858c0.567,0.634,1.425,0.949,2.569,0.949c0.77,0,1.49-0.181,2.16-0.539
	c0.672-0.358,1.332-0.918,1.981-1.679l-0.654-0.551c-0.222,0.238-0.442,0.422-0.659,0.551c-0.219,0.127-0.418,0.191-0.597,0.191
	c-0.358,0-0.62-0.158-0.782-0.474s-0.244-0.815-0.244-1.5V7.244h2.41V5.859h-2.41V1.333h-1.154
	c-0.426,1.206-1.061,2.225-1.902,3.058s-1.836,1.434-2.98,1.801v1.052h1.41V15.153z M33.632,16.448
	c-0.179,0.094-0.38,0.141-0.603,0.141c-0.377,0-0.684-0.156-0.923-0.469c-0.239-0.311-0.358-0.715-0.358-1.211
	c0-0.657,0.215-1.275,0.646-1.852c0.432-0.578,1.02-1.02,1.764-1.328v4.258C33.986,16.2,33.812,16.354,33.632,16.448 M35.535,18.499
	c0.492,0.324,1.041,0.486,1.647,0.486c0.59,0,1.16-0.17,1.712-0.512c0.551-0.342,1.074-0.846,1.57-1.513l-0.372-0.449
	c-0.196,0.103-0.365,0.183-0.507,0.237c-0.141,0.056-0.254,0.084-0.34,0.084c-0.17,0-0.301-0.084-0.391-0.25
	c-0.089-0.168-0.134-0.418-0.134-0.75V9.769c0-1.453-0.435-2.525-1.302-3.218c-0.867-0.692-2.207-1.038-4.02-1.038
	c-1.734,0-3.128,0.316-4.179,0.949c-1.052,0.632-1.577,1.453-1.577,2.461c0,0.658,0.219,1.186,0.654,1.583s1.017,0.597,1.744,0.597
	c0.563,0,1.022-0.168,1.377-0.507c0.354-0.338,0.533-0.78,0.533-1.327c0-0.273-0.102-0.608-0.303-1.006
	c-0.199-0.398-0.301-0.665-0.301-0.802c0-0.273,0.13-0.5,0.391-0.679c0.262-0.179,0.596-0.269,1.008-0.269
	c0.435,0,0.779,0.139,1.031,0.416c0.252,0.278,0.379,0.665,0.379,1.161v2.679c-2.283,0.668-3.994,1.438-5.136,2.314
	c-1.141,0.876-1.711,1.852-1.711,2.929c0,0.854,0.28,1.563,0.841,2.128c0.559,0.564,1.266,0.846,2.12,0.846
	c0.642,0,1.28-0.148,1.917-0.447s1.344-0.782,2.122-1.449C34.636,17.704,35.043,18.175,35.535,18.499 M48.229,22.55
	c-0.543,0.248-1.276,0.372-2.198,0.372c-0.924,0-1.658-0.124-2.205-0.372s-0.82-0.572-0.82-0.975c0-0.41,0.279-0.73,0.839-0.961
	s1.34-0.346,2.34-0.346c0.872,0,1.565,0.121,2.083,0.365c0.518,0.243,0.775,0.559,0.775,0.941
	C49.043,21.978,48.771,22.302,48.229,22.55 M40.748,15.506c-0.436,0.483-0.652,1.054-0.652,1.711c0,0.462,0.109,0.886,0.333,1.269
	c0.222,0.385,0.555,0.744,1,1.078c-0.573,0.153-1.005,0.379-1.295,0.672c-0.291,0.295-0.437,0.656-0.437,1.084
	c0,0.854,0.557,1.527,1.668,2.02c1.11,0.49,2.666,0.736,4.666,0.736c2.076,0,3.68-0.367,4.813-1.103
	c1.132-0.735,1.698-1.776,1.698-3.128c0-1.145-0.394-2.018-1.18-2.615c-0.785-0.598-1.927-0.896-3.423-0.896h-3.807
	c-0.274,0-0.502-0.073-0.687-0.219c-0.184-0.145-0.275-0.32-0.275-0.525c0-0.266,0.13-0.465,0.391-0.602
	c0.262-0.137,0.643-0.207,1.148-0.207c0.281,0,0.594,0.01,0.935,0.027c0.343,0.016,0.548,0.025,0.616,0.025
	c1.624,0,2.923-0.426,3.896-1.275c0.975-0.852,1.463-1.977,1.463-3.379c0-0.486-0.096-0.966-0.283-1.437
	c-0.188-0.469-0.471-0.926-0.846-1.371H52.3V5.859h-3.091c-0.299,0-0.875-0.053-1.729-0.16s-1.556-0.161-2.103-0.161
	c-1.649,0-2.969,0.447-3.955,1.34c-0.987,0.893-1.48,2.074-1.48,3.545c0,0.829,0.229,1.563,0.686,2.197
	c0.457,0.638,1.156,1.199,2.097,1.688C41.843,14.624,41.185,15.022,40.748,15.506 M44.646,12.801
	c-0.248-0.567-0.372-1.396-0.372-2.481c0-1.222,0.119-2.127,0.359-2.716c0.239-0.59,0.606-0.885,1.103-0.885
	c0.504,0,0.875,0.297,1.115,0.891c0.239,0.594,0.359,1.515,0.359,2.761c0,1.07-0.127,1.884-0.379,2.443
	c-0.252,0.561-0.617,0.84-1.096,0.84C45.257,13.653,44.894,13.368,44.646,12.801 M56.897,7.673c0.244-0.756,0.673-1.135,1.288-1.135
	c0.624,0,1.061,0.396,1.309,1.187c0.248,0.791,0.371,2.31,0.371,4.558s-0.123,3.769-0.371,4.563
	c-0.248,0.794-0.685,1.192-1.309,1.192c-0.615,0-1.044-0.389-1.288-1.168c-0.243-0.776-0.364-2.307-0.364-4.588
	C56.533,9.966,56.654,8.429,56.897,7.673 M53.488,17.096c1.226,1.261,2.793,1.89,4.697,1.89c1.932,0,3.504-0.623,4.719-1.871
	c1.213-1.248,1.82-2.867,1.82-4.858s-0.607-3.609-1.82-4.852c-1.215-1.244-2.787-1.866-4.719-1.866
	c-1.923,0-3.492,0.624-4.711,1.872c-1.218,1.249-1.827,2.863-1.827,4.846C51.647,14.222,52.262,15.835,53.488,17.096 M78.086,2.051
	c1.873,0,3.259,0.639,4.16,1.917C83.148,5.246,83.6,7.214,83.6,9.872c0,2.281-0.402,4.113-1.205,5.492
	c-0.804,1.381-1.846,2.07-3.128,2.07c-0.539,0-0.928-0.127-1.167-0.384c-0.238-0.257-0.359-0.681-0.359-1.271V2.051H78.086z
	 M78.689,18.665c1.367,0,2.583-0.098,3.646-0.295c1.064-0.195,1.93-0.482,2.597-0.858c1.487-0.854,2.606-1.931,3.358-3.229
	s1.129-2.795,1.129-4.487c0-2.795-0.877-4.983-2.629-6.564S82.6,0.859,79.472,0.859H69.92v0.654c0.83,0.034,1.418,0.244,1.764,0.628
	c0.346,0.385,0.52,1.034,0.52,1.949v11.345c0,0.916-0.174,1.567-0.52,1.955c-0.346,0.389-0.934,0.596-1.764,0.622v0.653H78.689z
	 M96.306,16.448c-0.179,0.094-0.38,0.141-0.603,0.141c-0.375,0-0.684-0.156-0.922-0.469c-0.24-0.311-0.359-0.715-0.359-1.211
	c0-0.657,0.216-1.275,0.646-1.852c0.432-0.578,1.02-1.02,1.764-1.328v4.258C96.66,16.2,96.486,16.354,96.306,16.448 M98.209,18.499
	c0.492,0.324,1.041,0.486,1.647,0.486c0.591,0,1.161-0.17,1.712-0.512s1.074-0.846,1.57-1.513l-0.372-0.449
	c-0.196,0.103-0.364,0.183-0.506,0.237c-0.142,0.056-0.254,0.084-0.341,0.084c-0.17,0-0.301-0.084-0.391-0.25
	c-0.089-0.168-0.134-0.418-0.134-0.75V9.769c0-1.453-0.435-2.525-1.301-3.218c-0.868-0.692-2.208-1.038-4.019-1.038
	c-1.736,0-3.129,0.316-4.181,0.949c-1.051,0.632-1.577,1.453-1.577,2.461c0,0.658,0.219,1.186,0.654,1.583s1.018,0.597,1.744,0.597
	c0.564,0,1.023-0.168,1.378-0.507c0.354-0.338,0.532-0.78,0.532-1.327c0-0.273-0.102-0.608-0.301-1.006
	c-0.201-0.398-0.303-0.665-0.303-0.802c0-0.273,0.131-0.5,0.391-0.679c0.262-0.179,0.597-0.269,1.008-0.269
	c0.436,0,0.779,0.139,1.031,0.416c0.252,0.278,0.379,0.665,0.379,1.161v2.679c-2.282,0.668-3.994,1.438-5.135,2.314
	c-1.141,0.876-1.711,1.852-1.711,2.929c0,0.854,0.279,1.563,0.84,2.128c0.559,0.564,1.267,0.846,2.121,0.846
	c0.641,0,1.279-0.148,1.916-0.447s1.344-0.782,2.123-1.449C97.31,17.704,97.718,18.175,98.209,18.499 M104.295,3.923
	c0.462,0.462,1.004,0.692,1.628,0.692c0.633,0,1.175-0.224,1.628-0.673c0.453-0.448,0.68-0.993,0.68-1.634
	c0-0.641-0.224-1.187-0.673-1.635C107.108,0.225,106.563,0,105.923,0c-0.649,0-1.198,0.225-1.647,0.673
	c-0.449,0.449-0.673,0.994-0.673,1.635C103.603,2.923,103.834,3.462,104.295,3.923 M102.347,5.859v0.603
	c0.528,0.085,0.907,0.294,1.134,0.628c0.227,0.333,0.34,0.842,0.34,1.525v7.372c0,0.615-0.113,1.082-0.34,1.402
	c-0.227,0.321-0.605,0.545-1.134,0.674v0.602h7.666v-0.602c-0.522-0.129-0.897-0.353-1.128-0.674
	c-0.23-0.32-0.346-0.787-0.346-1.402V5.859H102.347z M110.988,15.987c0,0.615-0.113,1.082-0.339,1.402
	c-0.227,0.321-0.604,0.545-1.135,0.674v0.602h7.666v-0.602c-0.521-0.129-0.897-0.353-1.128-0.674
	c-0.23-0.32-0.346-0.787-0.346-1.402V0.859h-6.192v0.616c0.53,0.085,0.908,0.292,1.135,0.621c0.226,0.329,0.339,0.836,0.339,1.519
	V15.987z M126.502,8.564c0.207-0.547,0.445-0.995,0.719-1.34c0.273-0.346,0.586-0.601,0.936-0.762V5.859h-3.91v0.603
	c0.479,0.102,0.813,0.239,1,0.41c0.188,0.171,0.283,0.41,0.283,0.718c0,0.145-0.02,0.31-0.059,0.493
	c-0.038,0.184-0.096,0.378-0.173,0.583l-1.5,3.987l-1.858-4.333c-0.076-0.179-0.137-0.339-0.18-0.48s-0.064-0.259-0.064-0.353
	c0-0.308,0.082-0.543,0.244-0.705s0.414-0.269,0.756-0.32V5.859h-7.396v0.603c0.402,0.076,0.752,0.279,1.051,0.608
	c0.299,0.33,0.604,0.853,0.91,1.571l4.281,10.103l-0.846,2.281c-0.171,0.471-0.308,0.78-0.41,0.93
	c-0.103,0.15-0.209,0.225-0.32,0.225c-0.145,0-0.25-0.18-0.314-0.539s-0.126-0.607-0.186-0.742
	c-0.119-0.291-0.303-0.522-0.551-0.693c-0.248-0.172-0.526-0.256-0.834-0.256c-0.469,0-0.867,0.179-1.191,0.537
	c-0.325,0.359-0.488,0.795-0.488,1.309c0,0.641,0.229,1.186,0.686,1.635c0.457,0.448,1.016,0.674,1.674,0.674
	c0.675,0,1.246-0.224,1.712-0.668c0.465-0.445,0.892-1.175,1.274-2.191L126.502,8.564z M132.25,0.859v4.603h0.654
	c0.12-1.24,0.459-2.126,1.02-2.661C134.483,2.267,135.361,2,136.559,2h1.152v13.435c0,0.916-0.174,1.567-0.524,1.955
	c-0.351,0.389-0.937,0.596-1.757,0.622v0.653h10.102v-0.653c-0.846-0.043-1.438-0.254-1.774-0.634
	c-0.339-0.381-0.507-1.027-0.507-1.943V2h1.154c1.196,0,2.078,0.267,2.647,0.801c0.567,0.535,0.911,1.421,1.032,2.661h0.627V0.859
	H132.25z M150.188,3.923c0.463,0.462,1.004,0.692,1.629,0.692c0.633,0,1.174-0.224,1.627-0.673c0.453-0.448,0.68-0.993,0.68-1.634
	c0-0.641-0.223-1.187-0.672-1.635C153.002,0.225,152.457,0,151.816,0c-0.65,0-1.199,0.225-1.648,0.673
	c-0.448,0.449-0.672,0.994-0.672,1.635C149.496,2.923,149.727,3.462,150.188,3.923 M148.24,5.859v0.603
	c0.528,0.085,0.907,0.294,1.133,0.628c0.227,0.333,0.34,0.842,0.34,1.525v7.372c0,0.615-0.113,1.082-0.34,1.402
	c-0.226,0.321-0.604,0.545-1.133,0.674v0.602h7.666v-0.602c-0.523-0.129-0.898-0.353-1.129-0.674
	c-0.23-0.32-0.346-0.787-0.346-1.402V5.859H148.24z M155.254,5.859v0.603c0.529,0.085,0.908,0.294,1.135,0.628
	c0.227,0.333,0.34,0.842,0.34,1.525v7.372c0,0.615-0.113,1.082-0.34,1.402c-0.227,0.321-0.605,0.545-1.135,0.674v0.602h6.961v-0.602
	c-0.367-0.119-0.627-0.338-0.775-0.654c-0.15-0.316-0.225-0.824-0.225-1.525V8.795c0.273-0.359,0.557-0.629,0.846-0.808
	c0.291-0.18,0.586-0.269,0.885-0.269c0.377,0,0.637,0.139,0.783,0.416c0.145,0.278,0.217,0.84,0.217,1.686v5.937
	c0,0.786-0.074,1.342-0.225,1.666c-0.148,0.325-0.408,0.539-0.775,0.642v0.602h6.488v-0.602c-0.359-0.129-0.611-0.349-0.758-0.66
	c-0.145-0.313-0.217-0.818-0.217-1.52V8.795c0.273-0.359,0.549-0.629,0.826-0.808c0.277-0.18,0.561-0.269,0.852-0.269
	c0.395,0,0.668,0.137,0.82,0.41c0.154,0.274,0.232,0.838,0.232,1.691v5.937c0,0.804-0.072,1.36-0.219,1.673
	c-0.145,0.313-0.406,0.523-0.781,0.635v0.602h6.91v-0.602c-0.514-0.103-0.879-0.336-1.098-0.699
	c-0.217-0.362-0.326-0.938-0.326-1.725v-5.396c0-1.615-0.271-2.807-0.814-3.576c-0.543-0.77-1.381-1.154-2.52-1.154
	c-0.768,0-1.49,0.162-2.166,0.487c-0.676,0.325-1.363,0.846-2.063,1.564c-0.258-0.667-0.643-1.175-1.154-1.526
	c-0.514-0.35-1.125-0.525-1.834-0.525c-0.701,0-1.385,0.152-2.051,0.455s-1.303,0.754-1.91,1.352l-0.078-1.461H155.254z
	 M187.434,14.384c-0.385,0.65-0.813,1.141-1.281,1.475c-0.471,0.334-0.98,0.5-1.525,0.5c-0.992,0-1.797-0.408-2.418-1.225
	c-0.619-0.816-0.959-1.921-1.018-3.314l6.896-0.012c-0.051-1.982-0.553-3.524-1.506-4.622c-0.953-1.098-2.271-1.648-3.955-1.648
	c-0.982,0-1.91,0.236-2.783,0.706c-0.871,0.47-1.59,1.119-2.152,1.948c-0.387,0.574-0.678,1.204-0.879,1.891
	s-0.301,1.421-0.301,2.199c0,1.99,0.564,3.605,1.691,4.846c1.129,1.238,2.594,1.857,4.398,1.857c1.281,0,2.404-0.36,3.371-1.082
	c0.965-0.723,1.727-1.764,2.281-3.123L187.434,14.384z M181.563,7.679c0.256-0.726,0.611-1.089,1.064-1.089
	c0.461,0,0.814,0.357,1.057,1.07c0.244,0.714,0.375,1.753,0.391,3.123h-2.91C181.174,9.44,181.305,8.406,181.563,7.679
	 M189.309,18.665c0.102-0.213,0.225-0.371,0.371-0.473c0.145-0.104,0.309-0.154,0.486-0.154c0.111,0,0.568,0.158,1.373,0.474
	c0.803,0.315,1.598,0.474,2.383,0.474c1.223,0,2.246-0.388,3.072-1.166c0.824-0.777,1.236-1.738,1.236-2.885
	c0-0.479-0.066-0.933-0.199-1.365c-0.133-0.431-0.318-0.813-0.557-1.146c-0.359-0.514-1.053-1.104-2.078-1.77
	c-0.289-0.197-0.512-0.346-0.666-0.449c-0.076-0.051-0.188-0.127-0.332-0.23c-1.473-1.008-2.205-1.777-2.205-2.307
	c0-0.334,0.115-0.601,0.346-0.802c0.23-0.2,0.533-0.301,0.91-0.301c0.682,0,1.344,0.293,1.98,0.878
	c0.637,0.586,1.088,1.335,1.352,2.25h0.604V5.667h-0.576c-0.146,0.179-0.291,0.307-0.438,0.384
	c-0.145,0.077-0.303,0.116-0.475,0.116c-0.084,0-0.48-0.109-1.186-0.327s-1.369-0.327-1.994-0.327c-1.238,0-2.258,0.35-3.057,1.051
	s-1.199,1.586-1.199,2.654c0,0.495,0.1,0.971,0.295,1.424c0.197,0.452,0.484,0.862,0.859,1.229c0.512,0.48,1.377,1.154,2.59,2.027
	c0.281,0.205,0.496,0.358,0.641,0.461c0.65,0.479,1.07,0.854,1.264,1.129c0.191,0.272,0.289,0.572,0.289,0.896
	c0,0.436-0.137,0.784-0.404,1.045c-0.271,0.262-0.627,0.391-1.072,0.391c-0.795,0-1.559-0.375-2.295-1.127
	c-0.734-0.752-1.209-1.688-1.422-2.809h-0.59v4.781H189.309z"/>
<g>
</g>
<g>
</g>
<g>
</g>
<g>
</g>
<g>
</g>
<g>
</g>
</svg>
