<svg viewBox="0 0 260 27"
    xmlns="http://www.w3.org/2000/svg"
    xmlns:xlink="http://www.w3.org/1999/xlink" focusable="false" class="header__logo-image header__logo-image--rotorua-daily-post" data-test-ui="svg__svg">
    <g fill="currentColor" fill-rule="nonzero">
        <path d="M134.222 19.929h.399c1.493 0 1.493-.399 1.493-3.587V5.581c0-3.188 0-3.586-1.493-3.586h-.399v-.7h10.165c4.982 0 8.668 3.489 8.668 9.767 0 6.277-3.686 9.766-8.668 9.766h-10.165v-.9zm6.975-.209h1.992c3.687 0 4.59-3.388 4.59-8.763 0-5.374-.897-8.762-4.59-8.762h-1.992V19.72zm27.604-2.88v.798c0 2.193-.897 3.488-3.687 3.488-1.794 0-2.99-.398-3.388-1.794-.697 1.296-2.39 1.794-3.787 1.794-2.69 0-4.683-1.396-4.683-3.985 0-3.388 3.786-4.59 6.974-4.59.435-.02.87.014 1.296.1V9.867c0-1.395-.399-2.295-1.794-2.295-.5 0-1.494.1-1.494.797 0 .499.596.697.596 1.594 0 1.196-.997 2.087-2.295 2.087-1.297 0-2.294-.898-2.294-2.295 0-2.79 3.886-3.188 5.979-3.188 3.488 0 5.98.697 5.98 4.982v6.186c0 1.195 0 1.794.696 1.794.697 0 .697-1.095.697-1.892v-.795h1.204zm-7.375-3.19c-.209-.1-.399-.1-.797-.1-2.087 0-2.692 1.595-2.692 3.49 0 1.493.6 2.49 1.594 2.49 1.196 0 1.893-.897 1.893-2.193l.002-3.686zm10.07 7.076c-1.892 0-1.794-2.193-1.794-2.193v-5.68c0-4.783-.1-4.981-1.195-4.981h-.703v-.797h1.189c1.794 0 3.985-.1 5.48-.399-.1 1.096-.1 2.295-.1 3.388v7.374c0 1.892 0 2.59 1.096 2.59h.498v.798h-4.47v-.1zM171.89 0c1.395 0 2.691 1.195 2.691 2.591 0 1.494-1.296 2.591-2.691 2.591-1.396 0-2.79-1.195-2.79-2.59 0-1.397 1.296-2.592 2.79-2.592z" transform="translate(0 -.061)"></path>
        <path d="M182.053 16.74c0 2.89.1 3.189 1.096 3.189h.696v.797h-8.468v-.797h.897c.897 0 1.196-.399 1.196-1.594V3.488c0-1.992-.299-2.39-.998-2.39h-.997v-.8h6.776v16.443h-.208.01z" transform="translate(0 -.061)"></path>
        <path d="M190.722 6.975v.797h-.399c-.398 0-1.195 0-1.195.398 0 .298.398 1.494.897 2.691l1.594 4.382h.1l1.396-3.489c.499-1.395 1.095-2.99 1.095-3.388 0-.398-.697-.498-1.095-.498h-.4v-.793H197v.797h-.6c-.498 0-1.395 2.086-2.085 3.985l-4.186 10.362c-.797 1.993-1.794 4.882-4.38 4.882-1.595 0-3.189-1.195-3.189-2.89 0-1.094.897-2.085 1.993-2.085 1.195 0 2.086.696 2.086 1.992 0 .797-.499.897-.499 1.296 0 .398.209.596.499.596.697 0 1.594-1.992 1.794-2.59l.797-1.993-4.287-10.864c-.797-2.086-1.096-2.691-1.694-2.691h-.6v-.797h8.073v-.1zm22.32 4.083a16.872 16.872 0 01-2.295-.1v5.086c0 3.388 0 3.787 1.594 3.787h.398v.995h-9.562v-.897h.399c1.594 0 1.594-.399 1.594-3.787V4.684c0-3.388 0-3.787-1.594-3.787h-.399V0h9.666c3.687 0 8.47.597 8.47 5.38-.1 4.684-4.585 5.678-8.271 5.678zm-2.391-.998h.797c2.69 0 4.285-1.694 4.285-4.59 0-3.985-2.295-4.483-4.381-4.483h-.697v9.077l-.004-.004zm24.314 3.501c0 4.684-2.79 7.772-7.574 7.772-4.684 0-7.573-3.09-7.573-7.772s2.794-7.782 7.573-7.782c4.782-.098 7.574 3.09 7.574 7.782zm-9.864 0c0 4.484.208 6.777 2.294 6.777 2.087 0 2.295-2.295 2.295-6.777 0-4.381-.208-6.776-2.295-6.776-2.086 0-2.294 2.282-2.294 6.776zm21.92-3.098h-1.095c-.398-1.892-1.794-3.687-3.985-3.687-1.295 0-2.79.597-2.79 1.993 0 1.496 1.397 1.794 3.289 2.295l1.794.398c1.993.499 3.787 1.396 3.787 4.484 0 3.686-2.99 5.38-6.378 5.38-.8-.02-1.599-.09-2.39-.208a12.18 12.18 0 00-1.695-.299 3.728 3.728 0 00-1.794.5v-5.475h1.095c.399 2.59 2.086 4.483 4.784 4.483 1.494 0 2.89-.897 2.89-2.193 0-1.295-.499-1.892-2.79-2.39l-1.398-.399c-2.59-.597-4.784-1.594-4.784-4.59 0-3.388 2.89-4.982 5.98-4.982.9.016 1.799.086 2.691.209.393.082.795.116 1.196.1.498 0 1.095-.1 1.493-.399v4.78h.1zm8.27-4.285h2.89v.897h-2.89v9.167c0 1.095 0 3.188 1.296 3.188 1.396 0 1.396-2.086 1.396-3.09h1.095v.697c0 2.591-1.095 4.285-4.185 4.285-3.388 0-4.59-1.794-4.59-4.982V7.075h-1.892v-.897c3.09-.299 5.38-3.489 6.08-6.178h.797v6.178h.004zM6.279 12.954l5.679 7.872H8.569l-5.28-7.574h-.5v7.574H0V2.393h3.288c2.391 0 4.185.499 5.28 1.396 1.196.995 1.795 2.39 1.795 4.085a5.733 5.733 0 01-1.096 3.392 6.361 6.361 0 01-2.99 1.688zM2.79 10.868h.898c2.59 0 3.984-.998 3.984-2.99-.1-1.992-1.295-2.89-3.886-2.89H2.79v5.88zm11.56.592a8.971 8.971 0 012.89-6.676c1.893-1.892 4.186-2.79 6.885-2.79a9.255 9.255 0 016.777 2.79 9.255 9.255 0 012.779 6.774c0 2.692-.998 4.882-2.89 6.777-1.892 1.894-4.185 2.79-6.885 2.79-2.39 0-4.483-.798-6.378-2.492-2.088-1.792-3.177-4.183-3.177-7.173zm2.89.1a6.918 6.918 0 002.087 5.083c1.395 1.295 2.89 1.992 4.683 1.992a6.772 6.772 0 004.883-1.992 7.004 7.004 0 001.992-4.982 7.004 7.004 0 00-1.986-4.985 6.61 6.61 0 00-4.882-1.992 6.772 6.772 0 00-4.884 1.992c-1.296 1.296-1.893 2.89-1.893 4.882v.002zm26.006-6.578v15.844h-2.789V4.982h-4.285V2.391h11.266v2.591h-4.192zm6.977 6.478a8.971 8.971 0 012.89-6.676c1.892-1.892 4.185-2.79 6.885-2.79a9.257 9.257 0 016.766 2.79 9.255 9.255 0 012.789 6.774c0 2.692-.997 4.882-2.89 6.777-1.892 1.894-4.185 2.79-6.884 2.79-2.391 0-4.484-.798-6.378-2.492-2.183-1.792-3.178-4.183-3.178-7.173zm2.79.1a6.918 6.918 0 002.086 5.083c1.396 1.295 2.89 1.992 4.684 1.992a6.77 6.77 0 004.894-1.994 7.004 7.004 0 001.993-4.983 7.004 7.004 0 00-1.993-4.982 6.61 6.61 0 00-4.882-1.992 6.772 6.772 0 00-4.89 1.992 6.937 6.937 0 00-1.892 4.882v.002zm28 1.394l5.68 7.872h-3.389l-5.274-7.574h-.499v7.574h-2.796V2.39h3.295c2.39 0 4.185.499 5.28 1.396 1.196.995 1.795 2.39 1.795 4.085a5.733 5.733 0 01-1.102 3.394 6.361 6.361 0 01-2.99 1.688zm-3.488-2.086h.897c2.591 0 3.985-.998 3.985-2.99 0-1.892-1.296-2.79-3.887-2.79h-.997l.002 5.78zM93.367 2.39v11.17c0 1.594.299 2.79.797 3.488.797 1.096 1.893 1.594 3.289 1.594 1.395 0 2.49-.498 3.288-1.594.498-.696.797-1.892.797-3.488V2.391h2.789V14.25c0 1.993-.598 3.587-1.794 4.784a6.858 6.858 0 01-4.982 2.086c-1.993 0-3.687-.697-4.983-2.086-1.196-1.295-1.794-2.89-1.794-4.784V2.39h2.593zm27.104 13.951h-7.872l-2.086 4.484h-2.996l9.167-19.63 8.763 19.63h-3.082l-1.894-4.484zm-1.095-2.591l-2.692-6.278-2.89 6.278h5.582z" transform="translate(0 -.061)"></path>
    </g>
</svg>