<svg viewBox="0 0 260 27"
    xmlns="http://www.w3.org/2000/svg"
    xmlns:xlink="http://www.w3.org/1999/xlink" focusable="false" class="header__logo-image header__logo-image--whanganui-chronicle" data-test-ui="svg__svg">
    <path d="M251.964 11.998v-.516a6.45 6.45 0 01.857-3.557c.248-.453.72-.738 1.235-.747.297-.014.589.081.82.267.395.35.672.814.793 1.327a13.18 13.18 0 01.258 3.226h-3.963zm5.907-4.064a4.681 4.681 0 00-3.594-1.705 5.658 5.658 0 00-4.322 2.027 7.704 7.704 0 00-1.843 5.428 8.183 8.183 0 001.254 4.645 5.17 5.17 0 004.607 2.34 5.271 5.271 0 003.106-.921 8.146 8.146 0 002.451-3.207l-.488-.323a6.211 6.211 0 01-1.54 1.76 2.69 2.69 0 01-1.584.489 3.078 3.078 0 01-2.424-1.207 7.077 7.077 0 01-1.447-4.285h7.483a7.695 7.695 0 00-1.64-5.041M240.519.497v.544c.477-.028.946.138 1.3.46a3.25 3.25 0 01.331 1.844v14.062a3.262 3.262 0 01-.286 1.779 1.788 1.788 0 01-1.345.525v.525h7.372v-.525a1.79 1.79 0 01-1.308-.452 3.198 3.198 0 01-.341-1.843V.497h-5.723zm-1.77 17.51c-.42.218-.889.332-1.363.33a2.986 2.986 0 01-1.89-.626 5.63 5.63 0 01-1.677-2.617 10.939 10.939 0 01-.617-3.686 6.294 6.294 0 01.756-3.437 1.438 1.438 0 011.198-.747c.305 0 .595.136.792.369.267.374.415.82.424 1.28-.006.735.238 1.45.691 2.028.373.38.887.587 1.42.571.488.022.965-.158 1.317-.497a1.76 1.76 0 00.507-1.327 3.078 3.078 0 00-1.29-2.378 4.985 4.985 0 00-3.354-1.069 5.741 5.741 0 00-4.95 2.553 8.358 8.358 0 00-1.483 4.967 7.722 7.722 0 001.631 4.949 5.299 5.299 0 004.36 2.055 5.75 5.75 0 003.059-.922 6.746 6.746 0 002.396-2.69l-.452-.351a6.34 6.34 0 01-1.548 1.272M221.6 6.644v.534c.477-.027.946.139 1.3.46.287.57.402 1.21.331 1.844v7.925a3.262 3.262 0 01-.286 1.779 1.788 1.788 0 01-1.345.525v.525h7.372v-.525a1.843 1.843 0 01-1.308-.452 3.28 3.28 0 01-.341-1.843V6.644H221.6zM223.683.7a2.203 2.203 0 00-.673 1.594 2.258 2.258 0 003.843 1.594c.432-.416.673-.994.663-1.594A2.202 2.202 0 00226.862.7a2.258 2.258 0 00-3.198 0m-17.37 5.944v.534c.444.012.868.19 1.188.498a3.88 3.88 0 01.286 1.926v7.704a4.055 4.055 0 01-.249 1.889 1.677 1.677 0 01-1.226.553v.525h6.903v-.525a1.42 1.42 0 01-1.06-.498 4 4 0 01-.286-1.935v-7.28c.719-1.198 1.493-1.843 2.332-1.843.25-.001.494.083.69.24.219.174.377.412.452.681.116.697.16 1.405.13 2.11v6.073a4.359 4.359 0 01-.231 1.844 1.446 1.446 0 01-1.115.635v.526h6.902v-.526a1.631 1.631 0 01-1.189-.488 3.99 3.99 0 01-.285-1.954v-5.335a14.127 14.127 0 00-.23-3.198 3.585 3.585 0 00-1.171-1.843 3.308 3.308 0 00-2.202-.737 4.276 4.276 0 00-2.074.525 8.045 8.045 0 00-2.009 1.65V6.644h-5.557zm-5.972.921c.403.354.686.824.81 1.346.237 1.12.333 2.265.287 3.41a33.756 33.756 0 01-.295 5.602 2.479 2.479 0 01-.756 1.382c-.312.245-.7.373-1.097.36a1.622 1.622 0 01-1.198-.535 2.765 2.765 0 01-.682-1.575 19.352 19.352 0 01-.184-2.913c0-1.972.055-3.501.166-4.607a3.861 3.861 0 01.7-2.212c.32-.355.776-.556 1.254-.553.357-.016.708.091.995.304m-5.714.839a8.082 8.082 0 00-1.695 5.114 8.017 8.017 0 001.659 5.004 5.649 5.649 0 004.745 2.157 5.824 5.824 0 004.912-2.36 7.86 7.86 0 001.475-4.856 8.58 8.58 0 00-.802-3.686 5.87 5.87 0 00-2.322-2.608 6.359 6.359 0 00-3.309-.921 5.594 5.594 0 00-4.663 2.184m-13.205-1.797v.534c.341.015.675.106.977.267.202.149.35.36.424.6.104.487.144.985.12 1.483v7.538a4.608 4.608 0 01-.314 2.193 1.622 1.622 0 01-1.207.489v.525h7.372v-.525a3.05 3.05 0 01-1.161-.221 1.189 1.189 0 01-.516-.581 3.41 3.41 0 01-.101-1.06v-3.953a9.916 9.916 0 01.46-3.124 3.041 3.041 0 01.922-1.41 1.26 1.26 0 01.802-.323.691.691 0 01.34.083c.065 0 .295.23.673.563.368.325.845.5 1.336.488.445.003.868-.193 1.152-.535a2.24 2.24 0 00.47-1.52 1.963 1.963 0 00-.553-1.42 1.76 1.76 0 00-1.308-.506 3.52 3.52 0 00-1.963.7 9.87 9.87 0 00-2.377 2.765v-3.05h-5.548zM166.216.497v.544c.446.004.873.182 1.189.497.263.606.37 1.268.313 1.926v13.823a4.009 4.009 0 01-.249 1.843 1.686 1.686 0 01-1.225.553v.526h6.911v-.526a1.42 1.42 0 01-1.142-.608 4.672 4.672 0 01-.212-1.843v-7.197a5.197 5.197 0 011.188-1.4 1.944 1.944 0 011.143-.406c.256 0 .505.084.71.24.21.175.364.409.442.672.116.7.16 1.41.129 2.12v6.082a3.963 3.963 0 01-.258 1.843c-.27.336-.667.546-1.097.58v.525h6.912v-.525a1.659 1.659 0 01-1.18-.488 3.907 3.907 0 01-.295-1.945v-5.335a13.215 13.215 0 00-.295-3.327 3.465 3.465 0 00-1.216-1.705 3.373 3.373 0 00-2.193-.737c-.675.003-1.34.17-1.935.488a8.294 8.294 0 00-2.055 1.678V.497h-5.585zm-1.732-.452a1.843 1.843 0 01-.452 1.088c-.21.224-.504.351-.81.35a7.252 7.252 0 01-1.706-.525 12.045 12.045 0 00-4.405-.922 10.846 10.846 0 00-5.344 1.401c-1.67.94-3.05 2.32-3.99 3.99a10.45 10.45 0 00-1.475 5.363 10.22 10.22 0 001.327 5.06 9.013 9.013 0 003.797 3.686 12.054 12.054 0 005.62 1.262 10.551 10.551 0 004.203-.774c1.32-.63 2.498-1.52 3.465-2.617V15.73a11.85 11.85 0 01-3.271 2.81 7.234 7.234 0 01-3.42.82 5.87 5.87 0 01-3.685-1.114 6.45 6.45 0 01-2.101-3.3 16.588 16.588 0 01-.673-4.837 12.49 12.49 0 01.921-4.894 6.202 6.202 0 012.258-2.764 5.87 5.87 0 013.4-1.06 6.11 6.11 0 013.963 1.428 7.252 7.252 0 012.396 4.11h.571V.045h-.59zm-33.48 6.599v.534c.478-.027.946.139 1.3.46a3.18 3.18 0 01.34 1.844v7.925a3.235 3.235 0 01-.294 1.779 1.779 1.779 0 01-1.345.525v.525h7.372v-.525a1.843 1.843 0 01-1.318-.452 3.3 3.3 0 01-.332-1.843V6.644h-5.722zM133.097.7a2.165 2.165 0 00-.654 1.594 2.23 2.23 0 002.24 2.212 2.212 2.212 0 001.603-.655c.432-.416.673-.993.663-1.594a2.175 2.175 0 00-.663-1.594 2.249 2.249 0 00-3.189 0m-9.795 5.98v.535c.444.012.868.19 1.188.498a3.88 3.88 0 01.286 1.926v7.289a5.852 5.852 0 01-1.4 1.53 1.705 1.705 0 01-.922.276 1.115 1.115 0 01-.691-.212 1.235 1.235 0 01-.443-.645 7.778 7.778 0 01-.138-1.843V6.644h-5.53v.534c.446.009.871.187 1.19.498a3.88 3.88 0 01.285 1.926v5.41a11.777 11.777 0 00.314 3.307 3.41 3.41 0 001.198 1.66c.58.464 1.302.715 2.045.709a4.47 4.47 0 002.194-.535 7.27 7.27 0 001.953-1.695V20.3h5.53v-.526a1.64 1.64 0 01-1.18-.488 3.907 3.907 0 01-.295-1.944v-10.7h-5.584zm-22.716 0v.535c.444.012.868.19 1.189.498a3.88 3.88 0 01.285 1.926v7.704a4.055 4.055 0 01-.249 1.889 1.677 1.677 0 01-1.225.553v.525h6.902v-.525a1.42 1.42 0 01-1.06-.507 4 4 0 01-.285-1.935v-7.271c.718-1.198 1.493-1.843 2.331-1.843.251-.001.495.083.691.24.235.167.41.406.498.681.116.697.159 1.405.129 2.11v6.073a4.359 4.359 0 01-.23 1.844 1.448 1.448 0 01-1.116.635v.526h6.903v-.526a1.631 1.631 0 01-1.189-.488 3.99 3.99 0 01-.286-1.954v-5.335a14.127 14.127 0 00-.23-3.198 3.585 3.585 0 00-1.17-1.843 3.308 3.308 0 00-2.203-.737 4.276 4.276 0 00-2.073.525 8.045 8.045 0 00-2.01 1.65V6.644h-5.602zm-7.621 11.372a1.327 1.327 0 01-1.023-.396 1.65 1.65 0 01-.48-1.18 2.7 2.7 0 01.572-1.585 8.414 8.414 0 012.626-2.22v4.561a2.765 2.765 0 01-1.695.82m2.497 1.908c.53.396 1.184.589 1.843.544a3.327 3.327 0 001.779-.489 5.234 5.234 0 001.502-1.566l-.433-.35a1.032 1.032 0 01-.774.534.516.516 0 01-.332-.11.71.71 0 01-.221-.36 5.612 5.612 0 01-.074-1.17v-5.3a11.445 11.445 0 00-.203-2.764 3.797 3.797 0 00-1.465-1.788 5.096 5.096 0 00-3.069-.829 9.492 9.492 0 00-3.096.516 5.271 5.271 0 00-2.34 1.4 2.977 2.977 0 00-.84 2 1.7 1.7 0 00.627 1.3c.423.375.974.573 1.54.553a1.963 1.963 0 001.39-.498 1.64 1.64 0 00.526-1.216 1.843 1.843 0 00-.59-1.217 1.272 1.272 0 01-.405-.755.746.746 0 01.378-.609 2.682 2.682 0 011.566-.423 1.84 1.84 0 011.05.294c.275.166.493.41.627.7.155.637.214 1.292.176 1.945v1.373a25.572 25.572 0 00-5.852 3.318 3.77 3.77 0 00-1.346 2.81 2.58 2.58 0 00.775 1.917c.516.51 1.219.786 1.944.765 1.32 0 2.814-.734 4.479-2.202.04.636.329 1.23.801 1.658M83.26 22.43c.45.07.866.279 1.189.6a.922.922 0 01.212.617 1.677 1.677 0 01-1.161 1.511c-.998.4-2.069.585-3.143.544-1.116.1-2.24-.11-3.243-.608a1.696 1.696 0 01-.858-1.346 1.364 1.364 0 01.83-1.225 5.032 5.032 0 011.972-.25c1.415-.039 2.83.013 4.239.157M81.233 7.832a6.829 6.829 0 01.654 3.567 5.769 5.769 0 01-.58 3.114 1.76 1.76 0 01-1.466.802 1.668 1.668 0 01-1.364-.802 5.53 5.53 0 01-.571-2.985 7.105 7.105 0 01.58-3.539 1.686 1.686 0 011.429-.848c.53-.017 1.03.246 1.318.691M79.638 6.23a6.045 6.045 0 00-4.202 1.465 4.525 4.525 0 00-1.63 3.465 4.387 4.387 0 00.92 2.7 5.98 5.98 0 002.83 1.843 6.193 6.193 0 00-2.497 1.705 3.069 3.069 0 00-.775 1.954 2.884 2.884 0 001.899 2.598 4.046 4.046 0 00-1.843.922 1.696 1.696 0 00-.507 1.207c.02.518.258 1.003.654 1.336a4.79 4.79 0 002.175.986c1.1.25 2.226.37 3.354.36a12.09 12.09 0 004.332-.719 4.405 4.405 0 002-1.493 3.686 3.686 0 00.755-2.248 3.06 3.06 0 00-1.65-2.876 9.077 9.077 0 00-4.211-.672h-2.525a2.037 2.037 0 01-1.309-.35 1.087 1.087 0 01-.405-.867 1.373 1.373 0 01.405-1.06 1.548 1.548 0 011.106-.433l1.751.074a6.303 6.303 0 002.488-.562 5.29 5.29 0 002.203-1.677 4.23 4.23 0 00.46-4.175 4.985 4.985 0 00-.995-1.3h2.617V6.8h-4.607a7.649 7.649 0 00-2.765-.571m-21.352.415v.534c.445.009.87.187 1.19.498a3.88 3.88 0 01.285 1.926v7.704a4.055 4.055 0 01-.249 1.889 1.677 1.677 0 01-1.226.553v.525h6.903v-.525a1.42 1.42 0 01-1.088-.498 4 4 0 01-.286-1.935v-7.28c.72-1.198 1.503-1.843 2.332-1.843a1.1 1.1 0 01.691.24c.218.174.376.412.452.681.115.697.159 1.405.129 2.11v6.073a4.202 4.202 0 01-.23 1.844 1.448 1.448 0 01-1.116.635v.526h6.902v-.526a1.668 1.668 0 01-1.188-.525 3.99 3.99 0 01-.286-1.954v-5.298a14.127 14.127 0 00-.23-3.198 3.585 3.585 0 00-1.17-1.843 3.308 3.308 0 00-2.203-.737 4.276 4.276 0 00-2.074.525 8.045 8.045 0 00-2.009 1.65V6.644h-5.529zm-7.943 11.371a1.3 1.3 0 01-1.023-.396 1.65 1.65 0 01-.507-1.133c.013-.575.21-1.131.562-1.585a8.635 8.635 0 012.627-2.221v4.561a2.765 2.765 0 01-1.687.82m2.488 1.908a2.81 2.81 0 001.843.544 3.27 3.27 0 001.77-.489 5.253 5.253 0 001.51-1.566l-.432-.35c-.267.359-.525.534-.774.534a.562.562 0 01-.341-.11.765.765 0 01-.212-.36 5.004 5.004 0 01-.074-1.17v-5.345a11.98 11.98 0 00-.203-2.765 3.907 3.907 0 00-1.456-1.834 5.105 5.105 0 00-3.078-.83 9.436 9.436 0 00-3.087.517 5.253 5.253 0 00-2.322 1.447 3.013 3.013 0 00-.83 2c.006.502.232.977.618 1.299.425.372.975.569 1.54.553a1.935 1.935 0 001.39-.498c.345-.31.54-.753.535-1.216a1.843 1.843 0 00-.553-1.217 1.272 1.272 0 01-.405-.755.746.746 0 01.377-.609 2.654 2.654 0 011.558-.423 1.84 1.84 0 011.05.294c.28.163.502.407.636.7.15.637.206 1.292.166 1.945v1.373a25.443 25.443 0 00-5.842 3.318 3.77 3.77 0 00-1.346 2.81 2.58 2.58 0 00.774 1.917 2.654 2.654 0 001.936.765c1.327 0 2.82-.734 4.478-2.202.05.634.336 1.226.802 1.658M29.129.497v.544c.447 0 .876.179 1.19.497.258.607.356 1.27.285 1.926v13.823a4.009 4.009 0 01-.249 1.843c-.312.35-.757.55-1.225.553v.526h6.911v-.526a1.4 1.4 0 01-1.133-.608 4.433 4.433 0 01-.222-1.843v-7.197a5.363 5.363 0 011.198-1.4c.32-.268.718-.423 1.134-.443.257-.003.507.081.71.24.215.172.373.407.45.672.117.7.16 1.41.13 2.12v6.082a3.92 3.92 0 01-.267 1.843c-.267.335-.66.546-1.088.58v.526h6.912v-.526a1.64 1.64 0 01-1.18-.479 3.797 3.797 0 01-.295-1.935v-5.317a12.69 12.69 0 00-.304-3.327 3.548 3.548 0 00-3.382-2.442 4.193 4.193 0 00-1.944.488 8.644 8.644 0 00-2.055 1.678V.497H29.13zm-4.92 0v.544a2.682 2.682 0 011.557.368c.272.228.424.567.415.922-.005.31-.045.62-.12.921a16.2 16.2 0 01-.627 1.843l-3.225 8.47-3.603-9.419c-.29-.66-.51-1.349-.655-2.055 0-.195.061-.385.175-.543a.977.977 0 01.48-.35 5.53 5.53 0 011.446-.157V.497H10.47v.544a3.05 3.05 0 011.391.249c.348.193.638.476.839.82a15.5 15.5 0 011.041 2.304l.81 2.091-3.105 7.502-3.88-9.593a8.828 8.828 0 01-.709-2.35.922.922 0 01.341-.71c.419-.241.9-.35 1.382-.313V.497H0v.544c.507.002.99.22 1.327.599a16.293 16.293 0 011.382 2.949l6.506 16.136h.544l5.39-12.745 4.903 12.745h.572l6.192-16.311c.553-1.392.867-2.148.922-2.267.156-.318.387-.593.673-.802.274-.182.592-.287.921-.304V.497H24.21z" transform="translate(0 .076)" fill="currentColor" fill-rule="nonzero"></path>
</svg>