<svg viewBox="0 0 1727 455" xmlns="http://www.w3.org/2000/svg" fill-rule="evenodd" clip-rule="evenodd" stroke-linejoin="round" stroke-miterlimit="1.41"><g fill="#004a87" fill-rule="nonzero"><path d="M182.3 40.82l-30.03 26.03v117.2c0 14.57-.78 24.26-2.32 29.06-1.72 6.33-5.67 13.1-11.85 20.3-12.53 14.56-30.05 31.2-52.54 49.86 13.72 15.23 28.43 26.9 44.12 35.02 15.7 8.13 34.1 13.55 55.2 16.3L182.3 40.81zm-64.32-11.29l6.3 7.2c-25.51 17.29-44.51 35.77-57 55.45-16.1 25.34-24.14 52.9-24.14 82.69 0 36.12 11.9 69.5 35.69 100.14 10.27-8.38 16.43-15.45 18.49-21.18 2.05-5.74 3.08-21.44 3.08-47.13V91.67L210.43 0c25.62 10.1 45.77 16.65 60.46 19.64 14.69 3 31.94 4.5 51.76 4.5h5.9l4.23 9.37-42.37 40.45c-28.44-3.09-60.53-13.53-96.3-31.33l2.58 293.23 9.73.26c24.58 0 46.99-4.22 67.21-12.64 20.23-8.43 41.2-22.1 62.87-41.03l7.83 7.58c-15.92 21.95-31.54 39-46.86 51.17-15.32 12.17-33.76 21.9-55.34 29.18-21.56 7.29-42.96 10.93-64.19 10.93-31.5 0-61.16-7.62-88.97-22.85-27.82-15.23-49.6-37.06-65.35-65.48C7.87 264.58 0 235.3 0 205.17c0-37.15 11.11-71.55 33.34-103.23C50.78 77.12 79 52.98 117.98 29.54z"/><path d="M443.8 13.35l2.56 6.17c-12.25 7.87-20.62 16.26-25.11 25.16-4.48 8.9-6.72 23.03-6.72 42.37v83.7l79.46-63.16c16.9 10.97 27.9 21.54 33.02 31.74 5.12 10.2 7.68 27.54 7.68 52.03v116.4c0 22.28-2.3 38.55-6.93 48.83-7.36 16.79-20.97 32.55-40.83 47.28-26.02 19.53-59.14 36.4-99.37 50.62l-3.6-9.76c32.7-13.53 55.47-25.85 68.3-36.98 12.85-11.13 21.23-22.94 25.17-35.43 2.91-9.42 4.37-33.9 4.37-73.45v-107.6c0-11.99-1.2-20.29-3.6-24.91-3.6-6.33-10.2-12.58-19.8-18.75l-43.88 35.54v142.96l18.23 18.36-45.06 36.84-45.83-36.84 20.28-20.16V90.84c0-21.2-1.87-35.74-5.6-43.6-3.73-7.87-11.1-14.97-22.13-21.3l2.82-6.42c9.05 2.56 16.3 5.44 21.77 8.6 5.46 3.17 12.62 8.69 21.5 16.56 10.46-9.92 20.5-17.2 30.1-21.83 9.6-4.61 20.67-7.78 33.2-9.5zM687.87 107.6l38.9 46.6-38.9 34.53-32.46-41.11-25.45 23.14V320.2l29.27 21.05 26.45-20.8 5.9 8.23-65.86 52.63c-14-12.5-25.75-21.48-35.24-26.96a130.93 130.93 0 0 0-31.13-12.84v-5.65c7.53-5.3 12.45-10.65 14.77-16.05 2.3-5.39 3.46-15.7 3.46-30.94V184.12c0-13.18-1.47-21.96-4.4-26.32-2.94-4.37-6.16-6.55-9.68-6.55-3.85 0-9.13 3.43-15.83 10.28l-6.3-7.45 53.54-46.48c14.6 11.13 24.57 20.8 29.9 29.02 3.43 5.13 5.15 12.24 5.15 21.3l57.9-50.32zM787.37 312.24l67.02 27.48V176.66c-21.06-9.85-35.95-16.34-44.68-19.45-6.16-2.24-13.61-4.16-22.34-5.71v160.74zm119.4-167.16v192.07c-25.72 10.44-44.32 19-55.8 25.67a139.92 139.92 0 0 0-25.21 18.5c-24.86-15.07-45.42-25.51-61.7-31.34-12.34-4.44-26.32-7.01-41.91-7.7l-2.57-5.13c6.5-5.48 10.61-10.44 12.33-14.9 2.4-5.82 3.6-15.66 3.6-29.52V151.76c31.37-10.44 58.2-25.17 80.5-44.17 24.33 16.1 54.59 28.6 90.76 37.5zM1083.81 107.6l35.05 38.5 25.04-24.13 7.31 6.93c-12.1 11-19.44 19.33-22.03 25-3.46 7.56-5.19 17.96-5.19 31.2v122.4c0 11.34 1.81 19.77 5.43 25.26 2.22 3.6 4.71 5.41 7.47 5.41 2.41 0 8.08-3.34 17.02-10.01l6.3 7.96-55.09 45.2c-14.26-10.72-23.41-20.2-27.45-28.44-4.04-8.25-6.06-21.55-6.06-39.91V172.46l-22.69-23.98-43.81 35.16v142.47l19.26 18.36-45.32 36.84-45.58-36.84 19.26-18.36V195.09c0-18.63-1.9-31.2-5.68-37.7-2.57-4.43-5.5-6.66-8.76-6.66-3.44 0-8.6 3.34-15.48 10.01l-6.29-7.96 54.56-45.19c15.12 11.25 24.58 20.15 28.36 26.69 3.78 6.53 5.67 15.6 5.67 27.22v9.26l78.7-63.17zM1222.5 19.78h32.6l-35.42 55.46h-10.28l13.1-55.46zm-19.39 87.81l45.58 37.88-20.29 19.64v139.68c0 14.73 1.24 24.31 3.72 28.76 2.47 4.45 5.02 6.68 7.65 6.68 1.85 0 3.55-.43 5.1-1.29 2.16-1.2 6.64-4.62 13.45-10.26l6.29 7.95-55.08 44.68c-13.75-9.76-22.6-18.96-26.55-27.6-3.96-8.64-5.93-23.75-5.93-45.32V165.1l-19.26-19.64 45.32-37.88zM1353.09 107.6l66.63 38.13-27.35 39.92-50.2-29.01v163.82l50.53 22.57 26.87-19.44 2.72 11-63.55 46.72c-16.41-9.24-30.43-16.05-42.05-20.41-11.63-4.37-25.9-8.17-42.82-11.43v-6.16c6-4.11 9.93-8.56 11.82-13.35 2.73-6.68 4.1-17.12 4.1-31.33v-146.1c21.36-9.76 42.46-24.74 63.3-44.94z"/><path d="M1531.88 13.35v6.68c-13.53 7.03-23.07 15.62-28.63 25.81-5.56 10.18-8.34 25.63-8.34 46.34v228.28l29.27 21.82 11.3-9.24 6.42 9.24-51.49 39.03c-15.55-13.52-27.16-22.51-34.85-26.96-7.69-4.45-17.85-8.48-30.5-12.07v-5.65a32.13 32.13 0 0 0 11.17-11.04c2.66-4.45 4.5-9.67 5.53-15.66.33-2.06.59-12.33.76-30.81V95.78c0-15.58-.6-26.4-1.8-32.48a49.77 49.77 0 0 0-7.18-17.46c-3.6-5.57-9.68-11.77-18.23-18.62l4.1-5.14c15.63 4.46 29.62 13.53 41.99 27.22 12.8-13.52 24.39-22.76 34.72-27.73 10.34-4.96 22.26-7.7 35.76-8.22zM1615.23 137.12l-3.59 1.8V255.5l67.64-47.4-64.05-70.99zm39.03-29.53l72.42 84.48-115.04 80.63v46.73l59.57 23.62 40.31-27.48 5.65 7.71-83.07 58.03c-16.96-9.07-30.94-15.58-41.9-19.51-10.98-3.94-26.58-8.05-46.8-12.33v-6.42c5.81-3.42 9.7-7.66 11.67-12.7 1.97-5.05 2.96-15.97 2.96-32.75V150.73c16.09-5.82 29.44-11.12 40.06-15.92 7.7-3.6 25.75-12.67 54.17-27.22zM508.8 21.47c4.1-3.25 9.6-4.84 15-4.84 3.8 0 6.62.37 8.09.92.43 4.17.73 8.33.98 12.5-2.09.3-4.3.6-6.5.85l-1.4-6.43c-.07-.24-.19-.55-.44-.67-.6-.5-1.59-.8-2.81-.8-1.96 0-4.17.74-5.89 2.52-2.7 2.81-4.16 6.85-4.16 12.06 0 5.27 1.1 8.7 3.55 10.9 1.84 1.73 4.72 2.52 7.17 2.52 2.76 0 7.54-.92 9.56-1.71.43 1.83.8 4.04 1.04 5.7-3.92 1.53-9.56 2.75-12.68 2.75-4.78 0-9.56-1.04-13.11-3.61-3.87-2.82-6.93-8.03-6.93-14.52 0-8.7 3.92-14.53 8.52-18.14zM539.99 22.51v-5.2c2.57 0 6.43.06 9.25.06 3.06 0 6.55-.07 9.07-.07 0 1.65 0 3.56-.06 5.21l-3.8.19c-.12 0-.12.12-.12.3l-.19 28.68 4.1.18c0 1.72 0 3.56-.05 5.27-2.52 0-6.13-.06-9.26-.06-2.75 0-6.25.06-9 .06 0-1.71 0-3.55.06-5.27l3.55-.18c.12 0 .19-.12.19-.25V22.7l-3.74-.19zM579.02 36.79c.25.06.67.06 1.47.06 4.11 0 6.62-2.82 6.62-6.87 0-4.46-2.76-7.77-6-7.77-.99 0-1.6.05-1.97.17l-.12 14.4zm-13.35-14.22c.06-1.77.06-3.49.06-5.2 4.23-.07 9.37-.13 14.15-.13 3.55 0 5.4 0 9 .86 5.34 1.16 8.77 5.88 8.77 9.87 0 5.2-3.3 8.88-7.66 10.65v.31c2.76 1.29 4.23 4.78 6.93 10.54.67 1.47 1.16 2.09 1.83 2.14l2.94.37v5.09h-4.53c-1.35 0-6.56.12-7.66.12-1.6-2.76-4.53-9.8-5.76-12.69-.8-1.9-1.9-2.63-3.25-2.63-.8 0-1.28.06-1.47.12l-.06 9.87 3.31.18c0 1.66-.06 3.38-.06 5.03h-8.76c-2.57 0-5.46.06-7.72.06v-5.09l3.06-.18c.06 0 .12-.13.12-.25l.07-28.91-3.31-.13zM614.45 21.47c4.1-3.25 9.62-4.84 15-4.84 3.8 0 6.63.37 8.1.92.43 4.17.73 8.33.98 12.5-2.09.3-4.3.6-6.5.85l-1.4-6.43c-.07-.24-.19-.55-.44-.67-.6-.5-1.59-.8-2.82-.8-1.95 0-4.16.74-5.88 2.52-2.7 2.81-4.16 6.85-4.16 12.06 0 5.27 1.1 8.7 3.55 10.9 1.84 1.73 4.72 2.52 7.17 2.52 2.76 0 7.54-.92 9.56-1.71.43 1.83.8 4.04 1.04 5.7-3.92 1.53-9.56 2.75-12.68 2.75-4.78 0-9.56-1.04-13.12-3.61-3.86-2.82-6.92-8.03-6.92-14.52 0-8.7 3.92-14.53 8.52-18.14zM658.08 41.14c-.06 4.65.8 6.74 2.2 8.39 1.17 1.35 2.77 1.96 4.91 1.96 2.27 0 3.62-.92 4.66-2.14 1.4-1.6 2.08-4.97 2.08-9 0-5.03 0-12.45-.12-17.48 0-.11-.13-.17-.25-.24l-4.29-.12c0-1.71.06-3.56.06-5.2 2.27 0 5.46.06 8.15.06 2.58 0 5.1-.07 7.3-.07 0 1.65-.06 3.5-.06 5.21l-2.95.19-.12 16.66c-.06 7.35-2.27 11.95-4.53 14.22-2.33 2.38-5.4 4.16-11.1 4.16-5.32 0-9.18-1.04-12.19-3.8-3.49-3.18-4.35-8.08-4.35-12.62V23c0-.24-.06-.37-.3-.37l-2.7-.18c0-1.65 0-3.5.06-5.15 2.33 0 5.76.07 8.46.07 3.18 0 6.68-.07 9.5-.07 0 1.65 0 3.56-.13 5.21l-4.16.12-.13 18.5zM688.98 22.57c0-1.65 0-3.55.05-5.15h8.7c2.76 0 6.2-.05 9.2-.05 0 1.65-.06 3.55-.12 5.2l-3.87.19c-.06 0-.18.06-.18.24l-.12 27.57c0 1.16 0 1.35 2.76 1.35 2.44 0 4.04-.24 4.9-.43.49-.12.85-.49 1.1-1.17l2.08-6.3c2.09.36 4.23.8 6.13 1.22-.8 3.98-1.65 8.03-2.57 12.01-3-.06-11.28-.12-19.73-.12-2.82 0-5.95.06-8.46.06 0-1.71 0-3.56.06-5.2l3.13-.13a.3.3 0 0 0 .3-.3V22.7l-3.36-.13zM742.3 28.33c-1.42 4.54-2.9 9.38-4.17 13.54-.07.25 0 .37.12.37h8.51c-1.22-4.04-2.7-9.07-4.16-13.9h-.3zM727.1 51.8c.18 0 .3-.12.36-.3 3.74-9.93 9.07-24.4 12.8-34.38 1.1-.12 3.87-.19 8.4-.19 3.56 10.3 8.4 24.94 11.77 34.8l3.12.25c0 1.65-.06 3.44-.06 5.15h-17.28c0-1.78.07-3.5.07-5.2l3-.2c.18 0 .3-.12.24-.3-.3-.92-.86-2.88-1.23-3.8-.06-.24-.24-.3-.42-.3l-11.34.12c-.25 1.35-.8 3.06-1.04 4.35l3.37.18c0 1.65 0 3.44-.06 5.15H724.2c0-1.78 0-3.5.07-5.15l2.81-.18zM782.74 36.79c.24.06.67.06 1.47.06 4.1 0 6.61-2.82 6.61-6.87 0-4.46-2.75-7.77-6-7.77-.98 0-1.6.05-1.96.17l-.12 14.4zm-13.36-14.22c.06-1.77.06-3.49.06-5.2 4.23-.07 9.38-.13 14.15-.13 3.56 0 5.4 0 9.01.86 5.33 1.16 8.77 5.88 8.77 9.87 0 5.2-3.31 8.88-7.66 10.65v.31c2.75 1.29 4.22 4.78 6.92 10.54.67 1.47 1.16 2.09 1.84 2.14l2.94.37v5.09h-4.53c-1.35 0-6.56.12-7.66.12-1.6-2.76-4.54-9.8-5.76-12.69-.8-1.9-1.9-2.63-3.25-2.63-.8 0-1.29.06-1.47.12l-.06 9.87 3.3.18c0 1.66-.05 3.38-.05 5.03h-8.77c-2.57 0-5.45.06-7.72.06v-5.09l3.07-.18c.06 0 .12-.13.12-.25l.06-28.91-3.3-.13zM828.83 51.68c.12 0 .24-.12.24-.25V22.76l-3.37-.2c0-1.64 0-3.54.07-5.2h17.58c0 1.66 0 3.56-.06 5.2l-3.55.2c-.07 0-.12.06-.12.3l-.07 10.66c0 .12.07.19.13.19l12.56.06V22.76l-3.74-.2c0-1.64.06-3.54.06-5.2h17.52c0 1.66 0 3.61-.06 5.2l-3 .2c-.12 0-.19.06-.19.24l-.18 28.68 3.37.18c-.06 1.65-.06 3.56-.12 5.27-2.39 0-5.82-.06-8.4-.06-3.18 0-6.67.06-9.43.06 0-1.71 0-3.62.06-5.27l3.92-.18c.13 0 .19-.07.19-.25V39.85c0-.12-.07-.24-.19-.24l-12.5.12-.12 11.95 3.86.18c0 1.72 0 3.56-.06 5.27-2.45 0-5.95-.06-8.95-.06-2.7 0-6.06.06-8.64.06 0-1.71.06-3.55.06-5.27l3.13-.18zM877.24 51.8c.13 0 .25-.12.25-.24v-28.8l-3.5-.13c0-1.71 0-3.61.07-5.26h28.43c.24 3.55.43 7.22.55 10.84-1.77.18-3.92.43-5.94.6l-.98-4.65c-.13-.54-.37-.92-1.23-1.04s-2.63-.36-6.43-.36h-.62v11.57c1.9-.05 3.62-.05 5.34-.12.36 0 .73-.43.8-1.16l.36-2.27c1.96-.06 3.98 0 5.76.06-.06 1.96-.06 4.17-.06 6.38-.06 2.2-.06 4.4-.06 6-1.78.06-3.8.18-5.76.18l-.25-2.45c-.12-.92-.43-1.28-.98-1.28-1.71-.06-3.43-.13-5.2-.13V50.4c0 1.17.42 1.34 3.18 1.34 2.45 0 3.98-.17 4.84-.36.62-.18.92-.5 1.17-1.16l1.77-4.91c2.08.3 4.17.74 6 1.1-.73 3.56-1.47 7.18-2.26 10.8-3.13 0-11.58-.07-20.1-.07-2.82 0-5.88.06-8.4.06 0-1.71.07-3.56.07-5.2l3.18-.2zM927.56 28.33l-4.17 13.54c-.06.25 0 .37.13.37h8.51c-1.22-4.04-2.7-9.07-4.16-13.9h-.3zm-15.2 23.47c.19 0 .3-.12.37-.3 3.74-9.93 9.07-24.4 12.8-34.38a108 108 0 0 1 8.4-.19c3.56 10.3 8.4 24.94 11.76 34.8l3.13.25c0 1.65-.06 3.44-.06 5.15h-17.28c0-1.78.06-3.5.06-5.2l3-.2c.19 0 .31-.12.25-.3-.3-.92-.86-2.88-1.22-3.8-.07-.24-.25-.3-.44-.3l-11.33.12c-.25 1.35-.8 3.06-1.04 4.35l3.37.18c0 1.65 0 3.44-.06 5.15h-14.59c0-1.78 0-3.5.06-5.15l2.82-.18zM968.32 51c0 .8.6 1.3 1.53 1.3 2.32 0 4.96-.57 7.35-2.7 2.82-2.64 3.92-7.6 3.92-11.59 0-6.37-1.29-10.11-4.54-13.23a9.1 9.1 0 0 0-6.25-2.57c-.79 0-1.4.05-1.83.24L968.32 51zm-10.6.8c.12 0 .18-.12.18-.24l.06-28.8-3.55-.13c0-1.77.06-3.5.06-5.2 4.53-.13 9.92-.2 15-.2 6.38 0 10.73 1 13.8 2.7 5.2 2.89 9.12 9.01 9.12 15.63 0 8.7-4.04 15.01-9 18.32-3.56 2.45-9 3.31-13.36 3.31-2.02 0-5.09-.06-7.17-.06h-8.33v-5.09l3.18-.24z"/></g></svg>