<svg viewBox="0 0 200 68" xmlns="http://www.w3.org/2000/svg"><g fill="#09255a"><path d="m199.77 63.795h-1.484v1.5982h1.484zm-5.137 1.7123c0.79909 0 1.3699-0.22831 1.8265-0.57078s0.68493-0.79909 0.68493-1.484c0-0.45662-0.11416-0.79909-0.34247-1.0274-0.22831-0.22831-0.45662-0.45662-0.79908-0.57078-0.34247-0.11416-0.68494-0.22831-1.1416-0.34247-0.45662-0.11416-0.68493-0.22831-0.91324-0.22831-0.22831-0.11416-0.34246-0.22831-0.34246-0.45662 0-0.11416 0.11415-0.22831 0.22831-0.34247 0.11415-0.11416 0.34246-0.11416 0.57077-0.11416s0.45662 0.11416 0.68493 0.22831c0.11416 0.11416 0.22831 0.22831 0.22831 0.45662h1.484c0-0.34246-0.11415-0.68493-0.34246-1.0274-0.22831-0.34246-0.57078-0.57078-0.91325-0.68493-0.34246-0.11416-0.79908-0.22831-1.1416-0.22831-0.45662 0-0.91324 0.11416-1.2557 0.22831-0.34246 0.11416-0.68493 0.34247-0.91324 0.68493-0.22831 0.22831-0.34246 0.57078-0.34246 0.91324 0 0.45662 0.11415 0.79909 0.34246 1.0274 0.22831 0.22831 0.45662 0.45662 0.79909 0.57078 0.34246 0.11416 0.68493 0.22831 1.1416 0.34246 0.45662 0.11416 0.68493 0.22831 0.91324 0.22831 0.22831 0.11416 0.22831 0.22831 0.22831 0.45662 0 0.22831-0.11415 0.34247-0.22831 0.45662-0.11415 0.11416-0.34246 0.11416-0.68493 0.11416-0.34246 0-0.57077-0.11416-0.79908-0.22831-0.22832-0.11416-0.34247-0.34247-0.34247-0.45662h-1.5982c0 0.34246 0.11415 0.68493 0.34246 1.0274s0.57078 0.57078 0.91324 0.68493c0.79909 0.22831 1.2557 0.34247 1.7123 0.34247m-6.3927-5.0228c0.45662 0 0.79909 0.11416 1.0274 0.34247 0.22831 0.22831 0.45662 0.57078 0.45662 0.91324h-3.0822c0.11416-0.34247 0.22832-0.68493 0.57078-0.91324 0.22831-0.22831 0.57078-0.34247 1.0274-0.34247m0-1.2557c-0.57078 0-1.0274 0.11416-1.5982 0.34247-0.45662 0.22831-0.91324 0.68493-1.1416 1.1416-0.34246 0.45662-0.45662 1.0274-0.45662 1.5982s0.11416 1.1416 0.45662 1.5982c0.34247 0.45662 0.68493 0.79909 1.1416 1.1416 0.45663 0.22831 1.0274 0.34247 1.5982 0.34247 0.68493 0 1.3699-0.22831 1.8265-0.57078 0.45662-0.34247 0.91324-0.79909 1.1416-1.3699h-1.5982c-0.11415 0.22831-0.34246 0.45662-0.57077 0.57078-0.22832 0.11416-0.45663 0.22831-0.79909 0.22831-0.45662 0-0.79909-0.11416-1.0274-0.34247-0.22831-0.22831-0.45662-0.57078-0.57078-0.91324h4.5662c0-0.22831 0.11416-0.45662 0.11416-0.68493 0-0.57078-0.11416-1.1416-0.45662-1.5982-0.34247-0.45662-0.68493-0.79909-1.1416-1.1416-0.45662-0.22831-0.91325-0.34246-1.484-0.34246m-4.1096-2.2831h-1.7123v1.3699h1.7123zm0 2.3973h-1.5982v6.0502h1.5982zm-2.6256 0h-1.484v-1.5982h-1.5982v1.5982h-0.91325v1.484h1.0274v2.5114c0 0.68493 0.22831 1.1416 0.57078 1.484 0.34246 0.34246 0.91324 0.57078 1.5982 0.57078h0.91324v-1.484h-0.68493c-0.34246 0-0.57077-0.11416-0.68493-0.22831-0.11415-0.11416-0.22831-0.34246-0.22831-0.68493v-2.169h1.484zm-4.7945-2.3973h-1.7123v1.3699h1.7123zm-0.11416 2.3973h-1.5982v6.0502h1.5982zm-5.2511-0.11416c-0.68493 0-1.2557 0.22831-1.8265 0.79909v-0.57078h-1.484v5.9361h1.5982v-3.3105c0-0.45662 0.11416-0.79909 0.34247-1.0274 0.22831-0.22831 0.57077-0.34246 0.91324-0.34246s0.68493 0.11416 0.91324 0.34246c0.22831 0.22831 0.34247 0.57078 0.34247 1.0274v3.3105h1.5982v-3.5388c0-0.45662-0.11415-0.91324-0.34246-1.3699-0.22831-0.34246-0.45662-0.68493-0.91325-0.91324-0.22831-0.22831-0.68493-0.34246-1.1416-0.34246m-7.4201 6.2785c0.57078 0 1.0274-0.11416 1.484-0.34246 0.45662-0.22831 0.79909-0.57078 1.0274-1.0274s0.34246-0.91324 0.34246-1.484v-3.3105h-1.5982v3.3105c0 0.45662-0.11416 0.79909-0.34247 1.0274-0.22831 0.22831-0.57077 0.34247-0.91324 0.34247s-0.68493-0.11416-0.91324-0.34247c-0.22831-0.22831-0.34247-0.57078-0.34247-1.0274v-3.3105h-1.5982v3.3105c0 0.57078 0.11415 1.0274 0.34246 1.484 0.22832 0.45662 0.57078 0.79909 1.0274 1.0274 0.34247 0.22831 0.79909 0.34247 1.484 0.34247m-6.3927-6.2785c-0.79909 0-1.484 0.34247-1.9406 1.0274-0.22831-0.34247-0.45662-0.57078-0.79909-0.79909s-0.68493-0.34247-1.0274-0.34247c-0.34246 0-0.68493 0.11416-0.91324 0.22831-0.34246 0.11416-0.57078 0.34247-0.79909 0.57078v-0.68493h-1.484v6.1644h1.5982v-3.4247c0-0.34246 0.11415-0.68493 0.34247-0.91324 0.22831-0.22831 0.45662-0.34246 0.79908-0.34246 0.34247 0 0.57078 0.11416 0.79909 0.34246 0.22831 0.22831 0.34246 0.57078 0.34246 0.91324v3.4247h1.5982v-3.4247c0-0.34246 0.11415-0.68493 0.34246-0.91324 0.22831-0.22831 0.45662-0.34246 0.79909-0.34246s0.57078 0.11416 0.79909 0.34246c0.22831 0.22831 0.34246 0.57078 0.34246 0.91324v3.4247h1.5982v-3.653c0-0.45662-0.11416-0.91324-0.22831-1.3699-0.22831-0.34247-0.45662-0.68493-0.79909-0.91324-0.57078-0.11416-0.91324-0.22831-1.3699-0.22831m-10.502 0c-0.79908 0-1.484 0.34247-1.9406 1.0274-0.22831-0.34247-0.45662-0.57078-0.79908-0.79909-0.34247-0.22831-0.68493-0.34247-1.0274-0.34247s-0.68493 0.11416-0.91324 0.22831c-0.34247 0.11416-0.57078 0.34247-0.79909 0.57078v-0.68493h-1.484v6.1644h1.5982v-3.4247c0-0.34246 0.11415-0.68493 0.34246-0.91324 0.22831-0.22831 0.45662-0.34246 0.79909-0.34246 0.34246 0 0.57078 0.11416 0.79909 0.34246 0.22831 0.22831 0.34246 0.57078 0.34246 0.91324v3.4247h1.5982v-3.4247c0-0.34246 0.11415-0.68493 0.34246-0.91324 0.22831-0.22831 0.45662-0.34246 0.79909-0.34246 0.34246 0 0.57077 0.11416 0.79908 0.34246 0.22831 0.22831 0.34247 0.57078 0.34247 0.91324v3.4247h1.5982v-3.653c0-0.45662-0.11415-0.91324-0.22831-1.3699-0.22831-0.34247-0.45662-0.68493-0.79908-0.91324-0.57078-0.11416-1.0274-0.22831-1.3699-0.22831m-11.301 4.7945c-0.45662 0-0.91324-0.11416-1.2557-0.45662-0.34247-0.34247-0.45663-0.68493-0.45663-1.2557 0-0.45662 0.11416-0.91324 0.45663-1.2557 0.34246-0.34246 0.68493-0.45662 1.2557-0.45662 0.45662 0 0.91325 0.11416 1.2557 0.45662 0.34247 0.34247 0.45662 0.68493 0.45662 1.2557 0 0.45662-0.11415 0.91324-0.45662 1.2557-0.34246 0.34247-0.79909 0.45662-1.2557 0.45662m0 1.484c0.57078 0 1.1416-0.11416 1.5982-0.34247 0.45662-0.22831 0.91324-0.68493 1.2557-1.1416 0.34247-0.45662 0.45663-1.0274 0.45663-1.5982 0-0.57078-0.11416-1.1416-0.45663-1.5982-0.34246-0.45662-0.68493-0.79909-1.2557-1.1416-0.45662-0.22831-1.0274-0.34246-1.5982-0.34246-0.57077 0-1.1416 0.11416-1.5982 0.34246-0.45662 0.22831-0.91324 0.68493-1.2557 1.1416-0.34246 0.45662-0.45662 1.0274-0.45662 1.5982 0 0.57078 0.11416 1.1416 0.45662 1.5982 0.34247 0.45662 0.68493 0.79909 1.2557 1.1416 0.45662 0.22831 1.0274 0.34247 1.5982 0.34247m-6.7352 0c0.68494 0 1.3699-0.22831 1.9406-0.57078 0.57078-0.34247 1.0274-0.91324 1.1416-1.7123h-1.5982c-0.11415 0.22831-0.34246 0.45662-0.57077 0.57078-0.22831 0.11416-0.57078 0.22831-0.79909 0.22831-0.45662 0-0.91324-0.11416-1.2557-0.45662-0.34246-0.34247-0.45662-0.68493-0.45662-1.2557 0-0.45662 0.11416-0.91324 0.45662-1.2557 0.34247-0.34246 0.68493-0.45662 1.2557-0.45662 0.34246 0 0.57078 0.11416 0.79909 0.22831s0.45662 0.34247 0.57077 0.68493h1.5982c-0.22831-0.68493-0.57078-1.2557-1.1416-1.7123-0.57077-0.45662-1.2557-0.57078-1.9406-0.57078-0.57077 0-1.1416 0.11416-1.5982 0.34247-0.45662 0.22831-0.91324 0.68493-1.2557 1.1416-0.34246 0.45662-0.45662 1.0274-0.45662 1.5982s0.11416 1.1416 0.45662 1.5982c0.34247 0.45662 0.68493 0.79909 1.2557 1.1416 0.45662 0.34247 1.0274 0.45662 1.5982 0.45662m-6.9635-6.2785c-0.68493 0-1.3699 0.22831-1.8265 0.79909v-0.68493h-1.484v6.0502h1.5982v-3.0822c0-0.45662 0.11416-0.79909 0.45663-1.1416 0.34246-0.22831 0.68493-0.45662 1.0274-0.45662h0.79909v-1.484zm-7.4201 1.2557c0.45662 0 0.79909 0.11416 1.0274 0.34247s0.45662 0.57078 0.45662 0.91324h-3.0822c0.11415-0.34247 0.22831-0.68493 0.57078-0.91324 0.22831-0.22831 0.57077-0.34247 1.0274-0.34247m0-1.2557c-0.57077 0-1.0274 0.11416-1.5982 0.34246-0.45662 0.22831-0.91324 0.68493-1.1416 1.1416-0.34247 0.45662-0.45662 1.0274-0.45662 1.5982 0 0.57078 0.11415 1.1416 0.45662 1.5982 0.34246 0.45662 0.68493 0.79909 1.1416 1.1416 0.45662 0.22831 1.0274 0.34247 1.5982 0.34247 0.68493 0 1.3699-0.22831 1.8265-0.57078s0.91324-0.79909 1.1416-1.3699h-1.7123c-0.11416 0.22831-0.34247 0.45662-0.57078 0.57078s-0.45662 0.22831-0.79908 0.22831c-0.45662 0-0.79909-0.11416-1.0274-0.34247-0.22831-0.22831-0.45662-0.57078-0.57078-0.91324h4.5662c0-0.22831 0.11416-0.45662 0.11416-0.68493 0-0.57078-0.11416-1.1416-0.45662-1.5982-0.34247-0.45662-0.68493-0.79909-1.1416-1.1416-0.34247-0.22831-0.91325-0.34246-1.3699-0.34246m-7.3059 4.5662c-0.45662 0-0.91325-0.11416-1.1416-0.45662-0.34246-0.34247-0.45662-0.68493-0.45662-1.1416s0.11416-0.79909 0.45662-1.1416c0.34247-0.34247 0.68494-0.45662 1.1416-0.45662s0.91324 0.11416 1.1416 0.45662c0.22831 0.34246 0.45662 0.68493 0.45662 1.1416s-0.11416 0.79909-0.45662 1.1416c-0.34247 0.34246-0.68493 0.45662-1.1416 0.45662m1.5982-3.8813c-0.22831-0.22831-0.57078-0.45662-0.79909-0.57078-0.34246-0.11416-0.68493-0.22831-1.1416-0.22831s-1.0274 0.11416-1.484 0.34247c-0.45662 0.22831-0.79908 0.57078-1.0274 1.0274-0.22831 0.45662-0.45662 1.0274-0.45662 1.5982s0.11416 1.1416 0.45662 1.5982c0.22832 0.45662 0.68494 0.79909 1.0274 1.0274 0.45662 0.22831 0.91324 0.34246 1.484 0.34246 0.79909 0 1.3699-0.22831 1.8265-0.68493v0.45662c0 0.45662-0.11415 0.79909-0.45662 1.1416-0.22831 0.34247-0.68493 0.45662-1.1416 0.45662-0.68493 0-1.1416-0.22831-1.484-0.79909h-1.5982c0.11415 0.68493 0.45662 1.2557 1.0274 1.7123 0.57077 0.45662 1.2557 0.57078 2.0548 0.57078 0.68493 0 1.2557-0.11416 1.7123-0.45662 0.45662-0.22831 0.79909-0.68493 1.0274-1.1416s0.34246-1.0274 0.34246-1.5982v-5.4795h-1.484v0.68493zm-8.2192-0.68493c-0.68493 0-1.2557 0.22831-1.8265 0.79909v-0.57078h-1.484v5.9361h1.5982v-3.3105c0-0.45662 0.11416-0.79909 0.34247-1.0274 0.22831-0.22831 0.57078-0.34246 0.91324-0.34246 0.34247 0 0.68493 0.11416 0.91324 0.34246 0.22831 0.22831 0.34247 0.57078 0.34247 1.0274v3.3105h1.5982v-3.5388c0-0.45662-0.11415-0.91324-0.34246-1.3699-0.22831-0.34246-0.45662-0.68493-0.91325-0.91324-0.22831-0.22831-0.57077-0.34246-1.1416-0.34246m-7.5342 4.7945c-0.45662 0-0.91324-0.11416-1.2557-0.45662-0.34247-0.34247-0.45662-0.68493-0.45662-1.2557 0-0.45662 0.11416-0.91324 0.45662-1.2557 0.34246-0.34247 0.68493-0.45662 1.2557-0.45662 0.45662 0 0.91324 0.11416 1.2557 0.45662 0.34247 0.34246 0.45662 0.68493 0.45662 1.2557 0 0.45662-0.11416 0.91324-0.45662 1.2557s-0.68493 0.45662-1.2557 0.45662m0 1.484c0.57078 0 1.1416-0.11416 1.5982-0.34246 0.45662-0.22831 0.91324-0.68493 1.2557-1.1416 0.34247-0.45662 0.45662-1.0274 0.45662-1.5982 0-0.57078-0.11416-1.1416-0.45662-1.5982-0.34246-0.45662-0.68493-0.79909-1.2557-1.1416-0.45662-0.22831-1.0274-0.34247-1.5982-0.34247-0.57078 0-1.1416 0.11416-1.5982 0.34247-0.45662 0.22831-0.91324 0.68493-1.2557 1.1416s-0.45662 1.0274-0.45662 1.5982c0 0.57078 0.11416 1.1416 0.45662 1.5982s0.68493 0.79909 1.2557 1.1416c0.57078 0.22831 1.0274 0.34246 1.5982 0.34246m-3.8813-6.2785c-0.68493 0-1.3699 0.22831-1.8265 0.79909v-0.68493h-1.484v6.0502h1.5982v-3.0822c0-0.45662 0.11416-0.79909 0.45662-1.1416 0.34247-0.22831 0.68493-0.45662 1.0274-0.45662h0.79909v-1.484zm-4.3379 0.11416h-1.484v-1.5982h-1.5982v1.5982h-1.0274v1.484h1.0274v2.5114c0 0.68493 0.22831 1.1416 0.57078 1.484 0.34246 0.34246 0.91324 0.57078 1.5982 0.57078h0.91324v-1.484h-0.45662c-0.34247 0-0.57078-0.11416-0.68493-0.22831-0.11416-0.11416-0.22831-0.34246-0.22831-0.68493v-2.169h1.484v-1.484zm-7.3059 6.1644c0.57078 0 1.1416-0.11416 1.5982-0.34246 0.45662-0.22831 0.79909-0.45662 1.0274-0.79909 0.22831-0.34247 0.34247-0.79909 0.34247-1.1416 0-0.57078-0.11416-1.0274-0.34247-1.3699s-0.57078-0.57078-0.91324-0.79909c-0.34247-0.11416-0.79909-0.34246-1.3699-0.57078-0.34247-0.11416-0.68493-0.22831-0.91324-0.34246-0.22831-0.11416-0.34247-0.22831-0.57078-0.34247-0.11416-0.11416-0.22831-0.34247-0.22831-0.57078 0-0.22831 0.11416-0.45662 0.34247-0.57078 0.22831-0.11416 0.45662-0.22831 0.79909-0.22831 0.34246 0 0.68493 0.11416 0.91324 0.34246 0.22831 0.22831 0.34246 0.45662 0.34246 0.79909h1.8265c0-0.57078-0.11416-1.0274-0.45662-1.3699-0.22831-0.34247-0.57078-0.68493-1.0274-0.91324-0.45662-0.22831-0.91324-0.34247-1.3699-0.34247-0.57078 0-1.0274 0.11416-1.484 0.34247-0.45662 0.22831-0.79909 0.45662-1.0274 0.79909-0.22831 0.34247-0.34247 0.79909-0.34247 1.1416 0 0.57078 0.11416 1.0274 0.34247 1.3699 0.22831 0.34246 0.57078 0.57078 0.91324 0.79909 0.34246 0.11416 0.79909 0.34247 1.3699 0.57078 0.34246 0.11416 0.68493 0.22831 0.91324 0.34247 0.22831 0.11416 0.34246 0.22831 0.57078 0.34247 0.11416 0.11416 0.22831 0.34247 0.22831 0.57078 0 0.22831-0.11416 0.45662-0.34246 0.68493-0.22831 0.11416-0.57078 0.22831-1.0274 0.22831s-0.79909-0.11416-1.0274-0.34247c-0.22831-0.22831-0.34247-0.57078-0.34247-0.91324h-1.7123c0 0.57078 0.11416 1.0274 0.45662 1.484 0.22831 0.45662 0.57078 0.68493 1.1416 0.91324 0.22831 0.11416 0.79909 0.22831 1.3699 0.22831"/><path d="m8.6758 9.1142v11.872h5.7078c2.3973 0 4.1096-0.57078 5.4795-1.7123 1.2557-1.1416 1.9406-2.5114 1.9406-4.2237s-0.68493-3.1963-1.9406-4.2237c-1.2557-1.1416-3.0822-1.7123-5.4795-1.7123zm16.438 35.16-12.671-15.297h-3.7671v15.297h-8.6758v-43.265h14.498c3.3105 0 6.1644 0.57078 8.6758 1.8265 2.3973 1.1416 4.3379 2.8539 5.5936 4.9087 1.2557 2.0548 1.9406 4.5662 1.9406 7.1918 0 2.968-0.68493 5.4795-2.1689 7.6484-1.7123 2.2831-3.7671 3.9954-6.5068 5.137l13.813 16.667h-10.731z"/><rect x="37.9" y="12.881" width="8.2192" height="31.393"/><path d="m88.584 12.881h-5.137v7.6484h5.137v12.9c0 3.4247 1.0274 6.0502 2.968 7.9909 1.9406 1.9406 4.6804 2.968 8.105 2.968h4.7945v-7.6484h-2.6256c-1.484 0-2.7397-0.45662-3.5388-1.2557-0.91324-0.91324-1.2557-2.0548-1.2557-3.5388v-11.416h7.5342v-7.6484h-7.5342v-9.7032l-8.2192 2.7397v6.9635z"/><path d="m130.02 34.913c1.7123-1.7123 2.5114-3.7671 2.5114-6.2785 0-2.5114-0.79909-4.6804-2.5114-6.3927-1.7123-1.7123-3.7671-2.5114-6.2785-2.5114-2.5114 0-4.5662 0.79909-6.2785 2.5114-1.7123 1.7123-2.5114 3.7671-2.5114 6.3927 0 2.5114 0.79908 4.5662 2.5114 6.2785s3.7671 2.5114 6.2785 2.5114c2.5114 0 4.5662-0.79909 6.2785-2.5114m2.5114-22.032h7.8767v31.393h-7.8767v-3.1963c-1.2557 1.3699-2.7397 2.3973-4.3379 2.968-1.5982 0.68493-3.5388 0.91324-5.7078 0.91324-2.6256 0-5.2511-0.68493-7.6484-2.0548s-4.3379-3.3105-5.8219-5.8219c-1.484-2.5114-2.1689-5.3653-2.1689-8.4475 0-3.1963 0.68493-6.0502 2.1689-8.5616 1.484-2.5114 3.4247-4.4521 5.8219-5.8219s5.0228-2.0548 7.6484-2.0548c2.169 0 4.1096 0.34246 5.7078 0.91324 1.5982 0.68493 3.0822 1.5982 4.3379 2.968z"/><path d="m153.08 43.018c-2.6256-1.3699-4.6804-3.3105-6.2785-5.8219-1.5982-2.5114-2.3973-5.3653-2.3973-8.5616s0.79909-6.0502 2.3973-8.5616c1.5982-2.5114 3.653-4.4521 6.2785-5.8219s5.4794-2.0548 8.4475-2.0548c3.653 0 6.9635 1.0274 10.046 3.1963 3.0822 2.0548 5.0228 5.0228 6.1644 8.9041h-8.4475c-0.91325-1.484-1.9406-2.6256-3.3105-3.3105-1.3699-0.68493-2.8539-1.1416-4.452-1.1416-2.5114 0-4.5662 0.79909-6.2785 2.5114-1.7123 1.7123-2.5114 3.7671-2.5114 6.3927 0 2.5114 0.79908 4.5662 2.5114 6.2785 1.7123 1.7123 3.7671 2.5114 6.2785 2.5114 1.5982 0 3.0822-0.34247 4.452-1.1416 1.3699-0.68493 2.3973-1.8265 3.3105-3.3105h8.4475c-1.0274 3.8813-3.0822 6.7352-6.1644 8.9041-3.0822 2.0548-6.3927 3.0822-10.046 3.0822-2.968 0-5.8219-0.68493-8.4475-2.0548"/><path d="m184.02 12.881h-5.137v7.6484h5.137v12.9c0 3.4247 1.0274 6.0502 2.968 7.9909 1.9406 1.9406 4.6804 2.968 8.105 2.968h4.7945v-7.6484h-2.6256c-1.484 0-2.7397-0.45662-3.5388-1.2557-0.91324-0.91324-1.2557-2.0548-1.2557-3.5388v-11.416h7.5342v-7.6484h-7.5342v-9.9315h-0.11415l-8.105 2.7397v7.1918z"/><path d="m39.384 9.1142c-0.79909-0.45662-1.3699-1.0274-1.8265-1.7123-0.45662-0.79909-0.68493-1.5982-0.68493-2.5114s0.22831-1.8265 0.68493-2.5114c0.45662-0.79909 1.1416-1.3699 1.8265-1.7123 0.79909-0.45662 1.5982-0.57078 2.5114-0.57078s1.7123 0.22831 2.5114 0.57078c0.79909 0.45662 1.3699 1.0274 1.8265 1.7123 0.45662 0.79909 0.68493 1.5982 0.68493 2.5114s-0.22831 1.8265-0.68493 2.5114c-0.45662 0.79909-1.1416 1.3699-1.8265 1.7123-0.79909 0.45662-1.5982 0.57078-2.5114 0.57078-0.91324 0.11416-1.7123-0.11416-2.5114-0.57078"/></g><g fill="#0083ca"><path d="m70.205 63.795h-1.484v1.5982h1.484zm-5.0228 1.7123c0.79909 0 1.3699-0.22831 1.8265-0.57078s0.68493-0.79909 0.68493-1.484c0-0.45662-0.11416-0.79909-0.34246-1.0274-0.22831-0.22831-0.45662-0.45662-0.79909-0.57078s-0.68493-0.22831-1.1416-0.34247c-0.45662-0.11416-0.68493-0.22831-0.91324-0.22831-0.22831-0.11416-0.34246-0.22831-0.34246-0.45662 0-0.11416 0.11416-0.22831 0.22831-0.34247s0.34247-0.11416 0.57078-0.11416c0.22831 0 0.45662 0.11416 0.68493 0.22831 0.11416 0.11416 0.22831 0.22831 0.22831 0.45662h1.484c0-0.34246-0.11416-0.68493-0.34247-1.0274-0.22831-0.34246-0.57078-0.57078-0.91324-0.68493s-0.79909-0.22831-1.1416-0.22831c-0.45662 0-0.91324 0.11416-1.2557 0.22831-0.34247 0.11416-0.68493 0.34247-0.91324 0.68493-0.22831 0.22831-0.34247 0.57078-0.34247 0.91324 0 0.45662 0.11416 0.79909 0.34247 1.0274 0.22831 0.22831 0.45662 0.45662 0.79909 0.57078 0.34246 0.11416 0.68493 0.22831 1.1416 0.34246 0.45662 0.11416 0.68493 0.22831 0.91324 0.22831 0.22831 0.11416 0.22831 0.22831 0.22831 0.45662 0 0.22831-0.11416 0.34247-0.22831 0.45662 0 0.11416-0.22831 0.22831-0.45662 0.22831-0.34247 0-0.57078-0.11416-0.79909-0.22831-0.22831-0.11416-0.34247-0.34247-0.34247-0.45662h-1.5982c0 0.34247 0.11416 0.68493 0.34247 1.0274 0.22831 0.34247 0.57078 0.57078 0.91324 0.68493 0.45662 0.11416 0.91324 0.22831 1.484 0.22831m-6.5068-5.0228c0.45662 0 0.79909 0.11416 1.0274 0.34247 0.22831 0.22831 0.45662 0.57078 0.45662 0.91324h-3.0822c0.11416-0.34247 0.22831-0.68493 0.57078-0.91324 0.34247-0.22831 0.68493-0.34247 1.0274-0.34247m0-1.2557c-0.57078 0-1.0274 0.11416-1.5982 0.34246-0.45662 0.22831-0.91324 0.68493-1.1416 1.1416-0.34247 0.45662-0.45662 1.0274-0.45662 1.5982 0 0.57078 0.11416 1.1416 0.45662 1.5982 0.34246 0.45662 0.68493 0.79909 1.1416 1.1416 0.45662 0.22831 1.0274 0.34247 1.5982 0.34247 0.68493 0 1.3699-0.22831 1.8265-0.57078s0.91324-0.79909 1.1416-1.3699h-1.5982c-0.11416 0.22831-0.34247 0.45662-0.57078 0.57078-0.22831 0.11416-0.45662 0.22831-0.79909 0.22831-0.45662 0-0.79909-0.11416-1.0274-0.34247-0.22831-0.22831-0.45662-0.57078-0.57078-0.91324h4.5662c0-0.22831 0.11416-0.45662 0.11416-0.68493 0-0.57078-0.11416-1.1416-0.45662-1.5982-0.34246-0.45662-0.68493-0.79909-1.1416-1.1416-0.45662-0.22831-0.91324-0.34246-1.484-0.34246m-6.7352 6.2785c0.68493 0 1.3699-0.22831 1.9406-0.57078 0.57078-0.34247 1.0274-0.91324 1.1416-1.7123h-1.5982c-0.11416 0.22831-0.34246 0.45662-0.57078 0.57078-0.22831 0.11416-0.57078 0.22831-0.79909 0.22831-0.45662 0-0.91324-0.11416-1.2557-0.45662-0.34247-0.34247-0.45662-0.68493-0.45662-1.2557 0-0.45662 0.11416-0.91324 0.45662-1.2557 0.34246-0.34246 0.68493-0.45662 1.2557-0.45662 0.34247 0 0.57078 0.11416 0.79909 0.22831s0.45662 0.34247 0.57078 0.68493h1.5982c-0.22831-0.68493-0.57078-1.2557-1.1416-1.7123-0.57078-0.45662-1.2557-0.57078-1.9406-0.57078-0.57078 0-1.1416 0.11416-1.5982 0.34247-0.45662 0.22831-0.91324 0.68493-1.2557 1.1416s-0.45662 1.0274-0.45662 1.5982 0.11416 1.1416 0.45662 1.5982c0.34246 0.45662 0.68493 0.79909 1.2557 1.1416 0.57078 0.34247 1.0274 0.45662 1.5982 0.45662m-4.1096-8.5616h-1.7123v1.3699h1.7123zm-0.11416 2.3973h-1.484v6.0502h1.5982v-6.0502zm-5.8219 4.6804c-0.45662 0-0.91324-0.11416-1.2557-0.45662s-0.45662-0.68493-0.45662-1.2557c0-0.45662 0.11416-0.91324 0.45662-1.2557 0.34247-0.34246 0.68493-0.45662 1.2557-0.45662 0.45662 0 0.91324 0.11416 1.2557 0.45662 0.34246 0.34247 0.45662 0.68493 0.45662 1.2557 0 0.45662-0.11416 0.91324-0.45662 1.2557-0.34247 0.34247-0.68493 0.45662-1.2557 0.45662m0 1.484c0.57078 0 1.1416-0.11416 1.5982-0.34247 0.45662-0.22831 0.91324-0.68493 1.2557-1.1416s0.45662-1.0274 0.45662-1.5982c0-0.57078-0.11416-1.1416-0.45662-1.5982s-0.68493-0.79909-1.2557-1.1416c-0.45662-0.22831-1.0274-0.34246-1.5982-0.34246s-1.1416 0.11416-1.5982 0.34246c-0.45662 0.22831-0.91324 0.68493-1.2557 1.1416-0.34247 0.45662-0.45662 1.0274-0.45662 1.5982 0 0.57078 0.11416 1.1416 0.45662 1.5982 0.34246 0.45662 0.68493 0.79909 1.2557 1.1416 0.57078 0.22831 1.0274 0.34247 1.5982 0.34247m-8.2192-6.1644h-1.7123l2.6256 6.0502h1.3699l2.6256-6.0502h-1.7123l-1.5982 3.9954zm-5.3653-2.5114h-1.484v8.5616h1.5982v-8.5616zm-6.1644 7.1918c-0.45662 0-0.91324-0.11416-1.2557-0.45662s-0.45662-0.68493-0.45662-1.2557c0-0.45662 0.11416-0.91324 0.45662-1.2557 0.34247-0.34246 0.68493-0.45662 1.2557-0.45662 0.45662 0 0.91324 0.11416 1.2557 0.45662 0.34246 0.34247 0.45662 0.68493 0.45662 1.2557 0 0.45662-0.11416 0.91324-0.45662 1.2557-0.34247 0.34247-0.79909 0.45662-1.2557 0.45662m1.7123-4.1096c-0.22831-0.22831-0.57078-0.45662-0.79909-0.57078-0.34247-0.11416-0.68493-0.22831-1.1416-0.22831s-1.0274 0.11416-1.484 0.45662c-0.45662 0.22831-0.79909 0.68493-1.1416 1.1416-0.22831 0.45662-0.45662 1.0274-0.45662 1.5982 0 0.57078 0.11416 1.1416 0.45662 1.5982 0.22831 0.45662 0.68493 0.91324 1.1416 1.1416 0.45662 0.22831 0.91324 0.45662 1.484 0.45662 0.45662 0 0.79909-0.11416 1.1416-0.22831 0.34246-0.11416 0.57078-0.34247 0.79909-0.57078v0.68493h1.484v-6.0502h-1.484zm-8.5616 5.5936c0.68493 0 1.3699-0.22831 1.9406-0.57078s1.0274-0.91324 1.1416-1.7123h-1.5982c-0.11416 0.22831-0.34247 0.45662-0.57078 0.57078-0.22831 0.11416-0.57078 0.22831-0.79909 0.22831-0.45662 0-0.91324-0.11416-1.2557-0.45662s-0.45662-0.68493-0.45662-1.2557c0-0.45662 0.11416-0.91324 0.45662-1.2557 0.34247-0.34247 0.68493-0.45662 1.2557-0.45662 0.34247 0 0.57078 0.11416 0.79909 0.22831 0.22831 0.11416 0.45662 0.34247 0.57078 0.68493h1.5982c-0.22831-0.68493-0.57078-1.2557-1.1416-1.7123s-1.2557-0.57078-1.9406-0.57078c-0.57078 0-1.1416 0.11416-1.5982 0.34246-0.45662 0.22831-0.91324 0.68493-1.2557 1.1416-0.34246 0.45662-0.45662 1.0274-0.45662 1.5982 0 0.57078 0.11416 1.1416 0.45662 1.5982 0.34247 0.45662 0.68493 0.79909 1.2557 1.1416 0.57078 0.34247 1.0274 0.45662 1.5982 0.45662m-7.0776-1.484c-0.45662 0-0.91324-0.11416-1.2557-0.45662-0.34247-0.34247-0.45662-0.68493-0.45662-1.2557 0-0.45662 0.11416-0.91324 0.45662-1.2557 0.34247-0.34247 0.68493-0.45662 1.2557-0.45662 0.45662 0 0.91324 0.11416 1.2557 0.45662 0.34247 0.34246 0.45662 0.68493 0.45662 1.2557 0 0.45662-0.11416 0.91324-0.45662 1.2557-0.34247 0.34247-0.68493 0.45662-1.2557 0.45662m0 1.484c0.57078 0 1.1416-0.11416 1.5982-0.34246 0.45662-0.22831 0.91324-0.68493 1.2557-1.1416 0.34247-0.45662 0.45662-1.0274 0.45662-1.5982 0-0.57078-0.11416-1.1416-0.45662-1.5982-0.34246-0.45662-0.68493-0.79909-1.2557-1.1416-0.45662-0.22831-1.0274-0.34247-1.5982-0.34247-0.57078 0-1.1416 0.11416-1.5982 0.34247-0.45662 0.22831-0.91324 0.68493-1.2557 1.1416-0.34247 0.45662-0.45662 1.0274-0.45662 1.5982 0 0.57078 0.11416 1.1416 0.45662 1.5982s0.68493 0.79909 1.2557 1.1416c0.57078 0.22831 1.0274 0.34246 1.5982 0.34246m-3.4247-1.7123h-3.0822v-6.7352h-1.7123v8.3333h4.7945z"/><path d="m75.342 28.521c0 4.9087-4.1096 8.9041-9.2466 8.9041-2.0548 0-3.9954-0.68493-5.4795-1.7123l-3.7671 1.2557 1.3699-3.7671c-0.91324-1.3699-1.3699-2.968-1.3699-4.6804 0-4.9087 4.1096-8.9041 9.2466-8.9041s9.2466 3.9954 9.2466 8.9041m5.3653 8.6758c1.5982-2.5114 2.5114-5.4795 2.5114-8.6758 0-9.1324-7.6484-16.553-17.237-16.553s-17.237 7.4201-17.237 16.553 7.7626 16.553 17.237 16.553c3.7671 0 7.3059-1.1416 10.16-3.1963l7.0776 2.3973z"/></g><script xmlns=""/></svg>