<svg xmlns="http://www.w3.org/2000/svg" viewBox="0 0 541.9 65.86">
    <g fill="#000" data-name="Layer 1">
        <path class="cls-1" d="M241.52,46.55c-.08-1.17-.15-3.37-.15-4.69V27.47c0-3.6.07-7.56.07-8.44,0-.37-.14-.59-.51-.59h-12.7v.29a5.3,5.3,0,0,1,2.57.59c.88.51,1.25,1.39,1.47,2.86a38.42,38.42,0,0,1,.15,4.33V35.1a50.39,50.39,0,0,1-.23,5.07c-.51,5.36-3.23,8.59-5.65,8.59a3.57,3.57,0,0,1-3.15-1.4,8.53,8.53,0,0,1-1.11-4.84V27.69c0-3.67.08-7.78.08-8.66,0-.52-.22-.59-.52-.59H209.07v.29a5.7,5.7,0,0,1,2.42.51c.81.52,1.18,1.18,1.55,2.65a40.79,40.79,0,0,1,.22,5.43V40.9c0,3,.8,5.87,2.34,7.49,1.77,2,4.63,2.49,7.27,2.49A9.47,9.47,0,0,0,229,48.83a10.61,10.61,0,0,0,3.23-5.07h.22V48.9a8,8,0,0,0,.07,1.4.24.24,0,0,0,.22.22c.22,0,12-.3,12.7-.3v-.29a5.27,5.27,0,0,1-2.49-.66A3.51,3.51,0,0,1,241.52,46.55Z"/>
        <path class="cls-1" d="M267.87,17.78a7.73,7.73,0,0,0-5,1.83,13.64,13.64,0,0,0-3.89,7h-.08c0-.74.08-7.27.08-7.71a.42.42,0,0,0-.44-.44H246.07v.36a4.77,4.77,0,0,1,2.35.59,3.41,3.41,0,0,1,1.32,2.5c.15,1.17.15,4.26.15,5.58V40.61a37.11,37.11,0,0,1-.3,6.16c-.51,2-1.1,2.28-2.2,2.79a8.28,8.28,0,0,1-1.76.37v.29h17.76v-.29a7.28,7.28,0,0,1-1.91-.37,3.45,3.45,0,0,1-2.34-3.08,26.11,26.11,0,0,1-.23-5.06V35.54c0-1.83.08-4,.15-4.55.52-5.72,2.86-9.1,4-9.1.81,0,1.1.59,1.61,2.05.66,1.91,1.77,3.38,4.12,3.38A4,4,0,0,0,273,23c0-2-.37-3.16-1.18-3.89A5.84,5.84,0,0,0,267.87,17.78Z"/>
        <path class="cls-1" d="M186,48.46c-.59-.73-.73-2.2-.73-5.5,0-4.55.07-14.17.07-16.59,0-6.17-5.14-8.59-12.33-8.59-4,0-8.59,1.54-10.28,3.74a5,5,0,0,0-1.17,3.23c0,2.42,1.54,3.53,3.81,3.53,2.65,0,4-1.25,4-4,0-2,.08-3.82.52-4.55s1.1-1.1,2.71-1.1c2.94,0,3.82.88,3.82,4.4,0,1.1-.07,3.45-.07,4.7,0,2.5-1.4,4.77-6.83,6.46-2.35.88-6.09,1.32-8.08,3.45a6.69,6.69,0,0,0-1.83,5c0,5.73,4,8.22,8.22,8.22,4.33,0,7.41-1.61,8.44-5.06h.15c0,1.91.44,3.16,1.25,3.74,1,1,2.64,1.32,5,1.32,3.6,0,6.61-1.17,7.19-2v-.29a5.06,5.06,0,0,1-2.13.51A2.28,2.28,0,0,1,186,48.46Zm-9.83-6.16c0,3.74-2,6.16-3.6,6.16-2.35,0-3.6-1.76-3.6-5.87a14.34,14.34,0,0,1,1-5.8,6.19,6.19,0,0,1,3-3,9,9,0,0,0,3.3-2.79Z"/>
        <path class="cls-1" d="M205.18,48.1c-3.08,0-3.82-2.13-3.82-4.78l.3-23.56h7V18.44h-7V5.52h-1c-2.27,8.22-6.38,12.18-12.4,13.43v.59c1.1.15,3.08.07,4.25.22-.07,3.6-.29,21.07-.29,22.54,0,2.86.59,4.84,2.42,6.46,1.55,1.39,4,2.12,7,2.12a9.75,9.75,0,0,0,8.59-5.13l-.29-.3A5.8,5.8,0,0,1,205.18,48.1Z"/>
        <path class="cls-1" d="M540.72,19.1a5.84,5.84,0,0,0-4-1.32,7.73,7.73,0,0,0-5,1.83,13.64,13.64,0,0,0-3.89,7h-.08c0-.74.08-7.27.08-7.71a.42.42,0,0,0-.44-.44H515v.36a4.77,4.77,0,0,1,2.35.59,3.41,3.41,0,0,1,1.32,2.5c.14,1.17.14,4.26.14,5.58V40.61a38.38,38.38,0,0,1-.29,6.16c-.51,2-1.1,2.28-2.2,2.79a8.28,8.28,0,0,1-1.76.37v.29h17.76v-.29a7.28,7.28,0,0,1-1.91-.37A3.47,3.47,0,0,1,528,46.48a27,27,0,0,1-.22-5.06V35.54c0-1.83.08-4,.15-4.55.51-5.72,2.86-9.1,4-9.1.81,0,1.1.59,1.61,2.05.66,1.91,1.76,3.38,4.11,3.38A4,4,0,0,0,541.9,23C541.9,21,541.53,19.83,540.72,19.1Z"/>
        <path class="cls-1" d="M503.8,49A6.67,6.67,0,0,1,499,47.07c-1.91-2.21-3.38-6-3.38-14.39h19.08a17.06,17.06,0,0,0,.08-2c0-6.54-4.33-12.92-13.73-12.92-7.85,0-15.12,5.8-15.12,16.66,0,6,1.91,10.13,5.28,13.07,2.87,2.49,6.76,3.37,10.35,3.37,7.12,0,11.53-4.69,12.85-10.86l-.81-.22C512.32,44.2,509.6,49,503.8,49ZM498,20a4.14,4.14,0,0,1,3.16-1.32,4.05,4.05,0,0,1,3.08,1.25c1.32,1.61,1.91,4.77,1.91,8.88,0,2.27-.59,2.86-2.35,2.86h-8.22C495.8,25.27,496.61,21.52,498,20Z"/>
        <path class="cls-1" d="M450.14,48.9v-.29a5.14,5.14,0,0,1-2.13.51,2.26,2.26,0,0,1-1.76-.66c-.59-.73-.74-2.2-.74-5.5,0-4.55.08-14.17.08-16.59,0-6.17-5.14-8.59-12.33-8.59-4,0-8.59,1.54-10.28,3.74a5,5,0,0,0-1.18,3.23c0,2.42,1.55,3.53,3.82,3.53,2.64,0,4-1.25,4-4,0-2,.07-3.82.51-4.55s1.1-1.1,2.72-1.1c2.93,0,3.82.88,3.82,4.4,0,1.1-.08,3.45-.08,4.7,0,2.5-1.39,4.77-6.82,6.46-2.35.88-6.1,1.32-8.08,3.45a6.69,6.69,0,0,0-1.83,5c0,5.73,4,8.22,8.22,8.22s7.41-1.61,8.44-5.06h.15c0,1.91.44,3.16,1.24,3.74,1,1,2.65,1.32,5,1.32C446.54,50.88,449.55,49.71,450.14,48.9Zm-13.73-6.6c0,3.74-2,6.16-3.59,6.16-2.35,0-3.6-1.76-3.6-5.87a14.52,14.52,0,0,1,.95-5.8,6.23,6.23,0,0,1,3-3A8.94,8.94,0,0,0,436.49,31Z"/>
        <path class="cls-1" d="M470.25,17.78a9.51,9.51,0,0,0-8.59,6h-.36l.07-4.7c0-.51-.29-.66-.59-.66H447.72v.29a7.29,7.29,0,0,1,3.3,1.1,3.27,3.27,0,0,1,1.32,2.5c.15,1.17.15,3.74.15,5.06V56.32a29.07,29.07,0,0,1-.3,5.87c-.44,2-1,2.35-2.56,3a6.17,6.17,0,0,1-1.55.29v.37h17.77v-.37a6,6,0,0,1-1.54-.29c-1.54-.66-2.13-1-2.57-3a29.07,29.07,0,0,1-.3-5.87v-8h.22c2,1.76,4.26,2.56,7.79,2.56,8.07,0,14.09-6.23,14.09-16.51C483.54,23.14,477.59,17.78,470.25,17.78Zm-2,31.93a5.89,5.89,0,0,1-4.7-2.42c-1.32-1.54-2.13-5.14-2.13-8.3V30.11c0-5.95,2.94-10.57,6.76-10.57s5.72,2.79,5.72,14.53S472,49.71,468.27,49.71Z"/>
        <path class="cls-1" d="M403.82,2H380v.44a15.43,15.43,0,0,1,2.27.37A5.14,5.14,0,0,1,385.61,6c.88,2.72,1.18,7.86,1.18,13.07V33.05c0,5.28-.3,10.42-1.18,13.14a5.07,5.07,0,0,1-3.3,3.3,15.43,15.43,0,0,1-2.27.37v.36h24.07v-.29a17,17,0,0,1-2.71-.44A5,5,0,0,1,398,46.26c-.88-2.72-1.1-7.93-1.1-13.21V27.83a26.54,26.54,0,0,0,4,.37c7.42,0,12-1.17,14.76-2.71,3.45-1.91,5.8-6.32,5.8-10.8C421.44,6,414.83,2,403.82,2Zm4.77,21.66c-1.39,2.2-3,3.38-7.71,3.38a14.27,14.27,0,0,1-4-.59V12a28.3,28.3,0,0,1,.29-5.21,4,4,0,0,1,1.84-2.87,8,8,0,0,1,3.3-.66c5.95,0,8.15,4.41,8.15,11.53C410.5,17.19,410,21.52,408.59,23.65Z"/>
        <path class="cls-1" d="M357.5,18.73a5.72,5.72,0,0,1,2.13.51A2.62,2.62,0,0,1,361,21.59a16.07,16.07,0,0,1-1.17,5.51L355.08,40H355l-4.55-13.22c-.95-2.64-1.39-3.89-1.39-5.21a2.5,2.5,0,0,1,1.17-2.2,5.35,5.35,0,0,1,2.13-.59v-.29H333.72v.29a6.09,6.09,0,0,1,2.42.74,5.89,5.89,0,0,1,2.35,2.64,45.69,45.69,0,0,1,2.79,6.24l8.66,22.53a3.1,3.1,0,0,1,.07,2s-.8,2.12-1.17,2.93c-1.54,4.11-3.31,6.54-4.55,6.54s-1.32-1.1-2.06-2.57c-.88-1.91-1.83-2.87-4-2.87-2.5,0-4,1.55-4,3.67,0,3.53,2.57,5.29,5.8,5.29a7.47,7.47,0,0,0,6.1-2.72A27.16,27.16,0,0,0,350,56c1.62-4,7.27-18.86,11.16-29.36a32.68,32.68,0,0,1,2.2-5.29,5.4,5.4,0,0,1,4.11-2.64v-.29h-10Z"/>
        <path class="cls-1" d="M339.08,48.9v-.29a5.14,5.14,0,0,1-2.13.51,2.3,2.3,0,0,1-1.77-.66c-.58-.73-.73-2.2-.73-5.5,0-4.55.07-14.17.07-16.59,0-6.17-5.13-8.59-12.33-8.59-4,0-8.59,1.54-10.28,3.74a5,5,0,0,0-1.17,3.23c0,2.42,1.54,3.53,3.82,3.53,2.64,0,4-1.25,4-4,0-2,.08-3.82.52-4.55s1.1-1.1,2.71-1.1c2.94,0,3.82.88,3.82,4.4,0,1.1-.07,3.45-.07,4.7,0,2.5-1.4,4.77-6.83,6.46-2.35.88-6.09,1.32-8.07,3.45a6.7,6.7,0,0,0-1.84,5c0,5.73,4,8.22,8.22,8.22s7.42-1.61,8.44-5.06h.15c0,1.91.44,3.16,1.25,3.74,1,1,2.64,1.32,5,1.32C335.48,50.88,338.49,49.71,339.08,48.9Zm-13.73-6.6c0,3.74-2,6.16-3.6,6.16-2.35,0-3.6-1.76-3.6-5.87a14.51,14.51,0,0,1,1-5.8,6.23,6.23,0,0,1,3-3,8.91,8.91,0,0,0,3.3-2.79Z"/>
        <path class="cls-1" d="M304.5,46.48a43.33,43.33,0,0,1-.15-4.48V16.09c0-3.74.22-12.85.22-15.64,0-.29-.22-.36-.36-.44h-13v.3a5.72,5.72,0,0,1,2.28.58,3.17,3.17,0,0,1,1.61,2.57c.15,1,.15,3.6.15,4.7v14.9h-.07a7.91,7.91,0,0,0-7.86-5.28c-7.41,0-14.09,5.58-14.09,16.66,0,11.38,6.39,16.44,13.21,16.44a8.9,8.9,0,0,0,9-6.31h.07v3.6c0,.22-.07,1.83-.07,2a.41.41,0,0,0,.29.37c.44,0,11.82-.22,13.07-.22V50a6.18,6.18,0,0,1-2.64-.66A3.56,3.56,0,0,1,304.5,46.48Zm-9.25-7.34c0,6.53-2.86,10.06-6.61,10.06-3.52,0-5.72-5-5.72-14.61,0-9.4,2.35-15.35,6.09-15.35a5,5,0,0,1,4.33,2.58c1.18,1.68,1.91,3.89,1.91,7.34Z"/>
        <path class="cls-1" d="M143.66,19.89c-5.29-2.42-10.13-4-10.13-10.79,0-4.18,2.64-6.9,7-6.9a10.23,10.23,0,0,1,8.66,4.63,28.2,28.2,0,0,1,4.63,10h.51l.17-14.75h-.93l-2.28,2.94h-.21c-2-2.14-6.37-4-10.7-4C132,1,125,6.75,125,14.46c0,9.4,7.27,13.51,14,16.22,7.78,3.16,10.28,5.73,10.28,10.72,0,4.48-2.13,8.66-8.08,8.66-8.15,0-12.92-8.44-15.27-16.81h-.59l.44,16.59h.44l2.21-3.45h.29c1.91,2.21,7.27,4.85,12.41,4.85,8.73,0,16.81-5.21,16.81-15C157.9,25.77,151.22,23.42,143.66,19.89Z"/>
        <path class="cls-1" d="M75.9,46.76a38.05,38.05,0,0,1-.36-6.17V27.82c0-3.52-.81-5.87-1.91-7.27-1.4-1.83-4.19-2.79-7.56-2.79a11.81,11.81,0,0,0-6.46,2.06,9.85,9.85,0,0,0-4,5.8h-.22V9.1c0-3.67.22-7.56.22-8.59,0-.36-.14-.51-.44-.51H42.28V.37a6.47,6.47,0,0,1,2.65.8,2.88,2.88,0,0,1,1.39,2.35,36.83,36.83,0,0,1,.22,4.92V40.59a39.38,39.38,0,0,1-.29,6.24C45.73,48.74,45,49.18,44,49.55a7.05,7.05,0,0,1-1.76.37v.29H59.53v-.29a6.8,6.8,0,0,1-1.61-.37,3.43,3.43,0,0,1-2.2-3,36.3,36.3,0,0,1-.22-5.14v-7c0-2.2.14-4,.29-5.72.51-5.51,3.89-8.52,6.61-8.52a3.58,3.58,0,0,1,3.15,1.4c.81.95,1.1,2.35,1.1,5.14V41.4a34.33,34.33,0,0,1-.29,5.07c-.37,1.91-.81,2.49-2.13,3.08a6.69,6.69,0,0,1-1.61.37v.29H79.87v-.29a8.2,8.2,0,0,1-1.69-.37C77,49,76.42,48.67,75.9,46.76Z"/>
        <path class="cls-1" d="M43.09,19.54,41.11,4H1.91L0,19.54H.51c1.11-2.56,3.23-7.12,6-10,2.5-3,4.7-4.33,7.78-4.33h2.21v31c0,4-.22,7.7-.88,9.76a4.89,4.89,0,0,1-3.46,3.6,8.59,8.59,0,0,1-2.2.29v.44H33v-.44a8.7,8.7,0,0,1-2.2-.29,4.84,4.84,0,0,1-3.38-3.6c-.66-2.06-.88-5.8-.88-9.76v-31h2.06c3.16,0,5.65,1.61,7.93,4.47a38.83,38.83,0,0,1,6,9.91Z"/>
        <path class="cls-1" d="M93.74,17.76c-7.85,0-15.12,5.8-15.12,16.67,0,6,1.91,10.13,5.28,13.06,2.87,2.5,6.76,3.38,10.35,3.38,7.13,0,11.53-4.7,12.85-10.86l-.81-.22c-1.24,4.4-4,9.17-9.76,9.17a6.72,6.72,0,0,1-4.85-1.91c-1.9-2.2-3.37-6-3.37-14.38h19.08a17.14,17.14,0,0,0,.08-2C107.47,24.15,103.14,17.76,93.74,17.76Zm2.79,13.88H88.31c.22-6.39,1-10.13,2.42-11.67a4.09,4.09,0,0,1,3.16-1.32A4,4,0,0,1,97,19.89c1.32,1.62,1.91,4.78,1.91,8.89C98.88,31.05,98.29,31.64,96.53,31.64Z"/>
    </g>
</svg>