<?xml version="1.0" encoding="UTF-8" standalone="no"?>
<!-- Created with Inkscape (http://www.inkscape.org/) -->
<svg xmlns:dc="http://purl.org/dc/elements/1.1/" xmlns:cc="http://creativecommons.org/ns#" xmlns:rdf="http://www.w3.org/1999/02/22-rdf-syntax-ns#" xmlns:svg="http://www.w3.org/2000/svg" xmlns="http://www.w3.org/2000/svg" xmlns:sodipodi="http://sodipodi.sourceforge.net/DTD/sodipodi-0.dtd" xmlns:inkscape="http://www.inkscape.org/namespaces/inkscape" id="svg2" version="1.1" inkscape:version="0.92.4 5da689c313, 2019-01-14" xml:space="preserve" width="300" height="72.43808" viewBox="0 0 300.00001 72.43808" sodipodi:docname="gl_masthead.svg"><metadata id="metadata8"><rdf:RDF><cc:Work rdf:about=""><dc:format>image/svg+xml</dc:format><dc:type rdf:resource="http://purl.org/dc/dcmitype/StillImage"/><dc:title/></cc:Work></rdf:RDF></metadata><defs id="defs6"/><sodipodi:namedview pagecolor="#ffffff" bordercolor="#666666" borderopacity="1" objecttolerance="10" gridtolerance="10" guidetolerance="10" inkscape:pageopacity="0" inkscape:pageshadow="2" inkscape:window-width="2560" inkscape:window-height="1361" id="namedview4" showgrid="false" fit-margin-top="0" fit-margin-left="0" fit-margin-right="0" fit-margin-bottom="0" inkscape:zoom="1" inkscape:cx="160.80068" inkscape:cy="22.959253" inkscape:window-x="0" inkscape:window-y="26" inkscape:window-maximized="1" inkscape:current-layer="g10"/><g id="g10" inkscape:groupmode="layer" inkscape:label="ink_ext_XXXXXX" transform="matrix(1.25,0,0,-1.25,-301.794,139.28593)"><g id="g114" transform="matrix(1.6120996,0,0,1.6120996,-221.23426,-50.469745)"><path d="m 292.8288,85.311651 c 0,-1.994887 1.25232,-2.80058 3.09157,-2.80058 2.07391,0 3.20871,0.997542 3.20871,2.80058 0,1.841492 -1.17389,2.91572 -3.16971,2.91572 -1.99567,0 -3.13057,-1.074228 -3.13057,-2.91572 z m 15.57477,4.181775 c -1.13489,-1.035863 -2.23053,-1.458099 -3.67849,-1.458099 -0.50869,0 -1.05647,0.07695 -1.36964,0.115314 0.7826,-0.920768 1.17395,-1.918331 1.17395,-3.222577 0,-3.376213 -3.13045,-5.831527 -7.39598,-5.831527 -0.23483,0 -0.39135,0 -0.78261,0.0385 -1.33047,-0.613845 -2.0741,-1.07401 -2.0741,-1.611125 0,-0.268818 0.31303,-0.46058 0.86095,-0.46058 l 2.81754,-0.03815 c 3.05231,-0.03867 4.65679,-0.498989 6.06543,-1.764826 1.17406,-1.074425 1.7219,-2.416992 1.7219,-4.181818 0,-1.649709 -0.50867,-2.915807 -1.60448,-4.066527 -1.7609,-1.841541 -4.77412,-2.53211 -7.90467,-2.53211 -2.85671,0 -5.79159,0.460408 -7.59166,2.109854 -1.09579,0.997714 -1.64365,2.148521 -1.64365,3.491241 0,1.07425 0.27401,1.611387 0.4696,1.994822 h 4.85239 c -0.1956,-0.460144 -0.23477,-0.728723 -0.23477,-1.265837 0,-1.573 1.33055,-2.416993 3.75675,-2.416993 1.33055,0 2.46536,0.153439 3.28705,0.652167 0.78279,0.460405 1.29148,1.18928 1.29148,1.994974 0,1.764826 -1.6045,2.301962 -3.6785,2.340283 l -2.2305,0.03839 c -2.34794,0.03815 -3.87418,0.229995 -4.81339,0.613845 -0.93912,0.345287 -1.52614,1.227711 -1.52614,2.570279 0,1.266011 0.39126,2.455292 3.67841,3.299307 -2.89571,0.728898 -4.30452,2.532198 -4.30452,5.447743 0,4.028139 3.32632,6.63698 8.45262,6.63698 1.13487,0 2.15234,-0.153461 3.60015,-0.498749 1.09578,-0.268339 1.80025,-0.422018 2.46543,-0.422018 1.44789,0 2.93496,0.613845 4.14801,1.688073 l 2.19144,-3.260833" style="fill:#8bc11d;fill-opacity:1;fill-rule:nonzero;stroke:none;stroke-width:0.02179847" id="path14" inkscape:connector-curvature="0"/><path d="m 313.99917,92.102267 c 0.46954,-0.805889 0.74333,-1.688291 0.82159,-2.800667 0.74354,0.99728 1.99586,2.071508 2.97418,2.493745 0.4303,0.191608 1.13483,0.306922 1.72186,0.306922 0.78256,0 1.13483,-0.07695 1.95663,-0.422236 l -1.44785,-4.526888 c -0.50878,0.268557 -0.9393,0.383653 -1.52633,0.383653 -1.17407,0 -2.23042,-0.537115 -3.20874,-1.649687 V 71.99926 h -5.24384 v 13.120565 c 0,2.647163 -0.31302,4.641941 -0.74354,5.754752 l 4.69604,1.22769" style="fill:#8bc11d;fill-opacity:1;fill-rule:nonzero;stroke:none;stroke-width:0.02179847" id="path16" inkscape:connector-curvature="0"/><path d="m 332.62531,83.968844 v 0.230323 c 0,1.457772 -0.15651,2.225035 -0.62605,2.953976 -0.50878,0.767306 -1.25232,1.150959 -2.3089,1.150959 -1.99586,0 -3.13069,-1.534612 -3.13069,-4.258462 v -0.0768 z m 5.2046,-9.782914 c -2.30867,-1.841382 -4.73506,-2.723784 -7.55251,-2.723784 -5.75262,0 -9.47013,3.990057 -9.47013,10.166501 0,3.529478 0.74354,5.869565 2.50443,7.787831 1.6436,1.803387 3.63947,2.647206 6.30041,2.647206 2.30889,0 4.50029,-0.767306 5.79163,-2.071509 1.83936,-1.841534 2.66094,-4.488762 2.66094,-8.593589 0,-0.422192 0,-0.844015 0,-1.18939 h -11.58327 v -0.153439 c 0,-3.030576 1.52633,-4.75708 4.22651,-4.75708 1.7999,0 3.48274,0.652232 5.08711,1.956413 l 2.03488,-3.06916" style="fill:#8bc11d;fill-opacity:1;fill-rule:nonzero;stroke:none;stroke-width:0.02179847" id="path18" inkscape:connector-curvature="0"/><path d="m 351.68262,83.968844 v 0.230323 c 0,1.457772 -0.15651,2.225035 -0.62605,2.953976 -0.50878,0.767306 -1.2521,1.150959 -2.30889,1.150959 -1.99565,0 -3.13048,-1.534612 -3.13048,-4.258462 v -0.0768 z m 5.2046,-9.782914 c -2.30867,-1.841382 -4.73484,-2.723784 -7.55251,-2.723784 -5.7524,0 -9.47013,3.990057 -9.47013,10.166501 0,3.529478 0.74355,5.869565 2.50465,7.787831 1.6436,1.803387 3.63925,2.647206 6.30041,2.647206 2.30867,0 4.50007,-0.767306 5.79141,-2.071509 1.83936,-1.841534 2.66094,-4.488762 2.66094,-8.593589 0,-0.422192 0,-0.844015 0,-1.18939 h -11.58305 v -0.153439 c 0,-3.030576 1.52611,-4.75708 4.22629,-4.75708 1.80012,0 3.48274,0.652232 5.08711,1.956413 l 2.03488,-3.06916" style="fill:#8bc11d;fill-opacity:1;fill-rule:nonzero;stroke:none;stroke-width:0.02179847" id="path20" inkscape:connector-curvature="0"/><path d="m 363.85293,92.140633 c 0.46975,-0.80589 0.74332,-1.649927 0.74332,-2.45538 0.78279,0.537114 1.44808,0.997498 2.3089,1.457664 1.05679,0.537114 2.42639,0.844036 3.60023,0.844036 2.23064,0 4.18727,-1.150959 4.81332,-2.838814 0.27401,-0.728941 0.3915,-1.572978 0.3915,-2.800668 V 71.99926 h -5.16558 v 12.775277 c 0,2.225144 -0.39128,2.877355 -1.7611,2.877355 -1.05635,0 -2.42595,-0.690794 -3.63925,-1.764783 V 71.99926 h -5.24384 v 14.23305 c 0,1.688139 -0.23477,3.299482 -0.70431,4.603684 l 4.65681,1.304639" style="fill:#8bc11d;fill-opacity:1;fill-rule:nonzero;stroke:none;stroke-width:0.02179847" id="path22" inkscape:connector-curvature="0"/><path d="M 389.26602,95.28637 V 79.979114 c 0,-3.376191 0.039,-3.836357 0.35226,-4.373471 0.19553,-0.345288 0.62605,-0.537136 1.05636,-0.537136 0.19575,0 0.31324,0 0.58703,0.07673 l 0.90006,-3.06942 c -0.90006,-0.345288 -1.99565,-0.536962 -3.1307,-0.536962 -2.23042,0 -4.03054,1.03595 -4.65659,2.685637 -0.3915,0.99728 -0.46954,1.611125 -0.46954,4.411814 v 14.65485 c 0,2.570693 -0.0785,4.143671 -0.274,5.908257 l 5.36111,1.189327 c 0.19575,-1.074013 0.27401,-2.340068 0.27401,-5.10237" style="fill:#b71e24;fill-opacity:1;fill-rule:nonzero;stroke:none;stroke-width:0.02179847" id="path24" inkscape:connector-curvature="0"/><path d="m 404.13606,83.968844 v 0.230323 c 0,1.457772 -0.15651,2.225035 -0.62605,2.953976 -0.50878,0.767306 -1.2521,1.150959 -2.30889,1.150959 -1.99587,0 -3.13048,-1.534612 -3.13048,-4.258462 v -0.0768 z m 5.2046,-9.782914 c -2.30889,-1.841382 -4.73506,-2.723784 -7.55229,-2.723784 -5.75284,0 -9.47035,3.990057 -9.47035,10.166501 0,3.529478 0.74355,5.869565 2.50465,7.787831 1.6436,1.803387 3.63925,2.647206 6.30019,2.647206 2.30889,0 4.50008,-0.767306 5.79164,-2.071509 1.83935,-1.841534 2.66093,-4.488762 2.66093,-8.593589 0,-0.422192 0,-0.844015 0,-1.18939 h -11.58305 v -0.153439 c 0,-3.030576 1.52633,-4.75708 4.22629,-4.75708 1.80012,0 3.48274,0.652232 5.08711,1.956413 l 2.03488,-3.06916" style="fill:#b71e24;fill-opacity:1;fill-rule:nonzero;stroke:none;stroke-width:0.02179847" id="path26" inkscape:connector-curvature="0"/><path d="m 420.25865,96.667521 c -1.33058,0 -2.19162,-0.805672 -2.19162,-2.225188 v -2.800667 h 5.08711 l -1.33036,-3.529391 h -3.71773 V 71.99926 h -5.12613 v 16.113015 h -1.80012 v 3.529391 h 1.9174 c -0.11728,0.805889 -0.19554,1.803169 -0.19554,2.685353 0,3.874896 2.34813,6.100081 6.45693,6.100081 1.72186,0 3.13069,-0.34528 4.73484,-1.227687 l -1.68262,-3.184102 c -1.13483,0.537114 -1.52633,0.65221 -2.15216,0.65221" style="fill:#b71e24;fill-opacity:1;fill-rule:nonzero;stroke:none;stroke-width:0.02179847" id="path28" inkscape:connector-curvature="0"/><path d="m 434.42416,88.112275 h -3.36503 v -9.859666 c 0,-2.493701 0.46954,-3.145693 2.26966,-3.145693 0.46954,0 0.9393,0.114856 1.87838,0.383587 l 0.66507,-3.069399 c -1.52611,-0.613692 -2.89571,-0.882249 -4.26531,-0.882249 -2.66094,0 -4.7743,1.150981 -5.40035,2.877398 -0.31303,0.844102 -0.35227,1.22769 -0.35227,3.030663 v 10.665359 h -1.99565 v 3.529391 h 1.99565 c 0,1.918265 0,3.18432 0.19575,4.641984 l 5.3221,1.304638 c -0.19575,-1.803169 -0.31303,-3.951844 -0.31303,-5.946622 h 4.69583 l -1.3308,-3.529391" style="fill:#b71e24;fill-opacity:1;fill-rule:nonzero;stroke:none;stroke-width:0.02179847" id="path30" inkscape:connector-curvature="0"/></g></g><script xmlns=""/></svg>