<svg class="logo-svg"
    xmlns="http://www.w3.org/2000/svg" fill="#0071BD" viewBox="2.691 215.223 494.642 69.873">
    <path d="M188.311,221.303c0.374,1.701,0.262,56.355-0.112,57.345c-2.448,0.542-5.026,0.561-7.474,1.252c-0.361,1.105-0.321,2.303,0.112,3.383h29.411c0.252-1.152,0.252-2.344,0-3.494c-2.616-0.691-5.325-0.674-8.035-1.29v-57.158c2.616-0.673,5.307-0.523,7.829-1.327c0.233-1.071,0.233-2.18,0-3.251c-1.196-0.43-27.897-0.336-29.336,0c-0.299,1.038-0.299,2.139,0,3.177C183.228,220.743,185.844,220.724,188.311,221.303z M215.33,234.458c0.694-2.194,1.499-4.352,2.41-6.465c0.881-2.438,2.143-4.72,3.737-6.764c0.486-0.621,1.25-0.958,2.037-0.897c2.037,0,4.073,0,6.11,0c1.524-0.013,3.048,0.081,4.56,0.28v57.925c-3.158,0.578-6.297,0.598-9.343,1.289c-0.388,1.104-0.334,2.316,0.149,3.382h32.923c0.28-1.147,0.28-2.347,0-3.494c-3.251-0.747-6.614-0.673-9.828-1.308V220.78c0.334-0.209,0.727-0.308,1.121-0.28c2.803-0.243,5.605,0,8.427-0.187c1.67-0.11,3.262,0.718,4.129,2.149c1.678,2.426,3.022,5.065,4,7.848l1.625,4.466c1.137,0.25,2.32,0.179,3.42-0.206c-0.449-5.96-0.897-11.884-1.346-17.994c-18.891,0.206-37.614,0-56.504,0c-0.43,6.11-0.841,11.996-1.252,17.938C212.864,235.021,214.186,235,215.33,234.458z M126.5,275.604c4.963,4.197,10.966,6.98,17.377,8.053c5.97,1.158,12.104,1.196,18.087,0.112c4.432-0.995,8.95-1.565,13.491-1.7c0.224,0,0.43,0,0.785-0.449c0.504-5.941,1.756-12.033,2.541-18.236c-1.214-0.367-2.503-0.406-3.737-0.112c-0.365,0.491-0.643,1.041-0.822,1.626c-1.616,3.954-3.489,7.799-5.605,11.51c-0.833,1.386-2.174,2.391-3.737,2.803c-2.131,0.559-4.319,0.879-6.521,0.953c-4.926,0.581-9.918-0.061-14.537-1.869c-2.504-1.104-4.727-2.758-6.502-4.839c-3.149-3.842-5.18-8.478-5.867-13.397c-0.956-5.862-1.119-11.826-0.486-17.732c0.289-3.416,1.076-6.771,2.335-9.959c1.616-4.307,4.799-7.845,8.913-9.903c3.182-1.486,6.621-2.343,10.127-2.522c4.544-0.45,9.131,0.079,13.453,1.551c1.455,0.479,2.649,1.532,3.308,2.915c1.618,3.495,2.919,7.128,3.886,10.856c0.059,0.479,0.239,0.936,0.523,1.327c1.215,0.462,2.568,0.401,3.737-0.168c-0.261-6.11-0.187-12.276,0-18.686c-1.588,0-2.915-0.131-4.241-0.262c-3.737-0.336-7.474-1.196-11.211-1.719c-9.73-1.526-19.692,0.257-28.29,5.063c-7.44,3.94-13.09,10.58-15.789,18.555c-2.1,6.228-2.43,12.917-0.953,19.321C118.067,265.244,121.488,271.186,126.5,275.604z M4.41,227.133c0.673-1.514,1.233-3.139,1.869-4.709c0.487-1.864,2.359-3.011,4.242-2.597c1.249-0.005,2.496,0.064,3.737,0.206v29.99c-1.625,0.579-3.307,0.28-4.783,0.86c-0.196,0.511-0.196,1.076,0,1.588H26.29c0.3-0.527,0.3-1.174,0-1.701c-1.532-0.504-3.289-0.242-5.007-0.784v-30.027c1.7-0.206,3.289,0,4.876-0.112c0.839-0.07,1.649,0.325,2.112,1.028c0.773,1.085,1.401,2.266,1.868,3.513c0.3,0.972,0.668,1.921,1.103,2.84c0.545,0.351,1.265,0.256,1.701-0.224c-0.206-2.915-0.411-5.923-0.617-8.95H3.345c-0.374,3.064-0.561,6.073-0.654,9.118C3.241,227.413,3.87,227.399,4.41,227.133z M76.703,220.5v29.522c-1.308,0.599-2.747,0.28-3.887,0.897c-0.212,0.514-0.164,1.098,0.131,1.569H100.9c0.411-3.102,0.935-6.091,1.046-9.081c-0.519-0.329-1.181-0.329-1.7,0c-0.127,0.216-0.239,0.441-0.336,0.672c-0.711,1.763-1.581,3.458-2.597,5.064c-0.493,0.886-1.456,1.403-2.466,1.326c-3.289,0-6.577-0.131-9.866-0.262c-0.374,0-0.785,0-1.084-0.299v-14.145h8.091c0.803,1.869,1.046,3.737,1.719,5.27c0.496,0.358,1.167,0.358,1.663,0v-12.22c-0.529-0.267-1.153-0.267-1.682,0c-0.672,1.383-0.878,3.008-1.719,4.484h-7.998v-12.668c3.374-0.464,6.781-0.633,10.184-0.505c0.529,0.073,0.997,0.382,1.271,0.841c0.904,1.105,1.669,2.316,2.28,3.606c0.344,0.936,0.789,1.832,1.327,2.672c0.563,0.248,1.221,0.13,1.663-0.299c-0.374-2.896-0.748-5.867-1.14-8.875H72.873c-0.225,0.493-0.225,1.059,0,1.551C74.05,220.126,75.451,219.827,76.703,220.5z M37.782,220.519v29.504c-1.308,0.599-2.691,0.262-3.737,0.897c-0.164,0.523-0.103,1.092,0.168,1.569h14.948c0.328-0.526,0.328-1.192,0-1.72c-1.233-0.467-2.672-0.262-4.036-0.747v-14.35c4.928-0.318,9.871-0.318,14.799,0v14.35c-1.271,0.579-2.672,0.3-3.737,0.878c-0.288,0.49-0.288,1.099,0,1.589h15.098c0.234-0.53,0.234-1.134,0-1.663c-1.252-0.523-2.691-0.299-4.13-0.822v-29.522c1.308-0.654,2.766-0.28,3.961-0.897c0.259-0.499,0.208-1.103-0.131-1.551h-14.93c-0.295,0.488-0.295,1.1,0,1.588c1.196,0.561,2.598,0.224,3.737,0.878v12.706H45.032v-12.688c1.327-0.71,2.821-0.317,4.036-0.953c0.184-0.503,0.144-1.061-0.112-1.532H34.007c-0.314,0.46-0.35,1.056-0.093,1.551C35.185,220.126,36.661,219.771,37.782,220.519z M272.357,279.919c-0.267,1.112-0.221,2.276,0.131,3.364h29.41c0.326-1.162,0.326-2.391,0-3.551c-2.653-0.635-5.344-0.673-8.072-1.271v-57.14c2.635-0.617,5.307-0.561,7.848-1.308c0.225-1.072,0.225-2.179,0-3.251c-1.308-0.467-28.271-0.317-29.467,0.168c-0.223,1.022-0.223,2.08,0,3.102c2.43,0.748,5.045,0.635,7.568,1.29v57.271C277.421,279.246,274.823,279.172,272.357,279.919z M307.952,283.413c8.559,0,17.135,0,25.711,0c8.109,0,16.2-0.28,24.291,0.523c1.427,0.233,2.871,0.34,4.316,0.317c1.084-6.963,2.168-13.957,3.251-20.983c-1.268-0.456-2.655-0.456-3.924,0c-0.422,0.569-0.756,1.199-0.99,1.868c-1.475,3.518-3.134,6.953-4.97,10.296c-0.72,1.644-1.813,3.097-3.195,4.241c-9.866-0.467-19.844-0.224-29.784-0.672c-0.086-0.393,0.033-0.801,0.317-1.084c1.532-2.316,3.07-4.621,4.615-6.914l12.669-18.871l9.155-13.622c4.167-6.222,8.315-12.444,12.501-18.686c0.609-0.885,0.774-2.003,0.448-3.027c-0.588-0.255-1.235-0.339-1.869-0.243h-34.623c-3.946,0.057-7.892-0.149-11.81-0.616c-1.22-0.316-2.49-0.386-3.737-0.206c-0.522,6.203-0.878,12.388-1.121,18.685c1.315,0.308,2.684,0.308,3.999,0c0.485-1.458,0.953-2.896,1.438-4.316c0.878-2.723,2.076-5.333,3.569-7.773c0.654-1.356,2.09-2.157,3.587-2c2.019,0.187,4.074,0.168,6.11,0.187c5.4,0,10.819,0,16.237,0.112c0.579-0.101,1.174,0.005,1.682,0.299l-3.886,5.886l-15.098,22.535c-4.983,7.474-10.01,14.998-15.079,22.572l-5.325,7.792c-0.614,1.066-0.743,2.345-0.355,3.513C306.684,283.434,307.323,283.498,307.952,283.413z M375.22,221.229v57.346c-2.616,0.672-5.27,0.561-7.68,1.363c-0.294,1.118-0.235,2.299,0.168,3.383h54.3c0.859-6.035,1.569-11.978,2.224-17.883c-1.063-0.539-2.319-0.539-3.383,0c-0.301,0.545-0.568,1.106-0.803,1.682c-0.9,2.205-1.923,4.357-3.064,6.447c-0.855,1.75-1.949,3.372-3.251,4.82c-0.438,0.486-1.065,0.759-1.72,0.748c-7.156,0-14.294,0-21.432-0.374c-0.547,0.03-1.088-0.128-1.532-0.448v-27.281h15.957c1.009,3.457,1.999,6.84,2.971,10.203c1.083,0.564,2.374,0.564,3.457,0v-23.899c-1.156-0.344-2.397-0.258-3.494,0.243l-2.934,8.857h-15.957v-24.646c0.424-0.303,0.937-0.454,1.457-0.43c5.83-0.467,11.66-0.561,17.509-0.598c1.308-0.033,2.552,0.565,3.344,1.607c1.47,1.851,2.724,3.863,3.737,5.998c1.065,2.13,2.074,4.279,3.102,6.447c1.101,0.226,2.244,0.102,3.271-0.355c-0.579-5.979-1.42-11.903-2.168-17.976c-17.396,0-34.586,0-51.795,0.187c-0.309,1.068-0.309,2.202,0,3.27C369.969,220.649,372.641,220.631,375.22,221.229z M452.334,283.114c0.373-1.09,0.373-2.272,0-3.363c-3.737-0.878-7.736-1.14-11.473-1.868c-0.804-2.672-1.364-43.182-0.636-45.947l42.453,53.16h5.008c0.22-0.023,0.438-0.061,0.654-0.113c0.168-0.607,0.225-1.24,0.168-1.868c0.093-18.966-0.206-37.931,0.262-56.896c-0.001-1.31,0.118-2.617,0.354-3.905c2.635-0.897,5.419-1.252,7.979-2.261c0.361-1.035,0.295-2.172-0.187-3.158h-24.422c-0.41,1.013-0.41,2.146,0,3.158c3.326,1.046,6.839,1.364,10.352,2.336c1.159,13.864,0.897,27.691,0.897,41.519l-0.393,0.111l-38.343-47.311h-18.087c-0.36,1.067-0.405,2.215-0.131,3.307c2.766,0.972,5.849,1.103,8.165,3.27v1.551c0,11.473,0,22.945,0,34.419c0,5.605,0,11.342-0.28,17.021c0,0.505,0.094,1.047-0.336,1.551c-2.747,0.804-5.605,1.084-8.39,2.074c-0.394,1.035-0.394,2.179,0,3.214H452.334z"></path>
</svg>