<svg class="logo-svg_mw"
    xmlns="http://www.w3.org/2000/svg" fill="currentColor" viewBox="119.367 222.463 261.292 30.002" xml:space="preserve">
    <path d="M124.596,226.661v23.384l2.609,0.208v1.94h-7.838v-1.94l2.518-0.224v-25.11l-2.518-0.121v-1.971h10.803l7.14,21.134l7.187-21.134h10.576v1.971l-2.467,0.121v25.208l2.467,0.126v1.94h-11.89v-1.94l2.507-0.143v-22.98l-8.549,25.335h-3.916L124.596,226.661z M157.684,224.918l-1.835-0.121v-1.971h11.096v1.971l-2.446,0.121l5.346,19.424l5.728-21.515h5.178l5.501,21.559l5.436-19.381l-2.164-0.208v-1.971h6.33v1.971l-1.442,0.208l-7.9,27.379h-4.599l-5.783-22.066l-5.915,22.066h-4.589L157.684,224.918z M195.574,250.252l1.827-0.224l9.567-27.368h5.316l9.57,27.465l1.867,0.127v1.955h-11.699v-1.956l2.81-0.143l-2.681-7.725h-9.399l-2.588,7.612l2.714,0.256v1.955h-7.305V250.252z M211.464,240.43l-3.984-11.851l-4.053,11.858L211.464,240.43z M229.468,227.17v22.875l2.715,0.208v1.955h-7.813v-1.956l2.508-0.224v-25.11l-2.508-0.121v-1.971h10.288l12.432,19.86v-17.682l-2.593-0.208v-1.971h7.523v1.971l-2.292,0.208v27.315h-4.671L229.468,227.17z M252.665,250.252l1.816-0.224l9.614-27.377h5.319l9.56,27.459l1.875,0.143v1.94h-11.722v-1.94l2.788-0.143l-2.67-7.732h-9.445l-2.595,7.612l2.725,0.263v1.94h-7.261L252.665,250.252z M268.565,240.43l-4.005-11.851l-4.039,11.858L268.565,240.43z M286.563,227.17v22.875l2.725,0.208v1.955h-7.822v-1.956l2.501-0.224v-25.11l-2.501-0.121v-1.971h10.284l12.424,19.86v-17.682l-2.581-0.208v-1.971h7.529v1.971l-2.304,0.208v27.315h-4.68L286.563,227.17z M311.025,237.33c0-10.464,4.076-14.845,14.572-14.845c2.742-0.128,5.471,0.309,8.044,1.275l0.208,6.807h-1.994l-1.354-5.181c-1.619-0.608-3.344-0.868-5.064-0.765c-5.48,0-7.195,3.108-7.195,12.748c0,9.647,1.459,12.883,7.314,12.883c1.787,0.088,3.574-0.205,5.244-0.85l1.26-6.116h1.997l-0.159,7.347c-1.779,0.938-4.295,1.786-8.974,1.786C314.805,252.465,311.025,247.916,311.025,237.33z M354.569,250.252l2.511-0.143v-12.356h-11.1v12.372l2.468,0.127v1.955h-11.993v-1.956l2.507-0.143v-25.191l-2.507-0.121v-1.971h11.982v1.971l-2.461,0.121v10.62h11.094v-10.62l-2.508-0.121v-1.971h12.039v1.971l-2.514,0.121v25.208l2.514,0.127v1.955h-12.032V250.252z M368.273,250.252l2.69-0.143v-25.191l-2.69-0.121v-1.971h12.385v1.971l-2.688,0.121v25.208l2.688,0.127v1.955h-12.385V250.252z"></path>
</svg>