<svg width="300" height="160" viewBox="0 0 300 160" fill="none"
    xmlns="http://www.w3.org/2000/svg">
    <rect width="300" height="160" fill="#EA042C"/>
    <path fill-rule="evenodd" clip-rule="evenodd" d="M230.304 90.8872C232.504 90.8411 233.97 88.8322 234.5 86.8475C235.208 84.1373 235.417 81.2064 234.638 78.489C234.247 77.2977 233.503 75.956 232.185 75.7012C230.894 75.6299 229.602 75.6424 228.31 75.6549C227.449 75.6633 226.587 75.6716 225.726 75.6551L225.724 75.6765C225.61 76.8486 225.496 78.023 225.342 79.1902C225.209 80.8726 225.022 82.5487 224.835 84.2241C224.59 86.4291 224.344 88.6328 224.22 90.8484C224.994 90.8567 225.768 90.8548 226.542 90.8529C227.796 90.8498 229.05 90.8467 230.304 90.8872ZM167.464 108.303C168.109 108.305 168.754 108.305 169.404 108.301C170.554 108.308 171.706 108.307 172.859 108.306C173.244 108.306 173.628 108.305 174.013 108.305C173.871 105.949 173.735 103.592 173.598 101.236C173.356 97.0595 173.115 92.8836 172.845 88.7098C172.023 91.433 171.29 94.1865 170.557 96.94C170.174 98.3768 169.792 99.8137 169.397 101.246C169.021 102.613 168.647 103.98 168.273 105.348C168.004 106.333 167.734 107.319 167.464 108.303ZM256.956 76.1502C257.072 85.5744 254.451 93.445 246.87 99.2099L244.102 101.289C245.268 105.143 246.439 108.996 247.611 112.849C250.443 122.164 253.276 131.482 256.031 140.819C255.678 140.821 255.325 140.823 254.972 140.825C253.393 140.835 251.818 140.844 250.24 140.824C247.12 140.797 244 140.8 240.88 140.803C237.759 140.806 234.639 140.809 231.521 140.783C230.349 136.249 229.183 131.714 228.016 127.179C226.207 120.142 224.397 113.105 222.566 106.071C222.452 107.105 222.337 108.139 222.222 109.172C221.76 113.32 221.298 117.468 220.954 121.625C220.543 124.682 220.229 127.75 219.914 130.817C219.61 133.789 219.305 136.76 218.913 139.72C218.142 139.714 217.372 139.716 216.602 139.718C215.961 139.719 215.319 139.721 214.678 139.718C207.801 139.707 200.922 139.708 194.044 139.709C188.454 139.71 182.864 139.711 177.275 139.706C177.199 138.026 177.083 136.351 176.968 134.676C176.831 132.698 176.695 130.72 176.623 128.737C173.785 128.725 170.946 128.726 168.107 128.727C166.282 128.728 164.456 128.728 162.631 128.725C162.529 129.062 162.426 129.398 162.323 129.736C162.122 130.395 161.921 131.055 161.723 131.716C161.486 132.522 161.256 133.33 161.025 134.139C160.507 135.952 159.99 137.766 159.408 139.562C158.597 139.781 157.753 139.753 156.911 139.726C156.518 139.713 156.125 139.7 155.736 139.713C147.838 139.704 139.939 139.706 132.04 139.708C126.775 139.709 121.509 139.71 116.244 139.708C118.596 119.517 120.92 99.3212 123.244 79.132L123.44 77.4267C121.879 77.4089 120.318 77.4166 118.756 77.4243C116.25 77.4367 113.743 77.4491 111.236 77.3562C111.61 73.2646 112.021 69.1777 112.432 65.0915C112.611 63.3135 112.79 61.5355 112.966 59.7574C107.738 59.747 102.51 59.7566 97.2818 59.7662C93.954 59.7723 90.6262 59.7784 87.2983 59.7793C87.7019 56.1866 88.0818 52.5899 88.4618 48.993C88.8095 45.701 89.1572 42.4088 89.5232 39.1194C89.6706 37.6046 89.5111 35.7372 88.1293 34.8206C85.9213 33.5441 82.6142 34.1446 81.5488 36.6685C80.6654 39.4211 80.4262 42.2988 80.187 45.1756C80.0639 46.6568 79.9408 48.1377 79.7298 49.6013C79.6725 50.4307 79.5662 51.2613 79.4598 52.0926C79.2249 53.9274 78.9895 55.7659 79.2804 57.6032C79.6597 59.7355 81.515 61.0874 83.2278 62.1499L84.1433 62.6776C86.8595 64.2331 89.5861 65.7714 92.313 67.3098C94.9992 68.8253 97.6857 70.3409 100.363 71.8733C102.848 73.2786 105.175 75.0123 107.105 77.1349C108.158 78.3847 109.086 79.7463 109.832 81.2124C111.668 84.9301 112.122 89.2581 111.494 93.3404C111 97.6734 110.523 102.009 110.045 106.344C109.268 113.394 108.49 120.444 107.644 127.488C106.95 132.392 105.991 137.69 102.443 141.393C100.66 143.404 98.2489 144.695 95.7389 145.556C89.7833 147.322 83.5285 147.397 77.3527 147.47C76.642 147.479 75.9324 147.487 75.2244 147.498C74.8436 147.498 74.4626 147.499 74.0816 147.499C68.2263 147.505 62.3472 147.511 56.5362 146.693C52.3207 146.066 47.6946 144.678 45.2474 140.878C42.7838 136.881 42.9583 132.051 43.1232 127.487C43.1428 126.945 43.1622 126.406 43.1771 125.873C43.6967 119.631 44.4169 113.407 45.1371 107.183C45.562 103.51 45.987 99.8371 46.3707 96.1609C46.4336 95.4673 46.5295 94.7796 46.6253 94.0925C46.6363 94.0136 46.6473 93.9348 46.6582 93.8559C59.6259 93.8194 70.6755 93.7149 74.9804 93.5277C74.4937 98.012 73.9962 102.493 73.4986 106.975C73.149 110.123 72.7994 113.272 72.4535 116.422C72.4241 116.675 72.393 116.929 72.3618 117.184C72.1064 119.274 71.8433 121.426 72.4052 123.476C72.8449 125.068 74.5673 125.528 76.0023 125.698C77.1981 125.552 78.5485 125.326 79.3118 124.283C80.349 122.893 80.5817 121.106 80.8003 119.427L80.812 119.337C81.2066 115.824 81.5871 112.307 81.9674 108.791C82.2717 105.978 82.5758 103.167 82.8871 100.358C82.9202 100.027 82.9583 99.6945 82.9965 99.3612C83.187 97.6998 83.3801 96.0142 82.9717 94.386C82.4199 92.3705 80.5484 91.209 78.8942 90.1824L78.8818 90.1747C73.0067 86.7512 67.1268 83.3424 61.2445 79.9359C58.0895 78.1829 55.2486 75.7563 53.3643 72.6367C50.7191 68.3963 50.0789 63.2003 50.5137 58.2913C50.8475 54.9485 51.2089 51.6094 51.5704 48.2705C51.8028 46.1232 52.0353 43.976 52.2603 41.828L52.2666 41.7689C52.7839 36.9328 53.3042 32.0685 54.5674 27.3658C55.3452 24.5186 56.4661 21.7078 58.2997 19.3761C61.0609 15.8627 65.472 14.2409 69.7262 13.509C74.9176 12.6459 80.1912 12.4805 85.443 12.5048C86.7689 12.5136 88.0972 12.5093 89.4264 12.505C95.0841 12.4866 100.759 12.4681 106.344 13.4604C109.68 14.1047 113.173 15.3204 115.381 18.0631C117.903 21.1608 118.358 25.3817 118.304 29.2453C118.078 33.0244 117.646 36.7853 117.215 40.5462C116.795 44.2042 116.376 47.8622 116.145 51.5367C120.763 51.5481 125.382 51.5571 130 51.5662C140.165 51.586 150.328 51.6059 160.491 51.651C160.45 52.0056 160.41 52.3601 160.369 52.7146C159.958 56.3207 159.546 59.9267 159.379 63.5529C158.892 66.3974 158.602 69.2674 158.312 72.1376C158.137 73.8676 157.962 75.5976 157.744 77.3221C157.652 77.3271 157.56 77.3322 157.468 77.3372C156.713 77.3786 155.961 77.4199 155.205 77.4437C154.625 77.4583 154.045 77.4583 153.468 77.451C151.887 77.4191 150.305 77.4204 148.722 77.4217C147.773 77.4225 146.824 77.4233 145.875 77.417C145.768 78.4602 145.645 79.5017 145.523 80.54C145.5 80.7408 145.476 80.9414 145.453 81.1419C144.96 85.6039 144.455 90.0638 143.95 94.5233C143.105 101.993 142.259 109.462 141.474 116.938C140.884 121.453 140.392 125.98 139.925 130.51C143.056 121.397 146.189 112.286 149.321 103.175C154.777 87.3024 160.234 71.4311 165.682 55.5559C165.834 55.1097 165.988 54.6644 166.142 54.2191C166.438 53.359 166.735 52.4991 167.023 51.634C168.626 51.634 170.23 51.6339 171.833 51.6338C178.249 51.6334 184.665 51.633 191.084 51.6388C191.337 54.2842 191.593 56.9297 191.852 59.5726C192.313 64.292 192.777 69.0115 193.243 73.7309C193.7 78.3579 194.156 82.9874 194.611 87.6168C195.135 92.9465 195.654 98.2763 196.103 103.613C196.434 105.985 196.626 108.395 196.819 110.808C196.925 112.135 197.031 113.462 197.16 114.785C197.158 114.758 197.174 114.911 197.202 115.172C197.313 116.226 197.612 119.051 197.633 119.046C197.807 120.421 197.951 121.805 198.095 123.19C198.152 123.739 198.209 124.288 198.268 124.837C199.765 111.381 201.187 97.9125 202.609 84.4433C203.625 74.8118 204.642 65.1797 205.687 55.551C205.822 54.2429 205.957 52.9348 206.158 51.634C209.786 51.6332 213.415 51.6338 217.044 51.6344C225.511 51.6358 233.978 51.6371 242.445 51.6218C246.612 51.6218 250.194 54.4861 252.489 57.7807C256.07 63.1371 257.058 69.8114 256.956 76.1502ZM197.435 16.9124C198.171 16.9114 198.906 16.9104 199.64 16.9025C199.484 16.9037 199.711 16.9 200.203 16.892L200.204 16.892L200.204 16.892C200.702 16.8838 201.471 16.8712 202.391 16.8548C201.091 19.6822 199.719 22.4725 198.348 25.2625L198.348 25.2631C197.246 27.5041 196.145 29.7451 195.08 32.0049C194.869 32.4833 194.625 32.9502 194.38 33.4176L194.38 33.4178C193.842 34.4451 193.302 35.4753 193.113 36.637C193.031 37.4154 192.951 38.1942 192.871 38.9731L192.871 38.974L192.871 38.9741C192.661 41.0254 192.45 43.0772 192.194 45.1236C191.081 45.1161 189.97 45.1236 188.867 45.1311C188.138 45.1386 187.411 45.1419 186.686 45.1452H186.686C186.441 45.1463 186.197 45.1474 185.954 45.1487C186.189 42.8718 186.418 40.5978 186.648 38.3258L186.849 36.336C187.01 35.1787 186.685 34.0643 186.364 32.9674L186.364 32.9671C186.29 32.7116 186.215 32.457 186.147 32.203C185.565 30.1397 184.997 28.0724 184.429 26.0053L184.428 26.0023L184.428 26.0013C183.883 24.0171 183.337 22.0329 182.78 20.0524C182.485 19.0367 182.231 18.011 181.999 16.9802C184.151 16.9727 186.305 16.9627 188.457 16.9527C188.535 17.1352 188.594 17.3367 188.651 17.5326L188.651 17.5328L188.651 17.5333C188.693 17.6789 188.735 17.8215 188.783 17.9508C189.233 19.8977 189.717 21.8337 190.201 23.771L190.202 23.7714L190.308 24.1954C190.568 25.3014 190.829 26.4048 191.126 27.5058C191.872 25.7611 192.579 24.0017 193.287 22.2413L193.287 22.2394L193.289 22.2346C193.552 21.5807 193.815 20.9266 194.08 20.2731C194.32 19.6687 194.568 19.0672 194.817 18.4656L194.817 18.465L194.818 18.4631C195.03 17.9496 195.242 17.4359 195.449 16.92C196.111 16.9141 196.773 16.9132 197.435 16.9124ZM150.3 32.3244L150.3 32.3247L150.3 32.3248L150.3 32.3249C149.989 33.4672 149.678 34.6097 149.342 35.7447L149.783 35.7437H149.784C150.669 35.7419 151.551 35.74 152.437 35.7271C152.215 32.813 152.021 29.8938 151.863 26.9696C151.278 28.7337 150.789 30.5288 150.3 32.3244ZM148.442 16.9607C149.436 16.9649 150.429 16.9696 151.423 16.9743L151.423 16.9743C153.41 16.9838 155.396 16.9933 157.383 16.9983C157.487 18.3827 157.58 19.7675 157.673 21.1518L157.673 21.153C157.836 23.5851 157.999 26.0159 158.223 28.4417C158.371 31.3902 158.578 34.3343 158.784 37.2788L158.784 37.2795L158.784 37.2809C158.964 39.8456 159.144 42.4105 159.286 44.9787C158.417 44.9837 157.545 44.9912 156.677 45.0037C156.54 45.0037 156.335 45.005 156.131 45.0063L156.129 45.0063L156.129 45.0063C155.925 45.0075 155.721 45.0088 155.585 45.0088L153.081 44.9787C153.01 44.1084 152.94 43.2382 152.873 42.3705C152.29 42.3713 151.708 42.3716 151.125 42.3719H151.123H151.123H151.122H151.119C149.955 42.3724 148.791 42.373 147.626 42.378L147.414 43.1537C147.247 43.7626 147.079 44.3731 146.913 44.9837C144.857 44.9887 142.798 44.9912 140.74 44.9787C141.802 41.0792 142.876 37.183 143.95 33.287L143.953 33.2786L143.953 33.2779L143.953 33.2767C145.159 28.9051 146.364 24.5338 147.552 20.1582C147.705 19.6017 147.861 19.0465 148.016 18.4916L148.016 18.491L148.016 18.4904L148.018 18.4828C148.16 17.9754 148.302 17.4683 148.442 16.9607ZM165.084 17.0322C165.883 17.0372 166.683 17.0422 167.482 17.0422C167.76 17.0422 168.04 17.0403 168.319 17.0384C168.599 17.0365 168.879 17.0347 169.16 17.0347L169.16 17.0394V17.0396C169.109 18.0763 169.059 19.1153 168.93 20.1469C168.55 23.5897 168.202 27.0379 167.854 30.4861L167.854 30.4875L167.854 30.4878L167.854 30.488L167.854 30.4882L167.854 30.4891C167.374 35.251 166.893 40.0131 166.328 44.7617L166.019 44.8947C164.997 45.005 163.968 45.0075 162.944 44.995C162.307 44.9905 161.673 44.9886 161.038 44.9868H161.037H161.036C160.613 44.9856 160.189 44.9844 159.765 44.9824C160.318 39.5094 160.903 34.0396 161.489 28.5702L161.489 28.5681L161.489 28.5661L161.489 28.5642L161.489 28.5623L161.49 28.5561C161.791 25.7447 162.092 22.9334 162.388 20.1219C162.497 19.1714 162.581 18.2146 162.664 17.2573L162.665 17.256L162.685 17.0221C163.485 17.0221 164.284 17.0271 165.083 17.0322L165.084 17.0322ZM176.909 28.6955L176.909 28.694L176.909 28.6938L176.909 28.6934C177.347 24.8004 177.784 20.907 178.061 16.997C177.024 16.9983 175.986 17.0046 174.948 17.0108L174.948 17.0108C173.911 17.0171 172.873 17.0234 171.835 17.0246C171.817 17.1643 171.798 17.3039 171.778 17.4435L171.778 17.4481L171.778 17.4483L171.778 17.4491C171.657 18.336 171.535 19.2236 171.469 20.1168C171.097 23.8288 170.699 27.5378 170.301 31.2464L170.301 31.2467L170.301 31.2469L170.301 31.2485C169.809 35.8227 169.318 40.3965 168.877 44.9749C169.341 44.9762 169.806 44.9762 170.271 44.9762C170.736 44.9762 171.201 44.9762 171.665 44.9774C174.035 44.9599 180.527 44.9172 183.559 45.0025C183.825 45.0376 183.983 45.0251 184.084 44.995C184.092 44.887 184.1 44.7697 184.109 44.6414L184.122 44.4558C184.105 44.383 184.098 44.3178 184.129 44.2652C184.13 44.2595 184.131 44.2538 184.132 44.2481C184.133 44.2438 184.133 44.2394 184.134 44.2351C184.135 44.225 184.136 44.215 184.139 44.205C184.168 43.7289 184.199 43.1681 184.231 42.5825L184.231 42.582L184.231 42.5813L184.231 42.5794C184.303 41.2567 184.383 39.8085 184.469 38.9259C184.238 38.9079 183.967 38.8885 183.743 38.8726L183.507 38.8557C181.854 38.8003 180.202 38.8116 178.55 38.8228H178.55H178.549H178.549C177.658 38.8289 176.767 38.835 175.876 38.8306C176.15 35.4455 176.53 32.0706 176.909 28.6955ZM136.023 34.2435C135.695 35.6303 135.174 37.1827 133.883 37.8924C133.247 38.3053 132.512 38.2835 131.787 38.262C131.53 38.2543 131.275 38.2467 131.025 38.2586C131.277 36.2879 131.475 34.3111 131.672 32.3344L131.672 32.3336C131.809 30.9648 131.945 29.5962 132.1 28.2296C132.103 28.2345 132.109 28.2416 132.114 28.2487L132.114 28.2491L132.122 28.2597C132.143 28.063 132.163 27.8663 132.183 27.6696L132.183 27.6638C132.214 27.3659 132.244 27.0679 132.277 26.77C132.275 26.7813 132.277 26.764 132.281 26.7253L132.282 26.7123C132.31 26.1113 132.399 25.5038 132.487 24.8994C132.575 24.3033 132.662 23.71 132.689 23.1285C132.892 23.1364 133.101 23.1266 133.311 23.1167C133.904 23.0888 134.505 23.0605 135.008 23.427C135.975 24.1518 136.351 25.4333 136.567 26.6045C136.964 29.155 136.562 31.7506 136.023 34.2435ZM142.139 20.6307C141.617 19.0106 140.456 17.5109 138.912 16.919C138.314 16.9128 137.716 16.9115 137.118 16.9103H137.118C136.52 16.909 135.922 16.9078 135.324 16.9015C135.873 16.909 130.923 16.9341 126.901 16.8614C126.772 17.5636 126.735 18.2751 126.698 18.9849V18.985C126.66 19.7098 126.623 20.4328 126.487 21.1423C125.839 26.3101 125.284 31.4884 124.728 36.6663L124.728 36.6667C124.426 39.4844 124.123 42.3019 123.806 45.1176C125.193 45.1091 126.58 45.1236 127.969 45.1382L127.969 45.1382H127.969C130.677 45.1666 133.387 45.195 136.088 45.0524C136.954 44.6737 137.78 44.1972 138.534 43.6129C142.295 39.2566 142.689 33.0917 143.046 27.5166L143.046 27.5073C143.077 25.1975 142.812 22.8376 142.139 20.6307Z" fill="white"/>
    <script xmlns=""/>
</svg>