<svg fill="none" width="327" height="39"
    xmlns="http://www.w3.org/2000/svg" viewBox="0 0 327 39">
    <g mask="url(#a)" fill-rule="evenodd" clip-rule="evenodd" fill="#DC062B">
        <path d="M51.8643 17.4176v-4.1222c0-2.2637-.6868-3.1934-1.8187-3.1934-1.536 0-2.4652 1.8993-2.6673 7.3156h4.486Zm20.8539-1.6166c0-1.9004-1.1722-2.5056-2.425-2.5056-.8486 0-1.8993.444-2.3035.7277v13.3356c0 1.6166.6063 2.1025 1.9397 2.3449v.4439H58.8156v-.4439c.768-.1618 1.7784-.6879 1.7784-2.4653V12.3651c0-1.7784-.4853-2.2631-1.7784-2.5055V9.415h9.3762l-.2424 4.0819c1.2931-2.425 3.5563-4.4866 6.6686-4.4866 2.748 0 5.4959 1.2947 5.4959 5.9818v12.2461c0 1.3334.2021 2.182 1.536 2.4653v.4439h-10.508v-.4439c.97-.2424 1.5763-.9303 1.5763-2.4653V15.801Zm11.1546-3.4359c0-1.3334-.4042-2.2631-1.6973-2.5055V9.415h9.093v17.8232c0 1.2926.4848 2.3035 1.8187 2.4653v.4439H82.0541v-.4439c1.3334-.1618 1.8187-1.1727 1.8187-2.4653V12.3651Zm7.5978-8.2443c0 2.182-1.8187 3.9206-4.0012 3.9206-2.1826 0-3.9605-1.7386-3.9605-3.9206 0-2.1418 1.7779-3.8798 3.9605-3.8798 2.1825 0 4.0012 1.738 4.0012 3.8798ZM107.152 15.801c0-1.9004-1.173-2.5056-2.425-2.5056-.849 0-1.9.444-2.304.7277v13.3356c0 1.6166.566 2.1025 1.94 2.3449v.4439H93.4914v-.4439c.7272-.1618 1.5355-.6879 1.5355-2.4653V12.3651c0-1.7784-.4848-2.2631-1.7784-2.5055V9.415h9.3765l-.243 4.0819c1.293-2.425 3.557-4.4866 6.669-4.4866 2.748 0 5.496 1.2947 5.496 5.9818v12.2461c0 1.3334.202 2.182 1.536 2.4653v.4439h-10.508v-.4439c.97-.2424 1.577-.9303 1.577-2.4653V15.801Zm20.57-.1215c0-3.9206-.444-5.6576-1.778-5.6576-1.414 0-1.98 1.737-1.98 5.6576v.6471c0 3.9191.566 5.6577 1.98 5.6577 1.334 0 1.778-1.7386 1.778-5.6577v-.6471Zm72.545 10.8316c-.688 1.7779-3.032 3.8793-6.669 3.8793-3.799 0-4.89-2.4658-4.89-4.8907V10.7082h-1.819v-.4848c2.708-.4444 6.628-2.7076 8.77-5.052h.445v4.2437h4.041v1.2931h-4.041v14.1853c0 1.3742.646 2.183 1.94 2.183.888 0 1.576-.4444 1.858-.8088l.365.2434Zm34.311-10.7101c0-1.9004-1.172-2.5056-2.425-2.5056-.848 0-1.9.444-2.303.7277v13.3356c0 1.6166.566 2.1025 1.939 2.3449v.4439h-10.992v-.4439c.768-.1618 1.657-.6879 1.657-2.4653V12.3651c0-1.7784-.485-2.2631-1.779-2.5055V9.415h9.377l-.243 4.0819c1.293-2.425 3.557-4.4866 6.668-4.4866 2.749 0 5.497 1.2947 5.497 5.9818v12.2461c0 1.3334.202 2.182 1.536 2.4653v.4439h-10.508v-.4439c.97-.2424 1.576-.9303 1.576-2.4653V15.801Zm22.43 9.1736c0 1.7789-1.536 2.5464-2.546 2.5464-2.061 0-3.112-1.4554-3.112-3.8395V13.4567c0-2.2229 1.496-3.1516 2.991-3.1516 1.293 0 2.667.9695 2.667 2.828v11.8415ZM2.2353 5.2118c0-1.6978-.6466-3.1113-3.314-3.3139v-.6863H21.796v7.436h-.768c-2.5459-4.2033-3.395-6.2246-6.0618-6.2246h-4.3248v12.7314h1.7784c2.9097 0 3.7992-1.2538 5.254-4.7697h.6466V21.054h-.6466c-1.4548-3.5154-2.3443-4.7682-5.254-4.7682h-1.7784v10.4269c0 1.4549.5256 2.2229 2.7076 2.2229h1.213c4.2028 0 5.4153-2.7888 8.123-7.3958h.7276l-.8083 8.6077h-23.683v-.6863c2.6674-.2016 3.314-1.6167 3.314-3.3144V5.2118ZM266.344 30.1475v-.4439c-1.738-.2833-1.94-1.1319-1.94-2.4653V1.2116h-9.619v.525c1.981.2425 2.223.3236 2.223 1.4146v7.4355c-.727-.848-2.384-1.5763-4.527-1.5763-4.445 0-9.052 3.4767-9.052 11.1552 0 7.113 3.112 10.4667 7.598 10.4667 3.395 0 5.294-2.0606 5.981-3.516v3.0312h9.336Zm51.165-5.1729c0 1.7789-1.536 2.5464-2.547 2.5464-2.06 0-3.111-1.4554-3.111-3.8395V13.4567c0-2.2229 1.495-3.1516 2.99-3.1516 1.294 0 2.668.9695 2.668 2.828v11.8415Zm9.335 5.1729v-.4439c-1.737-.2833-1.94-1.1319-1.94-2.4653V1.2116h-9.618v.525c1.98.2425 2.223.3236 2.223 1.4146v7.4355c-.727-.848-2.384-1.5763-4.527-1.5763-4.445 0-9.052 3.4767-9.052 11.1552 0 7.113 3.111 10.4667 7.598 10.4667 3.394 0 5.294-2.0606 5.981-3.516v3.0312h9.335Zm-49.669-3.071v-9.5788c-.404 2.1428-3.516 2.6276-3.516 6.3451v.1623c0 1.8187 1.253 3.1521 2.829 3.1521.202 0 .445-.0409.687-.0807Zm18.631-11.7205v11.1551c0 1.9795.566 2.7878 2.304 3.1925v.4439h-11.357v-.4439c.728-.1618 1.657-.6879 1.657-2.4653V12.3651c0-1.3334-.484-2.2631-1.778-2.5055V9.415h9.336c-.162 1.9402-.162 3.2736-.162 5.9409Zm8.649-2.4652c0 2.182-1.819 3.9206-4.001 3.9206-2.183 0-3.961-1.7386-3.961-3.9206 0-2.1418 1.778-3.8804 3.961-3.8804 2.182 0 4.001 1.7386 4.001 3.8804Zm-93.236 14.1857v-9.5788c-.404 2.1428-3.517 2.6276-3.517 6.3451v.1623c0 1.8187 1.254 3.1521 2.829 3.1521.202 0 .445-.0409.688-.0807Zm-94.611-11.1137c0-4.2835 4.123-6.9524 9.295-6.9524 1.617 0 3.153.2832 4.527.7686.566.0806 1.091.0806 1.616.0806 2.021 0 3.88-.4037 5.699-1.212v3.516h-.242c-1.051-.1215-3.88-1.0104-5.861-1.8192 2.102 1.2533 3.476 3.1526 3.476 5.6184 0 4.3645-4.122 7.0717-9.215 7.0717-4.768 0-9.295-2.3025-9.295-7.0717Zm4.486 6.1026c-.363.323-.646.7675-.646 1.3334 0 .646.363 1.2523 1.859 1.2523l7.921.0816c5.213.0404 6.749 2.9496 6.749 5.3745 0 6.345-7.274 8.892-12.488 8.892-6.628 0-8.972-1.981-8.972-4.3248 0-1.4146 1.415-2.8689 4.325-2.8689.404 0 .768.0398 1.212.0806l.04.1204c-.687.5665-1.131 1.4151-1.131 2.304 0 1.6978 1.616 3.4359 5.9 3.4359 4.244 0 6.911-1.7381 6.911-3.6783 0-1.6166-1.132-2.3034-4.082-2.4249l-5.981-.2827c-4.365-.2021-6.022-2.304-6.022-4.7284 0-1.6978 1.415-3.9212 3.961-4.7698l.444.2031Zm50.478-5.1336c-2.303-1.6569-4.203-3.9599-4.203-7.0314 0-5.2949 4.688-9.0935 11.477-9.0935 2.951 0 5.739.6874 7.598 1.3737l-.201 6.8298h-.809c-2.061-4.485-3.475-6.9099-6.547-6.9099-2.344 0-4.082 1.5763-4.082 4.0819 0 1.6967 1.132 3.1112 2.748 4.2839l4.325 3.1919c3.314 2.425 5.375 4.285 5.375 7.6387 0 5.8603-5.658 9.2956-11.437 9.2956-3.638 0-7.033-1.0507-8.69-1.9805l-.323-7.7187h.808c2.506 5.3744 4.649 8.4056 8.043 8.4056 2.263 0 4.041-1.4135 4.041-4.0819 0-2.0606-1.576-3.5154-3.637-5.0111l-4.486-3.2741ZM58.735 23.4391c-1.0916 3.8395-4.1222 7.1534-9.5788 7.1534-6.2236 0-9.6181-4.5672-9.6181-9.8605 0-6.6691 4.041-11.7216 10.6693-11.7216 4.8499 0 8.4873 2.9909 8.4873 8.892v.8083H47.3783c0 5.3341 2.5867 7.4361 5.4561 7.4361 1.9396 0 3.9604-.7277 5.4561-2.9103l.4445.2026Zm162.79 4.6075c-1.375 1.4549-3.476 2.5857-6.103 2.5857-2.546 0-3.88-1.1711-4.162-2.9097-1.052 1.6166-2.749 2.8699-5.295 2.8699-3.233 0-5.497-2.182-5.497-5.254 0-3.6778 2.506-5.0112 6.507-6.0619 3.233-.8486 4.406-1.981 4.406-4.4457v-.1618c0-2.5458-2.062-4.2028-4.609-4.2028-.605 0-1.252.0807-1.898.2827 1.859.1613 3.395 1.6973 3.395 3.5563 0 2.0213-1.658 3.5971-3.719 3.5971-1.939 0-3.435-1.536-3.435-3.4756 0-3.3548 4.566-5.4164 9.618-5.4164 4.891 0 7.962 1.9402 7.962 5.5373 0 .0408 0 4.7692-.081 12.0027 0 .8486.404 1.5365 1.294 1.5365.364 0 .849-.1214 1.374-.4046l.243.3643Zm65.956 0c-1.374 1.4549-3.476 2.5857-6.103 2.5857-2.546 0-3.879-1.1711-4.163-2.9097-1.05 1.6166-2.748 2.8699-5.294 2.8699-3.233 0-5.496-2.182-5.496-5.254 0-3.6778 2.505-5.0112 6.507-6.0619 3.233-.8486 4.405-1.981 4.405-4.4457v-.1618c0-2.5458-2.062-4.2028-4.607-4.2028-.607 0-1.253.0807-1.9.2827 1.859.1613 3.395 1.6973 3.395 3.5563 0 2.0213-1.657 3.5971-3.718 3.5971-1.94 0-3.436-1.536-3.436-3.4756 0-3.3548 4.567-5.4164 9.62-5.4164 4.889 0 7.961 1.9402 7.961 5.5373 0 .0408 0 4.7692-.081 12.0027 0 .8486.404 1.5365 1.293 1.5365.363 0 .849-.1214 1.374-.4046l.243.3643ZM34.1223 30.1475h-5.9812l-5.6179-17.3379c-.6057-1.8187-1.2931-2.6673-2.1417-2.95V9.415h12.6498v.4445c-2.1826.3638-3.0312 1.2124-2.425 3.1929l3.8395 12.6498 3.1521-11.3562c.2832-1.0507.4445-1.859.4445-2.6275 0-1.3742-.9293-1.6967-2.1014-1.859V9.415h6.4262v.4445c-1.1319.4047-1.9402.9706-3.072 4.3242l-5.1729 15.9637Z" fill="#1E1E1C"></path>
        <path d="M158.5 23.3Zm0 0Zm.1-1.2V22l-.2-.1c-.1 0-.2 0-.1.1 0 .1.1.2.3.2Zm-13-6.2-.5-.2-.7-.1h-.3l.5.3h1Zm5.8-2.2.1.2h.2l.5-.2c.4-.1.9-.2 1.3 0h.1s.1 0 0-.1v-.1h-.4l-.5-.1c-.4 0-.8 0-1.1.2l-.2.1Zm8.1 2.9v-.4c0-.2-.3-.2-.4 0l-.1.4.5.5.2.1.4.3c.2.1.2.3.3.5v.1c0-.1.1-.3 0-.4l-.2-.4a1 1 0 0 0-.4-.3 1 1 0 0 1-.3-.4ZM157 28l-.1.2-.4.2h-1.4l-.5.2c0 .2-.1.3 0 .4 0 .1.2.2.3.1.1 0 .2 0 .2-.2l.4-.2h.4l.6-.1.2-.2.3-.2V28Zm-3.6-9.2v.3l.2.5v.3c.3.3.5.6.6 1l.4.7c-.1.2-.2.4 0 .7v-.1c0-.2 0-.4.2-.5v-.3c0-.3-.2-.6-.4-.8l-.4-.7-.3-.6c0-.2-.2-.4-.3-.5Zm7.6-6.5h-2c-.5 0-1 0-1.4.2l-1 .2-1.4.4-1.2.5h-.2v.2l.3.2.2-.1.4-.2a18.9 18.9 0 0 1 1.7-.7c.4 0 .7-.2 1-.3a9.7 9.7 0 0 1 3.3-.4h.2Zm-2.6 9.4.3.1h.2c.3-.1.4-.5.3-.7l-.1-.2v-.4l.2-.3.6-.5c.2-.2.4-.4.5-.8v-.3l-.1.1-.1.3-.4.4-.6.4-.7.8c-.1.3-.2.5-.1.8v.3ZM145.8 9.4a12.1 12.1 0 0 1-3.6-5.1h-.1l-.1.3V5l.5.9.8 1.3.8 1 1.2 1 .3.2h.2Zm0 26.1.1-.5c0-.2 0-.4.2-.6l.3-1 .4-.9.2-.6c0-.4.2-.7.3-1l.2-.5v-.2l.1-.2v-.4l.2-.1V29h-.2l-.1.3h-.2c-.2-.2-.3-.5-.3-.8v-.3l-.2-.2v3l-.4 1.4-.2.9-.3 1-.2.8v.2l.1.1Zm-3.1-24.4v.5l.3.4h.1v.4c.1.3.2.4.5.4h.6l.4-.2 1-.5-.1-.1-.6-.2-.8-.5a5.6 5.6 0 0 1-1.3-.8 3.1 3.1 0 0 1-.7-.8c-.1.1 0 .2 0 .4 0 .1 0 .3.2.4l.4.6Z"></path>
        <path d="M146.6 11.2v-.1l-1-.7-1.5-1-.9-.8-.5-.7-.7-1.3c-.2-.5-.2-.9-.1-1.3l-.1-.5-.1-.2-.2.3c-.2.5-.2 1 0 1.4 0 .5.3.9.5 1.3l.1.2c-.1.2-.1.2 0 .4 0 .2 0 .4.2.5l.5.5.6.5 1.2.8 1.4.6.6.1Zm3 1.9v-1.2l-.1-1-.3-.8a18.8 18.8 0 0 0-.8-1.8l-.6-1-.3-.4v.2l.3.7.2.8v.8l-.1 1.1-.3.6c0 .2-.2.4-.4.6h.1l1 .4 1 .7.2.2.1.1Zm-1.8 8.7c-.2 0-.3.2-.4.3l-.6.5c-.3.2-.2.2-.5 0h-.1a7 7 0 0 1-.4-.5l-.5-.9h-.2l-.4.6c-.3.3-.4.6-.6 1l-.3.7s-.1.1 0 .2l.1-.1h1.1c.4.2.7.2 1 0l.7-.3h.5l1-.1.6-.3.4-.2c.4-.3.6-.6.8-1v-.1h-.2l-.4.1h-1.6ZM145 38.3l-.3.2h-.7l-.9.1-.1.1v.3l.1.1h5.2l.1-.1v-.1c0-.2 0-.2-.2-.3h-.6c-.1-.2 0-.4-.2-.5h-.9c-.3 0-.5-.2-.7-.4l-.2-.3v-.1l-.1-.4v-.2c0-.2-.2-.3-.4-.3h-.1l-.3-.1V36l.3-.5.4-1.4.2-1 .1-.8.2-1a40.7 40.7 0 0 0 .2-.8V30c-.2-.1-.2-.1-.2 0v.1l-.7 1.3-.2.7a98.2 98.2 0 0 0 0 1.2v.6l-.3.8c0 .3-.1.5-.3.8v.1c-.2.1-.2.3-.3.4v.7c.3.3.4.5.4.8 0 .2.2.3.3.5l.2.3ZM143.2 13s-.1.1 0 .2c0 .3.2.6.5.7-.2.2-.3.4-.3.7 0 .2 0 .5.2.7h2.2v-.4l-.1-.5.8-.2-.1-.1h-.5l-.7-.2-.1-.1-.2-.3v-.2l.6-.3.6-.1.3-.1h.3l.4.6.2.7.2.6v.5h.5c.4-.2.8-.2 1.2 0 .2 0 .3.2.5.3h.2l-.6-1-.8-1.2-.8-.8h-.1l-1-.4h-.3l.2.2h-.2c-.2 0-.4 0-.5.2-.2 0-.4 0-.6.2a6 6 0 0 1-1.2.4l-.8-.1Zm-.2 2.6-.4.1-.1.3v.3c0 .2.2.4.3.5.2.4.4.7.8 1l-.3.2c-.2.2-.5.3-.8.2h-.2c-.2-.1-.3-.1-.4 0l-.2.2c-.2.2-.2.4-.2.6v.3c0 .1 0 .3-.2.5 0 .1.1.2.3.2h.3l.5-.1h.2l.1-.1v-.4h-.8l-.2.1c0-.2 0-.5.2-.7l.4-.2.5-.1.6-.2v.7c0 .2.1.4.3.5v.4c-.2.3-.2.5 0 .7l.4.3h.2l.1-.1.7-.3c.2 0 .2 0 .3-.2l.4-.6.4-.5c.2 0 .2-.2.2-.3v-.5l.2-.4c0-.2.1-.3.2-.3v-.1c-.3 0-.4 0-.6-.2a.9.9 0 0 0-.6-.2h-.2c.2-.2.3-.2.4-.1l.5.2.4.1h.2l.2-.2v.6l.1.5.2.3.2.4.3.2v-.3l-.4-.5v-.2c-.1-.2-.2-.4-.1-.7v-1.3l-.2-.2h-.2v.1l.1.2h-.4c0-.1-.2 0-.2 0v.1h.2l.4.1c0 .2 0 .2-.2.2h-.5l-.1.1v.1h.4l.2.1v.1h-.5a1 1 0 0 1-.4-.2l-.2-.1h-.2l-.7.3-.5.3h-.4l-.5-.4-.5-.8v-.6Z"></path>
        <path d="M149.6 10.3V10l-.3-1-.7-1.4-.5-.7-.5-1-.3-.4-.5-1-.3-.6-.2-.6-.2-.3-.4-1-.1-.5-.2-.4-.4-.7a1 1 0 0 0-.4-.4h-.2c-.1 0-.3 0-.4.2-.2.2-.4.4-.4.7v1l-.1.2a1 1 0 0 0-.7-.2c-.2 0-.3 0-.5.2v.2a2.2 2.2 0 0 0 0 1.6c0 .3.2.5.3.8l.6 1.2a28 28 0 0 0 2.3 3l.5.5.9.6h.1v-.1l-.3-.3-.4-.3-.3-.4-.8-.8-.4-.5-.7-.9-1-2-.3-1.2v-.7l.1-.3.3-.1.2.2.3 1.1a10.1 10.1 0 0 0 2.8 4.6l.3.3.5.4c0-.3-.3-.5-.4-.7l-.7-1-.4-.6-.6-1.1-.6-1.3V4l-.2-.4-.2-.6-.2-.8V.8h.4l.3.2.4.8.6 1.4.4.7.7 1.4.7 1 .6 1 .6 1 .3.6.6 1.4ZM146 29.6v-.9l.1-.3v-.3c-.2-.4-.2-.7-.2-1 0-.7 0-1.3.2-2l.3-.3.4-.1.2.1.1.5.4 1.9v1.5l.2-.1.2-.5.2-1.2.1-.8V24l.4-.4v-.2l-.3.2-1.2.6-1 .5h-.2l-.7.2a8.8 8.8 0 0 0-1.3.4h-.9l-.5-.3c-.2-.1-.2-.2-.1-.3h.2l.3.1.6.2c.3 0 .7 0 1-.2h.3l.7-.2c.3 0 .5-.2.8-.3h.3c.4-.3.8-.4 1.3-.6l.9-.6-.5.2c-.3.2-.6.3-1 .2l-.5.1-.6.3h-.3l-.2.1a1 1 0 0 1-.7 0h-.6a2 2 0 0 0-.4 0h-.6a.6.6 0 0 1-.4-.2v-.3c0-.3.2-.6.3-.8v-.2l.4-.4.6-.8v-.1h-.2c-.4.4-.8.8-1 1.2l-.1.1h-.1c-.4 0-.8 0-1.1.3a4 4 0 0 0-.8.7l-.3.3-.5.2h-.2l.2.1.6.2.4-.1.3-.1.4-.2.4-.4-.3 1-.2.1a2.9 2.9 0 0 0-1 .8l-.6.5-.1.3v.6c.1.3.1.4.4.4v.1c.1.2.3.3.5.1v-.1l.4-.3c.1 0 .3-.2.3-.4l.2-.4s0-.2.2-.2v.2c0 .2.2.3.3.3l.3.1h.4l.2-.2a143.4 143.4 0 0 0 1.2-.9h.7c0-.1 0-.1 0 0 .1 0 0 0 0 .1v.8l.3 1.5.1.2.1.3v1l.2.2Zm4-6.2v-.3h.6l.5-.1.5-.2c0 .1 0 .2-.2.2a3 3 0 0 1-.7.3l-.4.1h-.2Zm6.8.1v-.3c-.1-.2-.3-.3-.5-.3h-.6l-.8-.1-.3-.1h-.1l-.2-.7-1-1.8-.2-.3a2 2 0 0 1-.3-.5V19h-.1l-.5.2-1.2.3h-.1c-.3.2-.7.3-1 .3h-.3v.1h.1c.3.1.7.2 1 .1.2 0 .3 0 .3.3l-.1.3-.6.7-.2.1c0 .2.1.2.2.2h.4v.3l-.3.2v.2h.6l.6-.2s0-.1.1 0l-.3.3c-.4.2-.8.4-1.2.3-.3 0-.3 0-.3-.2v-.1c-.3 0-.4.2-.3.4h.1v.7l.3.3h1.2c.3-.1.6-.3.7-.5l.2-.3.3-.9v-.6l-.2-.3v-.4l.3-.2.1.1.5.9.9.9.1.2v.2c.2.3.2.3.5.3h.3l.6.2.4.1.2.2a10.8 10.8 0 0 0 1.6.3v.5l-.1.2-.2.2c-.2.3-.2.7-.2 1l.2.7c.1.4.2.8.1 1.2v.1h.2l.1-.2.1-.5v-1.4c-.1-.3 0-.4.2-.5l.2-.2c.1 0 .2-.2 0-.4l.2-.3v-.3h.2l-.1-.3h.3c.2 0 .2-.1.1-.3v-.1c.2 0 .2-.2.1-.2l-.2-.2h-.4v-.3h.4c.1-.1.2-.2 0-.3l-.4-.2c-.1-.1-.3 0-.4 0l-.1.2-.3.3-.1.4v.3c0 .1 0 .2-.2.2h-.6Zm10.4-8.7c0-.2 0-.3-.2-.4a4 4 0 0 0-.4-.3l-.4-.2-1-.5-.7-.2h-.3l-1.3-.4h-2.5l-.9.1-1 .2-1 .3-1.7.5-1 .3c-.4.1-.7.2-1 0h-.7v.2h.3l.6.3h-.6l-.6.1a.8.8 0 0 1-.6-.3l-.2-.2h-.2v.3l.1.6c-.2 0-.3-.2-.4-.3l-.5-.9c-.2-.2-.3-.5-.3-.8V13l-.1-.1h-.1v.1c-.2.1-.2.3-.2.5v1h-.1l-.3-.3h-.1v.7l.3.4.1.2.1.3v.2c.1.3.1.6 0 .8 0 .3 0 .6-.2.9l-.5.6v.1l.2-.1.2-.2V18l.4-.2h.3c.1 0 .3 0 .4.2l.2.3h.7c.3-.1.6 0 .9.2h.2l.7-.7.2-.2h.5c.4 0 .7 0 1-.2 0 0 .2 0 .2-.2v-.1h.8l.8-.4.2-.2v-.1h.5c.4 0 .7-.2.9-.5h1.1l.4-.3c.1 0 .2 0 .2-.2l.9.1h.6c.2 0 .2 0 .1-.2v-.1h1.3a8.4 8.4 0 0 0 .8 0c.1 0 .2-.2.1-.3v-.1h-.1 2.9Zm-13.6 1.6h-.3l-.1.2-.2.2v.2l-.2.1v.3h-.3l-.3-.2a14.5 14.5 0 0 1-.9-1.2c.2-.2.4-.2.7-.2h.3l1-.2h.1l.1.1v.7Z"></path>
    </g>
</svg>