<svg xmlns="http://www.w3.org/2000/svg" viewBox="0 0 643 62">
    <path d="M.3 1.6l2.5.5c5.9 1.1 6.6 4.6 6.6 7.8v40.7c0 3.3-.8 6.6-6.6 7.8l-2.5.5v1.3h29v-1.3l-2.5-.5c-5.8-1.2-6.6-4.5-6.6-7.8V9.9c0-3.2.8-6.7 6.6-7.8l2.5-.5V.3H.3v1.3M589.6.3v20.1h1.2l3-7.4c3-7.4 6-11.4 13.8-11.4h3.2v49c0 3.2-.7 7-6.6 7.9l-2.5.4v1.3h29v-1.3l-2.6-.4c-5.8-1-6.6-4.7-6.6-8V1.7h3.2c7.8 0 10.9 4 13.8 11.4l3 7.4h1.2V.3h-53.1m-25.9 1.3l2.4.3c4.4.6 8.5 2.8 8.6 14.2l.2 27.3-23.2-27.5c-7-8.2-9.8-11.7-11.8-15.4l-.2-.2h-21.2v1.3h.4c4.4.8 7.1 2.6 11.7 7.6l.9 1v31.4c0 13.4-4.2 15.6-9.3 16.9l-1.8.4v1.3h23.8v-1.3l-1.7-.4c-4.5-1.2-9.2-2.5-9.3-17l-.3-29.8 42 49.6.2.1h1.3V16.1c0-11.4 4.3-13.6 8.6-14.2l2.3-.3V.3h-23.6v1.3M320.2 49.4c-4 6.9-8.9 9.4-18 9.4h-2.6c-5 0-7.3-2.5-7.3-8V30l3.7.1c9.1.2 11.6.6 14.5 9.4l1 3.2h1.3V15.8h-1.3l-1 3.3c-2.8 8.8-5.5 9.2-14.5 9.4h-3.7V1.7h6.4c10.8 0 15.6 2.3 19.2 8.9L322 18h1.2V.3h-50.7v1.3l2.5.5c5.5 1 6.6 3.7 6.6 7.6v40.9c0 3.2-.8 7-6.6 7.9l-2.5.4v1.3h53V42.5h-1.2l-4.1 7m189.6 0c-4 6.8-8.9 9.3-18 9.3h-2.5c-5.1 0-7.4-2.5-7.4-8V30l3.7.1c9.2.2 11.7.6 14.5 9.4l1 3.2h1.3V15.8H501l-1 3.3c-2.8 8.8-5.5 9.2-14.5 9.4H482V1.7h6.5c10.7 0 15.5 2.3 19.2 8.9l4 7.4h1.2V.3h-50.7v1.3l2.5.5c5.5 1 6.6 3.7 6.6 7.6v40.9c0 3.2-.7 7-6.6 7.9l-2.5.4v1.3h53V42.5H514l-4 7m-391.4 1V1.6h7.6c15.2 0 24.2 10.7 24.2 28.6 0 18.2-8.5 28.6-23.4 28.6h-2c-5.4 0-6.5-3.3-6.5-8.3M128.7.3H75.2v1.3l2.4.3c5.4.8 8.5 3 8.6 12.5l.2 29-23.2-27.5C56.4 8 53.4 4.2 51.4.5l-.2-.2H30v1.3h.4c4.3.8 7 2.6 11.7 7.6l.9 1v31.4c0 13.4-4.3 15.6-9.4 16.9l-1.7.4v1.3h23.8v-1.3l-1.7-.4c-4.5-1.2-9.2-2.5-9.3-17l-.3-29.8 42.2 49.7h1.3V13c0-7.5 3.3-11.3 10-11.3 6.5 0 9.9 3.8 9.9 11.3v37.6c0 3.5-.8 6.9-6.7 7.9l-2.4.4v1.3h30c10.3 0 19-3.2 25-9.3a29.3 29.3 0 008.5-21c0-8-3-15.4-8.5-20.7a35 35 0 00-25-9m288.6 50.3V1.6h7.6c15.2 0 24.2 10.7 24.2 28.6 0 18.2-8.5 28.6-23.4 28.6h-1.9c-5.4 0-6.5-3.3-6.5-8.3M427.5.3H374v1.3l2.4.3c5.4.8 8.5 3 8.6 12.5l.2 29L362 15.9c-7-8.2-9.8-11.7-11.8-15.4l-.2-.2h-21.2v1.3h.4c4.4.8 7.1 2.6 11.7 7.6l.9 1v31.4c0 13.4-4.3 15.6-9.4 16.9l-1.7.4v1.3h23.8v-1.3l-1.7-.4c-4.5-1.2-9.2-2.5-9.3-17l-.2-29.8 42 49.6.1.1h1.3V13c0-7.5 3.3-11.3 10-11.3 6.5 0 10 3.8 10 11.3v37.6c0 3.5-.9 6.9-6.8 7.9l-2.4.4v1.3h30c10.3 0 19-3.2 25-9.3a29.3 29.3 0 008.5-21c0-8-3-15.4-8.5-20.7a35 35 0 00-25-9M248 .3h-25.9v1.4l2.5.5c5.8 1.1 6.6 4.4 6.6 7.7v40.8c0 3.4-.8 6.6-6.6 7.8l-2.5.5v1.3h30V59l-2-.4c-6.8-1.4-8-2.8-8-8.7V1.7h2.5c9.2 0 14.7 6.2 14.7 16.6 0 10.5-5.5 16.7-14.7 16.7h-.7v1.5h4.1c13.5 0 23-7.5 23-18.2 0-10.6-9.5-18-23-18m-37 49.1c-4 6.8-8.9 9.4-18 9.4h-2.6c-5 0-7.3-2.5-7.3-8V30l3.7.1c9.1.2 11.6.6 14.5 9.4l1 3.2h1.2V15.8h-1.2l-1 3.3c-2.8 8.8-5.5 9.2-14.5 9.4h-3.7V1.7h6.4c10.7 0 15.6 2.3 19.2 8.9l4.1 7.4h1.2V.3h-50.7v1.3l2.5.5c5.5 1 6.6 3.7 6.6 7.6v40.9c0 3.2-.8 7-6.6 7.9l-2.5.4v1.3h53V42.5H215l-4.1 7" fill="#1C1B19"></path>
</svg>