<svg data-uid="6050add3a0e25567"
    xmlns="http://www.w3.org/2000/svg" viewBox="0 0 2000 991.4">
    <g transform="translate(-80, 0)">
        <svg xmlns="http://www.w3.org/2000/svg" viewBox="0 0 991.4 991.4">
            <path fill="#e30d24" d="M495.7 0a495.7 495.7 0 1 0 0 991.5 495.7 495.7 0 0 0 0-991.5"></path>
            <path fill="#fff" d="M782.4 689.2c-9.8-5.5-6.8-3.7-54-31.7 0 0-36 6.9-82.7 17a16.4 16.4 0 0 1 2 .8 15.2 15.2 0 0 1 2 1.5 14.7 14.7 0 0 1 2 1.8 15.4 15.4 0 0 1 2.5 4.4 14.5 14.5 0 0 1 .5 2.3l.2 1v1a6.8 6.8 0 0 1-.2 1.9 4 4 0 0 1-.3 1.2l-.4 1h-1.2a7.8 7.8 0 0 1-.3-1 9.8 9.8 0 0 0-.3-1.2l-.5-1.3a14.2 14.2 0 0 0-.7-1.5l-.8-1.6-1-1.6-1.1-1.6c-.3-.6-.9-1-1.4-1.4l-1.4-1.3c-.5-.5-.9-.8-1.4-1a15.4 15.4 0 0 0-1.4-1 10.7 10.7 0 0 0-1.2-.7 9.6 9.6 0 0 0-1-.5l-10 2.2a4.8 4.8 0 0 1 .9.2 17.7 17.7 0 0 1 2.1 1 12.3 12.3 0 0 1 2.1 1.4 15.1 15.1 0 0 1 1.9 1.8 17 17 0 0 1 1.5 2.2 14.7 14.7 0 0 1 1 2.2 17.7 17.7 0 0 1 .5 2.3v2a7.6 7.6 0 0 1 0 1.8 5.4 5.4 0 0 1-.4 1.3 10.8 10.8 0 0 1-.4 1h-1.1l-.4-1a7.7 7.7 0 0 0-.3-1.2l-.5-1.3-.7-1.5-.8-1.6a18.6 18.6 0 0 0-1-1.6l-1.1-1.6c-.3-.6-.9-1-1.3-1.4l-1.4-1.3c-.4-.5-1-.7-1.5-1a16.5 16.5 0 0 0-1.3-1l-1.3-.7a9 9 0 0 0-1-.5l-.7-.4-26.6-22.6 1-6.8-2.8-15.8 2.7-6.8v-22.6l-29 25.9-.8-.8 85.1-100.1-.7-1.8-24.9-4.4.1-1.2h44.6c4.6 5.8 14.5 7.4 21.7 5.4l.3-1-9-14.4 3.7-2.5c3.6-2.1 6.8-1.2 10.3 3.9 3.3 4.8 4.9 11 1 14.8l.7 1a22.8 22.8 0 0 0 14.8-8.4c5-6.6 4.2-16.7-2-24-5.3-6-14.8-15.5-14.8-15.5 1-11.4-5-21.3-16-25.8-24-9.6-42.3-16.5-42.3-16.5l-57.9-.1-.2-1.3 57.6-6.8 17.3-15.2 65.4-26.1a15.4 15.4 0 0 0 9-9.5c8.5-23.3 34.6-93.1 34.6-93.1L848.7 178l-.6-1-53 37.8-.7-.8 22.5-45-1-.6-34.7 49.8-1-.4 4-49.7-1.2-.3-12.6 50.6h-1.2l-20.4-50.7-1.2.4 15 60.4-1.8 28.4-1.1.1-3.3-25-35.7-60.7-1 .6 28.7 64.2 2.2 47.3h-1.2l-6.2-44.1-46.8-59.3-.9.7 40.4 62 2.6 65-1.1.1-8.2-61.5-52-54.4-.9.8 44.2 57.7 5.2 74.8h-1.2l-11.9-71-54-46.3-.8.9 46.7 50.5 8 78-1.2.3-15.8-73.5-54.7-37.3-.7 1 46.8 41.4 12.7 77.2-1.2.3-20.3-72.1-52-28.5-.7 1 44.6 32.6 14.6 74.8-1.1.3-23.3-68.6-48.9-18.6-.5 1.2 41 23.3 17 68.3-1.1.4-25.9-61.3-46.3-8.4-.3 1.2 38.3 13.7 19.7 59.6-1 .5-29.6-50.8-38.9-3.2-.2 1.2 30.5 10 23 48.2-1 .7-32-38.8-35.2 2.1-.1 1.2 28 5.2 25.5 37.5-.8.8-33.3-27.5-37.6 8.4.2 1.3h30.8l28.3 26.7-.6 1-34.3-16-39.3 6v1.3l35 1.4 29.7 18.8-.4 1.1-32.7-11.2-52.8 10 .1 1.2 49.5-1.1 30.2 13.9-.4 1-31.6-7.4-79.7 13.4v1.1l62.5 4.8.2 1.1-50.1 9v1.1l34.2 2v1.2L490.2 453h.2-.2l16.7 21.8-1 1-38-32.3-98.2-136.2-89.3-45.8-70.9-63.8L188 139l-1.2.3 7.8 66.3 34.4 55.2-1 .8-50-41.5-23.8-46-1.3.3 8.4 54 24.4 44.3-.8.7-39.8-32.4-20.6-30.9-1.2.5 9.6 41.8 25.4 37.4-.8.8-39.5-22.7-17.4-22-1.2.6 11.3 32.5 18.3 23-.6.8-18.2-3.5-.5 1.2 38.8 36.4-.4 1.1-33.7-2-.3 1.7 48.2 29.8-.2 1.1-22.4 1.8-.1 1.2 55.8 21.3v1l-21.8 7.6.2 1.3 134.7 9.9v1l-75 .6-1.5 15.4 94-1.5v1.2l-67.3 7.2-3 18.3 91.5-12.6.3 1.1-71.4 16.4L275 481l94-25.8.4 1.2-77.5 30.3.4 19.3 95-39.5.4 1-76.6 41.3 2.6 19.8 93-47.3.6 1-76 48.2 4.3 16.8 89.7-49.3.6 1-69.6 46.5 6.7 17.9 74-44.2.7 1-48.6 36 8.5 17 36-22 .6.8-13.5 11.7 6.7 13.5 8-2.9 11.3-4 6.2-2.3c1-.3 2-.9 3-1.3s2-1 3-1.6a41.8 41.8 0 0 0 5.4-4l1.3-1 1.1-1.2a29.1 29.1 0 0 0 2.2-2.4c.8-.7 1.4-1.6 2-2.4l1.8-2.4c.6-.8 1-1.7 1.4-2.5l1.3-2.4a41.7 41.7 0 0 0 1.7-4.3c.5-1.3.8-2.5 1-3.5l.6-2.3.2-.8 1.2.2v.8l-.4 2.4c-.1 1-.4 2.3-.9 3.7a45 45 0 0 1-1.4 4.7l-1.1 2.6-1.3 2.7c-.4 1-1.1 1.8-1.7 2.8l-1.9 2.8-2.1 2.7-1.2 1.3-1.3 1.2a46.2 46.2 0 0 1-5.6 4.8l-3 2-3.3 1.8a4341.3 4341.3 0 0 1-17.4 7.6L334 618.7 266.2 725l4 2.7 75.6-87.8 1 .7-45 66.2 27.6-4.3L371 641l1 .6-30.3 59.6 26-1.7 28.1-57.6 1.2.5-19.1 56.5 26.3-1.8 16.4-54.1 1.3.2-9.2 53 26.8-5.2 5.8-48.7h1.3v46.3l19.9-11.2-3-35 1.2-.2 7 32 7.1 4 5.3 14.4 7.8 2.7 15.8 12.8 6 4.8-.1.3-.4.7-10.3-4.5a3611.7 3611.7 0 0 0-114.5 33.4h.2l38.7 22.2 19 11 8.8 5 2.1 1.2 1 .5.5.3.3.1v.1l.3.2a22.3 22.3 0 0 1 3.6 2.9 16.3 16.3 0 0 1 4.3 7 16 16 0 0 1 .4 6.3 16.5 16.5 0 0 1-1 3.8l-.5 1.3-1.3-.5.4-1.3a16.4 16.4 0 0 0 .5-3.5 13.1 13.1 0 0 0-.7-5.4 14 14 0 0 0-4-5.6 16.5 16.5 0 0 0-3.4-2.3l-.3-.2-.6-.2-1-.4-2.2-1c-3-1.3-6-2.7-9.3-4l-20.1-9-12.9-5.6-29.7 9.5c-12.7 4-11.9 21 .1 25.4a2016.1 2016.1 0 0 0 54.1 19.8 47 47 0 0 0 39.6-2.6l47.5-21.6c33.7-17.9 81.2-56.1 81.2-56.1l.8.8-37 35.3c25.1-11.3 49.5-21.9 65.7-28.4a443 443 0 0 0 55.1-33.2l.8.8-25.4 23c28.8-5.5 76.1-10 101.7-10 34 .1 34.7-29.2 16.7-39.2zm-86.1-202c4.5 4.4 9.2 8.6 13.8 13a18.5 18.5 0 0 1 1.4 1.9 10.2 10.2 0 0 1 .7 1l.5 1a14.7 14.7 0 0 1 .9 2.1 11.8 11.8 0 0 1 .4 2.2 11.3 11.3 0 0 1 .2 2.3 8.3 8.3 0 0 1 0 1.1c0 .4-.2.8-.3 1.1a12.5 12.5 0 0 1-.7 2.2c0 .3-.3.7-.5 1l-.5.9-1-.6.4-1a5.7 5.7 0 0 0 .4-.9 11.7 11.7 0 0 0 .4-1.9 8 8 0 0 0 0-1v-1a10.2 10.2 0 0 0-.3-1.9 9.6 9.6 0 0 0-.7-1.8 10.6 10.6 0 0 0-.9-1.7 6.7 6.7 0 0 0-.5-.8 9.4 9.4 0 0 0-.6-.8 15.3 15.3 0 0 0-1.3-1.3c-5-3.7-10-7.6-15.2-11.3zM669 475a6.3 6.3 0 0 1 1-2.6 4.2 4.2 0 0 1 .3-.4 3 3 0 0 1 .5-.6l.9-.7a5.5 5.5 0 0 1 1.2-.7l.3-.2 1.4-.2h.3l.8 1.5-.2.2a9.2 9.2 0 0 1-1 .9.7.7 0 0 1-.1.3l-.3.5-.3.5a.9.9 0 0 1 0 .3 2.7 2.7 0 0 1-.2.4 1 1 0 0 0 0 .3 1.8 1.8 0 0 1 0 .3 2.4 2.4 0 0 0 0 .5v.2a1.5 1.5 0 0 0 0 .6 2.2 2.2 0 0 0 .2.7v.2l.4.5a.8.8 0 0 0 .2.4.7.7 0 0 1 .3.3 1.7 1.7 0 0 1 .5.4h.2l.4.3a4.3 4.3 0 0 0 1.3.3 4.2 4.2 0 0 0 1.3-.2l.6-.2.2-.1.4-.3a2.2 2.2 0 0 0 .5-.4 3.5 3.5 0 0 1 .3-.3.8.8 0 0 0 .2-.3l.1-.3a2.2 2.2 0 0 0 .3-.3l.2-.6a3.3 3.3 0 0 0 .2-.7v-.4a6.6 6.6 0 0 1 0-1v-.3l1.4-.6.2.3a8.9 8.9 0 0 1 .7 1.2l.2.4a6 6 0 0 1 .3 1.3v1a4 4 0 0 1-.2 1v.3a6.5 6.5 0 0 1-1.2 2.6 7.3 7.3 0 0 1-2.4 2l-.2.3-.4.1-.2.1-.8.3a5.7 5.7 0 0 1-1.7.3h-.6a8.8 8.8 0 0 1-3.2-.7l-.4-.2a6.7 6.7 0 0 1-1.2-.8 4.8 4.8 0 0 1-.7-.6 5.3 5.3 0 0 1-.7-.7 6.4 6.4 0 0 1-1-1.6l-.4-.9v-.3l-.1-.3v-.3a6.8 6.8 0 0 1-.2-1.5 5.2 5.2 0 0 1 .4-1.5zm-1.7 33a8.5 8.5 0 0 1 1.3-2.6 7.6 7.6 0 0 1 .8-1l.4-.3.2-.2h.2l.2-.3a10.7 10.7 0 0 1 2.6-1.2 7.2 7.2 0 0 1 3.9-.2 4.8 4.8 0 0 1 1.2.3l1 .4a10 10 0 0 1 .8.6 8.6 8.6 0 0 1 .8.6l.6.7.5.6a4.6 4.6 0 0 1 .2.5l.4 1-.9.8a10 10 0 0 1-.9-.6 4.2 4.2 0 0 0-.4-.2l-.5-.2a6.3 6.3 0 0 0-1.1-.3 3.6 3.6 0 0 0-1-.2h-.4a1.8 1.8 0 0 0-.7 0h-.8a7 7 0 0 0-1.4.5 6 6 0 0 0-1.3.6l-.2.2-.4.4a2.4 2.4 0 0 0-.5.5 8.3 8.3 0 0 0-.9 1.1c-.1.2-.1.5-.3.7a1.7 1.7 0 0 0-.2.7 7.5 7.5 0 0 0-.4 1.3 6 6 0 0 0 0 1.3v.5a3.6 3.6 0 0 0 .1.5 7.3 7.3 0 0 1 .2 1l-.7.5a8.8 8.8 0 0 1-.9-.7l-.4-.5-.4-.6-.4-.7a6.7 6.7 0 0 1-.3-.9l-.3-1v-1.1a8.9 8.9 0 0 1 .3-2.5zM221 223.1l1.5-1 39.9 53.1 65.5 31.4-.9 1.8-70.4-27.1zm-64 44.3 1.3-1.4 42.7 40.2 86.6 28-.6 1.8-91.6-23.3zm-22 23.3 1.2-1.2 46 37.4 102.4 28-.5 2-106.4-23zm8.2 55.4.6-1.8 141.7 29.2-.4 2-105-16zm151.3 49.3-74.6-6.8-37.7-11 .5-1.9 112 17.8zm3-77L222 293.3l-31.3-43.1 1.3-1.1 36.3 38.6 70.1 29zm9.6 27.1-1.3-.6.1-16.3 1.6-.2 1.8 9.8 33.3-17 .8 1.4zm4.6 25.3.2-16.3 1.6-.2 1.8 9.8 44-23.3.7 1.3-47 29.3zm14 23.2-1.4-.8.3-16.3 1.5-.2 1.8 9.9 46.5-25.2.8 1.3zm18.5 19-1.4-.6.2-16.4 1.6-.1 1.8 9.9 45.5-23.8.8 1.3zm23.2 16.5-1.2-.7.2-16.2 1.6-.3 1.8 9.9 40-20.9 1 1.3zm25 15.8-1.2-.6.3-16 1.4-.3 1.9 9.7 33.2-17 .8 1.3zm24.6 15.1-1.3-.6.3-15.6h1.5l1.8 9L443 442l.8 1.3zm20.2 15.2-1.1-.7.6-13h1.4l1.5 6.8 16.9-7.4.7 1.2zm15.3 16.4-1.2-.8 1.4-11.9 1.5.2.6 5.8 20.6-9.1.8 1.3zm12.3 37-1.1-.8 1.6-9.4h1.4l.3 3.6 9.8-4 .8 1.3zm-3.9-19.7-1.2-.8 1.5-9.4h1.5l.5 3.7 14.5-7 .8 1.2zm-56 111.1-.8-.7 2.3-4.3-4.4-1.9.2-1.1h11.4l.3 1zm32 0-.8-.7 2.3-4.3-4.4-1.9.2-1.1h11.4l.4 1zm8.4 186-11.5-4-11.5-3.8-23-7.3-.2-.1a3 3 0 0 1-2-3.9 3 3 0 0 1 2-2l23.7-6.5.4 1-15.6 8.2 16 7.1c3.8 1.6 7.4 3.4 11 5l11 5.2zm121.5-201.2-1-.6 2.1-5.9-6-1.5v-1l14-2.4.5 1zm-24.4-34.8v-1l21-7 .7.8-12.4 18.5-1-.4 1.9-10zm-9 43.2v-1.1l11.2-2 .5 1-7.7 8.4-1-.5 1.6-4.6zm.9-77.2-.1-1.1 21.3-6.2.7.9-13.1 18-1-.5 2.2-9.9zm55.2 42.7-1-.6 2-5.8-6-1.5V570l14-2.3.5 1zm17.2-54.3 2.5-5.7-5.9-2 .2-1 14.1-1.3.5 1-10.5 9.7zm18.5-62.3h11.4l.3 1-9 7-.8-.7 2.3-4.3-4.4-2zm-5.7 83.2-7.8 8.3-1-.5 1.6-4.6-4.6-1.2v-1.1l11.2-1.9zm-.7-62.2-14 10.9-.8-.7 3.8-7-7.3-3.2.2-1.1h17.8zm-26.1-28h14.2l.3 1-11.2 8.7-.8-.7 3-5.5-5.8-2.4zm-1.5 80.7L580 549.9l-1-.5 2.2-7.6-7.8-1.5V539l17.4-3.8zm-1.5-34.3.5.9-14 16.1-1-.5 3-9.2-9.5-2V506zm-7.6-25.7-14 10.8-1-.7 4-7-7.4-3.1.3-1.1h17.8zm-26.8-20.7h11.4l.3 1-9 7-.8-.7 2.3-4.3-4.5-2zm-5.1 41.7.5 1-15.4 16-1-.6 3.5-9.5-9.8-2.6v-1.1zm-35.2 93V589l17.5-3.6.5 1-11.5 13.5-1-.5 2.3-7.7zm8-119.6h17.7l.4 1-14 10.9-.9-.8 3.8-7-7.3-3zm-1 86.8-10.7 14.2-1-.5 1.8-7.8-7.8-1V561l17-4.7zm-5.4-28.5-11 13-1-.6 2.1-7.3-7.4-1.5v-1.1l16.7-3.5zm-20-25.5 14-2.3.5 1-9.6 10.4-1-.6 2-5.8-6-1.5zm-36.7 98.4-.9-.7 2.4-4.3-4.5-2 .3-1h11.4l.3 1zm9.3 25.1-.8-.7 2.3-4.2-4.4-2 .2-1h11.4l.3 1zm13-42-1-.7 3-5.6-5.9-2.2.2-1.2 14.2-.4.4 1zm8.8 23.8-.9-.7 3-5.5-5.7-2.4.3-1.1h14.2l.3 1zm13.8 20.4-.9-.7 2.4-4.3-4.5-2 .3-1h11.4l.3 1zM456 747l-3.9 1.3-3 .9-2.8.8-4 1.2-.6-1.7.3-.2 3.5-1.4 4.2-1.7 1-.4 4.3-1.7a585.6 585.6 0 0 1 11.9-4.5l1.5-.5 3-1.1c4-1.4 8.2-3 12.5-4.4a941.9 941.9 0 0 1 15.7-5l2.1-.7 5-1.5 6.6-1.7 8-2 1.8-.5 3.8-.8h.3l.6 1.7-.4.1-3.6 1.4-2.5.9-7 2.4-6.4 2.1-1.5.5-5.7 2c-5 1.7-10.2 3.4-15.5 5l-4 1.4-11.5 3.8-5.5 1.7-8.2 2.6zm122-22.5-3.9 1.3-9.3 3.3-2.1.7-6.7 2.3c-3.2 1-6.5 2.3-9.7 3.4L525 743l-13.7 5-7.5 2.7c-2.3 1-4.5 1.7-6.7 2.5l-3 1-6.2 2.3-2.6 1a650.2 650.2 0 0 1-9.4 3.3l-3.7 1.4-5 1.7-.4.1-.7-1.7.4-.2 4.9-2 3.6-1.6 9.2-3.9 1.8-.7 6.8-2.8 3.1-1.2 6.6-2.6 7.5-2.9c4.5-1.6 9-3.4 13.7-5l21.4-7.4 5-1.7 4.8-1.5 9-2.7 9.3-2.7 4-1.2 5.5-1.6.6 1.8zm-49-22 .1-1.2a11.3 11.3 0 0 1 1.2-.2 5.2 5.2 0 0 1 1.3 0 6.3 6.3 0 0 1 1.7 0h.4l.6.2a9.7 9.7 0 0 1 1 .3 15.7 15.7 0 0 1 2.2.8 13.9 13.9 0 0 1 2.1 1.4 14.9 14.9 0 0 1 2 1.8l.5.7a9.4 9.4 0 0 1 1 1.4 15.5 15.5 0 0 1 1 2.3 12.7 12.7 0 0 1 .6 2.3l.2 1v1a7.7 7.7 0 0 1-.2 1.8 4.5 4.5 0 0 1-.2 1.3l-.4 1h-1.2l-.3-1a5.8 5.8 0 0 0-.4-1.1 12 12 0 0 0-.5-1.4 11 11 0 0 0-.7-1.5 15.2 15.2 0 0 0-.9-1.6l-1-1.5-1.2-1.5-1-1a1.6 1.6 0 0 0-.3-.4l-1.4-1.3c-.4-.4-1-.8-1.5-1a16.4 16.4 0 0 0-1.4-.9l-1.3-.7-1-.5-1-.5zm34.7-9a4.4 4.4 0 0 1 .4.1 15.6 15.6 0 0 1 2.2.9 12.4 12.4 0 0 1 2.1 1.4 14.6 14.6 0 0 1 2 1.7 12.4 12.4 0 0 1 1.5 2.2 14.8 14.8 0 0 1 1 2.2 15 15 0 0 1 .6 2.3l.2 1v1a9.7 9.7 0 0 1-.1 1.8 4.7 4.7 0 0 1-.3 1.3l-.4 1h-1.1a10.7 10.7 0 0 1-.4-1c0-.4-.2-.8-.4-1.2l-.5-1.3a14 14 0 0 0-.7-1.5 16.3 16.3 0 0 0-.9-1.6l-1-1.5-1.1-1.6c-.4-.6-.9-1-1.4-1.4L564 698a17.5 17.5 0 0 0-1.4-1 17 17 0 0 0-2.7-1.6 10.3 10.3 0 0 0-1-.6 2.6 2.6 0 0 1-.4-.1l-8.6 2.1-1.2.3 1 .3a18.2 18.2 0 0 1 2.2 1 13.2 13.2 0 0 1 2 1.3 12.7 12.7 0 0 1 2 1.8 15 15 0 0 1 1.5 2.1 14.3 14.3 0 0 1 1.1 2.3 18.3 18.3 0 0 1 .6 2.3l.2 1v1a9.8 9.8 0 0 1-.1 1.7 7.5 7.5 0 0 1-.3 1.3 6.9 6.9 0 0 1-.4 1h-1.2l-.3-1a8.8 8.8 0 0 0-.4-1.1l-.5-1.3-.7-1.6-.8-1.5-1-1.6c-.3-.6-.9-1-1.2-1.5a16 16 0 0 0-1.4-1.4l-1.4-1.3c-.4-.5-1-.7-1.4-1l-1.4-.9-1.3-.7-1-.5-.9-.4-15.4-17.8-7.6-42.6 1.5-.7 29.4 35.8 10.2-.2 26.2 14.6-24.2 6zm46.6-11.1.1-1 1.2-.1a5.8 5.8 0 0 1 1.3 0 10.5 10.5 0 0 1 1.7 0h.1l.9.2 1 .3a12.4 12.4 0 0 1 4.2 2.4 10 10 0 0 1 1.5 1.4l.4.4a13.5 13.5 0 0 1 1.5 2.1 17 17 0 0 1 1 2.3 14 14 0 0 1 .5 2.3l.1 1v1a7 7 0 0 1-.1 1.8 5.5 5.5 0 0 1-.3 1.3l-.5 1h-1l-.4-1a7.7 7.7 0 0 0-.4-1.2l-.5-1.3-.6-1.5-.9-1.6-1-1.6a17.6 17.6 0 0 0-1.1-1.6l-1.3-1.4a4.4 4.4 0 0 0-.7-.6 11.4 11.4 0 0 1-.7-.7l-1.4-1-1.4-1-1.3-.7-1-.5-1-.5zm36.6 23.6-1.8.6-1.4.4-3.4 1a259 259 0 0 1-14.5 3.5l-1.4.3a345.6 345.6 0 0 1-13.7 3l-3.6.5-1.4.2-1.9.3h-.3l-.4-1.8.3-.1 1.8-.6 1-.4 3.8-1.2c4.4-1.4 9.8-2.9 14.6-4l8-1.6 7-1.2 3.6-.4 1.4-.2 2-.2h.3l.3 1.8zm17-16.9h-.3l-.4-1.8h.3l2.4-.7a417.3 417.3 0 0 1 6.2-1.6 443.5 443.5 0 0 1 18.9-4h.2l10-1.8 8.3-1.2h.6l4.8-.6 1.5-.2 2.4-.2h.4l.3 1.8h-.4l-2.3.7-1.7.4-4.5 1-4.8 1-4 .9-8.5 1.7-1.6.3a449.6 449.6 0 0 1-23.7 3.8l-1.7.2-2.4.4zm78 2.3-3.2.5-5.5 1a457.1 457.1 0 0 1-12.3 2l-7 1-1.4.2-5.7.9-5.5.7-8.6 1.3-4.9.7-1.6.2-5.8.8-6 .8-2.7.3-3.7.4-.3-1.8 3.6-.8 2.5-.6 6.1-1.2 3.2-.7 2.6-.5 2.6-.5 3.8-.7c2.1-.4 4.5-.9 7-1.2l7.1-1.1 7.2-1 7-1 8.2-.8 4.1-.5 7.8-.6 1-.1 3.4-.2h.3l.2 1.8z"></path>
        </svg>
    </g>
    <g transform="translate(1100, 0)">
        <svg xmlns="http://www.w3.org/2000/svg" viewBox="0 0 750 120">
            <path d="M.3 1.6l2.5.5c5.9 1.1 6.6 4.6 6.6 7.8v40.7c0 3.3-.8 6.6-6.6 7.8l-2.5.5v1.3h29v-1.3l-2.5-.5c-5.8-1.2-6.6-4.5-6.6-7.8V9.9c0-3.2.8-6.7 6.6-7.8l2.5-.5V.3H.3v1.3M589.6.3v20.1h1.2l3-7.4c3-7.4 6-11.4 13.8-11.4h3.2v49c0 3.2-.7 7-6.6 7.9l-2.5.4v1.3h29v-1.3l-2.6-.4c-5.8-1-6.6-4.7-6.6-8V1.7h3.2c7.8 0 10.9 4 13.8 11.4l3 7.4h1.2V.3h-53.1m-25.9 1.3l2.4.3c4.4.6 8.5 2.8 8.6 14.2l.2 27.3-23.2-27.5c-7-8.2-9.8-11.7-11.8-15.4l-.2-.2h-21.2v1.3h.4c4.4.8 7.1 2.6 11.7 7.6l.9 1v31.4c0 13.4-4.2 15.6-9.3 16.9l-1.8.4v1.3h23.8v-1.3l-1.7-.4c-4.5-1.2-9.2-2.5-9.3-17l-.3-29.8 42 49.6.2.1h1.3V16.1c0-11.4 4.3-13.6 8.6-14.2l2.3-.3V.3h-23.6v1.3M320.2 49.4c-4 6.9-8.9 9.4-18 9.4h-2.6c-5 0-7.3-2.5-7.3-8V30l3.7.1c9.1.2 11.6.6 14.5 9.4l1 3.2h1.3V15.8h-1.3l-1 3.3c-2.8 8.8-5.5 9.2-14.5 9.4h-3.7V1.7h6.4c10.8 0 15.6 2.3 19.2 8.9L322 18h1.2V.3h-50.7v1.3l2.5.5c5.5 1 6.6 3.7 6.6 7.6v40.9c0 3.2-.8 7-6.6 7.9l-2.5.4v1.3h53V42.5h-1.2l-4.1 7m189.6 0c-4 6.8-8.9 9.3-18 9.3h-2.5c-5.1 0-7.4-2.5-7.4-8V30l3.7.1c9.2.2 11.7.6 14.5 9.4l1 3.2h1.3V15.8H501l-1 3.3c-2.8 8.8-5.5 9.2-14.5 9.4H482V1.7h6.5c10.7 0 15.5 2.3 19.2 8.9l4 7.4h1.2V.3h-50.7v1.3l2.5.5c5.5 1 6.6 3.7 6.6 7.6v40.9c0 3.2-.7 7-6.6 7.9l-2.5.4v1.3h53V42.5H514l-4 7m-391.4 1V1.6h7.6c15.2 0 24.2 10.7 24.2 28.6 0 18.2-8.5 28.6-23.4 28.6h-2c-5.4 0-6.5-3.3-6.5-8.3M128.7.3H75.2v1.3l2.4.3c5.4.8 8.5 3 8.6 12.5l.2 29-23.2-27.5C56.4 8 53.4 4.2 51.4.5l-.2-.2H30v1.3h.4c4.3.8 7 2.6 11.7 7.6l.9 1v31.4c0 13.4-4.3 15.6-9.4 16.9l-1.7.4v1.3h23.8v-1.3l-1.7-.4c-4.5-1.2-9.2-2.5-9.3-17l-.3-29.8 42.2 49.7h1.3V13c0-7.5 3.3-11.3 10-11.3 6.5 0 9.9 3.8 9.9 11.3v37.6c0 3.5-.8 6.9-6.7 7.9l-2.4.4v1.3h30c10.3 0 19-3.2 25-9.3a29.3 29.3 0 008.5-21c0-8-3-15.4-8.5-20.7a35 35 0 00-25-9m288.6 50.3V1.6h7.6c15.2 0 24.2 10.7 24.2 28.6 0 18.2-8.5 28.6-23.4 28.6h-1.9c-5.4 0-6.5-3.3-6.5-8.3M427.5.3H374v1.3l2.4.3c5.4.8 8.5 3 8.6 12.5l.2 29L362 15.9c-7-8.2-9.8-11.7-11.8-15.4l-.2-.2h-21.2v1.3h.4c4.4.8 7.1 2.6 11.7 7.6l.9 1v31.4c0 13.4-4.3 15.6-9.4 16.9l-1.7.4v1.3h23.8v-1.3l-1.7-.4c-4.5-1.2-9.2-2.5-9.3-17l-.2-29.8 42 49.6.1.1h1.3V13c0-7.5 3.3-11.3 10-11.3 6.5 0 10 3.8 10 11.3v37.6c0 3.5-.9 6.9-6.8 7.9l-2.4.4v1.3h30c10.3 0 19-3.2 25-9.3a29.3 29.3 0 008.5-21c0-8-3-15.4-8.5-20.7a35 35 0 00-25-9M248 .3h-25.9v1.4l2.5.5c5.8 1.1 6.6 4.4 6.6 7.7v40.8c0 3.4-.8 6.6-6.6 7.8l-2.5.5v1.3h30V59l-2-.4c-6.8-1.4-8-2.8-8-8.7V1.7h2.5c9.2 0 14.7 6.2 14.7 16.6 0 10.5-5.5 16.7-14.7 16.7h-.7v1.5h4.1c13.5 0 23-7.5 23-18.2 0-10.6-9.5-18-23-18m-37 49.1c-4 6.8-8.9 9.4-18 9.4h-2.6c-5 0-7.3-2.5-7.3-8V30l3.7.1c9.1.2 11.6.6 14.5 9.4l1 3.2h1.2V15.8h-1.2l-1 3.3c-2.8 8.8-5.5 9.2-14.5 9.4h-3.7V1.7h6.4c10.7 0 15.6 2.3 19.2 8.9l4.1 7.4h1.2V.3h-50.7v1.3l2.5.5c5.5 1 6.6 3.7 6.6 7.6v40.9c0 3.2-.8 7-6.6 7.9l-2.5.4v1.3h53V42.5H215l-4.1 7" fill="#1C1B19"></path>
        </svg>
    </g>
</svg>