<svg xmlns="http://www.w3.org/2000/svg" viewBox="0 0 644 240">
    <g fill="#A92323" fill-rule="evenodd">
        <path d="M0 0h644v240H0z"></path>
        <path fill="#FFF" d="M467.476931 89.3923833c30.716073 0 54.093582 19.1743947 54.108845 52.3460987.017421 32.389475-23.392772 52.156533-54.108845 52.156533-30.716074 0-54.169845-19.767058-54.108954-52.156533.065486-33.171704 23.39288-52.3460987 54.108954-52.3460987ZM94.8225651 48.0027087l31.0407309 79.3754583h.370414l31.021121-79.3754583h46.820386V191.99152l-34.930082.006537.076261-75.244248h-.348625l-27.44989 75.244248h-30.807587l-27.4716786-75.244248h-.309405l.095872 75.244248H48V48.0027087h46.8225651Zm158.4009839 44.085856V191.99152h-34.631572V92.0885647h34.631572Zm75.945638-2.2994021c4.026623 0 9.24293 1.2637669 12.435031 2.1963398l-6.236036 28.0425526c-3.067903-1.235441-3.898067-1.4773-7.92469-1.4773-16.635967 0-26.301605 11.696381-26.301605 31.254264v42.185847h-33.330763V92.09009h31.446007v18.407419h.381309c5.946242-12.6551006 14.576898-20.7083464 29.530747-20.7083464Zm77.808606 0c4.026623 0 9.242929 1.2637669 12.432852 2.1963398l-6.233858 28.0425526c-3.065724-1.235441-3.898067-1.4773-7.92469-1.4773-16.635966 0-26.301605 11.696381-26.301605 31.254264v42.185847H345.61755V92.09009h31.450365v18.407419h.381309c5.944063-12.6551006 14.572541-20.7083464 29.528569-20.7083464Zm182.632625 0c4.026623 0 9.240751 1.2637669 12.432852 2.1963398l-6.233857 28.0425526c-3.067903-1.235441-3.900246-1.4773-7.926869-1.4773-16.635967 0-26.301605 11.696381-26.301605 31.254264v42.185847h-33.330764V92.09009h31.448187v18.407419h.381309c5.946241-12.6551006 14.574719-20.7083464 29.530747-20.7083464ZM466.794932 117.80535c-13.278268 0-20.211555 8.979282-20.211555 23.933132 0 14.766463 6.933287 24.240357 20.518781 24.240357 13.589853 0 21.268326-9.473894 21.268326-24.240357 0-14.95385-7.678473-23.933132-21.575552-23.933132ZM235.927809 39.52c11.13858 0 20.167977 8.8550842 20.167977 19.7757737 0 10.9206895-9.029397 19.7714159-20.167977 19.7714159-11.140759 0-20.170156-8.8507264-20.170156-19.7714159 0-10.9206895 9.029397-19.7757737 20.170156-19.7757737Z"></path>
    </g>
</svg>