<?xml version="1.0" encoding="UTF-8"?>
<svg width="240px" height="60px" viewBox="0 0 240 60" version="1.1" xmlns="http://www.w3.org/2000/svg" xmlns:xlink="http://www.w3.org/1999/xlink">
    <title>Mastheads/OxfordMail</title>
    <defs>
        <polygon id="path-1" points="0 0.173182273 27.0583687 0.173182273 27.0583687 29.936571 0 29.936571"></polygon>
        <polygon id="path-3" points="0.014159557 0.263041 164.79437 0.263041 164.79437 31.0257677 0.014159557 31.0257677"></polygon>
    </defs>
    <g id="Mastheads/OxfordMail" stroke="none" stroke-width="1" fill="none" fill-rule="evenodd">
        <g id="Oxford-Mail" transform="translate(0.000000, 13.000000)">
            <g id="Group-3" transform="translate(0.000000, 1.089197)">
                <mask id="mask-2" fill="white">
                    <use xlink:href="#path-1"></use>
                </mask>
                <g id="Clip-2"></g>
                <path d="M9.38969235,15.3440584 C9.38969235,20.7208778 10.7536389,23.4060199 13.5275506,23.4060199 C15.7064885,23.4060199 16.8566803,22.0616789 17.3269409,19.1170357 C17.4976725,17.9436985 17.6686764,15.8633329 17.6686764,14.3022417 C17.6686764,9.18819097 16.3869642,6.71680368 13.6555312,6.71680368 C10.8818918,6.71680368 9.38969235,9.71100538 9.38969235,15.3440584 M23.2164997,4.03166154 C25.8194075,6.80557321 27.0583687,10.2727586 27.0583687,14.9957877 C27.0583687,23.8397925 21.5530241,29.9529089 13.5703015,29.9529089 C5.46232139,29.9529089 0,23.971313 0,15.0842849 C0,6.11202722 5.41957042,0.173182273 13.6130525,0.173182273 C17.6259254,0.173182273 20.6988216,1.38600279 23.2164997,4.03166154" id="Fill-1" fill="#B31613" mask="url(#mask-2)"></path>
            </g>
            <path d="M40.7999465,30.6077884 L36.9153265,23.7586474 L32.7349896,30.6077884 L25.990956,30.6077884 L33.4151929,19.2068944 L26.9306604,9.06456714 L36.1496212,9.06456714 L38.2400619,12.8800231 L38.4535445,13.3108004 L38.7100503,13.701822 L39.0090348,14.2671151 C39.1372877,14.0500927 39.2225174,13.8760935 39.2652683,13.7905916 L39.5642528,13.3108004 L39.7747401,12.8800231 L41.9536781,9.06456714 L48.779946,9.06456714 L42.5914027,18.8616191 L50.1471601,30.6077884 L40.7999465,30.6077884" id="Fill-4" fill="#B31613"></path>
            <g id="Group-8" transform="translate(49.013851, 0.000000)">
                <mask id="mask-4" fill="white">
                    <use xlink:href="#path-3"></use>
                </mask>
                <g id="Clip-6"></g>
                <path d="M11.0237597,30.6077884 L3.17228536,30.6077884 L3.17228536,14.5693672 L0.014159557,14.5693672 L0.014159557,9.06456714 L3.17228536,9.06456714 C3.17228536,5.42283801 3.34328924,4.46979091 4.32601695,3.04022026 C5.60446156,1.08783519 7.65215134,0.263041 11.2805378,0.263041 C13.3312229,0.263041 15.0793836,0.43731247 17.2978049,0.828334082 L17.2978049,6.29065548 C14.4816869,5.94211253 14.310683,5.94211253 13.5414378,5.94211253 C11.6647519,5.94211253 10.9382577,6.63565853 10.9382577,8.37102115 L10.9382577,9.06456714 L16.3610958,9.06456714 L16.3610958,14.5693672 L11.0237597,14.5693672 L11.0237597,30.6077884" id="Fill-5" fill="#B31613" mask="url(#mask-4)"></path>
                <path d="M24.7672435,19.8576894 C24.7672435,24.2354432 25.5362164,25.9280549 27.4981319,25.9280549 C28.6518635,25.9280549 29.4208364,25.4482637 29.7595765,24.4949443 C30.1010397,23.4566676 30.3572732,21.5470335 30.3572732,19.683418 C30.3572732,15.5226866 29.5918402,13.9188445 27.5839061,13.9188445 C25.6217183,13.9188445 24.7672435,15.6969581 24.7672435,19.8576894 L24.7672435,19.8576894 Z M39.1920198,19.9004404 C39.1920198,26.4013108 34.2851888,31.0418333 27.41263,31.0418333 C20.7543706,31.0418333 15.9330415,26.3585599 15.9330415,19.9004404 C15.9330415,13.356819 20.7968493,8.63079456 27.5839061,8.63079456 C34.498399,8.63079456 39.1920198,13.1828198 39.1920198,19.9004404 L39.1920198,19.9004404 Z M40.6545387,30.6080607 L40.6545387,9.06456714 L47.5693039,9.06456714 L47.5693039,13.5278229 C48.591515,10.0178865 50.1722117,8.67354553 53.2026292,8.67354553 C53.5443646,8.67354553 53.7973305,8.67354553 54.3100699,8.75904747 L54.3100699,16.2589836 C53.5868433,16.0847121 53.2453801,16.0419611 52.7326408,16.0419611 C49.9587291,16.0419611 48.6339936,17.5178226 48.6339936,20.7257792 L48.6339936,30.6080607 L40.6545387,30.6080607 Z M68.4355894,16.7355071 C68.4355894,14.8294129 67.6271332,13.8760935 66.0891875,13.8760935 C64.2552526,13.8760935 63.4432564,15.825211 63.4432564,20.2492556 C63.4432564,23.7589197 64.2980035,25.4482637 66.0464365,25.4482637 C67.5419036,25.4482637 68.4355894,24.1926923 68.4355894,22.0695756 L68.4355894,16.7355071 Z M68.8630991,30.6080607 L68.8630991,27.7453795 C67.3708997,30.1742882 65.8757049,31.0418333 63.101521,31.0418333 C58.0239583,31.0418333 54.9080389,26.7495815 54.9080389,19.8576894 C54.9080389,12.8342769 58.1522112,8.41404442 63.2722525,8.41404442 C65.4089841,8.41404442 66.857888,9.06456714 68.4355894,10.7999298 L68.4355894,1.69615154 L76.6326114,1.69615154 L76.6326114,30.6080607 L68.8630991,30.6080607 Z M119.469356,30.6080607 L111.361648,30.6080607 L111.361648,9.9323846 L106.070058,30.6080607 L100.522235,30.6080607 L95.0604579,9.9323846 L95.0604579,30.6080607 L88.5296346,30.6080607 L88.5296346,1.69615154 L99.924538,1.69615154 L104.061852,17.0412991 L107.989767,1.69615154 L119.469356,1.69615154 L119.469356,30.6080607 Z M135.133366,20.5512354 C131.54773,20.942257 129.842048,22.0695756 129.842048,23.9756698 C129.842048,25.1884903 130.607481,25.9280549 131.932217,25.9280549 C134.193117,25.9280549 135.133366,24.6692158 135.133366,21.5470335 L135.133366,20.5512354 Z M135.85986,30.6080607 C135.645833,29.4807422 135.560603,28.7447175 135.560603,27.6173989 C133.851653,30.0000167 131.804236,31.0418333 128.73134,31.0418333 C124.290685,31.0418333 121.26054,28.4421931 121.26054,24.6264648 C121.26054,21.635803 123.311769,19.0789138 126.555397,17.9943462 C128.944822,17.2120307 131.718734,16.7815257 135.133366,16.6072542 L135.133366,16.0847121 C135.133366,14.395368 134.449895,13.7448453 132.615687,13.7448453 C130.735734,13.7448453 129.671044,14.5268885 129.414811,16.0847121 L121.859053,15.3911661 C122.457022,13.0973179 123.268746,11.9239807 124.803696,10.7999298 C126.897133,9.32434055 129.371787,8.63079456 132.872193,8.63079456 C137.095553,8.63079456 140.382204,9.71536216 141.877127,11.6217287 C142.89961,12.8770279 143.113093,14.050365 143.113093,17.8200747 L143.113093,26.4013108 C143.113093,28.3106726 143.198595,29.0042186 143.754085,30.6080607 L135.85986,30.6080607 Z M145.673522,30.6080607 L153.994712,30.6080607 L153.994712,9.06456714 L145.673522,9.06456714 L145.673522,30.6080607 Z M145.673522,7.50347599 L153.994712,7.50347599 L153.994712,0.828606381 L145.673522,0.828606381 L145.673522,7.50347599 Z M156.600888,30.6080607 L164.79437,30.6080607 L164.79437,1.69615154 L156.600888,1.69615154 L156.600888,30.6080607 Z" id="Fill-7" fill="#B31613" mask="url(#mask-4)"></path>
            </g>
        </g>
    </g>
</svg>