<svg class="logo__media"
    xmlns="http://www.w3.org/2000/svg" viewBox="0 0 226 52" fill="none" xml:space="preserve" aria-labelledby="title-the-press-and-journal-scnoty-logo desc-the-press-and-journal-sdnoft-logo" role="img">
    <title id="title-the-press-and-journal-scottish-daily-newspaper-of-the-year-logo">The Press and Journal Scottish Daily Newspaper of the Year</title>
    <desc id="desc-the-press-and-journal-scottish-daily-newspaper-of-the-year-logo">The Press and Journal Scottish Daily Newspaper of the Year logo</desc>
    <path d="M113.461 45.3181C115.422 45.3181 117.094 43.8664 117.094 41.5311V38.0596C117.094 35.7874 115.48 34.4619 113.461 34.4619C111.501 34.4619 109.829 35.8505 109.829 38.2489V41.7835C109.771 44.1188 111.443 45.3181 113.461 45.3181ZM113.461 44.3082C111.962 44.3082 110.867 43.2983 110.867 41.7204V38.2489C110.867 36.5448 112.02 35.535 113.404 35.535C114.961 35.535 115.998 36.4817 115.998 38.0596V41.6573C115.998 43.3615 114.845 44.3082 113.461 44.3082ZM118.997 45.1287H120.093V40.2687H124.187V39.1957H120.093V35.6612H125.052V34.5882H119.055V45.1287H118.997ZM132.605 45.1287H133.701V35.6612H136.815V34.6513H129.549V35.6612H132.663V45.1287H132.605ZM138.487 45.1287H139.583V40.2687H144.426V45.1287H145.522V34.6513H144.426V39.1957H139.583V34.6513H138.487V45.1287ZM147.309 45.1287H153.479V44.0558H148.405V40.2056H152.672V39.1326H148.405V35.6612H153.479V34.5882H147.367V45.1287H147.309ZM161.148 45.1287H162.186V40.7736L165.3 34.6513H164.147L161.725 39.6376L159.245 34.6513H158.035L161.148 40.7736V45.1287V45.1287ZM166.626 45.1287H172.796V44.0558H167.722V40.2056H171.989V39.1326H167.722V35.6612H172.796V34.5882H166.626V45.1287ZM174.122 45.1287H175.218L176.198 42.0991H180.119L181.1 45.1287H182.253L178.735 34.6513H177.755L174.122 45.1287ZM176.544 41.1523L178.216 36.1029L179.831 41.1523H176.544ZM183.694 45.1287H184.79V40.8999H186.751L189.461 45.1287H190.672L187.904 40.7736C189.461 40.458 190.21 39.1958 190.21 37.7441C190.21 35.7874 188.884 34.5882 187.097 34.5882H183.694V45.1287ZM184.732 39.9532V35.6612H186.751C188.134 35.6612 189.057 36.2924 189.057 37.7441C189.057 39.1958 188.192 39.89 186.751 39.89H184.732V39.9532Z" fill="#231F20"></path>
    <path d="M110.001 30.4857H113.577C115.479 30.4857 117.036 29.1602 117.036 26.888V23.5428C117.036 21.3337 115.537 20.0082 113.577 20.0082H110.001V30.4857ZM111.097 29.4127V21.0182H113.461C115.018 21.0182 115.883 22.028 115.883 23.4797V26.888C115.883 28.3397 114.903 29.3496 113.461 29.3496H111.097V29.4127ZM117.901 30.4857H118.997L119.977 27.4561H123.898L124.878 30.4857H126.032L122.514 20.0082H121.534L117.901 30.4857ZM120.323 26.4462L121.995 21.3968L123.61 26.4462H120.323ZM127.416 30.4857H128.511V20.0082H127.416V30.4857ZM130.356 30.4857H136.353V29.4127H131.394V20.0082H130.299V30.4857H130.356ZM138.371 30.4857H139.409V26.1306L142.523 20.0082H141.37L138.948 24.9945L136.469 20.0082H135.258L138.371 26.1306V30.4857V30.4857ZM147.079 30.4857H148.116V21.9649L153.075 30.4857H154.113V20.0082H153.075V28.4028L148.116 20.0082H147.021V30.4857H147.079ZM156.016 30.4857H162.186V29.4127H157.112V25.5626H161.379V24.4896H157.112V21.0182H162.186V19.9451H156.074V30.4857H156.016ZM165.992 30.5488H167.03L169.048 21.9017L171.066 30.5488H172.104L174.584 20.0082H173.488L171.585 28.6553L169.567 20.0082H168.587L166.569 28.6553L164.666 20.0082H163.57L165.992 30.5488ZM178.735 30.675C180.754 30.675 182.137 29.4127 182.137 27.6455C182.137 26.0044 181.272 25.247 180.177 24.8683L178.332 24.3002C177.178 23.9215 176.775 23.3534 176.775 22.5329C176.775 21.3337 177.755 20.8288 178.735 20.8288C179.831 20.8288 180.581 21.3337 181.042 22.2173L181.964 21.7755C181.445 20.3869 180.235 19.8189 178.735 19.8189C177.005 19.8189 175.679 20.8919 175.679 22.6592C175.679 24.174 176.429 24.9314 177.813 25.3101L179.6 25.8781C180.465 26.1937 181.099 26.6356 181.099 27.7717C181.099 28.9709 180.062 29.6652 178.793 29.6652C177.467 29.6652 176.544 28.9709 176.14 27.7717L175.16 28.1504C175.622 29.7914 177.005 30.675 178.735 30.675ZM183.752 30.4857H184.848V26.3199H187.096C189.172 26.3199 190.325 24.8682 190.325 23.1641C190.325 21.2706 189.115 20.0082 187.269 20.0082H183.81V30.4857H183.752ZM184.848 25.3101V21.0182H187.039C188.307 21.0182 189.172 21.7755 189.172 23.1641C189.172 24.6158 188.25 25.3101 186.808 25.3101H184.848V25.3101ZM189.98 30.4857H191.075L192.055 27.4561H195.976L196.957 30.4857H198.11L194.593 20.0082H193.612L189.98 30.4857ZM192.401 26.4462L194.074 21.3968L195.688 26.4462H192.401ZM199.494 30.4857H200.589V26.3199H202.838C204.914 26.3199 206.067 24.8682 206.067 23.1641C206.067 21.2706 204.856 20.0082 203.011 20.0082H199.552V30.4857H199.494ZM200.589 25.3101V21.0182H202.781C204.049 21.0182 204.914 21.7755 204.914 23.1641C204.914 24.6158 203.992 25.3101 202.55 25.3101H200.589V25.3101ZM207.624 30.4857H213.794V29.4127H208.72V25.5626H212.987V24.4896H208.72V21.0182H213.794V19.9451H207.682V30.4857H207.624ZM215.582 30.4857H216.677V26.2568H218.638L221.348 30.4857H222.559L219.791 26.1306C221.348 25.815 222.098 24.5527 222.098 23.101C222.098 21.1443 220.771 19.9451 218.984 19.9451H215.582V30.4857ZM216.677 25.247V20.955H218.696C220.079 20.955 221.002 21.5862 221.002 23.0379C221.002 24.4896 220.137 25.1839 218.696 25.1839H216.677V25.247Z" fill="#231F20"></path>
    <path d="M113 15.9687C115.018 15.9687 116.402 14.7063 116.402 12.939C116.402 11.298 115.537 10.5406 114.442 10.1619L112.596 9.59379C111.443 9.21508 111.039 8.64707 111.039 7.82655C111.039 6.62732 112.02 6.12234 113 6.12234C114.096 6.12234 114.845 6.62732 115.306 7.51096L116.229 7.0691C115.71 5.68052 114.499 5.11248 113 5.11248C111.27 5.11248 109.944 6.18547 109.944 7.95275C109.944 9.46757 110.693 10.225 112.077 10.6037L113.865 11.1717C114.73 11.4873 115.364 11.9291 115.364 13.0652C115.364 14.2645 114.326 14.9587 113.058 14.9587C111.731 14.9587 110.809 14.2645 110.405 13.0652L109.425 13.444C109.886 15.1482 111.27 15.9687 113 15.9687ZM121.476 15.9687C123.379 15.9687 124.878 14.8326 124.878 12.8128V12.4341H123.841V12.6234C123.841 14.012 122.86 14.8956 121.476 14.8956C119.977 14.8956 118.882 13.8858 118.882 12.3079V8.77331C118.882 7.13226 120.035 6.12234 121.419 6.12234C122.803 6.12234 123.841 6.94286 123.841 8.33144V8.71021H124.878V8.20524C124.878 6.2486 123.379 5.04938 121.476 5.04938C119.401 5.04938 117.844 6.50109 117.844 8.77331V12.371C117.786 14.7694 119.401 15.9687 121.476 15.9687ZM130.01 15.9687C131.971 15.9687 133.643 14.517 133.643 12.1817V8.71021C133.643 6.43799 132.029 5.11248 130.01 5.11248C128.05 5.11248 126.378 6.50106 126.378 8.89951V12.4341C126.378 14.7694 127.992 15.9687 130.01 15.9687ZM130.01 14.9587C128.511 14.9587 127.416 13.9489 127.416 12.371V8.89951C127.416 7.19535 128.569 6.18552 129.953 6.18552C131.51 6.18552 132.548 7.13228 132.548 8.71021V12.3079C132.548 14.012 131.394 14.9587 130.01 14.9587ZM138.199 15.7793H139.294V6.31172H142.408V5.30186H135.142V6.31172H138.256V15.7793H138.199ZM146.963 15.7793H148.059V6.31172H151.173V5.30186H143.907V6.31172H147.021V15.7793H146.963ZM152.557 15.7793H153.652V5.36496H152.557V15.7793ZM158.726 15.9687C160.745 15.9687 162.129 14.7063 162.129 12.939C162.129 11.298 161.264 10.5406 160.168 10.1619L158.323 9.59379C157.17 9.21508 156.766 8.64707 156.766 7.82655C156.766 6.62732 157.746 6.12234 158.726 6.12234C159.822 6.12234 160.572 6.62732 161.033 7.51096L161.956 7.0691C161.437 5.68052 160.226 5.11248 158.726 5.11248C156.997 5.11248 155.67 6.18547 155.67 7.95275C155.67 9.46757 156.42 10.225 157.804 10.6037L159.591 11.1717C160.456 11.4873 161.091 11.9291 161.091 13.0652C161.091 14.2645 160.053 14.9587 158.784 14.9587C157.458 14.9587 156.535 14.2645 156.132 13.0652L155.151 13.444C155.613 15.1482 156.997 15.9687 158.726 15.9687ZM163.743 15.7793H164.839V10.9193H169.682V15.7793H170.778V5.36496H169.682V9.90937H164.839V5.36496H163.743V15.7793Z" fill="#231F20"></path>
    <path d="M8.34224 31.4325C5.28612 31.4325 3.67158 29.0972 3.67158 26.4462C3.67158 24.3002 4.59416 22.5961 6.3817 21.6493C5.74741 21.5862 5.22843 21.5231 4.99778 21.5231C4.42115 21.5231 4.24821 21.7755 4.24821 22.0911C4.24821 22.3436 4.36355 22.5961 4.47887 22.7223C3.90225 22.5961 3.44092 22.1543 3.44092 21.3968C3.44092 20.2607 4.24818 19.5664 5.51676 19.5664C6.55469 19.5664 9.32252 20.1345 10.5911 20.1345C10.9371 20.1345 11.1101 20.0082 11.1101 19.6295C11.1101 19.314 10.8794 19.1246 10.7064 18.9984C11.6867 18.9352 12.148 19.5665 12.148 20.4501C12.148 21.6493 11.2831 22.028 10.3028 22.028C10.1875 22.028 10.0721 22.028 9.89911 22.028V29.539C10.8217 29.2234 11.6867 28.4659 12.3786 27.2036C12.494 29.6021 10.4181 31.4325 8.34224 31.4325ZM10.3604 21.5231C9.14952 21.4599 5.68979 20.955 5.0555 20.955C4.19056 20.955 3.90225 21.3337 3.90225 21.7124C3.90225 21.9018 3.95987 22.028 4.07519 22.0911C4.07519 21.3968 4.53654 21.2706 5.0555 21.2706C5.68979 21.2706 9.14952 21.8386 10.3604 21.8386C11.11 21.8386 11.975 21.6493 11.9173 20.387C11.8596 21.3969 10.9371 21.5231 10.3604 21.5231ZM4.07519 24.9945C4.01753 25.247 3.9599 26.1306 3.9599 26.4462C4.07522 29.0972 5.57442 31.18 8.39989 31.18C8.80353 31.18 9.26487 31.1169 9.66851 30.9275C5.34381 31.0538 4.19052 28.4659 4.07519 24.9945ZM6.84303 21.7124C6.03575 22.7854 5.51676 24.3634 5.51676 26.1306C5.51676 27.1405 5.74745 28.2766 6.49707 28.9709L7.41965 28.2135V21.8386L6.84303 21.7124ZM9.26483 25.6888C9.26483 27.0142 8.86118 27.4561 8.45754 27.7717L6.72766 29.2234C7.18896 29.6021 7.88093 29.7914 8.6882 29.7914C8.97652 29.7914 9.26483 29.7914 9.55314 29.7283V22.0911C9.43782 22.0911 9.32249 22.028 9.26483 22.028V25.6888ZM7.93863 27.7717V21.9017L7.65032 21.8386V28.0242L7.93863 27.7717Z" fill="#231F20"></path>
    <path d="M16.0691 29.9807L14.5698 31.3061C13.9932 31.1167 13.1859 30.5487 13.1859 29.4126V21.5229C13.1859 20.9549 13.1283 20.6393 12.84 20.5131L12.6093 20.7656L12.4363 20.5131L13.9932 19.1876C14.2815 19.2507 15.2618 19.6925 15.2618 20.8918V24.8051L17.1069 23.164C17.3953 23.2271 18.3756 23.6689 18.3756 24.8682V28.9708C18.3756 29.5388 18.4908 29.8544 18.8368 30.0438L19.0675 29.8544L19.2405 30.1069L17.7413 31.4324C17.1647 31.243 16.3574 30.675 16.3574 29.5389V25.6255C16.3574 25.0575 16.2997 24.7419 16.0114 24.6157L15.3194 25.2469V29.0339C15.3194 29.6019 15.4348 29.9175 15.7807 30.1069L16.0114 29.9175L16.0691 29.9807ZM14.8582 30.6749C14.2815 30.5487 13.8202 30.0438 13.8202 29.097V21.3967C13.8202 20.8287 13.7049 20.2606 13.3012 20.1344L13.0706 20.3869C13.4742 20.5131 13.5319 21.018 13.5319 21.6492V29.3495C13.5319 30.2962 13.9932 30.8011 14.6275 31.0536L14.8582 30.6749ZM17.9719 30.6749C17.3953 30.5487 16.934 30.0438 16.934 29.097V25.3731C16.934 24.805 16.8187 24.237 16.415 24.1107L16.1844 24.3632C16.588 24.4894 16.6457 24.9944 16.6457 25.6255V29.3495C16.6457 30.2962 17.107 30.8011 17.7413 31.0536L17.9719 30.6749Z" fill="#231F20"></path>
    <path d="M24.6025 29.5389L22.8726 31.3692C20.6815 31.3692 19.3552 30.4856 19.3552 28.3397V26.6986C19.3552 26.0043 19.2976 25.9412 19.0093 25.6256L19.9895 24.3001C20.8545 24.1108 21.7771 23.7321 22.469 23.164C23.5646 23.7321 24.3719 24.1739 24.3719 25.6256V26.5092L21.3734 27.8347C21.3734 29.2233 22.123 29.7282 23.3916 29.7282C23.6223 29.7282 23.8529 29.6651 24.0259 29.602L24.3142 29.2864L24.6025 29.5389ZM23.0457 30.7381C21.0275 30.675 20.0472 29.9807 20.0472 28.1503V26.6354C20.0472 25.9412 19.9319 25.6887 19.6436 25.3731L19.4706 25.6256C19.5859 25.7518 19.7589 25.9412 19.7589 26.6986V28.2766C19.7589 30.1701 20.9121 30.9905 22.815 31.0537L23.0457 30.7381ZM22.988 26.8248V25.815C22.988 24.8051 22.5843 24.5526 21.4311 24.0477V24.3632C22.4113 24.8051 22.6421 25.0575 22.6421 26.0043V26.951L22.988 26.8248ZM22.3537 27.0773V26.0043C22.3537 25.1838 22.1807 25.1207 21.4311 24.6788V27.456L22.3537 27.0773Z" fill="#231F20"></path>
    <path d="M64.0444 24.5527C64.0444 24.0478 64.3327 23.3534 65.2553 23.3534C65.8319 23.3534 66.6392 23.669 67.1582 23.669C67.5618 23.669 67.6772 23.4797 67.7348 23.101C67.8501 23.2272 67.9078 23.5428 67.9078 23.7952C67.9078 24.742 67.4465 25.1208 66.7546 25.1208C66.6393 25.1208 66.4662 25.1207 66.3509 25.0576C66.0626 25.5625 65.7743 26.32 65.1977 27.4561C66.3509 28.4659 66.9275 28.9077 66.9275 29.7283C66.9275 30.4857 66.3509 31.6218 64.9093 31.5587C65.2553 31.3062 65.486 30.9906 65.486 30.6119C65.486 30.2332 65.14 29.9807 64.102 29.0971C63.2948 30.1701 62.2569 30.8644 60.7577 30.8644C58.5088 30.8644 57.5286 29.2865 57.5286 27.5192C57.5286 25.9412 58.4512 25.0576 59.6044 24.3002C58.9701 23.4166 58.5664 22.5961 58.5664 21.6493C58.5664 20.3239 59.489 18.9352 61.5072 18.9352C62.8911 18.9352 63.8137 19.7558 63.8137 21.0181C63.8137 22.2805 62.6028 23.2904 61.6802 23.8584C62.1415 24.3634 63.5831 25.815 64.5057 26.7618C64.9094 25.9413 65.1977 25.3732 65.4283 24.8052C65.313 24.8052 65.1977 24.742 65.0824 24.742C64.6787 24.742 64.3904 24.9314 64.1598 25.1208C64.0444 24.9945 64.0444 24.742 64.0444 24.5527ZM60.008 24.742C59.662 25.2469 59.489 25.815 59.489 26.7618C59.489 28.0241 60.0657 29.2865 61.5072 29.2865C62.1992 29.2865 62.8911 29.034 63.4678 28.4028C61.8532 26.8249 61.2766 26.2568 60.181 24.9945L60.008 24.742ZM61.3343 23.4797C62.4875 22.7222 62.6605 22.1542 62.6605 21.3968C62.6605 20.5132 62.1992 20.0082 61.4496 20.0082C60.7576 20.0082 60.2963 20.5763 60.2963 21.2705C60.354 21.7755 60.4693 22.4698 61.3343 23.4797Z" fill="#231F20"></path>
    <path d="M27.1403 10.2251C26.2754 10.2251 25.4681 10.7931 25.4681 11.803C25.4681 13.3178 26.6214 14.2015 28.2359 14.2015C29.2162 14.2015 30.1965 13.949 30.7155 13.6965C30.1965 14.5801 28.1206 15.59 26.3908 15.59C22.2967 15.59 20.2208 12.2449 20.2208 8.7734C20.2208 5.11261 22.5274 2.46168 27.025 2.46168C30.0812 2.46168 32.676 3.97651 35.4438 3.97651C38.0386 3.97651 39.2495 3.21904 40.9217 1.38864C41.902 6.50114 38.2116 10.6038 32.3876 10.6038C30.6001 10.6669 28.8702 10.2251 27.1403 10.2251ZM32.9066 7.88975C31.0037 7.88975 29.1009 7.19547 27.0827 7.19547C24.5455 7.19547 23.5653 10.2251 24.7185 12.1818C24.6032 10.7932 25.2951 9.34148 27.198 9.34148C28.9279 9.34148 30.6577 9.84637 32.3876 9.84637C35.1554 9.84637 39.3072 8.7734 40.3451 4.03961C39.1342 6.05936 36.5394 7.88975 32.9066 7.88975ZM54.4148 34.8408C51.5893 36.4818 47.1493 39.9533 45.1311 42.0361L42.8823 39.6377V50.1152L39.5378 46.7699C38.5575 48.411 36.8277 49.9889 34.3482 49.9889C29.0432 49.9889 26.1601 45.5708 26.1601 41.2157C26.1601 35.4089 29.5622 31.3694 34.1752 29.9177V25.6257C33.7139 25.1207 33.1373 24.6158 32.157 24.6158C30.8308 24.6158 30.1964 25.6888 30.0811 26.6987C29.3315 26.1307 28.7549 24.4264 28.7549 23.4166C28.7549 19.1877 32.4453 18.6828 34.1752 18.9984V16.6C34.1752 15.5901 33.3103 14.6433 31.9264 13.4441C38.1539 10.9825 44.6698 5.5544 48.9368 0.378784C52.6273 2.71412 54.5301 5.93313 54.5301 11.2981V34.8408H54.4148ZM34.1175 36.7343C30.8307 37.4286 28.5243 39.8902 28.5243 42.8567C28.5243 45.4445 29.9081 47.6536 32.3876 48.5373C33.1372 47.4011 34.1175 45.3183 34.1175 43.551V36.7343ZM47.3223 38.7541C44.2085 35.2826 41.4984 33.0735 37.4043 33.0735C33.3103 33.0735 30.0235 35.3457 28.6396 39.4484C30.1964 36.9237 32.7336 35.2826 36.8853 35.2826C39.9991 35.2826 41.729 36.7343 45.3617 40.4582L47.3223 38.7541ZM36.0781 29.4758V25.8782C36.0781 24.3002 35.0978 23.606 34.0022 23.606C33.7716 23.606 33.195 23.7322 33.022 23.9215C34.2906 24.2371 34.8671 25.0576 34.9824 25.6257V29.7283L36.0781 29.4758ZM36.0781 36.4187L34.9824 36.545V43.551C34.9824 46.2019 33.2526 48.7897 33.2526 48.7897C33.3102 48.7897 33.9445 48.9791 34.4058 48.9159C35.1554 47.7798 36.0781 45.5707 36.0781 43.6141V36.4187ZM36.0781 16.0319C36.0781 15.022 35.2708 14.0752 34.4058 13.2547L33.4256 13.7597C34.2905 14.3277 34.9824 15.4007 34.9824 16.095V19.2508C35.3861 19.3771 35.6744 19.5033 36.0781 19.6926V16.0319ZM42.0173 29.6652V8.52092L40.9217 9.40458V29.3496L42.0173 29.6652ZM42.0173 47.9692V38.8803L40.9217 37.9966V46.833L42.0173 47.9692ZM47.1493 12.3711C47.1493 9.15208 45.3041 7.32166 44.0932 6.75361L42.8246 7.88975V29.9808C43.6319 30.4226 45.823 31.5587 47.0916 32.5686V12.3711H47.1493ZM49.1098 12.3711C49.1098 8.33155 47.0917 6.12248 45.7078 5.30196L44.9005 6.05933C46.0537 6.75362 48.0143 8.58402 48.0143 12.3711V33.1997C48.3026 33.3891 48.8215 33.8309 49.1098 34.1465V12.3711Z" fill="#231F20"></path>
    <path d="M93.8556 3.78703C92.4141 3.78703 91.7221 4.67069 91.7221 7.19538V36.7974C91.7221 44.0558 88.2623 46.3912 83.534 46.3912C79.7283 46.3912 74.2503 43.4247 71.7132 43.4247C70.2716 43.4247 69.4643 44.1189 69.4643 45.1288C69.4643 46.0756 70.2139 47.1485 71.6555 47.1485C72.3475 47.1485 73.616 46.7698 74.3656 46.1387C73.9043 47.8428 71.9438 50.4307 68.1957 50.4307C64.1594 50.4307 60.9879 47.5272 60.9879 43.614C60.9879 39.7007 63.2944 37.3023 67.3885 37.3023C72.1168 37.3023 75.2306 41.3418 79.5553 41.3418C82.2077 41.3418 84.3413 39.827 84.3413 35.9768V9.78317C84.3413 3.09274 87.5704 0.252484 91.2608 0.252484C93.5096 0.252484 95.8738 1.64106 96.681 4.98628C95.5854 4.22887 94.8935 3.78703 93.8556 3.78703ZM74.4809 9.72007C72.751 9.72007 71.0212 9.2782 69.2913 9.2782C68.2534 9.2782 67.7921 10.0988 67.7921 10.9193C67.7921 12.3079 68.8877 12.8128 69.9833 12.8128C70.6752 12.8128 71.3095 12.5603 71.8861 12.3079C71.4248 13.2546 70.1562 13.9489 68.3687 13.9489C64.9666 13.9489 62.7754 10.7931 62.7754 7.82655C62.7754 5.11251 64.217 1.32545 69.176 1.32545C72.2321 1.32545 74.8846 3.02966 77.5947 3.02966C79.6706 3.02966 80.6508 2.08287 81.5735 0C81.8041 0.946758 81.8618 1.83038 81.8618 2.58779C81.7464 8.52081 77.3064 9.72007 74.4809 9.72007ZM69.176 40.5844C67.6768 40.5844 66.0622 41.5943 66.0622 43.8034C66.0622 45.8862 67.8497 47.3379 70.0409 47.401C68.9453 46.8961 68.5994 45.8231 68.5994 45.0657C68.5994 43.614 69.695 42.541 71.7132 42.541C73.3277 42.541 74.6539 43.1091 76.6721 43.8665C73.6737 42.2254 71.5402 40.5844 69.176 40.5844ZM74.9999 6.87979C73.097 6.87979 71.1942 6.18552 69.176 6.18552C66.6388 6.18552 65.8315 8.71019 66.9848 10.6668C67.0424 9.90942 67.4461 8.26834 69.176 8.26834C71.0212 8.26834 72.6358 8.77331 74.5386 8.77331C76.7875 8.77331 81.1121 8.20522 81.1121 2.58779C80.3048 4.79689 78.6326 6.87979 74.9999 6.87979ZM83.015 9.97255V35.5981C83.015 38.5646 81.5158 39.9532 79.3822 39.9532C76.6144 39.9532 74.4233 38.0597 74.3656 35.7874C74.7693 36.0399 75.2883 36.2293 75.6919 36.2293C76.6722 36.1662 76.9028 35.2194 76.9028 32.9472V29.7913C76.6145 29.6651 76.3262 29.5389 75.7495 29.5389C74.481 29.5389 73.6737 30.2331 73.27 31.3692C72.0591 30.3594 71.3672 28.8446 71.3672 26.8879C71.3672 24.8051 72.6358 22.7853 75.4612 22.7853C75.9225 22.7853 76.4415 22.9116 76.8451 23.0378V22.091C76.3838 21.9648 75.7496 21.8385 75.1153 21.8385C73.6737 21.8385 72.2321 22.4698 71.3672 23.8583C70.9636 23.1009 70.5599 21.6492 70.5599 20.0081C70.5599 17.6728 72.0014 14.1383 76.1531 14.1383C76.4415 14.1383 76.6721 14.1383 76.9028 14.2014C77.4218 10.6668 81.1698 7.13226 83.8223 5.61745C83.2457 7.00603 83.015 8.3315 83.015 9.97255ZM76.8451 19.2508C76.6145 19.1876 76.0379 19.0614 75.4612 19.0614C73.5584 19.0614 72.4628 20.3238 72.5781 21.6492C73.5584 21.0812 74.3656 20.9549 74.9999 20.9549C75.8072 20.9549 76.3262 21.0811 76.8451 21.2705V19.2508ZM76.8451 27.2035C76.4415 27.0773 75.9801 27.0142 75.6342 27.0142C74.3656 27.0142 72.9817 27.8347 73.3277 29.7913C73.8466 29.097 74.5963 28.5921 75.7495 28.5921C76.1532 28.5921 76.6145 28.7183 76.8451 28.8445V27.2035V27.2035ZM77.7101 15.085V32.9472C77.7101 36.2293 77.2487 37.1761 76.1531 37.1761C75.7495 37.1761 75.5189 37.0498 75.2306 36.7974C75.4035 37.3654 75.8649 37.9334 76.6145 37.9334C77.8831 37.9334 78.8056 37.0498 78.8056 33.389V15.1481C78.8056 13.8227 79.0363 12.2447 79.2669 11.3611C78.3443 12.2447 77.7101 13.6333 77.7101 15.085ZM85.2062 9.78317V36.103C85.2062 39.8901 83.6493 41.4049 81.2275 42.1623C84.9179 42.6673 86.2441 39.7639 86.2441 36.4818V9.84627C86.2441 7.57405 86.3595 5.61742 86.6478 4.16572C85.4945 5.04936 85.2062 8.01589 85.2062 9.78317Z" fill="#231F20"></path>
</svg>