<svg viewBox="0 2 78 28" class="gnt_n_lg_svg">
    <circle cx="14" cy="16" r="14" fill="#009bff"></circle>
    <path d="M36 12.75a1.53 1.53 0 0 0 1.18-.45 1.82 1.82 0 0 0 .38-1.3V5.43h2.53V11A3.7 3.7 0 0 1 39 13.85a4.29 4.29 0 0 1-3 1 4.28 4.28 0 0 1-3-1A3.7 3.7 0 0 1 31.84 11V5.43h2.53V11a1.81 1.81 0 0 0 .42 1.28 1.52 1.52 0 0 0 1.21.47zm9.14 2.11a6.09 6.09 0 0 1-2.14-.39 5.26 5.26 0 0 1-1.8-1.11l1.22-1.54a4.17 4.17 0 0 0 1.22.77 3.89 3.89 0 0 0 1.5.28 1.64 1.64 0 0 0 .86-.19.63.63 0 0 0 .31-.57.67.67 0 0 0-.37-.59 5.35 5.35 0 0 0-1.3-.52l-.57-.15a4 4 0 0 1-1.9-1 2.35 2.35 0 0 1-.65-1.71 2.65 2.65 0 0 1 .48-1.5 3 3 0 0 1 1.28-1 4.64 4.64 0 0 1 1.89-.36 5.38 5.38 0 0 1 2 .39 5.82 5.82 0 0 1 1.71 1.03l-1.26 1.59a5.07 5.07 0 0 0-1.15-.73 3 3 0 0 0-1.31-.31 1.58 1.58 0 0 0-.84.18A.6.6 0 0 0 44 8a.7.7 0 0 0 .31.56 3.15 3.15 0 0 0 1.08.44l.69.19a4.25 4.25 0 0 1 2.11 1.12 2.42 2.42 0 0 1 .62 1.65 2.65 2.65 0 0 1-.46 1.54 3 3 0 0 1-1.29 1 4.73 4.73 0 0 1-1.92.36zm11.32-.18L55.87 13h-3.46l-.58 1.73h-2.5l3.39-9.25h2.94l3.34 9.2zM53 11.08h2.19l-1.04-3.24zM34.59 26.53v-7.21h-2.75v-2h8v2h-2.72v7.21zM45.16 26.71a4.92 4.92 0 0 1-2.47-.61A4.49 4.49 0 0 1 41 24.4a4.87 4.87 0 0 1-.63-2.48 5.15 5.15 0 0 1 .34-1.92 4.48 4.48 0 0 1 1-1.52 4.61 4.61 0 0 1 1.52-1 5.38 5.38 0 0 1 3.83 0 4.62 4.62 0 0 1 1.52 1 4.47 4.47 0 0 1 1 1.52 5.13 5.13 0 0 1 .42 1.92 4.87 4.87 0 0 1-.62 2.48 4.49 4.49 0 0 1-1.71 1.69 4.92 4.92 0 0 1-2.51.62zm0-2.09a2 2 0 0 0 1.16-.34 2.3 2.3 0 0 0 .78-.95 3.26 3.26 0 0 0 .29-1.41 3.31 3.31 0 0 0-.29-1.41 2.35 2.35 0 0 0-.78-1 2.12 2.12 0 0 0-2.33 0 2.35 2.35 0 0 0-.78 1 3.31 3.31 0 0 0-.29 1.41 3.26 3.26 0 0 0 .29 1.41 2.3 2.3 0 0 0 .78.95 2 2 0 0 0 1.17.33zm6.25 1.91v-9.25h3.65a4.88 4.88 0 0 1 2.43.59 4.31 4.31 0 0 1 1.65 1.63 5.12 5.12 0 0 1 0 4.8 4.31 4.31 0 0 1-1.65 1.63 4.88 4.88 0 0 1-2.43.59zm2.49-2h1.16a1.91 1.91 0 0 0 1.57-.72 3 3 0 0 0 .58-1.9 3 3 0 0 0-.58-1.9 1.91 1.91 0 0 0-1.57-.72H53.9zm13.3 2l-.58-1.73h-3.47l-.58 1.73h-2.5l3.39-9.25h2.94l3.39 9.25zm-3.41-3.6H66l-1.09-3.24zm10.88.27v3.33H72.1V23.2l-3.28-5.92h2.86L73.39 21l1.7-3.67h2.86z" fill="#404040"></path>
</svg>