<svg height="60px" viewBox="0 0 200 59" version="1.1"
    xmlns="http://www.w3.org/2000/svg">
    <title>CBC News</title>
    <g id="Page-1" fill-rule="evenodd">
        <path id="logo-part-eye-cbs" d="M30.56 15.98c0 4.234-1.491 7.844-4.474 10.826-2.983 2.984-6.578 4.475-10.786 4.475-4.208 0-7.81-1.491-10.806-4.475C1.498 23.824 0 20.214 0 15.98c0-4.208 1.498-7.804 4.494-10.786C7.49 2.212 11.092.719 15.3.719c4.208 0 7.803 1.493 10.786 4.475 2.983 2.982 4.475 6.578 4.475 10.786m-.919.02c-1.2-2.642-3.054-4.79-5.56-6.446C21.44 7.766 18.506 6.87 15.28 6.87c-3.227 0-6.175.895-8.841 2.683-2.48 1.655-4.32 3.804-5.52 6.446 1.2 2.643 3.04 4.804 5.52 6.486 2.666 1.762 5.614 2.643 8.841 2.643 3.227 0 6.16-.88 8.801-2.643 2.507-1.682 4.36-3.843 5.561-6.486m-6.232-.02c0 2.237-.793 4.149-2.377 5.733-1.585 1.584-3.496 2.377-5.733 2.377-2.237 0-4.148-.793-5.732-2.377-1.585-1.584-2.378-3.496-2.378-5.733 0-2.238.793-4.14 2.378-5.713 1.584-1.57 3.495-2.357 5.732-2.357s4.148.786 5.733 2.357c1.584 1.572 2.377 3.475 2.377 5.713"></path>
    </g>
    <g id="Page-1" fill-rule="evenodd">
        <path id="logo-part-cbs-news" d="M.282 16c0-7.89 6.51-14.4 14.992-14.4 7.694 0 11.64 5.524 11.64 5.524l-3.946 3.945s-2.762-3.945-7.694-3.945A8.84 8.84 0 006.398 16a8.84 8.84 0 008.876 8.877c5.13 0 7.89-3.945 7.89-3.945l3.946 3.945s-3.945 5.524-11.836 5.524C6.792 30.4.282 23.89.282 16M29.32 2.191h11.64c5.522 0 8.876 3.354 8.876 7.299 0 4.34-3.748 5.72-3.748 5.72s5.128 1.381 5.128 6.707c0 4.34-3.55 7.891-9.468 7.891H29.319V2.192zm11.244 10.652c1.973 0 3.157-1.183 3.157-2.761S42.536 7.32 40.563 7.32h-5.325v5.523h5.325zm.79 11.836c2.367 0 3.747-1.381 3.747-3.354 0-1.972-1.38-3.353-3.747-3.353h-6.116v6.707h6.116zm10.572 1.38l3.946-3.945s2.366 2.96 6.509 2.96c3.156 0 4.537-1.382 4.537-3.157 0-4.734-13.808-2.564-13.808-12.23 0-4.34 3.748-8.088 10.06-8.088 6.116 0 9.272 3.748 9.272 3.748l-3.946 3.945s-1.973-2.367-5.129-2.367c-2.959 0-4.142 1.184-4.142 2.762 0 4.734 13.808 2.564 13.808 12.23 0 4.538-3.945 8.482-10.454 8.482-7.102 0-10.653-4.34-10.653-4.34m30.97-23.868h5.326l13.413 17.162V2.192h5.919v27.617h-5.326L88.812 12.647v17.162h-5.917V2.192zm28.682 0h20.515v5.524h-14.598v5.325h11.442v5.326h-11.442v5.919h14.993v5.523h-20.91V2.192zm22.29 0h6.116l5.72 18.543h.197l5.72-18.543h5.524l5.721 18.543h.198l5.72-18.543h6.115l-9.074 27.617h-5.72L154.5 11.86h-.237l-5.602 17.95h-5.72l-9.075-27.617zm40.597 23.869l3.946-3.946s2.367 2.96 6.509 2.96c3.156 0 4.537-1.382 4.537-3.157 0-4.734-13.808-2.564-13.808-12.23 0-4.34 3.748-8.088 10.06-8.088 6.116 0 9.272 3.748 9.272 3.748l-3.946 3.945s-1.972-2.367-5.129-2.367c-2.959 0-4.142 1.184-4.142 2.762 0 4.734 13.808 2.564 13.808 12.23 0 4.538-3.945 8.482-10.454 8.482-7.102 0-10.653-4.34-10.653-4.34"></path>
    </g>
</svg>