<svg xmlns="http://www.w3.org/2000/svg" viewBox="0 0 414.84 84.8"><g fill="#fff"><path d="M91.93 54.15V30.67h23.48v23.48H91.93zM185.13 58.63c0 17.68-12.91 26.17-30.71 26.17-17.72 0-31.38-8.1-32.82-26.74h18.9c2.13 14.86 25.9 13.45 25.9 1.73 0-13.2-42.69-6.22-42.69-35.48C123.71 9.19 136.98 0 153.38 0c16.31 0 29.03 8.06 30.62 25.7h-19.18C163.43 11.99 143 13.95 143 23.73c0 13.9 42.13 5.63 42.13 34.9zm44.92 3.46c17.24 0 30.05-13.16 30.05-30.17S247.29 1.64 230.05 1.64h-38.32v81.54h19.8V62.09h18.52zm-18.52-17.01V18.64h15.72c7.34 0 13.05 5.36 13.05 13.28 0 7.92-5.71 13.16-13.05 13.16h-15.72zm100.25 38.09h21.43L298.15 1.63h-14.91l-35.06 81.54h21.43l4.08-11.53h33.9l4.19 11.53zM290.7 24.7l11.07 30.75h-22.25L290.7 24.7zm104.34 25.5L353.57 1.63H336.1v81.54h19.8V34.71l41.47 48.45h17.47V1.63h-19.8V50.2zM64.86 54.15c-3.14 7.57-10.23 13.41-21.41 13.41-15.61 0-23.65-11.3-23.65-25.16s8.04-25.16 23.65-25.16c11.19 0 18.27 5.85 21.41 13.43h19.7C80.72 14.35 65.59 0 43.56 0 16.54 0 0 19.34 0 42.4s16.54 42.4 43.56 42.4c22.02 0 37.15-14.34 40.98-30.65H64.86z"/></g></svg>