<?xml version="1.0" encoding="UTF-8"?>
<svg width="476px" height="72px" viewBox="0 0 476 72" version="1.1" xmlns="http://www.w3.org/2000/svg" xmlns:xlink="http://www.w3.org/1999/xlink">
    <!-- Generator: sketchtool 50.2 (55047) - http://www.bohemiancoding.com/sketch -->
    <title>680E8D62-0F4C-407F-A365-735C7BB2FA8A</title>
    <desc>Created with sketchtool.</desc>
    <defs></defs>
    <g id="CHI-Style-Guide" stroke="none" stroke-width="1" fill="none" fill-rule="evenodd">
        <g id="LOGOS" transform="translate(-620.000000, -356.000000)" fill="#004E87">
            <g id="BRAND-/-CHI-/-logo_chi_full_chiblue" transform="translate(620.000000, 356.000000)">
                <path d="M475.185429,30.9334286 C469.947429,34.1357143 463.722857,38.2611429 458.966571,41.6837143 L458.966571,50.5482857 L466.698857,54.8228571 L470.974286,50.4231429 L471.54,50.9245714 L461.544857,61.2368571 L447.712286,52.8111429 L447.712286,52.6234286 C449.087143,52.2351429 449.851714,51.3642857 449.851714,48.2211429 L449.851714,28.7322857 C455.445429,26.2182857 461.355429,22.0688571 465.63,18.8614286 L475.185429,30.9334286 Z M466.764,35.2722857 C465.462857,33.4362857 461.268,27.2468571 459.468857,24.396 L458.966571,24.708 L458.966571,40.4888571 L466.764,35.2722857 Z" id="e"></path>
                <path d="M446.769429,53.1257143 L438.847714,61.2368571 C433.756286,59.6014286 431.806286,56.6468571 431.806286,52.056 L431.806286,28.5428571 L427.593429,25.5265714 L423.883714,29.3614286 L423.883714,53.6297143 L426.84,55.5137143 L420.236571,61.2368571 L412.818857,55.074 L412.818857,54.8871429 C414.392571,54.132 414.768857,53.3477143 414.768857,50.484 L414.768857,29.6125714 C414.768857,27.2862857 413.574,25.5891429 411.437143,25.338 L409.048286,27.7902857 L408.418286,27.1602857 L416.466,18.9257143 C421.181143,20.1188571 423.883714,23.2105714 423.883714,27.9771429 L432.561429,18.9257143 C435.453429,21.0625714 439.624286,24.0231429 442.746,25.9037143 L442.746,26.0931429 C441.425143,26.5945714 440.984571,27.6008571 440.984571,30.2417143 L440.984571,50.1085714 C440.984571,52.848 441.921429,53.9442857 443.941714,54.8871429 L446.203714,52.56 L446.769429,53.1257143" id="n"></path>
                <path d="M410.243143,53.1874286 L402.509143,61.2368571 C398.674286,60.5434286 395.340857,56.898 395.340857,53.0005714 L386.162571,61.2368571 C382.571143,58.77 379.320857,56.5174286 376.228286,54.6968571 L376.228286,54.5074286 C377.910857,53.6014286 378.24,53.1008571 378.24,49.9182857 L378.24,29.298 C378.24,27.1131429 377.172857,25.9037143 375.411429,25.2737143 L373.211143,27.5391429 L372.583714,26.9708571 L380.316,18.9257143 C384.150857,20.244 387.357429,23.202 387.357429,27.9771429 L387.357429,52.056 L391.696286,55.0122857 L395.277429,51.7431429 L395.277429,26.5311429 L392.638286,24.708 L398.988857,18.9257143 L406.344857,24.8974286 L406.344857,25.0225714 C404.950286,25.6705714 404.458286,26.4051429 404.458286,28.9834286 L404.458286,49.4168571 C404.458286,52.6234286 404.898857,53.8174286 407.540571,54.8871429 L409.614,52.6234286 L410.243143,53.1874286" id="u"></path>
                <path d="M371.514,26.8457143 C369.972857,27.486 369.627429,28.65 369.627429,30.6805714 L369.627429,51.5537143 C365.839714,53.1754286 357.368571,57.7834286 353.094,61.2368571 C350.057143,59.124 345.235714,55.812 341.337429,53.5045714 L341.337429,53.3134286 C343.034571,52.6234286 343.412571,51.6608571 343.412571,48.2211429 L343.412571,7.79657143 C343.412571,4.968 342.909429,3.522 342.282,2.39057143 L342.655714,2.20114286 C343.979143,3.33257143 344.856857,4.65342857 345.235714,6.47571429 L345.359143,6.47571429 C347.385429,3.10028571 349.905429,0.940285714 354.791143,0.314571429 L354.854571,0.690857143 C353.495143,2.35971429 352.528286,3.86914286 352.528286,7.10571429 L352.528286,27.1602857 L360.322286,18.9257143 C363.031714,20.8902857 368.510571,24.8074286 371.514,26.6588571 L371.514,26.8457143 Z M360.45,55.3277143 L360.45,28.9217143 L355.356857,25.4631429 L352.528286,28.356 L352.528286,50.7377143 L359.506286,55.8282857 L360.45,55.3277143 Z" id="b"></path>
                <polyline id="." points="334.106571 7.60714286 328.638857 13.2025714 323.040857 7.86085714 328.638857 1.88657143 334.106571 7.60714286"></polyline>
                <path d="M340.016571,52.8745714 L331.968857,61.2368571 C327.443143,59.6657143 324.865714,57.4645714 324.865714,51.8048571 L324.865714,27.1602857 L322.413429,25.3997143 L320.148857,27.726 L319.584857,27.1602857 L327.443143,18.9874286 L335.803714,24.5211429 L335.803714,24.6471429 C334.516286,25.4262857 333.917143,25.9731429 333.917143,27.852 L333.917143,50.7985714 C333.917143,52.6465714 335.079429,54.4791429 337.060286,54.7611429 L339.450857,52.3088571 L340.016571,52.8745714" id="i"></path>
                <path d="M320.401714,21.5648571 C319.962,24.708 317.573143,28.9217143 313.422,28.9217143 C310.762286,28.9217143 308.832857,27.4114286 307.764857,25.7142857 L307.073143,26.4051429 C307.106571,26.7651429 307.135714,27.5331429 307.135714,27.9154286 L307.135714,50.9245714 L314.051143,54.8228571 L316.375714,52.434 L317.005714,53.0005714 L308.832857,61.2985714 L296.259429,53.3134286 L296.259429,53.1257143 C297.705429,52.4965714 298.145143,51.6694286 298.145143,49.4785714 L298.145143,30.3034286 C298.145143,27.0985714 297.454286,25.6525714 294.876857,25.1485714 L292.424571,27.6642857 L291.795429,27.0985714 L299.778857,18.9257143 C303.685714,19.9808571 306.192857,22.2557143 306.884571,25.4631429 L313.045714,18.9874286 C314.240571,20.5585714 315.684857,21.7542857 317.382,21.7542857 C318.513429,21.7542857 319.332,21.5648571 320.148857,21.1885714 L320.401714,21.5648571" id="r"></path>
                <path d="M296.658857,1.76057143 C295.763143,8.712 292.906286,14.9014286 285.531429,14.9014286 C284.650286,14.9014286 283.330286,14.7745714 282.764571,14.7128571 L282.764571,55.9542857 C287.228571,55.3277143 292.362857,53.1625714 294.521143,51.4285714 L294.835714,52.2454286 C291.472286,57.0677143 282.192857,64.4417143 270.699429,64.4417143 C256.163143,64.4417143 244.923429,54.8742857 244.923429,39.4208571 C244.923429,26.1034286 255.914571,16.5 263.091429,13.9577143 L263.718857,14.2088571 C258.712286,18.7697143 255.169714,24.99 255.169714,34.7682857 C255.169714,42.9308571 258.312857,48.0342857 263.154,51.9942857 L265.858286,50.6117143 L265.858286,25.5891429 C265.858286,22.8857143 264.978,22.0054286 263.972571,21.816 L263.972571,21.5648571 L276.099429,15.1525714 L276.099429,46.4622857 L263.909143,52.6234286 C267.177429,55.1374286 272.396571,56.4582857 277.357714,56.4582857 C279.063429,56.4582857 279.849429,56.376 281.758286,56.0794286 L281.758286,14.7128571 C272.711143,13.9577143 263.071714,10.1228571 255.673714,10.1228571 C250.477714,10.1228571 246.556286,12.258 246.556286,16.2222857 C246.556286,18.6128571 248.436857,19.6414286 249.638571,20.1822857 L248.632286,20.748 C246.426857,19.7442857 243.664286,17.346 243.664286,12.2605714 C243.664286,4.85742857 249.624,0 257.622,0 C268.689429,0 279.082286,5.84828571 288.864,5.84828571 C291.877714,5.84828571 294.675429,4.24971429 296.092286,1.32085714 L296.658857,1.76057143" id="T"></path>
                <path d="M229.284857,26.6725714 C228.028286,27.2382857 227.337429,27.9917143 227.337429,31.0088571 L227.337429,51.318 C223.603714,52.9465714 215.140286,57.7174286 210.865714,61.1237143 C206.275714,58.044 203.885143,56.3468571 199.172571,53.3914286 L199.172571,53.2037143 C200.490857,52.5745714 201.120857,51.8828571 201.120857,48.7397143 L201.120857,28.6208571 C206.841429,25.854 213.064286,21.9557143 217.466571,18.7508571 C220.264286,20.6142857 226.08,24.408 229.284857,26.484 L229.284857,26.6725714 Z M218.158286,55.2162857 L218.158286,29.1865714 C216.029143,27.8682857 212.562857,25.2265714 211.116,24.1568571 L210.235714,24.6608571 L210.235714,50.814 C211.305429,51.5682857 214.889143,54.0205714 217.088571,55.7177143 L218.158286,55.2162857 Z" id="o"></path>
                <path d="M196.405714,58.1082857 C196.405714,60.552 192.976286,63.1362857 189.238286,66.1534286 C184.344857,70.1074286 181.818857,72 181.818857,72 C179.397429,70.6345714 177.996857,70.2411429 174.400286,70.2411429 C169.866857,70.2411429 167.297143,70.7125714 164.089714,72 L163.901143,71.9382857 C166.482,67.1305714 171.608571,63.1362857 178.800857,63.1362857 C182.007429,63.1362857 185.634857,64.4648571 187.98,66.0282857 C188.603143,65.6374286 190.557429,64.1665714 190.557429,63.0745714 C190.557429,59.8645714 184.521429,60.2434286 183.642857,54.2717143 L176.916,61.1237143 C169.031143,56.004 164.530286,53.2037143 164.530286,53.2037143 L164.530286,52.9508571 C166.083429,52.29 166.478571,51.504 166.478571,47.6065714 L166.478571,28.6208571 C173.130857,25.1134286 179.290286,21.6042857 183.013714,18.7508571 L194.706857,26.484 L194.706857,26.6725714 C193.26,27.426 192.758571,28.0551429 192.758571,31.5137143 L192.758571,49.4931429 C192.758571,53.7942857 196.405714,54.1971429 196.405714,58.1082857 Z M183.516,53.1402857 L183.516,28.9354286 C179.994,26.7617143 176.538,24.0317143 176.538,24.0317143 L175.595143,24.5974286 L175.595143,50.4985714 L181.944,54.8374286 L183.516,53.1402857 Z" id="g"></path>
                <path d="M162.833143,52.9508571 L154.847143,61.062 C151.210286,59.8594286 148.151143,57.954 147.87,52.8891429 L138.878571,61.062 C134.478857,59.1762857 131.334857,55.2017143 131.334857,50.1857143 C131.334857,43.4528571 136.766571,39.9762857 141.769714,38.1762857 L141.769714,38.1128571 C137.466857,36.0265714 133.938,32.0734286 132.970286,27.3 L146.800286,18.7508571 L159.186,27.0497143 L159.186,27.2382857 C157.678286,27.8682857 157.048286,28.6208571 157.048286,31.4494286 L157.048286,49.8711429 C157.048286,51.936 157.910571,54.138 160.002,54.7122857 L162.267429,52.3851429 L162.833143,52.9508571 Z M147.87,36.7302857 L147.87,29.2508571 L140.073429,23.9057143 L139.068,24.5357143 C139.380857,28.9671429 139.994571,34.7657143 142.965429,37.7365714 C144.047143,37.3654286 146.571429,36.8785714 147.87,36.7302857 Z M147.87,51.6934286 L147.87,37.5471429 C142.395429,38.1925714 139.319143,42.0685714 139.319143,46.9148571 C139.319143,50.9382857 140.766,53.3914286 144.411429,54.8374286 L147.87,51.6934286 Z" id="a"></path>
                <path d="M133.094571,21.0137143 C132.804,24.8031429 129.901714,28.6208571 125.865429,28.6208571 C122.105143,28.6208571 119.779714,26.3314286 118.510286,23.6528571 L118.007143,23.97 L118.007143,50.1857143 L125.361429,54.5862857 L129.386571,50.4368571 L130.014857,51.0034286 L120.395143,60.9985714 L107.004,52.8891429 L107.004,52.638 C108.388286,52.1957143 108.954,50.814 108.954,48.612 L108.954,28.3062857 C114.612,25.3525714 120.748286,21.5237143 124.481143,18.8125714 C125.211429,20.0142857 126.876857,21.516 129.007714,21.516 C130.775143,21.516 132.157714,21.114 132.844286,20.6374286 L133.094571,21.0137143" id="c"></path>
                <polyline id="." points="99.9625714 7.43485714 94.494 13.0302857 88.8985714 7.68514286 94.494 1.71171429 99.9625714 7.43485714"></polyline>
                <path d="M105.873429,52.6997143 L97.8248571,61.062 C93.2991429,59.4908571 90.7208571,57.2897143 90.7208571,51.63 L90.7208571,26.9854286 L88.2685714,25.2265714 L86.0057143,27.5511429 L85.4408571,26.9854286 L93.2991429,18.8125714 L101.660571,24.3462857 L101.660571,24.4714286 C100.370571,25.2514286 99.7748571,25.9174286 99.7748571,28.6208571 L99.7748571,50.6237143 C99.7748571,52.4708571 100.934571,54.3042857 102.917143,54.5862857 L105.306857,52.134 L105.873429,52.6997143" id="i"></path>
                <path d="M87.138,52.9508571 L79.1537143,61.062 C74.94,59.8054286 72.1757143,57.1457143 72.1757143,51.9445714 L72.1757143,28.7468571 L67.0825714,25.2882857 L64.2531429,28.2445714 L64.2531429,53.5165714 L67.2085714,55.3414286 L60.6068571,61.062 L53.1248571,54.8374286 L53.1248571,54.7122857 C54.3677143,54.3677143 55.1374286,53.3271429 55.1374286,50.3734286 L55.1374286,7.37057143 C55.1374286,4.22742857 54.5708571,3.28542857 53.9425714,2.21571429 L54.3822857,2.02628571 C55.7605714,3.22971429 56.6237143,4.23771429 56.9597143,6.36428571 L57.0857143,6.36428571 C59.1102857,2.98714286 61.6294286,0.765428571 66.516,0.139714286 L66.642,0.392571429 C65.2825714,2.05714286 64.2531429,3.876 64.2531429,6.67971429 L64.2531429,27.0497143 L72.0488571,18.8125714 C74.8877143,20.748 80.1874286,24.6051429 83.3022857,26.484 L83.3022857,26.6725714 C82.2077143,27.1397143 81.354,27.9917143 81.354,30.7585714 L81.354,49.8077143 C81.354,52.5951429 82.0457143,53.58 84.3085714,54.7122857 L86.5714286,52.3851429 L87.138,52.9508571" id="h"></path>
                <path d="M52.6217143,2.09057143 C52.3894286,7.56171429 48.5357143,12.6514286 41.6828571,12.6514286 C40.8128571,12.6514286 40.0208571,12.5794286 39.294,12.4002857 L39.294,55.6534286 C43.698,55.0945714 47.6845714,53.1994286 51.3642857,50.6237143 L51.678,51.5682857 C47.6082857,56.3142857 39.9222857,64.08 28.0397143,64.08 C11.8722857,64.08 0,53.1008571 0,34.3422857 C0,17.1402857 14.1925714,7.59685714 23.388,4.038 L24.1414286,4.41685714 C15.4714286,10.1725714 10.8137143,17.1291429 10.8137143,29.2508571 C10.8137143,39.9394286 14.6485714,47.5448571 20.4325714,52.008 L22.3817143,50.688 L22.3817143,17.4934286 C22.3817143,14.4497143 21.942,13.4065714 20.496,13.0302857 L20.496,12.7765714 C26.2791429,9.88457143 35.4582857,4.91828571 40.5505714,0.894857143 C42.1217143,2.73 44.0785714,3.53657143 46.5231429,3.53657143 C49.1922857,3.53657143 50.9871429,2.592 52.1811429,1.71171429 L52.6217143,2.09057143 Z M38.2877143,55.782 L38.2877143,12.0857143 C35.9957143,11.2114286 34.3928571,9.41485714 32.9442857,7.30714286 L32.6297143,7.43485714 L32.6297143,45.0282857 L21.1868571,52.638 C25.1048571,55.35 30.8134286,55.8428571 36.6531429,55.8428571 C37.2042857,55.8428571 37.7494286,55.8231429 38.2877143,55.782 Z" id="C"></path>
            </g>
        </g>
    </g>
</svg>