<svg xmlns="http://www.w3.org/2000/svg" viewBox="0 0 310.71 31.61" class="dmnc_chains-site-header-config-frame-frame-module__K-GOA z-10" style="transform: translate(-50%, -50%) scale(1.5); top: 115.2px;">
    <title>TDMN</title>
    <g data-name="Layer 2">
        <g data-name="TDMN DARK" fill="#231f20">
            <path d="M20.1 21.12q-2.57 5.58-9 5.58A11.12 11.12 0 013 23.77a10.19 10.19 0 01-3-7.66 9.29 9.29 0 012.78-6.82A12.72 12.72 0 019.08 6l.15.12A10.64 10.64 0 006 9.76a12.07 12.07 0 00-1.51 6.05 7.45 7.45 0 001.89 5.49 7.81 7.81 0 005.82 2 9.18 9.18 0 001.8-.09V6.64a19.1 19.1 0 01-4.79-1.11 15.56 15.56 0 00-3.82-1Q1.82 4.54 1.73 8h-.25A5.08 5.08 0 01.8 5.5a4.32 4.32 0 011.39-3.4A5.72 5.72 0 016.11.86 16.52 16.52 0 0111.18 2a16.77 16.77 0 004.38 1.17q2 0 2-1.23c0-.72-.4-1.08-1.18-1.08a3.56 3.56 0 00-.83.15l.25-.53a4.16 4.16 0 01.8-.09 2.75 2.75 0 011.88.65 2.67 2.67 0 01.87 2.16 3.29 3.29 0 01-1 2.53 3.61 3.61 0 01-2.55 1h-1.32v16.39a9.38 9.38 0 003.09-.83 7.75 7.75 0 002.28-1.48l.25.31m-7.32-5.19a4.45 4.45 0 01-2.44 4l-2.47 1.49-.31-.37a2.75 2.75 0 001.49-2.46v-9l-1.42.77-.22-.52L12.78 7zM32.85 11.27L32 12v13.32a5.08 5.08 0 01-1.77 4 6.34 6.34 0 01-4.34 1.56 5.41 5.41 0 01-1.88-.31l-.01-.16c2.61 0 3.92-1.89 3.92-5.65V12.22l-2.1-1.75-.56.49V22L27 23.18 24.05 26l-3.61-2.77v-.07l.71-.61V3.15a5.5 5.5 0 00-.44-2.29h.07a2.56 2.56 0 011.08 1.89h.06A5.22 5.22 0 0126.06 0l.09.09a4.41 4.41 0 00-.9 2.75v7.56l3-2.81 4.57 3.62v.06M45 13.27l-6.1 4.17v3.8l3.42 1.88L44 21.49l.4.37L40 26l-5.8-3.16v-.06l.59-.65V11.88A48.27 48.27 0 0042 7.62l3 5.65m-3.61 1.86l-2.38-5.07-.15.07v6.73zM71 22a21.33 21.33 0 00-6 4.79 8.27 8.27 0 00-5.68-2q-5.49 0-5.49 2.69a2.11 2.11 0 00.88 1.74 3 3 0 001.93.69 2.62 2.62 0 001.82-.58l-.16.68a4.46 4.46 0 01-1.91.37 4.26 4.26 0 01-2.84-1 3.67 3.67 0 01-1.27-3 4.56 4.56 0 012.44-4 11.53 11.53 0 016-1.42V5.5a18.3 18.3 0 01-3 .27 7.44 7.44 0 01-4.59-1.11 4.15 4.15 0 01-1.39-3.46q0-.18.15-1.17h.19a2.71 2.71 0 001.17 1.67 7.36 7.36 0 003.4.58 25 25 0 004.21-.55A25.29 25.29 0 0165 1.14q6 0 6 6.64V22M60.14 6.58a3 3 0 00-1 2.5v7.22q0 3.82-5.28 5.53l-.31-.31a3 3 0 001.64-3.06v-3.09h-.68a1.74 1.74 0 00-2 1.33h-.12a2.59 2.59 0 01-.39-1.6 2.42 2.42 0 012.74-2.75h.47V10.8q0-3.51 4.72-4.44zm6.48 5.18V8.27A4.15 4.15 0 0066 5.76 2.37 2.37 0 0064 5a19 19 0 00-2.76.4v6.36a10.52 10.52 0 002.64.37 8.79 8.79 0 002.74-.37zm0 3.43v-3a9.14 9.14 0 01-2.73.38 10.08 10.08 0 01-2.64-.38v3a8.73 8.73 0 012.64-.37 9.34 9.34 0 012.73.37zm0 7.59v-7.16a9.94 9.94 0 00-2.73-.37 9.83 9.83 0 00-2.64.37V21a10.28 10.28 0 015.34 1.76zM87.18 22.45L83.66 26l-3.58-2.87L76.34 26a4.88 4.88 0 01-2.44-1.81 5.57 5.57 0 01-1.2-3.45 5.65 5.65 0 011.11-3.5 5.32 5.32 0 012.75-1.94 12.68 12.68 0 01-2-2.74 6.8 6.8 0 01-1-3.11 2 2 0 01.47-1.34 1.48 1.48 0 011.17-.54c1 0 1.45.52 1.45 1.55 0 .73-.51 1.16-1.54 1.3a2.44 2.44 0 001.23.27 3.5 3.5 0 002.1-1.08 9.27 9.27 0 001.82-2.07l4.54 2.94v.06l-.65.59v10.63l1.73 1.33.93-1 .34.35m-7.1-7.76V12l-2-1.42a2.62 2.62 0 01-1.73.62 2.78 2.78 0 01-1.88-.53l-.06.06q.24 1.83 2.75 4.42a13.46 13.46 0 012.95-.46zm0 7.85v-7.4a2.78 2.78 0 00-2.27 1.37 5.1 5.1 0 00-1 3c0 2.1.64 3.46 1.94 4.07z"></path>
            <path d="M94.8 22.23L91 26l-3.89-3 .71-.5V3.24a5.41 5.41 0 00-.4-2.24h.07a3 3 0 011.08 1.88h.06a5.55 5.55 0 014.2-2.76v.1A4.72 4.72 0 0092 3v18.73l1.45 1.14 1-1 .43.37"></path>
            <path d="M102.43 22.23L98.66 26l-3.89-3 .71-.5V3.24A5.41 5.41 0 0095.05 1h.06a2.92 2.92 0 011.08 1.88h.06a5.59 5.59 0 014.2-2.72v.1A4.78 4.78 0 0099.59 3v18.73l1.41 1.14 1-1 .43.37"></path>
            <path d="M116.72 22.45L113.2 26l-3.58-2.87-3.73 2.87a4.84 4.84 0 01-2.44-1.81 5.52 5.52 0 01-1.21-3.45 5.65 5.65 0 011.11-3.5 5.32 5.32 0 012.75-1.94 12.32 12.32 0 01-2-2.74 6.8 6.8 0 01-1-3.11 2 2 0 01.46-1.34 1.48 1.48 0 011.17-.54c1 0 1.45.52 1.45 1.55 0 .73-.51 1.16-1.54 1.3a2.45 2.45 0 001.24.27A3.56 3.56 0 00108 9.66a9.8 9.8 0 001.82-2.07l4.53 2.94v.06l-.64.59v10.58l1.73 1.33.92-1 .34.35m-7.1-7.76V12l-2-1.42a2.66 2.66 0 01-1.73.62 2.79 2.79 0 01-1.89-.53l-.06.06c.17 1.22 1.08 2.69 2.75 4.42a13.46 13.46 0 012.95-.46zm0 7.85v-7.4a2.79 2.79 0 00-2.27 1.37 5.1 5.1 0 00-1 3c0 2.1.65 3.46 1.94 4.07z"></path>
            <path d="M128.67 6.51a8.52 8.52 0 01-1.61 3.34L124.35 14l3.65 1.87v6.7a17.13 17.13 0 00-4.72 3.58 4.22 4.22 0 00-3-1.3q-3.83 0-3.83 2.35c0 1.54.87 2.34 2.6 2.4l-.47.53a2.84 2.84 0 01-2.71-3 4.62 4.62 0 01.71-2.19c.14-.28.56-.95 1.26-2l2.91-4.36-4.14-2.13v-4.81a20.64 20.64 0 006.67-4.14 2.76 2.76 0 002.37 1.27 2.47 2.47 0 001.67-.62 2 2 0 00.71-1.6 2.23 2.23 0 00-.51-1.55l.78.12a2.49 2.49 0 01.37 1.42m-4.85 11.61l-1.6-.83-3.65 5.49a5.64 5.64 0 013-.74 3.45 3.45 0 012.19.71zm2-7.25a4.45 4.45 0 01-2.21.61 4.3 4.3 0 01-2.83-1.29v4l2.07 1.14zM144.41 1.7l-.86.77C141.8 4 140.27 4.82 139 4.82a9.84 9.84 0 01-1.69-.28 9.23 9.23 0 00-1.55-.28c-1.28 0-1.92.47-1.92 1.42s.59 1.4 1.76 1.42l-.31.43c-1.48-.1-2.22-1-2.22-2.68a3.24 3.24 0 011.11-2.61 4.32 4.32 0 012.9-.94 8 8 0 012.57.57 7.86 7.86 0 002.13.57 2.94 2.94 0 001.39-.28 5.5 5.5 0 001-.77l.28.31m18.4 20.9l-3.64 3.86-3.71-3V6.33l-3-1.88v8h.92l-.92 3v7.31l.65.5 1.08-1.08.4.37-3.8 3.89-4.83-3.35V23l.74-.62v-6.91h-2l.93-3h1V6.08l-2.84-1.94v14.51a11.74 11.74 0 01-.7 4.93 4.44 4.44 0 01-3 2 10.55 10.55 0 00-3.05 1.21 1.82 1.82 0 00-.77 1.56c0 1.4 1 2.1 2.93 2.1a2.64 2.64 0 001.85-.65l-.15.74a4.13 4.13 0 01-2 .46 5.48 5.48 0 01-3.15-.89 3.07 3.07 0 01-1.45-2.66c0-2.32 1.54-3.84 4.63-4.54a7.39 7.39 0 003.27-1.35 3.52 3.52 0 001-2.78l-.12-14.2a2.8 2.8 0 00-.74 1.51 18 18 0 00-.09 2.25v10.18a2.91 2.91 0 01-1.5 2.41 8.13 8.13 0 01-3.69 1.27l-.15-.34a2.43 2.43 0 001.29-2.29v-4.1h-.68c-1.09 0-1.74.44-1.94 1.32h-.13a2.64 2.64 0 01-.46-1.6 2.43 2.43 0 012.97-2.75h.46V10.6a4.47 4.47 0 01.9-2.72A27.73 27.73 0 01143 4.21l3.34-2.91 4.93 3.11 3.25-3.27 6.05 3.37v.06l-.71.77v16.79l1.51 1.15 1.05-1.08zM152 12.44V4.51l-.8.83v7.1zm0 10.1v-7.07h-.8v6.42z"></path>
            <path d="M175.25 11.7l-.65.59v9.54A42.14 42.14 0 00167 26l-4.2-3v-.07l.62-.64V12.16a30.89 30.89 0 003.38-2 33.74 33.74 0 003.47-2.57l4.94 4.05v.06m-4.78 11.85V12.44l-2.75-2.31-.13.09v11.51l2.6 1.95zM187.75 11.47l-2.9 2.88a8.35 8.35 0 01-2.53-3.61L182 11v10.36l2.72 1.55 1-1 .37.34-3.8 3.75-5.29-3.13v-.06l.9-.74v-10l-1.3-1.45-1 1-.37-.34 3.83-3.68 2.78 3 3.15-3a15.19 15.19 0 002.74 3.88"></path>
            <path d="M204.02 22.23l-3.73 3.76-3.19-2.44V12.23l-2.09-1.73-.56.46v11.08l1.76 1.14-2.93 2.81-3.68-2.78v-.06l.75-.58v-10.5l-1.3-1.45-1.02.99-.37-.34 3.83-3.68 2.78 2.97 3.21-2.97 4.57 3.59v.06l-.84.77v9.72l1.48 1.15.96-1.02.37.37M212.17 22.23L208.44 26l-3.93-3v-.06l.78-.59V12L204 10.62l-1.05 1-.31-.34 3.77-3.68 3.76 3.52v.07l-.74.58v9.93l1.42 1.17 1-1 .37.37m-1.56-19.4q-1 .93-3.74 3.55L204.39 4l-.89.84-.31-.31C204.79 3 206 1.86 206.89 1l2.6 2.37.86-.8zM227.11 22.23l-3.73 3.76-3.18-2.44V12.23l-2.1-1.73-.56.46v11.08l1.76 1.14-2.93 2.81-3.67-2.78v-.06l.74-.58v-10.5l-1.3-1.45-1.02.99-.37-.34 3.83-3.68 2.78 2.97 3.21-2.97 4.57 3.59v.06l-.84.77v9.72l1.48 1.15.96-1.02.37.37M241.1 25.37a2.8 2.8 0 01-.9 2l-4.07 4.26a6.06 6.06 0 00-4.2-1.88 6.74 6.74 0 00-4.73 1.73l-.12-.1a7.23 7.23 0 012.19-3.25 5.09 5.09 0 013.4-1.28 7.74 7.74 0 015.49 1.94 1.65 1.65 0 00.68-1.26c0-.58-.44-1-1.33-1.33-1.7-.6-2.59-1.6-2.65-3l-3 2.81-4.54-3.18v-.06l.74-.58v-9.9a35.52 35.52 0 007.1-4.73l4.6 3.77v.06l-.8.77v9.6a2.36 2.36 0 001.04 1.79 2.42 2.42 0 011.07 1.82m-6.27-2.71V12.29l-2.35-2.07-.31.21v11.3l2.1 1.42zM267.28 2.16c-.44 2.43-1.66 3.66-3.68 3.71v20.71h-.74l-6.28-10.47a7.4 7.4 0 00-2.86-.52 7.25 7.25 0 00-2.56.49v5.75a6.58 6.58 0 014.57 1.51l1-1.08.37.37-3.61 3.73a6.29 6.29 0 00-3.25-.86c-2 0-3 .83-3 2.5a2.64 2.64 0 00.82 2 3 3 0 002.11.77 3 3 0 002-.62l-.19.68a4.75 4.75 0 01-1.94.4q-4.61 0-4.6-4.33a4.67 4.67 0 011.63-3.75 5.76 5.76 0 013.62-1.33v-7.1H250a1.74 1.74 0 00-2 1.32h-.12a2.58 2.58 0 01-.47-1.6 2.43 2.43 0 012.75-2.75h.47V6.42a10.52 10.52 0 00-.77-1.14 1.71 1.71 0 00-1.24-.59c-1 0-1.58.65-1.67 1.95h-.15a4 4 0 01-.71-2.44 3 3 0 011.14-2.44 4.23 4.23 0 012.69-.76 4.39 4.39 0 012.93 1 10.4 10.4 0 011.84 2.37L258 9.72a8.58 8.58 0 002.74.41 7.45 7.45 0 002.38-.41V5.87a7.4 7.4 0 01-4.36-1.42l-1.17 1.29-.4-.37 4-4.2a4.74 4.74 0 003.24 1.42 6 6 0 002.78-.49l.07.06m-11.12 13.43l-5-8.61v8.64a7.77 7.77 0 012.55-.49 5.73 5.73 0 012.45.46zm6.95 2.65v-8a7.36 7.36 0 01-2.36.4 7 7 0 01-2.46-.34l4.76 8zM276.54 13.27l-6.15 4.17v3.8l3.43 1.88 1.7-1.63.4.37L271.5 26l-5.8-3.15v-.06l.59-.65V11.88a48.27 48.27 0 007.19-4.26l3.06 5.65m-3.62 1.86l-2.37-5.07-.16.07v6.73zM297.41 10.43l-.75.62v10.1A47.49 47.49 0 00289.5 26l-3.33-2.62-3.46 2.62-4.6-3.61v-.06l.86-.74v-8.75a3.51 3.51 0 00-.74-2.5 3.07 3.07 0 01-.92-2.1 2.55 2.55 0 011.45-2.37 6.07 6.07 0 012.9-.62l.22.46c-1-.08-1.55.29-1.55 1.11q0 .9 1.38 1.68a3.12 3.12 0 011.37 2.95v9.94l2.35 1.92.28-.22V11.58L284 10.4l2.9-2.84 3 2.44v11.39l2.35 1.92.28-.22V11.58l-1.73-1.18 2.9-2.84 3.71 2.81v.06M310.71 6.51a8.52 8.52 0 01-1.61 3.34L306.39 14l3.67 1.85v6.7a17.13 17.13 0 00-4.72 3.58 4.22 4.22 0 00-3-1.3q-3.83 0-3.82 2.35c0 1.54.86 2.34 2.59 2.4l-.46.53a2.84 2.84 0 01-2.72-3 4.62 4.62 0 01.71-2.19c.14-.28.56-.95 1.27-2l2.9-4.36-4.14-2.13v-4.79a20.64 20.64 0 006.67-4.14 2.76 2.76 0 002.38 1.27 2.46 2.46 0 001.66-.62 2 2 0 00.71-1.6 2.27 2.27 0 00-.52-1.55l.77.12a2.41 2.41 0 01.37 1.42m-4.85 11.61l-1.59-.83-3.66 5.49a5.61 5.61 0 013-.74 3.43 3.43 0 012.19.71zm2-7.25a4.45 4.45 0 01-2.21.61 4.3 4.3 0 01-2.83-1.29v4l2.08 1.14z"></path>
        </g>
    </g>
</svg>