<?xml version="1.0" encoding="utf-8"?>
<!-- Generator: Adobe Illustrator 21.0.1, SVG Export Plug-In . SVG Version: 6.00 Build 0)  -->
<svg version="1.1" id="Layer_1" xmlns="http://www.w3.org/2000/svg" xmlns:xlink="http://www.w3.org/1999/xlink" x="0px" y="0px"
	 viewBox="0 0 140 32" style="enable-background:new 0 0 140 32;" xml:space="preserve">
<style type="text/css">
	.Drop_x0020_Shadow{fill:none;}
	.Round_x0020_Corners_x0020_2_x0020_pt{fill:#FFFFFF;stroke:#231F20;stroke-miterlimit:10;}
	.Live_x0020_Reflect_x0020_X{fill:none;}
	.Bevel_x0020_Soft{fill:url(#SVGID_1_);}
	.Dusk{fill:#FFFFFF;}
	.Foliage_GS{fill:#FFDD00;}
	.Pompadour_GS{fill-rule:evenodd;clip-rule:evenodd;fill:#44ADE2;}
	.st0{fill:#404040;}
	.st1{fill:#009BFF;}
</style>
<linearGradient id="SVGID_1_" gradientUnits="userSpaceOnUse" x1="147.9951" y1="39" x2="148.7023" y2="39.7071">
	<stop  offset="0" style="stop-color:#DEDFE3"/>
	<stop  offset="0.1783" style="stop-color:#DADBDF"/>
	<stop  offset="0.3611" style="stop-color:#CECFD3"/>
	<stop  offset="0.546" style="stop-color:#B9BCBF"/>
	<stop  offset="0.7324" style="stop-color:#9CA0A2"/>
	<stop  offset="0.9181" style="stop-color:#787D7E"/>
	<stop  offset="1" style="stop-color:#656B6C"/>
</linearGradient>
<path class="st0" d="M53.04,20.51l-1.58-1v-5.94h1.67l0.68-1.44h-2.35V9.7c-0.08-0.44,0.09-0.88,0.44-1.16l-0.14-0.2l-3.23,1.76
	v2.03h-0.92l-0.62,1.44h1.53v6.34l-0.44,0.5l3.29,2.13l2.72-2.67l-0.2-0.2L53.04,20.51z M51.46,12.99h1.65l-0.14,0.3h-1.51V12.99z
	 M48.79,10.29l0.34-0.2v2.03h-0.34V10.29z M51.34,22.18l-2.87-1.85l0.32-0.34v-6.7h-1.4l0.14-0.3h1.6v7.06l-0.16,0.18l2.61,1.72
	L51.34,22.18z M46.18,9.3l-1.85-1.56l-1.81,1.8l1.85,1.56L46.18,9.3z M43.16,9.3l1.42,1.22l-0.22,0.24l-1.44-1.24L43.16,9.3z
	 M46.87,20.47l-0.74-0.56v-5.9l0.36-0.4l-2.25-1.84l-2.55,2.41l0.2,0.2l0.58-0.54l0.73,0.58v5.84l-0.36,0.44l2.26,1.83l2.63-2.49
	l-0.2-0.2L46.87,20.47z M45.07,22.18l-1.87-1.53l0.26-0.3v-6.08l-0.8-0.62l0.24-0.24l0.9,0.72v6.22l-0.18,0.22l1.7,1.38L45.07,22.18
	z M31.5,20.59l-1.2-0.8v-5.94h0.04c0.45,0.39,1.03,0.58,1.62,0.54c1.06-0.08,1.89-0.97,1.89-2.03l-0.04-0.04
	c-0.77,0.34-1.67,0.14-2.21-0.5l-1.38,1.84l-1.82-1.84l-2.53,2.35l0.2,0.22l0.56-0.54l0.74,0.68v5.67l-0.4,0.44l2.89,1.92l2.64-2.53
	l-0.2-0.2L31.5,20.59z M30.8,13.39c0.39,0.3,0.87,0.45,1.36,0.44c0.29-0.03,0.58-0.08,0.86-0.16l0.02,0.02
	c-0.26,0.26-0.61,0.41-0.98,0.42c-0.54,0.05-1.08-0.11-1.5-0.46L30.8,13.39z M29.84,22.2l-2.49-1.64l0.28-0.28v-5.9l-0.8-0.72
	l0.26-0.24l0.88,0.82v6.04l-0.16,0.2l2.3,1.45L29.84,22.2z M25.59,20.5l-1.58-1v-5.94h1.68l0.68-1.44h-2.35V9.7
	c-0.08-0.44,0.09-0.88,0.44-1.16l-0.14-0.2l-3.23,1.76v2.03h-0.92l-0.62,1.44h1.54v6.34l-0.44,0.5l3.29,2.13l2.71-2.67l-0.2-0.2
	L25.59,20.5z M24.02,12.99h1.66l-0.14,0.3h-1.52V12.99z M21.34,10.29l0.34-0.2v2.03h-0.34V10.29z M23.9,22.18l-2.87-1.85l0.32-0.34
	v-6.7h-1.4l0.14-0.3h1.6v7.06l-0.16,0.18l2.61,1.72L23.9,22.18z M33.3,14.64v5.19l-0.42,0.4l3.31,2.31l4.97-2.91v-5.35l0.32-0.36
	l-3.08-2.15L33.3,14.64z M36.19,22.24l-2.94-2.06l0.3-0.28v-5.09l0.34-0.2v5.31l-0.18,0.16l2.79,1.95L36.19,22.24z M38.23,21.04
	l-0.06,0.02l-1.94-1.42v-6.42h0.04l1.96,1.36V21.04L38.23,21.04z M38.83,20.68l-0.34,0.2v-6.46l-1.91-1.32l0.32-0.18l1.92,1.36v6.4
	L38.83,20.68z M20.14,15.26l-1.98-3.49l-5.18,2.64v5.54l-0.36,0.4l3.79,2.19l3.07-2.75l-0.2-0.22l-1.34,1.22l-2.02-1.24v-1.96
	L20.14,15.26z M16.54,12.91l1.58,3.17l-0.3,0.16l-1.58-3.17L16.54,12.91z M16.64,21.98l-0.26,0.24l-3.37-1.95l0.24-0.28v-5.4
	l0.34-0.18v5.52l-0.16,0.18L16.64,21.98z M15.92,17.29v-4.11l0.04-0.02l1.58,3.21L15.92,17.29z M0.82,16.66l0.08-0.04
	c0-0.8,0.22-1.08,0.76-1.08h0.44v2.07c-0.03,0.52-0.33,1-0.8,1.24l0.16,0.22l2.24-1.16c0.82-0.28,1.39-1.03,1.44-1.9v-4.65
	c-0.09-0.41,0.11-0.82,0.48-1.02l-0.12-0.2l-1.72,0.6c-0.93,0.22-1.61,1.02-1.68,1.97v0.68H1.66c-0.85-0.03-1.57,0.63-1.6,1.48
	c0,0.06,0,0.11,0,0.17C0.02,15.69,0.31,16.29,0.82,16.66z M2.35,12.83c-0.03-0.62,0.29-1.2,0.84-1.5l0.02,0.04
	c-0.34,0.32-0.53,0.77-0.52,1.24v0.8H2.35V12.83z M1.55,14.92h1.14v2.61c0,0.32-0.19,0.62-0.48,0.76l-0.04-0.02
	c0.12-0.2,0.18-0.43,0.18-0.66v-2.35H1.54c-0.25-0.02-0.5,0.11-0.62,0.34L0.9,15.58c-0.01-0.35,0.27-0.65,0.62-0.66
	C1.53,14.92,1.54,14.92,1.55,14.92L1.55,14.92z M8.14,6.94c-1.46,0-2.93,0.44-4.49,0.44c-1.67,0-2.19-0.22-2.19-0.96
	C1.46,6.31,1.48,6.2,1.5,6.08l-0.2-0.1C0.92,6.4,0.7,6.95,0.7,7.52c0,1.24,0.98,2.43,3.09,2.43c0.71-0.03,1.41-0.1,2.11-0.22v9.06
	c-0.38-0.09-0.77-0.13-1.16-0.12C2.31,18.67,0,20.05,0,22.76c0,1.64,1.32,2.75,3.27,2.75c0.98,0.02,1.94-0.21,2.81-0.66l-0.1-0.64
	c-0.73,0.67-1.7,1.02-2.69,0.96c-1.8,0-2.77-0.96-2.77-2.29c0-1.08,1.18-1.93,3.59-1.93c1.27,0.08,2.44,0.7,3.21,1.71l4.59-3.07
	v-8.8c0.2-1.92-1.19-3.64-3.11-3.84C8.58,6.93,8.36,6.92,8.14,6.94z M7.36,22.32c-0.78-0.97-1.93-1.57-3.17-1.66
	c-0.57-0.01-1.14,0.05-1.7,0.18l0.04-0.04c0.52-0.29,1.11-0.43,1.7-0.4c1.32,0.08,2.55,0.7,3.41,1.7L7.36,22.32z M8.88,20.25
	l-0.04,0.02c-0.76-0.7-1.69-1.19-2.69-1.44V9.7c0.2-0.02,0.6-0.06,0.82-0.06c1.7,0,1.91,0.28,1.91,1.89V20.25z M9.48,20.8
	l-0.34-0.36v-9.04c0-1.68-0.38-2.03-2.17-2.03c-1.2,0-2.25,0.3-3.17,0.3c-2.45,0-2.81-1.48-2.81-2.15c0-0.14,0.01-0.28,0.04-0.41
	l0.04,0.02c0.04,1.6,1.3,2.21,2.69,2.21c1.22,0,1.9-0.3,3.29-0.3c1.83,0,2.43,0.5,2.43,2.05L9.48,20.8L9.48,20.8z M75.98,20.59
	l-1.2-0.8v-5.94h0.04c0.45,0.39,1.03,0.58,1.62,0.54c1.06-0.08,1.89-0.97,1.89-2.03l-0.04-0.04c-0.28,0.12-0.58,0.17-0.88,0.16
	c-0.51-0.05-0.98-0.29-1.34-0.66l-1.37,1.83l-1.81-1.84l-2.53,2.35l0.2,0.22l0.56-0.54l0.74,0.68v5.67l-0.4,0.44l2.89,1.92
	l2.63-2.53l-0.2-0.2L75.98,20.59z M75.28,13.39c0.4,0.27,0.87,0.42,1.36,0.43c0.29-0.02,0.58-0.07,0.86-0.15l0.02,0.02
	c-0.26,0.26-0.61,0.41-0.98,0.42c-0.54,0.05-1.08-0.11-1.5-0.46L75.28,13.39z M74.32,22.2l-2.49-1.64l0.28-0.28v-5.9l-0.8-0.72
	l0.26-0.24l0.94,0.82v6.04l-0.22,0.2l2.29,1.46L74.32,22.2z M92.83,15.26l-1.97-3.49l-5.16,2.64v5.54l-0.36,0.4l3.79,2.19l3.07-2.75
	l-0.2-0.22l-1.34,1.22l-2.01-1.24v-1.96L92.83,15.26z M89.31,12.91l1.58,3.17l-0.36,0.16l-1.58-3.17L89.31,12.91z M89.34,21.98
	l-0.26,0.24l-3.37-1.95l0.24-0.28v-5.4l0.4-0.18v5.52l-0.22,0.18L89.34,21.98z M88.62,17.29v-4.11l0.04-0.02l1.58,3.21L88.62,17.29z
	 M85.21,15.26l-1.97-3.49l-5.17,2.64v5.54l-0.36,0.4l3.79,2.19l3.07-2.75l-0.2-0.22l-1.34,1.22l-2.01-1.24v-1.96L85.21,15.26z
	 M81.69,12.91l1.58,3.17l-0.36,0.16l-1.58-3.17L81.69,12.91z M81.72,21.98l-0.26,0.24l-3.37-1.95l0.24-0.28v-5.4l0.4-0.18v5.52
	l-0.23,0.18L81.72,21.98z M81,17.29v-4.11l0.04-0.02l1.58,3.21L81,17.29z M69.25,9.79h0.2c1.4,0.01,2.62-0.94,2.95-2.29l-0.04-0.04
	c-0.37,0.21-0.79,0.32-1.22,0.3c-0.98-0.04-1.92-0.38-2.69-0.98c-1.75,2.23-5.02,3.31-7.72,4.01v2.15h-0.4
	c-0.87-0.05-1.63,0.62-1.68,1.49c0,0.07,0,0.14,0,0.21c-0.04,0.63,0.29,1.22,0.84,1.52l0.04-0.02c-0.06-0.76,0.28-1.06,0.74-1.06
	h0.46v3.67c-0.02,0.52-0.33,0.99-0.8,1.22c-0.09-0.01-0.19-0.01-0.28-0.01c-1.53,0-2.69,0.84-2.69,2.36
	c-0.05,0.68,0.46,1.27,1.14,1.32c0.04,0,0.08,0,0.12,0c0.08,0,0.16,0,0.24-0.01l0.18-0.52c-0.16,0.05-0.33,0.07-0.5,0.06
	c-0.4,0.04-0.75-0.25-0.78-0.65c0,0,0-0.01,0-0.01c0-0.52,0.51-0.99,2.02-0.99c1.14,0,1.74,1.06,3.65,1.06
	c3.33,0,4.53-1.8,4.53-4.43v-3.08h1.46v7.46h0.24v-7.46l1.04-2.13h-1.03L69.25,9.79L69.25,9.79z M61,10.99l0.4-0.08v2.03H61V10.99z
	 M60.26,14.8c-0.28-0.03-0.55,0.1-0.7,0.34l-0.04-0.02c0.02-0.39,0.36-0.69,0.76-0.67c0.03,0,0.06,0.01,0.08,0.01h1.04v3.57
	c-0.02,0.38-0.17,0.74-0.42,1.02l-0.04-0.02c0.04-0.17,0.07-0.35,0.06-0.52V14.8L60.26,14.8L60.26,14.8z M62.44,22.34
	c-0.48-0.09-0.93-0.26-1.36-0.5c-0.5-0.34-1.09-0.54-1.7-0.58c-0.39,0-0.77,0.06-1.14,0.18v-0.06c0.35-0.29,0.8-0.44,1.26-0.42
	c0.61,0.02,1.2,0.23,1.68,0.6c0.39,0.29,0.81,0.54,1.25,0.74L62.44,22.34L62.44,22.34z M63.11,21.92c-0.88,0-1.72-1.6-2.57-1.82
	v-0.04l1.22-0.58c1.24-0.52,2.03-1.75,1.97-3.09v-6.22c0.28-0.1,0.54-0.2,0.78-0.3v8.9C64.51,21.34,64.05,21.92,63.11,21.92
	L63.11,21.92z M65.17,19.41c0,0.71-0.25,1.39-0.7,1.93h-0.04c0.26-0.7,0.38-1.45,0.34-2.19V9.75l0.4-0.14L65.17,19.41L65.17,19.41z
	 M67.48,8.16c0.83,1.02,2.22,1.39,3.45,0.92v0.04c-0.43,0.31-0.95,0.46-1.48,0.42c-0.88-0.06-1.7-0.47-2.27-1.14L67.48,8.16z
	 M67.54,12.95V9.12c0.44,0.31,0.95,0.54,1.48,0.66v3.17C69.01,12.95,67.54,12.95,67.54,12.95z M69.38,14.46l-0.22,0.34h-1.6
	l0.07-0.34H69.38z M115.03,20.59l-1.2-0.8v-5.94h0.04c0.45,0.39,1.03,0.58,1.62,0.54c1.07-0.08,1.89-0.97,1.9-2.03l-0.04-0.04
	c-0.77,0.34-1.67,0.14-2.21-0.5l-1.38,1.84l-1.82-1.84l-2.53,2.35l0.2,0.22l0.56-0.54l0.74,0.68v5.67l-0.42,0.44l2.91,1.92
	l2.63-2.53l-0.2-0.2L115.03,20.59z M114.33,13.39c0.4,0.27,0.87,0.43,1.36,0.44c0.29-0.03,0.58-0.08,0.86-0.16l0.02,0.02
	c-0.26,0.26-0.61,0.41-0.98,0.42c-0.54,0.05-1.08-0.11-1.5-0.46L114.33,13.39z M113.38,22.2l-2.49-1.64l0.28-0.28v-5.9l-0.8-0.72
	l0.26-0.24l0.94,0.82v6.04l-0.23,0.2l2.29,1.46L113.38,22.2z M139.98,11.37c0-0.14-0.03-0.28-0.08-0.42l-0.44,0.2
	c0.06,0.12,0.09,0.26,0.08,0.4c-0.06,0.54-0.54,0.93-1.08,0.87c-0.03,0-0.05-0.01-0.08-0.01c-0.49-0.01-0.94-0.23-1.26-0.6
	l-4.67,2.55v2.91l2.27,1.4c0,0-1.82,2.63-2.61,3.77l0.2,0.12c0.43-0.36,0.97-0.56,1.54-0.56c0.71-0.05,1.42,0.16,1.99,0.58
	l3.71-2.38v-3.27l-2.29-1.36l2.43-3.49C139.87,11.88,139.97,11.63,139.98,11.37L139.98,11.37z M135.9,12.81
	c0.6,0.53,1.42,0.76,2.21,0.6l0.02,0.02c-0.27,0.12-0.56,0.18-0.86,0.18c-0.63,0.03-1.24-0.18-1.71-0.6L135.9,12.81z M132.73,17.11
	v-2.57l0.34-0.18v2.55l2.01,1.28l-0.2,0.28L132.73,17.11z M135.86,22.26c-0.56-0.39-1.24-0.58-1.91-0.52
	c-0.18,0-0.38,0.02-0.56,0.04v-0.04c0.4-0.18,0.84-0.26,1.28-0.24c0.56,0,1.1,0.19,1.52,0.56L135.86,22.26z M136.6,20.66
	c-0.41-0.2-0.85-0.3-1.3-0.3c-0.62,0.02-1.23,0.2-1.76,0.54c0,0,1.5-2.19,2.27-3.29l0.78,0.48L136.6,20.66L136.6,20.66z M137.2,21.1
	l-0.34-0.28v-2.89l-0.88-0.56l0.2-0.26l1.02,0.64L137.2,21.1L137.2,21.1z M136.06,16.81l-0.68-0.42v-3.15
	c0.55,0.42,1.22,0.64,1.91,0.62c0.32,0.01,0.65-0.06,0.94-0.2l0.02,0.02C137.63,14.56,136.69,15.92,136.06,16.81L136.06,16.81z
	 M132.31,11.35c0-0.14-0.03-0.28-0.08-0.42l-0.44,0.2c0.06,0.12,0.09,0.26,0.08,0.4c-0.06,0.54-0.54,0.93-1.08,0.87
	c-0.03,0-0.05-0.01-0.08-0.01c-0.49-0.01-0.94-0.23-1.26-0.6l-4.67,2.55v2.91l2.27,1.4c0,0-1.82,2.63-2.61,3.77l0.2,0.12
	c0.43-0.36,0.97-0.56,1.54-0.56c0.71-0.05,1.42,0.16,1.99,0.58l3.71-2.37v-3.27l-2.29-1.36l2.43-3.49
	C132.19,11.86,132.29,11.61,132.31,11.35L132.31,11.35z M128.22,12.78c0.6,0.53,1.42,0.76,2.21,0.6l0.02,0.02
	c-0.25,0.12-0.52,0.18-0.79,0.18c-0.65,0.03-1.29-0.18-1.78-0.6L128.22,12.78z M125.05,17.09v-2.57l0.4-0.18v2.55l1.95,1.28
	l-0.2,0.28L125.05,17.09z M128.18,22.24c-0.56-0.39-1.24-0.58-1.92-0.52c-0.18,0-0.38,0.02-0.56,0.04v-0.04
	c0.4-0.18,0.84-0.26,1.28-0.24c0.56,0,1.1,0.19,1.52,0.56L128.18,22.24z M128.92,20.64c-0.41-0.2-0.85-0.3-1.3-0.3
	c-0.62,0.02-1.23,0.2-1.75,0.54c0,0,1.5-2.19,2.27-3.29l0.78,0.48L128.92,20.64L128.92,20.64z M129.52,21.07l-0.34-0.28v-2.88
	l-0.88-0.56l0.2-0.26l1.02,0.64L129.52,21.07L129.52,21.07z M128.38,16.79l-0.68-0.41v-3.15c0.55,0.42,1.22,0.64,1.91,0.62
	c0.32,0.01,0.65-0.06,0.94-0.2l0.02,0.02C129.95,14.54,129.01,15.9,128.38,16.79L128.38,16.79z M124.23,15.25l-1.97-3.49l-5.17,2.65
	v5.54l-0.36,0.4l3.79,2.19l3.07-2.75l-0.2-0.22l-1.34,1.22l-2.01-1.24v-1.96L124.23,15.25z M120.7,12.91l1.58,3.17l-0.36,0.16
	l-1.58-3.17L120.7,12.91z M120.73,21.98l-0.26,0.24l-3.37-1.95l0.24-0.28v-5.4l0.4-0.18v5.52l-0.22,0.18L120.73,21.98z
	 M120.02,17.29v-4.11l0.04-0.02l1.58,3.21L120.02,17.29z M105.22,7.02l-2.12,1.82V7.06h-0.24v1.95l-0.82,0.74l-2.71-2.75l-2.95,2.87
	l0.18,0.18l0.74-0.7l1.72,1.68v2.35h-0.34c-0.91-0.06-1.7,0.64-1.75,1.55c0,0.03,0,0.06,0,0.09c-0.04,0.65,0.28,1.27,0.84,1.6
	l0.06-0.02c-0.13-0.44,0.11-0.91,0.56-1.04c0.06-0.02,0.12-0.03,0.18-0.03h0.46v3.15c-1.87,0.25-3.22,1.93-3.07,3.81L96,22.54
	c0.83-0.77,1.89-1.24,3.01-1.36v4.59h0.06l2.04-1.08l0.9,0.78h0.04v-4.17c0.28,0.07,0.55,0.17,0.82,0.28v3.91h0.23v-3.77
	c0.42,0.27,0.8,0.59,1.16,0.94l4.39-3.01v-8.66C108.67,8.99,107.2,7.29,105.22,7.02L105.22,7.02z M99.68,25.21l-0.4,0.16v-4.43
	c-0.91-0.03-1.8,0.25-2.53,0.78l-0.02-0.04c0.57-0.72,1.46-1.13,2.38-1.08h0.58L99.68,25.21L99.68,25.21z M99.68,18.61l-0.4,0.02
	v-3.37h-0.9c-0.23-0.04-0.47,0.09-0.54,0.32l-0.04-0.02c-0.05-0.31,0.16-0.59,0.47-0.64c0.06-0.01,0.13-0.01,0.19,0h1.22
	L99.68,18.61L99.68,18.61z M99.61,13.41h-0.34v-2.51l-1.76-1.74l0.32-0.26l1.83,1.84L99.61,13.41z M102.05,10.1l0.82-0.7v9.35
	c-0.27-0.06-0.54-0.1-0.82-0.12V10.1L102.05,10.1z M104.28,22.36c-0.59-0.66-1.37-1.11-2.23-1.3v-0.34c0.98,0.17,1.86,0.7,2.47,1.48
	L104.28,22.36z M105.62,20.29h-0.02c-0.71-0.68-1.56-1.18-2.5-1.48V9.18l0.12-0.08c1.66,0.44,2.39,1.26,2.39,2.57L105.62,20.29
	L105.62,20.29z M106.22,20.86l-0.34-0.34v-8.92c0-1.44-0.88-2.21-2.43-2.71l0.28-0.24c1.67,0.58,2.49,1.22,2.49,2.93L106.22,20.86
	L106.22,20.86z"/>
</svg>
