<svg role="img" width="120" height="74" viewBox="0 0 120 74" fill="none" xmlns="http://www.w3.org/2000/svg">
<title>Georgia Public Broadcasting (GPB) logo</title>
    <defs>
        <style>
            .fd29aff6-d2d5-4968-8fbb-3d4ef801e8f6 {
                fill: #d62021;
            }

            .b5c87f48-2f02-49e1-b2d1-3a39ce9e70ee {
                fill: #0d1319;
            }

            .b5a73e7f-2d28-45f8-98e4-a10d9040653c {
                fill: #06c;
            }

            .b5a4af8c-79eb-4311-832a-0cecfeb27ef0 {
                fill: #fff;
            }

            .b67b863a-a1e8-4b27-80f7-8c594666ed09 {
                fill: #2638c4;
            }

            .a070820a-8241-4aca-bf20-f7d493d3e6c2 {
                fill: #0084ca;
            }

        </style>
    </defs>
    <g id="b80a39c7-490c-48d1-a81c-5ad18b45dda9" data-name="Layer 2">
        <g id="ed52db0e-9fbb-442b-bd42-03f4d5cdda82" data-name="Layer 1">
            <g id="a3775cfc-1ffc-4294-8a61-250aa6d178a6" data-name="NPR Logo">
                <rect class="fd29aff6-d2d5-4968-8fbb-3d4ef801e8f6" x="66.6809" y="55.096" width="16.9405" height="16.9413" />
                <rect class="b5c87f48-2f02-49e1-b2d1-3a39ce9e70ee" x="83.6214" y="55.096" width="16.942" height="16.9413" />
                <rect class="b5a73e7f-2d28-45f8-98e4-a10d9040653c" x="100.5634" y="55.096" width="16.9413" height="16.9413" />
                <path class="b5a4af8c-79eb-4311-832a-0cecfeb27ef0" d="M76.96,67.8884V62.8893a2.4957,2.4957,0,0,0-.4259-1.6152,1.7181,1.7181,0,0,0-1.3912-.5089,2.1647,2.1647,0,0,0-.9539.25,2.2,2.2,0,0,0-.7909.6221v6.2508H71.375V59.2037h1.459l.3726.81a3.0513,3.0513,0,0,1,2.44-.9558,3.239,3.239,0,0,1,2.4426.9265,3.5664,3.5664,0,0,1,.8959,2.5862v5.3179Z" />
                <path class="b5a4af8c-79eb-4311-832a-0cecfeb27ef0" d="M91.481,60.79a2.7059,2.7059,0,0,1,2.0053.6266,4.0515,4.0515,0,0,1-.0054,4.2685,2.6111,2.6111,0,0,1-2.0075.6666,1.9824,1.9824,0,0,1-1.2846-.4445V61.3553A1.78,1.78,0,0,1,91.481,60.79Zm.4518,7.27a4.227,4.227,0,0,0,3.1336-1.1508,4.4442,4.4442,0,0,0,1.1474-3.2815q0-4.57-4.1515-4.5694a2.6082,2.6082,0,0,0-1.8735.73v-.5836H88.1645V71.2792h2.0243V67.6778A3.94,3.94,0,0,0,91.9328,68.06Z" />
                <path class="b5a4af8c-79eb-4311-832a-0cecfeb27ef0" d="M111.2748,61.1065a2.1738,2.1738,0,0,0-1.184-.3413,1.6051,1.6051,0,0,0-1.2457.6381,2.3128,2.3128,0,0,0-.5447,1.5584v4.9267h-2.0251V59.2037H108.3v.83a2.83,2.83,0,0,1,2.25-.9756,3.2144,3.2144,0,0,1,1.58.3154Z" />
            </g>
            <path class="b67b863a-a1e8-4b27-80f7-8c594666ed09" d="M26.007,63.4452A10.5549,10.5549,0,1,1,15.4521,52.89,10.5546,10.5546,0,0,1,26.007,63.4452" />
            <path class="b67b863a-a1e8-4b27-80f7-8c594666ed09" d="M52.45,62.27c-1.1544-.5981-2.0878-1.0848-2.0878-2.0114,0-.6548.56-1.0616,1.5035-1.0616a5.6713,5.6713,0,0,1,2.8766.8148V57.6277a7.783,7.783,0,0,0-2.8781-.6323c-2.7853,0-4.0319,1.6589-4.0319,3.4535,0,2.1066,1.4183,3.1176,2.9829,3.9445,1.5427.8154,2.1265,1.1691,2.1265,2.049,0,.7446-.6462,1.1718-1.7287,1.1718A5.1128,5.1128,0,0,1,47.95,66.363l.002,2.534a6.5128,6.5128,0,0,0,3.2451.998c2.7036,0,4.4083-1.41,4.4083-3.6812C55.6052,63.87,53.6045,62.8677,52.45,62.27Z" />
            <path class="b67b863a-a1e8-4b27-80f7-8c594666ed09" d="M31.8381,57.1124H28.4992V69.7781h2.4922V65.749h.502c3.1205,0,5.059-1.6594,5.059-4.33C36.5524,58.7221,34.79,57.1124,31.8381,57.1124Zm-.8467,2.1113h.7326A2.1479,2.1479,0,0,1,34.1326,61.38a2.107,2.107,0,0,1-2.3894,2.2331h-.7518Z" />
            <path class="b67b863a-a1e8-4b27-80f7-8c594666ed09" d="M44.5079,62.9579a2.9545,2.9545,0,0,0,1.2548-2.6045c0-1.9991-1.4694-3.241-3.8346-3.241H38.0618V69.7781H42.1c3.0951,0,4.5049-1.9876,4.5049-3.8344A2.9626,2.9626,0,0,0,44.5079,62.9579ZM41.75,59.2458a1.478,1.478,0,0,1,1.6054,1.5478,1.5549,1.5549,0,0,1-1.7393,1.5671H40.5555V59.2458Zm-1.1946,8.418V64.3575h1.5776c1.257,0,2.0074.6145,2.0074,1.6438,0,1.1032-.7527,1.6625-2.2371,1.6625Z" />
            <path class="b5a4af8c-79eb-4311-832a-0cecfeb27ef0" d="M23.1387,63.5484l-1.1714.2383v2.1656A1.3276,1.3276,0,0,1,20.595,67.26h-.5991v2.5185H18.0682V67.26h.599A1.3275,1.3275,0,0,0,20.04,65.9523V63.7867l1.1715-.2383a.3893.3893,0,0,0,.2673-.5619l-3.0722-5.8742h1.9277l3.0723,5.8742A.3893.3893,0,0,1,23.1387,63.5484Z" />
            <path class="b5a4af8c-79eb-4311-832a-0cecfeb27ef0" d="M19.19,62.9865l-3.0722-5.8741H12.9385a5.2482,5.2482,0,0,0-5.2792,5.2581,4.643,4.643,0,0,0,3.3776,4.3818v3.0258H15.78V67.26h.599a1.3276,1.3276,0,0,0,1.3724-1.3073V63.7867l1.1714-.2383A.3893.3893,0,0,0,19.19,62.9865Zm-3.9981-.3356a1.2065,1.2065,0,1,1,1.2064-1.2065A1.2065,1.2065,0,0,1,15.1919,62.6509Z" />
            <g id="a4073c27-f716-497d-bf12-5fc90f7b55ec" data-name="GPB Media Logo">
                <path class="b5c87f48-2f02-49e1-b2d1-3a39ce9e70ee" d="M86.7011,11.2374C84.472,8.4286,79.9461,7.063,72.8624,7.063H58.4858L50.8106,39.7511h7.2927l1.9449-8.3027h7.81c11.3623,0,18.0942-4.1375,20.0069-12.299C88.64,15.8478,88.2482,13.1864,86.7011,11.2374ZM61.5077,25.262l2.8068-11.9827h9.0149c3.5749,0,5.93.6832,6.9992,2.0289a4.2613,4.2613,0,0,1,.5162,3.7951c-.9648,4.1238-4.4122,6.2148-10.2484,6.2148h-9.04l.0092-.0561Z" />
                <path class="a070820a-8241-4aca-bf20-f7d493d3e6c2" d="M12.0749,32.0556c-3.7907-3.8781-5.3263-9.36-3.3982-15.6766C10.6354,9.94,15.6775,4.3165,22.007.3969c.0461-.03.086-.0583.1244-.0829C22.52.08,22.2658.0162,21.9993.0016,21.9363,0,21.8671,0,21.8026,0c-.03.0016-.06.0016-.0791.0046V.0016A22.3947,22.3947,0,0,0,19.09.1689l-.0047.0039a6.7424,6.7424,0,0,0-1.6192.5941C11.4266,4.6626,6.6534,10.1251,4.7553,16.35c-1.9,6.2293-.437,11.6418,3.2408,15.5122a4.1753,4.1753,0,0,0,1.8766.7393c1.0093.1151,1.9618.1758,2.5986.2034.0338-.0676-.0169-.22-.2436-.5128A2.2245,2.2245,0,0,1,12.0749,32.0556Z" />
                <path class="a070820a-8241-4aca-bf20-f7d493d3e6c2" d="M10.7307,3.6854S-7.8429,14.0607,3.882,28.9336C3.882,28.9336-4.4216,17.6256,10.7307,3.6854Z" />
                <path class="a070820a-8241-4aca-bf20-f7d493d3e6c2" d="M29.2367.93s.0245-.1329-.8158-.1213h-.0722c-.0291.0015-.056.0038-.0815.0038L28.27.81a23.5349,23.5349,0,0,0-2.634.1612l-.0023.0046a6.942,6.942,0,0,0-1.6177.5757c-6.03,3.7737-10.7877,9.0658-12.672,15.09-1.8842,6.03-.4063,11.275,3.2777,15.021a4.3191,4.3191,0,0,0,1.8826.7147c1.0087.11,1.9627.1682,2.5964.2a.1126.1126,0,0,0,.0054-.0814l.1.0108a19.4354,19.4354,0,0,1-3.7884-12.299C15.974,13.4114,21.4577,5.0887,29.2367.93Z" />
                <path class="b5c87f48-2f02-49e1-b2d1-3a39ce9e70ee" d="M118.7249,20.9841a8.0389,8.0389,0,0,0-4.0727-2.7482,8.7379,8.7379,0,0,0,4.2416-5.2921,6.2092,6.2092,0,0,0-.2857-3.766,6.9634,6.9634,0,0,0-2.3229-3.0459,10.3106,10.3106,0,0,0-4.1771-1.6482,42.7521,42.7521,0,0,0-6.6982-.4974H90.1255l-2.1278,9.0558-.0553.0008-2.1246,9.0787.043.0177L82.8466,34.9626l18.67.0276a43.2824,43.2824,0,0,0,7.56-.5534,18.7038,18.7038,0,0,0,5.4569-2.1464c2.882-1.6971,4.5673-3.7352,5.1527-6.2308A5.8606,5.8606,0,0,0,118.7249,20.9841Zm-7.3158-8.0149a4.4319,4.4319,0,0,1-2.1785,2.9538,10.8644,10.8644,0,0,1-5.2448,1.054l-9.8445-.0261,1.8036-7.707h10.2762a7.5265,7.5265,0,0,1,4.4014.9971A2.3612,2.3612,0,0,1,111.4091,12.9692Zm1.2843,13.1342a4.1876,4.1876,0,0,1-2.3628,2.6137,12.6293,12.6293,0,0,1-5.6443.9934l-13.4532-.02,1.647-7.04h13.0291c2.8913,0,4.8316.3523,5.7626,1.0455A2.2339,2.2339,0,0,1,112.6934,26.1034Z" />
                <path class="b5c87f48-2f02-49e1-b2d1-3a39ce9e70ee" d="M38.4113,22.408h9.1931c-2.7284,4.6434-7.0853,7.294-12.0337,7.294A11.0178,11.0178,0,0,1,26.9953,26.18a8.9691,8.9691,0,0,1-1.7921-8.1315C26.7479,11.51,33.9868,6.19,41.341,6.19c4.1234,0,7.5278,1.66,9.3436,4.5535a2.2366,2.2366,0,0,1,.2152.4284l.3194.7637L57.49,7.6879,57.1232,7.14C54.2688,2.7059,48.9855.162,42.63.162c-11.1341,0-22.0686,7.95-24.3761,17.7215a13.7049,13.7049,0,0,0,2.7914,12.4257c3.0541,3.5488,7.8058,5.5039,13.381,5.5039A22.7774,22.7774,0,0,0,56.5886,18.097l.4055-1.6343H39.8124Z" />
            </g>
        </g>
    </g>
</svg>
