<svg width="2471" height="573" xmlns="http://www.w3.org/2000/svg"><path d="M191.16197 446.58077c39.65925-.88863 51.37914-7.22056 51.37914-22.98862V146.34669h-6.75575c-34.72237 0-60.87012 36.06253-95.12754 100.98054l-7.22057-.90205 2.70773-107.75006h288.5415l2.24292 107.75006-7.20706.90205c-34.25743-64.91801-60.41886-100.98054-95.12755-100.98054h-6.30449v277.24546c0 15.76806 11.25513 22.09982 51.39301 22.98862v6.31808H191.16197ZM438.39275 446.58077c36.51398-1.34033 45.07497-6.75557 45.07497-22.98862V167.98142c0-16.23291-8.56099-22.09968-45.07497-23.45348v-5.85331h162.73987v5.85331c-28.39062 1.3538-41.91563 6.31808-41.91563 23.45348v117.21359h117.19974V167.98142c0-17.1354-13.96281-22.09968-41.92944-23.45348v-5.85331h162.75355v5.85331c-36.97896 1.3538-45.08869 7.22057-45.08869 23.45348v255.61073c0 16.23305 8.10973 21.64851 45.08869 22.98862v6.31808H634.48729v-6.31808c27.96663-1.34033 41.92944-5.85308 41.92944-22.98862V294.20749H559.21699v129.38466c0 17.13554 13.52501 21.64851 41.91563 22.98862v6.31808H438.39275ZM809.86336 446.58077c36.51372-1.34033 45.06107-7.22056 45.06107-22.98862V167.98142c0-15.7816-8.54735-22.09968-45.06107-23.45348v-5.85331h275.45404l1.3401 111.36046-7.207.90205c-35.6249-74.84648-50.4904-104.59103-107.2852-104.59103h-41.478v139.75108h14.8653c35.61123 0 57.2461-16.68422 69.4312-60.85631h5.8668V355.5283h-5.8668c-12.1851-44.63721-33.81997-61.77274-69.4312-61.77274h-14.8653v151.01953h38.319c67.1609 0 85.6503-27.05005 122.1642-110.44402l7.2207.91537-2.2428 117.65109H809.86336ZM1245.2808 446.57954c36.5276-1.32683 45.0747-6.74194 45.0747-22.97485v-255.6245c0-16.24673-8.5471-22.08622-45.0747-23.45379v-5.86681h162.7536v5.86681c-28.4179 1.36726-41.9297 6.31825-41.9297 23.45379v117.21354h117.2144V167.98019c0-17.13554-13.9764-22.08622-41.9297-23.45379v-5.86681h162.7537v5.86681c-36.9652 1.36726-45.0747 7.20706-45.0747 23.45379v255.6245c0 16.23291 8.1095 21.64837 45.0747 22.97485v6.31812h-162.7537v-6.31812c27.9533-1.32683 41.9297-5.85309 41.9297-22.97485V294.20608h-117.2144v129.39861c0 17.12176 13.5118 21.64837 41.9297 22.97485v6.31812h-162.7536zM1615.5928 446.57954c37.4168-1.32683 46.4288-7.20693 46.4288-22.97485v-255.6245c0-15.78174-9.012-22.08622-46.4288-23.45379v-5.86681h168.1556v5.86681c-37.4165 1.3673-46.4286 7.67205-46.4286 23.45379v255.6245c0 15.76792 9.0121 21.64837 46.4286 22.97485v6.31812h-168.1556zM1795.4548 446.57954c36.5139-1.32683 45.0883-7.20693 45.0883-22.97485v-255.6245c0-15.78174-8.5744-22.08622-45.0883-23.45379v-5.86681h165.461v5.86681c-37.4302 1.36726-44.637 7.20706-44.637 23.45379v276.80792h20.2808c67.6257 0 88.8091-25.25889 130.2874-114.51949l7.2341.4517-4.0754 122.17774h-274.5509zM2082.8094 446.57954c36.5144-1.32683 45.0888-7.20693 45.0888-22.97485v-255.6245c0-15.78174-8.5744-22.08622-45.0888-23.45379v-5.86681h165.4479v5.86681c-37.4029 1.36726-44.6234 7.20706-44.6234 23.45379v276.80792h20.2808c67.6393 0 88.8232-25.25889 130.301-114.51949l7.2069.4517-4.0481 122.17774h-274.5651zm0 0" style="fill:#fff;fill-opacity:1;fill-rule:nonzero;stroke:none;stroke-width:3.50095"/></svg>