<svg xmlns="http://www.w3.org/2000/svg" viewBox="0 0 271.38 53" fill="currentColor" aria-labelledby="msnbc_logo">
    <title class="msnbc_logo">MSNBC Logo</title>
    <path d="m219.58 26.473c0-15.512 10.936-26.473 26.474-26.473 12.319 0 21.418 6.3057 25.303 17.56l-12.452 2.5543c-2.262-5.5342-6.865-8.7003-12.399-8.7003-7.929 0-13.064 5.88-13.064 15.086 0 9.1526 5.189 15.086 13.064 15.086 5.614 0 10.057-3.1129 12.399-8.7002l12.478 2.5542c-3.858 11.388-12.611 17.56-25.01 17.56-15.777-0.0532-26.793-10.935-26.793-26.527z"></path>
    <path id="path12" d="m184.97 30.677v10.589h9.126c5.693 0 8.168-1.5964 8.168-5.2947s-2.395-5.2947-8.168-5.2947zm0-9.7113h8.806c5.109 0 7.237-1.3835 7.237-4.5497 0-3.2726-2.181-4.7094-7.237-4.7094h-8.806zm-13.25-19.875h24.824c11.015 0 18.225 4.2038 18.225 14.155 0 4.9222-2.98 8.993-8.088 10.51v0.2927c5.028 0.9312 9.312 4.5497 9.312 11.521 0 10.084-7.237 14.288-18.226 14.288h-26.047z"></path>
    <path id="path14" d="m130.29 21.551h-0.32v30.331h-13.117v-50.792h15.538l17.933 30.331h0.293v-30.331h13.144v50.792h-15.539z"></path>
    <path id="path16" d="m68.19 16.336c0-9.5784 8.009-16.31 20.567-16.31 10.935 0 19.103 5.0818 21.285 13.489l-11.733 2.6074c-1.304-3.8579-4.523-6.1195-9.259-6.1195-4.444 0-7.45 1.8891-7.45 5.135 0 10.164 29.613-0.9578 29.613 20.833 0 10.004-8.754 16.975-21.072 16.975-13.783 0-22.456-6.0131-25.17-16.895l12.106-1.9689c1.756 5.5874 6.039 8.86 12.106 8.86 5.321 0 8.62-2.5542 8.62-5.8002 0-10.164-29.613 0.9312-29.613-20.806z"></path>
    <path id="path18" d="m46.508 15.964h-0.293l-12.106 35.919h-8.727l-12.106-35.919h-0.292v35.919h-12.984v-50.792h21.285l8.594 26.766h0.292l8.834-26.766h20.779v50.792h-13.276z"></path>
</svg>