<svg tabindex="-1" aria-hidden="true" width="450" height="67" viewBox="0 0 450 67">
    <g fill="#fff">
        <path data-name="Path 1" d="M187.917 12.81l-8.744 32.081c-3.5 14.2 28.09 14.523 32.353 0l8.744-32.081c3.498-14.09-28.09-14.415-32.353 0zm19.233 3.251l-7 25.578c-1.53 5.527-9.509 5.527-7.979 0l7-25.578c1.534-5.527 9.513-5.527 7.979 0z"></path>
        <path data-name="Path 2" d="M285.851 3.922l-15.3 17.775 4.916-17.775h-11.914l-13.444 49.205h11.914l6.012-22h.109l4.372 22h12.9l-5.246-27.2h-.219l18.909-22z"></path>
        <path data-name="Path 3" d="M247.705 28.85c6.449-1.517 7.214-6.394 8.744-12.247 1.967-7.045 4.263-12.789-7-12.789h-22.948l-13.335 49.313h11.914l5.465-19.942h4.044c2.732 0 4.153.325 3.06 4.227l-4.263 15.607v.108h12.788l3.279-12.03c1.859-7.261 3.713-11.055-1.748-12.247zm-4.591-8.562c-1.093 3.793-2.623 4.227-5.356 4.227h-4.919l3.17-11.705h4.919c2.623 0 4.044.325 3.17 3.9.219-.866-.983 3.578-.983 3.578z"></path>
        <path data-name="Path 4" d="M123.211 28.199l1.2-24.061v-.216h-9.4l-.109.217-11.916 24.06 1.862-24.277H66.921L53.586 53.127h25.9l2.4-8.887H67.904l3.17-11.705h13.991l2.4-8.887H73.479L76.43 12.81h15.739l-3.06 40.318h12.132l12.023-25.361-1.858 25.36h12.132l22.954-49.205h-11.914z"></path>
        <path data-name="Path 5" d="M52.277 3.922l-7 25.686-2.621-25.686H29.321L15.877 53.127h10.6l7.651-28.071 2.949 28.071h12.355L62.877 3.922z"></path>
        <path data-name="Path 6" d="M179.938 3.922l-11.7 17.341-2.181-17.341h-10.821l3.826 29.263-5.356 19.942h11.8l5.465-19.942 19.788-29.263z"></path>
        <path data-name="Path 7" d="M347.387 12.81l-8.744 32.081c-3.5 14.2 28.09 14.523 32.353 0l8.744-32.081c3.498-14.09-28.09-14.415-32.353 0zm19.233 3.251l-7 25.686c-1.53 5.527-9.509 5.527-7.979 0l7-25.578c1.534-5.635 9.513-5.635 7.979-.108z"></path>
        <path data-name="Path 8" d="M401.163 20.396h11.914c.656-2.493 2.077-7.587 2.077-7.587 2.841-11.813-16.177-13.872-26.67-6.394a17.483 17.483 0 00-6.012 7.8c-4.481 14.306 16.832 20.484 11.8 28.938-2.4 3.685-8.853 2.926-7.651-1.626l1.093-4.118h-11.91l-2.077 7.587c-3.607 14.631 27.762 14.09 33.228-.542 7.214-18.316-16.5-21.785-11.367-30.455 2.4-3.685 7.76-2.168 6.558 2.384z"></path>
        <path data-name="Path 9" d="M419.635 3.922l-2.514 8.887h7.979l-10.93 40.318h11.914l10.93-40.318h7.979l2.4-8.887z"></path>
        <path data-name="Path 10" d="M342.25 20.938c.437-1.3.765-2.818 1.2-4.227 1.97-7.045 2.625-12.789-8.633-12.789h-20.439l-13.444 49.205h11.914l4.153-15.065h8.525c11.258 0 13.663-5.636 15.521-12.789.438-1.517.875-3.035 1.203-4.335zm-11.914 0c-.656 2.276-1.312 4.769-1.2 4.335-1.093 3.468-2.623 3.9-5.246 3.9h-4.372l4.481-16.366h4.372c2.623 0 4.044.325 3.17 3.9a23.3 23.3 0 00-1.207 4.231z"></path>
    </g>
    <path data-name="Path 11" d="M287.926 54.537l-5.354-27.53a1.3 1.3 0 01.328-1.084l20.326-23.41c.219-.217.109-.434-.219-.434h-17.921a1.951 1.951 0 00-1.093.434l-7 5.853c-.219.217-.437.108-.328-.217l1.421-5.419a.478.478 0 00-.437-.65h-14.861a1.951 1.951 0 00-1.093.434l-2.077 1.951c-.219.217-.437.325-.656 0-1.749-2.493-6.012-2.493-8.525-2.493h-24.811a1.951 1.951 0 00-1.093.434l-3.06 3.251c-.219.217-.437.325-.656.108 0 0-2.186-5.419-13.553-5.527-8.635-.108-12.9 2.926-12.9 2.926-.328.217-.328 0-.109-.325l.219-.325c.219-.325 0-.542-.328-.542h-14.645a1.857 1.857 0 00-1.093.325l-8.963 6.178c-.328.217-.547.108-.547-.217l-.765-5.636a.729.729 0 00-.765-.65h-13.881a2.319 2.319 0 00-1.093.434l-5.468 6.177c-.219.217-.328.217-.109-.108l2.733-5.961c.109-.325 0-.542-.328-.542h-15.409a1.951 1.951 0 00-1.093.434l-6.012 6.178c-.219.217-.437.217-.437-.217l.328-5.744a.608.608 0 00-.546-.65h-11.8a1.951 1.951 0 00-1.093.434l-6.016 5.85c-.219.217-.437.108-.437-.217l.437-5.419a.608.608 0 00-.547-.65H51.072a1.951 1.951 0 00-1.093.434l-4.481 4.769c-.219.217-.437.217-.547-.217l-.437-4.444a.7.7 0 00-.656-.65H28.119a1.951 1.951 0 00-1.093.433L13.691 17.037a2.059 2.059 0 00-.547 1.084L.026 66.137a.478.478 0 00.437.65h10.163a1.858 1.858 0 001.093-.325l7.979-5.527c.328-.217.547-.108.547.217l.551 4.985a.7.7 0 00.656.65h12.023a1.951 1.951 0 001.093-.434l3.279-2.818c.219-.217.437-.108.328.217l-.656 2.485a.478.478 0 00.437.65h25.686a1.858 1.858 0 001.093-.325l8.2-5.744c.328-.217.547-.108.437.217l-.44 5.102a.608.608 0 00.547.65h11.8a2.508 2.508 0 001.2-.325l8.747-5.64c.328-.217.547-.108.437.325l-.437 5.09a.608.608 0 00.547.65h11.8a1.858 1.858 0 001.093-.325l15.521-10.838a2.188 2.188 0 00.765-.975L139.38 23.86c.109-.325.328-.325.328 0l2.951 22.435a4.409 4.409 0 01-.109 1.192l-4.802 18.65a.478.478 0 00.437.65h13.772a1.951 1.951 0 001.093-.434l9.4-7.37c.219-.217.656-.325.765.108 0 0 1.749 7.587 14.318 7.478a28.2 28.2 0 0014.209-4.01c.328-.108.765-.434 1.093-.542l5.9-3.251c.328-.217.437 0 .328.325l-1.965 7.146a.478.478 0 00.437.65h11.477a1.858 1.858 0 001.093-.325l8.088-5.636c.328-.217.437-.108.328.217l-1.421 5.2a.478.478 0 00.437.65h12.351a1.951 1.951 0 001.093-.434l3.279-2.71c.219-.217.437-.108.328.217l-.656 2.276a.478.478 0 00.437.65h11.587a1.951 1.951 0 001.093-.434l7.214-5.636a.392.392 0 01.656.217l.984 5.2a.936.936 0 00.765.65h15.958a1.951 1.951 0 001.093-.434l13.444-10.838c.655-.422.874-.856.763-1.18zm-250.844-1.41l-2.956-28.07-7.647 28.07h-10.6L29.326 3.922h13.33l2.623 25.686 7-25.686h10.6L49.433 53.127zm86.457 0h-12.133l1.749-25.361-12.023 25.361H89.109l3.06-40.209H76.426l-2.947 10.838h13.99l-2.4 8.887H71.074l-3.17 11.705h13.991l-2.4 8.887H53.586L66.921 3.922h37.818l-1.858 24.277 11.914-24.062.109-.217h9.4v.217l-1.2 24.061 11.365-24.276h12.023zm47.437-19.942l-5.465 19.834h-11.914l5.465-19.834-3.826-29.263h10.821l2.3 17.341 11.7-17.341h10.821zm8.2 11.705l8.744-32.081c4.372-14.523 35.851-14.2 32.353 0l-8.747 32.081c-4.372 14.523-35.851 14.198-32.353 0zm66.892 8.237h-12.791v-.108l4.263-15.607c1.093-3.793-.328-4.227-3.06-4.227h-4.044l-5.466 19.942h-11.8l13.44-49.205h22.953c11.258 0 8.963 5.636 7 12.789-1.53 5.744-2.4 10.621-8.744 12.247 5.465 1.192 3.607 4.986 1.639 12.247zm26.451 0l-4.372-22h-.109l-6.012 22h-11.917l13.445-49.205h11.914l-4.81 17.775 15.3-17.775h13.007l-18.909 22h.109l5.356 27.2z"></path>
    <path data-name="Path 12" d="M328.259 12.809h-4.372l-4.481 16.366h4.372c2.623 0 4.263-.325 5.247-3.9-.109.434.546-1.951 1.2-4.335.656-2.276 1.312-4.769 1.2-4.335.881-3.471-.542-3.796-3.166-3.796z"></path>
    <path data-name="Path 13" d="M358.755 16.061l-7 25.578c-1.53 5.527 6.449 5.527 7.979 0l7-25.578c1.421-5.528-6.558-5.528-7.979 0z"></path>
    <path data-name="Path 14" d="M240.928 12.809h-4.918l-3.17 11.705h4.919c2.733 0 4.372-.325 5.356-4.227 0 0 1.2-4.444.984-3.685.873-3.468-.547-3.793-3.171-3.793z"></path>
    <path data-name="Path 15" d="M199.175 16.061l-7 25.578c-1.53 5.527 6.449 5.527 7.979 0l7-25.578c1.53-5.528-6.449-5.528-7.979 0z"></path>
    <path data-name="Path 16" d="M449.584 1.971h-30.823a2.436 2.436 0 00-1.2.542l-1.749 1.734c-.328.217-.437.759-.765 0-2.625-3.143-6.888-4.335-12.354-4.228-2.077 0-9.072-.108-15.3 4.227a19.536 19.536 0 00-4.81 4.773c-.219.325-.437.542-.437-.108.109-2.71-2.4-9.1-15.521-8.887-5.356-.217-16.067 1.192-19.893 9.212-.109.325-.219.325-.219 0 .437-5.419-2.842-7.37-10.165-7.37h-22.734a1.951 1.951 0 00-1.093.434l-13.663 14.628a2.058 2.058 0 00-.547 1.084l-13.118 47.907a.478.478 0 00.437.65h12.57a3.227 3.227 0 001.093-.327l14.865-10.838a1.949 1.949 0 00.656-.975l1.093-3.9c.109-.325.328-.65.765-.542 1.312.108 6.339-.434 7.979-1.192.328-.108.437.108.328.542l-1.312 5.094c-3.274 12.352 14.426 12.136 14.426 12.136 10.712 0 16.614-1.084 19.128-6.286.109-.325.109-.325.219 0 0 0-.328 2.493 4.153 4.444 3.825 1.626 13.99 3.577 24.046-.759.765-.325 14.974-8.237 14.974-8.237.328-.217.437 0 .437.325l-2.732 9.971a.478.478 0 00.437.65h11.586a1.857 1.857 0 001.093-.325l15.739-10.838a1.949 1.949 0 00.656-.975l8.964-32.623a3.075 3.075 0 01.656-.975l8.635-5.853a1.948 1.948 0 00.656-.975l3.17-11.6c.221-.214.002-.54-.326-.54zM325.527 37.954h-8.525l-4.153 15.065h-11.914l13.444-49.205h20.439c11.258 0 10.6 5.636 8.635 12.789-.437 1.517-.765 2.926-1.2 4.227a87.931 87.931 0 01-1.2 4.227c-1.86 7.262-4.267 12.897-15.526 12.897zm45.466 6.936c-4.372 14.523-35.851 14.2-32.353 0l8.744-32.081c4.372-14.523 35.851-14.2 32.353 0zm30.167-24.494l1.093-4.118c1.2-4.552-4.153-6.069-6.558-2.384-5.028 8.562 18.581 12.139 11.367 30.455-5.465 14.631-36.834 15.282-33.227.542l2.077-7.587h11.914l-1.09 4.115c-1.2 4.552 5.137 5.311 7.651 1.626 4.919-8.454-16.4-14.631-11.8-28.938a17.484 17.484 0 016.012-7.8c10.384-7.37 29.511-5.311 26.669 6.394 0 0-1.421 5.2-2.077 7.587l-12.023.108zm43.83-7.587h-7.979l-10.926 40.21h-11.914l10.93-40.209h-7.979l2.4-8.887h27.771z"></path>
</svg>