<svg xmlns="http://www.w3.org/2000/svg" width="350" height="100" viewBox="0 0 350 100" aria-labelledby="oregonliveLogoTitle oregonliveLogoDesc" role="img"><title id="oregonliveLogoTitle">oregonlive.com logo</title><desc id="oregonliveLogoDesc">The OREGONLIVE.com black lettering on a transparent background</desc><g fill="none"><g fill="#FFF"><polygon points="113 47.2 348.1 47.2 348.1 46.3 113 46.3"/><path d="M115 23.1C115 20.3 116.1 17.7 118.1 15.8 120.1 13.8 122.8 12.7 125.9 12.7 128.9 12.7 131.7 13.8 133.7 15.8 135.7 17.7 136.8 20.3 136.8 23.1L136.8 23.2C136.8 26 135.7 28.6 133.8 30.5 131.7 32.5 129 33.6 125.9 33.6 122.9 33.6 120.1 32.5 118.1 30.5 116.1 28.6 115 26 115 23.1L115 23.1ZM125.9 35.2C129.5 35.2 132.9 33.9 135.3 31.5 137.6 29.3 138.9 26.3 138.9 23.2 138.9 23.1 138.9 23.1 138.9 23.1 138.9 19.9 137.6 16.9 135.3 14.7 132.9 12.4 129.6 11.1 125.9 11.1 122.3 11.1 118.9 12.4 116.5 14.7 114.2 17 113 20 113 23.1L113 23.2C113 26.4 114.2 29.4 116.5 31.6 118.9 33.9 122.2 35.2 125.9 35.2Z"/><path d="M144.3 12.7L152 12.7C154 12.7 155.7 13.1 156.8 14 157.9 14.8 158.5 16 158.5 17.5L158.5 17.6C158.5 19.1 157.9 20.4 156.6 21.3 155.5 22.1 153.8 22.6 151.9 22.6L144.3 22.6 144.3 12.7ZM144.3 24.1L151.7 24.1 158.9 33.3 158.9 33.3 161.1 33.3 153.6 23.9C155.6 23.6 157.2 22.9 158.3 21.9 159.6 20.8 160.2 19.3 160.2 17.5L160.2 17.4C160.2 15.9 159.6 14.4 158.5 13.3 157.1 11.9 154.8 11.1 152.1 11.1L142.6 11.1 142.6 33.3 144.3 33.3 144.3 24.1Z"/><polyline points="185.2 31.8 170.3 31.8 170.3 22.9 183.5 22.9 183.5 21.3 170.3 21.3 170.3 12.7 185 12.7 185 11.1 168.5 11.1 168.5 33.3 185.2 33.3 185.2 31.8"/><path d="M202.2 35.2C206.8 35.2 209.9 32.7 211.1 31.7L211.1 31.7 211.1 22.7 201.9 22.7 201.9 24.3 209.4 24.3 209.4 31C208 32.2 205.3 33.6 202.2 33.6 196.4 33.6 192.5 29.4 192.5 23.1L192.5 23.1C192.5 20.3 193.5 17.7 195.2 15.8 196.9 13.8 199.3 12.7 201.9 12.7 205.5 12.7 207.6 14.1 209.2 15.5L209.2 15.5 210.3 14.2 210.3 14.2C207.7 12 205.3 11.1 202 11.1 198.8 11.1 195.9 12.4 193.8 14.8 191.8 17 190.7 20 190.7 23.1L190.7 23.2C190.7 26.5 191.8 29.5 193.8 31.7 195.8 34 198.8 35.2 202.2 35.2"/><path d="M220.6 23.1C220.6 20.3 221.7 17.7 223.6 15.8 225.6 13.8 228.4 12.7 231.4 12.7 234.5 12.7 237.2 13.8 239.3 15.8 241.3 17.7 242.4 20.3 242.4 23.1L242.4 23.2C242.4 26 241.3 28.6 239.3 30.5 237.3 32.5 234.5 33.6 231.5 33.6 228.5 33.6 225.7 32.5 223.7 30.5 221.7 28.6 220.6 26 220.6 23.1L220.6 23.1ZM231.4 35.2C235.1 35.2 238.4 33.9 240.8 31.5 243.1 29.3 244.4 26.3 244.4 23.2 244.4 23.1 244.4 23.1 244.4 23.1 244.4 23.1 244.4 23.1 244.4 23.1 244.4 19.9 243.2 16.9 240.9 14.7 238.5 12.4 235.2 11.1 231.5 11.1 227.8 11.1 224.5 12.4 222.1 14.7 219.8 17 218.5 20 218.5 23.1L218.5 23.2C218.5 26.4 219.8 29.4 222 31.6 224.4 33.9 227.8 35.2 231.4 35.2Z"/><polyline points="250 13.7 267.1 33.3 267.1 33.3 268.5 33.3 268.5 11.1 266.7 11.1 266.7 30.3 249.9 11.1 249.9 11.1 248.1 11.1 248.1 33.3 250 33.3 250 13.7"/><polyline points="290.7 31.8 276 31.8 276 11.1 274.1 11.1 274.1 33.3 290.7 33.3 290.7 31.8"/><polygon points="296.3 33.3 298.1 33.3 298.1 11.1 296.3 11.1"/><polyline points="314 33.3 315.6 33.3 325.9 11.1 325.9 11.1 324 11.1 314.8 31.3 305.7 11.1 305.7 11.1 303.7 11.1 314 33.3 314 33.3"/><polyline points="348.1 31.8 333.3 31.8 333.3 22.9 346.5 22.9 346.5 21.3 333.3 21.3 333.3 12.7 348 12.7 348 11.1 331.5 11.1 331.5 33.3 348.1 33.3 348.1 31.8"/><path d="M131.2 86.3C131.2 86.3 128.8 87.4 126.7 87 123.8 86.5 122.4 85.6 121.6 84.9 122.5 84.4 125.3 82.7 126.4 81.6 127.7 80.4 129 79.9 129 75.8 128.9 72.1 129 66.5 129 65.8 129.8 66 130.5 66.2 131.2 66.4L131.2 86.3ZM132.2 85.9L132.2 66.4C132.2 66.4 135.5 66.9 137.2 64.5 139 62.2 138.4 59.5 136.9 58.3 135.3 57.1 134 57.4 133.1 57.7 133.1 57.7 136.3 58.3 135.2 60.4 134.4 62 130.6 61 129.4 60.6 128.3 60.2 119.9 56.3 115 60.3 113.4 61.7 113.6 65.3 115.2 66.7L115.7 66.9C115.7 66.9 114.7 64.5 116.8 63.5 118.9 62.5 121.1 63.3 121.8 63.5 123.8 63.9 126.5 64.9 128.9 65.7 128.4 66 126 67.4 123.3 69.7 123.3 69.7 123.5 77.3 123.4 79.6 123.3 82 122.3 83.7 121.1 84.3 121 84.3 121 84.3 120.9 84.2 120.9 84.2 118.1 82.3 117.7 78.3 117.3 74.2 118.6 68.4 123.3 65.9 123.3 65.9 116.8 66.3 114 73.1 111.2 79.8 114.2 88.2 119.5 91.2 122.4 92.7 135.9 96.3 138.9 79.9 138.9 79.9 136.4 84.5 132.2 85.9Z"/><path d="M274.8 86.6L273.8 87.3 269.7 84.4 269.7 72.2 270.6 71.6 274.8 74.5 274.8 86.6ZM264.8 74.4L264.8 86.7 270.5 90.7 279.6 84.8 279.6 72.6 273.9 68.5 264.8 74.4Z"/><path d="M322.6 86.2C322.2 86.4 321.7 86.6 321 86.8 319.8 87 317.8 86.4 317.2 84.6 316.6 82.8 316.8 80.5 318.4 79.1 319 78.5 320 77.8 321.2 77.6L322.6 78.7 322.6 86.2ZM317.3 73.6L319.8 71.6 322.6 73.7 322.6 77.8 317.3 73.6ZM327 71.9L322.6 68.5 319.8 70.9 316.8 68.5 313.4 71.4 320.5 77.1C320.5 77.1 316.2 78.9 314.6 80.8 313.1 82.7 311.9 86 314.6 89.2 315.8 90.7 318.7 90.7 318.7 90.7L322.7 87.3 326.4 90.7 329.6 88.1 327 85.7 327 71.9Z"/><polyline points="307.4 60.2 304.6 57.4 301.9 60.2 304.6 63 307.4 60.2"/><path d="M227.8 69.6C224.7 72.4 223 73.3 223 73.3L223 71.2 221.1 68.5C219.9 69.4 216.7 71.5 216.7 71.5L217.1 72.1 218.6 71.2 218.6 87.3 222.5 90.7 225.5 87.5 223 85.2 223 74.5 225.2 73C230.1 76.1 231.5 71.2 231.5 71.2 229.3 72.3 227.8 69.6 227.8 69.6"/><polyline points="308.2 71.5 304.4 68.5 300 71.7 300.7 72.3 302 71.6 303.2 72.5 303.1 87.5 307.2 90.7 311.1 87.9 308.1 85.5 308.2 71.5"/><path d="M204.4 88.3L204.4 64.1C206.4 65.4 208.7 68.3 209.6 74.5 210.1 78.6 209 85.6 204.4 88.3ZM204.5 57.4L196.1 65.9 196.1 79.6C196.1 79.6 196.1 82 194.4 83.3 194 83.7 193.5 84 193.3 84.2L194.3 84.2 201.1 79.3 201.1 63C201.1 63 202.1 62.9 203.5 63.6L203.5 88.8C202.3 89.3 201 89.6 199.5 89.5 195.8 89.4 193 84.2 193 84.2L193.1 84.2C192.5 83.1 192 81.9 191.7 80.5 190.6 74.9 191.3 70.1 192.8 66.5 194.1 63.6 195.6 62.5 196.7 61.9 198.3 61 200.3 60.8 198.7 60.7 197.9 60.6 194.7 60.9 191.7 63.1 189.7 64.7 184.9 69 185.2 77 185.5 86.2 192.1 91.5 200.9 90.6 207.6 90 214.8 83.7 214.8 74.3 214.8 60.3 204.5 57.4 204.5 57.4Z"/><polyline points="299.1 72.3 294.9 68.5 289.7 72.7 285.2 68.7 281.5 71.7 282 72.2 282.9 71.5 284.8 73.2 284.8 85.6 283.6 87.3 287.2 90.7 290.7 87.3 289.5 85.6 289.5 74.2 292.4 71.8 294.7 73.8 294.7 87.3 298.5 90.7 301.9 88 299.1 85.5 299.1 72.3"/><polyline points="347.2 72.3 343.1 68.5 337.8 72.7 333.3 68.7 329.6 71.7 330.2 72.2 331.1 71.5 333 73.2 333 85.6 331.7 87.3 335.3 90.7 338.8 87.3 337.7 85.6 337.7 74.2 340.6 71.8 342.9 73.8 342.9 87.3 346.7 90.7 350 88 347.2 85.5 347.2 72.3"/><polyline points="156.4 72.7 152.3 69.5 146.8 73.9 146.8 65.4 146.8 61.1 140.7 66.1 141.2 66.6 142.1 66 142.1 87.3 140.8 88.9 144.5 92.6 148 88.9 146.8 87.3 146.8 75.3 149.5 73.1 152 75 152 89.7 155.8 92.6 159.3 89.4 156.4 87.2 156.4 72.7"/><path d="M255.6 88.2L255.2 88.5 251.3 85.4 251.3 72.4 252 71.9 255.6 74.7 255.6 88.2ZM260.3 73.3L262.4 71.7 261.4 70.9 259.6 72.2 254.9 68.5 246.5 74.6 246.5 87.7C246.5 87.7 250.6 90.9 252.5 92.4L256.1 89.9C256.5 90.6 258.6 94.6 258.6 94.9 258.6 95.1 257.4 95.8 256.2 95.9 255.8 95.8 255.4 95.8 255 95.6 253.7 94.9 252.7 94 250.5 94.1 249.9 94.1 249.3 94.1 248.4 94.3 245.7 94.8 244.3 97.5 244.5 98.4 244.5 98.4 244.7 98.3 245.1 98.1 245.7 98 246.4 97.9 247 97.9 248.4 97.9 250.3 98.2 252.1 100 252.4 99.4 254 97 255.9 96.9 257.8 96.7 263 96.5 263 93.9 262.9 92.1 260.3 88.6 260.3 85.6 260.3 84 260.3 73.3 260.3 73.3Z"/><path d="M238.1 72.5L238.7 72 242 77 238.1 79.8 238.1 72.5ZM245.9 85.6L243 87.6C243 87.6 238.4 83.6 238.2 83.3 238.1 82.9 238.1 82.4 238.1 82.4L238.1 80.8 245.9 75.1C243.2 71 241.6 68.5 241.6 68.5L233.3 73.9 233.3 83C233.3 83 233.3 84.3 233.5 84.9 233.8 85.7 234.3 86 234.3 86L240.1 90.7 246.3 86.3 245.9 85.6Z"/><path d="M163.8 72.5L164.4 72.1 167.7 77.4 163.8 80.4 163.8 72.5ZM168.6 88.6C168.6 88.6 164 84.4 163.9 84 163.8 83.6 163.8 83.1 163.8 83.1L163.8 81.4 171.5 75.3C168.8 71 167.3 68.4 167.3 68.4L159.1 74.1 159.1 83.7C159.1 83.7 159.1 85.1 159.3 85.7 159.6 86.6 160.1 86.9 160.1 86.9L165.8 91.9 171.9 87.2 171.4 86.5 168.6 88.6Z"/><path d="M56.6 96.3C54.7 96.9 45.5 98.5 38.8 95.2 34.1 92.9 29.7 89.4 25.7 83.1 25.7 83.1 41.6 74.2 47.3 66.5 49.7 63.1 49.8 54.1 49.8 54.1L49.8 18.6C49.8 18.6 49.7 18.6 56.6 18.6L56.6 96.3ZM59.8 0L33.7 25.6 33.7 69.5C33.7 69.5 33.3 72.9 31.8 75.1 30.4 77.2 25.4 80.6 24.5 81.2 22.6 77.8 21.1 73.9 20.3 69.7 16.8 52.6 18.9 38.3 23.7 27.4 27.4 18.8 32.9 16.1 34.7 14.9 37.4 13.2 44.2 10.7 41.6 10.4 39.1 10 29.4 11.3 20.3 17.3 12.1 22.7-0.5 34.9 0 59.1 0.6 85.2 19.5 96.1 32 98.6 43.8 100.9 51.3 100.1 57 98.6 57.7 98.4 58.3 98.2 58.7 98 65.5 96.1 75.5 88 79.3 83.4 83.1 78.7 96.8 58.1 88.2 31.4 80.4 7.4 59.8 0 59.8 0Z"/></g></g></svg>