<svg width="717" height="72" viewBox="0 0 717 72"
    xmlns="http://www.w3.org/2000/svg">
    <g fill="#000" fill-rule="nonzero">
        <path d="M690.032 49.582c-1.758 1.919-4.831 5.582-6.271 7.358-4.209-1.44-6.72-4.605-6.72-8.46V27.916c-2.043-1.23-5.402-3.843-6.99-5.156h-.07v24.48c.604 1.101 1.986 2.063 3.042 2.063.72 0 .99-.205 1.982-1.231l.59.54c-2.021 2.207-5.668 6.249-7.502 8.27-2.555-2.323-5.133-4.39-7.642-6.11v-.046c1.255-.603 1.603-1.788 1.603-3.785V26.34c-.534-.952-1.51-1.927-2.183-1.927-.58 0-1.069.325-1.789 1.207l-.627-.72c2.694-2.462 5.946-5.783 7.456-7.571l5.086 4.9c1.324-1.022 4.088-3.46 5.551-4.877 2.253 1.928 7.13 5.295 11.288 7.78v.07c-1.045.627-1.696 1.37-1.696 2.973V47.43c0 1.72 1.464 3.09 2.509 3.09.673 0 1.208-.488 1.904-1.37l.604.557-.125-.124zm-31.518-.274c-2.501 2.548-5.537 5.777-7.051 7.565l-5.063-4.884c-1.3 1.029-4.065 3.46-5.528 4.884-2.23-1.923-7.107-5.29-11.265-7.771v-.047c1.069-.627 1.72-1.37 1.72-2.95V26.852c0-1.718-1.44-3.089-2.486-3.089-.65 0-1.184.488-1.904 1.37l-.581-.534c1.742-1.904 4.83-5.574 6.27-7.339 4.228 1.44 6.736 4.622 6.736 8.454v20.555c2.044 1.231 5.412 3.856 6.991 5.156h.07V26.431c-.627-1.131-1.347-1.951-2.206-1.951-.59 0-1.046.379-1.766 1.129l-.627-.79c2.37-2.123 5.807-5.54 7.642-7.548 2.23 2.41 4.529 4.738 6.874 6.882v.07c-1.323.464-1.932 1.346-1.932 3.762v19.718c.53.953 1.394 1.998 2.044 1.998.592 0 .994-.163 1.784-.906l.41.488-.132.025zM595.301 7.711c-2.242 1.99-4.29 4.401-6.464 6.6-2.497-2.547-3.758-3.92-4.808-3.92-.72 0-1.115.14-1.779.825l-.65-.697c2.113-1.997 5.342-5.296 6.48-6.526 2.253 2.392 3.971 3.832 4.761 3.832s1.185-.21 1.858-.767l.674.604-.072.049zm4.482 40.905l-7.513 8.257c-2.374-2.132-5.667-4.808-7.581-6.12v-.065c.998-.418 1.51-1.586 1.51-3.995V26.477c-.581-1.37-1.301-1.99-2.16-1.99-.442 0-1.046.209-1.835 1.1l-.72-.756c2.322-2.044 5.713-5.296 7.78-7.549 1.324 1.65 4.622 4.947 6.852 6.875v.07c-1.185.488-1.881 1.3-1.881 2.764v20.3c1.114 1.509 1.974 2.066 2.972 2.066.535 0 1.139-.046 2.044-1.23l.604.557-.072-.068zm-18.262-25.85c-1.447 1.445-3.363 3.85-4.947 8.115h-.065c-1.324-2.887-3.507-6.327-4.901-7.7h-.07v24.341c.325.836 1.51 2.276 2.764 2.276 1.022 0 1.905-1.114 2.88-2.067l.58.627c-2.16 2.207-6.061 6.48-7.85 8.524-1.974-1.695-6.061-4.83-8.175-6.317v-.07c1.324-.743 1.788-1.997 1.788-4.25V26.573c-.418-1.231-1.393-2.044-2.113-2.044-.604 0-1.161.278-1.951 1.115l-.697-.744c2.067-1.788 5.876-5.574 7.711-7.548l4.738 5.017 5.853-5.156c.72 1.16 2.508 3.576 4.343 5.644l.112-.091zm-59.423 11.139c-1.98 2.276-4.288 4.952-6.257 7.219-2.314-1.38-6.922-3.92-8.246-3.92-.92 0-1.516.626-2.768 1.931l-.657-.627c1.119-1.238 5.467-6.257 6.264-7.293 2.963 1.587 7.186 3.926 8.437 3.926.79 0 1.515-.481 2.565-1.858l.662.622z"></path>
        <path d="M506.61 49.582c-1.755 1.919-4.83 5.582-6.27 7.358-4.214-1.44-6.722-4.605-6.722-8.46V27.916c-2.044-1.23-5.407-3.843-6.99-5.156h-.059v24.48c.595 1.101 1.974 2.063 3.031 2.063.725 0 .992-.205 1.981-1.231l.597.54c-2.044 2.207-5.674 6.249-7.516 8.27-2.57-2.323-5.144-4.39-7.648-6.11v-.046c1.254-.603 1.603-1.788 1.603-3.785V26.457c-.535-.953-1.557-1.975-2.207-1.975-.58 0-1.045.395-1.835 1.138l-.65-.72c2.648-2.415 6.039-5.783 7.548-7.571l5.087 4.9c1.3-1.022 4.064-3.46 5.55-4.877 2.254 1.928 7.108 5.295 11.288 7.78v.07c-1.045.627-1.718 1.37-1.718 2.973V47.43c0 1.72 1.463 3.09 2.508 3.09.674 0 1.208-.465 1.928-1.37l.58.557-.085-.124zM444.506 7.711c-2.24 1.99-4.285 4.401-6.457 6.6-2.508-2.547-3.753-3.92-4.815-3.92-.696 0-1.091.14-1.765.825l-.65-.697c2.113-1.997 5.342-5.296 6.457-6.526 2.252 2.392 3.948 3.832 4.76 3.832.79 0 1.185-.21 1.859-.767l.673.604-.062.049zm3.298 40.905l-7.516 8.257c-2.37-2.132-5.602-4.745-7.502-6.048v-.14c.987-.413 1.44-1.583 1.44-3.994V26.477c-.59-1.37-1.315-1.99-2.176-1.99-.442 0-1.045.209-1.835 1.1l-.627-.756c2.322-2.044 5.62-5.296 7.688-7.549 1.3 1.65 4.598 4.947 6.851 6.875v.07c-1.184.488-1.904 1.51-1.904 2.764v20.3c1.115 1.509 1.974 2.066 2.973 2.066.534 0 1.207-.046 2.113-1.23l.534.557-.04-.068zm-16.221.966c-1.754 1.919-4.831 5.582-6.257 7.358-4.227-1.44-6.726-4.605-6.726-8.46V27.916c-2.044-1.23-5.407-3.843-6.987-5.156h-.07v24.48c.598 1.101 1.987 2.063 3.039 2.063.724 0 .994-.205 1.98-1.231l.59.54c-2.043 2.207-5.666 6.249-7.508 8.27-2.416-2.184-5.11-4.39-7.474-6.063v-.139c.848-.372 1.403-1.208 1.403-3.646V26.433c-.528-.952-1.487-1.927-2.146-1.927-.59 0-1.108.325-1.886 1.091l-.627-.72c2.659-2.369 5.976-5.783 7.494-7.571l5.087 4.9c1.3-1.022 4.088-3.46 5.55-4.877 2.254 1.928 7.131 5.295 11.289 7.78v.07c-1.046.627-1.72 1.37-1.72 2.973v19.254c0 1.719 1.464 3.09 2.533 3.09.65 0 1.184-.465 1.904-1.371l.58.557-.048-.1zm282.444-22.617c-1.979 1.099-13.317 8.663-14.112 12.781v5.296c0 3.237 5.082 5.57 7.716 5.57 1.12 0 2.636-1.51 4.083-3.09l.73.767-8.701 8.593c-7.59-1.51-11.803-5.899-11.803-10.451V31.218c0-1.324-.725-2.462-2.114-2.88v-.07c3.823-2.183 11.141-7.479 15.496-10.986 2.105 2.625 6.264 7.224 8.705 9.709v-.026zm-7.641 3.363c-2.044-2.197-5.005-5.843-6.394-7.632h-.058v13.75h.058c1.452-2.267 4.287-4.603 6.396-6.118h-.002zm-80.236 15.817c-4.283 2.815-10.544 7.154-14.177 10.79-3.753-2.684-8.566-5.16-11.536-6.326v-.07c.999-.418 1.602-1.305 1.602-3.785V12.937c-.58-1.375-1.323-1.993-2.183-1.993-.464 0-1.045.209-1.835 1.103l-.72-.757c2.3-2.044 5.714-5.295 7.781-7.548 1.324 1.649 4.622 4.947 6.852 6.875v.07c-1.185.487-1.905 1.509-1.905 2.763v9.128c1.324-1.231 3.647-3.693 5.087-5.365 7.13 3.646 9.824 5.853 9.824 11.357v15.004c0 1.58.674 2.276 1.254 2.555v.07l-.044-.054zm-9.225 5.017V29.985c0-2.462-1.851-5.022-6.859-6.945H610v24.132c1.835.894 5.133 2.757 6.852 3.987l.07-.009.002.012zM564.619 8.396c0 5.017-3.29 8.868-8.842 8.868a15.94 15.94 0 01-3.354-.372V49.75c4.39-.892 6.434-2.95 9.059-5.584l.65.853c-3.368 5.96-8.803 12.537-17.443 12.537-11.613 0-19.974-8.245-19.974-20.95 0-11.613 7.85-18.557 16.142-23.18l.65.628c-4.552 3.507-8.779 10.66-8.779 20.02 0 7.177 2.276 11.103 5.644 13.355 1.719-1.742 1.881-3.483 1.881-6.27v-13.61c0-5.018 4.506-8.525 8.896-11.544-5.621-1.998-11.102-5.574-17.42-5.574-5.806 0-8.57 1.858-8.57 5.016 0 2.416 1.649 3.786 3.368 3.786 1.115 0 1.974-.209 2.624-.673l-.395 1.927a7.249 7.249 0 01-1.718.21c-3.113 0-5.203-1.998-5.203-6.04 0-6.874 4.924-11.821 13.1-11.821 10.451 0 17.233 7.92 24.061 7.92 2.834 0 4.088-.883 4.088-2.81 0-1.72-1.068-2.671-2.857-3.16l1.51-1.09c1.38.696 2.764 2.484 2.764 4.83l.118-.13zm-13.187 41.51V16.664c-.372-.093-.743-.21-1.122-.321-2.276 2.127-2.764 4.05-2.764 7.867v13.75c0 4.644-2.67 6.56-8.315 10.037 2.718 1.48 5.992 2.068 9.685 2.068.883 0 1.696-.054 2.486-.158l.03-.003zm-78.253-25.758c-.854.337-1.454 1.3-1.454 2.675v19.092c0 1.092.337 2.067 1.194 2.532v.07c-4.018 1.091-9.755 4.32-14.435 8.314-6.34-3.158-9.754-6.34-9.754-11.915V30.563c0-1.115-.465-2.067-1.522-2.555v-.07c4.613-2.485 11.204-7.641 14.372-10.8 2.114 1.719 8.11 5.296 11.604 6.875v.07l-.005.065zm-9.425 27.639V27.504c-1.85-.962-5.736-3.363-6.986-4.536h-.06v21.043c0 3.646 3.948 6.317 6.986 7.757h.06v.019z"></path>
        <path d="M401.372 48.993s-5.453 6.2-7.026 8.082c-2.833-.896-5.862-2.824-6.99-6.122l-6.26 6.396c-8.438-2.271-14.697-6.124-14.697-14.028V13.415c0-2.473-.994-3.848-2.704-3.848-1.58 0-3.112.743-3.112 2.88 0 1.23.418 2.183.929 3.158l-1.231-.07c-.395-.766-.836-1.95-.836-3.297 0-5.365 3.623-8.315 8.71-8.315 4.296 0 6.99 3.368 6.99 8.245v29.566c0 2.44.767 3.926 2.579 5.389V9.639c0-1.45-.395-1.99-1-2.472.79-.757 1.325-1.51 1.859-2.612h.14V24.9c1.44.627 2.763.906 4.087.906 1.324 0 2.903-.279 4.157-.882V14.19c-.65-1.37-1.718-2.613-2.903-2.613-.58 0-.929.14-1.58.82l-.58-.483 7.177-7.839 8.896 7.774v.07c-1.37.483-2.253 1.51-2.253 3.367v30.496c0 2.568 1.788 4.245 3.228 4.245.302 0 .766-.31 1.115-.696l.836-.883.557.557-.088-.013zm-14.479-17.496v-5.621c-1.138.488-2.508.766-4.157.766-1.603 0-2.857-.255-4.088-.743v5.644a11.062 11.062 0 014.088-.743c1.649 0 3.02.278 4.134.766l.023-.07zm.256 18.58c-.14-.813-.28-1.904-.28-2.531V32.472c-1.253-.604-2.833-.883-4.156-.883-1.324 0-2.648.28-4.088.906v15.399c.325.232.72.464 1.115.72 1.997 1.184 4.413 1.788 6.062 1.788.534 0 .929-.07 1.323-.278l.024-.047zM264.96 8.361c-2.193 1.942-4.185 4.288-6.306 6.434-2.445-2.478-3.67-3.823-4.698-3.823-.709 0-1.092.14-1.733.808l-.65-.673c2.067-1.94 5.214-5.157 6.305-6.364 2.207 2.346 3.856 3.75 4.646 3.75.766 0 1.16-.197 1.811-.736l.65.604h-.025zm4.366 39.879l-7.332 8.045c-2.313-2.078-5.532-4.691-7.4-5.96v-.069c.96-.395 1.475-1.533 1.475-3.879V26.663c-.58-1.347-1.287-1.95-2.125-1.95-.441 0-1.022.201-1.793 1.068l-.708-.732c2.252-2.009 5.597-5.16 7.594-7.372 1.287 1.603 4.5 4.831 6.69 6.712v.07c-1.162.488-1.868 1.278-1.868 2.694v19.765c1.092 1.487 1.928 2.021 2.887 2.021.511 0 1.092-.07 1.974-1.208l.58.535.026-.026zm-68.316.945c-1.742 1.875-4.692 5.424-6.108 7.172-4.123-1.416-6.569-4.494-6.569-8.245V28.068c-1.99-1.207-5.272-3.753-6.814-5.028h-.063v23.853c.58 1.073 1.928 2.009 2.95 2.009.713 0 .966-.204 1.928-1.208l.58.534c-1.99 2.142-5.527 6.097-7.33 8.037-2.508-2.277-5.017-4.29-7.455-5.958v-.063c1.23-.603 1.556-1.749 1.556-3.693V26.577c-.511-.933-1.347-1.94-1.974-1.94-.58 0-.953.14-1.742.874l-.372-.464c2.439-2.485 5.412-5.635 6.898-7.377l4.899 4.743c1.284-.999 3.985-3.345 5.402-4.754 2.188 1.88 6.944 5.16 11.004 7.576v.063c-1.029.603-1.672 1.342-1.672 2.88v18.775c0 1.673 1.412 3.02 2.439 3.02.643 0 1.161-.474 1.867-1.347l.58.543-.004.016zm-131.792 0c-1.71 1.865-4.715 5.435-6.109 7.172-4.12-1.416-6.566-4.494-6.566-8.245V28.068c-1.997-1.207-5.272-3.753-6.819-5.028h-.07v23.783c.581 1.069 1.789 2.079 2.834 2.079.906 0 1.092-.202 2.067-1.208l.58.534c-1.997 2.08-5.48 5.96-7.339 8.041-1.858-1.804-4.9-4.157-7.409-5.962v-.065c1.162-.534 1.464-1.812 1.464-3.756v-30.57c0-6.377 6.131-10.544 10.056-12.76l.488.697c-1.742 1.3-2.833 3.81-2.833 8.245v10.313c1.254-1.022 3.971-3.391 5.388-4.762 2.183 1.882 6.944 5.156 10.986 7.572v.046c-1.045.604-1.673 1.347-1.673 2.88v18.767c0 1.672 1.417 3.02 2.44 3.02.626 0 1.16-.489 1.857-1.348l.58.534.078.065zM347.045 24.38c-.836.332-1.417 1.27-1.417 2.613V45.62c0 1.075.325 2.011 1.161 2.485v.06c-3.925 1.07-9.522 4.228-14.09 8.106-6.179-3.075-9.524-6.159-9.524-11.59V30.659c0-1.073-.45-2.011-1.481-2.485v-.06c4.505-2.416 10.939-7.444 14.028-10.522 2.056 1.672 7.913 5.161 11.323 6.7V24.382zm-9.198 26.942V27.655c-1.811-.93-5.597-3.275-6.828-4.42h-.06v20.578c0 3.542 3.855 6.097 6.812 7.502h.07l.006.007zm-18.469 4.963c0 1.812-1.533 3.693-6.882 7.514-3.212 2.276-9.053 4.622-10.4 5.9-1.673-2.486-1.905-3.624-3.693-3.624-2.903 0-8.106 1.208-9.128 1.998l-.464-.465c1.16-2.555 7.571-7.316 12.913-7.316 3.391 0 7.014 1.742 8.222 3.553 1.347-1.277 2.23-2.16 2.23-3.948 0-3.228-2.183-3.972-2.834-8.268h-.07c-1.3 1.068-3.994 3.484-5.341 4.622-4.39-3.438-8.315-6.109-11.01-7.595v-.07c.837-.464 1.673-1.486 1.673-3.089V30.633c0-1.092-.465-2.021-1.487-2.486v-.07c4.506-2.415 10.94-7.455 14.029-10.52 2.044 1.672 7.897 5.156 11.31 6.688v.07c-.835.325-1.416 1.278-1.416 2.601v21.717c0 3.414 2.253 3.809 2.253 7.571l.095.081zM309.34 50.92V27.648c-1.789-.934-5.59-3.28-6.812-4.422h-.07v22.65c1.287.673 4.116 2.817 6.821 5.028h.063v-.019l-.002.035zm-17.106-23.795c-1.928 1.069-12.997 8.455-13.766 12.473v5.156c0 3.135 4.947 5.435 7.518 5.435 1.097 0 2.578-1.487 3.99-3.02l.72.744-8.477 8.36c-7.386-1.486-11.497-5.76-11.497-10.195V31.26c0-1.278-.696-2.416-2.067-2.81v-.07c3.74-2.137 10.893-7.317 15.12-10.73 2.067 2.53 6.109 7.037 8.5 9.452l-.04.023zM284.77 30.4c-1.997-2.16-4.9-5.713-6.247-7.432h-.07v13.401h.046c1.417-2.206 4.181-4.482 6.248-5.969h.023zm-34.35 14.61c-5.087 3.204-11.59 8.105-15.33 11.659-2.136-2.695-5.922-5.76-11.078-5.76-5.203 0-8.617 2.253-10.87 5.342l-.767-.604c4.878-6.178 6.62-8.036 6.62-12.264v-16.35c0-5.11 3.275-7.595 9.267-11.613l.627.603c-2.392 2.137-2.834 3.949-2.834 7.781v15.283c0 3.02-1.556 5.504-3.228 6.898v.07c1.394-.697 3.879-1.44 6.55-1.464.604 0 1.23.093 1.858.163V13.75c-2.973.371-6.132 1.022-9.778 1.022-4.506 0-7.525-2.81-7.525-6.968.07-4.552 2.833-6.829 7.409-6.968l.371 1.742c-1.881-.255-5.017 0-5.017 2.416 0 1.741 1.464 2.16 4.762 2.16 3.46 0 9.453-1.547 14.47-1.547 9.522 0 12.913 5.226 12.913 12.449v23.272c0 2.95.58 3.414 1.533 3.554v.139l.046-.012zm-10.104-19.928v-3.993c0-5.435-.975-7.579-4.97-7.579-1.138 0-2.137.056-3.09.15v11.45c1.394.603 2.695.882 3.972.882 1.278 0 2.834-.255 4.042-.86l.046-.05zm0 6.433v-5.502c-1.092.478-2.439.743-4.064.743-1.557 0-2.764-.265-3.995-.743v5.504a10.617 10.617 0 013.971-.734c1.603 0 2.95.265 4.042.732h.046zm0 17.698V32.444c-1.23-.604-2.787-.86-4.064-.86-1.301 0-2.578.256-3.995.86V44.94c3.367.72 5.9 2.113 7.966 4.273h.093zm-69.097-1.022c-6.828 7.432-7.339 8.036-7.339 8.036-1.881-1.742-4.506-3.902-5.923-4.9-1.927 1.881-2.647 2.74-4.575 4.877-5.853-.813-9.383-4.97-9.383-10.335 0-7.502 6.433-12.078 10.66-13.89-2.833-3.948-6.758-7.455-8.825-8.71v-.043l5.62-5.598c.952 1.603 2.694 2.95 4.111 2.95 2.044 0 3.995-1.407 5.017-2.95 1.161 1.34 5.086 4.961 7.014 6.636v.07c-1.347.866-1.858 1.068-1.858 3.813v18.697c.372.534 1.347 1.998 2.88 1.998.883 0 1.277-.419 1.974-1.208l.58.534.047.023zm-13.262-13.75V24.99l-1.486-1.533c-1.603 1.672-4.134 1.858-5.853 1.927v.07c2.044 1.672 6.225 6.573 7.27 8.989h.069zm0 15.353v-9.732c0-2.276-.836-4.761-2.578-7.037-2.253 1.463-4.505 4.273-4.505 9.383 0 4.413 2.624 7.827 5.969 7.827.371 0 .696-.07 1.091-.488l.023.047zm-14.167-16.77c0 8.966-10.173 17.745-17.048 24.132-1.812-2.16-6.318-5.504-11.01-5.504-5.666 0-8.105 2.067-10.428 5.017l-.464-.349c1.672-6.364 6.434-11.394 13.123-11.394 6.689 0 11.264 2.95 13.517 5.156 5.853-6.039 7.386-8.64 7.386-12.333 0-2.462-.511-5.62-6.039-8.268-1.719-.813-3.925-1.603-6.759-2.37l-1.022 1.533c3.415.906 5.877 1.789 7.642 2.834 3.437 2.044 4.25 4.506 4.25 7.572 0 1.811-1.742 4.621-3.228 5.899h-.07c-.186-4.35-1.696-6.464-12.426-8.85l-.906-.197c-.604.93-1.184 1.812-1.718 2.695-1.998 3.21-4.762 3.228-4.762 3.228-1.625 0-2.903-1.06-2.903-2.415 0-1.742 1.092-2.555 2.555-2.555 1.4 0 2.462 1.732 3.275 1.732.232 0 .441-.093.636-.394l1.672-2.57c-4.784-1.16-10.474-3.46-10.474-9.429 0-2.555.894-4.42 2.05-5.76h.07c.639 3.647 2.982 5.388 13.137 7.96l1.022-1.545-.711-.186c-6.178-1.556-12.798-3.228-12.798-10.8 0-7.107 6.179-11.195 14.47-11.195 5.802 0 9.407 1.742 11.938 3.391l1.185-1.649.836.604c-3.02 4.204-5.946 8.478-8.85 12.774.967.28 1.859.535 2.695.837 8.199 2.84 10.103 6.085 10.103 12.402l.054-.002zm-9.964-19.253c-2.044-2.323-6.294-5.157-10.614-5.157-6.062 0-8.106 1.812-8.106 4.158 0 3.484 4.9 4.204 12.147 6.039.929.232 1.788.44 2.624.673a467.092 467.092 0 013.902-5.713h.047zM92.367 27.056c-1.928 1.068-13.007 8.454-13.773 12.472v5.156c0 3.159 4.947 5.435 7.525 5.435 1.092 0 2.578-1.486 3.995-3.02l.697.744-8.501 8.361c-7.41-1.486-11.52-5.76-11.52-10.196V31.213c0-1.3-.72-2.415-2.067-2.81v-.07c3.74-2.137 10.87-7.316 15.12-10.73 2.044 2.531 6.108 7.037 8.5 9.453h.024zm-7.456 3.298c-1.997-2.16-4.9-5.714-6.248-7.456h-.07V36.3h.07c1.417-2.207 4.181-4.506 6.248-5.97v.024zM41.621 9.15c0 4.887-3.16 8.51-8.564 8.51-1.115 0-2.2-.13-3.28-.358v32.033c5.39-1.012 7.874-3.971 9.802-7.34l.813.805c-3.066 6.898-8.222 14.144-18.14 14.144-11.31 0-19.486-8.043-19.486-20.443 0-11.325 7.665-18.098 15.77-22.594l.65.608c-4.435 3.414-8.546 10.382-8.546 19.487 0 6.977 2.044 10.985 5.342 13.187 1.672-1.695 1.997-3.57 1.997-6.282v-13.27c0-4.893 4.413-8.305 8.687-11.245-5.482-1.937-10.847-5.442-17.002-5.442-5.644 0-8.361 1.812-8.361 4.9 0 2.342 1.626 3.682 3.298 3.682 1.115 0 1.951-.2 2.578-.669l-.395 1.877c-.51.134-1.138.2-1.649.2C2.067 20.944 0 19.002 0 15.045c0-7.177 4.817-11.53 12.802-11.53 10.208 0 16.816 7.711 23.481 7.711 2.764 0 3.986-.873 3.986-2.754 0-1.672-1.027-2.613-2.764-3.078l1.482-1.077c1.352.534 2.638 2.531 2.638 4.83l-.004.003zM28.823 49.478V17.07c-.367-.093-.73-.195-1.091-.307-2.22 2.072-2.709 3.949-2.709 7.67v13.4c0 4.54-2.698 6.509-8.212 9.895 2.624 1.445 5.946 1.91 9.569 1.91.836 0 1.672-.052 2.439-.152l.004-.01z"></path>
    </g>
</svg>