<svg version="1.1"
    xmlns="http://www.w3.org/2000/svg">
    <defs id="defs6">
        <clipPath id="clipPath18" clipPathUnits="userSpaceOnUse">
            <path id="path16" d="M 0,33 H 293.307 V 0 H 0 Z"/>
        </clipPath>
    </defs>
    <g transform="matrix(1.3333333,0,0,-1.3333333,0,44)" id="g10">
        <g id="g12">
            <g clip-path="url(#clipPath18)" id="g14">
                <g transform="translate(159.3051,21.4425)" id="g20">
                    <path id="path22" style="fill:#ffffff;fill-opacity:1;fill-rule:nonzero;stroke:none" d="m 0,0 c -0.293,-1.956 -1.822,-3.485 -3.646,-3.485 -1.399,0 -2.019,0.682 -2.702,1.529 L -6.481,-2.02 v -7 c 0,-2.246 1.206,-3.387 4.006,-3.938 l 1.856,1.853 0.392,-0.389 -4.331,-4.235 c -4.072,0.619 -5.894,3.028 -5.894,6.024 v 4.981 c 0,0.551 -0.031,0.88 -0.26,1.175 2.246,0.974 5.437,2.926 7.326,4.523 0.357,-0.487 1.076,-1.107 1.889,-1.107 0.414,0 0.864,0.124 1.204,0.325 C -0.107,0.303 0.029,0.204 0,0"/>
                </g>
                <g transform="translate(132.444,26.9735)" id="g24">
                    <path id="path26" style="fill:#ffffff;fill-opacity:1;fill-rule:nonzero;stroke:none" d="m 0,0 -2.344,-2.375 -2.442,2.244 2.376,2.479 z"/>
                </g>
                <g transform="translate(135.6997,9.1345)" id="g28">
                    <path id="path30" style="fill:#ffffff;fill-opacity:1;fill-rule:nonzero;stroke:none" d="m 0,0 -3.45,-3.421 c -1.759,0.619 -3.093,1.849 -3.093,3.875 v 7.975 c 0,0.928 -0.365,1.586 -1.204,2.018 L -8.921,9.28 -9.279,9.637 -5.6,13.313 c 2.375,-1.274 3.028,-2.708 3.028,-4.36 V 1.074 c 0,-0.84 0.358,-1.368 1.205,-1.694 L -0.391,0.389 0,0"/>
                </g>
                <g transform="translate(126.9094,21.4425)" id="g32">
                    <path id="path34" style="fill:#ffffff;fill-opacity:1;fill-rule:nonzero;stroke:none" d="m 0,0 c -0.293,-1.956 -1.823,-3.485 -3.645,-3.485 -1.402,0 -2.02,0.682 -2.704,1.529 L -6.478,-2.02 v -7 c 0,-2.246 1.203,-3.387 4.003,-3.938 l 1.856,1.853 0.392,-0.389 -4.331,-4.235 c -4.07,0.619 -5.892,3.028 -5.892,6.024 v 4.981 c 0,0.551 -0.033,0.88 -0.261,1.175 2.246,0.974 5.436,2.926 7.325,4.523 0.358,-0.487 1.076,-1.107 1.889,-1.107 0.413,0 0.866,0.124 1.204,0.325 C -0.106,0.303 0.031,0.204 0,0"/>
                </g>
                <g transform="translate(115.9051,9.0031)" id="g36">
                    <path id="path38" style="fill:#ffffff;fill-opacity:1;fill-rule:nonzero;stroke:none" d="m 0,0 -3.32,-3.289 c -1.823,0.683 -3.191,1.902 -3.191,3.841 v 6.74 c 0,2.052 -0.295,2.833 -1.986,3.55 l -1.63,-1.597 V 1.043 c 0,-1.004 0.456,-1.433 1.369,-1.792 l -2.539,-2.54 c -2.051,0.813 -2.802,1.986 -2.802,4.038 v 7.978 c 0,1.205 -0.324,1.594 -1.203,1.918 l -0.879,-0.877 -0.392,0.357 3.289,3.32 c 2.115,-0.518 3.061,-1.92 3.126,-3.482 l 3.517,3.482 C -3.939,12.829 -2.54,11.396 -2.54,8.596 V 0.814 c 0,-0.811 0.422,-1.237 1.14,-1.431 L -0.423,0.387 0,0"/>
                </g>
                <g transform="translate(88.2968,21.4732)" id="g40">
                    <path id="path42" style="fill:#ffffff;fill-opacity:1;fill-rule:nonzero;stroke:none" d="m 0,0 c -0.489,-2.018 -1.759,-3.353 -3.68,-3.353 -1.13,0 -1.923,0.519 -2.474,1.104 l -0.097,-0.066 v -8.396 c 0,-1.173 0.161,-1.759 1.854,-2.248 l 1.01,1.04 0.391,-0.39 -3.485,-3.45 c -2.8,0.783 -3.742,2.266 -3.742,4.526 v 6.999 c 0,1.239 -0.294,1.953 -1.141,2.183 l -1.041,-1.043 -0.392,0.392 3.68,3.676 c 1.595,-0.292 2.636,-1.692 2.702,-2.93 l 3.028,2.93 c 0.391,-0.585 1.139,-1.202 1.823,-1.202 0.424,0 0.879,0.129 1.204,0.389 C -0.176,0.307 0.041,0.17 0,0"/>
                </g>
                <g transform="translate(68.2398,30.2626)" id="g44">
                    <path id="path46" style="fill:#ffffff;fill-opacity:1;fill-rule:nonzero;stroke:none" d="m 0,0 c -0.834,-1.747 -2.257,-3.028 -4.752,-3.028 -1.368,0 -3.872,0.946 -4.85,0.946 -1.564,0 -2.25,-0.482 -2.25,-1.404 0,-0.313 0.229,-0.564 0.555,-0.649 0.29,-0.073 0.519,-0.247 0.519,-0.455 0,-0.261 -0.16,-0.424 -0.455,-0.424 -0.716,0 -1.4,0.812 -1.4,2.215 0,2.344 2.022,4.036 4.429,4.036 1.867,0 4.365,-1.659 5.632,-1.659 0.976,0 1.66,0.259 2.378,0.78 C 0.047,0.535 0.142,0.296 0,0"/>
                </g>
                <g transform="translate(50.8207,9.0031)" id="g48">
                    <path id="path50" style="fill:#ffffff;fill-opacity:1;fill-rule:nonzero;stroke:none" d="m 0,0 -3.319,-3.289 c -1.824,0.683 -3.192,1.902 -3.192,3.841 v 6.74 c 0,2.052 -0.294,2.833 -1.986,3.55 L -10.125,9.245 V 1.043 c 0,-1.004 0.455,-1.433 1.368,-1.792 l -2.54,-2.54 c -2.051,0.813 -2.8,1.986 -2.8,4.038 v 7.978 c 0,1.205 -0.325,1.594 -1.205,1.918 l -0.878,-0.877 -0.391,0.357 3.288,3.32 c 2.115,-0.518 3.06,-1.92 3.126,-3.482 l 3.516,3.482 C -3.939,12.829 -2.54,11.396 -2.54,8.596 V 0.814 c 0,-0.811 0.425,-1.237 1.142,-1.431 L -0.422,0.387 0,0"/>
                </g>
                <g transform="translate(167.771,8.1558)" id="g52">
                    <path id="path54" style="fill:#ffffff;fill-opacity:1;fill-rule:nonzero;stroke:none" d="m 0,0 v 8.238 c 0,2.117 -1.433,3.255 -3.746,3.548 L -3.908,11.721 V 3.612 c 0,-2.505 1.433,-3.318 3.709,-3.708 z M 4.198,1.922 C 2.145,0.983 -1.117,-0.884 -3.452,-2.442 -6.123,-1.823 -7.88,-0.16 -7.88,2.573 v 6.024 c 0,0.593 -0.066,0.943 -0.262,1.205 2.149,0.944 5.926,3.105 7.719,4.361 2.572,-0.586 4.394,-2.345 4.394,-4.882 V 3.388 c 0,-0.749 0.091,-1.178 0.227,-1.466"/>
                </g>
                <g transform="translate(142.6353,8.3187)" id="g56">
                    <path id="path58" style="fill:#ffffff;fill-opacity:1;fill-rule:nonzero;stroke:none" d="M 0,0 V 2.833 C 0,4.168 -0.359,4.494 -1.4,4.819 -2.508,3.319 -4.722,0.294 -4.722,0.294 l 0.066,-0.033 c 0.813,0.555 1.693,0.716 2.312,0.716 0.877,0 1.757,-0.424 2.246,-1.041 z M 2.474,11.232 2.408,11.298 C 1.627,10.66 0.734,10.16 -0.164,10.16 c -1.361,0 -1.952,0.617 -2.604,1.463 l -0.13,-0.034 v -2.83 c 0,-1.158 0.556,-1.499 2.149,-2.019 1.217,1.594 3.223,4.492 3.223,4.492 m 2.05,2.051 c 0,0 -1.639,-2.588 -3.841,-5.597 C 2.636,7.196 3.972,6.185 3.972,4.331 V 1.953 C 3.972,1.72 4.073,1.139 4.264,0.846 2.668,0.25 -0.277,-1.273 -2.15,-2.605 c -0.65,0.619 -1.204,0.88 -2.115,0.88 -1.597,0 -2.931,-0.877 -2.931,-2.183 0,-0.24 0.202,-0.453 0.424,-0.551 0.239,-0.109 0.423,-0.292 0.423,-0.49 0,-0.325 -0.292,-0.522 -0.521,-0.522 -0.684,0 -0.911,0.752 -0.911,1.629 0,1.466 1.243,2.722 2.539,4.461 0,0 1.931,2.626 2.377,3.192 -2.572,0.877 -3.973,1.831 -3.973,3.743 v 1.333 c 0,0.57 -0.032,1.043 -0.26,1.466 1.693,0.553 4.948,2.606 6.577,3.745 0.464,-0.666 1.497,-1.204 2.214,-1.204 1.009,0 1.823,0.294 2.604,0.717 0.236,0.129 0.453,0.002 0.227,-0.328"/>
                </g>
                <g transform="translate(93.8642,9.296)" id="g60">
                    <path id="path62" style="fill:#ffffff;fill-opacity:1;fill-rule:nonzero;stroke:none" d="M 0,0 V 5.468 C -2.021,4.849 -3.289,3.712 -3.289,1.759 c 0,-1.665 0.618,-2.409 1.724,-2.866 z M 6.348,-0.424 3.188,-3.582 C 1.92,-3.189 0.389,-2.215 0.096,-0.522 H 0.031 l -4.07,-3.06 c -1.855,0.554 -3.059,2.346 -3.059,4.201 0,3.092 3.222,4.788 7.098,5.372 v 1.072 c 0,1.825 -0.685,3.095 -3.973,3.158 l -1.074,-1.039 -0.392,0.359 3.614,3.611 c 3.159,0 5.796,-2.049 5.796,-5.177 V 0.684 c 0,-1.128 0.521,-1.466 1.043,-1.661 l 0.944,0.913 0.39,-0.36"/>
                </g>
                <g transform="translate(72.7315,21.4075)" id="g64">
                    <path id="path66" style="fill:#ffffff;fill-opacity:1;fill-rule:nonzero;stroke:none" d="M 0,0 V 4.882 C -0.825,5.357 -1.431,6.03 -1.757,6.773 L -1.952,6.643 V 0 Z M 6.611,7.681 C 6.154,6.025 4.764,4.233 2.508,4.233 1.818,4.233 1.217,4.367 0.589,4.656 V 0 H 3.193 L 1.695,-3.224 H 0.589 v -12.47 c 0,-0.143 -0.165,-0.227 -0.295,-0.227 -0.13,0 -0.294,0.072 -0.294,0.227 v 12.47 h -1.952 v -4.458 c 0,-4.617 -2.04,-5.674 -7.066,-8.956 -1.47,1.23 -2.647,2.216 -5.142,2.216 -3.721,0 -5.016,-1.263 -5.016,-2.931 0,-1.114 0.505,-1.381 0.912,-1.564 0.228,-0.102 0.456,-0.256 0.456,-0.52 0,-0.293 -0.194,-0.455 -0.489,-0.455 -0.845,0 -1.562,1.002 -1.562,3.19 0,3.224 2.594,5.958 7.13,5.958 3.115,0 4.867,-1.12 6.446,-2.768 V 4.361 l -1.27,-0.585 v -8.073 c 0,-2.666 -0.807,-4.581 -5.273,-5.99 -0.205,-0.066 -0.39,0.097 -0.164,0.26 1.28,0.913 1.663,1.383 1.663,3.449 v 3.354 h -0.718 c -1.615,0 -1.804,-0.573 -1.921,-1.301 -0.012,-0.081 -0.131,-0.162 -0.292,0 -0.303,0.296 -0.653,0.916 -0.653,1.757 0,1.991 1.162,2.768 3.061,2.768 h 0.523 v 0.584 c 0,0.98 -0.112,1.598 -0.359,2.086 4.271,1.538 9.177,3.76 13.381,6.837 0.604,-0.688 1.491,-1.725 3.419,-1.725 0.423,0 0.846,0.065 1.17,0.227 0.274,0.136 0.417,0.003 0.327,-0.328"/>
                </g>
                <g transform="translate(28.7784,9.296)" id="g68">
                    <path id="path70" style="fill:#ffffff;fill-opacity:1;fill-rule:nonzero;stroke:none" d="M 0,0 V 5.468 C -2.018,4.849 -3.288,3.712 -3.288,1.759 c 0,-1.665 0.621,-2.409 1.726,-2.866 z M 6.351,-0.424 3.193,-3.582 c -1.27,0.393 -2.801,1.367 -3.094,3.06 H 0.032 l -4.067,-3.06 c -1.855,0.554 -3.061,2.346 -3.061,4.201 0,3.092 3.223,4.788 7.096,5.372 v 1.072 c 0,1.825 -0.683,3.095 -3.971,3.158 l -1.073,-1.039 -0.391,0.359 3.614,3.611 c 3.157,0 5.795,-2.049 5.795,-5.177 V 0.684 c 0,-1.128 0.521,-1.466 1.042,-1.661 l 0.944,0.913 0.391,-0.36"/>
                </g>
                <g transform="translate(15.7245,25.9989)" id="g72">
                    <path id="path74" style="fill:#ffffff;fill-opacity:1;fill-rule:nonzero;stroke:none" d="m 0,0 c -1.4,1.642 -3.927,3.908 -7.066,3.908 -1.875,0 -2.995,-0.9 -2.995,-2.576 0,-1.312 1.269,-2.591 4.688,-3.285 L -1.857,-2.67 C -1.308,-1.911 0,0 0,0 m 6.283,-9.509 c 0,-2.877 -2.227,-5.181 -4.526,-7.748 -1.166,-1.302 -2.38,-2.634 -3.516,-3.905 -1.567,1.563 -3.861,2.603 -6.477,2.603 -4.199,0 -6.416,-1.435 -6.416,-3.321 0,-0.911 0.293,-1.351 0.651,-1.497 0.398,-0.163 0.717,-0.314 0.717,-0.684 0,-0.311 -0.26,-0.422 -0.521,-0.422 -0.847,0 -1.53,1.265 -1.53,3.061 0,3.333 2.588,6.737 8.4,6.737 3.466,0 5.741,-1.118 7.619,-2.765 0.911,1.061 2.767,3.372 2.767,5.532 0,3.371 -2.25,4.582 -5.534,5.21 l -1.533,0.29 -0.487,-0.68 1.595,-0.328 c 3.089,-0.627 5.014,-1.72 5.014,-4.392 0,-1.694 -0.683,-2.9 -1.368,-3.713 0.024,0.237 0.034,0.461 0.034,0.684 0,1.938 -1.324,3.438 -5.567,4.329 l -1.857,0.392 c -1.758,-2.278 -2.692,-3.028 -3.939,-3.028 -0.72,0 -1.043,0.26 -1.043,0.586 0,0.357 0.294,0.553 0.685,0.553 0.358,0 0.554,-0.454 0.913,-0.454 0.649,0 1.464,0.814 2.799,2.474 l -1.304,0.291 c -3.233,0.729 -4.786,1.988 -4.786,4.005 0,1.268 0.521,1.971 0.977,2.213 0.719,-1.651 2.393,-2.456 5.666,-3.123 l 1.594,-0.326 0.489,0.685 -1.562,0.323 c -4.638,0.967 -6.023,2.351 -6.023,5.21 0,3.225 2.733,5.924 7.162,5.924 2.802,0 4.924,-0.842 6.87,-2.181 l 0.88,1.107 c 0.089,0.113 0.197,0.131 0.292,0.131 0.13,0 0.251,-0.071 0.26,-0.197 C 3.683,4.019 3.69,3.964 3.646,3.908 2.002,1.782 -0.114,-1.022 -1.205,-2.833 3.451,-3.646 6.283,-5.242 6.283,-9.509"/>
                </g>
                <g transform="translate(282.0423,9.1974)" id="g76">
                    <path id="path78" style="fill:#ffffff;fill-opacity:1;fill-rule:nonzero;stroke:none" d="m 0,0 -3.483,-3.483 c -1.791,0.618 -3.125,1.783 -3.125,3.875 v 16.147 c 0,0.93 -0.363,1.584 -1.205,2.018 l -1.172,-1.14 -0.357,0.359 3.679,3.647 c 2.507,-0.977 3.025,-2.711 3.025,-4.363 V 1.012 c 0,-0.841 0.328,-1.369 1.175,-1.695 L -0.389,0.357 0,0"/>
                </g>
                <g transform="translate(260.2281,26.9735)" id="g80">
                    <path id="path82" style="fill:#ffffff;fill-opacity:1;fill-rule:nonzero;stroke:none" d="m 0,0 -2.342,-2.375 -2.44,2.244 2.374,2.479 z"/>
                </g>
                <g transform="translate(274.2623,21.4425)" id="g84">
                    <path id="path86" style="fill:#ffffff;fill-opacity:1;fill-rule:nonzero;stroke:none" d="m 0,0 c -0.29,-1.956 -1.826,-3.485 -3.649,-3.485 -1.398,0 -2.018,0.682 -2.701,1.529 L -6.479,-2.02 v -7 c 0,-2.246 1.204,-3.387 4.006,-3.938 l 1.853,1.853 0.391,-0.389 -4.33,-4.235 c -4.07,0.619 -5.893,3.031 -5.893,6.024 v 4.981 c 0,0.551 -0.033,0.88 -0.257,1.175 2.246,0.974 5.434,2.926 7.321,4.523 0.362,-0.487 1.075,-1.107 1.89,-1.107 0.414,0 0.868,0.124 1.208,0.325 C -0.107,0.303 0.03,0.204 0,0"/>
                </g>
                <g transform="translate(263.453,9.1345)" id="g88">
                    <path id="path90" style="fill:#ffffff;fill-opacity:1;fill-rule:nonzero;stroke:none" d="m 0,0 -3.451,-3.421 c -1.759,0.619 -3.093,1.849 -3.093,3.875 v 7.975 c 0,0.928 -0.363,1.586 -1.203,2.018 L -8.919,9.28 -9.279,9.637 -5.6,13.313 c 2.372,-1.274 3.029,-2.708 3.029,-4.36 V 1.074 c 0,-0.84 0.356,-1.368 1.202,-1.694 L -0.389,0.389 0,0"/>
                </g>
                <g transform="translate(255.8329,9.0031)" id="g92">
                    <path id="path94" style="fill:#ffffff;fill-opacity:1;fill-rule:nonzero;stroke:none" d="m 0,0 -3.319,-3.289 c -1.825,0.683 -3.192,1.902 -3.192,3.841 v 6.74 c 0,2.052 -0.293,2.833 -1.985,3.55 L -10.124,9.245 V 1.043 c 0,-1.004 0.456,-1.433 1.365,-1.792 l -2.536,-2.54 c -2.053,0.813 -2.801,1.986 -2.801,4.038 v 7.978 c 0,1.205 -0.327,1.594 -1.206,1.918 l -0.88,-0.877 -0.387,0.357 3.286,3.32 c 2.116,-0.518 3.061,-1.92 3.124,-3.482 l 3.515,3.482 c 2.706,-0.616 4.103,-2.049 4.103,-4.849 V 0.814 c 0,-0.811 0.423,-1.237 1.141,-1.431 L -0.422,0.387 0,0"/>
                </g>
                <g transform="translate(227.0528,21.4732)" id="g96">
                    <path id="path98" style="fill:#ffffff;fill-opacity:1;fill-rule:nonzero;stroke:none" d="m 0,0 c -0.487,-2.018 -1.757,-3.353 -3.679,-3.353 -1.131,0 -1.922,0.519 -2.476,1.104 L -6.25,-2.315 v -8.396 c 0,-1.173 0.16,-1.759 1.856,-2.248 l 1.008,1.04 0.391,-0.39 -3.483,-3.45 c -2.8,0.783 -3.747,2.266 -3.747,4.526 v 6.999 c 0,1.239 -0.291,1.953 -1.136,2.183 l -1.044,-1.043 -0.39,0.392 3.676,3.676 c 1.599,-0.292 2.641,-1.692 2.705,-2.93 l 3.028,2.93 c 0.391,-0.585 1.14,-1.202 1.823,-1.202 0.423,0 0.879,0.129 1.206,0.389 C -0.177,0.307 0.043,0.17 0,0"/>
                </g>
                <g transform="translate(213.443,11.1206)" id="g100">
                    <path id="path102" style="fill:#ffffff;fill-opacity:1;fill-rule:nonzero;stroke:none" d="m 0,0 c 0,-5.147 -2.572,-7.49 -6.12,-9.539 -0.328,-0.191 -0.653,-0.031 -0.293,0.323 1.789,1.758 2.441,3.159 2.441,7.26 v 7.359 c 0,1.855 -0.456,2.767 -2.018,3.289 L -7.586,7.128 v -7.88 c 0,-1.463 0.523,-1.82 1.369,-2.083 l -2.541,-2.572 c -2.019,0.783 -2.803,2.021 -2.803,3.745 v 16.278 c 0,0.93 -0.294,1.553 -1.137,1.987 l -0.942,-0.947 -0.391,0.393 3.485,3.451 c 2.343,-0.977 2.93,-2.711 2.93,-4.363 V 7.845 l 3.514,3.482 C -1.499,10.838 0,9.115 0,6.837 V 0"/>
                </g>
                <g transform="translate(289.2724,15.0927)" id="g104">
                    <path id="path106" style="fill:#ffffff;fill-opacity:1;fill-rule:nonzero;stroke:none" d="m 0,0 c -0.75,1.106 -2.082,3.393 -2.735,4.656 l -0.164,-0.1 v -6.381 z m 3.645,1.757 -6.544,-4.2 v -0.52 c 0,-1.856 1.171,-2.932 4.038,-3.645 l 1.884,1.884 0.395,-0.355 -4.331,-4.3 c -3.711,1.043 -5.958,2.343 -5.958,5.924 v 4.886 c 0,0.652 -0.065,1.075 -0.229,1.37 2.02,0.974 5.525,3.078 7.294,4.523 C 1.043,5.848 2.503,3.286 3.645,1.757"/>
                </g>
                <g transform="translate(234.4772,8.1558)" id="g108">
                    <path id="path110" style="fill:#ffffff;fill-opacity:1;fill-rule:nonzero;stroke:none" d="m 0,0 v 8.238 c 0,2.117 -1.433,3.255 -3.748,3.548 l -0.16,-0.065 V 3.612 c 0,-2.505 1.433,-3.318 3.709,-3.708 z m 4.201,1.922 c -2.056,-0.939 -5.318,-2.806 -7.655,-4.364 -2.67,0.619 -4.428,2.282 -4.428,5.015 v 6.024 c 0,0.593 -0.064,0.943 -0.26,1.205 2.149,0.944 5.927,3.105 7.719,4.361 2.572,-0.586 4.394,-2.345 4.394,-4.882 V 3.388 c 0,-0.749 0.093,-1.178 0.23,-1.466"/>
                </g>
                <g transform="translate(192.506,8.2544)" id="g112">
                    <path id="path114" style="fill:#ffffff;fill-opacity:1;fill-rule:nonzero;stroke:none" d="m 0,0 v 18.428 c -0.394,0.307 -0.744,0.685 -1.007,1.107 L -1.916,18.818 V 7.619 C -1.916,5.178 -3.372,4.381 -6.508,2.18 -4.937,0.787 -2.759,0.023 0,0 m 8.239,2.572 c -1.612,-3.281 -4.775,-5.925 -9.604,-5.925 -6.808,0 -12.502,3.939 -12.502,12.24 0,6.336 3.958,10.306 8.887,12.013 0.341,0.119 0.533,-0.12 0.228,-0.356 -3.191,-2.474 -4.914,-5.836 -4.914,-9.574 0,-3.634 0.93,-6.531 2.8,-8.43 0.806,0.651 1.136,1.261 1.136,2.149 v 10.416 c 0,0.881 -0.038,1.333 -0.453,1.759 2.629,1.265 6.157,4.015 8.301,5.699 1.108,-1.079 1.731,-1.85 4.329,-1.531 0.372,0.045 0.413,0.041 0.296,-0.294 -0.77,-2.215 -2.141,-3.256 -4.137,-3.256 -0.723,0 -1.366,0.224 -2.016,0.621 L 0.59,0 c 2.779,0.094 5.534,1.56 7.323,2.866 0.26,0.187 0.442,-0.06 0.326,-0.294"/>
                </g>
            </g>
        </g>
    </g>
</svg>